G04 Layer_Physical_Order=1*
G04 Layer_Color=255*
%FSLAX43Y43*%
%MOMM*%
G71*
G01*
G75*
%ADD10R,6.000X5.000*%
%ADD11C,0.254*%
%ADD12R,1.000X1.400*%
%ADD13R,1.300X0.600*%
%ADD14R,0.890X0.640*%
%ADD15R,0.640X0.890*%
%ADD16R,0.640X1.000*%
%ADD17R,3.100X1.700*%
%ADD18R,4.600X1.100*%
%ADD19C,0.381*%
%ADD20C,0.127*%
%ADD21R,1.850X1.850*%
%ADD22C,1.850*%
%ADD23C,5.000*%
%ADD24R,1.850X1.850*%
%ADD25C,1.600*%
%ADD26R,1.600X1.600*%
%ADD27R,1.400X1.400*%
%ADD28C,1.400*%
%ADD29C,0.406*%
G36*
X39462Y-8755D02*
X38112D01*
X38612Y-8255D01*
X38112Y-7755D01*
X39462D01*
Y-8755D01*
D02*
G37*
G36*
X38362Y-8255D02*
X37862Y-8755D01*
X37062D01*
Y-7755D01*
X37862D01*
X38362Y-8255D01*
D02*
G37*
G36*
X43864Y-8755D02*
X42514D01*
X43014Y-8255D01*
X42514Y-7755D01*
X43864D01*
Y-8755D01*
D02*
G37*
G36*
X42764Y-8255D02*
X42264Y-8755D01*
X41464D01*
Y-7755D01*
X42264D01*
X42764Y-8255D01*
D02*
G37*
D10*
X3175Y-3810D02*
D03*
D11*
X37762Y-8255D02*
D03*
X38862D02*
D03*
X42164D02*
D03*
X43264D02*
D03*
D12*
X38354Y-10414D02*
D03*
X39304Y-12614D02*
D03*
X37404D02*
D03*
X42865Y-10500D02*
D03*
X43815Y-12700D02*
D03*
X41915D02*
D03*
D13*
X28155Y-9210D02*
D03*
Y-11110D02*
D03*
X25955D02*
D03*
Y-10160D02*
D03*
Y-9210D02*
D03*
D14*
X22225Y-9460D02*
D03*
Y-10860D02*
D03*
X32385Y-9525D02*
D03*
Y-10925D02*
D03*
X23495Y-9460D02*
D03*
Y-10860D02*
D03*
X31115Y-9525D02*
D03*
Y-10925D02*
D03*
D15*
X31052Y-12700D02*
D03*
X32451D02*
D03*
D16*
X38036Y-14605D02*
D03*
X39437D02*
D03*
X42480D02*
D03*
X43880D02*
D03*
D17*
X12490Y-13820D02*
D03*
Y-3420D02*
D03*
X51645Y-2880D02*
D03*
Y-13280D02*
D03*
D18*
X15240Y-11620D02*
D03*
Y-9620D02*
D03*
Y-7620D02*
D03*
Y-5620D02*
D03*
X48895Y-5080D02*
D03*
Y-7080D02*
D03*
Y-9080D02*
D03*
Y-11080D02*
D03*
D19*
X3175Y-21590D02*
Y-19685D01*
X1905Y-18415D02*
X3175Y-19685D01*
X35770Y-15367D02*
X36322Y-15919D01*
Y-25527D02*
Y-15919D01*
Y-25527D02*
X37465Y-26670D01*
X38735D01*
X28210Y-4810D02*
X30210Y-2810D01*
X5080Y-7620D02*
X6350Y-8890D01*
X2540Y-7620D02*
X5080D01*
X1905Y-8255D02*
X2540Y-7620D01*
X1905Y-18415D02*
Y-8255D01*
X3175Y-19685D02*
X7620D01*
X45085Y-26670D02*
X46355Y-25400D01*
X41275Y-26670D02*
X45085D01*
X46355Y-25400D02*
X48895D01*
X46355Y-21590D02*
X48895D01*
X46355Y-25400D02*
Y-21590D01*
Y-19685D01*
X26381Y-9230D02*
X26402Y-9210D01*
X28210Y-7985D02*
X34628D01*
X25080Y-9210D02*
X25955D01*
X24829Y-9462D02*
X25080Y-9210D01*
X28655D02*
X29594D01*
X34290Y-15367D02*
Y-10160D01*
Y-15367D02*
X35770D01*
X34628Y-7985D02*
X35560Y-8917D01*
X25080Y-11110D02*
X25955D01*
X24829Y-10858D02*
X25080Y-11110D01*
X24829Y-10858D02*
Y-9462D01*
X23495Y-11430D02*
X24130Y-12065D01*
X26670D01*
X27305Y-10160D02*
X29210D01*
X26670Y-15367D02*
Y-13970D01*
Y-15367D02*
X34290D01*
X16510Y-26670D02*
X17780Y-25400D01*
X47625Y-11080D02*
X47752Y-11207D01*
Y-12446D02*
Y-11207D01*
X41915Y-13467D02*
X42481Y-14033D01*
X45339Y-9525D02*
X45784Y-9080D01*
X47625D01*
X45339Y-14986D02*
Y-9525D01*
X44450Y-15875D02*
X45339Y-14986D01*
X37470Y-13340D02*
Y-12700D01*
Y-13340D02*
X38036Y-13906D01*
Y-15240D02*
X38672Y-15875D01*
X44450D01*
X35560Y-13970D02*
X38227Y-16637D01*
X43307D01*
X35560Y-13970D02*
Y-8917D01*
X43307Y-16637D02*
X46355Y-19685D01*
X20828Y-9969D02*
X21336Y-9462D01*
X20828Y-12065D02*
X21590Y-12827D01*
Y-13970D02*
Y-12827D01*
X20828Y-12065D02*
Y-9969D01*
X17780Y-17044D02*
X18809Y-16015D01*
X17780Y-25400D02*
Y-17044D01*
X5715Y-21590D02*
X9144D01*
X11684Y-24130D01*
X37084Y-22479D02*
X38735Y-24130D01*
X37084Y-22479D02*
Y-20066D01*
X41915Y-13467D02*
Y-12700D01*
X25975Y-9230D02*
X26381D01*
X25955Y-10160D02*
X27305D01*
Y-10381D02*
Y-10160D01*
X27060Y-10626D02*
X27305Y-10381D01*
X27060Y-11583D02*
Y-10626D01*
X26670Y-12065D02*
Y-11974D01*
X27060Y-11583D01*
X26402Y-9210D02*
X26985D01*
X28210Y-7985D02*
Y-4810D01*
X26985Y-9210D02*
X27060Y-9134D01*
Y-8726D01*
X27321Y-8465D01*
X27730D01*
X28210Y-7985D01*
X23495Y-11430D02*
Y-10860D01*
Y-10858D01*
X29210Y-10160D02*
X29909Y-10858D01*
X33591Y-9462D02*
X34290Y-10160D01*
X29594Y-9210D02*
X29845Y-9462D01*
X38036Y-15240D02*
Y-14605D01*
Y-13906D01*
X3175Y-25400D02*
Y-21590D01*
X11684Y-24130D02*
X13335D01*
X15875D01*
X38735D02*
X41275D01*
X45085D01*
X13335Y-26670D02*
X15875D01*
X16510D01*
X21336Y-9462D02*
X24829D01*
X7620Y-19685D02*
X11938Y-15367D01*
X26670D01*
X29845Y-9462D02*
X33591D01*
X18605Y-6795D02*
X20574D01*
X17780Y-7620D02*
X18605Y-6795D01*
X15875Y-4445D02*
X17653D01*
X15240Y-5080D02*
X15875Y-4445D01*
X15240Y-5620D02*
Y-5080D01*
X42481Y-15811D02*
Y-14033D01*
X17145Y-7620D02*
X17780D01*
X36576Y-12700D02*
X37470D01*
X22225Y-10858D02*
X23495D01*
X32449Y-12700D02*
Y-10922D01*
X29909Y-10858D02*
X32385D01*
X32449Y-10922D01*
D20*
X22590Y-1893D02*
X22603Y-1905D01*
X23817D01*
X23830Y-1893D01*
X7620Y-15240D02*
X8255Y-14605D01*
Y-12700D01*
X10033Y-10922D02*
Y-2147D01*
X10287Y-1893D01*
X8255Y-12700D02*
X10033Y-10922D01*
X10287Y-1893D02*
X22590D01*
X9652Y-1989D02*
X10129Y-1512D01*
X9652Y-10668D02*
Y-1989D01*
X9271Y-1831D02*
X9971Y-1130D01*
X8890Y-1524D02*
X9665Y-749D01*
X19177Y-8763D02*
X22987D01*
X24384Y-7366D01*
X26416D01*
X22733Y-8382D02*
X24384Y-6731D01*
X36703Y-9652D02*
X37251Y-10200D01*
X36703Y-9652D02*
Y-8382D01*
X36830Y-8255D01*
X39370Y-12700D02*
X39433Y-12764D01*
X39180Y-9335D02*
Y-8255D01*
Y-9335D02*
X39370Y-9525D01*
X43625Y-9080D02*
Y-5271D01*
X43815Y-5080D01*
X47625D01*
X18923Y-8382D02*
X22733D01*
X22225Y-7620D02*
X23749Y-6096D01*
X24924D01*
X26210Y-4810D01*
X18923Y-7620D02*
X22225D01*
X44577Y-7747D02*
X45244Y-7080D01*
X44577Y-9879D02*
Y-7747D01*
X45244Y-7080D02*
X47625D01*
X41910Y-9779D02*
X42331Y-10200D01*
X41402Y-6985D02*
X41910Y-7493D01*
X39751Y-19050D02*
X41275D01*
X38735Y-18034D02*
X39751Y-19050D01*
X38735Y-18034D02*
Y-17399D01*
X3810Y-11430D02*
Y-10414D01*
X4064Y-10160D01*
X6350Y-11430D02*
X8128D01*
X9271Y-10287D01*
Y-1831D01*
X8255Y-10160D02*
X8890Y-9525D01*
Y-1524D01*
X4064Y-10160D02*
X8255D01*
X3810Y-14986D02*
Y-13970D01*
Y-14986D02*
X4064Y-15240D01*
X7620D01*
X31992Y-1893D02*
X32210Y-2111D01*
Y-2810D02*
Y-2111D01*
X34210Y-2810D02*
Y-1952D01*
X33770Y-1512D02*
X34210Y-1952D01*
X10129Y-1512D02*
X33770D01*
X36210Y-2810D02*
Y-1920D01*
X35421Y-1130D02*
X36210Y-1920D01*
X9971Y-1130D02*
X35421D01*
X38210Y-2810D02*
Y-1888D01*
X37071Y-749D02*
X38210Y-1888D01*
X9665Y-749D02*
X37071D01*
X31242Y-5969D02*
X31877D01*
X32893Y-6985D01*
X41402D01*
X32210Y-5540D02*
Y-4810D01*
Y-5540D02*
X33020Y-6350D01*
X35687D01*
X27432Y-7366D02*
Y-6985D01*
X27178Y-6731D02*
X27432Y-6985D01*
X44450Y-11303D02*
Y-10922D01*
X43815Y-11938D02*
X44450Y-11303D01*
X43625Y-9080D02*
X43942Y-9398D01*
X6350Y-16510D02*
X7620D01*
X8636Y-15494D01*
Y-12954D01*
X10795Y-10795D01*
X11049D01*
X6350Y-13970D02*
X7493D01*
X7874Y-13589D01*
Y-12446D01*
X9652Y-10668D01*
X43815Y-12700D02*
X43879Y-12764D01*
X41910Y-9779D02*
Y-7493D01*
X36830Y-8255D02*
X37465D01*
X43682Y-11332D02*
Y-10773D01*
X44577Y-9879D01*
X43457Y-11557D02*
X43682Y-11332D01*
X39370Y-11557D02*
X43457D01*
X39370D02*
Y-9525D01*
X24384Y-6731D02*
X27178D01*
X28155Y-12280D02*
X28575Y-12700D01*
X31052D01*
X28155Y-12280D02*
Y-11110D01*
X23830Y-1893D02*
X31992D01*
X42331Y-10200D02*
X42865D01*
X43815Y-12700D02*
Y-11938D01*
X37251Y-10200D02*
X38420D01*
X12065Y-10160D02*
X12700Y-9525D01*
X15145D01*
X15240Y-9620D01*
X17685D02*
X18923Y-8382D01*
X11049Y-10795D02*
X11430D01*
X12255Y-11620D01*
X18415Y-9525D02*
X19177Y-8763D01*
X18415Y-10795D02*
Y-9525D01*
X17590Y-11620D02*
X18415Y-10795D01*
X39370Y-12700D02*
Y-11557D01*
X39433Y-14605D02*
Y-12764D01*
X43879Y-14605D02*
Y-12764D01*
X15240Y-9620D02*
X17685D01*
X12255Y-11620D02*
X15240D01*
X17590D01*
X33689Y-45085D02*
G03*
X34535Y-44239I0J846D01*
G01*
X20035D02*
G03*
X20881Y-45085I846J0D01*
G01*
X20035Y-32485D02*
G03*
X19035Y-32485I-500J0D01*
G01*
X18189Y-45085D02*
G03*
X19035Y-44239I-0J846D01*
G01*
X35535Y-32485D02*
G03*
X34535Y-32485I-500J0D01*
G01*
Y-29220D02*
G03*
X35535Y-29220I500J0D01*
G01*
Y-18669D02*
G03*
X33386Y-16520I-2149J0D01*
G01*
X34535Y-18510D02*
G03*
X33345Y-17320I-1190J0D01*
G01*
X21225D02*
G03*
X20035Y-18510I0J-1190D01*
G01*
X21229Y-16520D02*
G03*
X19035Y-18714I0J-2194D01*
G01*
Y-29220D02*
G03*
X20035Y-29220I500J0D01*
G01*
X35535Y-44239D02*
G03*
X36381Y-45085I846J0D01*
G01*
X54610Y-27940D02*
Y-1270D01*
X53340Y0D02*
X54610Y-1270D01*
X1270Y0D02*
X53340D01*
X46355Y-43815D02*
Y-30480D01*
X36381Y-45085D02*
X45085D01*
X46355Y-43815D01*
X8255D02*
Y-30480D01*
Y-43815D02*
X9525Y-45085D01*
X18189D01*
X0Y-27940D02*
Y-1270D01*
X1270Y0D01*
X20881Y-45085D02*
X33689D01*
X20035Y-44239D02*
Y-32520D01*
X19035Y-44239D02*
X19035Y-32520D01*
X35535D02*
X35535Y-44239D01*
X34535Y-44239D02*
Y-32520D01*
X46355Y-30480D02*
X47625Y-29210D01*
X53340D02*
X54610Y-27940D01*
X47625Y-29210D02*
X53340D01*
X0Y-27940D02*
X1270Y-29210D01*
X6985D01*
X8255Y-30480D01*
X35535Y-29220D02*
Y-18669D01*
X34535Y-29220D02*
Y-18510D01*
X21229Y-16520D02*
X33386D01*
X21225Y-17320D02*
X33345D01*
X20035Y-29220D02*
Y-18510D01*
X19035Y-29220D02*
Y-18714D01*
D21*
X3810Y-16510D02*
D03*
X13335Y-41910D02*
D03*
X41275D02*
D03*
X15875D02*
D03*
X38735D02*
D03*
D22*
X3810Y-13970D02*
D03*
Y-11430D02*
D03*
Y-8890D02*
D03*
X6350D02*
D03*
Y-11430D02*
D03*
Y-13970D02*
D03*
Y-16510D02*
D03*
X24130Y-13970D02*
D03*
X26670D02*
D03*
X13335Y-39370D02*
D03*
Y-36830D02*
D03*
Y-34290D02*
D03*
Y-31750D02*
D03*
Y-29210D02*
D03*
Y-26670D02*
D03*
Y-24130D02*
D03*
Y-21590D02*
D03*
Y-19050D02*
D03*
X41275Y-39370D02*
D03*
Y-36830D02*
D03*
Y-34290D02*
D03*
Y-31750D02*
D03*
Y-29210D02*
D03*
Y-26670D02*
D03*
Y-24130D02*
D03*
Y-21590D02*
D03*
Y-19050D02*
D03*
X15875Y-29210D02*
D03*
Y-31750D02*
D03*
Y-39370D02*
D03*
Y-36830D02*
D03*
Y-34290D02*
D03*
Y-26670D02*
D03*
Y-24130D02*
D03*
X38735Y-29210D02*
D03*
Y-31750D02*
D03*
Y-39370D02*
D03*
Y-36830D02*
D03*
Y-34290D02*
D03*
Y-26670D02*
D03*
Y-24130D02*
D03*
D23*
X5715Y-3810D02*
D03*
D24*
X21590Y-13970D02*
D03*
D25*
X5715Y-21590D02*
D03*
X51435D02*
D03*
X5715Y-25400D02*
D03*
X51435D02*
D03*
D26*
X3175Y-21590D02*
D03*
X48895D02*
D03*
X3175Y-25400D02*
D03*
X48895D02*
D03*
D27*
X38210Y-4810D02*
D03*
D28*
X36210D02*
D03*
X34210D02*
D03*
X32210D02*
D03*
X30210D02*
D03*
X28210D02*
D03*
X26210D02*
D03*
X24210D02*
D03*
X38210Y-2810D02*
D03*
X36210D02*
D03*
X34210D02*
D03*
X32210D02*
D03*
X30210D02*
D03*
X28210D02*
D03*
X26210D02*
D03*
X24210D02*
D03*
X22210D02*
D03*
Y-4810D02*
D03*
X20210D02*
D03*
Y-2810D02*
D03*
D29*
X27432Y-7366D02*
D03*
X26416D02*
D03*
X36703Y-9652D02*
D03*
X35687Y-6350D02*
D03*
X18923Y-7620D02*
D03*
X20574Y-6795D02*
D03*
X31242Y-5969D02*
D03*
X47752Y-12446D02*
D03*
X36576Y-12700D02*
D03*
X38735Y-17399D02*
D03*
X44450Y-10922D02*
D03*
X43942Y-9398D02*
D03*
X18809Y-16015D02*
D03*
X17653Y-4445D02*
D03*
X26670Y-12065D02*
D03*
X45085Y-24130D02*
D03*
X37084Y-20066D02*
D03*
X12065Y-10160D02*
D03*
X11049Y-10795D02*
D03*
M02*
