G04 Layer_Color=32896*
%FSLAX43Y43*%
%MOMM*%
G71*
G01*
G75*
%ADD20C,0.127*%
%ADD48C,0.152*%
D20*
X33689Y-45085D02*
G03*
X34535Y-44239I0J846D01*
G01*
X20035D02*
G03*
X20881Y-45085I846J0D01*
G01*
X20035Y-32485D02*
G03*
X19035Y-32485I-500J0D01*
G01*
X18189Y-45085D02*
G03*
X19035Y-44239I-0J846D01*
G01*
X35535Y-32485D02*
G03*
X34535Y-32485I-500J0D01*
G01*
Y-29220D02*
G03*
X35535Y-29220I500J0D01*
G01*
Y-18669D02*
G03*
X33386Y-16520I-2149J0D01*
G01*
X34535Y-18510D02*
G03*
X33345Y-17320I-1190J0D01*
G01*
X21225D02*
G03*
X20035Y-18510I0J-1190D01*
G01*
X21229Y-16520D02*
G03*
X19035Y-18714I0J-2194D01*
G01*
Y-29220D02*
G03*
X20035Y-29220I500J0D01*
G01*
X35535Y-44239D02*
G03*
X36381Y-45085I846J0D01*
G01*
X54610Y-27940D02*
Y-1270D01*
X53340Y0D02*
X54610Y-1270D01*
X1270Y0D02*
X53340D01*
X46355Y-43815D02*
Y-30480D01*
X36381Y-45085D02*
X45085D01*
X46355Y-43815D01*
X8255D02*
Y-30480D01*
Y-43815D02*
X9525Y-45085D01*
X18189D01*
X0Y-27940D02*
Y-1270D01*
X1270Y0D01*
X20881Y-45085D02*
X33689D01*
X20035Y-44239D02*
Y-32520D01*
X19035Y-44239D02*
X19035Y-32520D01*
X35535D02*
X35535Y-44239D01*
X34535Y-44239D02*
Y-32520D01*
X46355Y-30480D02*
X47625Y-29210D01*
X53340D02*
X54610Y-27940D01*
X47625Y-29210D02*
X53340D01*
X0Y-27940D02*
X1270Y-29210D01*
X6985D01*
X8255Y-30480D01*
X35535Y-29220D02*
Y-18669D01*
X34535Y-29220D02*
Y-18510D01*
X21229Y-16520D02*
X33386D01*
X21225Y-17320D02*
X33345D01*
X20035Y-29220D02*
Y-18510D01*
X19035Y-29220D02*
Y-18714D01*
D48*
X50292Y-4699D02*
X51562D01*
X50292D02*
X51562Y-5183D01*
X50292Y-5666D02*
X51562Y-5183D01*
X50292Y-5666D02*
X51562D01*
X50292Y-6029D02*
X51562D01*
X50292D02*
Y-6573D01*
X50353Y-6755D01*
X50413Y-6815D01*
X50534Y-6876D01*
X50655D01*
X50776Y-6815D01*
X50836Y-6755D01*
X50897Y-6573D01*
Y-6029D02*
Y-6573D01*
X50957Y-6755D01*
X51018Y-6815D01*
X51139Y-6876D01*
X51320D01*
X51441Y-6815D01*
X51502Y-6755D01*
X51562Y-6573D01*
Y-6029D01*
X50534Y-7160D02*
X50474Y-7281D01*
X50292Y-7462D01*
X51562D01*
X50595Y-8151D02*
X50534D01*
X50413Y-8212D01*
X50353Y-8272D01*
X50292Y-8393D01*
Y-8635D01*
X50353Y-8756D01*
X50413Y-8817D01*
X50534Y-8877D01*
X50655D01*
X50776Y-8817D01*
X50957Y-8696D01*
X51562Y-8091D01*
Y-8937D01*
X50292Y-9524D02*
X50353Y-9343D01*
X50474Y-9282D01*
X50595D01*
X50716Y-9343D01*
X50776Y-9464D01*
X50836Y-9705D01*
X50897Y-9887D01*
X51018Y-10008D01*
X51139Y-10068D01*
X51320D01*
X51441Y-10008D01*
X51502Y-9947D01*
X51562Y-9766D01*
Y-9524D01*
X51502Y-9343D01*
X51441Y-9282D01*
X51320Y-9222D01*
X51139D01*
X51018Y-9282D01*
X50897Y-9403D01*
X50836Y-9584D01*
X50776Y-9826D01*
X50716Y-9947D01*
X50595Y-10008D01*
X50474D01*
X50353Y-9947D01*
X50292Y-9766D01*
Y-9524D01*
Y-10715D02*
X50353Y-10534D01*
X50534Y-10413D01*
X50836Y-10352D01*
X51018D01*
X51320Y-10413D01*
X51502Y-10534D01*
X51562Y-10715D01*
Y-10836D01*
X51502Y-11017D01*
X51320Y-11138D01*
X51018Y-11199D01*
X50836D01*
X50534Y-11138D01*
X50353Y-11017D01*
X50292Y-10836D01*
Y-10715D01*
Y-11483D02*
X51562D01*
X50292D02*
Y-12027D01*
X50353Y-12209D01*
X50413Y-12269D01*
X50534Y-12329D01*
X50655D01*
X50776Y-12269D01*
X50836Y-12209D01*
X50897Y-12027D01*
Y-11483D02*
Y-12027D01*
X50957Y-12209D01*
X51018Y-12269D01*
X51139Y-12329D01*
X51320D01*
X51441Y-12269D01*
X51502Y-12209D01*
X51562Y-12027D01*
Y-11483D01*
X48387Y-4699D02*
X49657D01*
X48387D02*
Y-5485D01*
X48992Y-4699D02*
Y-5183D01*
X48811Y-6356D02*
X49657D01*
X48992D02*
X48871Y-6235D01*
X48811Y-6114D01*
Y-5932D01*
X48871Y-5812D01*
X48992Y-5691D01*
X49173Y-5630D01*
X49294D01*
X49476Y-5691D01*
X49597Y-5812D01*
X49657Y-5932D01*
Y-6114D01*
X49597Y-6235D01*
X49476Y-6356D01*
X48811Y-6694D02*
X49657D01*
X49052D02*
X48871Y-6876D01*
X48811Y-6997D01*
Y-7178D01*
X48871Y-7299D01*
X49052Y-7359D01*
X49657D01*
X48811Y-7994D02*
X48871Y-7873D01*
X48992Y-7752D01*
X49173Y-7692D01*
X49294D01*
X49476Y-7752D01*
X49597Y-7873D01*
X49657Y-7994D01*
Y-8176D01*
X49597Y-8297D01*
X49476Y-8417D01*
X49294Y-8478D01*
X49173D01*
X48992Y-8417D01*
X48871Y-8297D01*
X48811Y-8176D01*
Y-7994D01*
Y-8756D02*
X49415D01*
X49597Y-8817D01*
X49657Y-8937D01*
Y-9119D01*
X49597Y-9240D01*
X49415Y-9421D01*
X48811D02*
X49657D01*
X48387Y-9935D02*
X49415D01*
X49597Y-9996D01*
X49657Y-10117D01*
Y-10237D01*
X48811Y-9754D02*
Y-10177D01*
X48387Y-11416D02*
X49657D01*
X48992D02*
X48871Y-11537D01*
X48811Y-11658D01*
Y-11840D01*
X48871Y-11961D01*
X48992Y-12082D01*
X49173Y-12142D01*
X49294D01*
X49476Y-12082D01*
X49597Y-11961D01*
X49657Y-11840D01*
Y-11658D01*
X49597Y-11537D01*
X49476Y-11416D01*
X48811Y-12716D02*
X48871Y-12595D01*
X48992Y-12475D01*
X49173Y-12414D01*
X49294D01*
X49476Y-12475D01*
X49597Y-12595D01*
X49657Y-12716D01*
Y-12898D01*
X49597Y-13019D01*
X49476Y-13140D01*
X49294Y-13200D01*
X49173D01*
X48992Y-13140D01*
X48871Y-13019D01*
X48811Y-12898D01*
Y-12716D01*
Y-14204D02*
X49657D01*
X48992D02*
X48871Y-14083D01*
X48811Y-13962D01*
Y-13781D01*
X48871Y-13660D01*
X48992Y-13539D01*
X49173Y-13478D01*
X49294D01*
X49476Y-13539D01*
X49597Y-13660D01*
X49657Y-13781D01*
Y-13962D01*
X49597Y-14083D01*
X49476Y-14204D01*
X48811Y-14542D02*
X49657D01*
X49173D02*
X48992Y-14603D01*
X48871Y-14724D01*
X48811Y-14845D01*
Y-15026D01*
X48387Y-15867D02*
X49657D01*
X48992D02*
X48871Y-15746D01*
X48811Y-15625D01*
Y-15443D01*
X48871Y-15322D01*
X48992Y-15201D01*
X49173Y-15141D01*
X49294D01*
X49476Y-15201D01*
X49597Y-15322D01*
X49657Y-15443D01*
Y-15625D01*
X49597Y-15746D01*
X49476Y-15867D01*
M02*
