M48
;Layer_Color=9474304
;FILE_FORMAT=2:5
INCH,LZ
;TYPE=PLATED
T1F00S00C0.01181
T2F00S00C0.03200
T3F00S00C0.03600
T4F00S00C0.04000
T5F00S00C0.04291
T6F00S00C0.05000
T7F00S00C0.12835
%
T01
X0071Y0054
X0102Y00535
X0105Y00505
X015Y004
X0188
X02005Y00405
X0238Y0049
X025Y0055
X02615Y0056
X02605Y00615
X02425Y00625
X0239Y00645
X0225Y00745
Y009
X0227Y01385
X02435Y0136
X0263Y0135
X02625Y0124
X0250814Y0121814
X0248436Y0119436
X02525Y01475
Y0150862
X0243216Y0161284
X0294Y01575
X0296Y01345
X0318Y0126
X03245Y01195
Y0079
X02825Y0113
X0271Y01055
X0338Y0168
X0344Y02
X0183Y0179
X01895Y01705
X01795Y014
X01785Y013
X01765Y01235
X0176Y01175
X0193Y0119
X01975
X0202
Y01235
Y0128
X01975
X0193
Y01235
Y0109
X01975
X0202
Y0104
X01975
X0193
X0177Y00985
X0180311Y0089019
X0163Y00845
X01655Y00815
X016Y00785
X0154Y00745
X01485Y0079
X01265Y00695
X01225Y007
X0113Y0071
X010675Y007025
X010375Y007325
X01015Y0095
X0093
X00715Y00675
X0057Y0071
X0072Y01295
X01235Y0163
X01425Y01795
X01505
X01545Y01935
X0157Y01965
X0134Y01975
X01265Y0202
X01155Y0193
X0051Y01105
X00515Y01065
Y01025
X00525Y009
X0046Y0089
X0048Y00715
X01855Y02145
T02
X01405Y0147
X01505
T03
X01105Y0022
Y0032
X01205
Y0022
X01305
Y0032
X0177Y00325
Y00225
X0187
Y00325
X0197
Y00225
X02595Y00235
Y00335
X02695
Y00235
X02795
Y00335
T04
X02431Y01942
X02609
X02115Y02095
X02015
X01915
X01815
X01715
X01615
X01515
X01415
X01315
X01215
Y02195
X01315
X01415
X01515
X01615
X01715
X01815
X01915
X02015
X02115
X02431Y02198
X02609
T05
X0357508Y0070689
Y0081595
Y00925
Y0103405
Y0114311
X0368689Y0108858
Y0097953
Y0087047
Y0076142
X0030097Y0128189
Y0139094
Y015
Y0160906
Y0171811
X0018916Y0166358
Y0155453
Y0144547
Y0133642
T06
X00095Y0040499
Y0050499
X0009Y0068
Y0078
T07
X0363098Y0043307
Y0141693
X0024507Y0100807
Y0199193
M30
