M48
;Layer_Color=9474304
;FILE_FORMAT=2:5
INCH,LZ
;TYPE=PLATED
T1F00S00C0.01181
T2F00S00C0.03200
T3F00S00C0.03600
T4F00S00C0.04000
T5F00S00C0.04291
T6F00S00C0.05000
T7F00S00C0.12835
%
T01
X00935Y0053
X0117Y0048
X0118Y00375
X01315Y00365
X01285Y0049
X01355Y00485
X01395Y0049
X0145Y00495
X01505Y0049
X0151Y0024
X01405
X0147Y0015
X0195Y00385
X0202Y0039
X02025Y0056
X0189Y00565
X0226Y0049
X02655Y00485
X0284Y00435
X0379Y0032
X03835Y00185
X0374Y0015
X03935Y0045
X0421Y00105
X0404Y0163
X04035Y017
X0385Y0169
Y01635
X0382Y0154
X03825Y01755
X03785Y0186
X03715Y0189
X03755Y02115
X03805Y02085
X0409Y0206
X0369Y02
X03685Y0184
X0362Y01865
X03625Y017
X0361Y016
X0357Y01515
X03565Y01405
X0367Y0143
X0362Y01295
X0332441Y0130559
X03115Y01275
X03125Y0112
X0319Y01115
X0305874Y0111626
X0299Y0113
X0301937Y01065
X03Y00945
X0323Y0098
Y0089
X03265Y0074
Y00655
X03145Y0067
X0314Y0076
X02825Y0083
X028Y00695
X0268Y00645
X02505Y0071
X0249Y0079
X02565Y0081
X02695Y00905
X02745Y0096
X0275Y01045
X0267Y0099
X0259Y01105
X02525Y011
X02465Y0121
X02395Y0119
X0232Y0113
X0221Y01115
X02325Y00895
X0231Y0083
X0256Y01295
X0257Y01535
X0251Y0156
X02475Y0151
X02525Y01695
X0253Y01765
X0241Y01775
Y017
X02285Y01725
X0217Y0178
X02155Y01995
X02135Y0207
X022Y021
X03145Y0203
X032Y01995
X03335Y01925
X03315Y01795
X03445Y01665
X0338Y0149
X03285Y0154
X03175Y01485
X03085Y01465
X03025Y0145
X02985Y014
X03065Y01395
X02775Y012
X0345Y0108
X03475Y0198
X0351Y02095
X02115Y02025
Y01965
X02005Y0196
X02035Y02005
X02075Y0206
X0209Y01755
X0195Y0179
X01935Y0166
X01915Y0154
X02015Y0158
X02055Y015
X01985Y01465
X0193Y01355
X0192Y0118
X01985Y012
X0209Y01125
X01705Y0116
X01515Y0121
X0158Y01685
X01585Y01745
X0163Y01735
X0158Y01805
X01425Y0202
X01415Y0207
X01465Y02075
X0135Y0209
X0138Y01975
X0125Y0197
X0121Y02035
X01195Y01815
X01145Y01775
X01155Y01715
X0125575Y0171575
X00855Y0184
X0087Y02025
X0063Y01785
X0089Y01175
X0095Y00675
X01035
X0185306Y0060694
X019Y00865
X0054Y0069
X00545Y00625
X0048Y00615
X004526Y01795
X0052Y0223
Y02455
X0009523Y0241976
X0011Y0233
X00835Y0222
X0088Y024
X00875Y02515
X01865Y0231
X01975Y024
X0179Y0214
X02255
X0224Y0232
X02375
X0285Y02315
X0359Y02145
X03605Y02505
X03915Y0244
X0405Y0255
X0415Y0238
X0371Y02225
X0373273Y0213727
T02
X0197Y0067
X0207
T03
X0108Y0019
X0118
X0128
Y0029
X0118
X0108
T04
X01925Y02475
X02025
X02125
Y02575
X02025
X01925
X02225
X02325
X02425
X02525
X02625
X02725
X02825
Y02475
X02725
X02625
X02525
X02425
X02325
X02225
X03141Y02578
X03319
Y02322
X03141
T05
X0433508Y0060189
Y0071095
Y0082
Y0092905
Y0103811
X0444689Y0098358
Y0087453
Y0076547
Y0065642
X0032097Y0100689
Y0111594
Y01225
Y0133405
Y0144311
X0020916Y0138858
Y0127953
Y0117047
Y0106142
T06
X0011Y00405
Y00505
X04455Y0153001
Y0163001
T07
X0439098Y0032807
Y0131193
X0026507Y0171693
Y0073307
M30
