%FSLAX25Y25*%
%MOIN*%
G70*
G01*
G75*
G04 Layer_Color=8388736*
%ADD10C,0.01000*%
%ADD11C,0.10000*%
%ADD12C,0.07480*%
%ADD13C,0.07500*%
%ADD14C,0.02500*%
%ADD15C,0.00600*%
%ADD16C,0.05600*%
%ADD17O,0.05400X0.10800*%
G04:AMPARAMS|DCode=18|XSize=181mil|YSize=181mil|CornerRadius=0mil|HoleSize=0mil|Usage=FLASHONLY|Rotation=180.000|XOffset=0mil|YOffset=0mil|HoleType=Round|Shape=Octagon|*
%AMOCTAGOND18*
4,1,8,-0.09050,0.04525,-0.09050,-0.04525,-0.04525,-0.09050,0.04525,-0.09050,0.09050,-0.04525,0.09050,0.04525,0.04525,0.09050,-0.04525,0.09050,-0.09050,0.04525,0.0*
%
%ADD18OCTAGOND18*%

%ADD19C,0.18100*%
%ADD20O,0.08400X0.16800*%
G04:AMPARAMS|DCode=21|XSize=59.06mil|YSize=118.11mil|CornerRadius=0mil|HoleSize=0mil|Usage=FLASHONLY|Rotation=0.000|XOffset=0mil|YOffset=0mil|HoleType=Round|Shape=Octagon|*
%AMOCTAGOND21*
4,1,8,-0.01476,0.05906,0.01476,0.05906,0.02953,0.04429,0.02953,-0.04429,0.01476,-0.05906,-0.01476,-0.05906,-0.02953,-0.04429,-0.02953,0.04429,-0.01476,0.05906,0.0*
%
%ADD21OCTAGOND21*%

%ADD22O,0.12000X0.06000*%
%ADD23O,0.06000X0.12000*%
%ADD24O,0.07800X0.15600*%
%ADD25C,0.04800*%
G04:AMPARAMS|DCode=26|XSize=124mil|YSize=124mil|CornerRadius=0mil|HoleSize=0mil|Usage=FLASHONLY|Rotation=0.000|XOffset=0mil|YOffset=0mil|HoleType=Round|Shape=Octagon|*
%AMOCTAGOND26*
4,1,8,0.06200,-0.03100,0.06200,0.03100,0.03100,0.06200,-0.03100,0.06200,-0.06200,0.03100,-0.06200,-0.03100,-0.03100,-0.06200,0.03100,-0.06200,0.06200,-0.03100,0.0*
%
%ADD26OCTAGOND26*%

%ADD27C,0.12400*%
%ADD28C,0.07000*%
%ADD29C,0.06000*%
%ADD30O,0.10800X0.05400*%
G04:AMPARAMS|DCode=31|XSize=54mil|YSize=54mil|CornerRadius=0mil|HoleSize=0mil|Usage=FLASHONLY|Rotation=180.000|XOffset=0mil|YOffset=0mil|HoleType=Round|Shape=Octagon|*
%AMOCTAGOND31*
4,1,8,-0.02700,0.01350,-0.02700,-0.01350,-0.01350,-0.02700,0.01350,-0.02700,0.02700,-0.01350,0.02700,0.01350,0.01350,0.02700,-0.01350,0.02700,-0.02700,0.01350,0.0*
%
%ADD31OCTAGOND31*%

G04:AMPARAMS|DCode=32|XSize=100mil|YSize=100mil|CornerRadius=0mil|HoleSize=0mil|Usage=FLASHONLY|Rotation=180.000|XOffset=0mil|YOffset=0mil|HoleType=Round|Shape=Octagon|*
%AMOCTAGOND32*
4,1,8,-0.05000,0.02500,-0.05000,-0.02500,-0.02500,-0.05000,0.02500,-0.05000,0.05000,-0.02500,0.05000,0.02500,0.02500,0.05000,-0.02500,0.05000,-0.05000,0.02500,0.0*
%
%ADD32OCTAGOND32*%

%ADD33C,0.10000*%
%ADD34C,0.02362*%
%ADD35C,0.05000*%
%ADD36C,0.04724*%
%ADD37C,0.15748*%
%ADD38C,0.01575*%
G04:AMPARAMS|DCode=39|XSize=100mil|YSize=100mil|CornerRadius=50mil|HoleSize=0mil|Usage=FLASHONLY|Rotation=90.000|XOffset=0mil|YOffset=0mil|HoleType=Round|Shape=RoundedRectangle|*
%AMROUNDEDRECTD39*
21,1,0.10000,0.00000,0,0,90.0*
21,1,0.00000,0.10000,0,0,90.0*
1,1,0.10000,0.00000,0.00000*
1,1,0.10000,0.00000,0.00000*
1,1,0.10000,0.00000,0.00000*
1,1,0.10000,0.00000,0.00000*
%
%ADD39ROUNDEDRECTD39*%
%ADD40R,0.07500X0.07500*%
%ADD41R,0.07100X0.07500*%
%ADD42R,0.08300X0.06300*%
%ADD43R,0.01600X0.05400*%
%ADD44R,0.04331X0.05512*%
%ADD45R,0.06000X0.02400*%
%ADD46R,0.05200X0.06000*%
G04:AMPARAMS|DCode=47|XSize=39.37mil|YSize=39.37mil|CornerRadius=19.69mil|HoleSize=0mil|Usage=FLASHONLY|Rotation=90.000|XOffset=0mil|YOffset=0mil|HoleType=Round|Shape=RoundedRectangle|*
%AMROUNDEDRECTD47*
21,1,0.03937,0.00000,0,0,90.0*
21,1,0.00000,0.03937,0,0,90.0*
1,1,0.03937,0.00000,0.00000*
1,1,0.03937,0.00000,0.00000*
1,1,0.03937,0.00000,0.00000*
1,1,0.03937,0.00000,0.00000*
%
%ADD47ROUNDEDRECTD47*%
%ADD48R,0.03937X0.05118*%
%ADD49R,0.05118X0.03937*%
%ADD50R,0.02400X0.08700*%
%ADD51R,0.03600X0.02800*%
%ADD52R,0.04000X0.04800*%
%ADD53R,0.02400X0.04400*%
%ADD54R,0.03000X0.09700*%
%ADD55R,0.08600X0.02200*%
%ADD56R,0.06000X0.05200*%
%ADD57R,0.02800X0.03600*%
%ADD58R,0.04800X0.07100*%
%ADD59R,0.01200X0.04700*%
%ADD60R,0.04700X0.01200*%
%ADD61R,0.10700X0.07100*%
%ADD62R,0.04000X0.05600*%
%ADD63R,0.07100X0.12600*%
%ADD64R,0.04000X0.04400*%
G04:AMPARAMS|DCode=65|XSize=24mil|YSize=24mil|CornerRadius=12mil|HoleSize=0mil|Usage=FLASHONLY|Rotation=180.000|XOffset=0mil|YOffset=0mil|HoleType=Round|Shape=RoundedRectangle|*
%AMROUNDEDRECTD65*
21,1,0.02400,0.00000,0,0,180.0*
21,1,0.00000,0.02400,0,0,180.0*
1,1,0.02400,0.00000,0.00000*
1,1,0.02400,0.00000,0.00000*
1,1,0.02400,0.00000,0.00000*
1,1,0.02400,0.00000,0.00000*
%
%ADD65ROUNDEDRECTD65*%
%ADD66R,0.05600X0.04000*%
%ADD67R,0.03600X0.02400*%
%ADD68R,0.01181X0.01969*%
%ADD69R,0.02800X0.02400*%
%ADD70R,0.12600X0.07100*%
G04:AMPARAMS|DCode=71|XSize=23.62mil|YSize=23.62mil|CornerRadius=11.81mil|HoleSize=0mil|Usage=FLASHONLY|Rotation=180.000|XOffset=0mil|YOffset=0mil|HoleType=Round|Shape=RoundedRectangle|*
%AMROUNDEDRECTD71*
21,1,0.02362,0.00000,0,0,180.0*
21,1,0.00000,0.02362,0,0,180.0*
1,1,0.02362,0.00000,0.00000*
1,1,0.02362,0.00000,0.00000*
1,1,0.02362,0.00000,0.00000*
1,1,0.02362,0.00000,0.00000*
%
%ADD71ROUNDEDRECTD71*%
%ADD72C,0.02000*%
%ADD73C,0.05000*%
%ADD74C,0.00100*%
%ADD75C,0.03000*%
%ADD76C,0.06400*%
%ADD77O,0.06200X0.11600*%
G04:AMPARAMS|DCode=78|XSize=189mil|YSize=189mil|CornerRadius=0mil|HoleSize=0mil|Usage=FLASHONLY|Rotation=180.000|XOffset=0mil|YOffset=0mil|HoleType=Round|Shape=Octagon|*
%AMOCTAGOND78*
4,1,8,-0.09450,0.04725,-0.09450,-0.04725,-0.04725,-0.09450,0.04725,-0.09450,0.09450,-0.04725,0.09450,0.04725,0.04725,0.09450,-0.04725,0.09450,-0.09450,0.04725,0.0*
%
%ADD78OCTAGOND78*%

%ADD79C,0.18900*%
%ADD80O,0.09200X0.17600*%
G04:AMPARAMS|DCode=81|XSize=67.06mil|YSize=126.11mil|CornerRadius=0mil|HoleSize=0mil|Usage=FLASHONLY|Rotation=0.000|XOffset=0mil|YOffset=0mil|HoleType=Round|Shape=Octagon|*
%AMOCTAGOND81*
4,1,8,-0.01676,0.06306,0.01676,0.06306,0.03353,0.04629,0.03353,-0.04629,0.01676,-0.06306,-0.01676,-0.06306,-0.03353,-0.04629,-0.03353,0.04629,-0.01676,0.06306,0.0*
%
%ADD81OCTAGOND81*%

%ADD82O,0.12800X0.06800*%
%ADD83O,0.06800X0.12800*%
%ADD84O,0.08600X0.16400*%
G04:AMPARAMS|DCode=85|XSize=132mil|YSize=132mil|CornerRadius=0mil|HoleSize=0mil|Usage=FLASHONLY|Rotation=0.000|XOffset=0mil|YOffset=0mil|HoleType=Round|Shape=Octagon|*
%AMOCTAGOND85*
4,1,8,0.06600,-0.03300,0.06600,0.03300,0.03300,0.06600,-0.03300,0.06600,-0.06600,0.03300,-0.06600,-0.03300,-0.03300,-0.06600,0.03300,-0.06600,0.06600,-0.03300,0.0*
%
%ADD85OCTAGOND85*%

%ADD86C,0.13200*%
%ADD87C,0.07800*%
%ADD88C,0.06800*%
%ADD89O,0.11600X0.06200*%
G04:AMPARAMS|DCode=90|XSize=62mil|YSize=62mil|CornerRadius=0mil|HoleSize=0mil|Usage=FLASHONLY|Rotation=180.000|XOffset=0mil|YOffset=0mil|HoleType=Round|Shape=Octagon|*
%AMOCTAGOND90*
4,1,8,-0.03100,0.01550,-0.03100,-0.01550,-0.01550,-0.03100,0.01550,-0.03100,0.03100,-0.01550,0.03100,0.01550,0.01550,0.03100,-0.01550,0.03100,-0.03100,0.01550,0.0*
%
%ADD90OCTAGOND90*%

G04:AMPARAMS|DCode=91|XSize=108mil|YSize=108mil|CornerRadius=0mil|HoleSize=0mil|Usage=FLASHONLY|Rotation=180.000|XOffset=0mil|YOffset=0mil|HoleType=Round|Shape=Octagon|*
%AMOCTAGOND91*
4,1,8,-0.05400,0.02700,-0.05400,-0.02700,-0.02700,-0.05400,0.02700,-0.05400,0.05400,-0.02700,0.05400,0.02700,0.02700,0.05400,-0.02700,0.05400,-0.05400,0.02700,0.0*
%
%ADD91OCTAGOND91*%

%ADD92C,0.10800*%
%ADD93C,0.03162*%
%ADD94C,0.05800*%
%ADD95C,0.05524*%
%ADD96C,0.16548*%
%ADD97C,0.02375*%
D16*
X164500Y360000D02*
D03*
Y350000D02*
D03*
D76*
X90579Y16000D02*
D03*
X109000D02*
D03*
X707421Y60500D02*
D03*
X689000D02*
D03*
X446421Y55500D02*
D03*
X428000D02*
D03*
X490421Y15500D02*
D03*
X472000D02*
D03*
X14000Y351500D02*
D03*
X24000D02*
D03*
X14000Y361500D02*
D03*
X24000D02*
D03*
X14000Y371500D02*
D03*
X24000D02*
D03*
X14000Y381500D02*
D03*
X24000D02*
D03*
X14000Y391500D02*
D03*
X24000D02*
D03*
X14000Y401500D02*
D03*
X24000D02*
D03*
X14000Y411500D02*
D03*
X24000D02*
D03*
X14000Y421500D02*
D03*
X24000D02*
D03*
X14000Y431500D02*
D03*
X24000D02*
D03*
X14000Y441500D02*
D03*
X24000D02*
D03*
X14500Y248000D02*
D03*
X24500D02*
D03*
X14500Y258000D02*
D03*
X24500D02*
D03*
X14500Y268000D02*
D03*
X24500D02*
D03*
X14500Y278000D02*
D03*
X24500D02*
D03*
X14500Y288000D02*
D03*
X24500D02*
D03*
X14500Y298000D02*
D03*
X24500D02*
D03*
X14500Y308000D02*
D03*
X24500D02*
D03*
D77*
X189000Y29000D02*
D03*
X179000D02*
D03*
X30000Y179500D02*
D03*
X20000D02*
D03*
X10000D02*
D03*
X30000Y119000D02*
D03*
X20000D02*
D03*
X10000D02*
D03*
X631500Y25000D02*
D03*
X621500D02*
D03*
D78*
X225500Y69500D02*
D03*
X348500Y93000D02*
D03*
X689000Y157500D02*
D03*
X827500Y64500D02*
D03*
D79*
X265500Y69500D02*
D03*
X388500Y93000D02*
D03*
X729000Y157500D02*
D03*
X787500Y64500D02*
D03*
D80*
X550000Y142000D02*
D03*
X442000D02*
D03*
D81*
X610764Y8400D02*
D03*
X620782D02*
D03*
X630582D02*
D03*
X169382Y9900D02*
D03*
X179400D02*
D03*
X189200D02*
D03*
X572882Y8400D02*
D03*
X582900D02*
D03*
X592700D02*
D03*
D82*
X14000Y68000D02*
D03*
Y78000D02*
D03*
Y88000D02*
D03*
D83*
X136700Y273000D02*
D03*
X217500D02*
D03*
X10500Y160000D02*
D03*
X20500D02*
D03*
X30500D02*
D03*
X10500Y140000D02*
D03*
X20500D02*
D03*
X30500D02*
D03*
X28400Y198700D02*
D03*
X10600D02*
D03*
X28400Y224300D02*
D03*
X10600D02*
D03*
D84*
X749118Y12000D02*
D03*
X718718D02*
D03*
X688700Y11500D02*
D03*
X658200Y11000D02*
D03*
X416118Y13000D02*
D03*
X385718D02*
D03*
X355700Y12500D02*
D03*
X325200Y12000D02*
D03*
D85*
X631000Y116500D02*
D03*
D86*
X601500D02*
D03*
D87*
X451500Y12000D02*
D03*
X441500D02*
D03*
X305500Y12500D02*
D03*
X295500D02*
D03*
D88*
X138000Y228500D02*
D03*
X49000Y209500D02*
D03*
X152500Y377500D02*
D03*
X156500Y340000D02*
D03*
X173500Y353000D02*
D03*
D89*
X151000Y110500D02*
D03*
Y100500D02*
D03*
Y90500D02*
D03*
D90*
X176000Y493500D02*
D03*
Y483500D02*
D03*
X186000Y493500D02*
D03*
Y483500D02*
D03*
X196000Y493500D02*
D03*
Y483500D02*
D03*
X113000Y495000D02*
D03*
Y485000D02*
D03*
X123000Y495000D02*
D03*
Y485000D02*
D03*
X133000Y495000D02*
D03*
Y485000D02*
D03*
D91*
X46000Y37500D02*
D03*
D92*
X66000D02*
D03*
D93*
X175500Y210500D02*
D03*
X186500Y183500D02*
D03*
X177000Y183000D02*
D03*
X178000Y112000D02*
D03*
X224500Y112500D02*
D03*
X200000Y172000D02*
D03*
Y207500D02*
D03*
X173000D02*
D03*
X196000Y204500D02*
D03*
X168000Y220500D02*
D03*
X164000Y216000D02*
D03*
X129000Y306000D02*
D03*
X105000Y306500D02*
D03*
X48000Y290000D02*
D03*
X47500Y295000D02*
D03*
X67319Y404016D02*
D03*
X70000Y458500D02*
D03*
X74000Y461500D02*
D03*
X78500Y464500D02*
D03*
X83000Y466500D02*
D03*
X95500Y474000D02*
D03*
X113500Y281000D02*
D03*
X76500Y275000D02*
D03*
X79000Y278000D02*
D03*
X83000Y279500D02*
D03*
X86000Y282500D02*
D03*
X52500Y472000D02*
D03*
X19500Y471500D02*
D03*
X87500Y468000D02*
D03*
X79000Y389500D02*
D03*
X91500Y471000D02*
D03*
X81500Y393500D02*
D03*
X170000Y462500D02*
D03*
X100500Y476000D02*
D03*
X83500Y384500D02*
D03*
X105000Y478000D02*
D03*
X143500Y481500D02*
D03*
X142000Y457500D02*
D03*
X140500Y461500D02*
D03*
X139500Y480500D02*
D03*
X123500Y465000D02*
D03*
X131000Y463000D02*
D03*
X127000Y462500D02*
D03*
X125517Y479483D02*
D03*
X164000Y466500D02*
D03*
X198500Y409000D02*
D03*
X180000Y406500D02*
D03*
X174000Y371500D02*
D03*
X198000Y369500D02*
D03*
X169500Y369000D02*
D03*
X197500Y364500D02*
D03*
X88000Y440000D02*
D03*
X115877Y278623D02*
D03*
X118255Y276245D02*
D03*
X120632Y273868D02*
D03*
X110500Y262000D02*
D03*
X67500Y262500D02*
D03*
X150000Y263000D02*
D03*
X193500Y215000D02*
D03*
X98181Y268681D02*
D03*
X146638Y263000D02*
D03*
X193500Y210500D02*
D03*
X88000Y412500D02*
D03*
X91500Y268000D02*
D03*
X188000Y266000D02*
D03*
X142500Y368500D02*
D03*
X83500Y368000D02*
D03*
X125000Y361500D02*
D03*
X86500Y364500D02*
D03*
X146500Y366000D02*
D03*
X125500Y348000D02*
D03*
X49000Y284000D02*
D03*
X138500Y452000D02*
D03*
X119500Y479500D02*
D03*
X104500Y484500D02*
D03*
X65500Y457792D02*
D03*
X61000Y415000D02*
D03*
X265000Y151000D02*
D03*
X207000Y361500D02*
D03*
X163500Y368500D02*
D03*
X150000Y439000D02*
D03*
X191000Y323500D02*
D03*
X62000Y324500D02*
D03*
Y368000D02*
D03*
X59000Y378500D02*
D03*
X38500Y405000D02*
D03*
X40000Y428000D02*
D03*
X78000Y316000D02*
D03*
X202500Y315500D02*
D03*
X205500Y227500D02*
D03*
X50000Y230500D02*
D03*
X220500Y415500D02*
D03*
X221500Y429000D02*
D03*
X144000Y347500D02*
D03*
X130000Y346000D02*
D03*
X109000Y411500D02*
D03*
X116500Y412000D02*
D03*
X95500Y430500D02*
D03*
X99500Y431500D02*
D03*
X96500Y435000D02*
D03*
X187000Y449000D02*
D03*
Y452500D02*
D03*
Y456000D02*
D03*
X150000Y450000D02*
D03*
X146000D02*
D03*
X94500Y374000D02*
D03*
X62000Y436000D02*
D03*
X62500Y432500D02*
D03*
X62000Y429000D02*
D03*
X113000Y390000D02*
D03*
X33500Y393000D02*
D03*
X659000Y68500D02*
D03*
X655500D02*
D03*
X216000Y476000D02*
D03*
D94*
X126500Y55000D02*
D03*
X317000Y106000D02*
D03*
X287500Y111500D02*
D03*
X598500Y32000D02*
D03*
X574000Y51000D02*
D03*
X535500Y154500D02*
D03*
X311500Y97000D02*
D03*
X280000Y105000D02*
D03*
X300000Y86000D02*
D03*
X275500Y97000D02*
D03*
X553500Y186000D02*
D03*
X552500Y157000D02*
D03*
X433000Y165500D02*
D03*
X418500Y168500D02*
D03*
X546500Y189000D02*
D03*
X535000Y205000D02*
D03*
X541500Y200000D02*
D03*
X195500Y64500D02*
D03*
X154000Y43500D02*
D03*
X165000Y136000D02*
D03*
X192500Y134000D02*
D03*
X202000Y58000D02*
D03*
X164500Y22500D02*
D03*
X128000Y231500D02*
D03*
X104000Y159500D02*
D03*
X65500Y253000D02*
D03*
X128500Y160000D02*
D03*
X214500Y158000D02*
D03*
X65500Y88500D02*
D03*
X208000Y87000D02*
D03*
X113000Y72500D02*
D03*
X221000Y86000D02*
D03*
X260500Y131500D02*
D03*
X77000Y125000D02*
D03*
X77500Y56500D02*
D03*
X84500Y72500D02*
D03*
X79000Y183000D02*
D03*
X90500Y180500D02*
D03*
X610000Y212500D02*
D03*
X616000Y206500D02*
D03*
X579000Y165500D02*
D03*
Y209000D02*
D03*
X66000Y119000D02*
D03*
X206500Y122500D02*
D03*
X160000Y230000D02*
D03*
D95*
X211000Y453000D02*
D03*
X210500Y409500D02*
D03*
X268500Y217500D02*
D03*
D96*
X856000Y211000D02*
D03*
Y11500D02*
D03*
X12000Y12000D02*
D03*
X220500Y230500D02*
D03*
X12000Y490500D02*
D03*
X221500D02*
D03*
D97*
X138000Y409500D02*
D03*
M02*
