%FSLAX25Y25*%
%MOIN*%
G70*
G01*
G75*
G04 Layer_Physical_Order=1*
G04 Layer_Color=255*
%ADD10C,0.01000*%
%ADD11C,0.10000*%
%ADD12C,0.07480*%
%ADD13C,0.07500*%
%ADD14C,0.02500*%
%ADD15C,0.00600*%
%ADD16C,0.05600*%
%ADD17O,0.05400X0.10800*%
G04:AMPARAMS|DCode=18|XSize=181mil|YSize=181mil|CornerRadius=0mil|HoleSize=0mil|Usage=FLASHONLY|Rotation=180.000|XOffset=0mil|YOffset=0mil|HoleType=Round|Shape=Octagon|*
%AMOCTAGOND18*
4,1,8,-0.09050,0.04525,-0.09050,-0.04525,-0.04525,-0.09050,0.04525,-0.09050,0.09050,-0.04525,0.09050,0.04525,0.04525,0.09050,-0.04525,0.09050,-0.09050,0.04525,0.0*
%
%ADD18OCTAGOND18*%

%ADD19C,0.18100*%
%ADD20O,0.08400X0.16800*%
G04:AMPARAMS|DCode=21|XSize=59.06mil|YSize=118.11mil|CornerRadius=0mil|HoleSize=0mil|Usage=FLASHONLY|Rotation=0.000|XOffset=0mil|YOffset=0mil|HoleType=Round|Shape=Octagon|*
%AMOCTAGOND21*
4,1,8,-0.01476,0.05906,0.01476,0.05906,0.02953,0.04429,0.02953,-0.04429,0.01476,-0.05906,-0.01476,-0.05906,-0.02953,-0.04429,-0.02953,0.04429,-0.01476,0.05906,0.0*
%
%ADD21OCTAGOND21*%

%ADD22O,0.12000X0.06000*%
%ADD23O,0.06000X0.12000*%
%ADD24O,0.07800X0.15600*%
%ADD25C,0.04800*%
G04:AMPARAMS|DCode=26|XSize=124mil|YSize=124mil|CornerRadius=0mil|HoleSize=0mil|Usage=FLASHONLY|Rotation=0.000|XOffset=0mil|YOffset=0mil|HoleType=Round|Shape=Octagon|*
%AMOCTAGOND26*
4,1,8,0.06200,-0.03100,0.06200,0.03100,0.03100,0.06200,-0.03100,0.06200,-0.06200,0.03100,-0.06200,-0.03100,-0.03100,-0.06200,0.03100,-0.06200,0.06200,-0.03100,0.0*
%
%ADD26OCTAGOND26*%

%ADD27C,0.12400*%
%ADD28C,0.07000*%
%ADD29C,0.06000*%
%ADD30O,0.10800X0.05400*%
G04:AMPARAMS|DCode=31|XSize=54mil|YSize=54mil|CornerRadius=0mil|HoleSize=0mil|Usage=FLASHONLY|Rotation=180.000|XOffset=0mil|YOffset=0mil|HoleType=Round|Shape=Octagon|*
%AMOCTAGOND31*
4,1,8,-0.02700,0.01350,-0.02700,-0.01350,-0.01350,-0.02700,0.01350,-0.02700,0.02700,-0.01350,0.02700,0.01350,0.01350,0.02700,-0.01350,0.02700,-0.02700,0.01350,0.0*
%
%ADD31OCTAGOND31*%

G04:AMPARAMS|DCode=32|XSize=100mil|YSize=100mil|CornerRadius=0mil|HoleSize=0mil|Usage=FLASHONLY|Rotation=180.000|XOffset=0mil|YOffset=0mil|HoleType=Round|Shape=Octagon|*
%AMOCTAGOND32*
4,1,8,-0.05000,0.02500,-0.05000,-0.02500,-0.02500,-0.05000,0.02500,-0.05000,0.05000,-0.02500,0.05000,0.02500,0.02500,0.05000,-0.02500,0.05000,-0.05000,0.02500,0.0*
%
%ADD32OCTAGOND32*%

%ADD33C,0.10000*%
%ADD34C,0.02362*%
%ADD35C,0.05000*%
%ADD36C,0.04724*%
%ADD37C,0.15748*%
%ADD38C,0.01575*%
G36*
X231093Y499248D02*
X231095Y499235D01*
Y222222D01*
X231212Y221637D01*
X231543Y221141D01*
X232011Y220673D01*
X232507Y220341D01*
X232605Y220322D01*
X233093Y220225D01*
X265745D01*
X265969Y219725D01*
X265563Y219196D01*
X265224Y218378D01*
X265109Y217500D01*
X265224Y216622D01*
X265563Y215804D01*
X266102Y215102D01*
X266206Y215022D01*
Y155450D01*
X263378Y152622D01*
X262880Y151878D01*
X262706Y151000D01*
X262880Y150122D01*
X263378Y149378D01*
X264122Y148881D01*
X265000Y148706D01*
X265878Y148881D01*
X266622Y149378D01*
X270122Y152878D01*
X270620Y153622D01*
X270794Y154500D01*
Y215022D01*
X270898Y215102D01*
X271437Y215804D01*
X271776Y216622D01*
X271891Y217500D01*
X271776Y218378D01*
X271437Y219196D01*
X271031Y219725D01*
X271255Y220225D01*
X854177D01*
X854260Y219746D01*
X852588Y219238D01*
X851046Y218414D01*
X849695Y217305D01*
X848586Y215954D01*
X847762Y214412D01*
X847254Y212740D01*
X847132Y211500D01*
X856000D01*
Y211000D01*
X856500D01*
Y202132D01*
X857740Y202254D01*
X859412Y202762D01*
X860954Y203586D01*
X862305Y204695D01*
X863414Y206046D01*
X863586Y206367D01*
X864071Y206245D01*
Y16255D01*
X863586Y16133D01*
X863414Y16454D01*
X862305Y17805D01*
X860954Y18914D01*
X859412Y19738D01*
X857740Y20246D01*
X856500Y20368D01*
Y11500D01*
X856000D01*
Y11000D01*
X847132D01*
X847254Y9760D01*
X847762Y8088D01*
X848586Y6546D01*
X849695Y5195D01*
X851046Y4086D01*
X852588Y3262D01*
X853354Y3029D01*
X853280Y2529D01*
X690569D01*
X690470Y3029D01*
X691171Y3320D01*
X692195Y4105D01*
X692980Y5129D01*
X693474Y6321D01*
X693642Y7600D01*
Y15400D01*
X693474Y16679D01*
X692980Y17871D01*
X692195Y18895D01*
X691171Y19680D01*
X689979Y20174D01*
X688700Y20342D01*
X687421Y20174D01*
X686229Y19680D01*
X685205Y18895D01*
X684420Y17871D01*
X683926Y16679D01*
X683758Y15400D01*
Y7600D01*
X683926Y6321D01*
X684420Y5129D01*
X685205Y4105D01*
X686229Y3320D01*
X686930Y3029D01*
X686831Y2529D01*
X661114D01*
X660944Y3029D01*
X661695Y3605D01*
X662480Y4629D01*
X662974Y5821D01*
X663142Y7100D01*
Y10500D01*
X653258D01*
Y7100D01*
X653426Y5821D01*
X653920Y4629D01*
X654705Y3605D01*
X655456Y3029D01*
X655286Y2529D01*
X634246D01*
X634055Y2991D01*
X634535Y3471D01*
Y13329D01*
X632558Y15305D01*
X628606D01*
X626629Y13329D01*
Y3471D01*
X627109Y2991D01*
X626917Y2529D01*
X624446D01*
X624255Y2991D01*
X624735Y3471D01*
Y13329D01*
X622758Y15305D01*
X618806D01*
X616829Y13329D01*
Y3471D01*
X617309Y2991D01*
X617117Y2529D01*
X614428D01*
X614237Y2991D01*
X614716Y3471D01*
Y13329D01*
X612740Y15305D01*
X608787D01*
X606811Y13329D01*
Y3471D01*
X607291Y2991D01*
X607099Y2529D01*
X596364D01*
X596173Y2991D01*
X596653Y3471D01*
Y7900D01*
X588747D01*
Y3471D01*
X589227Y2991D01*
X589036Y2529D01*
X587509D01*
X587232Y2945D01*
X587528Y3660D01*
X587691Y4900D01*
Y34971D01*
X595471D01*
Y33801D01*
X595443Y33765D01*
X595090Y32914D01*
X594970Y32000D01*
X595090Y31086D01*
X595443Y30235D01*
X596004Y29504D01*
X596735Y28943D01*
X597586Y28590D01*
X598500Y28470D01*
X599414Y28590D01*
X600265Y28943D01*
X600996Y29504D01*
X601557Y30235D01*
X601910Y31086D01*
X602030Y32000D01*
X601910Y32914D01*
X601557Y33765D01*
X601016Y34471D01*
X601044Y34643D01*
X601155Y34971D01*
X626709D01*
Y25000D01*
X626872Y23760D01*
X627351Y22604D01*
X627806Y22011D01*
X627895Y21334D01*
X628268Y20434D01*
X628861Y19661D01*
X629634Y19068D01*
X630534Y18695D01*
X631500Y18568D01*
X632466Y18695D01*
X633366Y19068D01*
X634139Y19661D01*
X634732Y20434D01*
X635105Y21334D01*
X635194Y22011D01*
X635649Y22604D01*
X636128Y23760D01*
X636291Y25000D01*
Y37380D01*
X636513Y37650D01*
X637070Y38693D01*
X637413Y39824D01*
X637529Y41000D01*
X637413Y42176D01*
X637070Y43307D01*
X636513Y44350D01*
X635763Y45263D01*
X634850Y46013D01*
X633807Y46570D01*
X632676Y46913D01*
X631500Y47029D01*
X578934D01*
X576914Y49049D01*
X577057Y49235D01*
X577410Y50086D01*
X577530Y51000D01*
X577410Y51914D01*
X577057Y52765D01*
X576496Y53496D01*
X575765Y54057D01*
X574914Y54410D01*
X574000Y54530D01*
X573086Y54410D01*
X572235Y54057D01*
X571504Y53496D01*
X570943Y52765D01*
X570590Y51914D01*
X570470Y51000D01*
X570590Y50086D01*
X570943Y49235D01*
X571504Y48504D01*
X572235Y47943D01*
X573086Y47590D01*
X573550Y47529D01*
X573517Y47029D01*
X547497D01*
X447263Y147263D01*
X447086Y147409D01*
X447066Y147557D01*
X446542Y148822D01*
X445709Y149909D01*
X444622Y150742D01*
X443358Y151266D01*
X442000Y151445D01*
X440642Y151266D01*
X439378Y150742D01*
X438291Y149909D01*
X437458Y148822D01*
X436934Y147557D01*
X436755Y146200D01*
Y137800D01*
X436934Y136442D01*
X437458Y135178D01*
X438291Y134091D01*
X439378Y133258D01*
X440642Y132734D01*
X442000Y132555D01*
X443358Y132734D01*
X444335Y133139D01*
X540737Y36737D01*
X541650Y35987D01*
X542693Y35430D01*
X543824Y35087D01*
X545000Y34971D01*
X578109D01*
Y4900D01*
X578272Y3660D01*
X578568Y2945D01*
X578291Y2529D01*
X576546D01*
X576355Y2991D01*
X576835Y3471D01*
Y13329D01*
X574858Y15305D01*
X570905D01*
X568929Y13329D01*
Y3471D01*
X569409Y2991D01*
X569217Y2529D01*
X191261D01*
Y2529D01*
X191211Y3029D01*
X193153Y4971D01*
Y14829D01*
X191176Y16805D01*
X187224D01*
X185247Y14829D01*
Y4971D01*
X187189Y3029D01*
X187139Y2529D01*
Y2529D01*
X181460D01*
Y2529D01*
X181411Y3029D01*
X183353Y4971D01*
Y14829D01*
X181376Y16805D01*
X177424D01*
X175447Y14829D01*
Y4971D01*
X177389Y3029D01*
X177339Y2529D01*
Y2529D01*
X171442D01*
Y2529D01*
X171393Y3029D01*
X173335Y4971D01*
Y14829D01*
X171358Y16805D01*
X167405D01*
X165429Y14829D01*
Y4971D01*
X167371Y3029D01*
X167321Y2529D01*
Y2529D01*
X3029D01*
Y9280D01*
X3529Y9354D01*
X3762Y8588D01*
X4586Y7046D01*
X5695Y5695D01*
X7046Y4586D01*
X8588Y3762D01*
X10260Y3254D01*
X11500Y3132D01*
Y12000D01*
Y20868D01*
X10260Y20746D01*
X8588Y20238D01*
X7046Y19414D01*
X5695Y18305D01*
X4586Y16954D01*
X3762Y15412D01*
X3529Y14646D01*
X3029Y14720D01*
Y487780D01*
X3529Y487854D01*
X3762Y487088D01*
X4586Y485546D01*
X5695Y484195D01*
X7046Y483086D01*
X8588Y482262D01*
X10260Y481754D01*
X11500Y481632D01*
Y490500D01*
Y499368D01*
X10260Y499246D01*
X8588Y498738D01*
X7046Y497914D01*
X5695Y496805D01*
X4586Y495454D01*
X3762Y493912D01*
X3529Y493146D01*
X3029Y493220D01*
Y499973D01*
X231093D01*
Y499248D01*
D02*
G37*
%LPC*%
G36*
X699050Y157000D02*
X689500D01*
Y147450D01*
X694025D01*
X699050Y152475D01*
Y157000D01*
D02*
G37*
G36*
X688500D02*
X678950D01*
Y152475D01*
X683975Y147450D01*
X688500D01*
Y157000D01*
D02*
G37*
G36*
X20500Y167034D02*
X19456Y166897D01*
X18483Y166494D01*
X17647Y165853D01*
X17006Y165017D01*
X16603Y164044D01*
X16465Y163000D01*
Y157000D01*
X16603Y155956D01*
X17006Y154983D01*
X17647Y154147D01*
X18483Y153506D01*
X19456Y153103D01*
X20500Y152965D01*
X21544Y153103D01*
X22517Y153506D01*
X23353Y154147D01*
X23994Y154983D01*
X24397Y155956D01*
X24534Y157000D01*
Y163000D01*
X24397Y164044D01*
X23994Y165017D01*
X23353Y165853D01*
X22517Y166494D01*
X21544Y166897D01*
X20500Y167034D01*
D02*
G37*
G36*
X30500D02*
X29456Y166897D01*
X28483Y166494D01*
X27647Y165853D01*
X27006Y165017D01*
X26603Y164044D01*
X26465Y163000D01*
Y157000D01*
X26603Y155956D01*
X27006Y154983D01*
X27647Y154147D01*
X28483Y153506D01*
X29456Y153103D01*
X30500Y152965D01*
X31544Y153103D01*
X32517Y153506D01*
X33353Y154147D01*
X33994Y154983D01*
X34397Y155956D01*
X34534Y157000D01*
Y163000D01*
X34397Y164044D01*
X33994Y165017D01*
X33353Y165853D01*
X32517Y166494D01*
X31544Y166897D01*
X30500Y167034D01*
D02*
G37*
G36*
X729000Y167599D02*
X727030Y167405D01*
X725135Y166830D01*
X723389Y165897D01*
X721859Y164641D01*
X720603Y163110D01*
X719670Y161365D01*
X719095Y159470D01*
X718901Y157500D01*
X719095Y155530D01*
X719670Y153635D01*
X720603Y151890D01*
X721859Y150359D01*
X723389Y149103D01*
X725135Y148170D01*
X727030Y147595D01*
X729000Y147401D01*
X730970Y147595D01*
X732865Y148170D01*
X734611Y149103D01*
X736141Y150359D01*
X737397Y151890D01*
X738330Y153635D01*
X738905Y155530D01*
X739099Y157500D01*
X738905Y159470D01*
X738330Y161365D01*
X737397Y163110D01*
X736141Y164641D01*
X734611Y165897D01*
X732865Y166830D01*
X730970Y167405D01*
X729000Y167599D01*
D02*
G37*
G36*
X14535Y139500D02*
X11000D01*
Y133031D01*
X11544Y133103D01*
X12517Y133506D01*
X13353Y134147D01*
X13994Y134983D01*
X14397Y135956D01*
X14535Y137000D01*
Y139500D01*
D02*
G37*
G36*
X10000D02*
X6465D01*
Y137000D01*
X6603Y135956D01*
X7006Y134983D01*
X7647Y134147D01*
X8483Y133506D01*
X9456Y133103D01*
X10000Y133031D01*
Y139500D01*
D02*
G37*
G36*
X11000Y146969D02*
Y140500D01*
X14535D01*
Y143000D01*
X14397Y144044D01*
X13994Y145017D01*
X13353Y145853D01*
X12517Y146494D01*
X11544Y146897D01*
X11000Y146969D01*
D02*
G37*
G36*
X10000D02*
X9456Y146897D01*
X8483Y146494D01*
X7647Y145853D01*
X7006Y145017D01*
X6603Y144044D01*
X6465Y143000D01*
Y140500D01*
X10000D01*
Y146969D01*
D02*
G37*
G36*
X694025Y167550D02*
X689500D01*
Y158000D01*
X699050D01*
Y162525D01*
X694025Y167550D01*
D02*
G37*
G36*
X688500D02*
X683975D01*
X678950Y162525D01*
Y158000D01*
X688500D01*
Y167550D01*
D02*
G37*
G36*
X10000Y166969D02*
X9456Y166897D01*
X8483Y166494D01*
X7647Y165853D01*
X7006Y165017D01*
X6603Y164044D01*
X6465Y163000D01*
Y160500D01*
X10000D01*
Y166969D01*
D02*
G37*
G36*
X418500Y172030D02*
X417586Y171910D01*
X416735Y171557D01*
X416004Y170996D01*
X415443Y170265D01*
X415090Y169414D01*
X414970Y168500D01*
X415090Y167586D01*
X415443Y166735D01*
X416004Y166004D01*
X416735Y165443D01*
X417586Y165090D01*
X418500Y164970D01*
X419414Y165090D01*
X420265Y165443D01*
X420996Y166004D01*
X421557Y166735D01*
X421655Y166971D01*
X429356D01*
X429665Y166594D01*
X429590Y166414D01*
X429470Y165500D01*
X429590Y164586D01*
X429943Y163735D01*
X430504Y163004D01*
X431235Y162443D01*
X432086Y162090D01*
X433000Y161970D01*
X433914Y162090D01*
X434765Y162443D01*
X435496Y163004D01*
X436057Y163735D01*
X436410Y164586D01*
X436530Y165500D01*
X436410Y166414D01*
X436057Y167265D01*
X435496Y167996D01*
X434765Y168557D01*
X433914Y168910D01*
X433000Y169030D01*
X432086Y168910D01*
X431851Y168812D01*
X431081Y169581D01*
X430585Y169913D01*
X430000Y170029D01*
X421655D01*
X421557Y170265D01*
X420996Y170996D01*
X420265Y171557D01*
X419414Y171910D01*
X418500Y172030D01*
D02*
G37*
G36*
X11000Y166969D02*
Y160500D01*
X14535D01*
Y163000D01*
X14397Y164044D01*
X13994Y165017D01*
X13353Y165853D01*
X12517Y166494D01*
X11544Y166897D01*
X11000Y166969D01*
D02*
G37*
G36*
X14535Y159500D02*
X11000D01*
Y153031D01*
X11544Y153103D01*
X12517Y153506D01*
X13353Y154147D01*
X13994Y154983D01*
X14397Y155956D01*
X14535Y157000D01*
Y159500D01*
D02*
G37*
G36*
X10000D02*
X6465D01*
Y157000D01*
X6603Y155956D01*
X7006Y154983D01*
X7647Y154147D01*
X8483Y153506D01*
X9456Y153103D01*
X10000Y153031D01*
Y159500D01*
D02*
G37*
G36*
X553500Y189530D02*
X552586Y189410D01*
X551735Y189057D01*
X551004Y188496D01*
X550443Y187765D01*
X550090Y186914D01*
X549970Y186000D01*
X550090Y185086D01*
X550443Y184235D01*
X551004Y183504D01*
X551735Y182943D01*
X551971Y182845D01*
Y160460D01*
X551586Y160410D01*
X550735Y160057D01*
X550004Y159496D01*
X549443Y158765D01*
X549090Y157914D01*
X548970Y157000D01*
X549090Y156086D01*
X549443Y155235D01*
X550004Y154504D01*
X550735Y153943D01*
X551586Y153590D01*
X552500Y153470D01*
X553414Y153590D01*
X554265Y153943D01*
X554996Y154504D01*
X555557Y155235D01*
X555910Y156086D01*
X556030Y157000D01*
X555910Y157914D01*
X555557Y158765D01*
X555029Y159453D01*
Y182845D01*
X555265Y182943D01*
X555996Y183504D01*
X556557Y184235D01*
X556910Y185086D01*
X557030Y186000D01*
X556910Y186914D01*
X556557Y187765D01*
X555996Y188496D01*
X555265Y189057D01*
X554414Y189410D01*
X553500Y189530D01*
D02*
G37*
G36*
X20000Y185932D02*
X19034Y185805D01*
X18134Y185432D01*
X17361Y184839D01*
X16768Y184066D01*
X16395Y183166D01*
X16268Y182200D01*
Y176800D01*
X16395Y175834D01*
X16768Y174934D01*
X17361Y174161D01*
X18134Y173568D01*
X19034Y173195D01*
X20000Y173068D01*
X20095Y173081D01*
X20471Y172751D01*
Y171500D01*
X20587Y170915D01*
X20919Y170419D01*
X22419Y168919D01*
X22915Y168587D01*
X23500Y168471D01*
X93866D01*
X100999Y161338D01*
X100943Y161265D01*
X100590Y160414D01*
X100470Y159500D01*
X100590Y158586D01*
X100943Y157735D01*
X101504Y157004D01*
X102235Y156443D01*
X103086Y156090D01*
X104000Y155970D01*
X104914Y156090D01*
X105765Y156443D01*
X106496Y157004D01*
X107057Y157735D01*
X107410Y158586D01*
X107530Y159500D01*
X107410Y160414D01*
X107057Y161265D01*
X106496Y161996D01*
X105765Y162557D01*
X104914Y162910D01*
X104000Y163030D01*
X103675Y162987D01*
X95581Y171081D01*
X95085Y171413D01*
X94500Y171529D01*
X24134D01*
X23529Y172134D01*
Y175652D01*
X23605Y175834D01*
X23732Y176800D01*
Y182200D01*
X23605Y183166D01*
X23232Y184066D01*
X22639Y184839D01*
X21866Y185432D01*
X20966Y185805D01*
X20000Y185932D01*
D02*
G37*
G36*
X128500Y163530D02*
X127586Y163410D01*
X126735Y163057D01*
X126004Y162496D01*
X125443Y161765D01*
X125090Y160914D01*
X124970Y160000D01*
X125090Y159086D01*
X125443Y158235D01*
X126004Y157504D01*
X126735Y156943D01*
X127586Y156590D01*
X128500Y156470D01*
X129414Y156590D01*
X130265Y156943D01*
X130996Y157504D01*
X131557Y158235D01*
X131655Y158471D01*
X210653D01*
X210982Y158095D01*
X210970Y158000D01*
X211090Y157086D01*
X211443Y156235D01*
X212004Y155504D01*
X212735Y154943D01*
X213586Y154590D01*
X214500Y154470D01*
X215414Y154590D01*
X216265Y154943D01*
X216996Y155504D01*
X217557Y156235D01*
X217910Y157086D01*
X218030Y158000D01*
X217910Y158914D01*
X217557Y159765D01*
X216996Y160496D01*
X216265Y161057D01*
X215414Y161410D01*
X214500Y161530D01*
X213586Y161410D01*
X213280Y161283D01*
X213085Y161413D01*
X212500Y161529D01*
X131655D01*
X131557Y161765D01*
X130996Y162496D01*
X130265Y163057D01*
X129414Y163410D01*
X128500Y163530D01*
D02*
G37*
G36*
X30500Y147035D02*
X29456Y146897D01*
X28483Y146494D01*
X27647Y145853D01*
X27006Y145017D01*
X26603Y144044D01*
X26465Y143000D01*
Y137000D01*
X26603Y135956D01*
X27006Y134983D01*
X27647Y134147D01*
X28483Y133506D01*
X29456Y133103D01*
X30500Y132966D01*
X31544Y133103D01*
X32517Y133506D01*
X33353Y134147D01*
X33994Y134983D01*
X34397Y135956D01*
X34534Y137000D01*
Y143000D01*
X34397Y144044D01*
X33994Y145017D01*
X33353Y145853D01*
X32517Y146494D01*
X31544Y146897D01*
X30500Y147035D01*
D02*
G37*
G36*
X630500Y116000D02*
X623800D01*
Y112900D01*
X627400Y109300D01*
X630500D01*
Y116000D01*
D02*
G37*
G36*
X601500Y123735D02*
X600089Y123596D01*
X598731Y123184D01*
X597480Y122516D01*
X596384Y121616D01*
X595484Y120519D01*
X594816Y119269D01*
X594404Y117911D01*
X594265Y116500D01*
X594404Y115089D01*
X594816Y113731D01*
X595484Y112480D01*
X596384Y111384D01*
X597480Y110484D01*
X598731Y109816D01*
X600089Y109404D01*
X601500Y109265D01*
X602911Y109404D01*
X604269Y109816D01*
X605519Y110484D01*
X606616Y111384D01*
X607515Y112480D01*
X608184Y113731D01*
X608596Y115089D01*
X608735Y116500D01*
X608596Y117911D01*
X608184Y119269D01*
X607515Y120519D01*
X606616Y121616D01*
X605519Y122516D01*
X604269Y123184D01*
X602911Y123596D01*
X601500Y123735D01*
D02*
G37*
G36*
X10000Y125432D02*
X9034Y125305D01*
X8134Y124932D01*
X7361Y124339D01*
X6768Y123566D01*
X6395Y122666D01*
X6268Y121700D01*
Y116300D01*
X6395Y115334D01*
X6768Y114434D01*
X7361Y113661D01*
X8134Y113068D01*
X9034Y112695D01*
X10000Y112568D01*
X10966Y112695D01*
X11866Y113068D01*
X12639Y113661D01*
X13232Y114434D01*
X13605Y115334D01*
X13732Y116300D01*
Y121700D01*
X13605Y122666D01*
X13232Y123566D01*
X12639Y124339D01*
X11866Y124932D01*
X10966Y125305D01*
X10000Y125432D01*
D02*
G37*
G36*
X638200Y116000D02*
X631500D01*
Y109300D01*
X634600D01*
X638200Y112900D01*
Y116000D01*
D02*
G37*
G36*
X153700Y114232D02*
X148300D01*
X147334Y114105D01*
X146434Y113732D01*
X145661Y113139D01*
X145068Y112366D01*
X144695Y111466D01*
X144568Y110500D01*
X144695Y109534D01*
X145068Y108634D01*
X145661Y107861D01*
X146434Y107268D01*
X147334Y106895D01*
X148300Y106768D01*
X153700D01*
X154666Y106895D01*
X155566Y107268D01*
X156339Y107861D01*
X156932Y108634D01*
X157305Y109534D01*
X157432Y110500D01*
X157305Y111466D01*
X156932Y112366D01*
X156339Y113139D01*
X155566Y113732D01*
X154666Y114105D01*
X153700Y114232D01*
D02*
G37*
G36*
X353525Y103050D02*
X349000D01*
Y93500D01*
X358550D01*
Y98025D01*
X353525Y103050D01*
D02*
G37*
G36*
X348000D02*
X343475D01*
X338450Y98025D01*
Y93500D01*
X348000D01*
Y103050D01*
D02*
G37*
G36*
X287500Y115030D02*
X286586Y114910D01*
X285735Y114557D01*
X285004Y113996D01*
X284443Y113265D01*
X284090Y112414D01*
X283970Y111500D01*
X284090Y110586D01*
X284443Y109735D01*
X285004Y109004D01*
X285735Y108443D01*
X286586Y108090D01*
X287500Y107970D01*
X288414Y108090D01*
X288649Y108188D01*
X291919Y104919D01*
X292415Y104587D01*
X292512Y104568D01*
X293000Y104471D01*
X313845D01*
X313943Y104235D01*
X314504Y103504D01*
X315235Y102943D01*
X316086Y102590D01*
X317000Y102470D01*
X317914Y102590D01*
X318765Y102943D01*
X319496Y103504D01*
X320057Y104235D01*
X320410Y105086D01*
X320530Y106000D01*
X320410Y106914D01*
X320057Y107765D01*
X319496Y108496D01*
X318765Y109057D01*
X317914Y109410D01*
X317000Y109530D01*
X316086Y109410D01*
X315235Y109057D01*
X314504Y108496D01*
X313943Y107765D01*
X313845Y107529D01*
X293634D01*
X290812Y110351D01*
X290910Y110586D01*
X291030Y111500D01*
X290910Y112414D01*
X290557Y113265D01*
X289996Y113996D01*
X289265Y114557D01*
X288414Y114910D01*
X287500Y115030D01*
D02*
G37*
G36*
X153700Y104232D02*
X148300D01*
X147334Y104105D01*
X146434Y103732D01*
X145661Y103139D01*
X145068Y102366D01*
X144695Y101466D01*
X144568Y100500D01*
X144695Y99534D01*
X145068Y98634D01*
X145661Y97861D01*
X146434Y97268D01*
X147334Y96895D01*
X148300Y96768D01*
X153700D01*
X154666Y96895D01*
X155566Y97268D01*
X156339Y97861D01*
X156932Y98634D01*
X157305Y99534D01*
X157432Y100500D01*
X157305Y101466D01*
X156932Y102366D01*
X156339Y103139D01*
X155566Y103732D01*
X154666Y104105D01*
X153700Y104232D01*
D02*
G37*
G36*
X20000Y125432D02*
X19034Y125305D01*
X18134Y124932D01*
X17361Y124339D01*
X16768Y123566D01*
X16395Y122666D01*
X16268Y121700D01*
Y116300D01*
X16395Y115334D01*
X16768Y114434D01*
X17361Y113661D01*
X18134Y113068D01*
X19034Y112695D01*
X20000Y112568D01*
X20966Y112695D01*
X21866Y113068D01*
X22639Y113661D01*
X23232Y114434D01*
X23605Y115334D01*
X23732Y116300D01*
Y121700D01*
X23605Y122666D01*
X23232Y123566D01*
X22639Y124339D01*
X21866Y124932D01*
X20966Y125305D01*
X20000Y125432D01*
D02*
G37*
G36*
X165000Y139530D02*
X164086Y139410D01*
X163235Y139057D01*
X162504Y138496D01*
X161943Y137765D01*
X161590Y136914D01*
X161470Y136000D01*
X161590Y135086D01*
X161943Y134235D01*
X162504Y133504D01*
X163235Y132943D01*
X164086Y132590D01*
X165000Y132470D01*
X165914Y132590D01*
X166765Y132943D01*
X167496Y133504D01*
X168057Y134235D01*
X168155Y134471D01*
X188653D01*
X188982Y134095D01*
X188970Y134000D01*
X189090Y133086D01*
X189443Y132235D01*
X190004Y131504D01*
X190735Y130943D01*
X191586Y130590D01*
X192500Y130470D01*
X193414Y130590D01*
X194265Y130943D01*
X194996Y131504D01*
X195557Y132235D01*
X195910Y133086D01*
X196030Y134000D01*
X195910Y134914D01*
X195557Y135765D01*
X194996Y136496D01*
X194265Y137057D01*
X193414Y137410D01*
X192500Y137530D01*
X191586Y137410D01*
X191280Y137283D01*
X191085Y137413D01*
X190500Y137529D01*
X168155D01*
X168057Y137765D01*
X167496Y138496D01*
X166765Y139057D01*
X165914Y139410D01*
X165000Y139530D01*
D02*
G37*
G36*
X260500Y135030D02*
X259586Y134910D01*
X258735Y134557D01*
X258004Y133996D01*
X257443Y133265D01*
X257345Y133029D01*
X206500D01*
X205915Y132913D01*
X205419Y132581D01*
X198366Y125529D01*
X80461D01*
X80410Y125914D01*
X80057Y126765D01*
X79496Y127496D01*
X78765Y128057D01*
X77914Y128410D01*
X77000Y128530D01*
X76086Y128410D01*
X75235Y128057D01*
X74504Y127496D01*
X73943Y126765D01*
X73590Y125914D01*
X73470Y125000D01*
X73590Y124086D01*
X73943Y123235D01*
X74504Y122504D01*
X75235Y121943D01*
X76086Y121590D01*
X77000Y121470D01*
X77914Y121590D01*
X78765Y121943D01*
X79453Y122471D01*
X199000D01*
X199585Y122587D01*
X200081Y122919D01*
X207134Y129971D01*
X257345D01*
X257443Y129735D01*
X258004Y129004D01*
X258735Y128443D01*
X259586Y128090D01*
X260500Y127970D01*
X261414Y128090D01*
X262265Y128443D01*
X262996Y129004D01*
X263557Y129735D01*
X263910Y130586D01*
X264030Y131500D01*
X263910Y132414D01*
X263557Y133265D01*
X262996Y133996D01*
X262265Y134557D01*
X261414Y134910D01*
X260500Y135030D01*
D02*
G37*
G36*
X20500Y147035D02*
X19456Y146897D01*
X18483Y146494D01*
X17647Y145853D01*
X17006Y145017D01*
X16603Y144044D01*
X16465Y143000D01*
Y137000D01*
X16603Y135956D01*
X17006Y134983D01*
X17647Y134147D01*
X18483Y133506D01*
X19456Y133103D01*
X20500Y132966D01*
X21544Y133103D01*
X22517Y133506D01*
X23353Y134147D01*
X23994Y134983D01*
X24397Y135956D01*
X24534Y137000D01*
Y143000D01*
X24397Y144044D01*
X23994Y145017D01*
X23353Y145853D01*
X22517Y146494D01*
X21544Y146897D01*
X20500Y147035D01*
D02*
G37*
G36*
X550000Y151445D02*
X548642Y151266D01*
X547378Y150742D01*
X546291Y149909D01*
X545458Y148822D01*
X544934Y147557D01*
X544755Y146200D01*
Y137800D01*
X544934Y136442D01*
X545458Y135178D01*
X546291Y134091D01*
X547378Y133258D01*
X548642Y132734D01*
X550000Y132555D01*
X551358Y132734D01*
X552622Y133258D01*
X553709Y134091D01*
X554542Y135178D01*
X555066Y136442D01*
X555245Y137800D01*
Y146200D01*
X555066Y147557D01*
X554542Y148822D01*
X553709Y149909D01*
X552622Y150742D01*
X551358Y151266D01*
X550000Y151445D01*
D02*
G37*
G36*
X206500Y126030D02*
X205586Y125910D01*
X204735Y125557D01*
X204004Y124996D01*
X203443Y124265D01*
X203090Y123414D01*
X202970Y122500D01*
X203090Y121586D01*
X203188Y121351D01*
X202366Y120529D01*
X69155D01*
X69057Y120765D01*
X68496Y121496D01*
X67765Y122057D01*
X66914Y122410D01*
X66000Y122530D01*
X65086Y122410D01*
X64235Y122057D01*
X63504Y121496D01*
X62943Y120765D01*
X62590Y119914D01*
X62470Y119000D01*
X62590Y118086D01*
X62943Y117235D01*
X63504Y116504D01*
X64235Y115943D01*
X65086Y115590D01*
X66000Y115470D01*
X66914Y115590D01*
X67765Y115943D01*
X68496Y116504D01*
X69057Y117235D01*
X69155Y117471D01*
X203000D01*
X203585Y117587D01*
X204081Y117919D01*
X205351Y119188D01*
X205586Y119090D01*
X206500Y118970D01*
X207414Y119090D01*
X208265Y119443D01*
X208996Y120004D01*
X209557Y120735D01*
X209910Y121586D01*
X210030Y122500D01*
X209910Y123414D01*
X209557Y124265D01*
X208996Y124996D01*
X208265Y125557D01*
X207414Y125910D01*
X206500Y126030D01*
D02*
G37*
G36*
X224500Y114724D02*
X223649Y114555D01*
X222927Y114073D01*
X222899Y114029D01*
X178889D01*
X178851Y114055D01*
X178000Y114224D01*
X177149Y114055D01*
X176427Y113573D01*
X175945Y112851D01*
X175776Y112000D01*
X175945Y111149D01*
X176427Y110427D01*
X177149Y109945D01*
X178000Y109776D01*
X178851Y109945D01*
X179572Y110427D01*
X179935Y110971D01*
X222899D01*
X222927Y110927D01*
X223649Y110445D01*
X224500Y110276D01*
X225351Y110445D01*
X226073Y110927D01*
X226555Y111649D01*
X226724Y112500D01*
X226555Y113351D01*
X226073Y114073D01*
X225351Y114555D01*
X224500Y114724D01*
D02*
G37*
G36*
X30000Y125432D02*
X29034Y125305D01*
X28134Y124932D01*
X27361Y124339D01*
X26768Y123566D01*
X26395Y122666D01*
X26268Y121700D01*
Y116300D01*
X26395Y115334D01*
X26768Y114434D01*
X27361Y113661D01*
X28134Y113068D01*
X29034Y112695D01*
X30000Y112568D01*
X30966Y112695D01*
X31866Y113068D01*
X32639Y113661D01*
X33232Y114434D01*
X33605Y115334D01*
X33732Y116300D01*
Y121700D01*
X33605Y122666D01*
X33232Y123566D01*
X32639Y124339D01*
X31866Y124932D01*
X30966Y125305D01*
X30000Y125432D01*
D02*
G37*
G36*
X634600Y123700D02*
X631500D01*
Y117000D01*
X638200D01*
Y120100D01*
X634600Y123700D01*
D02*
G37*
G36*
X630500D02*
X627400D01*
X623800Y120100D01*
Y117000D01*
X630500D01*
Y123700D01*
D02*
G37*
G36*
X579000Y212530D02*
X578086Y212410D01*
X577235Y212057D01*
X576504Y211496D01*
X575943Y210765D01*
X575590Y209914D01*
X575470Y209000D01*
X575590Y208086D01*
X575943Y207235D01*
X576504Y206504D01*
X577235Y205943D01*
X577471Y205845D01*
Y168655D01*
X577235Y168557D01*
X576504Y167996D01*
X575943Y167265D01*
X575590Y166414D01*
X575470Y165500D01*
X575590Y164586D01*
X575943Y163735D01*
X576504Y163004D01*
X577235Y162443D01*
X578086Y162090D01*
X579000Y161970D01*
X579914Y162090D01*
X580765Y162443D01*
X581496Y163004D01*
X582057Y163735D01*
X582410Y164586D01*
X582530Y165500D01*
X582410Y166414D01*
X582057Y167265D01*
X581496Y167996D01*
X580765Y168557D01*
X580529Y168655D01*
Y205845D01*
X580765Y205943D01*
X581496Y206504D01*
X582057Y207235D01*
X582410Y208086D01*
X582530Y209000D01*
X582410Y209914D01*
X582057Y210765D01*
X581496Y211496D01*
X580765Y212057D01*
X579914Y212410D01*
X579000Y212530D01*
D02*
G37*
G36*
X163464Y229500D02*
X160500D01*
Y226536D01*
X160914Y226590D01*
X161765Y226943D01*
X162496Y227504D01*
X163057Y228235D01*
X163410Y229086D01*
X163464Y229500D01*
D02*
G37*
G36*
X159500D02*
X156536D01*
X156590Y229086D01*
X156943Y228235D01*
X157504Y227504D01*
X158235Y226943D01*
X159086Y226590D01*
X159500Y226536D01*
Y229500D01*
D02*
G37*
G36*
X137500Y232469D02*
X136956Y232397D01*
X135983Y231994D01*
X135147Y231353D01*
X134506Y230517D01*
X134103Y229544D01*
X134031Y229000D01*
X137500D01*
Y232469D01*
D02*
G37*
G36*
X65500Y256530D02*
X64586Y256410D01*
X63735Y256057D01*
X63004Y255496D01*
X62443Y254765D01*
X62090Y253914D01*
X61970Y253000D01*
X62090Y252086D01*
X62443Y251235D01*
X63004Y250504D01*
X63735Y249943D01*
X64586Y249590D01*
X65500Y249470D01*
X66414Y249590D01*
X67265Y249943D01*
X67996Y250504D01*
X68557Y251235D01*
X68655Y251471D01*
X122866D01*
X124971Y249366D01*
Y233301D01*
X124943Y233265D01*
X124590Y232414D01*
X124470Y231500D01*
X124590Y230586D01*
X124943Y229735D01*
X125504Y229004D01*
X126235Y228443D01*
X127086Y228090D01*
X128000Y227970D01*
X128914Y228090D01*
X129765Y228443D01*
X130496Y229004D01*
X131057Y229735D01*
X131410Y230586D01*
X131530Y231500D01*
X131410Y232414D01*
X131057Y233265D01*
X130496Y233996D01*
X129765Y234557D01*
X128914Y234910D01*
X128029Y235026D01*
Y250000D01*
X127913Y250585D01*
X127581Y251081D01*
X124581Y254081D01*
X124085Y254413D01*
X123500Y254529D01*
X68655D01*
X68557Y254765D01*
X67996Y255496D01*
X67265Y256057D01*
X66414Y256410D01*
X65500Y256530D01*
D02*
G37*
G36*
X11100Y231269D02*
Y224800D01*
X14635D01*
Y227300D01*
X14497Y228344D01*
X14094Y229317D01*
X13453Y230153D01*
X12617Y230794D01*
X11644Y231197D01*
X11100Y231269D01*
D02*
G37*
G36*
X137500Y228000D02*
X134031D01*
X134103Y227456D01*
X134506Y226483D01*
X135147Y225647D01*
X135983Y225006D01*
X136956Y224603D01*
X137500Y224531D01*
Y228000D01*
D02*
G37*
G36*
X229368Y230000D02*
X221000D01*
Y221632D01*
X222240Y221754D01*
X223912Y222262D01*
X225454Y223086D01*
X226805Y224195D01*
X227914Y225546D01*
X228738Y227088D01*
X229246Y228760D01*
X229368Y230000D01*
D02*
G37*
G36*
X10100Y231269D02*
X9556Y231197D01*
X8583Y230794D01*
X7747Y230153D01*
X7106Y229317D01*
X6703Y228344D01*
X6566Y227300D01*
Y224800D01*
X10100D01*
Y231269D01*
D02*
G37*
G36*
X141969Y228000D02*
X138500D01*
Y224531D01*
X139044Y224603D01*
X140017Y225006D01*
X140853Y225647D01*
X141494Y226483D01*
X141897Y227456D01*
X141969Y228000D01*
D02*
G37*
G36*
X138500Y232469D02*
Y229000D01*
X141969D01*
X141897Y229544D01*
X141494Y230517D01*
X140853Y231353D01*
X140017Y231994D01*
X139044Y232397D01*
X138500Y232469D01*
D02*
G37*
G36*
X217000Y272500D02*
X213465D01*
Y270000D01*
X213603Y268956D01*
X214006Y267983D01*
X214647Y267147D01*
X215483Y266506D01*
X216456Y266103D01*
X217000Y266031D01*
Y272500D01*
D02*
G37*
G36*
X24500Y271833D02*
X23508Y271702D01*
X22584Y271319D01*
X21790Y270710D01*
X21181Y269916D01*
X20798Y268992D01*
X20667Y268000D01*
X20798Y267008D01*
X21181Y266084D01*
X21790Y265290D01*
X22584Y264681D01*
X23508Y264298D01*
X24500Y264167D01*
X25492Y264298D01*
X26416Y264681D01*
X27210Y265290D01*
X27819Y266084D01*
X28202Y267008D01*
X28333Y268000D01*
X28202Y268992D01*
X27819Y269916D01*
X27210Y270710D01*
X26416Y271319D01*
X25492Y271702D01*
X24500Y271833D01*
D02*
G37*
G36*
X136700Y280034D02*
X135656Y279897D01*
X134683Y279494D01*
X133847Y278853D01*
X133206Y278017D01*
X132803Y277044D01*
X132666Y276000D01*
Y270000D01*
X132680Y269887D01*
X132223Y269529D01*
X100236D01*
X100236Y269532D01*
X99754Y270254D01*
X99032Y270736D01*
X98181Y270905D01*
X97330Y270736D01*
X96609Y270254D01*
X96127Y269532D01*
X95957Y268681D01*
X96087Y268029D01*
X95772Y267529D01*
X94134D01*
X93714Y267949D01*
X93724Y268000D01*
X93555Y268851D01*
X93072Y269572D01*
X92351Y270055D01*
X91500Y270224D01*
X90649Y270055D01*
X89928Y269572D01*
X89446Y268851D01*
X89276Y268000D01*
X89446Y267149D01*
X89928Y266427D01*
X90649Y265945D01*
X91500Y265776D01*
X91551Y265786D01*
X92419Y264919D01*
X92915Y264587D01*
X93500Y264471D01*
X109373D01*
X109523Y263971D01*
X108928Y263573D01*
X108899Y263529D01*
X69435D01*
X69073Y264072D01*
X68351Y264555D01*
X67500Y264724D01*
X66649Y264555D01*
X65927Y264072D01*
X65446Y263351D01*
X65276Y262500D01*
X65446Y261649D01*
X65927Y260928D01*
X66649Y260445D01*
X67500Y260276D01*
X68351Y260445D01*
X68389Y260471D01*
X108899D01*
X108928Y260427D01*
X109649Y259945D01*
X110500Y259776D01*
X110551Y259786D01*
X111100Y259238D01*
X111596Y258906D01*
X112181Y258789D01*
X182319D01*
X182904Y258906D01*
X183400Y259238D01*
X187949Y263786D01*
X188000Y263776D01*
X188851Y263945D01*
X189573Y264427D01*
X190055Y265149D01*
X190224Y266000D01*
X190055Y266851D01*
X189573Y267572D01*
X188851Y268055D01*
X188000Y268224D01*
X187149Y268055D01*
X186427Y267572D01*
X185945Y266851D01*
X185776Y266000D01*
X185786Y265949D01*
X181685Y261848D01*
X152409D01*
X152094Y262348D01*
X152224Y263000D01*
X152055Y263851D01*
X151573Y264573D01*
X150851Y265055D01*
X150460Y265132D01*
X148830Y266763D01*
X148334Y267094D01*
X147748Y267211D01*
X140167D01*
X139945Y267659D01*
X140194Y267983D01*
X140597Y268956D01*
X140735Y270000D01*
Y276000D01*
X140597Y277044D01*
X140194Y278017D01*
X139553Y278853D01*
X138717Y279494D01*
X137744Y279897D01*
X136700Y280034D01*
D02*
G37*
G36*
X221534Y272500D02*
X218000D01*
Y266031D01*
X218544Y266103D01*
X219517Y266506D01*
X220353Y267147D01*
X220994Y267983D01*
X221397Y268956D01*
X221534Y270000D01*
Y272500D01*
D02*
G37*
G36*
X14500Y271833D02*
X13508Y271702D01*
X12584Y271319D01*
X11790Y270710D01*
X11181Y269916D01*
X10798Y268992D01*
X10667Y268000D01*
X10798Y267008D01*
X11181Y266084D01*
X11790Y265290D01*
X12584Y264681D01*
X13508Y264298D01*
X14500Y264167D01*
X15492Y264298D01*
X16416Y264681D01*
X17210Y265290D01*
X17819Y266084D01*
X18202Y267008D01*
X18333Y268000D01*
X18202Y268992D01*
X17819Y269916D01*
X17210Y270710D01*
X16416Y271319D01*
X15492Y271702D01*
X14500Y271833D01*
D02*
G37*
G36*
X160500Y233464D02*
Y230500D01*
X163464D01*
X163410Y230914D01*
X163057Y231765D01*
X162496Y232496D01*
X161765Y233057D01*
X160914Y233410D01*
X160500Y233464D01*
D02*
G37*
G36*
X159500D02*
X159086Y233410D01*
X158235Y233057D01*
X157504Y232496D01*
X156943Y231765D01*
X156590Y230914D01*
X156536Y230500D01*
X159500D01*
Y233464D01*
D02*
G37*
G36*
X221000Y239368D02*
Y231000D01*
X229368D01*
X229246Y232240D01*
X228738Y233912D01*
X227914Y235454D01*
X226805Y236805D01*
X225454Y237914D01*
X223912Y238738D01*
X222240Y239246D01*
X221000Y239368D01*
D02*
G37*
G36*
X220000D02*
X218760Y239246D01*
X217088Y238738D01*
X215546Y237914D01*
X214195Y236805D01*
X213086Y235454D01*
X212262Y233912D01*
X211754Y232240D01*
X211632Y231000D01*
X220000D01*
Y239368D01*
D02*
G37*
G36*
Y230000D02*
X211632D01*
X211754Y228760D01*
X212262Y227088D01*
X213086Y225546D01*
X214195Y224195D01*
X215546Y223086D01*
X217088Y222262D01*
X218760Y221754D01*
X220000Y221632D01*
Y230000D01*
D02*
G37*
G36*
X10100Y198200D02*
X6566D01*
Y195700D01*
X6703Y194656D01*
X7106Y193683D01*
X7747Y192847D01*
X8583Y192206D01*
X9556Y191803D01*
X10100Y191731D01*
Y198200D01*
D02*
G37*
G36*
X28400Y205734D02*
X27356Y205597D01*
X26383Y205194D01*
X25547Y204553D01*
X24906Y203717D01*
X24503Y202744D01*
X24365Y201700D01*
Y195700D01*
X24503Y194656D01*
X24906Y193683D01*
X25547Y192847D01*
X26383Y192206D01*
X27356Y191803D01*
X28400Y191665D01*
X29444Y191803D01*
X30417Y192206D01*
X31253Y192847D01*
X31894Y193683D01*
X32297Y194656D01*
X32434Y195700D01*
Y201700D01*
X32297Y202744D01*
X31894Y203717D01*
X31253Y204553D01*
X30417Y205194D01*
X29444Y205597D01*
X28400Y205734D01*
D02*
G37*
G36*
X10100Y205669D02*
X9556Y205597D01*
X8583Y205194D01*
X7747Y204553D01*
X7106Y203717D01*
X6703Y202744D01*
X6566Y201700D01*
Y199200D01*
X10100D01*
Y205669D01*
D02*
G37*
G36*
X14635Y198200D02*
X11100D01*
Y191731D01*
X11644Y191803D01*
X12617Y192206D01*
X13453Y192847D01*
X14094Y193683D01*
X14497Y194656D01*
X14635Y195700D01*
Y198200D01*
D02*
G37*
G36*
X535000Y208530D02*
X534086Y208410D01*
X533235Y208057D01*
X532504Y207496D01*
X531943Y206765D01*
X531590Y205914D01*
X531470Y205000D01*
X531590Y204086D01*
X531943Y203235D01*
X532504Y202504D01*
X533235Y201943D01*
X534086Y201590D01*
X535000Y201470D01*
X535914Y201590D01*
X536765Y201943D01*
X537496Y202504D01*
X538057Y203235D01*
X538155Y203471D01*
X539493D01*
X539622Y202971D01*
X539004Y202496D01*
X538443Y201765D01*
X538090Y200914D01*
X537970Y200000D01*
X538090Y199086D01*
X538443Y198235D01*
X538933Y197596D01*
X535919Y194581D01*
X535587Y194085D01*
X535471Y193500D01*
Y158026D01*
X534586Y157910D01*
X533735Y157557D01*
X533004Y156996D01*
X532443Y156265D01*
X532090Y155414D01*
X531970Y154500D01*
X532090Y153586D01*
X532443Y152735D01*
X533004Y152004D01*
X533735Y151443D01*
X534586Y151090D01*
X535500Y150970D01*
X536414Y151090D01*
X537265Y151443D01*
X537996Y152004D01*
X538557Y152735D01*
X538910Y153586D01*
X539030Y154500D01*
X538910Y155414D01*
X538557Y156265D01*
X538529Y156301D01*
Y192867D01*
X542229Y196566D01*
X542414Y196590D01*
X543265Y196943D01*
X543996Y197504D01*
X544471Y198122D01*
X544971Y197993D01*
Y192155D01*
X544735Y192057D01*
X544004Y191496D01*
X543443Y190765D01*
X543090Y189914D01*
X542970Y189000D01*
X543090Y188086D01*
X543443Y187235D01*
X544004Y186504D01*
X544735Y185943D01*
X545586Y185590D01*
X546500Y185470D01*
X547414Y185590D01*
X548265Y185943D01*
X548996Y186504D01*
X549557Y187235D01*
X549910Y188086D01*
X550030Y189000D01*
X549910Y189914D01*
X549557Y190765D01*
X548996Y191496D01*
X548265Y192057D01*
X548029Y192155D01*
Y200657D01*
X547913Y201242D01*
X547581Y201738D01*
X543238Y206081D01*
X542742Y206413D01*
X542157Y206529D01*
X538155D01*
X538057Y206765D01*
X537496Y207496D01*
X536765Y208057D01*
X535914Y208410D01*
X535000Y208530D01*
D02*
G37*
G36*
X30000Y185932D02*
X29034Y185805D01*
X28134Y185432D01*
X27361Y184839D01*
X26768Y184066D01*
X26395Y183166D01*
X26268Y182200D01*
Y176800D01*
X26395Y175834D01*
X26768Y174934D01*
X27361Y174161D01*
X28134Y173568D01*
X29034Y173195D01*
X30000Y173068D01*
X30966Y173195D01*
X31866Y173568D01*
X32639Y174161D01*
X33232Y174934D01*
X33605Y175834D01*
X33732Y176800D01*
Y182200D01*
X33605Y183166D01*
X33232Y184066D01*
X32639Y184839D01*
X31866Y185432D01*
X30966Y185805D01*
X30000Y185932D01*
D02*
G37*
G36*
X10000D02*
X9034Y185805D01*
X8134Y185432D01*
X7361Y184839D01*
X6768Y184066D01*
X6395Y183166D01*
X6268Y182200D01*
Y176800D01*
X6395Y175834D01*
X6768Y174934D01*
X7361Y174161D01*
X8134Y173568D01*
X9034Y173195D01*
X10000Y173068D01*
X10966Y173195D01*
X11866Y173568D01*
X12639Y174161D01*
X13232Y174934D01*
X13605Y175834D01*
X13732Y176800D01*
Y182200D01*
X13605Y183166D01*
X13232Y184066D01*
X12639Y184839D01*
X11866Y185432D01*
X10966Y185805D01*
X10000Y185932D01*
D02*
G37*
G36*
X186500Y185724D02*
X185649Y185555D01*
X185611Y185529D01*
X178000D01*
X177415Y185413D01*
X177102Y185204D01*
X177000Y185224D01*
X176149Y185055D01*
X175427Y184573D01*
X174945Y183851D01*
X174776Y183000D01*
X174945Y182149D01*
X175427Y181428D01*
X176149Y180946D01*
X177000Y180776D01*
X177851Y180946D01*
X178572Y181428D01*
X179054Y182149D01*
X179119Y182471D01*
X184565D01*
X184927Y181928D01*
X185649Y181446D01*
X186500Y181276D01*
X187351Y181446D01*
X188073Y181928D01*
X188555Y182649D01*
X188724Y183500D01*
X188555Y184351D01*
X188073Y185073D01*
X187351Y185555D01*
X186500Y185724D01*
D02*
G37*
G36*
X79000Y186530D02*
X78086Y186410D01*
X77235Y186057D01*
X76504Y185496D01*
X75943Y184765D01*
X75590Y183914D01*
X75470Y183000D01*
X75590Y182086D01*
X75943Y181235D01*
X76504Y180504D01*
X77235Y179943D01*
X78086Y179590D01*
X79000Y179470D01*
X79914Y179590D01*
X80149Y179688D01*
X80419Y179419D01*
X80915Y179087D01*
X81012Y179068D01*
X81500Y178971D01*
X87345D01*
X87443Y178735D01*
X88004Y178004D01*
X88735Y177443D01*
X89586Y177090D01*
X90500Y176970D01*
X91414Y177090D01*
X92265Y177443D01*
X92996Y178004D01*
X93557Y178735D01*
X93910Y179586D01*
X94030Y180500D01*
X93910Y181414D01*
X93557Y182265D01*
X92996Y182996D01*
X92265Y183557D01*
X91414Y183910D01*
X90500Y184030D01*
X89586Y183910D01*
X88735Y183557D01*
X88004Y182996D01*
X87443Y182265D01*
X87345Y182029D01*
X82907D01*
X82468Y182529D01*
X82530Y183000D01*
X82410Y183914D01*
X82057Y184765D01*
X81496Y185496D01*
X80765Y186057D01*
X79914Y186410D01*
X79000Y186530D01*
D02*
G37*
G36*
X11100Y205669D02*
Y199200D01*
X14635D01*
Y201700D01*
X14497Y202744D01*
X14094Y203717D01*
X13453Y204553D01*
X12617Y205194D01*
X11644Y205597D01*
X11100Y205669D01*
D02*
G37*
G36*
X168000Y222724D02*
X167149Y222555D01*
X166428Y222073D01*
X165945Y221351D01*
X165776Y220500D01*
X165945Y219649D01*
X166428Y218928D01*
X167149Y218445D01*
X168000Y218276D01*
X168851Y218445D01*
X169475Y218862D01*
X174419Y213919D01*
X174915Y213587D01*
X175012Y213568D01*
X175500Y213471D01*
X191899D01*
X191928Y213427D01*
X192526Y213028D01*
X192557Y212909D01*
Y212591D01*
X192526Y212472D01*
X191928Y212072D01*
X191899Y212029D01*
X177101D01*
X177073Y212072D01*
X176351Y212555D01*
X175500Y212724D01*
X174649Y212555D01*
X174025Y212138D01*
X169081Y217081D01*
X168585Y217413D01*
X168000Y217529D01*
X165601D01*
X165573Y217572D01*
X164851Y218055D01*
X164000Y218224D01*
X163149Y218055D01*
X162427Y217572D01*
X161945Y216851D01*
X161776Y216000D01*
X161945Y215149D01*
X162427Y214427D01*
X163149Y213945D01*
X164000Y213776D01*
X164851Y213945D01*
X165573Y214427D01*
X165601Y214471D01*
X167367D01*
X171869Y209968D01*
X171805Y209325D01*
X171428Y209072D01*
X170946Y208351D01*
X170776Y207500D01*
X170946Y206649D01*
X171428Y205927D01*
X172149Y205445D01*
X173000Y205276D01*
X173851Y205445D01*
X174573Y205927D01*
X174601Y205971D01*
X190366D01*
X193919Y202419D01*
X194415Y202087D01*
X194512Y202068D01*
X195000Y201971D01*
X195585Y202087D01*
X195898Y202296D01*
X196000Y202276D01*
X196851Y202446D01*
X197573Y202927D01*
X197971Y203523D01*
X198471Y203373D01*
Y173601D01*
X198427Y173573D01*
X197945Y172851D01*
X197776Y172000D01*
X197945Y171149D01*
X198427Y170428D01*
X199149Y169946D01*
X200000Y169776D01*
X200851Y169946D01*
X201572Y170428D01*
X202055Y171149D01*
X202224Y172000D01*
X202055Y172851D01*
X201572Y173573D01*
X201529Y173601D01*
Y205899D01*
X201572Y205927D01*
X202055Y206649D01*
X202224Y207500D01*
X202055Y208351D01*
X201572Y209072D01*
X200851Y209555D01*
X200000Y209724D01*
X199149Y209555D01*
X198427Y209072D01*
X197945Y208351D01*
X197776Y207500D01*
X197945Y206649D01*
X198311Y206101D01*
X198270Y205928D01*
X197733Y205832D01*
X197573Y206072D01*
X196851Y206555D01*
X196000Y206724D01*
X195149Y206555D01*
X194525Y206138D01*
X192747Y207916D01*
X192993Y208377D01*
X193500Y208276D01*
X194351Y208445D01*
X195072Y208927D01*
X195555Y209649D01*
X195724Y210500D01*
X195555Y211351D01*
X195072Y212072D01*
X194474Y212472D01*
X194443Y212591D01*
Y212909D01*
X194474Y213028D01*
X195072Y213427D01*
X195555Y214149D01*
X195724Y215000D01*
X195555Y215851D01*
X195072Y216572D01*
X194351Y217055D01*
X193500Y217224D01*
X192649Y217055D01*
X191928Y216572D01*
X191899Y216529D01*
X176134D01*
X171081Y221581D01*
X170585Y221913D01*
X170000Y222029D01*
X169601D01*
X169572Y222073D01*
X168851Y222555D01*
X168000Y222724D01*
D02*
G37*
G36*
X49500Y213469D02*
Y210000D01*
X52969D01*
X52897Y210544D01*
X52494Y211517D01*
X51853Y212353D01*
X51017Y212994D01*
X50044Y213397D01*
X49500Y213469D01*
D02*
G37*
G36*
X14635Y223800D02*
X11100D01*
Y217331D01*
X11644Y217403D01*
X12617Y217806D01*
X13453Y218447D01*
X14094Y219283D01*
X14497Y220256D01*
X14635Y221300D01*
Y223800D01*
D02*
G37*
G36*
X10100D02*
X6566D01*
Y221300D01*
X6703Y220256D01*
X7106Y219283D01*
X7747Y218447D01*
X8583Y217806D01*
X9556Y217403D01*
X10100Y217331D01*
Y223800D01*
D02*
G37*
G36*
X48500Y213469D02*
X47956Y213397D01*
X46983Y212994D01*
X46147Y212353D01*
X45506Y211517D01*
X45103Y210544D01*
X45031Y210000D01*
X48500D01*
Y213469D01*
D02*
G37*
G36*
X610000Y216030D02*
X609086Y215910D01*
X608235Y215557D01*
X607504Y214996D01*
X606943Y214265D01*
X606590Y213414D01*
X606470Y212500D01*
X606590Y211586D01*
X606943Y210735D01*
X607504Y210004D01*
X608235Y209443D01*
X609086Y209090D01*
X610000Y208970D01*
X610914Y209090D01*
X611149Y209188D01*
X612688Y207649D01*
X612590Y207414D01*
X612470Y206500D01*
X612590Y205586D01*
X612943Y204735D01*
X613504Y204004D01*
X614235Y203443D01*
X615086Y203090D01*
X616000Y202970D01*
X616914Y203090D01*
X617765Y203443D01*
X618496Y204004D01*
X619057Y204735D01*
X619410Y205586D01*
X619530Y206500D01*
X619410Y207414D01*
X619057Y208265D01*
X618496Y208996D01*
X617765Y209557D01*
X616914Y209910D01*
X616000Y210030D01*
X615086Y209910D01*
X614851Y209812D01*
X613312Y211351D01*
X613410Y211586D01*
X613530Y212500D01*
X613410Y213414D01*
X613057Y214265D01*
X612496Y214996D01*
X611765Y215557D01*
X610914Y215910D01*
X610000Y216030D01*
D02*
G37*
G36*
X855500Y210500D02*
X847132D01*
X847254Y209260D01*
X847762Y207588D01*
X848586Y206046D01*
X849695Y204695D01*
X851046Y203586D01*
X852588Y202762D01*
X854260Y202254D01*
X855500Y202132D01*
Y210500D01*
D02*
G37*
G36*
X52969Y209000D02*
X49500D01*
Y205531D01*
X50044Y205603D01*
X51017Y206006D01*
X51853Y206647D01*
X52494Y207483D01*
X52897Y208456D01*
X52969Y209000D01*
D02*
G37*
G36*
X48500D02*
X45031D01*
X45103Y208456D01*
X45506Y207483D01*
X46147Y206647D01*
X46983Y206006D01*
X47956Y205603D01*
X48500Y205531D01*
Y209000D01*
D02*
G37*
G36*
X324700Y20776D02*
X323921Y20674D01*
X322729Y20180D01*
X321705Y19395D01*
X320920Y18371D01*
X320426Y17179D01*
X320258Y15900D01*
Y12500D01*
X324700D01*
Y20776D01*
D02*
G37*
G36*
X12500Y20868D02*
Y12500D01*
X20868D01*
X20746Y13740D01*
X20238Y15412D01*
X19414Y16954D01*
X18305Y18305D01*
X16954Y19414D01*
X15412Y20238D01*
X13740Y20746D01*
X12500Y20868D01*
D02*
G37*
G36*
X451000Y16473D02*
X450325Y16384D01*
X449231Y15931D01*
X448291Y15209D01*
X447569Y14269D01*
X447116Y13175D01*
X447027Y12500D01*
X451000D01*
Y16473D01*
D02*
G37*
G36*
X325700Y20776D02*
Y12500D01*
X330142D01*
Y15900D01*
X329974Y17179D01*
X329480Y18371D01*
X328695Y19395D01*
X327671Y20180D01*
X326479Y20674D01*
X325700Y20776D01*
D02*
G37*
G36*
X112767Y15500D02*
X109500D01*
Y12233D01*
X109992Y12298D01*
X110916Y12681D01*
X111710Y13290D01*
X112319Y14084D01*
X112702Y15008D01*
X112767Y15500D01*
D02*
G37*
G36*
X855500Y20368D02*
X854260Y20246D01*
X852588Y19738D01*
X851046Y18914D01*
X849695Y17805D01*
X848586Y16454D01*
X847762Y14912D01*
X847254Y13240D01*
X847132Y12000D01*
X855500D01*
Y20368D01*
D02*
G37*
G36*
X475767Y15000D02*
X472500D01*
Y11733D01*
X472992Y11798D01*
X473916Y12181D01*
X474710Y12790D01*
X475319Y13584D01*
X475702Y14508D01*
X475767Y15000D01*
D02*
G37*
G36*
X108500Y15500D02*
X105233D01*
X105298Y15008D01*
X105681Y14084D01*
X106290Y13290D01*
X107084Y12681D01*
X108008Y12298D01*
X108500Y12233D01*
Y15500D01*
D02*
G37*
G36*
X90579Y19833D02*
X89587Y19702D01*
X88662Y19319D01*
X87869Y18710D01*
X87260Y17916D01*
X86876Y16992D01*
X86746Y16000D01*
X86876Y15008D01*
X87260Y14084D01*
X87869Y13290D01*
X88662Y12681D01*
X89587Y12298D01*
X90579Y12167D01*
X91571Y12298D01*
X92495Y12681D01*
X93289Y13290D01*
X93898Y14084D01*
X94281Y15008D01*
X94411Y16000D01*
X94281Y16992D01*
X93898Y17916D01*
X93289Y18710D01*
X92495Y19319D01*
X91571Y19702D01*
X90579Y19833D01*
D02*
G37*
G36*
X452000Y16473D02*
Y12500D01*
X455973D01*
X455884Y13175D01*
X455431Y14269D01*
X454709Y15209D01*
X453769Y15931D01*
X452675Y16384D01*
X452000Y16473D01*
D02*
G37*
G36*
X621500Y31432D02*
X620534Y31305D01*
X619634Y30932D01*
X618861Y30339D01*
X618268Y29566D01*
X617895Y28666D01*
X617768Y27700D01*
Y22300D01*
X617895Y21334D01*
X618268Y20434D01*
X618861Y19661D01*
X619634Y19068D01*
X620534Y18695D01*
X621500Y18568D01*
X622466Y18695D01*
X623366Y19068D01*
X624139Y19661D01*
X624732Y20434D01*
X625105Y21334D01*
X625232Y22300D01*
Y27700D01*
X625105Y28666D01*
X624732Y29566D01*
X624139Y30339D01*
X623366Y30932D01*
X622466Y31305D01*
X621500Y31432D01*
D02*
G37*
G36*
X109500Y19767D02*
Y16500D01*
X112767D01*
X112702Y16992D01*
X112319Y17916D01*
X111710Y18710D01*
X110916Y19319D01*
X109992Y19702D01*
X109500Y19767D01*
D02*
G37*
G36*
X179000Y35432D02*
X178034Y35305D01*
X177134Y34932D01*
X176361Y34339D01*
X175768Y33566D01*
X175395Y32666D01*
X175268Y31700D01*
Y26300D01*
X175395Y25334D01*
X175768Y24434D01*
X176361Y23661D01*
X177134Y23068D01*
X178034Y22695D01*
X179000Y22568D01*
X179966Y22695D01*
X180866Y23068D01*
X181639Y23661D01*
X182232Y24434D01*
X182605Y25334D01*
X182732Y26300D01*
Y31700D01*
X182605Y32666D01*
X182232Y33566D01*
X181639Y34339D01*
X180866Y34932D01*
X179966Y35305D01*
X179000Y35432D01*
D02*
G37*
G36*
X202000Y61530D02*
X201086Y61410D01*
X200235Y61057D01*
X199504Y60496D01*
X198943Y59765D01*
X198590Y58914D01*
X198470Y58000D01*
X198590Y57086D01*
X198943Y56235D01*
X199504Y55504D01*
X200235Y54943D01*
X200471Y54845D01*
Y23633D01*
X198866Y22029D01*
X168347D01*
X168018Y22405D01*
X168030Y22500D01*
X167910Y23414D01*
X167557Y24265D01*
X166996Y24996D01*
X166265Y25557D01*
X165414Y25910D01*
X164500Y26030D01*
X163586Y25910D01*
X162735Y25557D01*
X162004Y24996D01*
X161443Y24265D01*
X161090Y23414D01*
X160970Y22500D01*
X161090Y21586D01*
X161443Y20735D01*
X162004Y20004D01*
X162735Y19443D01*
X163586Y19090D01*
X164500Y18970D01*
X165414Y19090D01*
X165720Y19217D01*
X165915Y19087D01*
X166500Y18971D01*
X199500D01*
X200085Y19087D01*
X200581Y19419D01*
X203081Y21919D01*
X203413Y22415D01*
X203432Y22512D01*
X203529Y23000D01*
Y54845D01*
X203765Y54943D01*
X204496Y55504D01*
X205057Y56235D01*
X205410Y57086D01*
X205530Y58000D01*
X205410Y58914D01*
X205057Y59765D01*
X204496Y60496D01*
X203765Y61057D01*
X202914Y61410D01*
X202000Y61530D01*
D02*
G37*
G36*
X108500Y19767D02*
X108008Y19702D01*
X107084Y19319D01*
X106290Y18710D01*
X105681Y17916D01*
X105298Y16992D01*
X105233Y16500D01*
X108500D01*
Y19767D01*
D02*
G37*
G36*
X306000Y16973D02*
Y13000D01*
X309973D01*
X309884Y13675D01*
X309431Y14769D01*
X308709Y15709D01*
X307769Y16431D01*
X306675Y16884D01*
X306000Y16973D01*
D02*
G37*
G36*
X305000D02*
X304325Y16884D01*
X303231Y16431D01*
X302291Y15709D01*
X301569Y14769D01*
X301116Y13675D01*
X301027Y13000D01*
X305000D01*
Y16973D01*
D02*
G37*
G36*
X472500Y19267D02*
Y16000D01*
X475767D01*
X475702Y16492D01*
X475319Y17416D01*
X474710Y18210D01*
X473916Y18819D01*
X472992Y19202D01*
X472500Y19267D01*
D02*
G37*
G36*
X471500D02*
X471008Y19202D01*
X470084Y18819D01*
X469290Y18210D01*
X468681Y17416D01*
X468298Y16492D01*
X468233Y16000D01*
X471500D01*
Y19267D01*
D02*
G37*
G36*
Y15000D02*
X468233D01*
X468298Y14508D01*
X468681Y13584D01*
X469290Y12790D01*
X470084Y12181D01*
X471008Y11798D01*
X471500Y11733D01*
Y15000D01*
D02*
G37*
G36*
X385718Y21842D02*
X384439Y21674D01*
X383247Y21180D01*
X382223Y20395D01*
X381438Y19371D01*
X380944Y18179D01*
X380776Y16900D01*
Y9100D01*
X380944Y7821D01*
X381438Y6629D01*
X382223Y5605D01*
X383247Y4820D01*
X384439Y4326D01*
X385718Y4158D01*
X386997Y4326D01*
X388189Y4820D01*
X389213Y5605D01*
X389998Y6629D01*
X390492Y7821D01*
X390660Y9100D01*
Y16900D01*
X390492Y18179D01*
X389998Y19371D01*
X389213Y20395D01*
X388189Y21180D01*
X386997Y21674D01*
X385718Y21842D01*
D02*
G37*
G36*
X355700Y21342D02*
X354421Y21174D01*
X353229Y20680D01*
X352205Y19895D01*
X351420Y18871D01*
X350926Y17679D01*
X350758Y16400D01*
Y8600D01*
X350926Y7321D01*
X351420Y6129D01*
X352205Y5105D01*
X353229Y4320D01*
X354421Y3826D01*
X355700Y3658D01*
X356979Y3826D01*
X358171Y4320D01*
X359195Y5105D01*
X359980Y6129D01*
X360474Y7321D01*
X360642Y8600D01*
Y16400D01*
X360474Y17679D01*
X359980Y18871D01*
X359195Y19895D01*
X358171Y20680D01*
X356979Y21174D01*
X355700Y21342D01*
D02*
G37*
G36*
X441500Y16539D02*
X440325Y16384D01*
X439231Y15931D01*
X438291Y15209D01*
X437569Y14269D01*
X437116Y13175D01*
X436961Y12000D01*
X437116Y10825D01*
X437569Y9731D01*
X438291Y8791D01*
X439231Y8069D01*
X440325Y7616D01*
X441500Y7461D01*
X442675Y7616D01*
X443769Y8069D01*
X444709Y8791D01*
X445431Y9731D01*
X445884Y10825D01*
X446039Y12000D01*
X445884Y13175D01*
X445431Y14269D01*
X444709Y15209D01*
X443769Y15931D01*
X442675Y16384D01*
X441500Y16539D01*
D02*
G37*
G36*
X388500Y103099D02*
X386530Y102905D01*
X384635Y102330D01*
X382890Y101397D01*
X381359Y100141D01*
X380103Y98611D01*
X379170Y96865D01*
X378595Y94970D01*
X378401Y93000D01*
X378595Y91030D01*
X379170Y89135D01*
X380103Y87389D01*
X381359Y85859D01*
X382890Y84603D01*
X384635Y83670D01*
X386530Y83095D01*
X388500Y82901D01*
X389931Y83042D01*
X410089Y62885D01*
Y13000D01*
X410205Y11824D01*
X410548Y10693D01*
X411105Y9650D01*
X411176Y9564D01*
Y9100D01*
X411344Y7821D01*
X411838Y6629D01*
X412623Y5605D01*
X413647Y4820D01*
X414839Y4326D01*
X416118Y4158D01*
X417397Y4326D01*
X418589Y4820D01*
X419613Y5605D01*
X420398Y6629D01*
X420892Y7821D01*
X421060Y9100D01*
Y9564D01*
X421131Y9650D01*
X421688Y10693D01*
X422031Y11824D01*
X422147Y13000D01*
Y65382D01*
X422147Y65382D01*
X422031Y66558D01*
X421688Y67689D01*
X421131Y68731D01*
X420381Y69645D01*
X420381Y69645D01*
X398458Y91569D01*
X398599Y93000D01*
X398405Y94970D01*
X397830Y96865D01*
X396897Y98611D01*
X395641Y100141D01*
X394110Y101397D01*
X392365Y102330D01*
X390470Y102905D01*
X388500Y103099D01*
D02*
G37*
G36*
X330142Y11500D02*
X325700D01*
Y3224D01*
X326479Y3326D01*
X327671Y3820D01*
X328695Y4605D01*
X329480Y5629D01*
X329974Y6821D01*
X330142Y8100D01*
Y11500D01*
D02*
G37*
G36*
X718718Y20842D02*
X717439Y20674D01*
X716247Y20180D01*
X715223Y19395D01*
X714438Y18371D01*
X713944Y17179D01*
X713776Y15900D01*
Y8100D01*
X713944Y6821D01*
X714438Y5629D01*
X715223Y4605D01*
X716247Y3820D01*
X717439Y3326D01*
X718718Y3158D01*
X719997Y3326D01*
X721189Y3820D01*
X722213Y4605D01*
X722998Y5629D01*
X723492Y6821D01*
X723660Y8100D01*
Y15900D01*
X723492Y17179D01*
X722998Y18371D01*
X722213Y19395D01*
X721189Y20180D01*
X719997Y20674D01*
X718718Y20842D01*
D02*
G37*
G36*
X20868Y11500D02*
X12500D01*
Y3132D01*
X13740Y3254D01*
X15412Y3762D01*
X16954Y4586D01*
X18305Y5695D01*
X19414Y7046D01*
X20238Y8588D01*
X20746Y10260D01*
X20868Y11500D01*
D02*
G37*
G36*
X324700D02*
X320258D01*
Y8100D01*
X320426Y6821D01*
X320920Y5629D01*
X321705Y4605D01*
X322729Y3820D01*
X323921Y3326D01*
X324700Y3224D01*
Y11500D01*
D02*
G37*
G36*
X749118Y20842D02*
X747839Y20674D01*
X746647Y20180D01*
X745623Y19395D01*
X744838Y18371D01*
X744344Y17179D01*
X744176Y15900D01*
Y8100D01*
X744344Y6821D01*
X744838Y5629D01*
X745623Y4605D01*
X746647Y3820D01*
X747839Y3326D01*
X749118Y3158D01*
X750397Y3326D01*
X751589Y3820D01*
X752613Y4605D01*
X753398Y5629D01*
X753892Y6821D01*
X754060Y8100D01*
Y15900D01*
X753892Y17179D01*
X753398Y18371D01*
X752613Y19395D01*
X751589Y20180D01*
X750397Y20674D01*
X749118Y20842D01*
D02*
G37*
G36*
X451000Y11500D02*
X447027D01*
X447116Y10825D01*
X447569Y9731D01*
X448291Y8791D01*
X449231Y8069D01*
X450325Y7616D01*
X451000Y7527D01*
Y11500D01*
D02*
G37*
G36*
X657700Y19776D02*
X656921Y19674D01*
X655729Y19180D01*
X654705Y18395D01*
X653920Y17371D01*
X653426Y16179D01*
X653258Y14900D01*
Y11500D01*
X657700D01*
Y19776D01*
D02*
G37*
G36*
X594676Y15305D02*
X593200D01*
Y8900D01*
X596653D01*
Y13329D01*
X594676Y15305D01*
D02*
G37*
G36*
X490421Y19333D02*
X489429Y19202D01*
X488505Y18819D01*
X487711Y18210D01*
X487102Y17416D01*
X486719Y16492D01*
X486588Y15500D01*
X486719Y14508D01*
X487102Y13584D01*
X487711Y12790D01*
X488505Y12181D01*
X489429Y11798D01*
X490421Y11667D01*
X491413Y11798D01*
X492338Y12181D01*
X493131Y12790D01*
X493741Y13584D01*
X494123Y14508D01*
X494254Y15500D01*
X494123Y16492D01*
X493741Y17416D01*
X493131Y18210D01*
X492338Y18819D01*
X491413Y19202D01*
X490421Y19333D01*
D02*
G37*
G36*
X658700Y19776D02*
Y11500D01*
X663142D01*
Y14900D01*
X662974Y16179D01*
X662480Y17371D01*
X661695Y18395D01*
X660671Y19180D01*
X659479Y19674D01*
X658700Y19776D01*
D02*
G37*
G36*
X592200Y15305D02*
X590724D01*
X588747Y13329D01*
Y8900D01*
X592200D01*
Y15305D01*
D02*
G37*
G36*
X295500Y17039D02*
X294325Y16884D01*
X293231Y16431D01*
X292291Y15709D01*
X291569Y14769D01*
X291116Y13675D01*
X290961Y12500D01*
X291116Y11325D01*
X291569Y10231D01*
X292291Y9291D01*
X293231Y8569D01*
X294325Y8116D01*
X295500Y7961D01*
X296675Y8116D01*
X297769Y8569D01*
X298709Y9291D01*
X299431Y10231D01*
X299884Y11325D01*
X300039Y12500D01*
X299884Y13675D01*
X299431Y14769D01*
X298709Y15709D01*
X297769Y16431D01*
X296675Y16884D01*
X295500Y17039D01*
D02*
G37*
G36*
X455973Y11500D02*
X452000D01*
Y7527D01*
X452675Y7616D01*
X453769Y8069D01*
X454709Y8791D01*
X455431Y9731D01*
X455884Y10825D01*
X455973Y11500D01*
D02*
G37*
G36*
X309973Y12000D02*
X306000D01*
Y8027D01*
X306675Y8116D01*
X307769Y8569D01*
X308709Y9291D01*
X309431Y10231D01*
X309884Y11325D01*
X309973Y12000D01*
D02*
G37*
G36*
X305000D02*
X301027D01*
X301116Y11325D01*
X301569Y10231D01*
X302291Y9291D01*
X303231Y8569D01*
X304325Y8116D01*
X305000Y8027D01*
Y12000D01*
D02*
G37*
G36*
X182000Y61029D02*
X126500D01*
X125324Y60913D01*
X124193Y60570D01*
X123151Y60013D01*
X122237Y59263D01*
X121487Y58350D01*
X120930Y57307D01*
X120587Y56176D01*
X120471Y55000D01*
X120587Y53824D01*
X120930Y52693D01*
X121487Y51651D01*
X122237Y50737D01*
X123151Y49987D01*
X124193Y49430D01*
X125324Y49087D01*
X126500Y48971D01*
X179503D01*
X184219Y44255D01*
Y29000D01*
X184382Y27763D01*
X184860Y26610D01*
X185303Y26031D01*
X185395Y25334D01*
X185768Y24434D01*
X186361Y23661D01*
X187134Y23068D01*
X188034Y22695D01*
X189000Y22568D01*
X189966Y22695D01*
X190866Y23068D01*
X191639Y23661D01*
X192232Y24434D01*
X192605Y25334D01*
X192696Y26031D01*
X193140Y26610D01*
X193618Y27763D01*
X193781Y29000D01*
Y44368D01*
X194013Y44651D01*
X194570Y45693D01*
X194913Y46824D01*
X195029Y48000D01*
X194913Y49176D01*
X194570Y50307D01*
X194013Y51350D01*
X193263Y52263D01*
X186263Y59263D01*
X185350Y60013D01*
X184307Y60570D01*
X183176Y60913D01*
X182000Y61029D01*
D02*
G37*
G36*
X658500Y70624D02*
X658149Y70555D01*
X657598Y70186D01*
X657250Y70111D01*
X656902Y70186D01*
X656351Y70555D01*
X656000Y70624D01*
Y68500D01*
Y66376D01*
X656351Y66445D01*
X657072Y66927D01*
X657428D01*
X658149Y66445D01*
X658500Y66376D01*
Y68500D01*
Y70624D01*
D02*
G37*
G36*
X230525Y79550D02*
X226000D01*
Y70000D01*
X235550D01*
Y74525D01*
X230525Y79550D01*
D02*
G37*
G36*
X20969Y77500D02*
X14500D01*
Y73966D01*
X17000D01*
X18044Y74103D01*
X19017Y74506D01*
X19853Y75147D01*
X20494Y75983D01*
X20897Y76956D01*
X20969Y77500D01*
D02*
G37*
G36*
X13500D02*
X7031D01*
X7103Y76956D01*
X7506Y75983D01*
X8147Y75147D01*
X8983Y74506D01*
X9956Y74103D01*
X11000Y73966D01*
X13500D01*
Y77500D01*
D02*
G37*
G36*
X225000Y79550D02*
X220475D01*
X215450Y74525D01*
Y70000D01*
X225000D01*
Y79550D01*
D02*
G37*
G36*
X205500Y229794D02*
X204622Y229620D01*
X203878Y229122D01*
X203380Y228378D01*
X203206Y227500D01*
Y183500D01*
X203380Y182622D01*
X203878Y181878D01*
X207878Y177878D01*
X208622Y177381D01*
X209500Y177206D01*
X221050D01*
X223206Y175050D01*
Y159950D01*
X213550Y150294D01*
X53500D01*
X52622Y150119D01*
X51878Y149622D01*
X39878Y137622D01*
X39380Y136878D01*
X39206Y136000D01*
Y70450D01*
X36050Y67294D01*
X21321D01*
X20991Y67670D01*
X21035Y68000D01*
X20897Y69044D01*
X20494Y70017D01*
X19853Y70853D01*
X19017Y71494D01*
X18044Y71897D01*
X17000Y72035D01*
X11000D01*
X9956Y71897D01*
X8983Y71494D01*
X8147Y70853D01*
X7506Y70017D01*
X7103Y69044D01*
X6966Y68000D01*
X7103Y66956D01*
X7506Y65983D01*
X8147Y65147D01*
X8983Y64506D01*
X9956Y64103D01*
X11000Y63965D01*
X14790D01*
X15378Y63378D01*
X16122Y62881D01*
X17000Y62706D01*
X37000D01*
X37878Y62881D01*
X38622Y63378D01*
X43122Y67878D01*
X43619Y68622D01*
X43794Y69500D01*
Y135050D01*
X54450Y145706D01*
X214500D01*
X215378Y145880D01*
X216122Y146378D01*
X227122Y157378D01*
X227620Y158122D01*
X227794Y159000D01*
Y176000D01*
X227620Y176878D01*
X227122Y177622D01*
X223622Y181122D01*
X222878Y181620D01*
X222000Y181794D01*
X210450D01*
X207794Y184450D01*
Y227500D01*
X207620Y228378D01*
X207122Y229122D01*
X206378Y229620D01*
X205500Y229794D01*
D02*
G37*
G36*
X661124Y68000D02*
X659500D01*
Y66376D01*
X659851Y66445D01*
X660572Y66927D01*
X661055Y67649D01*
X661124Y68000D01*
D02*
G37*
G36*
X659500Y70624D02*
Y69000D01*
X661124D01*
X661055Y69351D01*
X660572Y70073D01*
X659851Y70555D01*
X659500Y70624D01*
D02*
G37*
G36*
X655000D02*
X654649Y70555D01*
X653928Y70073D01*
X653445Y69351D01*
X653376Y69000D01*
X655000D01*
Y70624D01*
D02*
G37*
G36*
X13500Y82034D02*
X11000D01*
X9956Y81897D01*
X8983Y81494D01*
X8147Y80853D01*
X7506Y80017D01*
X7103Y79044D01*
X7031Y78500D01*
X13500D01*
Y82034D01*
D02*
G37*
G36*
X17000Y92035D02*
X11000D01*
X9956Y91897D01*
X8983Y91494D01*
X8147Y90853D01*
X7506Y90017D01*
X7103Y89044D01*
X6966Y88000D01*
X7103Y86956D01*
X7506Y85983D01*
X8147Y85147D01*
X8983Y84506D01*
X9956Y84103D01*
X11000Y83965D01*
X17000D01*
X18044Y84103D01*
X19017Y84506D01*
X19853Y85147D01*
X20494Y85983D01*
X20897Y86956D01*
X21035Y88000D01*
X20897Y89044D01*
X20494Y90017D01*
X19853Y90853D01*
X19017Y91494D01*
X18044Y91897D01*
X17000Y92035D01*
D02*
G37*
G36*
X358550Y92500D02*
X349000D01*
Y82950D01*
X353525D01*
X358550Y87975D01*
Y92500D01*
D02*
G37*
G36*
X280000Y108530D02*
X279086Y108410D01*
X278235Y108057D01*
X277504Y107496D01*
X276943Y106765D01*
X276590Y105914D01*
X276470Y105000D01*
X276590Y104086D01*
X276943Y103235D01*
X277504Y102504D01*
X278235Y101943D01*
X279086Y101590D01*
X280000Y101470D01*
X280914Y101590D01*
X281149Y101688D01*
X286919Y95919D01*
X287415Y95587D01*
X288000Y95471D01*
X308345D01*
X308443Y95235D01*
X309004Y94504D01*
X309735Y93943D01*
X310586Y93590D01*
X311500Y93470D01*
X312414Y93590D01*
X313265Y93943D01*
X313996Y94504D01*
X314557Y95235D01*
X314910Y96086D01*
X315030Y97000D01*
X314910Y97914D01*
X314557Y98765D01*
X313996Y99496D01*
X313265Y100057D01*
X312414Y100410D01*
X311500Y100530D01*
X310586Y100410D01*
X309735Y100057D01*
X309004Y99496D01*
X308443Y98765D01*
X308345Y98529D01*
X288633D01*
X283312Y103851D01*
X283410Y104086D01*
X283530Y105000D01*
X283410Y105914D01*
X283057Y106765D01*
X282496Y107496D01*
X281765Y108057D01*
X280914Y108410D01*
X280000Y108530D01*
D02*
G37*
G36*
X153700Y94232D02*
X148300D01*
X147334Y94105D01*
X146434Y93732D01*
X145661Y93139D01*
X145068Y92366D01*
X144695Y91466D01*
X144568Y90500D01*
X144695Y89534D01*
X145068Y88634D01*
X145661Y87861D01*
X146434Y87268D01*
X147334Y86895D01*
X148300Y86768D01*
X153700D01*
X154666Y86895D01*
X155566Y87268D01*
X156339Y87861D01*
X156932Y88634D01*
X157305Y89534D01*
X157432Y90500D01*
X157305Y91466D01*
X156932Y92366D01*
X156339Y93139D01*
X155566Y93732D01*
X154666Y94105D01*
X153700Y94232D01*
D02*
G37*
G36*
X348000Y92500D02*
X338450D01*
Y87975D01*
X343475Y82950D01*
X348000D01*
Y92500D01*
D02*
G37*
G36*
X65500Y92030D02*
X64586Y91910D01*
X63735Y91557D01*
X63004Y90996D01*
X62443Y90265D01*
X62090Y89414D01*
X61970Y88500D01*
X62090Y87586D01*
X62443Y86735D01*
X63004Y86004D01*
X63735Y85443D01*
X64586Y85090D01*
X65500Y84970D01*
X66414Y85090D01*
X67265Y85443D01*
X67996Y86004D01*
X68151Y86206D01*
X115550D01*
X122378Y79378D01*
X123122Y78881D01*
X124000Y78706D01*
X203000D01*
X203878Y78881D01*
X204622Y79378D01*
X208822Y83578D01*
X208914Y83590D01*
X209765Y83943D01*
X210496Y84504D01*
X211057Y85235D01*
X211410Y86086D01*
X211530Y87000D01*
X211410Y87914D01*
X211057Y88765D01*
X210496Y89496D01*
X209765Y90057D01*
X208914Y90410D01*
X208000Y90530D01*
X207086Y90410D01*
X206235Y90057D01*
X205504Y89496D01*
X204943Y88765D01*
X204590Y87914D01*
X204470Y87000D01*
X204590Y86086D01*
X204664Y85908D01*
X202050Y83294D01*
X124950D01*
X118122Y90122D01*
X117378Y90619D01*
X116500Y90794D01*
X68151D01*
X67996Y90996D01*
X67265Y91557D01*
X66414Y91910D01*
X65500Y92030D01*
D02*
G37*
G36*
X17000Y82034D02*
X14500D01*
Y78500D01*
X20969D01*
X20897Y79044D01*
X20494Y80017D01*
X19853Y80853D01*
X19017Y81494D01*
X18044Y81897D01*
X17000Y82034D01*
D02*
G37*
G36*
X275500Y100530D02*
X274586Y100410D01*
X273735Y100057D01*
X273004Y99496D01*
X272443Y98765D01*
X272090Y97914D01*
X271970Y97000D01*
X272090Y96086D01*
X272443Y95235D01*
X273004Y94504D01*
X273735Y93943D01*
X274586Y93590D01*
X275500Y93470D01*
X276414Y93590D01*
X276649Y93688D01*
X285419Y84919D01*
X285915Y84587D01*
X286500Y84471D01*
X296845D01*
X296943Y84235D01*
X297504Y83504D01*
X298235Y82943D01*
X299086Y82590D01*
X300000Y82470D01*
X300914Y82590D01*
X301765Y82943D01*
X302496Y83504D01*
X303057Y84235D01*
X303410Y85086D01*
X303530Y86000D01*
X303410Y86914D01*
X303057Y87765D01*
X302496Y88496D01*
X301765Y89057D01*
X300914Y89410D01*
X300000Y89530D01*
X299086Y89410D01*
X298235Y89057D01*
X297504Y88496D01*
X296943Y87765D01*
X296845Y87529D01*
X287134D01*
X278812Y95851D01*
X278910Y96086D01*
X279030Y97000D01*
X278910Y97914D01*
X278557Y98765D01*
X277996Y99496D01*
X277265Y100057D01*
X276414Y100410D01*
X275500Y100530D01*
D02*
G37*
G36*
X221000Y89530D02*
X220086Y89410D01*
X219235Y89057D01*
X218504Y88496D01*
X217943Y87765D01*
X217590Y86914D01*
X217470Y86000D01*
X217590Y85086D01*
X217688Y84851D01*
X206867Y74029D01*
X116155D01*
X116057Y74265D01*
X115496Y74996D01*
X114765Y75557D01*
X113914Y75910D01*
X113000Y76030D01*
X112086Y75910D01*
X111235Y75557D01*
X110504Y74996D01*
X109943Y74265D01*
X109590Y73414D01*
X109470Y72500D01*
X109590Y71586D01*
X109943Y70735D01*
X110504Y70004D01*
X111235Y69443D01*
X112086Y69090D01*
X113000Y68970D01*
X113914Y69090D01*
X114765Y69443D01*
X115496Y70004D01*
X116057Y70735D01*
X116155Y70971D01*
X207500D01*
X208085Y71087D01*
X208581Y71419D01*
X219851Y82688D01*
X220086Y82590D01*
X221000Y82470D01*
X221914Y82590D01*
X222765Y82943D01*
X223496Y83504D01*
X224057Y84235D01*
X224410Y85086D01*
X224530Y86000D01*
X224410Y86914D01*
X224057Y87765D01*
X223496Y88496D01*
X222765Y89057D01*
X221914Y89410D01*
X221000Y89530D01*
D02*
G37*
G36*
X655000Y68000D02*
X653376D01*
X653445Y67649D01*
X653928Y66927D01*
X654649Y66445D01*
X655000Y66376D01*
Y68000D01*
D02*
G37*
G36*
X446421Y59333D02*
X445429Y59202D01*
X444505Y58819D01*
X443711Y58210D01*
X443102Y57416D01*
X442719Y56492D01*
X442589Y55500D01*
X442719Y54508D01*
X443102Y53584D01*
X443711Y52790D01*
X444505Y52181D01*
X445429Y51798D01*
X446421Y51667D01*
X447413Y51798D01*
X448338Y52181D01*
X449131Y52790D01*
X449741Y53584D01*
X450123Y54508D01*
X450254Y55500D01*
X450123Y56492D01*
X449741Y57416D01*
X449131Y58210D01*
X448338Y58819D01*
X447413Y59202D01*
X446421Y59333D01*
D02*
G37*
G36*
X428000D02*
X427008Y59202D01*
X426084Y58819D01*
X425290Y58210D01*
X424681Y57416D01*
X424298Y56492D01*
X424167Y55500D01*
X424298Y54508D01*
X424681Y53584D01*
X425290Y52790D01*
X426084Y52181D01*
X427008Y51798D01*
X428000Y51667D01*
X428992Y51798D01*
X429916Y52181D01*
X430710Y52790D01*
X431319Y53584D01*
X431702Y54508D01*
X431833Y55500D01*
X431702Y56492D01*
X431319Y57416D01*
X430710Y58210D01*
X429916Y58819D01*
X428992Y59202D01*
X428000Y59333D01*
D02*
G37*
G36*
X827000Y64000D02*
X817450D01*
Y59475D01*
X822475Y54450D01*
X827000D01*
Y64000D01*
D02*
G37*
G36*
X787500Y74599D02*
X785530Y74405D01*
X783635Y73830D01*
X781889Y72897D01*
X780359Y71641D01*
X779103Y70110D01*
X778170Y68365D01*
X777595Y66470D01*
X777401Y64500D01*
X777595Y62530D01*
X778170Y60635D01*
X779103Y58890D01*
X780359Y57359D01*
X781889Y56103D01*
X783635Y55170D01*
X785530Y54595D01*
X787500Y54401D01*
X789470Y54595D01*
X791365Y55170D01*
X793111Y56103D01*
X794641Y57359D01*
X795897Y58890D01*
X796830Y60635D01*
X797405Y62530D01*
X797599Y64500D01*
X797405Y66470D01*
X796830Y68365D01*
X795897Y70110D01*
X794641Y71641D01*
X793111Y72897D01*
X791365Y73830D01*
X789470Y74405D01*
X787500Y74599D01*
D02*
G37*
G36*
X49000Y43500D02*
X46500D01*
Y38000D01*
X52000D01*
Y40500D01*
X49000Y43500D01*
D02*
G37*
G36*
X45500Y37000D02*
X40000D01*
Y34500D01*
X43000Y31500D01*
X45500D01*
Y37000D01*
D02*
G37*
G36*
X66000Y43529D02*
X64824Y43413D01*
X63693Y43070D01*
X62651Y42513D01*
X61737Y41763D01*
X60987Y40850D01*
X60430Y39807D01*
X60087Y38676D01*
X59971Y37500D01*
X60087Y36324D01*
X60430Y35193D01*
X60987Y34150D01*
X61737Y33237D01*
X62651Y32487D01*
X63693Y31930D01*
X64824Y31587D01*
X66000Y31471D01*
X67176Y31587D01*
X68307Y31930D01*
X69349Y32487D01*
X70263Y33237D01*
X71013Y34150D01*
X71570Y35193D01*
X71913Y36324D01*
X72029Y37500D01*
X71913Y38676D01*
X71570Y39807D01*
X71013Y40850D01*
X70263Y41763D01*
X69349Y42513D01*
X68307Y43070D01*
X67176Y43413D01*
X66000Y43529D01*
D02*
G37*
G36*
X45500Y43500D02*
X43000D01*
X40000Y40500D01*
Y38000D01*
X45500D01*
Y43500D01*
D02*
G37*
G36*
X52000Y37000D02*
X46500D01*
Y31500D01*
X49000D01*
X52000Y34500D01*
Y37000D01*
D02*
G37*
G36*
X837550Y64000D02*
X828000D01*
Y54450D01*
X832525D01*
X837550Y59475D01*
Y64000D01*
D02*
G37*
G36*
X195500Y68030D02*
X194586Y67910D01*
X193735Y67557D01*
X193004Y66996D01*
X192443Y66265D01*
X192345Y66029D01*
X117500D01*
X116915Y65913D01*
X116419Y65581D01*
X114419Y63581D01*
X114087Y63085D01*
X113971Y62500D01*
Y47500D01*
X114087Y46915D01*
X114419Y46419D01*
X118419Y42419D01*
X118915Y42087D01*
X119012Y42068D01*
X119500Y41971D01*
X150845D01*
X150943Y41735D01*
X151504Y41004D01*
X152235Y40443D01*
X153086Y40090D01*
X154000Y39970D01*
X154914Y40090D01*
X155765Y40443D01*
X156496Y41004D01*
X157057Y41735D01*
X157410Y42586D01*
X157530Y43500D01*
X157410Y44414D01*
X157057Y45265D01*
X156496Y45996D01*
X155765Y46557D01*
X154914Y46910D01*
X154000Y47030D01*
X153086Y46910D01*
X152235Y46557D01*
X151504Y45996D01*
X150943Y45265D01*
X150845Y45029D01*
X120133D01*
X117029Y48134D01*
Y61866D01*
X118133Y62971D01*
X192345D01*
X192443Y62735D01*
X193004Y62004D01*
X193735Y61443D01*
X194586Y61090D01*
X195500Y60970D01*
X196414Y61090D01*
X197265Y61443D01*
X197996Y62004D01*
X198557Y62735D01*
X198910Y63586D01*
X199030Y64500D01*
X198910Y65414D01*
X198557Y66265D01*
X197996Y66996D01*
X197265Y67557D01*
X196414Y67910D01*
X195500Y68030D01*
D02*
G37*
G36*
X84500Y76030D02*
X83586Y75910D01*
X82735Y75557D01*
X82004Y74996D01*
X81443Y74265D01*
X81090Y73414D01*
X80970Y72500D01*
X81090Y71586D01*
X81443Y70735D01*
X81971Y70047D01*
Y63134D01*
X78649Y59812D01*
X78414Y59910D01*
X77500Y60030D01*
X76586Y59910D01*
X75735Y59557D01*
X75004Y58996D01*
X74443Y58265D01*
X74090Y57414D01*
X73970Y56500D01*
X74090Y55586D01*
X74443Y54735D01*
X75004Y54004D01*
X75735Y53443D01*
X76586Y53090D01*
X77500Y52970D01*
X78414Y53090D01*
X79265Y53443D01*
X79996Y54004D01*
X80557Y54735D01*
X80910Y55586D01*
X81030Y56500D01*
X80910Y57414D01*
X80812Y57649D01*
X84581Y61419D01*
X84913Y61915D01*
X85029Y62500D01*
Y69039D01*
X85414Y69090D01*
X86265Y69443D01*
X86996Y70004D01*
X87557Y70735D01*
X87910Y71586D01*
X88030Y72500D01*
X87910Y73414D01*
X87557Y74265D01*
X86996Y74996D01*
X86265Y75557D01*
X85414Y75910D01*
X84500Y76030D01*
D02*
G37*
G36*
X832525Y74550D02*
X828000D01*
Y65000D01*
X837550D01*
Y69525D01*
X832525Y74550D01*
D02*
G37*
G36*
X827000D02*
X822475D01*
X817450Y69525D01*
Y65000D01*
X827000D01*
Y74550D01*
D02*
G37*
G36*
X235550Y69000D02*
X226000D01*
Y59450D01*
X230525D01*
X235550Y64475D01*
Y69000D01*
D02*
G37*
G36*
X707421Y64333D02*
X706429Y64202D01*
X705505Y63819D01*
X704711Y63210D01*
X704102Y62416D01*
X703719Y61492D01*
X703588Y60500D01*
X703719Y59508D01*
X704102Y58584D01*
X704711Y57790D01*
X705505Y57181D01*
X706429Y56798D01*
X707421Y56667D01*
X708413Y56798D01*
X709338Y57181D01*
X710132Y57790D01*
X710741Y58584D01*
X711123Y59508D01*
X711254Y60500D01*
X711123Y61492D01*
X710741Y62416D01*
X710132Y63210D01*
X709338Y63819D01*
X708413Y64202D01*
X707421Y64333D01*
D02*
G37*
G36*
X689000D02*
X688008Y64202D01*
X687084Y63819D01*
X686290Y63210D01*
X685681Y62416D01*
X685298Y61492D01*
X685167Y60500D01*
X685298Y59508D01*
X685681Y58584D01*
X686290Y57790D01*
X687084Y57181D01*
X688008Y56798D01*
X689000Y56667D01*
X689992Y56798D01*
X690916Y57181D01*
X691710Y57790D01*
X692319Y58584D01*
X692702Y59508D01*
X692833Y60500D01*
X692702Y61492D01*
X692319Y62416D01*
X691710Y63210D01*
X690916Y63819D01*
X689992Y64202D01*
X689000Y64333D01*
D02*
G37*
G36*
X225000Y69000D02*
X215450D01*
Y64475D01*
X220475Y59450D01*
X225000D01*
Y69000D01*
D02*
G37*
G36*
X265500Y79599D02*
X263530Y79405D01*
X261635Y78830D01*
X259890Y77897D01*
X258359Y76641D01*
X257103Y75111D01*
X256170Y73365D01*
X255595Y71470D01*
X255401Y69500D01*
X255595Y67530D01*
X256170Y65635D01*
X257103Y63889D01*
X258359Y62359D01*
X259890Y61103D01*
X261635Y60170D01*
X263530Y59595D01*
X265500Y59401D01*
X267470Y59595D01*
X269365Y60170D01*
X271111Y61103D01*
X272641Y62359D01*
X273897Y63889D01*
X274830Y65635D01*
X275405Y67530D01*
X275599Y69500D01*
X275405Y71470D01*
X274830Y73365D01*
X273897Y75111D01*
X272641Y76641D01*
X271111Y77897D01*
X269365Y78830D01*
X267470Y79405D01*
X265500Y79599D01*
D02*
G37*
G36*
X217000Y279969D02*
X216456Y279897D01*
X215483Y279494D01*
X214647Y278853D01*
X214006Y278017D01*
X213603Y277044D01*
X213465Y276000D01*
Y273500D01*
X217000D01*
Y279969D01*
D02*
G37*
G36*
X14500Y425267D02*
Y422000D01*
X17767D01*
X17702Y422492D01*
X17319Y423416D01*
X16710Y424210D01*
X15916Y424819D01*
X14992Y425202D01*
X14500Y425267D01*
D02*
G37*
G36*
X13500D02*
X13008Y425202D01*
X12084Y424819D01*
X11290Y424210D01*
X10681Y423416D01*
X10298Y422492D01*
X10233Y422000D01*
X13500D01*
Y425267D01*
D02*
G37*
G36*
X64124Y428500D02*
X62500D01*
Y426876D01*
X62851Y426945D01*
X63573Y427427D01*
X64055Y428149D01*
X64124Y428500D01*
D02*
G37*
G36*
X61500D02*
X59876D01*
X59945Y428149D01*
X60427Y427427D01*
X61149Y426945D01*
X61500Y426876D01*
Y428500D01*
D02*
G37*
G36*
X17767Y421000D02*
X14500D01*
Y417733D01*
X14992Y417798D01*
X15916Y418181D01*
X16710Y418790D01*
X17319Y419584D01*
X17702Y420508D01*
X17767Y421000D01*
D02*
G37*
G36*
X221500Y431294D02*
X221000D01*
X220122Y431119D01*
X219378Y430622D01*
X218881Y429878D01*
X218809Y429520D01*
X218380Y428878D01*
X218206Y428000D01*
Y415500D01*
X218380Y414622D01*
X218878Y413878D01*
X219622Y413381D01*
X220500Y413206D01*
X221378Y413381D01*
X222122Y413878D01*
X222620Y414622D01*
X222794Y415500D01*
Y427050D01*
X223122Y427378D01*
X223620Y428122D01*
X223794Y429000D01*
X223620Y429878D01*
X223122Y430622D01*
X222378Y431119D01*
X221500Y431294D01*
D02*
G37*
G36*
X117000Y414124D02*
Y412500D01*
X118624D01*
X118554Y412851D01*
X118072Y413573D01*
X117351Y414055D01*
X117000Y414124D01*
D02*
G37*
G36*
X13500Y421000D02*
X10233D01*
X10298Y420508D01*
X10681Y419584D01*
X11290Y418790D01*
X12084Y418181D01*
X13008Y417798D01*
X13500Y417733D01*
Y421000D01*
D02*
G37*
G36*
X24000Y425333D02*
X23008Y425202D01*
X22084Y424819D01*
X21290Y424210D01*
X20681Y423416D01*
X20298Y422492D01*
X20167Y421500D01*
X20298Y420508D01*
X20681Y419584D01*
X21290Y418790D01*
X22084Y418181D01*
X23008Y417798D01*
X24000Y417667D01*
X24992Y417798D01*
X25916Y418181D01*
X26710Y418790D01*
X27319Y419584D01*
X27702Y420508D01*
X27833Y421500D01*
X27702Y422492D01*
X27319Y423416D01*
X26710Y424210D01*
X25916Y424819D01*
X24992Y425202D01*
X24000Y425333D01*
D02*
G37*
G36*
Y435333D02*
X23008Y435202D01*
X22084Y434819D01*
X21290Y434210D01*
X20681Y433416D01*
X20298Y432492D01*
X20167Y431500D01*
X20298Y430508D01*
X20681Y429584D01*
X21290Y428790D01*
X22084Y428181D01*
X23008Y427798D01*
X24000Y427667D01*
X24992Y427798D01*
X25916Y428181D01*
X26710Y428790D01*
X27319Y429584D01*
X27702Y430508D01*
X27833Y431500D01*
X27702Y432492D01*
X27319Y433416D01*
X26710Y434210D01*
X25916Y434819D01*
X24992Y435202D01*
X24000Y435333D01*
D02*
G37*
G36*
X13500Y435267D02*
X13008Y435202D01*
X12084Y434819D01*
X11290Y434210D01*
X10681Y433416D01*
X10298Y432492D01*
X10233Y432000D01*
X13500D01*
Y435267D01*
D02*
G37*
G36*
X64624Y432000D02*
X60376D01*
X60445Y431649D01*
X60659Y431329D01*
X60527Y430639D01*
X60427Y430573D01*
X59945Y429851D01*
X59876Y429500D01*
X64124D01*
X64055Y429851D01*
X63841Y430171D01*
X63973Y430861D01*
X64073Y430928D01*
X64555Y431649D01*
X64624Y432000D01*
D02*
G37*
G36*
X100000Y433624D02*
Y432000D01*
X101624D01*
X101555Y432351D01*
X101073Y433073D01*
X100351Y433555D01*
X100000Y433624D01*
D02*
G37*
G36*
X14500Y435267D02*
Y432000D01*
X17767D01*
X17702Y432492D01*
X17319Y433416D01*
X16710Y434210D01*
X15916Y434819D01*
X14992Y435202D01*
X14500Y435267D01*
D02*
G37*
G36*
X101624Y431000D02*
X100000D01*
Y429376D01*
X100351Y429445D01*
X101073Y429927D01*
X101555Y430649D01*
X101624Y431000D01*
D02*
G37*
G36*
X17767D02*
X14500D01*
Y427733D01*
X14992Y427798D01*
X15916Y428181D01*
X16710Y428790D01*
X17319Y429584D01*
X17702Y430508D01*
X17767Y431000D01*
D02*
G37*
G36*
X13500D02*
X10233D01*
X10298Y430508D01*
X10681Y429584D01*
X11290Y428790D01*
X12084Y428181D01*
X13008Y427798D01*
X13500Y427733D01*
Y431000D01*
D02*
G37*
G36*
X98624Y434500D02*
X94376D01*
X94446Y434149D01*
X94928Y433427D01*
X95282Y433190D01*
X95177Y432660D01*
X94649Y432555D01*
X93928Y432072D01*
X93445Y431351D01*
X93376Y431000D01*
X95500D01*
Y430500D01*
X96000D01*
Y428376D01*
X96351Y428445D01*
X97072Y428928D01*
X97554Y429649D01*
X97555Y429653D01*
X98097Y429814D01*
X98649Y429445D01*
X99000Y429376D01*
Y431500D01*
Y433624D01*
X98776Y433580D01*
X98481Y433910D01*
X98445Y433985D01*
X98554Y434149D01*
X98624Y434500D01*
D02*
G37*
G36*
X95000Y430000D02*
X93376D01*
X93445Y429649D01*
X93928Y428928D01*
X94649Y428445D01*
X95000Y428376D01*
Y430000D01*
D02*
G37*
G36*
X116000Y414124D02*
X115649Y414055D01*
X114927Y413573D01*
X114445Y412851D01*
X114376Y412500D01*
X116000D01*
Y414124D01*
D02*
G37*
G36*
X24000Y415333D02*
X23008Y415202D01*
X22084Y414819D01*
X21290Y414210D01*
X20681Y413416D01*
X20298Y412492D01*
X20167Y411500D01*
X20298Y410508D01*
X20681Y409584D01*
X21290Y408790D01*
X22084Y408181D01*
X23008Y407798D01*
X24000Y407667D01*
X24992Y407798D01*
X25916Y408181D01*
X26710Y408790D01*
X27319Y409584D01*
X27702Y410508D01*
X27833Y411500D01*
X27702Y412492D01*
X27319Y413416D01*
X26710Y414210D01*
X25916Y414819D01*
X24992Y415202D01*
X24000Y415333D01*
D02*
G37*
G36*
X14500Y405267D02*
Y402000D01*
X17767D01*
X17702Y402492D01*
X17319Y403416D01*
X16710Y404210D01*
X15916Y404819D01*
X14992Y405202D01*
X14500Y405267D01*
D02*
G37*
G36*
X13500Y411000D02*
X10233D01*
X10298Y410508D01*
X10681Y409584D01*
X11290Y408790D01*
X12084Y408181D01*
X13008Y407798D01*
X13500Y407733D01*
Y411000D01*
D02*
G37*
G36*
X138000Y411322D02*
X137303Y411184D01*
X136711Y410789D01*
X136316Y410197D01*
X136178Y409500D01*
X136316Y408803D01*
X136711Y408211D01*
X137303Y407816D01*
X138000Y407678D01*
X138697Y407816D01*
X139289Y408211D01*
X139684Y408803D01*
X139822Y409500D01*
X139684Y410197D01*
X139289Y410789D01*
X138697Y411184D01*
X138000Y411322D01*
D02*
G37*
G36*
X13500Y405267D02*
X13008Y405202D01*
X12084Y404819D01*
X11290Y404210D01*
X10681Y403416D01*
X10298Y402492D01*
X10233Y402000D01*
X13500D01*
Y405267D01*
D02*
G37*
G36*
X24000Y405333D02*
X23008Y405202D01*
X22084Y404819D01*
X21290Y404210D01*
X20681Y403416D01*
X20298Y402492D01*
X20167Y401500D01*
X20298Y400508D01*
X20681Y399584D01*
X21290Y398790D01*
X22084Y398181D01*
X23008Y397798D01*
X24000Y397667D01*
X24992Y397798D01*
X25916Y398181D01*
X26710Y398790D01*
X27319Y399584D01*
X27702Y400508D01*
X27833Y401500D01*
X27702Y402492D01*
X27319Y403416D01*
X26710Y404210D01*
X25916Y404819D01*
X24992Y405202D01*
X24000Y405333D01*
D02*
G37*
G36*
X34000Y395124D02*
Y393500D01*
X35624D01*
X35555Y393851D01*
X35072Y394572D01*
X34351Y395055D01*
X34000Y395124D01*
D02*
G37*
G36*
X17767Y401000D02*
X14500D01*
Y397733D01*
X14992Y397798D01*
X15916Y398181D01*
X16710Y398790D01*
X17319Y399584D01*
X17702Y400508D01*
X17767Y401000D01*
D02*
G37*
G36*
X13500D02*
X10233D01*
X10298Y400508D01*
X10681Y399584D01*
X11290Y398790D01*
X12084Y398181D01*
X13008Y397798D01*
X13500Y397733D01*
Y401000D01*
D02*
G37*
G36*
X17767Y411000D02*
X14500D01*
Y407733D01*
X14992Y407798D01*
X15916Y408181D01*
X16710Y408790D01*
X17319Y409584D01*
X17702Y410508D01*
X17767Y411000D01*
D02*
G37*
G36*
X14500Y415267D02*
Y412000D01*
X17767D01*
X17702Y412492D01*
X17319Y413416D01*
X16710Y414210D01*
X15916Y414819D01*
X14992Y415202D01*
X14500Y415267D01*
D02*
G37*
G36*
X13500D02*
X13008Y415202D01*
X12084Y414819D01*
X11290Y414210D01*
X10681Y413416D01*
X10298Y412492D01*
X10233Y412000D01*
X13500D01*
Y415267D01*
D02*
G37*
G36*
X109500Y413624D02*
Y412000D01*
X111124D01*
X111055Y412351D01*
X110573Y413072D01*
X109851Y413555D01*
X109500Y413624D01*
D02*
G37*
G36*
X108500D02*
X108149Y413555D01*
X107428Y413072D01*
X106946Y412351D01*
X106876Y412000D01*
X108500D01*
Y413624D01*
D02*
G37*
G36*
X118624Y411500D02*
X117000D01*
Y409876D01*
X117351Y409945D01*
X118072Y410428D01*
X118554Y411149D01*
X118624Y411500D01*
D02*
G37*
G36*
X108500Y411000D02*
X106876D01*
X106946Y410649D01*
X107428Y409928D01*
X108149Y409445D01*
X108500Y409376D01*
Y411000D01*
D02*
G37*
G36*
X198500Y411224D02*
X197649Y411055D01*
X196927Y410572D01*
X196899Y410529D01*
X182500D01*
X182012Y410432D01*
X181915Y410413D01*
X181419Y410081D01*
X180051Y408714D01*
X180000Y408724D01*
X179149Y408555D01*
X178428Y408073D01*
X177945Y407351D01*
X177776Y406500D01*
X177945Y405649D01*
X178428Y404927D01*
X179149Y404445D01*
X180000Y404276D01*
X180851Y404445D01*
X181572Y404927D01*
X182054Y405649D01*
X182224Y406500D01*
X182214Y406551D01*
X183133Y407471D01*
X196899D01*
X196927Y407428D01*
X197649Y406945D01*
X198500Y406776D01*
X199351Y406945D01*
X200073Y407428D01*
X200554Y408149D01*
X200724Y409000D01*
X200554Y409851D01*
X200073Y410572D01*
X199351Y411055D01*
X198500Y411224D01*
D02*
G37*
G36*
X116000Y411500D02*
X114376D01*
X114445Y411149D01*
X114927Y410428D01*
X115649Y409945D01*
X116000Y409876D01*
Y411500D01*
D02*
G37*
G36*
X111124Y411000D02*
X109500D01*
Y409376D01*
X109851Y409445D01*
X110573Y409928D01*
X111055Y410649D01*
X111124Y411000D01*
D02*
G37*
G36*
X64124Y435500D02*
X59876D01*
X59945Y435149D01*
X60427Y434427D01*
X60527Y434361D01*
X60659Y433671D01*
X60445Y433351D01*
X60376Y433000D01*
X64624D01*
X64555Y433351D01*
X64073Y434072D01*
X63973Y434139D01*
X63841Y434829D01*
X64055Y435149D01*
X64124Y435500D01*
D02*
G37*
G36*
X112500Y488700D02*
X111150D01*
X109300Y486850D01*
Y485500D01*
X112500D01*
Y488700D01*
D02*
G37*
G36*
X143500Y483724D02*
X142649Y483555D01*
X141928Y483073D01*
X141446Y482351D01*
X141445Y482347D01*
X140903Y482186D01*
X140351Y482555D01*
X139500Y482724D01*
X138649Y482555D01*
X137927Y482072D01*
X137445Y481351D01*
X137276Y480500D01*
X137445Y479649D01*
X137927Y478928D01*
X138649Y478445D01*
X138971Y478381D01*
Y463101D01*
X138927Y463072D01*
X138445Y462351D01*
X138276Y461500D01*
X138445Y460649D01*
X138927Y459928D01*
X139649Y459445D01*
X140038Y459368D01*
X140255Y458815D01*
X139945Y458351D01*
X139776Y457500D01*
X139945Y456649D01*
X140427Y455928D01*
X141149Y455445D01*
X142000Y455276D01*
X142851Y455445D01*
X143572Y455928D01*
X144054Y456649D01*
X144224Y457500D01*
X144214Y457551D01*
X144581Y457919D01*
X144913Y458415D01*
X145029Y459000D01*
Y479899D01*
X145072Y479927D01*
X145554Y480649D01*
X145724Y481500D01*
X145554Y482351D01*
X145072Y483073D01*
X144351Y483555D01*
X143500Y483724D01*
D02*
G37*
G36*
X197850Y497200D02*
X194150D01*
X192300Y495350D01*
Y491650D01*
X194150Y489800D01*
X197850D01*
X199700Y491650D01*
Y495350D01*
X197850Y497200D01*
D02*
G37*
G36*
X114850Y488700D02*
X113500D01*
Y485500D01*
X116700D01*
Y486850D01*
X114850Y488700D01*
D02*
G37*
G36*
X230368Y490000D02*
X222000D01*
Y481632D01*
X223240Y481754D01*
X224912Y482262D01*
X226454Y483086D01*
X227805Y484195D01*
X228914Y485546D01*
X229738Y487088D01*
X230246Y488760D01*
X230368Y490000D01*
D02*
G37*
G36*
X116700Y484500D02*
X113500D01*
Y481300D01*
X114850D01*
X116700Y483150D01*
Y484500D01*
D02*
G37*
G36*
X112500D02*
X109300D01*
Y483150D01*
X111150Y481300D01*
X112500D01*
Y484500D01*
D02*
G37*
G36*
X221000Y490000D02*
X212632D01*
X212754Y488760D01*
X213262Y487088D01*
X214086Y485546D01*
X215195Y484195D01*
X216546Y483086D01*
X218088Y482262D01*
X219760Y481754D01*
X221000Y481632D01*
Y490000D01*
D02*
G37*
G36*
X20868D02*
X12500D01*
Y481632D01*
X13740Y481754D01*
X15412Y482262D01*
X16954Y483086D01*
X18305Y484195D01*
X19414Y485546D01*
X20238Y487088D01*
X20746Y488760D01*
X20868Y490000D01*
D02*
G37*
G36*
X12500Y499368D02*
Y491000D01*
X20868D01*
X20746Y492240D01*
X20238Y493912D01*
X19414Y495454D01*
X18305Y496805D01*
X16954Y497914D01*
X15412Y498738D01*
X13740Y499246D01*
X12500Y499368D01*
D02*
G37*
G36*
X177850Y497200D02*
X176500D01*
Y494000D01*
X179700D01*
Y495350D01*
X177850Y497200D01*
D02*
G37*
G36*
X175500D02*
X174150D01*
X172300Y495350D01*
Y494000D01*
X175500D01*
Y497200D01*
D02*
G37*
G36*
X114850Y498700D02*
X113500D01*
Y495500D01*
X116700D01*
Y496850D01*
X114850Y498700D01*
D02*
G37*
G36*
X112500D02*
X111150D01*
X109300Y496850D01*
Y495500D01*
X112500D01*
Y498700D01*
D02*
G37*
G36*
X124850D02*
X121150D01*
X119300Y496850D01*
Y493150D01*
X121150Y491300D01*
X124850D01*
X126700Y493150D01*
Y496850D01*
X124850Y498700D01*
D02*
G37*
G36*
X222000Y499368D02*
Y491000D01*
X230368D01*
X230246Y492240D01*
X229738Y493912D01*
X228914Y495454D01*
X227805Y496805D01*
X226454Y497914D01*
X224912Y498738D01*
X223240Y499246D01*
X222000Y499368D01*
D02*
G37*
G36*
X221000D02*
X219760Y499246D01*
X218088Y498738D01*
X216546Y497914D01*
X215195Y496805D01*
X214086Y495454D01*
X213262Y493912D01*
X212754Y492240D01*
X212632Y491000D01*
X221000D01*
Y499368D01*
D02*
G37*
G36*
X116700Y494500D02*
X113500D01*
Y491300D01*
X114850D01*
X116700Y493150D01*
Y494500D01*
D02*
G37*
G36*
X112500D02*
X109300D01*
Y493150D01*
X111150Y491300D01*
X112500D01*
Y494500D01*
D02*
G37*
G36*
X134850Y498700D02*
X131150D01*
X129300Y496850D01*
Y493150D01*
X129894Y492556D01*
X127719Y490381D01*
X127387Y489885D01*
X127271Y489300D01*
Y481536D01*
X126771Y481269D01*
X126368Y481538D01*
X125890Y481633D01*
X125725Y482175D01*
X126700Y483150D01*
Y486850D01*
X124850Y488700D01*
X121150D01*
X119300Y486850D01*
Y483150D01*
X120394Y482056D01*
X120148Y481595D01*
X119500Y481724D01*
X118649Y481555D01*
X117928Y481073D01*
X117446Y480351D01*
X117276Y479500D01*
X117446Y478649D01*
X117928Y477927D01*
X117971Y477899D01*
Y465208D01*
X118087Y464623D01*
X118419Y464127D01*
X123808Y458738D01*
X124304Y458406D01*
X124890Y458289D01*
X130048D01*
X136286Y452051D01*
X136276Y452000D01*
X136445Y451149D01*
X136927Y450427D01*
X137649Y449945D01*
X138500Y449776D01*
X139351Y449945D01*
X140073Y450427D01*
X140554Y451149D01*
X140724Y452000D01*
X140554Y452851D01*
X140073Y453573D01*
X139351Y454055D01*
X138500Y454224D01*
X138449Y454214D01*
X132131Y460532D01*
X132195Y461175D01*
X132572Y461427D01*
X133054Y462149D01*
X133224Y463000D01*
X133054Y463851D01*
X132572Y464572D01*
X132529Y464601D01*
Y477100D01*
X132413Y477685D01*
X132081Y478181D01*
X130329Y479934D01*
Y481467D01*
X130791Y481659D01*
X131150Y481300D01*
X134850D01*
X136700Y483150D01*
Y486537D01*
X137134Y486971D01*
X173267D01*
X173459Y486509D01*
X172300Y485350D01*
Y485029D01*
X165500D01*
X164915Y484913D01*
X164419Y484581D01*
X162919Y483081D01*
X162587Y482585D01*
X162471Y482000D01*
Y468101D01*
X162427Y468073D01*
X161945Y467351D01*
X161776Y466500D01*
X161945Y465649D01*
X162427Y464927D01*
X163149Y464445D01*
X164000Y464276D01*
X164851Y464445D01*
X165573Y464927D01*
X166054Y465649D01*
X166224Y466500D01*
X166054Y467351D01*
X165573Y468073D01*
X165529Y468101D01*
Y481366D01*
X166133Y481971D01*
X172300D01*
Y481650D01*
X173459Y480491D01*
X173267Y480029D01*
X170500D01*
X169915Y479913D01*
X169419Y479581D01*
X168919Y479081D01*
X168587Y478585D01*
X168471Y478000D01*
Y464101D01*
X168428Y464073D01*
X167946Y463351D01*
X167776Y462500D01*
X167946Y461649D01*
X168428Y460927D01*
X169149Y460445D01*
X170000Y460276D01*
X170851Y460445D01*
X171572Y460927D01*
X172055Y461649D01*
X172224Y462500D01*
X172055Y463351D01*
X171572Y464073D01*
X171529Y464101D01*
Y476971D01*
X181000D01*
X181585Y477087D01*
X182081Y477419D01*
X184463Y479800D01*
X187850D01*
X189700Y481650D01*
Y485350D01*
X188541Y486509D01*
X188733Y486971D01*
X190366D01*
X192300Y485037D01*
Y481650D01*
X194150Y479800D01*
X197537D01*
X202419Y474919D01*
X202915Y474587D01*
X203500Y474471D01*
X214399D01*
X214427Y474428D01*
X215149Y473945D01*
X216000Y473776D01*
X216851Y473945D01*
X217572Y474428D01*
X218055Y475149D01*
X218224Y476000D01*
X218055Y476851D01*
X217572Y477572D01*
X216851Y478055D01*
X216000Y478224D01*
X215149Y478055D01*
X214427Y477572D01*
X214399Y477529D01*
X204134D01*
X199700Y481963D01*
Y485350D01*
X197850Y487200D01*
X194463D01*
X192081Y489581D01*
X191585Y489913D01*
X191000Y490029D01*
X188733D01*
X188541Y490491D01*
X189700Y491650D01*
Y495350D01*
X187850Y497200D01*
X184150D01*
X182300Y495350D01*
Y491650D01*
X183459Y490491D01*
X183267Y490029D01*
X178733D01*
X178541Y490491D01*
X179700Y491650D01*
Y493000D01*
X172300D01*
Y491650D01*
X173459Y490491D01*
X173267Y490029D01*
X136500D01*
X135915Y489913D01*
X135419Y489581D01*
X134537Y488700D01*
X131150D01*
X130631Y488888D01*
X130617Y488955D01*
X132963Y491300D01*
X134850D01*
X136700Y493150D01*
Y496850D01*
X134850Y498700D01*
D02*
G37*
G36*
X186500Y448500D02*
X184876D01*
X184945Y448149D01*
X185427Y447428D01*
X186149Y446945D01*
X186500Y446876D01*
Y448500D01*
D02*
G37*
G36*
X211000Y456391D02*
X210122Y456276D01*
X209304Y455937D01*
X208602Y455398D01*
X208063Y454696D01*
X207724Y453878D01*
X207609Y453000D01*
X207724Y452122D01*
X208063Y451304D01*
X208602Y450602D01*
X208706Y450522D01*
Y440529D01*
X151601D01*
X151573Y440573D01*
X150851Y441055D01*
X150000Y441224D01*
X149149Y441055D01*
X148427Y440573D01*
X147945Y439851D01*
X147776Y439000D01*
X147945Y438149D01*
X148427Y437428D01*
X149149Y436945D01*
X150000Y436776D01*
X150851Y436945D01*
X151573Y437428D01*
X151601Y437471D01*
X208706D01*
Y412361D01*
X208102Y411898D01*
X207563Y411196D01*
X207224Y410378D01*
X207109Y409500D01*
X207224Y408622D01*
X207563Y407804D01*
X208102Y407102D01*
X208804Y406563D01*
X209622Y406224D01*
X210500Y406109D01*
X211378Y406224D01*
X212196Y406563D01*
X212898Y407102D01*
X213437Y407804D01*
X213776Y408622D01*
X213891Y409500D01*
X213776Y410378D01*
X213437Y411196D01*
X213294Y411382D01*
Y439000D01*
Y450522D01*
X213398Y450602D01*
X213937Y451304D01*
X214276Y452122D01*
X214391Y453000D01*
X214276Y453878D01*
X213937Y454696D01*
X213398Y455398D01*
X212696Y455937D01*
X211878Y456276D01*
X211000Y456391D01*
D02*
G37*
G36*
X145500Y449500D02*
X143876D01*
X143946Y449149D01*
X144428Y448427D01*
X145149Y447945D01*
X145500Y447876D01*
Y449500D01*
D02*
G37*
G36*
X189124Y448500D02*
X187500D01*
Y446876D01*
X187851Y446945D01*
X188573Y447428D01*
X189055Y448149D01*
X189124Y448500D01*
D02*
G37*
G36*
X14000Y445333D02*
X13008Y445202D01*
X12084Y444819D01*
X11290Y444210D01*
X10681Y443416D01*
X10298Y442492D01*
X10167Y441500D01*
X10298Y440508D01*
X10681Y439584D01*
X11290Y438790D01*
X12084Y438181D01*
X13008Y437798D01*
X14000Y437667D01*
X14992Y437798D01*
X15916Y438181D01*
X16710Y438790D01*
X17319Y439584D01*
X17702Y440508D01*
X17833Y441500D01*
X17702Y442492D01*
X17319Y443416D01*
X16710Y444210D01*
X15916Y444819D01*
X14992Y445202D01*
X14000Y445333D01*
D02*
G37*
G36*
X97000Y437124D02*
Y435500D01*
X98624D01*
X98554Y435851D01*
X98072Y436573D01*
X97351Y437055D01*
X97000Y437124D01*
D02*
G37*
G36*
X96000D02*
X95649Y437055D01*
X94928Y436573D01*
X94446Y435851D01*
X94376Y435500D01*
X96000D01*
Y437124D01*
D02*
G37*
G36*
X62500Y438124D02*
Y436500D01*
X64124D01*
X64055Y436851D01*
X63573Y437572D01*
X62851Y438055D01*
X62500Y438124D01*
D02*
G37*
G36*
X61500D02*
X61149Y438055D01*
X60427Y437572D01*
X59945Y436851D01*
X59876Y436500D01*
X61500D01*
Y438124D01*
D02*
G37*
G36*
X152124Y449500D02*
X150500D01*
Y447876D01*
X150851Y447945D01*
X151573Y448427D01*
X152055Y449149D01*
X152124Y449500D01*
D02*
G37*
G36*
X187500Y458124D02*
Y456500D01*
X189124D01*
X189055Y456851D01*
X188573Y457573D01*
X187851Y458055D01*
X187500Y458124D01*
D02*
G37*
G36*
X186500D02*
X186149Y458055D01*
X185427Y457573D01*
X184945Y456851D01*
X184876Y456500D01*
X186500D01*
Y458124D01*
D02*
G37*
G36*
X104500Y486724D02*
X103649Y486555D01*
X102927Y486072D01*
X102445Y485351D01*
X102276Y484500D01*
X102445Y483649D01*
X102927Y482928D01*
X102971Y482899D01*
Y482292D01*
X103087Y481706D01*
X103419Y481210D01*
X104111Y480518D01*
X103980Y479942D01*
X103428Y479572D01*
X102945Y478851D01*
X102776Y478000D01*
X102865Y477555D01*
Y477555D01*
X102867Y477545D01*
X102910Y477128D01*
X102833Y477081D01*
X102772Y477044D01*
X102461Y476990D01*
X102396Y477088D01*
X102282Y477259D01*
Y477259D01*
X102073Y477572D01*
X101351Y478055D01*
X100500Y478224D01*
X99649Y478055D01*
X98927Y477572D01*
X98445Y476851D01*
X98276Y476000D01*
X98286Y475949D01*
X97686Y475349D01*
X97189Y475398D01*
X97072Y475572D01*
X96351Y476055D01*
X95500Y476224D01*
X94649Y476055D01*
X93928Y475572D01*
X93445Y474851D01*
X93276Y474000D01*
X93286Y473949D01*
X93100Y473763D01*
X92768Y473266D01*
X92760Y473224D01*
X92351Y473055D01*
X91500Y473224D01*
X90649Y473055D01*
X89928Y472573D01*
X89446Y471851D01*
X89276Y471000D01*
X89446Y470149D01*
X89811Y469601D01*
X89770Y469428D01*
X89233Y469332D01*
X89073Y469572D01*
X88351Y470055D01*
X87500Y470224D01*
X86649Y470055D01*
X85927Y469572D01*
X85445Y468851D01*
X85276Y468000D01*
X84789Y467888D01*
X84689Y467898D01*
X84572Y468073D01*
X83851Y468555D01*
X83000Y468724D01*
X82149Y468555D01*
X81428Y468073D01*
X80945Y467351D01*
X80776Y466500D01*
X80865Y466055D01*
Y466055D01*
X80867Y466045D01*
X80910Y465628D01*
X80833Y465581D01*
X80772Y465544D01*
X80461Y465490D01*
X80396Y465589D01*
X80282Y465759D01*
Y465759D01*
X80072Y466073D01*
X79351Y466555D01*
X78500Y466724D01*
X77649Y466555D01*
X76928Y466073D01*
X76446Y465351D01*
X76276Y464500D01*
X76286Y464449D01*
X75600Y463763D01*
X75273Y463273D01*
X74851Y463555D01*
X74000Y463724D01*
X73149Y463555D01*
X72427Y463072D01*
X71946Y462351D01*
X71776Y461500D01*
X71946Y460649D01*
X72311Y460101D01*
X72270Y459928D01*
X71733Y459832D01*
X71573Y460073D01*
X70851Y460555D01*
X70000Y460724D01*
X69149Y460555D01*
X68427Y460073D01*
X67945Y459351D01*
X67885Y459048D01*
X67354Y458942D01*
X67072Y459364D01*
X66351Y459846D01*
X65500Y460015D01*
X64649Y459846D01*
X63928Y459364D01*
X63446Y458643D01*
X63276Y457792D01*
X63446Y456941D01*
X63928Y456219D01*
X64649Y455737D01*
X65500Y455568D01*
X65551Y455578D01*
X65971Y455158D01*
Y418634D01*
X63867Y416529D01*
X62601D01*
X62572Y416573D01*
X61851Y417055D01*
X61000Y417224D01*
X60149Y417055D01*
X59427Y416573D01*
X58946Y415851D01*
X58776Y415000D01*
X58946Y414149D01*
X59427Y413427D01*
X60149Y412945D01*
X61000Y412776D01*
X61851Y412945D01*
X62572Y413427D01*
X62601Y413471D01*
X64500D01*
X65085Y413587D01*
X65581Y413919D01*
X68009Y416346D01*
X68471Y416154D01*
Y406425D01*
X67971Y406110D01*
X67319Y406240D01*
X66468Y406070D01*
X65746Y405588D01*
X65264Y404867D01*
X65095Y404016D01*
X65264Y403165D01*
X65746Y402443D01*
X65790Y402415D01*
Y346952D01*
X62366Y343529D01*
X53000D01*
X52512Y343432D01*
X52415Y343413D01*
X51919Y343081D01*
X34954Y326117D01*
X34622Y325621D01*
X34506Y325035D01*
Y266169D01*
X28288Y259951D01*
X27701Y260071D01*
X27210Y260710D01*
X26416Y261319D01*
X25492Y261702D01*
X24500Y261833D01*
X23508Y261702D01*
X22584Y261319D01*
X21790Y260710D01*
X21181Y259916D01*
X20798Y258992D01*
X20667Y258000D01*
X20798Y257008D01*
X21181Y256084D01*
X21606Y255529D01*
X21359Y255029D01*
X19634D01*
X18042Y256621D01*
X18202Y257008D01*
X18333Y258000D01*
X18202Y258992D01*
X17819Y259916D01*
X17210Y260710D01*
X16416Y261319D01*
X15492Y261702D01*
X14500Y261833D01*
X13508Y261702D01*
X12584Y261319D01*
X11790Y260710D01*
X11181Y259916D01*
X10798Y258992D01*
X10667Y258000D01*
X10798Y257008D01*
X11181Y256084D01*
X11790Y255290D01*
X12584Y254681D01*
X13508Y254298D01*
X14500Y254167D01*
X15492Y254298D01*
X15879Y254458D01*
X17919Y252419D01*
X18415Y252087D01*
X19000Y251971D01*
X22850D01*
X22949Y251471D01*
X22584Y251319D01*
X21790Y250710D01*
X21181Y249916D01*
X20798Y248992D01*
X20667Y248000D01*
X20798Y247008D01*
X21181Y246084D01*
X21790Y245290D01*
X22584Y244681D01*
X22949Y244529D01*
X22850Y244029D01*
X17133D01*
X16722Y244441D01*
X16754Y244940D01*
X17210Y245290D01*
X17819Y246084D01*
X18202Y247008D01*
X18333Y248000D01*
X18202Y248992D01*
X17819Y249916D01*
X17210Y250710D01*
X16416Y251319D01*
X15492Y251702D01*
X14500Y251833D01*
X13508Y251702D01*
X12584Y251319D01*
X11790Y250710D01*
X11181Y249916D01*
X10798Y248992D01*
X10667Y248000D01*
X10798Y247008D01*
X11181Y246084D01*
X11790Y245290D01*
X12584Y244681D01*
X12971Y244520D01*
Y244500D01*
X13087Y243915D01*
X13419Y243419D01*
X15419Y241419D01*
X15915Y241087D01*
X16500Y240971D01*
X29000D01*
X29126Y240996D01*
X29372Y240535D01*
X27319Y238481D01*
X26987Y237985D01*
X26871Y237400D01*
Y230996D01*
X26383Y230794D01*
X25547Y230153D01*
X24906Y229317D01*
X24503Y228344D01*
X24365Y227300D01*
Y221300D01*
X24503Y220256D01*
X24906Y219283D01*
X25547Y218447D01*
X26383Y217806D01*
X27356Y217403D01*
X28400Y217266D01*
X29444Y217403D01*
X30417Y217806D01*
X31253Y218447D01*
X31894Y219283D01*
X32297Y220256D01*
X32434Y221300D01*
Y227300D01*
X32297Y228344D01*
X31894Y229317D01*
X31253Y230153D01*
X30417Y230794D01*
X29929Y230996D01*
Y236767D01*
X38581Y245419D01*
X38913Y245915D01*
X39029Y246500D01*
Y252366D01*
X50081Y263419D01*
X50413Y263915D01*
X50529Y264500D01*
Y282399D01*
X50573Y282428D01*
X51055Y283149D01*
X51224Y284000D01*
X51055Y284851D01*
X50573Y285573D01*
X49851Y286055D01*
X49000Y286224D01*
X48149Y286055D01*
X47427Y285573D01*
X46945Y284851D01*
X46776Y284000D01*
X46945Y283149D01*
X47427Y282428D01*
X47471Y282399D01*
Y265134D01*
X45834Y263497D01*
X45373Y263689D01*
Y289466D01*
X45873Y289515D01*
X45945Y289149D01*
X46428Y288427D01*
X47149Y287945D01*
X48000Y287776D01*
X48851Y287945D01*
X49573Y288427D01*
X50055Y289149D01*
X50224Y290000D01*
X50214Y290051D01*
X51262Y291100D01*
X51594Y291596D01*
X51710Y292181D01*
Y297319D01*
X51594Y297904D01*
X51262Y298400D01*
X51029Y298634D01*
Y322760D01*
X56134Y327864D01*
X68893D01*
X69479Y327980D01*
X69975Y328312D01*
X81581Y339919D01*
X81913Y340415D01*
X82029Y341000D01*
Y365829D01*
X82470Y366065D01*
X82649Y365945D01*
X83500Y365776D01*
X84224Y365920D01*
X84519Y365590D01*
X84555Y365515D01*
X84446Y365351D01*
X84276Y364500D01*
X84446Y363649D01*
X84927Y362928D01*
X85649Y362445D01*
X85952Y362385D01*
X87919Y360419D01*
X88415Y360087D01*
X89000Y359971D01*
X123399D01*
X123427Y359928D01*
X124149Y359445D01*
X125000Y359276D01*
X125851Y359445D01*
X126573Y359928D01*
X127055Y360649D01*
X127224Y361500D01*
X127055Y362351D01*
X126573Y363072D01*
X125851Y363555D01*
X125000Y363724D01*
X124149Y363555D01*
X123427Y363072D01*
X123399Y363029D01*
X89634D01*
X88631Y364032D01*
X88724Y364500D01*
X88555Y365351D01*
X88073Y366073D01*
X87477Y366471D01*
X87627Y366971D01*
X140899D01*
X140928Y366928D01*
X141649Y366445D01*
X142500Y366276D01*
X143351Y366445D01*
X143932Y366834D01*
X144390Y366571D01*
X144276Y366000D01*
X144286Y365949D01*
X128366Y350029D01*
X126389D01*
X126351Y350055D01*
X125500Y350224D01*
X124649Y350055D01*
X123927Y349572D01*
X123445Y348851D01*
X123276Y348000D01*
X123445Y347149D01*
X123927Y346427D01*
X124649Y345945D01*
X125500Y345776D01*
X126351Y345945D01*
X127073Y346427D01*
X127160Y346558D01*
X127379Y346567D01*
X127437Y346500D01*
X132124D01*
X132054Y346851D01*
X131572Y347572D01*
X131195Y347825D01*
X131131Y348468D01*
X146449Y363786D01*
X146500Y363776D01*
X147351Y363945D01*
X148073Y364427D01*
X148555Y365149D01*
X148724Y366000D01*
X148555Y366851D01*
X148073Y367572D01*
X147351Y368055D01*
X146500Y368224D01*
X145649Y368055D01*
X145068Y367666D01*
X144610Y367929D01*
X144724Y368500D01*
X144554Y369351D01*
X144072Y370073D01*
X143351Y370555D01*
X142500Y370724D01*
X141649Y370555D01*
X140928Y370073D01*
X140899Y370029D01*
X84389D01*
X84351Y370055D01*
X83500Y370224D01*
X82649Y370055D01*
X82470Y369935D01*
X82029Y370171D01*
Y382329D01*
X82470Y382565D01*
X82649Y382445D01*
X83500Y382276D01*
X84351Y382445D01*
X85072Y382927D01*
X85554Y383649D01*
X85724Y384500D01*
X85714Y384551D01*
X87262Y386100D01*
X87594Y386596D01*
X87710Y387181D01*
Y395439D01*
X87613Y395927D01*
X87594Y396024D01*
X87262Y396520D01*
X86029Y397754D01*
Y410692D01*
X86529Y410859D01*
X87149Y410445D01*
X88000Y410276D01*
X88851Y410445D01*
X89573Y410927D01*
X90055Y411649D01*
X90224Y412500D01*
X90055Y413351D01*
X89573Y414073D01*
X88851Y414555D01*
X88029Y414718D01*
Y433366D01*
X92081Y437419D01*
X92413Y437915D01*
X92529Y438500D01*
Y448538D01*
X97836Y453845D01*
X98168Y454341D01*
X98284Y454926D01*
Y461112D01*
X108763Y471590D01*
X109094Y472086D01*
X109211Y472672D01*
Y479110D01*
X109113Y479599D01*
X109094Y479696D01*
X108763Y480192D01*
X106068Y482886D01*
X106072Y482928D01*
X106554Y483649D01*
X106724Y484500D01*
X106554Y485351D01*
X106072Y486072D01*
X105351Y486555D01*
X104500Y486724D01*
D02*
G37*
G36*
X52500Y474224D02*
X51649Y474055D01*
X50928Y473572D01*
X50899Y473529D01*
X20389D01*
X20351Y473555D01*
X19500Y473724D01*
X18649Y473555D01*
X17928Y473072D01*
X17445Y472351D01*
X17276Y471500D01*
X17445Y470649D01*
X17928Y469928D01*
X18649Y469445D01*
X19500Y469276D01*
X20351Y469445D01*
X21072Y469928D01*
X21435Y470471D01*
X50899D01*
X50928Y470428D01*
X51649Y469945D01*
X52500Y469776D01*
X53351Y469945D01*
X54072Y470428D01*
X54554Y471149D01*
X54724Y472000D01*
X54554Y472851D01*
X54072Y473572D01*
X53351Y474055D01*
X52500Y474224D01*
D02*
G37*
G36*
X189124Y455500D02*
X184876D01*
X184945Y455149D01*
X185427Y454427D01*
Y454073D01*
X184945Y453351D01*
X184876Y453000D01*
X189124D01*
X189055Y453351D01*
X188573Y454073D01*
Y454427D01*
X189055Y455149D01*
X189124Y455500D01*
D02*
G37*
G36*
X145500Y452124D02*
X145149Y452055D01*
X144428Y451573D01*
X143946Y450851D01*
X143876Y450500D01*
X145500D01*
Y452124D01*
D02*
G37*
G36*
X189124Y452000D02*
X184876D01*
X184945Y451649D01*
X185427Y450927D01*
Y450572D01*
X184945Y449851D01*
X184876Y449500D01*
X189124D01*
X189055Y449851D01*
X188573Y450572D01*
Y450927D01*
X189055Y451649D01*
X189124Y452000D01*
D02*
G37*
G36*
X149500Y452124D02*
X149149Y452055D01*
X148427Y451573D01*
X148250Y451307D01*
X147750D01*
X147573Y451573D01*
X146851Y452055D01*
X146500Y452124D01*
Y450000D01*
Y447876D01*
X146851Y447945D01*
X147573Y448427D01*
X147750Y448693D01*
X148250D01*
X148427Y448427D01*
X149149Y447945D01*
X149500Y447876D01*
Y450000D01*
Y452124D01*
D02*
G37*
G36*
X150500D02*
Y450500D01*
X152124D01*
X152055Y450851D01*
X151573Y451573D01*
X150851Y452055D01*
X150500Y452124D01*
D02*
G37*
G36*
X33000Y395124D02*
X32649Y395055D01*
X31927Y394572D01*
X31445Y393851D01*
X31376Y393500D01*
X33000D01*
Y395124D01*
D02*
G37*
G36*
X143500Y347000D02*
X141876D01*
X141946Y346649D01*
X142428Y345928D01*
X143149Y345445D01*
X143500Y345376D01*
Y347000D01*
D02*
G37*
G36*
X132124Y345500D02*
X130500D01*
Y343876D01*
X130851Y343945D01*
X131572Y344427D01*
X132054Y345149D01*
X132124Y345500D01*
D02*
G37*
G36*
X164500Y353429D02*
X163612Y353313D01*
X162785Y352970D01*
X162075Y352425D01*
X161530Y351715D01*
X161188Y350888D01*
X161071Y350000D01*
X161188Y349113D01*
X161530Y348285D01*
X162075Y347575D01*
X162785Y347030D01*
X163612Y346688D01*
X164500Y346571D01*
X165387Y346688D01*
X166215Y347030D01*
X166925Y347575D01*
X167470Y348285D01*
X167812Y349113D01*
X167929Y350000D01*
X167812Y350888D01*
X167470Y351715D01*
X166925Y352425D01*
X166215Y352970D01*
X165387Y353313D01*
X164500Y353429D01*
D02*
G37*
G36*
X146124Y347000D02*
X144500D01*
Y345376D01*
X144851Y345445D01*
X145572Y345928D01*
X146054Y346649D01*
X146124Y347000D01*
D02*
G37*
G36*
X129500Y345500D02*
X127876D01*
X127945Y345149D01*
X128428Y344427D01*
X129149Y343945D01*
X129500Y343876D01*
Y345500D01*
D02*
G37*
G36*
X160469Y339500D02*
X157000D01*
Y336031D01*
X157544Y336103D01*
X158517Y336506D01*
X159353Y337147D01*
X159994Y337983D01*
X160397Y338956D01*
X160469Y339500D01*
D02*
G37*
G36*
X156000D02*
X152531D01*
X152603Y338956D01*
X153006Y337983D01*
X153647Y337147D01*
X154483Y336506D01*
X155456Y336103D01*
X156000Y336031D01*
Y339500D01*
D02*
G37*
G36*
X157000Y343969D02*
Y340500D01*
X160469D01*
X160397Y341044D01*
X159994Y342017D01*
X159353Y342853D01*
X158517Y343494D01*
X157544Y343897D01*
X157000Y343969D01*
D02*
G37*
G36*
X156000D02*
X155456Y343897D01*
X154483Y343494D01*
X153647Y342853D01*
X153006Y342017D01*
X152603Y341044D01*
X152531Y340500D01*
X156000D01*
Y343969D01*
D02*
G37*
G36*
X24000Y355333D02*
X23008Y355202D01*
X22084Y354819D01*
X21290Y354210D01*
X20681Y353416D01*
X20298Y352492D01*
X20167Y351500D01*
X20298Y350508D01*
X20681Y349584D01*
X21290Y348790D01*
X22084Y348181D01*
X23008Y347798D01*
X24000Y347667D01*
X24992Y347798D01*
X25916Y348181D01*
X26710Y348790D01*
X27319Y349584D01*
X27702Y350508D01*
X27833Y351500D01*
X27702Y352492D01*
X27319Y353416D01*
X26710Y354210D01*
X25916Y354819D01*
X24992Y355202D01*
X24000Y355333D01*
D02*
G37*
G36*
X13500Y355267D02*
X13008Y355202D01*
X12084Y354819D01*
X11290Y354210D01*
X10681Y353416D01*
X10298Y352492D01*
X10233Y352000D01*
X13500D01*
Y355267D01*
D02*
G37*
G36*
X177469Y352500D02*
X174000D01*
Y349031D01*
X174544Y349103D01*
X175517Y349506D01*
X176353Y350147D01*
X176994Y350983D01*
X177397Y351956D01*
X177469Y352500D01*
D02*
G37*
G36*
X173000Y356969D02*
X172456Y356897D01*
X171483Y356494D01*
X170647Y355853D01*
X170006Y355017D01*
X169603Y354044D01*
X169531Y353500D01*
X173000D01*
Y356969D01*
D02*
G37*
G36*
X14500Y355267D02*
Y352000D01*
X17767D01*
X17702Y352492D01*
X17319Y353416D01*
X16710Y354210D01*
X15916Y354819D01*
X14992Y355202D01*
X14500Y355267D01*
D02*
G37*
G36*
X173000Y352500D02*
X169531D01*
X169603Y351956D01*
X170006Y350983D01*
X170647Y350147D01*
X171483Y349506D01*
X172456Y349103D01*
X173000Y349031D01*
Y352500D01*
D02*
G37*
G36*
X17767Y351000D02*
X14500D01*
Y347733D01*
X14992Y347798D01*
X15916Y348181D01*
X16710Y348790D01*
X17319Y349584D01*
X17702Y350508D01*
X17767Y351000D01*
D02*
G37*
G36*
X13500D02*
X10233D01*
X10298Y350508D01*
X10681Y349584D01*
X11290Y348790D01*
X12084Y348181D01*
X13008Y347798D01*
X13500Y347733D01*
Y351000D01*
D02*
G37*
G36*
X144500Y349624D02*
Y348000D01*
X146124D01*
X146054Y348351D01*
X145572Y349073D01*
X144851Y349555D01*
X144500Y349624D01*
D02*
G37*
G36*
X143500D02*
X143149Y349555D01*
X142428Y349073D01*
X141946Y348351D01*
X141876Y348000D01*
X143500D01*
Y349624D01*
D02*
G37*
G36*
X14500Y301833D02*
X13508Y301702D01*
X12584Y301319D01*
X11790Y300710D01*
X11181Y299916D01*
X10798Y298992D01*
X10667Y298000D01*
X10798Y297008D01*
X11181Y296084D01*
X11790Y295290D01*
X12584Y294681D01*
X13508Y294298D01*
X14500Y294167D01*
X15492Y294298D01*
X16416Y294681D01*
X17210Y295290D01*
X17819Y296084D01*
X18202Y297008D01*
X18333Y298000D01*
X18202Y298992D01*
X17819Y299916D01*
X17210Y300710D01*
X16416Y301319D01*
X15492Y301702D01*
X14500Y301833D01*
D02*
G37*
G36*
X24500Y291833D02*
X23508Y291702D01*
X22584Y291319D01*
X21790Y290710D01*
X21181Y289916D01*
X20798Y288992D01*
X20667Y288000D01*
X20798Y287008D01*
X21181Y286084D01*
X21790Y285290D01*
X22584Y284681D01*
X23508Y284298D01*
X24500Y284167D01*
X25492Y284298D01*
X26416Y284681D01*
X27210Y285290D01*
X27819Y286084D01*
X28202Y287008D01*
X28333Y288000D01*
X28202Y288992D01*
X27819Y289916D01*
X27210Y290710D01*
X26416Y291319D01*
X25492Y291702D01*
X24500Y291833D01*
D02*
G37*
G36*
X28267Y297500D02*
X25000D01*
Y294233D01*
X25492Y294298D01*
X26416Y294681D01*
X27210Y295290D01*
X27819Y296084D01*
X28202Y297008D01*
X28267Y297500D01*
D02*
G37*
G36*
X24000D02*
X20733D01*
X20798Y297008D01*
X21181Y296084D01*
X21790Y295290D01*
X22584Y294681D01*
X23508Y294298D01*
X24000Y294233D01*
Y297500D01*
D02*
G37*
G36*
X14500Y291833D02*
X13508Y291702D01*
X12584Y291319D01*
X11790Y290710D01*
X11181Y289916D01*
X10798Y288992D01*
X10667Y288000D01*
X10798Y287008D01*
X11181Y286084D01*
X11790Y285290D01*
X12584Y284681D01*
X13508Y284298D01*
X14500Y284167D01*
X15492Y284298D01*
X16416Y284681D01*
X17210Y285290D01*
X17819Y286084D01*
X18202Y287008D01*
X18333Y288000D01*
X18202Y288992D01*
X17819Y289916D01*
X17210Y290710D01*
X16416Y291319D01*
X15492Y291702D01*
X14500Y291833D01*
D02*
G37*
G36*
Y281833D02*
X13508Y281702D01*
X12584Y281319D01*
X11790Y280710D01*
X11181Y279916D01*
X10798Y278992D01*
X10667Y278000D01*
X10798Y277008D01*
X11181Y276084D01*
X11790Y275290D01*
X12584Y274681D01*
X13508Y274298D01*
X14500Y274167D01*
X15492Y274298D01*
X16416Y274681D01*
X17210Y275290D01*
X17819Y276084D01*
X18202Y277008D01*
X18333Y278000D01*
X18202Y278992D01*
X17819Y279916D01*
X17210Y280710D01*
X16416Y281319D01*
X15492Y281702D01*
X14500Y281833D01*
D02*
G37*
G36*
X218000Y279969D02*
Y273500D01*
X221534D01*
Y276000D01*
X221397Y277044D01*
X220994Y278017D01*
X220353Y278853D01*
X219517Y279494D01*
X218544Y279897D01*
X218000Y279969D01*
D02*
G37*
G36*
X86000Y284724D02*
X85149Y284555D01*
X84427Y284072D01*
X83946Y283351D01*
X83776Y282500D01*
X83863Y282062D01*
X83438Y281637D01*
X83000Y281724D01*
X82149Y281555D01*
X81428Y281072D01*
X80945Y280351D01*
X80868Y279962D01*
X80315Y279745D01*
X79851Y280055D01*
X79000Y280224D01*
X78149Y280055D01*
X77428Y279573D01*
X76946Y278851D01*
X76776Y278000D01*
X76843Y277665D01*
X76769Y277571D01*
X76461Y277216D01*
X76461D01*
X76461Y277216D01*
X75649Y277055D01*
X74928Y276572D01*
X74445Y275851D01*
X74276Y275000D01*
X74445Y274149D01*
X74928Y273428D01*
X75649Y272945D01*
X76500Y272776D01*
X76551Y272786D01*
X76854Y272483D01*
X77351Y272151D01*
X77936Y272035D01*
X119450D01*
X119781Y271813D01*
X120632Y271644D01*
X121483Y271813D01*
X122205Y272295D01*
X122687Y273017D01*
X122856Y273868D01*
X122687Y274719D01*
X122205Y275440D01*
X121483Y275922D01*
X120946Y276029D01*
X120479Y276245D01*
X120309Y277096D01*
X119827Y277818D01*
X119106Y278300D01*
X118568Y278407D01*
X118101Y278623D01*
X117932Y279474D01*
X117450Y280195D01*
X116728Y280677D01*
X116191Y280784D01*
X115724Y281000D01*
X115555Y281851D01*
X115073Y282573D01*
X114351Y283055D01*
X113500Y283224D01*
X112649Y283055D01*
X111927Y282573D01*
X111899Y282529D01*
X88218D01*
X88055Y283351D01*
X87572Y284072D01*
X86851Y284555D01*
X86000Y284724D01*
D02*
G37*
G36*
X24500Y281833D02*
X23508Y281702D01*
X22584Y281319D01*
X21790Y280710D01*
X21181Y279916D01*
X20798Y278992D01*
X20667Y278000D01*
X20798Y277008D01*
X21181Y276084D01*
X21790Y275290D01*
X22584Y274681D01*
X23508Y274298D01*
X24500Y274167D01*
X25492Y274298D01*
X26416Y274681D01*
X27210Y275290D01*
X27819Y276084D01*
X28202Y277008D01*
X28333Y278000D01*
X28202Y278992D01*
X27819Y279916D01*
X27210Y280710D01*
X26416Y281319D01*
X25492Y281702D01*
X24500Y281833D01*
D02*
G37*
G36*
X24000Y301767D02*
X23508Y301702D01*
X22584Y301319D01*
X21790Y300710D01*
X21181Y299916D01*
X20798Y298992D01*
X20733Y298500D01*
X24000D01*
Y301767D01*
D02*
G37*
G36*
X25000Y311767D02*
Y308500D01*
X28267D01*
X28202Y308992D01*
X27819Y309916D01*
X27210Y310710D01*
X26416Y311319D01*
X25492Y311702D01*
X25000Y311767D01*
D02*
G37*
G36*
X24000D02*
X23508Y311702D01*
X22584Y311319D01*
X21790Y310710D01*
X21181Y309916D01*
X20798Y308992D01*
X20733Y308500D01*
X24000D01*
Y311767D01*
D02*
G37*
G36*
X62000Y326724D02*
X61149Y326555D01*
X60427Y326073D01*
X60399Y326029D01*
X58500D01*
X57915Y325913D01*
X57419Y325581D01*
X52919Y321081D01*
X52587Y320585D01*
X52471Y320000D01*
Y235134D01*
X50051Y232714D01*
X50000Y232724D01*
X49149Y232555D01*
X48428Y232072D01*
X47945Y231351D01*
X47776Y230500D01*
X47945Y229649D01*
X48428Y228927D01*
X49149Y228445D01*
X50000Y228276D01*
X50851Y228445D01*
X51573Y228927D01*
X52055Y229649D01*
X52224Y230500D01*
X52214Y230551D01*
X55081Y233419D01*
X55413Y233915D01*
X55432Y234012D01*
X55529Y234500D01*
Y319367D01*
X59133Y322971D01*
X60399D01*
X60427Y322927D01*
X61149Y322445D01*
X62000Y322276D01*
X62102Y322296D01*
X62415Y322087D01*
X63000Y321971D01*
X189399D01*
X189427Y321927D01*
X190149Y321445D01*
X191000Y321276D01*
X191851Y321445D01*
X192572Y321927D01*
X193054Y322649D01*
X193224Y323500D01*
X193054Y324351D01*
X192572Y325073D01*
X191851Y325555D01*
X191000Y325724D01*
X190149Y325555D01*
X189427Y325073D01*
X189399Y325029D01*
X64118D01*
X64055Y325351D01*
X63573Y326073D01*
X62851Y326555D01*
X62000Y326724D01*
D02*
G37*
G36*
X202000Y318294D02*
X78000D01*
X77122Y318120D01*
X76378Y317622D01*
X75881Y316878D01*
X75706Y316000D01*
X75881Y315122D01*
X76378Y314378D01*
X77122Y313880D01*
X78000Y313706D01*
X201135D01*
X201622Y313381D01*
X202500Y313206D01*
X203378Y313381D01*
X204122Y313878D01*
X204620Y314622D01*
X204794Y315500D01*
X204620Y316378D01*
X204122Y317122D01*
X203622Y317622D01*
X202878Y318120D01*
X202000Y318294D01*
D02*
G37*
G36*
X28267Y307500D02*
X25000D01*
Y304233D01*
X25492Y304298D01*
X26416Y304681D01*
X27210Y305290D01*
X27819Y306084D01*
X28202Y307008D01*
X28267Y307500D01*
D02*
G37*
G36*
X105000Y308724D02*
X104149Y308555D01*
X103428Y308072D01*
X102945Y307351D01*
X102776Y306500D01*
X102945Y305649D01*
X103428Y304927D01*
X104149Y304445D01*
X105000Y304276D01*
X105851Y304445D01*
X106572Y304927D01*
X106601Y304971D01*
X127065D01*
X127427Y304428D01*
X128149Y303945D01*
X129000Y303776D01*
X129851Y303945D01*
X130572Y304428D01*
X131054Y305149D01*
X131224Y306000D01*
X131054Y306851D01*
X130572Y307573D01*
X129851Y308055D01*
X129000Y308224D01*
X128149Y308055D01*
X128086Y308012D01*
X128000Y308029D01*
X106601D01*
X106572Y308072D01*
X105851Y308555D01*
X105000Y308724D01*
D02*
G37*
G36*
X25000Y301767D02*
Y298500D01*
X28267D01*
X28202Y298992D01*
X27819Y299916D01*
X27210Y300710D01*
X26416Y301319D01*
X25492Y301702D01*
X25000Y301767D01*
D02*
G37*
G36*
X24000Y307500D02*
X20733D01*
X20798Y307008D01*
X21181Y306084D01*
X21790Y305290D01*
X22584Y304681D01*
X23508Y304298D01*
X24000Y304233D01*
Y307500D01*
D02*
G37*
G36*
X14500Y311833D02*
X13508Y311702D01*
X12584Y311319D01*
X11790Y310710D01*
X11181Y309916D01*
X10798Y308992D01*
X10667Y308000D01*
X10798Y307008D01*
X11181Y306084D01*
X11790Y305290D01*
X12584Y304681D01*
X13508Y304298D01*
X14500Y304167D01*
X15492Y304298D01*
X16416Y304681D01*
X17210Y305290D01*
X17819Y306084D01*
X18202Y307008D01*
X18333Y308000D01*
X18202Y308992D01*
X17819Y309916D01*
X17210Y310710D01*
X16416Y311319D01*
X15492Y311702D01*
X14500Y311833D01*
D02*
G37*
G36*
X174000Y356969D02*
Y353500D01*
X177469D01*
X177397Y354044D01*
X176994Y355017D01*
X176353Y355853D01*
X175517Y356494D01*
X174544Y356897D01*
X174000Y356969D01*
D02*
G37*
G36*
X13500Y385267D02*
X13008Y385202D01*
X12084Y384819D01*
X11290Y384210D01*
X10681Y383416D01*
X10298Y382492D01*
X10233Y382000D01*
X13500D01*
Y385267D01*
D02*
G37*
G36*
X153000Y381469D02*
Y378000D01*
X156469D01*
X156397Y378544D01*
X155994Y379517D01*
X155353Y380353D01*
X154517Y380994D01*
X153544Y381397D01*
X153000Y381469D01*
D02*
G37*
G36*
X24000Y395333D02*
X23008Y395202D01*
X22084Y394819D01*
X21290Y394210D01*
X20681Y393416D01*
X20298Y392492D01*
X20167Y391500D01*
X20298Y390508D01*
X20681Y389584D01*
X21290Y388790D01*
X22084Y388181D01*
X23008Y387798D01*
X24000Y387667D01*
X24992Y387798D01*
X25916Y388181D01*
X26710Y388790D01*
X27319Y389584D01*
X27702Y390508D01*
X27833Y391500D01*
X27702Y392492D01*
X27319Y393416D01*
X26710Y394210D01*
X25916Y394819D01*
X24992Y395202D01*
X24000Y395333D01*
D02*
G37*
G36*
X14500Y385267D02*
Y382000D01*
X17767D01*
X17702Y382492D01*
X17319Y383416D01*
X16710Y384210D01*
X15916Y384819D01*
X14992Y385202D01*
X14500Y385267D01*
D02*
G37*
G36*
X152000Y381469D02*
X151456Y381397D01*
X150483Y380994D01*
X149647Y380353D01*
X149006Y379517D01*
X148603Y378544D01*
X148531Y378000D01*
X152000D01*
Y381469D01*
D02*
G37*
G36*
X24000Y385333D02*
X23008Y385202D01*
X22084Y384819D01*
X21290Y384210D01*
X20681Y383416D01*
X20298Y382492D01*
X20167Y381500D01*
X20298Y380508D01*
X20681Y379584D01*
X21290Y378790D01*
X22084Y378181D01*
X23008Y377798D01*
X24000Y377667D01*
X24992Y377798D01*
X25916Y378181D01*
X26710Y378790D01*
X27319Y379584D01*
X27702Y380508D01*
X27833Y381500D01*
X27702Y382492D01*
X27319Y383416D01*
X26710Y384210D01*
X25916Y384819D01*
X24992Y385202D01*
X24000Y385333D01*
D02*
G37*
G36*
X95000Y376124D02*
Y374500D01*
X96624D01*
X96554Y374851D01*
X96073Y375572D01*
X95351Y376055D01*
X95000Y376124D01*
D02*
G37*
G36*
X17767Y381000D02*
X14500D01*
Y377733D01*
X14992Y377798D01*
X15916Y378181D01*
X16710Y378790D01*
X17319Y379584D01*
X17702Y380508D01*
X17767Y381000D01*
D02*
G37*
G36*
X13500D02*
X10233D01*
X10298Y380508D01*
X10681Y379584D01*
X11290Y378790D01*
X12084Y378181D01*
X13008Y377798D01*
X13500Y377733D01*
Y381000D01*
D02*
G37*
G36*
Y391000D02*
X10233D01*
X10298Y390508D01*
X10681Y389584D01*
X11290Y388790D01*
X12084Y388181D01*
X13008Y387798D01*
X13500Y387733D01*
Y391000D01*
D02*
G37*
G36*
X35624Y392500D02*
X34000D01*
Y390876D01*
X34351Y390945D01*
X35072Y391427D01*
X35555Y392149D01*
X35624Y392500D01*
D02*
G37*
G36*
X33000D02*
X31376D01*
X31445Y392149D01*
X31927Y391427D01*
X32649Y390945D01*
X33000Y390876D01*
Y392500D01*
D02*
G37*
G36*
X14500Y395267D02*
Y392000D01*
X17767D01*
X17702Y392492D01*
X17319Y393416D01*
X16710Y394210D01*
X15916Y394819D01*
X14992Y395202D01*
X14500Y395267D01*
D02*
G37*
G36*
X13500D02*
X13008Y395202D01*
X12084Y394819D01*
X11290Y394210D01*
X10681Y393416D01*
X10298Y392492D01*
X10233Y392000D01*
X13500D01*
Y395267D01*
D02*
G37*
G36*
X113500Y392124D02*
Y390500D01*
X115124D01*
X115055Y390851D01*
X114573Y391572D01*
X113851Y392055D01*
X113500Y392124D01*
D02*
G37*
G36*
X112500Y389500D02*
X110876D01*
X110945Y389149D01*
X111427Y388427D01*
X112149Y387945D01*
X112500Y387876D01*
Y389500D01*
D02*
G37*
G36*
X17767Y391000D02*
X14500D01*
Y387733D01*
X14992Y387798D01*
X15916Y388181D01*
X16710Y388790D01*
X17319Y389584D01*
X17702Y390508D01*
X17767Y391000D01*
D02*
G37*
G36*
X112500Y392124D02*
X112149Y392055D01*
X111427Y391572D01*
X110945Y390851D01*
X110876Y390500D01*
X112500D01*
Y392124D01*
D02*
G37*
G36*
X115124Y389500D02*
X113500D01*
Y387876D01*
X113851Y387945D01*
X114573Y388427D01*
X115055Y389149D01*
X115124Y389500D01*
D02*
G37*
G36*
X94000Y376124D02*
X93649Y376055D01*
X92927Y375572D01*
X92445Y374851D01*
X92376Y374500D01*
X94000D01*
Y376124D01*
D02*
G37*
G36*
X24000Y445333D02*
X23008Y445202D01*
X22084Y444819D01*
X21290Y444210D01*
X20681Y443416D01*
X20298Y442492D01*
X20167Y441500D01*
X20298Y440508D01*
X20681Y439584D01*
X21290Y438790D01*
X22084Y438181D01*
X23008Y437798D01*
X24000Y437667D01*
X24992Y437798D01*
X25916Y438181D01*
X26710Y438790D01*
X27319Y439584D01*
X27480Y439971D01*
X36867D01*
X38471Y438367D01*
Y429601D01*
X38427Y429572D01*
X37945Y428851D01*
X37776Y428000D01*
X37945Y427149D01*
X38427Y426428D01*
X38471Y426399D01*
Y407218D01*
X37649Y407055D01*
X36928Y406572D01*
X36445Y405851D01*
X36276Y405000D01*
X36445Y404149D01*
X36928Y403428D01*
X36971Y403399D01*
Y380000D01*
X37087Y379415D01*
X37419Y378919D01*
X38919Y377419D01*
X39415Y377087D01*
X40000Y376971D01*
X57399D01*
X57428Y376927D01*
X58149Y376445D01*
X59000Y376276D01*
X59051Y376286D01*
X60471Y374867D01*
Y369601D01*
X60427Y369572D01*
X59945Y368851D01*
X59776Y368000D01*
X59945Y367149D01*
X60427Y366427D01*
X61149Y365945D01*
X62000Y365776D01*
X62851Y365945D01*
X63573Y366427D01*
X64055Y367149D01*
X64224Y368000D01*
X64055Y368851D01*
X63573Y369572D01*
X63529Y369601D01*
Y375500D01*
X63413Y376085D01*
X63081Y376581D01*
X61214Y378449D01*
X61224Y378500D01*
X61054Y379351D01*
X60572Y380072D01*
X59851Y380555D01*
X59000Y380724D01*
X58149Y380555D01*
X57428Y380072D01*
X57399Y380029D01*
X40633D01*
X40029Y380633D01*
Y403399D01*
X40073Y403428D01*
X40555Y404149D01*
X40724Y405000D01*
X40714Y405051D01*
X41081Y405419D01*
X41413Y405915D01*
X41529Y406500D01*
Y426399D01*
X41572Y426428D01*
X42055Y427149D01*
X42224Y428000D01*
X42055Y428851D01*
X41572Y429572D01*
X41529Y429601D01*
Y439000D01*
X41432Y439488D01*
X41413Y439585D01*
X41081Y440081D01*
X38581Y442581D01*
X38085Y442913D01*
X37500Y443029D01*
X27480D01*
X27319Y443416D01*
X26710Y444210D01*
X25916Y444819D01*
X24992Y445202D01*
X24000Y445333D01*
D02*
G37*
G36*
X14500Y365267D02*
Y362000D01*
X17767D01*
X17702Y362492D01*
X17319Y363416D01*
X16710Y364210D01*
X15916Y364819D01*
X14992Y365202D01*
X14500Y365267D01*
D02*
G37*
G36*
X13500Y371000D02*
X10233D01*
X10298Y370508D01*
X10681Y369584D01*
X11290Y368790D01*
X12084Y368181D01*
X13008Y367798D01*
X13500Y367733D01*
Y371000D01*
D02*
G37*
G36*
X24000Y375333D02*
X23008Y375202D01*
X22084Y374819D01*
X21290Y374210D01*
X20681Y373416D01*
X20298Y372492D01*
X20167Y371500D01*
X20298Y370508D01*
X20681Y369584D01*
X21290Y368790D01*
X22084Y368181D01*
X23008Y367798D01*
X24000Y367667D01*
X24992Y367798D01*
X25916Y368181D01*
X26710Y368790D01*
X27319Y369584D01*
X27702Y370508D01*
X27833Y371500D01*
X27702Y372492D01*
X27319Y373416D01*
X26710Y374210D01*
X25916Y374819D01*
X24992Y375202D01*
X24000Y375333D01*
D02*
G37*
G36*
X13500Y365267D02*
X13008Y365202D01*
X12084Y364819D01*
X11290Y364210D01*
X10681Y363416D01*
X10298Y362492D01*
X10233Y362000D01*
X13500D01*
Y365267D01*
D02*
G37*
G36*
X24000Y365333D02*
X23008Y365202D01*
X22084Y364819D01*
X21290Y364210D01*
X20681Y363416D01*
X20298Y362492D01*
X20167Y361500D01*
X20298Y360508D01*
X20681Y359584D01*
X21290Y358790D01*
X22084Y358181D01*
X23008Y357798D01*
X24000Y357667D01*
X24992Y357798D01*
X25916Y358181D01*
X26710Y358790D01*
X27319Y359584D01*
X27702Y360508D01*
X27833Y361500D01*
X27702Y362492D01*
X27319Y363416D01*
X26710Y364210D01*
X25916Y364819D01*
X24992Y365202D01*
X24000Y365333D01*
D02*
G37*
G36*
X164500Y363429D02*
X163612Y363313D01*
X162785Y362970D01*
X162075Y362425D01*
X161530Y361715D01*
X161188Y360888D01*
X161071Y360000D01*
X161188Y359113D01*
X161530Y358285D01*
X162075Y357575D01*
X162785Y357030D01*
X163612Y356688D01*
X164500Y356571D01*
X165387Y356688D01*
X166215Y357030D01*
X166925Y357575D01*
X167470Y358285D01*
X167812Y359113D01*
X167929Y360000D01*
X167812Y360888D01*
X167470Y361715D01*
X166925Y362425D01*
X166215Y362970D01*
X165387Y363313D01*
X164500Y363429D01*
D02*
G37*
G36*
X17767Y361000D02*
X14500D01*
Y357733D01*
X14992Y357798D01*
X15916Y358181D01*
X16710Y358790D01*
X17319Y359584D01*
X17702Y360508D01*
X17767Y361000D01*
D02*
G37*
G36*
X13500D02*
X10233D01*
X10298Y360508D01*
X10681Y359584D01*
X11290Y358790D01*
X12084Y358181D01*
X13008Y357798D01*
X13500Y357733D01*
Y361000D01*
D02*
G37*
G36*
X152000Y377000D02*
X148531D01*
X148603Y376456D01*
X149006Y375483D01*
X149647Y374647D01*
X150483Y374006D01*
X151456Y373603D01*
X152000Y373531D01*
Y377000D01*
D02*
G37*
G36*
X96624Y373500D02*
X95000D01*
Y371876D01*
X95351Y371945D01*
X96073Y372428D01*
X96554Y373149D01*
X96624Y373500D01*
D02*
G37*
G36*
X14500Y375267D02*
Y372000D01*
X17767D01*
X17702Y372492D01*
X17319Y373416D01*
X16710Y374210D01*
X15916Y374819D01*
X14992Y375202D01*
X14500Y375267D01*
D02*
G37*
G36*
X13500D02*
X13008Y375202D01*
X12084Y374819D01*
X11290Y374210D01*
X10681Y373416D01*
X10298Y372492D01*
X10233Y372000D01*
X13500D01*
Y375267D01*
D02*
G37*
G36*
X174000Y373724D02*
X173149Y373555D01*
X172427Y373073D01*
X171946Y372351D01*
X171776Y371500D01*
X171900Y370877D01*
X171602Y370471D01*
X171143Y370468D01*
X171072Y370572D01*
X170351Y371055D01*
X169500Y371224D01*
X168649Y371055D01*
X167928Y370572D01*
X167551Y370008D01*
X167047Y369829D01*
X166930Y369822D01*
X166794Y369913D01*
X166208Y370029D01*
X165101D01*
X165073Y370073D01*
X164351Y370555D01*
X163500Y370724D01*
X162649Y370555D01*
X161927Y370073D01*
X161445Y369351D01*
X161276Y368500D01*
X161445Y367649D01*
X161927Y366928D01*
X162649Y366445D01*
X163500Y366276D01*
X164351Y366445D01*
X165073Y366928D01*
X165101Y366971D01*
X165575D01*
X172127Y360419D01*
X172623Y360087D01*
X172720Y360068D01*
X173208Y359971D01*
X205399D01*
X205428Y359928D01*
X206149Y359445D01*
X207000Y359276D01*
X207851Y359445D01*
X208573Y359928D01*
X209055Y360649D01*
X209224Y361500D01*
X209055Y362351D01*
X208573Y363072D01*
X207851Y363555D01*
X207000Y363724D01*
X206149Y363555D01*
X205428Y363072D01*
X205399Y363029D01*
X199671D01*
X199435Y363470D01*
X199555Y363649D01*
X199724Y364500D01*
X199555Y365351D01*
X199073Y366073D01*
X198351Y366555D01*
X197500Y366724D01*
X197032Y366631D01*
X196364Y367299D01*
X196362Y367370D01*
X196607Y367564D01*
X196854Y367642D01*
X197149Y367445D01*
X198000Y367276D01*
X198851Y367445D01*
X199573Y367928D01*
X200055Y368649D01*
X200224Y369500D01*
X200055Y370351D01*
X199573Y371073D01*
X198851Y371555D01*
X198000Y371724D01*
X197949Y371714D01*
X197081Y372581D01*
X196585Y372913D01*
X196000Y373029D01*
X175601D01*
X175573Y373073D01*
X174851Y373555D01*
X174000Y373724D01*
D02*
G37*
G36*
X17767Y371000D02*
X14500D01*
Y367733D01*
X14992Y367798D01*
X15916Y368181D01*
X16710Y368790D01*
X17319Y369584D01*
X17702Y370508D01*
X17767Y371000D01*
D02*
G37*
G36*
X156469Y377000D02*
X153000D01*
Y373531D01*
X153544Y373603D01*
X154517Y374006D01*
X155353Y374647D01*
X155994Y375483D01*
X156397Y376456D01*
X156469Y377000D01*
D02*
G37*
G36*
X94000Y373500D02*
X92376D01*
X92445Y373149D01*
X92927Y372428D01*
X93649Y371945D01*
X94000Y371876D01*
Y373500D01*
D02*
G37*
%LPD*%
G36*
X195385Y363952D02*
X195446Y363649D01*
X195565Y363470D01*
X195329Y363029D01*
X173842D01*
X170389Y366482D01*
X170520Y367058D01*
X170866Y367289D01*
X192048D01*
X195385Y363952D01*
D02*
G37*
G36*
X132926Y262419D02*
X133031Y262348D01*
X132880Y261848D01*
X113202D01*
X112724Y262000D01*
X112555Y262851D01*
X112073Y263573D01*
X111477Y263971D01*
X111627Y264471D01*
X130874D01*
X132926Y262419D01*
D02*
G37*
G36*
X78149Y387445D02*
X79000Y387276D01*
X79507Y387377D01*
X79753Y386916D01*
X79419Y386581D01*
X79087Y386085D01*
X78971Y385500D01*
Y341634D01*
X77991Y340654D01*
X77529Y340846D01*
Y387329D01*
X77970Y387565D01*
X78149Y387445D01*
D02*
G37*
D10*
X175500Y210500D02*
X193500D01*
X173500D02*
X175500D01*
X186000Y184000D02*
X186500Y183500D01*
X178000Y184000D02*
X186000D01*
X177000Y183000D02*
X178000Y184000D01*
Y112000D02*
X178500Y112500D01*
X224500D01*
X200000Y172000D02*
Y207500D01*
X173000D02*
X191000D01*
X195000Y203500D01*
X196000Y204500D01*
X168000Y220500D02*
X170000D01*
X175500Y215000D01*
X164000Y216000D02*
X168000D01*
X173500Y210500D01*
X128500Y306000D02*
X129000D01*
X128000Y306500D02*
X128500Y306000D01*
X105000Y306500D02*
X128000D01*
X48000Y290000D02*
X50181Y292181D01*
Y297319D01*
X49500Y298000D02*
X50181Y297319D01*
X47025Y295475D02*
X47500Y295000D01*
X14500Y244500D02*
Y248000D01*
Y244500D02*
X16500Y242500D01*
X29000D01*
X34500Y248000D01*
Y253500D01*
X24500Y248000D02*
X25500D01*
X14500Y258000D02*
X19000Y253500D01*
X27500D01*
X24500Y258000D02*
X28500D01*
X36035Y265535D01*
Y325035D01*
X53000Y342000D01*
X63000D01*
X67319Y346319D01*
Y404016D01*
X70000Y345500D02*
Y458500D01*
X64500Y340000D02*
X70000Y345500D01*
X38893Y324100D02*
X54793Y340000D01*
X64500D01*
X38893Y264893D02*
Y324100D01*
X27500Y253500D02*
X38893Y264893D01*
X74000Y456500D02*
Y461500D01*
X72000Y454500D02*
X74000Y456500D01*
X72000Y344000D02*
Y454500D01*
X65525Y337525D02*
X72000Y344000D01*
X55146Y337525D02*
X65525D01*
X41368Y323747D02*
X55146Y337525D01*
X41368Y263868D02*
Y323747D01*
X25500Y248000D02*
X41368Y263868D01*
X76681Y462681D02*
X78500Y464500D01*
X76681Y455681D02*
Y462681D01*
X74000Y342500D02*
Y453000D01*
X76681Y455681D01*
X66550Y335050D02*
X74000Y342500D01*
X55500Y335050D02*
X66550D01*
X43843Y323393D02*
X55500Y335050D01*
X43843Y262843D02*
Y323393D01*
X34500Y253500D02*
X43843Y262843D01*
X83000Y459000D02*
Y466500D01*
X76000Y452000D02*
X83000Y459000D01*
X76000Y340000D02*
Y452000D01*
X67868Y331868D02*
X76000Y340000D01*
X94181Y472681D02*
X95500Y474000D01*
X94181Y467853D02*
Y472681D01*
X89681Y456845D02*
Y463353D01*
X94181Y467853D01*
X82500Y449664D02*
X89681Y456845D01*
X82500Y396292D02*
X84181Y394611D01*
X82500Y396292D02*
Y449664D01*
X84181Y389181D02*
Y394611D01*
X80500Y341000D02*
Y385500D01*
X84181Y389181D01*
X68893Y329393D02*
X80500Y341000D01*
X47025Y295475D02*
Y323747D01*
X55146Y331868D01*
X49500Y298000D02*
Y323393D01*
X55500Y329393D01*
X68893D01*
X55146Y331868D02*
X67868D01*
X87500Y281000D02*
X113500D01*
X86000Y282500D02*
X87500Y281000D01*
X76500Y275000D02*
X77936Y273564D01*
X120329D01*
X120632Y273868D01*
X79000Y278000D02*
X81059Y275941D01*
X117951D01*
X118255Y276245D01*
X83000Y279500D02*
X84181Y278319D01*
X115574D01*
X115877Y278623D01*
X716000Y9282D02*
X718718Y12000D01*
X626000Y-101000D02*
Y-99000D01*
X622000Y-101000D02*
Y-99000D01*
X626000Y-100000D02*
X632000Y-102000D01*
X626000Y-100000D02*
X632000Y-98000D01*
X616000Y-102000D02*
X622000Y-100000D01*
X616000Y-98000D02*
X622000Y-100000D01*
X626000D02*
X636000D01*
X612000D02*
X622000D01*
X293000Y106000D02*
X317000D01*
X287500Y111500D02*
X293000Y106000D01*
X597000Y33500D02*
X598500Y32000D01*
X597000Y33500D02*
Y41000D01*
X574000Y49800D02*
Y51000D01*
Y49800D02*
X582800Y41000D01*
X582900Y40900D01*
X288000Y97000D02*
X311500D01*
X280000Y105000D02*
X288000Y97000D01*
X286500Y86000D02*
X300000D01*
X275500Y97000D02*
X286500Y86000D01*
X553500Y158000D02*
Y186000D01*
X552500Y157000D02*
X553500Y158000D01*
X430000Y168500D02*
X433000Y165500D01*
X418500Y168500D02*
X430000D01*
X537000Y193500D02*
X541500Y198000D01*
Y200000D01*
X542157Y205000D02*
X546500Y200657D01*
X535000Y205000D02*
X542157D01*
X546500Y189000D02*
Y200657D01*
X537000Y156000D02*
Y193500D01*
X535500Y154500D02*
X537000Y156000D01*
X117500Y64500D02*
X195500D01*
X115500Y62500D02*
X117500Y64500D01*
X115500Y47500D02*
Y62500D01*
Y47500D02*
X119500Y43500D01*
X154000D01*
X165000Y136000D02*
X190500D01*
X192500Y134000D01*
X202000Y23000D02*
Y58000D01*
X199500Y20500D02*
X202000Y23000D01*
X166500Y20500D02*
X199500D01*
X164500Y22500D02*
X166500Y20500D01*
X126500Y233000D02*
X128000Y231500D01*
X21000Y179500D02*
X22000Y178500D01*
Y171500D02*
Y178500D01*
Y171500D02*
X23500Y170000D01*
X94500D01*
X104000Y160500D01*
Y159500D02*
Y160500D01*
X65500Y253000D02*
X123500D01*
X126500Y250000D01*
Y233000D02*
Y250000D01*
X128500Y160000D02*
X212500D01*
X214500Y158000D01*
X208000Y87000D02*
X208500Y86500D01*
X113000Y72500D02*
X207500D01*
X221000Y86000D01*
X206500Y131500D02*
X260500D01*
X199000Y124000D02*
X206500Y131500D01*
X78000Y124000D02*
X199000D01*
X77000Y125000D02*
X78000Y124000D01*
X77500Y56500D02*
X83500Y62500D01*
Y71500D01*
X84500Y72500D01*
X20000Y472000D02*
X52500D01*
X19500Y471500D02*
X20000Y472000D01*
X85681Y466181D02*
X87500Y468000D01*
X85681Y458681D02*
Y466181D01*
X78336Y451336D02*
X85681Y458681D01*
X78336Y390164D02*
Y451336D01*
Y390164D02*
X79000Y389500D01*
X91500Y468000D02*
Y471000D01*
X87681Y464181D02*
X91500Y468000D01*
X87681Y457853D02*
Y464181D01*
X80336Y450507D02*
X87681Y457853D01*
X80336Y394664D02*
Y450507D01*
Y394664D02*
X81500Y393500D01*
X98181Y473681D02*
X100500Y476000D01*
X98181Y469000D02*
Y473681D01*
X91681Y462500D02*
X98181Y469000D01*
X91681Y455681D02*
Y462500D01*
X84500Y448500D02*
X91681Y455681D01*
X84500Y397120D02*
Y448500D01*
Y397120D02*
X86181Y395439D01*
Y387181D02*
Y395439D01*
X83500Y384500D02*
X86181Y387181D01*
X105000Y472819D02*
Y478000D01*
X94426Y462245D02*
X105000Y472819D01*
X94426Y455426D02*
Y462245D01*
X86500Y447500D02*
X94426Y455426D01*
X143500Y459000D02*
Y481500D01*
X142000Y457500D02*
X143500Y459000D01*
X140500Y461500D02*
Y479500D01*
X139500Y480500D02*
X140500Y479500D01*
X128800Y489300D02*
X133000Y493500D01*
X128800Y479300D02*
Y489300D01*
X129000Y479100D02*
X131000Y477100D01*
Y463000D02*
Y477100D01*
X127000Y462500D02*
Y478000D01*
X125517Y479483D02*
X127000Y478000D01*
X122836Y484836D02*
X123000Y485000D01*
X122836Y465664D02*
Y484836D01*
Y465664D02*
X123500Y465000D01*
X164000Y466500D02*
Y482000D01*
X165500Y483500D01*
X176000D01*
X170000Y462500D02*
Y478000D01*
X170500Y478500D01*
X181000D01*
X186000Y483500D01*
X182500Y409000D02*
X198500D01*
X180000Y406500D02*
X182500Y409000D01*
X174000Y371500D02*
X196000D01*
X198000Y369500D01*
X169500Y369000D02*
X169681Y368819D01*
X192681D01*
X197000Y364500D01*
X197500D01*
X86500Y441500D02*
Y447500D01*
Y441500D02*
X88000Y440000D01*
X79000Y183000D02*
X81500Y180500D01*
X90500D01*
X68000Y262000D02*
X110500D01*
X67500Y262500D02*
X68000Y262000D01*
X134836Y265500D02*
X138564D01*
X132336Y268000D02*
X134836Y265500D01*
X98500Y268000D02*
X132336D01*
X150000Y263000D02*
Y263429D01*
X147748Y265681D02*
X150000Y263429D01*
X138745Y265681D02*
X147748D01*
X138564Y265500D02*
X138745Y265681D01*
X175500Y215000D02*
X193500D01*
X610000Y212500D02*
X616000Y206500D01*
X98181Y268319D02*
X98500Y268000D01*
X98181Y268319D02*
Y268681D01*
X146138Y263500D02*
X146638Y263000D01*
X134008Y263500D02*
X146138D01*
X93500Y266000D02*
X131508D01*
X134008Y263500D01*
X579000Y165500D02*
Y209000D01*
X66000Y119000D02*
X203000D01*
X206500Y122500D01*
X86500Y414000D02*
X88000Y412500D01*
X86500Y414000D02*
Y434000D01*
X91000Y438500D01*
Y449172D01*
X96755Y454926D01*
Y461745D01*
X107681Y472672D01*
Y479110D01*
X104500Y482292D02*
X107681Y479110D01*
X91500Y268000D02*
X93500Y266000D01*
X182319Y260319D02*
X188000Y266000D01*
X112181Y260319D02*
X182319D01*
X110500Y262000D02*
X112181Y260319D01*
X84000Y368500D02*
X142500D01*
X83500Y368000D02*
X84000Y368500D01*
X89000Y361500D02*
X125000D01*
X86000Y364500D02*
X86500D01*
X129000Y348500D02*
X146500Y366000D01*
X125500Y348000D02*
Y348500D01*
X129000D01*
X49000Y264500D02*
Y284000D01*
X37500Y253000D02*
X49000Y264500D01*
X37500Y246500D02*
Y253000D01*
X28400Y237400D02*
X37500Y246500D01*
X28400Y224300D02*
Y237400D01*
X86000Y364500D02*
X89000Y361500D01*
X130681Y459819D02*
X138500Y452000D01*
X124890Y459819D02*
X130681D01*
X119500Y465208D02*
X124890Y459819D01*
X119500Y465208D02*
Y479500D01*
X104500Y482292D02*
Y484500D01*
X65500Y457792D02*
X67500Y455792D01*
Y418000D02*
Y455792D01*
X64500Y415000D02*
X67500Y418000D01*
X61000Y415000D02*
X64500D01*
X173208Y361500D02*
X207000D01*
X166208Y368500D02*
X173208Y361500D01*
X163500Y368500D02*
X166208D01*
X150000Y439000D02*
X211000D01*
X63000Y323500D02*
X191000D01*
X62000Y324500D02*
X63000Y323500D01*
X62000Y368000D02*
Y375500D01*
X59000Y378500D02*
X62000Y375500D01*
X38500Y380000D02*
Y405000D01*
Y380000D02*
X40000Y378500D01*
X59000D01*
X40000Y406500D02*
Y428000D01*
X38500Y405000D02*
X40000Y406500D01*
X24000Y441500D02*
X37500D01*
X40000Y439000D01*
Y428000D02*
Y439000D01*
X191000Y488500D02*
X196000Y483500D01*
X136500Y488500D02*
X191000D01*
X133000Y485000D02*
X136500Y488500D01*
X58500Y324500D02*
X62000D01*
X54000Y320000D02*
X58500Y324500D01*
X54000Y234500D02*
Y320000D01*
X50000Y230500D02*
X54000Y234500D01*
X196000Y483500D02*
X203500Y476000D01*
X216000D01*
D11*
X126500Y55000D02*
X182000D01*
X189000Y48000D01*
X388500Y93000D02*
X416118Y65382D01*
Y13000D02*
Y65382D01*
X443000Y143000D02*
X545000Y41000D01*
X597000D02*
X631500D01*
X545000D02*
X582800D01*
X597000D01*
D12*
X189000Y29000D02*
Y48000D01*
D13*
X582900Y4900D02*
Y40900D01*
X631500Y25000D02*
Y41000D01*
D14*
X65500Y88500D02*
X116500D01*
X124000Y81000D01*
X203000D01*
X208500Y86500D01*
X210500Y409500D02*
X211000Y410000D01*
Y439000D01*
Y453000D01*
X78000Y316000D02*
X202000D01*
X202500Y315500D01*
X41500Y136000D02*
X53500Y148000D01*
X214500D01*
X225500Y159000D01*
Y176000D01*
X222000Y179500D02*
X225500Y176000D01*
X209500Y179500D02*
X222000D01*
X205500Y183500D02*
X209500Y179500D01*
X205500Y183500D02*
Y227500D01*
X41500Y69500D02*
Y136000D01*
X37000Y65000D02*
X41500Y69500D01*
X17000Y65000D02*
X37000D01*
X14000Y68000D02*
X17000Y65000D01*
X220500Y415500D02*
Y428000D01*
X221000Y429000D02*
X221500D01*
X220500Y428000D02*
X221500Y429000D01*
X268500Y154500D02*
Y217500D01*
X265000Y151000D02*
X268500Y154500D01*
D15*
X597408Y-114396D02*
X599408D01*
X598408D01*
Y-108398D01*
X597408Y-109398D01*
X602407Y-114396D02*
Y-113396D01*
X603406D01*
Y-114396D01*
X602407D01*
X607405Y-109398D02*
X608405Y-108398D01*
X610404D01*
X611404Y-109398D01*
Y-113396D01*
X610404Y-114396D01*
X608405D01*
X607405Y-113396D01*
Y-109398D01*
X613403Y-114396D02*
X615403D01*
X614403D01*
Y-108398D01*
X613403Y-109398D01*
X622400Y-108398D02*
X620401Y-109398D01*
X618402Y-111397D01*
Y-113396D01*
X619401Y-114396D01*
X621401D01*
X622400Y-113396D01*
Y-112397D01*
X621401Y-111397D01*
X618402D01*
X632397Y-114396D02*
X630398Y-112397D01*
Y-110397D01*
X632397Y-108398D01*
X635396Y-114396D02*
Y-110397D01*
X636396D01*
X637395Y-111397D01*
Y-114396D01*
Y-111397D01*
X638395Y-110397D01*
X639395Y-111397D01*
Y-114396D01*
X641394D02*
Y-110397D01*
X642394D01*
X643394Y-111397D01*
Y-114396D01*
Y-111397D01*
X644393Y-110397D01*
X645393Y-111397D01*
Y-114396D01*
X647392D02*
X649392Y-112397D01*
Y-110397D01*
X647392Y-108398D01*
D16*
X90579Y16000D02*
D03*
X109000D02*
D03*
X707421Y60500D02*
D03*
X689000D02*
D03*
X446421Y55500D02*
D03*
X428000D02*
D03*
X490421Y15500D02*
D03*
X472000D02*
D03*
X14000Y351500D02*
D03*
X24000D02*
D03*
X14000Y361500D02*
D03*
X24000D02*
D03*
X14000Y371500D02*
D03*
X24000D02*
D03*
X14000Y381500D02*
D03*
X24000D02*
D03*
X14000Y391500D02*
D03*
X24000D02*
D03*
X14000Y401500D02*
D03*
X24000D02*
D03*
X14000Y411500D02*
D03*
X24000D02*
D03*
X14000Y421500D02*
D03*
X24000D02*
D03*
X14000Y431500D02*
D03*
X24000D02*
D03*
X14000Y441500D02*
D03*
X24000D02*
D03*
X14500Y248000D02*
D03*
X24500D02*
D03*
X14500Y258000D02*
D03*
X24500D02*
D03*
X14500Y268000D02*
D03*
X24500D02*
D03*
X14500Y278000D02*
D03*
X24500D02*
D03*
X14500Y288000D02*
D03*
X24500D02*
D03*
X14500Y298000D02*
D03*
X24500D02*
D03*
X14500Y308000D02*
D03*
X24500D02*
D03*
D17*
X189000Y29000D02*
D03*
X179000D02*
D03*
X30000Y179500D02*
D03*
X20000D02*
D03*
X10000D02*
D03*
X30000Y119000D02*
D03*
X20000D02*
D03*
X10000D02*
D03*
X631500Y25000D02*
D03*
X621500D02*
D03*
D18*
X225500Y69500D02*
D03*
X348500Y93000D02*
D03*
X689000Y157500D02*
D03*
X827500Y64500D02*
D03*
D19*
X265500Y69500D02*
D03*
X388500Y93000D02*
D03*
X729000Y157500D02*
D03*
X787500Y64500D02*
D03*
D20*
X550000Y142000D02*
D03*
X442000D02*
D03*
D21*
X610764Y8400D02*
D03*
X620782D02*
D03*
X630582D02*
D03*
X169382Y9900D02*
D03*
X179400D02*
D03*
X189200D02*
D03*
X572882Y8400D02*
D03*
X582900D02*
D03*
X592700D02*
D03*
D22*
X14000Y68000D02*
D03*
Y78000D02*
D03*
Y88000D02*
D03*
D23*
X136700Y273000D02*
D03*
X217500D02*
D03*
X10500Y160000D02*
D03*
X20500D02*
D03*
X30500D02*
D03*
X10500Y140000D02*
D03*
X20500D02*
D03*
X30500D02*
D03*
X28400Y198700D02*
D03*
X10600D02*
D03*
X28400Y224300D02*
D03*
X10600D02*
D03*
D24*
X749118Y12000D02*
D03*
X718718D02*
D03*
X688700Y11500D02*
D03*
X658200Y11000D02*
D03*
X416118Y13000D02*
D03*
X385718D02*
D03*
X355700Y12500D02*
D03*
X325200Y12000D02*
D03*
D25*
X164500Y360000D02*
D03*
Y350000D02*
D03*
D26*
X631000Y116500D02*
D03*
D27*
X601500D02*
D03*
D28*
X451500Y12000D02*
D03*
X441500D02*
D03*
X305500Y12500D02*
D03*
X295500D02*
D03*
D29*
X138000Y228500D02*
D03*
X49000Y209500D02*
D03*
X152500Y377500D02*
D03*
X156500Y340000D02*
D03*
X173500Y353000D02*
D03*
D30*
X151000Y110500D02*
D03*
Y100500D02*
D03*
Y90500D02*
D03*
D31*
X176000Y493500D02*
D03*
Y483500D02*
D03*
X186000Y493500D02*
D03*
Y483500D02*
D03*
X196000Y493500D02*
D03*
Y483500D02*
D03*
X113000Y495000D02*
D03*
Y485000D02*
D03*
X123000Y495000D02*
D03*
Y485000D02*
D03*
X133000Y495000D02*
D03*
Y485000D02*
D03*
D32*
X46000Y37500D02*
D03*
D33*
X66000D02*
D03*
D34*
X175500Y210500D02*
D03*
X186500Y183500D02*
D03*
X177000Y183000D02*
D03*
X178000Y112000D02*
D03*
X224500Y112500D02*
D03*
X200000Y172000D02*
D03*
Y207500D02*
D03*
X173000D02*
D03*
X196000Y204500D02*
D03*
X168000Y220500D02*
D03*
X164000Y216000D02*
D03*
X129000Y306000D02*
D03*
X105000Y306500D02*
D03*
X48000Y290000D02*
D03*
X47500Y295000D02*
D03*
X67319Y404016D02*
D03*
X70000Y458500D02*
D03*
X74000Y461500D02*
D03*
X78500Y464500D02*
D03*
X83000Y466500D02*
D03*
X95500Y474000D02*
D03*
X113500Y281000D02*
D03*
X76500Y275000D02*
D03*
X79000Y278000D02*
D03*
X83000Y279500D02*
D03*
X86000Y282500D02*
D03*
X52500Y472000D02*
D03*
X19500Y471500D02*
D03*
X87500Y468000D02*
D03*
X79000Y389500D02*
D03*
X91500Y471000D02*
D03*
X81500Y393500D02*
D03*
X170000Y462500D02*
D03*
X100500Y476000D02*
D03*
X83500Y384500D02*
D03*
X105000Y478000D02*
D03*
X143500Y481500D02*
D03*
X142000Y457500D02*
D03*
X140500Y461500D02*
D03*
X139500Y480500D02*
D03*
X123500Y465000D02*
D03*
X131000Y463000D02*
D03*
X127000Y462500D02*
D03*
X125517Y479483D02*
D03*
X164000Y466500D02*
D03*
X198500Y409000D02*
D03*
X180000Y406500D02*
D03*
X174000Y371500D02*
D03*
X198000Y369500D02*
D03*
X169500Y369000D02*
D03*
X197500Y364500D02*
D03*
X88000Y440000D02*
D03*
X115877Y278623D02*
D03*
X118255Y276245D02*
D03*
X120632Y273868D02*
D03*
X110500Y262000D02*
D03*
X67500Y262500D02*
D03*
X150000Y263000D02*
D03*
X193500Y215000D02*
D03*
X98181Y268681D02*
D03*
X146638Y263000D02*
D03*
X193500Y210500D02*
D03*
X88000Y412500D02*
D03*
X91500Y268000D02*
D03*
X188000Y266000D02*
D03*
X142500Y368500D02*
D03*
X83500Y368000D02*
D03*
X125000Y361500D02*
D03*
X86500Y364500D02*
D03*
X146500Y366000D02*
D03*
X125500Y348000D02*
D03*
X49000Y284000D02*
D03*
X138500Y452000D02*
D03*
X119500Y479500D02*
D03*
X104500Y484500D02*
D03*
X65500Y457792D02*
D03*
X61000Y415000D02*
D03*
X265000Y151000D02*
D03*
X207000Y361500D02*
D03*
X163500Y368500D02*
D03*
X150000Y439000D02*
D03*
X191000Y323500D02*
D03*
X62000Y324500D02*
D03*
Y368000D02*
D03*
X59000Y378500D02*
D03*
X38500Y405000D02*
D03*
X40000Y428000D02*
D03*
X78000Y316000D02*
D03*
X202500Y315500D02*
D03*
X205500Y227500D02*
D03*
X50000Y230500D02*
D03*
X220500Y415500D02*
D03*
X221500Y429000D02*
D03*
X144000Y347500D02*
D03*
X130000Y346000D02*
D03*
X109000Y411500D02*
D03*
X116500Y412000D02*
D03*
X95500Y430500D02*
D03*
X99500Y431500D02*
D03*
X96500Y435000D02*
D03*
X187000Y449000D02*
D03*
Y452500D02*
D03*
Y456000D02*
D03*
X150000Y450000D02*
D03*
X146000D02*
D03*
X94500Y374000D02*
D03*
X62000Y436000D02*
D03*
X62500Y432500D02*
D03*
X62000Y429000D02*
D03*
X113000Y390000D02*
D03*
X33500Y393000D02*
D03*
X659000Y68500D02*
D03*
X655500D02*
D03*
X216000Y476000D02*
D03*
D35*
X126500Y55000D02*
D03*
X317000Y106000D02*
D03*
X287500Y111500D02*
D03*
X598500Y32000D02*
D03*
X574000Y51000D02*
D03*
X535500Y154500D02*
D03*
X311500Y97000D02*
D03*
X280000Y105000D02*
D03*
X300000Y86000D02*
D03*
X275500Y97000D02*
D03*
X553500Y186000D02*
D03*
X552500Y157000D02*
D03*
X433000Y165500D02*
D03*
X418500Y168500D02*
D03*
X546500Y189000D02*
D03*
X535000Y205000D02*
D03*
X541500Y200000D02*
D03*
X195500Y64500D02*
D03*
X154000Y43500D02*
D03*
X165000Y136000D02*
D03*
X192500Y134000D02*
D03*
X202000Y58000D02*
D03*
X164500Y22500D02*
D03*
X128000Y231500D02*
D03*
X104000Y159500D02*
D03*
X65500Y253000D02*
D03*
X128500Y160000D02*
D03*
X214500Y158000D02*
D03*
X65500Y88500D02*
D03*
X208000Y87000D02*
D03*
X113000Y72500D02*
D03*
X221000Y86000D02*
D03*
X260500Y131500D02*
D03*
X77000Y125000D02*
D03*
X77500Y56500D02*
D03*
X84500Y72500D02*
D03*
X79000Y183000D02*
D03*
X90500Y180500D02*
D03*
X610000Y212500D02*
D03*
X616000Y206500D02*
D03*
X579000Y165500D02*
D03*
Y209000D02*
D03*
X66000Y119000D02*
D03*
X206500Y122500D02*
D03*
X160000Y230000D02*
D03*
D36*
X211000Y453000D02*
D03*
X210500Y409500D02*
D03*
X268500Y217500D02*
D03*
D37*
X856000Y211000D02*
D03*
Y11500D02*
D03*
X12000Y12000D02*
D03*
X220500Y230500D02*
D03*
X12000Y490500D02*
D03*
X221500D02*
D03*
D38*
X138000Y409500D02*
D03*
M02*
