M48
;Layer_Color=9474304
;FILE_FORMAT=2:5
INCH,TZ
;TYPE=PLATED
T1F00S00C0.01181
T2F00S00C0.02362
T3F00S00C0.02800
T4F00S00C0.03000
T5F00S00C0.03200
T6F00S00C0.03598
T7F00S00C0.03600
T8F00S00C0.04000
T9F00S00C0.05000
T10F00S00C0.05200
T11F00S00C0.05600
T12F00S00C0.07874
T13F00S00C0.07900
%
T01
X655500Y68500
X659000
X265000Y151000
X224500Y112500
X178000Y112000
X177000Y183000
X186500Y183500
X200000Y172000
Y207500
X196000Y204500
X193500Y210500
X175500
X173000Y207500
X50000Y230500
X49000Y284000
X48000Y290000
X47500Y295000
X62000Y324500
X78000Y316000
X105000Y306500
X129000Y306000
X113500Y281000
X115877Y278623
X118255Y276245
X120632Y273868
X110500Y262000
X98181Y268681
X91500Y268000
X83000Y279500
X79000Y278000
X76500Y275000
X86000Y282500
X67500Y262500
X146638Y263000
X150000
X188000Y266000
X205500Y227500
X193500Y215000
X164000Y216000
X168000Y220500
X191000Y323500
X202500Y315500
X207000Y361500
X197500Y364500
X163500Y368500
X146500Y366000
X142500Y368500
X144000Y347500
X130000Y346000
X125500Y348000
X125000Y361500
X86500Y364500
X83500Y368000
X62000
X220500Y415500
X221500Y429000
X216000Y476000
X187000Y456000
Y452500
Y449000
X170000Y462500
X164000Y466500
X140500Y461500
X142000Y457500
X138500Y452000
X146000Y450000
X150000
Y439000
X138000Y409500
X116500Y412000
X109000Y411500
X88000Y412500
X81500Y393500
X79000Y389500
X83500Y384500
X94500Y374000
X113000Y390000
X99500Y431500
X95500Y430500
X96500Y435000
X88000Y440000
X87500Y468000
X83000Y466500
X78500Y464500
X74000Y461500
X70000Y458500
X65500Y457792
X62000Y436000
X62500Y432500
X62000Y429000
X61000Y415000
X67319Y404016
X59000Y378500
X169500Y369000
X174000Y371500
X198000Y369500
X198500Y409000
X180000Y406500
X131000Y463000
X127000Y462500
X123500Y465000
X125517Y479483
X119500Y479500
X105000Y478000
X100500Y476000
X95500Y474000
X91500Y471000
X104500Y484500
X139500Y480500
X143500Y481500
X52500Y472000
X19500Y471500
X40000Y428000
X38500Y405000
X33500Y393000
T02
X268500Y217500
X210500Y409500
X211000Y453000
T03
X126500Y55000
X154000Y43500
X164500Y22500
X574000Y51000
X598500Y32000
X579000Y165500
X552500Y157000
X535500Y154500
X546500Y189000
X553500Y186000
X541500Y200000
X535000Y205000
X579000Y209000
X616000Y206500
X433000Y165500
X418500Y168500
X317000Y106000
X311500Y97000
X300000Y86000
X275500Y97000
X280000Y105000
X287500Y111500
X260500Y131500
X214500Y158000
X221000Y86000
X208000Y87000
X195500Y64500
X202000Y58000
X206500Y122500
X192500Y134000
X165000Y136000
X128500Y160000
X104000Y159500
X90500Y180500
X79000Y183000
X77000Y125000
X66000Y119000
X65500Y88500
X84500Y72500
X77500Y56500
X113000Y72500
X128000Y231500
X160000Y230000
X65500Y253000
X610000Y212500
T04
X49000Y209500
X138000Y228500
X156500Y340000
X173500Y353000
X152500Y377500
T05
X164500Y350000
Y360000
T06
X169382Y9900
X179400
X189200
X572882Y8400
X582900
X592700
X610764
X620782
X630582
T07
X179000Y29000
X189000
X621500Y25000
X631500
X151000Y90500
Y100500
Y110500
X30000Y119000
X20000
X10000
Y179500
X20000
X30000
X113000Y485000
Y495000
X123000
Y485000
X133000
Y495000
X176000Y493500
Y483500
X186000
Y493500
X196000
Y483500
T08
X46000Y37500
X66000
X90579Y16000
X109000
X428000Y55500
X446421
X472000Y15500
X490421
X689000Y60500
X707421
X631000Y116500
X601500
X30500Y140000
X20500
X10500
Y160000
X20500
X30500
X28400Y198700
X10600
X14000Y88000
Y78000
Y68000
X10600Y224300
X28400
X24500Y248000
X14500
Y258000
X24500
Y268000
X14500
Y278000
X24500
Y288000
X14500
Y298000
X24500
Y308000
X14500
X14000Y351500
X24000
Y361500
X14000
X136700Y273000
X217500
X24000Y371500
X14000
Y381500
X24000
Y391500
X14000
Y401500
X24000
Y411500
X14000
Y421500
X24000
Y431500
X14000
Y441500
X24000
T09
X295500Y12500
X305500
X441500Y12000
X451500
T10
X325200Y12000
X355700Y12500
X385718Y13000
X416118
X658200Y11000
X688700Y11500
X718718Y12000
X749118
T11
X550000Y142000
X442000
T12
X12000Y12000
X856000Y11500
Y211000
X220500Y230500
X221500Y490500
X12000
T13
X689000Y157500
X729000
X787500Y64500
X827500
X388500Y93000
X348500
X265500Y69500
X225500
M30
