G04 Layer_Color=8421504*
%FSLAX43Y43*%
%MOMM*%
G71*
G01*
G75*
%ADD10R,0.640X1.000*%
%ADD11C,0.127*%
%ADD12R,6.000X5.000*%
%ADD13R,1.000X1.400*%
%ADD14R,1.300X0.600*%
%ADD15R,0.890X0.640*%
%ADD16R,0.640X0.890*%
%ADD17R,0.640X1.000*%
%ADD18R,3.100X1.700*%
%ADD19R,4.600X1.100*%
D10*
X38962Y-8255D02*
D03*
X37562D02*
D03*
X43364D02*
D03*
X41964D02*
D03*
D11*
X33689Y-45085D02*
G03*
X34535Y-44239I0J846D01*
G01*
X20035D02*
G03*
X20881Y-45085I846J0D01*
G01*
X20035Y-32485D02*
G03*
X19035Y-32485I-500J0D01*
G01*
X18189Y-45085D02*
G03*
X19035Y-44239I-0J846D01*
G01*
X35535Y-32485D02*
G03*
X34535Y-32485I-500J0D01*
G01*
Y-29220D02*
G03*
X35535Y-29220I500J0D01*
G01*
Y-18669D02*
G03*
X33386Y-16520I-2149J0D01*
G01*
X34535Y-18510D02*
G03*
X33345Y-17320I-1190J0D01*
G01*
X21225D02*
G03*
X20035Y-18510I0J-1190D01*
G01*
X21229Y-16520D02*
G03*
X19035Y-18714I0J-2194D01*
G01*
Y-29220D02*
G03*
X20035Y-29220I500J0D01*
G01*
X35535Y-44239D02*
G03*
X36381Y-45085I846J0D01*
G01*
X54610Y-27940D02*
Y-1270D01*
X53340Y0D02*
X54610Y-1270D01*
X1270Y0D02*
X53340D01*
X46355Y-43815D02*
Y-30480D01*
X36381Y-45085D02*
X45085D01*
X46355Y-43815D01*
X8255D02*
Y-30480D01*
Y-43815D02*
X9525Y-45085D01*
X18189D01*
X0Y-27940D02*
Y-1270D01*
X1270Y0D01*
X20881Y-45085D02*
X33689D01*
X20035Y-44239D02*
Y-32520D01*
X19035Y-44239D02*
X19035Y-32520D01*
X35535D02*
X35535Y-44239D01*
X34535Y-44239D02*
Y-32520D01*
X46355Y-30480D02*
X47625Y-29210D01*
X53340D02*
X54610Y-27940D01*
X47625Y-29210D02*
X53340D01*
X0Y-27940D02*
X1270Y-29210D01*
X6985D01*
X8255Y-30480D01*
X35535Y-29220D02*
Y-18669D01*
X34535Y-29220D02*
Y-18510D01*
X21229Y-16520D02*
X33386D01*
X21225Y-17320D02*
X33345D01*
X20035Y-29220D02*
Y-18510D01*
X19035Y-29220D02*
Y-18714D01*
D12*
X3429Y-3810D02*
D03*
D13*
X38354Y-12614D02*
D03*
X37404Y-10414D02*
D03*
X39304D02*
D03*
X42865Y-12700D02*
D03*
X41915Y-10500D02*
D03*
X43815D02*
D03*
D14*
X28155Y-9210D02*
D03*
Y-11110D02*
D03*
X25955D02*
D03*
Y-10160D02*
D03*
Y-9210D02*
D03*
D15*
X22225Y-9460D02*
D03*
Y-10860D02*
D03*
X32385Y-9525D02*
D03*
Y-10925D02*
D03*
X23495Y-9460D02*
D03*
Y-10860D02*
D03*
X31115Y-9525D02*
D03*
Y-10925D02*
D03*
D16*
X31052Y-12700D02*
D03*
X32451D02*
D03*
D17*
X38036Y-14605D02*
D03*
X39437D02*
D03*
X42480D02*
D03*
X43880D02*
D03*
D18*
X12490Y-13820D02*
D03*
Y-3420D02*
D03*
X51645Y-2880D02*
D03*
Y-13280D02*
D03*
D19*
X15240Y-11620D02*
D03*
Y-9620D02*
D03*
Y-7620D02*
D03*
Y-5620D02*
D03*
X48895Y-5080D02*
D03*
Y-7080D02*
D03*
Y-9080D02*
D03*
Y-11080D02*
D03*
M02*
