G04*
G04 #@! TF.GenerationSoftware,Altium Limited,Altium Designer,18.0.7 (293)*
G04*
G04 Layer_Color=65535*
%FSLAX25Y25*%
%MOIN*%
G70*
G01*
G75*
%ADD10C,0.00787*%
%ADD11C,0.00600*%
%ADD12C,0.00500*%
%ADD13C,0.00800*%
%ADD14C,0.00200*%
%ADD15C,0.00300*%
%ADD16C,0.01000*%
%ADD17C,0.00591*%
%ADD18R,0.01587X0.00794*%
G36*
X186502Y81138D02*
X185002D01*
Y80138D01*
X186502D01*
Y81138D01*
D02*
G37*
G36*
X167638Y101971D02*
X166638D01*
Y100470D01*
X167638D01*
Y101971D01*
D02*
G37*
G36*
Y121655D02*
X166638D01*
Y120156D01*
X167638D01*
Y121655D01*
D02*
G37*
G36*
X178628Y148862D02*
X177128D01*
Y149862D01*
X178628D01*
Y148862D01*
D02*
G37*
G36*
X198313D02*
X196813D01*
Y149862D01*
X198313D01*
Y148862D01*
D02*
G37*
G36*
X206187Y81138D02*
X204687D01*
Y80138D01*
X206187D01*
Y81138D01*
D02*
G37*
G36*
X225872D02*
X224372D01*
Y80138D01*
X225872D01*
Y81138D01*
D02*
G37*
G36*
X235362Y109845D02*
X236362D01*
Y108344D01*
X235362D01*
Y109845D01*
D02*
G37*
G36*
Y129530D02*
X236362D01*
Y128030D01*
X235362D01*
Y129530D01*
D02*
G37*
G36*
X217998Y148862D02*
X216498D01*
Y149862D01*
X217998D01*
Y148862D01*
D02*
G37*
G36*
X370001Y179010D02*
X369858D01*
X369601Y179730D01*
Y179731D01*
X369600Y179734D01*
X369598Y179738D01*
X369595Y179744D01*
X369594Y179753D01*
X369591Y179761D01*
X369584Y179783D01*
X369575Y179807D01*
X369567Y179834D01*
X369549Y179891D01*
Y179890D01*
X369548Y179887D01*
X369547Y179883D01*
X369545Y179877D01*
X369541Y179861D01*
X369534Y179840D01*
X369527Y179815D01*
X369518Y179788D01*
X369508Y179760D01*
X369497Y179730D01*
X369228Y179010D01*
X369095D01*
X369481Y180000D01*
X369618D01*
X370001Y179010D01*
D02*
G37*
G36*
X369066Y182581D02*
X368690D01*
Y182703D01*
X369066D01*
Y182581D01*
D02*
G37*
G36*
X370000Y182010D02*
X369620D01*
X369594Y182012D01*
X369565Y182013D01*
X369537Y182016D01*
X369508Y182020D01*
X369484Y182025D01*
X369482D01*
X369479Y182026D01*
X369475D01*
X369469Y182029D01*
X369454Y182033D01*
X369434Y182041D01*
X369411Y182051D01*
X369387Y182063D01*
X369362Y182078D01*
X369339Y182096D01*
X369338Y182098D01*
X369337Y182099D01*
X369332Y182103D01*
X369326Y182108D01*
X369312Y182122D01*
X369295Y182142D01*
X369276Y182166D01*
X369256Y182195D01*
X369238Y182228D01*
X369222Y182265D01*
Y182266D01*
X369221Y182269D01*
X369218Y182275D01*
X369216Y182284D01*
X369212Y182294D01*
X369209Y182305D01*
X369206Y182318D01*
X369202Y182334D01*
X369198Y182349D01*
X369195Y182368D01*
X369188Y182408D01*
X369183Y182452D01*
X369182Y182501D01*
Y182502D01*
Y182505D01*
Y182512D01*
Y182519D01*
X369183Y182529D01*
Y182541D01*
X369185Y182568D01*
X369189Y182600D01*
X369194Y182633D01*
X369201Y182667D01*
X369209Y182701D01*
Y182703D01*
X369211Y182705D01*
X369212Y182710D01*
X369214Y182715D01*
X369219Y182731D01*
X369228Y182751D01*
X369236Y182774D01*
X369248Y182797D01*
X369262Y182821D01*
X369276Y182844D01*
X369278Y182847D01*
X369284Y182854D01*
X369292Y182864D01*
X369304Y182877D01*
X369317Y182891D01*
X369332Y182906D01*
X369348Y182921D01*
X369367Y182934D01*
X369369Y182936D01*
X369375Y182940D01*
X369385Y182946D01*
X369399Y182953D01*
X369417Y182961D01*
X369437Y182968D01*
X369460Y182977D01*
X369485Y182984D01*
X369488D01*
X369492Y182986D01*
X369497Y182987D01*
X369511Y182989D01*
X369531Y182991D01*
X369554Y182994D01*
X369581Y182997D01*
X369611Y182999D01*
X369644Y183000D01*
X370000D01*
Y182010D01*
D02*
G37*
G36*
X368764Y185068D02*
X369033D01*
Y184955D01*
X368764D01*
Y184686D01*
X368650D01*
Y184955D01*
X368381D01*
Y185068D01*
X368650D01*
Y185340D01*
X368764D01*
Y185068D01*
D02*
G37*
G36*
X370000Y184510D02*
X369620D01*
X369594Y184512D01*
X369565Y184513D01*
X369537Y184516D01*
X369508Y184520D01*
X369484Y184525D01*
X369482D01*
X369479Y184526D01*
X369475D01*
X369469Y184529D01*
X369454Y184533D01*
X369434Y184540D01*
X369411Y184550D01*
X369387Y184563D01*
X369362Y184578D01*
X369339Y184596D01*
X369338Y184598D01*
X369337Y184599D01*
X369332Y184603D01*
X369326Y184608D01*
X369312Y184622D01*
X369295Y184642D01*
X369276Y184666D01*
X369256Y184695D01*
X369238Y184728D01*
X369222Y184765D01*
Y184766D01*
X369221Y184769D01*
X369218Y184775D01*
X369216Y184784D01*
X369212Y184794D01*
X369209Y184805D01*
X369206Y184818D01*
X369202Y184834D01*
X369198Y184849D01*
X369195Y184868D01*
X369188Y184908D01*
X369183Y184952D01*
X369182Y185001D01*
Y185002D01*
Y185005D01*
Y185012D01*
Y185020D01*
X369183Y185029D01*
Y185041D01*
X369185Y185068D01*
X369189Y185100D01*
X369194Y185133D01*
X369201Y185167D01*
X369209Y185201D01*
Y185203D01*
X369211Y185205D01*
X369212Y185210D01*
X369214Y185215D01*
X369219Y185231D01*
X369228Y185251D01*
X369236Y185274D01*
X369248Y185297D01*
X369262Y185321D01*
X369276Y185344D01*
X369278Y185347D01*
X369284Y185354D01*
X369292Y185364D01*
X369304Y185377D01*
X369317Y185391D01*
X369332Y185406D01*
X369348Y185421D01*
X369367Y185434D01*
X369369Y185436D01*
X369375Y185440D01*
X369385Y185446D01*
X369399Y185453D01*
X369417Y185461D01*
X369437Y185468D01*
X369460Y185477D01*
X369485Y185484D01*
X369488D01*
X369492Y185486D01*
X369497Y185487D01*
X369511Y185489D01*
X369531Y185491D01*
X369554Y185494D01*
X369581Y185497D01*
X369611Y185499D01*
X369644Y185500D01*
X370000D01*
Y184510D01*
D02*
G37*
G36*
Y187010D02*
X369868D01*
Y188000D01*
X370000D01*
Y187010D01*
D02*
G37*
G36*
X369637D02*
X369256D01*
X369231Y187012D01*
X369202Y187013D01*
X369174Y187016D01*
X369145Y187021D01*
X369121Y187025D01*
X369119D01*
X369116Y187026D01*
X369112D01*
X369106Y187029D01*
X369091Y187033D01*
X369071Y187040D01*
X369048Y187050D01*
X369023Y187063D01*
X368999Y187078D01*
X368976Y187096D01*
X368975Y187098D01*
X368973Y187099D01*
X368969Y187103D01*
X368963Y187108D01*
X368949Y187122D01*
X368932Y187142D01*
X368913Y187166D01*
X368893Y187195D01*
X368875Y187228D01*
X368859Y187265D01*
Y187266D01*
X368857Y187269D01*
X368855Y187275D01*
X368853Y187284D01*
X368849Y187294D01*
X368846Y187305D01*
X368843Y187318D01*
X368839Y187334D01*
X368834Y187349D01*
X368832Y187368D01*
X368825Y187408D01*
X368820Y187452D01*
X368819Y187501D01*
Y187502D01*
Y187505D01*
Y187512D01*
Y187520D01*
X368820Y187530D01*
Y187541D01*
X368822Y187568D01*
X368826Y187600D01*
X368830Y187633D01*
X368837Y187667D01*
X368846Y187701D01*
Y187703D01*
X368847Y187705D01*
X368849Y187710D01*
X368850Y187715D01*
X368856Y187731D01*
X368865Y187751D01*
X368873Y187774D01*
X368885Y187797D01*
X368899Y187821D01*
X368913Y187844D01*
X368915Y187847D01*
X368920Y187854D01*
X368929Y187864D01*
X368940Y187877D01*
X368953Y187891D01*
X368969Y187906D01*
X368985Y187921D01*
X369003Y187934D01*
X369006Y187936D01*
X369012Y187940D01*
X369022Y187946D01*
X369036Y187953D01*
X369053Y187961D01*
X369073Y187969D01*
X369096Y187977D01*
X369122Y187984D01*
X369125D01*
X369129Y187986D01*
X369133Y187987D01*
X369148Y187989D01*
X369168Y187991D01*
X369191Y187994D01*
X369218Y187997D01*
X369248Y187999D01*
X369281Y188000D01*
X369637D01*
Y187010D01*
D02*
G37*
G36*
X368892Y189510D02*
X368757D01*
X368238Y190288D01*
Y189510D01*
X368112D01*
Y190500D01*
X368248D01*
X368766Y189724D01*
Y190500D01*
X368892D01*
Y189510D01*
D02*
G37*
G36*
X369518Y190516D02*
X369531D01*
X369547Y190514D01*
X369564Y190511D01*
X369582Y190510D01*
X369624Y190501D01*
X369668Y190491D01*
X369714Y190476D01*
X369737Y190467D01*
X369760Y190456D01*
X369761Y190454D01*
X369765Y190453D01*
X369771Y190448D01*
X369780Y190444D01*
X369790Y190437D01*
X369800Y190430D01*
X369827Y190410D01*
X369856Y190384D01*
X369886Y190353D01*
X369914Y190317D01*
X369940Y190276D01*
Y190274D01*
X369943Y190270D01*
X369946Y190264D01*
X369950Y190254D01*
X369954Y190244D01*
X369958Y190230D01*
X369964Y190215D01*
X369970Y190198D01*
X369976Y190180D01*
X369981Y190158D01*
X369986Y190137D01*
X369990Y190114D01*
X369997Y190064D01*
X370000Y190011D01*
Y190009D01*
Y190004D01*
Y189997D01*
X369999Y189987D01*
Y189974D01*
X369997Y189958D01*
X369994Y189942D01*
X369993Y189924D01*
X369989Y189904D01*
X369986Y189882D01*
X369974Y189837D01*
X369960Y189789D01*
X369940Y189742D01*
X369938Y189741D01*
X369937Y189736D01*
X369934Y189731D01*
X369929Y189722D01*
X369923Y189711D01*
X369916Y189699D01*
X369896Y189672D01*
X369871Y189641D01*
X369841Y189611D01*
X369807Y189581D01*
X369787Y189568D01*
X369767Y189555D01*
X369765Y189553D01*
X369761Y189552D01*
X369756Y189549D01*
X369747Y189545D01*
X369735Y189541D01*
X369723Y189535D01*
X369708Y189529D01*
X369691Y189523D01*
X369672Y189518D01*
X369653Y189513D01*
X369631Y189508D01*
X369608Y189503D01*
X369558Y189496D01*
X369532Y189493D01*
X369487D01*
X369478Y189495D01*
X369467D01*
X369439Y189498D01*
X369409Y189502D01*
X369378Y189509D01*
X369344Y189518D01*
X369311Y189529D01*
X369309D01*
X369306Y189531D01*
X369302Y189532D01*
X369296Y189535D01*
X369281Y189543D01*
X369261Y189553D01*
X369239Y189568D01*
X369216Y189585D01*
X369195Y189603D01*
X369175Y189626D01*
X369172Y189629D01*
X369166Y189638D01*
X369158Y189651D01*
X369146Y189669D01*
X369135Y189692D01*
X369122Y189721D01*
X369109Y189752D01*
X369099Y189788D01*
X369218Y189819D01*
Y189818D01*
X369219Y189816D01*
X369221Y189812D01*
X369222Y189806D01*
X369226Y189794D01*
X369232Y189776D01*
X369241Y189756D01*
X369251Y189738D01*
X369261Y189718D01*
X369274Y189701D01*
X369275Y189699D01*
X369279Y189693D01*
X369288Y189686D01*
X369298Y189676D01*
X369311Y189665D01*
X369328Y189653D01*
X369346Y189642D01*
X369368Y189632D01*
X369371Y189631D01*
X369378Y189628D01*
X369391Y189623D01*
X369408Y189618D01*
X369428Y189613D01*
X369451Y189609D01*
X369477Y189606D01*
X369504Y189605D01*
X369519D01*
X369527Y189606D01*
X369535D01*
X369557Y189608D01*
X369581Y189612D01*
X369608Y189616D01*
X369634Y189623D01*
X369660Y189633D01*
X369662Y189635D01*
X369671Y189638D01*
X369683Y189645D01*
X369697Y189652D01*
X369714Y189663D01*
X369733Y189675D01*
X369750Y189689D01*
X369765Y189705D01*
X369767Y189706D01*
X369773Y189712D01*
X369780Y189722D01*
X369788Y189734D01*
X369798Y189748D01*
X369808Y189765D01*
X369818Y189784D01*
X369828Y189804D01*
Y189805D01*
X369830Y189808D01*
X369831Y189812D01*
X369834Y189819D01*
X369837Y189828D01*
X369840Y189838D01*
X369844Y189849D01*
X369847Y189862D01*
X369854Y189892D01*
X369860Y189927D01*
X369864Y189962D01*
X369866Y190002D01*
Y190004D01*
Y190008D01*
Y190015D01*
X369864Y190024D01*
Y190035D01*
X369863Y190050D01*
X369861Y190064D01*
X369860Y190080D01*
X369854Y190115D01*
X369847Y190153D01*
X369836Y190190D01*
X369821Y190225D01*
Y190227D01*
X369818Y190230D01*
X369817Y190234D01*
X369813Y190240D01*
X369803Y190255D01*
X369787Y190276D01*
X369768Y190297D01*
X369745Y190318D01*
X369718Y190338D01*
X369688Y190357D01*
X369687D01*
X369684Y190358D01*
X369680Y190361D01*
X369672Y190364D01*
X369665Y190367D01*
X369655Y190370D01*
X369633Y190378D01*
X369604Y190386D01*
X369572Y190393D01*
X369538Y190399D01*
X369502Y190400D01*
X369488D01*
X369479Y190399D01*
X369471D01*
X369449Y190396D01*
X369424Y190393D01*
X369396Y190387D01*
X369367Y190378D01*
X369337Y190368D01*
X369335D01*
X369332Y190367D01*
X369329Y190366D01*
X369324Y190363D01*
X369308Y190356D01*
X369291Y190347D01*
X369271Y190337D01*
X369249Y190325D01*
X369229Y190313D01*
X369212Y190298D01*
Y190112D01*
X369504D01*
Y189995D01*
X369083D01*
Y190363D01*
X369085Y190364D01*
X369088Y190366D01*
X369093Y190370D01*
X369100Y190376D01*
X369109Y190381D01*
X369119Y190389D01*
X369132Y190397D01*
X369145Y190406D01*
X369175Y190424D01*
X369209Y190444D01*
X369245Y190463D01*
X369284Y190479D01*
X369285D01*
X369288Y190480D01*
X369294Y190481D01*
X369301Y190484D01*
X369311Y190487D01*
X369322Y190491D01*
X369335Y190494D01*
X369348Y190497D01*
X369379Y190504D01*
X369415Y190511D01*
X369454Y190516D01*
X369494Y190517D01*
X369508D01*
X369518Y190516D01*
D02*
G37*
G36*
X367892Y189510D02*
X367512D01*
X367486Y189512D01*
X367458Y189513D01*
X367429Y189516D01*
X367400Y189521D01*
X367376Y189525D01*
X367374D01*
X367372Y189526D01*
X367367D01*
X367362Y189529D01*
X367346Y189533D01*
X367326Y189541D01*
X367303Y189550D01*
X367279Y189563D01*
X367254Y189578D01*
X367231Y189596D01*
X367230Y189598D01*
X367229Y189599D01*
X367224Y189603D01*
X367219Y189608D01*
X367204Y189622D01*
X367187Y189642D01*
X367169Y189666D01*
X367149Y189695D01*
X367130Y189728D01*
X367114Y189765D01*
Y189766D01*
X367113Y189769D01*
X367110Y189775D01*
X367108Y189784D01*
X367104Y189794D01*
X367101Y189805D01*
X367098Y189818D01*
X367094Y189834D01*
X367090Y189849D01*
X367087Y189868D01*
X367080Y189908D01*
X367076Y189952D01*
X367074Y190001D01*
Y190002D01*
Y190005D01*
Y190012D01*
Y190020D01*
X367076Y190030D01*
Y190041D01*
X367077Y190068D01*
X367081Y190100D01*
X367086Y190132D01*
X367093Y190167D01*
X367101Y190201D01*
Y190203D01*
X367103Y190205D01*
X367104Y190210D01*
X367106Y190215D01*
X367111Y190231D01*
X367120Y190251D01*
X367129Y190274D01*
X367140Y190297D01*
X367154Y190321D01*
X367169Y190344D01*
X367170Y190347D01*
X367176Y190354D01*
X367184Y190364D01*
X367196Y190377D01*
X367209Y190391D01*
X367224Y190406D01*
X367240Y190421D01*
X367259Y190434D01*
X367262Y190436D01*
X367267Y190440D01*
X367277Y190446D01*
X367292Y190453D01*
X367309Y190461D01*
X367329Y190469D01*
X367352Y190477D01*
X367377Y190484D01*
X367380D01*
X367385Y190486D01*
X367389Y190487D01*
X367403Y190489D01*
X367423Y190491D01*
X367446Y190494D01*
X367473Y190497D01*
X367503Y190499D01*
X367536Y190500D01*
X367892D01*
Y189510D01*
D02*
G37*
G36*
X269351Y44579D02*
X269408D01*
X269473Y44572D01*
X269545Y44557D01*
X269631Y44536D01*
X269717Y44514D01*
X269817Y44486D01*
X269917Y44450D01*
X270018Y44407D01*
X270125Y44349D01*
X270226Y44285D01*
X270326Y44213D01*
X270426Y44127D01*
X270520Y44027D01*
X270527Y44020D01*
X270541Y43998D01*
X270563Y43969D01*
X270591Y43919D01*
X270634Y43855D01*
X270670Y43783D01*
X270713Y43690D01*
X270756Y43589D01*
X270806Y43468D01*
X270849Y43331D01*
X270885Y43181D01*
X270921Y43016D01*
X270957Y42829D01*
X270978Y42629D01*
X270993Y42413D01*
X271000Y42184D01*
Y42177D01*
Y42170D01*
Y42148D01*
Y42120D01*
X270993Y42048D01*
Y41947D01*
X270986Y41833D01*
X270971Y41697D01*
X270957Y41546D01*
X270936Y41381D01*
X270907Y41216D01*
X270871Y41037D01*
X270828Y40865D01*
X270778Y40693D01*
X270713Y40528D01*
X270641Y40370D01*
X270563Y40220D01*
X270469Y40090D01*
X270462Y40083D01*
X270448Y40069D01*
X270419Y40040D01*
X270383Y39997D01*
X270340Y39954D01*
X270283Y39911D01*
X270211Y39854D01*
X270140Y39804D01*
X270054Y39753D01*
X269960Y39696D01*
X269853Y39653D01*
X269745Y39603D01*
X269623Y39567D01*
X269494Y39538D01*
X269358Y39524D01*
X269215Y39517D01*
X269157D01*
X269114Y39524D01*
X269064D01*
X269007Y39531D01*
X268870Y39560D01*
X268720Y39596D01*
X268562Y39653D01*
X268405Y39739D01*
X268326Y39789D01*
X268254Y39847D01*
X268247Y39854D01*
X268240Y39861D01*
X268218Y39882D01*
X268197Y39904D01*
X268161Y39940D01*
X268132Y39983D01*
X268053Y40083D01*
X267974Y40212D01*
X267903Y40370D01*
X267838Y40549D01*
X267795Y40750D01*
X268405Y40800D01*
Y40793D01*
X268412Y40786D01*
X268419Y40743D01*
X268440Y40678D01*
X268469Y40600D01*
X268498Y40514D01*
X268541Y40427D01*
X268591Y40349D01*
X268641Y40284D01*
X268655Y40270D01*
X268684Y40241D01*
X268734Y40198D01*
X268806Y40148D01*
X268899Y40105D01*
X269000Y40062D01*
X269122Y40033D01*
X269250Y40019D01*
X269301D01*
X269358Y40026D01*
X269423Y40040D01*
X269509Y40062D01*
X269595Y40090D01*
X269681Y40126D01*
X269767Y40184D01*
X269781Y40191D01*
X269817Y40220D01*
X269867Y40270D01*
X269932Y40341D01*
X270003Y40427D01*
X270082Y40528D01*
X270154Y40657D01*
X270226Y40800D01*
Y40808D01*
X270233Y40822D01*
X270240Y40843D01*
X270254Y40872D01*
X270262Y40915D01*
X270276Y40965D01*
X270290Y41023D01*
X270304Y41094D01*
X270326Y41173D01*
X270340Y41259D01*
X270355Y41352D01*
X270362Y41453D01*
X270376Y41568D01*
X270383Y41682D01*
X270391Y41811D01*
Y41940D01*
X270383Y41933D01*
X270355Y41890D01*
X270304Y41833D01*
X270240Y41761D01*
X270168Y41675D01*
X270075Y41596D01*
X269975Y41517D01*
X269860Y41446D01*
X269853D01*
X269846Y41438D01*
X269803Y41417D01*
X269738Y41395D01*
X269652Y41359D01*
X269552Y41331D01*
X269437Y41309D01*
X269315Y41288D01*
X269186Y41281D01*
X269129D01*
X269086Y41288D01*
X269028Y41295D01*
X268971Y41302D01*
X268899Y41317D01*
X268828Y41338D01*
X268663Y41388D01*
X268577Y41424D01*
X268491Y41474D01*
X268405Y41524D01*
X268311Y41582D01*
X268225Y41653D01*
X268146Y41732D01*
X268139Y41740D01*
X268125Y41754D01*
X268103Y41775D01*
X268082Y41811D01*
X268046Y41861D01*
X268010Y41912D01*
X267974Y41976D01*
X267931Y42048D01*
X267888Y42127D01*
X267852Y42213D01*
X267816Y42313D01*
X267781Y42413D01*
X267759Y42521D01*
X267738Y42643D01*
X267723Y42765D01*
X267716Y42894D01*
Y42901D01*
Y42915D01*
Y42937D01*
Y42973D01*
X267723Y43016D01*
Y43059D01*
X267745Y43174D01*
X267766Y43310D01*
X267802Y43453D01*
X267852Y43611D01*
X267924Y43762D01*
Y43769D01*
X267931Y43776D01*
X267946Y43797D01*
X267960Y43826D01*
X268003Y43898D01*
X268068Y43991D01*
X268146Y44091D01*
X268240Y44192D01*
X268354Y44292D01*
X268476Y44378D01*
X268483D01*
X268491Y44385D01*
X268512Y44400D01*
X268541Y44407D01*
X268612Y44443D01*
X268706Y44478D01*
X268828Y44521D01*
X268964Y44550D01*
X269114Y44579D01*
X269279Y44586D01*
X269315D01*
X269351Y44579D01*
D02*
G37*
G36*
X289493Y25993D02*
Y25964D01*
Y25921D01*
X289486Y25864D01*
X289478Y25799D01*
X289464Y25727D01*
X289450Y25656D01*
X289421Y25577D01*
Y25570D01*
X289414Y25563D01*
X289400Y25520D01*
X289371Y25455D01*
X289328Y25369D01*
X289271Y25269D01*
X289199Y25154D01*
X289120Y25039D01*
X289020Y24917D01*
Y24910D01*
X289005Y24903D01*
X288969Y24860D01*
X288905Y24795D01*
X288812Y24702D01*
X288704Y24595D01*
X288568Y24466D01*
X288403Y24322D01*
X288224Y24172D01*
X288217Y24164D01*
X288188Y24143D01*
X288145Y24107D01*
X288095Y24064D01*
X288030Y24007D01*
X287951Y23942D01*
X287872Y23870D01*
X287779Y23792D01*
X287600Y23620D01*
X287421Y23448D01*
X287335Y23361D01*
X287256Y23275D01*
X287184Y23197D01*
X287127Y23118D01*
Y23110D01*
X287112Y23103D01*
X287098Y23082D01*
X287084Y23053D01*
X287034Y22974D01*
X286976Y22881D01*
X286926Y22766D01*
X286876Y22644D01*
X286847Y22508D01*
X286833Y22379D01*
Y22372D01*
Y22365D01*
X286840Y22322D01*
X286847Y22250D01*
X286869Y22171D01*
X286897Y22071D01*
X286947Y21971D01*
X287012Y21870D01*
X287098Y21770D01*
X287112Y21755D01*
X287148Y21727D01*
X287198Y21691D01*
X287277Y21641D01*
X287378Y21598D01*
X287492Y21555D01*
X287629Y21526D01*
X287779Y21519D01*
X287822D01*
X287851Y21526D01*
X287937Y21533D01*
X288037Y21555D01*
X288145Y21583D01*
X288267Y21633D01*
X288382Y21698D01*
X288489Y21784D01*
X288503Y21798D01*
X288532Y21834D01*
X288575Y21892D01*
X288618Y21978D01*
X288668Y22078D01*
X288711Y22207D01*
X288740Y22351D01*
X288754Y22515D01*
X289378Y22451D01*
Y22444D01*
X289371Y22422D01*
Y22386D01*
X289364Y22336D01*
X289349Y22279D01*
X289335Y22214D01*
X289314Y22135D01*
X289292Y22057D01*
X289235Y21884D01*
X289149Y21712D01*
X289099Y21626D01*
X289034Y21540D01*
X288969Y21461D01*
X288898Y21390D01*
X288891Y21383D01*
X288876Y21375D01*
X288855Y21354D01*
X288819Y21332D01*
X288776Y21304D01*
X288726Y21275D01*
X288668Y21239D01*
X288597Y21203D01*
X288518Y21167D01*
X288432Y21132D01*
X288338Y21103D01*
X288238Y21074D01*
X288130Y21053D01*
X288016Y21031D01*
X287894Y21024D01*
X287765Y21017D01*
X287693D01*
X287643Y21024D01*
X287586Y21031D01*
X287514Y21038D01*
X287435Y21053D01*
X287356Y21067D01*
X287170Y21117D01*
X286983Y21189D01*
X286890Y21232D01*
X286797Y21282D01*
X286711Y21347D01*
X286632Y21418D01*
X286625Y21426D01*
X286611Y21433D01*
X286596Y21461D01*
X286567Y21490D01*
X286532Y21526D01*
X286496Y21576D01*
X286460Y21626D01*
X286417Y21691D01*
X286345Y21827D01*
X286274Y21999D01*
X286245Y22085D01*
X286230Y22186D01*
X286216Y22286D01*
X286209Y22393D01*
Y22408D01*
Y22444D01*
X286216Y22501D01*
X286223Y22580D01*
X286238Y22666D01*
X286266Y22766D01*
X286295Y22874D01*
X286338Y22981D01*
X286345Y22996D01*
X286360Y23032D01*
X286388Y23089D01*
X286431Y23168D01*
X286489Y23254D01*
X286560Y23361D01*
X286646Y23469D01*
X286747Y23591D01*
X286761Y23605D01*
X286797Y23648D01*
X286833Y23684D01*
X286869Y23720D01*
X286912Y23763D01*
X286969Y23820D01*
X287026Y23878D01*
X287098Y23942D01*
X287170Y24014D01*
X287256Y24093D01*
X287349Y24172D01*
X287449Y24265D01*
X287564Y24358D01*
X287679Y24458D01*
X287686Y24466D01*
X287700Y24480D01*
X287729Y24501D01*
X287765Y24530D01*
X287808Y24573D01*
X287858Y24616D01*
X287973Y24709D01*
X288095Y24817D01*
X288209Y24925D01*
X288310Y25018D01*
X288353Y25054D01*
X288389Y25089D01*
X288396Y25097D01*
X288417Y25118D01*
X288446Y25147D01*
X288482Y25190D01*
X288518Y25240D01*
X288561Y25290D01*
X288647Y25412D01*
X286202D01*
Y26000D01*
X289493D01*
Y25993D01*
D02*
G37*
G36*
X288281Y32121D02*
X288288Y32128D01*
X288324Y32157D01*
X288367Y32200D01*
X288439Y32250D01*
X288518Y32315D01*
X288618Y32386D01*
X288733Y32465D01*
X288862Y32544D01*
X288869D01*
X288876Y32551D01*
X288919Y32580D01*
X288991Y32616D01*
X289077Y32659D01*
X289177Y32709D01*
X289285Y32759D01*
X289392Y32809D01*
X289500Y32852D01*
Y32264D01*
X289493D01*
X289478Y32250D01*
X289450Y32243D01*
X289414Y32221D01*
X289371Y32200D01*
X289321Y32171D01*
X289199Y32100D01*
X289055Y32021D01*
X288912Y31920D01*
X288761Y31806D01*
X288611Y31684D01*
X288604Y31677D01*
X288597Y31669D01*
X288575Y31648D01*
X288546Y31626D01*
X288482Y31555D01*
X288396Y31469D01*
X288310Y31368D01*
X288217Y31253D01*
X288138Y31139D01*
X288066Y31017D01*
X287672D01*
Y36000D01*
X288281D01*
Y32121D01*
D02*
G37*
G36*
X186851Y43579D02*
X186908D01*
X186973Y43572D01*
X187045Y43557D01*
X187130Y43536D01*
X187217Y43514D01*
X187317Y43486D01*
X187417Y43450D01*
X187518Y43407D01*
X187625Y43349D01*
X187726Y43285D01*
X187826Y43213D01*
X187926Y43127D01*
X188020Y43027D01*
X188027Y43020D01*
X188041Y42998D01*
X188063Y42969D01*
X188091Y42919D01*
X188134Y42855D01*
X188170Y42783D01*
X188213Y42690D01*
X188256Y42589D01*
X188306Y42467D01*
X188349Y42331D01*
X188385Y42181D01*
X188421Y42016D01*
X188457Y41829D01*
X188479Y41629D01*
X188493Y41414D01*
X188500Y41184D01*
Y41177D01*
Y41170D01*
Y41148D01*
Y41120D01*
X188493Y41048D01*
Y40947D01*
X188486Y40833D01*
X188471Y40696D01*
X188457Y40546D01*
X188435Y40381D01*
X188407Y40216D01*
X188371Y40037D01*
X188328Y39865D01*
X188278Y39693D01*
X188213Y39528D01*
X188142Y39370D01*
X188063Y39219D01*
X187969Y39090D01*
X187962Y39083D01*
X187948Y39069D01*
X187919Y39040D01*
X187883Y38997D01*
X187840Y38954D01*
X187783Y38911D01*
X187711Y38854D01*
X187640Y38804D01*
X187554Y38754D01*
X187460Y38696D01*
X187353Y38653D01*
X187245Y38603D01*
X187123Y38567D01*
X186994Y38538D01*
X186858Y38524D01*
X186715Y38517D01*
X186657D01*
X186614Y38524D01*
X186564D01*
X186507Y38531D01*
X186371Y38560D01*
X186220Y38596D01*
X186062Y38653D01*
X185905Y38739D01*
X185826Y38789D01*
X185754Y38847D01*
X185747Y38854D01*
X185740Y38861D01*
X185718Y38882D01*
X185696Y38904D01*
X185661Y38940D01*
X185632Y38983D01*
X185553Y39083D01*
X185474Y39212D01*
X185403Y39370D01*
X185338Y39549D01*
X185295Y39750D01*
X185905Y39800D01*
Y39793D01*
X185912Y39786D01*
X185919Y39743D01*
X185940Y39678D01*
X185969Y39599D01*
X185998Y39513D01*
X186041Y39427D01*
X186091Y39349D01*
X186141Y39284D01*
X186155Y39270D01*
X186184Y39241D01*
X186234Y39198D01*
X186306Y39148D01*
X186399Y39105D01*
X186500Y39062D01*
X186621Y39033D01*
X186750Y39019D01*
X186801D01*
X186858Y39026D01*
X186923Y39040D01*
X187009Y39062D01*
X187095Y39090D01*
X187181Y39126D01*
X187267Y39184D01*
X187281Y39191D01*
X187317Y39219D01*
X187367Y39270D01*
X187432Y39341D01*
X187503Y39427D01*
X187582Y39528D01*
X187654Y39657D01*
X187726Y39800D01*
Y39808D01*
X187733Y39822D01*
X187740Y39843D01*
X187754Y39872D01*
X187761Y39915D01*
X187776Y39965D01*
X187790Y40023D01*
X187804Y40094D01*
X187826Y40173D01*
X187840Y40259D01*
X187855Y40352D01*
X187862Y40453D01*
X187876Y40567D01*
X187883Y40682D01*
X187891Y40811D01*
Y40940D01*
X187883Y40933D01*
X187855Y40890D01*
X187804Y40833D01*
X187740Y40761D01*
X187668Y40675D01*
X187575Y40596D01*
X187475Y40517D01*
X187360Y40446D01*
X187353D01*
X187346Y40438D01*
X187303Y40417D01*
X187238Y40395D01*
X187152Y40360D01*
X187052Y40331D01*
X186937Y40309D01*
X186815Y40288D01*
X186686Y40281D01*
X186629D01*
X186586Y40288D01*
X186528Y40295D01*
X186471Y40302D01*
X186399Y40317D01*
X186328Y40338D01*
X186163Y40388D01*
X186076Y40424D01*
X185991Y40474D01*
X185905Y40525D01*
X185811Y40582D01*
X185725Y40653D01*
X185646Y40732D01*
X185639Y40740D01*
X185625Y40754D01*
X185603Y40775D01*
X185582Y40811D01*
X185546Y40861D01*
X185510Y40912D01*
X185474Y40976D01*
X185431Y41048D01*
X185388Y41127D01*
X185352Y41213D01*
X185317Y41313D01*
X185281Y41414D01*
X185259Y41521D01*
X185238Y41643D01*
X185223Y41765D01*
X185216Y41894D01*
Y41901D01*
Y41915D01*
Y41937D01*
Y41973D01*
X185223Y42016D01*
Y42059D01*
X185245Y42174D01*
X185266Y42310D01*
X185302Y42453D01*
X185352Y42611D01*
X185424Y42761D01*
Y42769D01*
X185431Y42776D01*
X185446Y42797D01*
X185460Y42826D01*
X185503Y42898D01*
X185567Y42991D01*
X185646Y43091D01*
X185740Y43192D01*
X185854Y43292D01*
X185976Y43378D01*
X185983D01*
X185991Y43385D01*
X186012Y43400D01*
X186041Y43407D01*
X186112Y43443D01*
X186206Y43479D01*
X186328Y43521D01*
X186464Y43550D01*
X186614Y43579D01*
X186779Y43586D01*
X186815D01*
X186851Y43579D01*
D02*
G37*
G36*
X206993Y24993D02*
Y24964D01*
Y24921D01*
X206986Y24864D01*
X206979Y24799D01*
X206964Y24727D01*
X206950Y24656D01*
X206921Y24577D01*
Y24570D01*
X206914Y24563D01*
X206900Y24520D01*
X206871Y24455D01*
X206828Y24369D01*
X206771Y24269D01*
X206699Y24154D01*
X206620Y24039D01*
X206520Y23917D01*
Y23910D01*
X206505Y23903D01*
X206469Y23860D01*
X206405Y23795D01*
X206312Y23702D01*
X206204Y23595D01*
X206068Y23466D01*
X205903Y23322D01*
X205724Y23172D01*
X205717Y23165D01*
X205688Y23143D01*
X205645Y23107D01*
X205595Y23064D01*
X205530Y23007D01*
X205451Y22942D01*
X205372Y22871D01*
X205279Y22792D01*
X205100Y22620D01*
X204921Y22447D01*
X204835Y22361D01*
X204756Y22275D01*
X204684Y22197D01*
X204627Y22118D01*
Y22110D01*
X204612Y22103D01*
X204598Y22082D01*
X204584Y22053D01*
X204534Y21974D01*
X204476Y21881D01*
X204426Y21766D01*
X204376Y21644D01*
X204347Y21508D01*
X204333Y21379D01*
Y21372D01*
Y21365D01*
X204340Y21322D01*
X204347Y21250D01*
X204369Y21171D01*
X204397Y21071D01*
X204448Y20970D01*
X204512Y20870D01*
X204598Y20770D01*
X204612Y20755D01*
X204648Y20727D01*
X204698Y20691D01*
X204777Y20641D01*
X204878Y20598D01*
X204992Y20555D01*
X205129Y20526D01*
X205279Y20519D01*
X205322D01*
X205351Y20526D01*
X205437Y20533D01*
X205537Y20555D01*
X205645Y20583D01*
X205767Y20633D01*
X205882Y20698D01*
X205989Y20784D01*
X206003Y20798D01*
X206032Y20834D01*
X206075Y20892D01*
X206118Y20978D01*
X206168Y21078D01*
X206211Y21207D01*
X206240Y21350D01*
X206254Y21515D01*
X206878Y21451D01*
Y21444D01*
X206871Y21422D01*
Y21386D01*
X206864Y21336D01*
X206849Y21279D01*
X206835Y21214D01*
X206814Y21135D01*
X206792Y21057D01*
X206735Y20884D01*
X206649Y20712D01*
X206598Y20626D01*
X206534Y20540D01*
X206469Y20461D01*
X206398Y20390D01*
X206391Y20382D01*
X206376Y20375D01*
X206355Y20354D01*
X206319Y20332D01*
X206276Y20304D01*
X206226Y20275D01*
X206168Y20239D01*
X206097Y20203D01*
X206018Y20167D01*
X205932Y20132D01*
X205838Y20103D01*
X205738Y20074D01*
X205630Y20053D01*
X205516Y20031D01*
X205394Y20024D01*
X205265Y20017D01*
X205193D01*
X205143Y20024D01*
X205086Y20031D01*
X205014Y20038D01*
X204935Y20053D01*
X204856Y20067D01*
X204670Y20117D01*
X204483Y20189D01*
X204390Y20232D01*
X204297Y20282D01*
X204211Y20347D01*
X204132Y20418D01*
X204125Y20425D01*
X204111Y20433D01*
X204096Y20461D01*
X204067Y20490D01*
X204032Y20526D01*
X203996Y20576D01*
X203960Y20626D01*
X203917Y20691D01*
X203845Y20827D01*
X203773Y20999D01*
X203745Y21085D01*
X203731Y21186D01*
X203716Y21286D01*
X203709Y21394D01*
Y21408D01*
Y21444D01*
X203716Y21501D01*
X203723Y21580D01*
X203738Y21666D01*
X203766Y21766D01*
X203795Y21874D01*
X203838Y21981D01*
X203845Y21996D01*
X203859Y22032D01*
X203888Y22089D01*
X203931Y22168D01*
X203989Y22254D01*
X204060Y22361D01*
X204146Y22469D01*
X204247Y22591D01*
X204261Y22605D01*
X204297Y22648D01*
X204333Y22684D01*
X204369Y22720D01*
X204412Y22763D01*
X204469Y22820D01*
X204526Y22878D01*
X204598Y22942D01*
X204670Y23014D01*
X204756Y23093D01*
X204849Y23172D01*
X204949Y23265D01*
X205064Y23358D01*
X205179Y23458D01*
X205186Y23466D01*
X205200Y23480D01*
X205229Y23502D01*
X205265Y23530D01*
X205308Y23573D01*
X205358Y23616D01*
X205473Y23709D01*
X205595Y23817D01*
X205709Y23924D01*
X205810Y24018D01*
X205853Y24054D01*
X205889Y24089D01*
X205896Y24097D01*
X205917Y24118D01*
X205946Y24147D01*
X205982Y24190D01*
X206018Y24240D01*
X206061Y24290D01*
X206147Y24412D01*
X203702D01*
Y25000D01*
X206993D01*
Y24993D01*
D02*
G37*
G36*
X205781Y31121D02*
X205788Y31128D01*
X205824Y31157D01*
X205867Y31200D01*
X205939Y31250D01*
X206018Y31315D01*
X206118Y31386D01*
X206233Y31465D01*
X206362Y31544D01*
X206369D01*
X206376Y31551D01*
X206419Y31580D01*
X206491Y31616D01*
X206577Y31659D01*
X206677Y31709D01*
X206785Y31759D01*
X206892Y31809D01*
X207000Y31852D01*
Y31264D01*
X206993D01*
X206979Y31250D01*
X206950Y31243D01*
X206914Y31221D01*
X206871Y31200D01*
X206821Y31171D01*
X206699Y31100D01*
X206556Y31021D01*
X206412Y30920D01*
X206261Y30806D01*
X206111Y30684D01*
X206104Y30676D01*
X206097Y30669D01*
X206075Y30648D01*
X206046Y30626D01*
X205982Y30555D01*
X205896Y30469D01*
X205810Y30368D01*
X205717Y30253D01*
X205638Y30139D01*
X205566Y30017D01*
X205172D01*
Y35000D01*
X205781D01*
Y31121D01*
D02*
G37*
G36*
X120351Y43079D02*
X120408D01*
X120473Y43072D01*
X120545Y43057D01*
X120631Y43036D01*
X120717Y43014D01*
X120817Y42986D01*
X120917Y42950D01*
X121018Y42907D01*
X121125Y42849D01*
X121226Y42785D01*
X121326Y42713D01*
X121426Y42627D01*
X121520Y42527D01*
X121527Y42520D01*
X121541Y42498D01*
X121563Y42469D01*
X121591Y42419D01*
X121634Y42355D01*
X121670Y42283D01*
X121713Y42190D01*
X121756Y42089D01*
X121806Y41967D01*
X121849Y41831D01*
X121885Y41681D01*
X121921Y41516D01*
X121957Y41329D01*
X121978Y41129D01*
X121993Y40914D01*
X122000Y40684D01*
Y40677D01*
Y40670D01*
Y40648D01*
Y40620D01*
X121993Y40548D01*
Y40448D01*
X121986Y40333D01*
X121971Y40196D01*
X121957Y40046D01*
X121935Y39881D01*
X121907Y39716D01*
X121871Y39537D01*
X121828Y39365D01*
X121778Y39193D01*
X121713Y39028D01*
X121642Y38870D01*
X121563Y38719D01*
X121469Y38590D01*
X121462Y38583D01*
X121448Y38569D01*
X121419Y38540D01*
X121383Y38497D01*
X121340Y38454D01*
X121283Y38411D01*
X121211Y38354D01*
X121140Y38304D01*
X121054Y38254D01*
X120960Y38196D01*
X120853Y38153D01*
X120745Y38103D01*
X120623Y38067D01*
X120494Y38038D01*
X120358Y38024D01*
X120215Y38017D01*
X120157D01*
X120114Y38024D01*
X120064D01*
X120007Y38031D01*
X119870Y38060D01*
X119720Y38096D01*
X119562Y38153D01*
X119404Y38239D01*
X119326Y38289D01*
X119254Y38347D01*
X119247Y38354D01*
X119240Y38361D01*
X119218Y38383D01*
X119196Y38404D01*
X119161Y38440D01*
X119132Y38483D01*
X119053Y38583D01*
X118974Y38712D01*
X118903Y38870D01*
X118838Y39049D01*
X118795Y39250D01*
X119404Y39300D01*
Y39293D01*
X119412Y39286D01*
X119419Y39243D01*
X119440Y39178D01*
X119469Y39099D01*
X119498Y39013D01*
X119541Y38927D01*
X119591Y38849D01*
X119641Y38784D01*
X119655Y38770D01*
X119684Y38741D01*
X119734Y38698D01*
X119806Y38648D01*
X119899Y38605D01*
X120000Y38562D01*
X120122Y38533D01*
X120250Y38519D01*
X120301D01*
X120358Y38526D01*
X120423Y38540D01*
X120509Y38562D01*
X120595Y38590D01*
X120681Y38626D01*
X120767Y38684D01*
X120781Y38691D01*
X120817Y38719D01*
X120867Y38770D01*
X120932Y38841D01*
X121003Y38927D01*
X121082Y39028D01*
X121154Y39157D01*
X121226Y39300D01*
Y39307D01*
X121233Y39322D01*
X121240Y39343D01*
X121254Y39372D01*
X121262Y39415D01*
X121276Y39465D01*
X121290Y39523D01*
X121305Y39594D01*
X121326Y39673D01*
X121340Y39759D01*
X121355Y39852D01*
X121362Y39953D01*
X121376Y40067D01*
X121383Y40182D01*
X121391Y40311D01*
Y40440D01*
X121383Y40433D01*
X121355Y40390D01*
X121305Y40333D01*
X121240Y40261D01*
X121168Y40175D01*
X121075Y40096D01*
X120975Y40017D01*
X120860Y39946D01*
X120853D01*
X120846Y39938D01*
X120803Y39917D01*
X120738Y39895D01*
X120652Y39860D01*
X120552Y39831D01*
X120437Y39809D01*
X120315Y39788D01*
X120186Y39781D01*
X120129D01*
X120086Y39788D01*
X120028Y39795D01*
X119971Y39802D01*
X119899Y39816D01*
X119827Y39838D01*
X119663Y39888D01*
X119577Y39924D01*
X119491Y39974D01*
X119404Y40025D01*
X119311Y40082D01*
X119225Y40154D01*
X119146Y40232D01*
X119139Y40240D01*
X119125Y40254D01*
X119103Y40275D01*
X119082Y40311D01*
X119046Y40361D01*
X119010Y40412D01*
X118974Y40476D01*
X118931Y40548D01*
X118888Y40627D01*
X118852Y40713D01*
X118816Y40813D01*
X118781Y40914D01*
X118759Y41021D01*
X118738Y41143D01*
X118723Y41265D01*
X118716Y41394D01*
Y41401D01*
Y41415D01*
Y41437D01*
Y41473D01*
X118723Y41516D01*
Y41559D01*
X118745Y41674D01*
X118766Y41810D01*
X118802Y41953D01*
X118852Y42111D01*
X118924Y42261D01*
Y42269D01*
X118931Y42276D01*
X118946Y42297D01*
X118960Y42326D01*
X119003Y42398D01*
X119068Y42491D01*
X119146Y42591D01*
X119240Y42692D01*
X119354Y42792D01*
X119476Y42878D01*
X119483D01*
X119491Y42885D01*
X119512Y42900D01*
X119541Y42907D01*
X119612Y42943D01*
X119706Y42979D01*
X119827Y43022D01*
X119964Y43050D01*
X120114Y43079D01*
X120279Y43086D01*
X120315D01*
X120351Y43079D01*
D02*
G37*
G36*
X140493Y24493D02*
Y24464D01*
Y24421D01*
X140486Y24364D01*
X140479Y24299D01*
X140464Y24227D01*
X140450Y24156D01*
X140421Y24077D01*
Y24070D01*
X140414Y24063D01*
X140400Y24020D01*
X140371Y23955D01*
X140328Y23869D01*
X140271Y23769D01*
X140199Y23654D01*
X140120Y23539D01*
X140020Y23417D01*
Y23410D01*
X140005Y23403D01*
X139969Y23360D01*
X139905Y23295D01*
X139812Y23202D01*
X139704Y23095D01*
X139568Y22966D01*
X139403Y22822D01*
X139224Y22672D01*
X139217Y22664D01*
X139188Y22643D01*
X139145Y22607D01*
X139095Y22564D01*
X139030Y22507D01*
X138951Y22442D01*
X138872Y22370D01*
X138779Y22292D01*
X138600Y22120D01*
X138421Y21948D01*
X138335Y21861D01*
X138256Y21775D01*
X138184Y21697D01*
X138127Y21618D01*
Y21610D01*
X138112Y21603D01*
X138098Y21582D01*
X138084Y21553D01*
X138033Y21474D01*
X137976Y21381D01*
X137926Y21266D01*
X137876Y21144D01*
X137847Y21008D01*
X137833Y20879D01*
Y20872D01*
Y20865D01*
X137840Y20822D01*
X137847Y20750D01*
X137869Y20671D01*
X137897Y20571D01*
X137947Y20470D01*
X138012Y20370D01*
X138098Y20270D01*
X138112Y20255D01*
X138148Y20227D01*
X138198Y20191D01*
X138277Y20141D01*
X138378Y20098D01*
X138492Y20055D01*
X138629Y20026D01*
X138779Y20019D01*
X138822D01*
X138851Y20026D01*
X138937Y20033D01*
X139037Y20055D01*
X139145Y20083D01*
X139267Y20133D01*
X139382Y20198D01*
X139489Y20284D01*
X139503Y20298D01*
X139532Y20334D01*
X139575Y20392D01*
X139618Y20478D01*
X139668Y20578D01*
X139711Y20707D01*
X139740Y20851D01*
X139754Y21015D01*
X140378Y20951D01*
Y20944D01*
X140371Y20922D01*
Y20886D01*
X140364Y20836D01*
X140349Y20779D01*
X140335Y20714D01*
X140314Y20635D01*
X140292Y20557D01*
X140235Y20384D01*
X140149Y20212D01*
X140099Y20126D01*
X140034Y20040D01*
X139969Y19961D01*
X139898Y19890D01*
X139891Y19883D01*
X139876Y19875D01*
X139855Y19854D01*
X139819Y19832D01*
X139776Y19804D01*
X139726Y19775D01*
X139668Y19739D01*
X139597Y19703D01*
X139518Y19667D01*
X139432Y19632D01*
X139339Y19603D01*
X139238Y19574D01*
X139130Y19553D01*
X139016Y19531D01*
X138894Y19524D01*
X138765Y19517D01*
X138693D01*
X138643Y19524D01*
X138586Y19531D01*
X138514Y19538D01*
X138435Y19553D01*
X138356Y19567D01*
X138170Y19617D01*
X137983Y19689D01*
X137890Y19732D01*
X137797Y19782D01*
X137711Y19847D01*
X137632Y19918D01*
X137625Y19926D01*
X137610Y19933D01*
X137596Y19961D01*
X137567Y19990D01*
X137532Y20026D01*
X137496Y20076D01*
X137460Y20126D01*
X137417Y20191D01*
X137345Y20327D01*
X137274Y20499D01*
X137245Y20585D01*
X137231Y20686D01*
X137216Y20786D01*
X137209Y20893D01*
Y20908D01*
Y20944D01*
X137216Y21001D01*
X137223Y21080D01*
X137238Y21166D01*
X137266Y21266D01*
X137295Y21374D01*
X137338Y21481D01*
X137345Y21496D01*
X137359Y21532D01*
X137388Y21589D01*
X137431Y21668D01*
X137489Y21754D01*
X137560Y21861D01*
X137646Y21969D01*
X137747Y22091D01*
X137761Y22105D01*
X137797Y22148D01*
X137833Y22184D01*
X137869Y22220D01*
X137912Y22263D01*
X137969Y22320D01*
X138026Y22378D01*
X138098Y22442D01*
X138170Y22514D01*
X138256Y22593D01*
X138349Y22672D01*
X138449Y22765D01*
X138564Y22858D01*
X138679Y22958D01*
X138686Y22966D01*
X138700Y22980D01*
X138729Y23001D01*
X138765Y23030D01*
X138808Y23073D01*
X138858Y23116D01*
X138973Y23209D01*
X139095Y23317D01*
X139209Y23425D01*
X139310Y23518D01*
X139353Y23554D01*
X139389Y23589D01*
X139396Y23597D01*
X139417Y23618D01*
X139446Y23647D01*
X139482Y23690D01*
X139518Y23740D01*
X139561Y23790D01*
X139647Y23912D01*
X137202D01*
Y24500D01*
X140493D01*
Y24493D01*
D02*
G37*
G36*
X139281Y30621D02*
X139288Y30628D01*
X139324Y30657D01*
X139367Y30700D01*
X139439Y30750D01*
X139518Y30815D01*
X139618Y30886D01*
X139733Y30965D01*
X139862Y31044D01*
X139869D01*
X139876Y31051D01*
X139919Y31080D01*
X139991Y31116D01*
X140077Y31159D01*
X140177Y31209D01*
X140285Y31259D01*
X140392Y31309D01*
X140500Y31352D01*
Y30764D01*
X140493D01*
X140479Y30750D01*
X140450Y30743D01*
X140414Y30721D01*
X140371Y30700D01*
X140321Y30671D01*
X140199Y30599D01*
X140056Y30521D01*
X139912Y30420D01*
X139761Y30305D01*
X139611Y30184D01*
X139604Y30176D01*
X139597Y30169D01*
X139575Y30148D01*
X139546Y30126D01*
X139482Y30055D01*
X139396Y29969D01*
X139310Y29868D01*
X139217Y29754D01*
X139138Y29639D01*
X139066Y29517D01*
X138672D01*
Y34500D01*
X139281D01*
Y30621D01*
D02*
G37*
%LPC*%
G36*
X369868Y182883D02*
X369634D01*
X369624Y182881D01*
X369602Y182880D01*
X369578Y182878D01*
X369552Y182876D01*
X369527Y182871D01*
X369505Y182866D01*
X369502Y182864D01*
X369495Y182863D01*
X369485Y182858D01*
X369472Y182853D01*
X369458Y182844D01*
X369444Y182835D01*
X369429Y182826D01*
X369415Y182814D01*
X369414Y182811D01*
X369408Y182806D01*
X369399Y182796D01*
X369389Y182781D01*
X369378Y182763D01*
X369365Y182741D01*
X369354Y182717D01*
X369344Y182690D01*
Y182688D01*
X369342Y182685D01*
X369341Y182681D01*
X369339Y182675D01*
X369338Y182668D01*
X369335Y182658D01*
X369332Y182648D01*
X369329Y182637D01*
X369325Y182608D01*
X369321Y182575D01*
X369318Y182538D01*
X369317Y182498D01*
Y182497D01*
Y182491D01*
Y182484D01*
X369318Y182472D01*
Y182459D01*
X369319Y182445D01*
X369321Y182428D01*
X369322Y182411D01*
X369329Y182372D01*
X369338Y182332D01*
X369351Y182295D01*
X369359Y182276D01*
X369368Y182261D01*
Y182259D01*
X369371Y182256D01*
X369374Y182252D01*
X369376Y182246D01*
X369388Y182232D01*
X369402Y182215D01*
X369421Y182196D01*
X369442Y182178D01*
X369467Y182162D01*
X369492Y182149D01*
X369495Y182148D01*
X369502Y182146D01*
X369515Y182142D01*
X369534Y182138D01*
X369557Y182135D01*
X369585Y182131D01*
X369602Y182129D01*
X369621D01*
X369640Y182128D01*
X369868D01*
Y182883D01*
D02*
G37*
G36*
Y185383D02*
X369634D01*
X369624Y185381D01*
X369602Y185380D01*
X369578Y185378D01*
X369552Y185376D01*
X369527Y185371D01*
X369505Y185366D01*
X369502Y185364D01*
X369495Y185363D01*
X369485Y185358D01*
X369472Y185353D01*
X369458Y185344D01*
X369444Y185336D01*
X369429Y185326D01*
X369415Y185314D01*
X369414Y185311D01*
X369408Y185306D01*
X369399Y185295D01*
X369389Y185281D01*
X369378Y185263D01*
X369365Y185241D01*
X369354Y185217D01*
X369344Y185190D01*
Y185188D01*
X369342Y185185D01*
X369341Y185181D01*
X369339Y185175D01*
X369338Y185168D01*
X369335Y185158D01*
X369332Y185148D01*
X369329Y185137D01*
X369325Y185108D01*
X369321Y185075D01*
X369318Y185038D01*
X369317Y184998D01*
Y184997D01*
Y184991D01*
Y184984D01*
X369318Y184972D01*
Y184959D01*
X369319Y184945D01*
X369321Y184928D01*
X369322Y184911D01*
X369329Y184872D01*
X369338Y184832D01*
X369351Y184795D01*
X369359Y184776D01*
X369368Y184761D01*
Y184759D01*
X369371Y184756D01*
X369374Y184752D01*
X369376Y184746D01*
X369388Y184732D01*
X369402Y184715D01*
X369421Y184696D01*
X369442Y184678D01*
X369467Y184662D01*
X369492Y184649D01*
X369495Y184648D01*
X369502Y184646D01*
X369515Y184642D01*
X369534Y184638D01*
X369557Y184635D01*
X369585Y184631D01*
X369602Y184629D01*
X369621D01*
X369640Y184628D01*
X369868D01*
Y185383D01*
D02*
G37*
G36*
X369505Y187883D02*
X369271D01*
X369261Y187881D01*
X369239Y187880D01*
X369215Y187878D01*
X369189Y187876D01*
X369163Y187871D01*
X369142Y187866D01*
X369139Y187864D01*
X369132Y187863D01*
X369122Y187858D01*
X369109Y187853D01*
X369095Y187844D01*
X369080Y187836D01*
X369066Y187826D01*
X369052Y187814D01*
X369051Y187811D01*
X369045Y187805D01*
X369036Y187795D01*
X369026Y187781D01*
X369015Y187763D01*
X369002Y187741D01*
X368990Y187717D01*
X368980Y187690D01*
Y187688D01*
X368979Y187685D01*
X368978Y187681D01*
X368976Y187675D01*
X368975Y187668D01*
X368972Y187658D01*
X368969Y187648D01*
X368966Y187637D01*
X368962Y187608D01*
X368957Y187575D01*
X368955Y187538D01*
X368953Y187498D01*
Y187497D01*
Y187491D01*
Y187484D01*
X368955Y187472D01*
Y187460D01*
X368956Y187445D01*
X368957Y187428D01*
X368959Y187411D01*
X368966Y187372D01*
X368975Y187332D01*
X368988Y187295D01*
X368996Y187276D01*
X369005Y187261D01*
Y187259D01*
X369008Y187256D01*
X369010Y187252D01*
X369013Y187246D01*
X369025Y187232D01*
X369039Y187215D01*
X369058Y187196D01*
X369079Y187178D01*
X369103Y187162D01*
X369129Y187149D01*
X369132Y187148D01*
X369139Y187146D01*
X369152Y187142D01*
X369171Y187138D01*
X369194Y187135D01*
X369222Y187131D01*
X369239Y187129D01*
X369258D01*
X369276Y187128D01*
X369505D01*
Y187883D01*
D02*
G37*
G36*
X367761Y190383D02*
X367526D01*
X367516Y190381D01*
X367495Y190380D01*
X367470Y190378D01*
X367445Y190376D01*
X367419Y190371D01*
X367397Y190366D01*
X367394Y190364D01*
X367387Y190363D01*
X367377Y190358D01*
X367365Y190353D01*
X367350Y190344D01*
X367336Y190336D01*
X367322Y190325D01*
X367307Y190314D01*
X367306Y190311D01*
X367300Y190305D01*
X367292Y190296D01*
X367282Y190281D01*
X367270Y190263D01*
X367257Y190241D01*
X367246Y190217D01*
X367236Y190190D01*
Y190188D01*
X367234Y190185D01*
X367233Y190181D01*
X367231Y190175D01*
X367230Y190168D01*
X367227Y190158D01*
X367224Y190148D01*
X367221Y190137D01*
X367217Y190108D01*
X367213Y190075D01*
X367210Y190038D01*
X367209Y189998D01*
Y189997D01*
Y189991D01*
Y189984D01*
X367210Y189972D01*
Y189960D01*
X367212Y189945D01*
X367213Y189928D01*
X367214Y189911D01*
X367221Y189872D01*
X367230Y189832D01*
X367243Y189795D01*
X367251Y189776D01*
X367260Y189761D01*
Y189759D01*
X367263Y189756D01*
X367266Y189752D01*
X367269Y189746D01*
X367280Y189732D01*
X367294Y189715D01*
X367313Y189696D01*
X367335Y189678D01*
X367359Y189662D01*
X367385Y189649D01*
X367387Y189648D01*
X367394Y189646D01*
X367407Y189642D01*
X367426Y189638D01*
X367449Y189635D01*
X367477Y189631D01*
X367495Y189629D01*
X367513D01*
X367532Y189628D01*
X367761D01*
Y190383D01*
D02*
G37*
G36*
X269286Y44084D02*
X269250D01*
X269222Y44077D01*
X269150Y44070D01*
X269057Y44048D01*
X268957Y44005D01*
X268842Y43955D01*
X268727Y43876D01*
X268670Y43833D01*
X268620Y43776D01*
Y43769D01*
X268605Y43762D01*
X268577Y43718D01*
X268533Y43647D01*
X268476Y43554D01*
X268426Y43432D01*
X268383Y43288D01*
X268354Y43123D01*
X268340Y42930D01*
Y42923D01*
Y42908D01*
Y42880D01*
X268347Y42844D01*
Y42801D01*
X268354Y42750D01*
X268376Y42636D01*
X268405Y42507D01*
X268455Y42371D01*
X268526Y42241D01*
X268620Y42120D01*
X268634Y42105D01*
X268670Y42069D01*
X268727Y42026D01*
X268806Y41969D01*
X268906Y41912D01*
X269021Y41869D01*
X269157Y41833D01*
X269308Y41818D01*
X269351D01*
X269380Y41826D01*
X269451Y41833D01*
X269552Y41854D01*
X269659Y41890D01*
X269781Y41947D01*
X269896Y42019D01*
X270010Y42120D01*
X270025Y42134D01*
X270054Y42170D01*
X270104Y42234D01*
X270154Y42327D01*
X270204Y42435D01*
X270254Y42571D01*
X270283Y42722D01*
X270297Y42894D01*
Y42908D01*
Y42944D01*
X270290Y43009D01*
X270283Y43088D01*
X270269Y43181D01*
X270240Y43281D01*
X270211Y43389D01*
X270168Y43496D01*
X270161Y43510D01*
X270140Y43546D01*
X270111Y43597D01*
X270068Y43661D01*
X270018Y43726D01*
X269953Y43804D01*
X269882Y43869D01*
X269795Y43934D01*
X269781Y43941D01*
X269752Y43955D01*
X269702Y43984D01*
X269638Y44005D01*
X269566Y44034D01*
X269480Y44063D01*
X269387Y44077D01*
X269286Y44084D01*
D02*
G37*
G36*
X186786Y43084D02*
X186750D01*
X186722Y43077D01*
X186650Y43070D01*
X186557Y43048D01*
X186457Y43005D01*
X186342Y42955D01*
X186227Y42876D01*
X186170Y42833D01*
X186120Y42776D01*
Y42769D01*
X186105Y42761D01*
X186076Y42718D01*
X186033Y42647D01*
X185976Y42554D01*
X185926Y42432D01*
X185883Y42288D01*
X185854Y42123D01*
X185840Y41930D01*
Y41923D01*
Y41908D01*
Y41880D01*
X185847Y41844D01*
Y41801D01*
X185854Y41750D01*
X185876Y41636D01*
X185905Y41507D01*
X185955Y41370D01*
X186026Y41241D01*
X186120Y41120D01*
X186134Y41105D01*
X186170Y41069D01*
X186227Y41026D01*
X186306Y40969D01*
X186406Y40912D01*
X186521Y40869D01*
X186657Y40833D01*
X186808Y40818D01*
X186851D01*
X186880Y40826D01*
X186951Y40833D01*
X187052Y40854D01*
X187159Y40890D01*
X187281Y40947D01*
X187396Y41019D01*
X187511Y41120D01*
X187525Y41134D01*
X187554Y41170D01*
X187604Y41234D01*
X187654Y41328D01*
X187704Y41435D01*
X187754Y41571D01*
X187783Y41722D01*
X187797Y41894D01*
Y41908D01*
Y41944D01*
X187790Y42009D01*
X187783Y42088D01*
X187769Y42181D01*
X187740Y42281D01*
X187711Y42389D01*
X187668Y42496D01*
X187661Y42511D01*
X187640Y42546D01*
X187611Y42597D01*
X187568Y42661D01*
X187518Y42726D01*
X187453Y42805D01*
X187381Y42869D01*
X187295Y42934D01*
X187281Y42941D01*
X187252Y42955D01*
X187202Y42984D01*
X187138Y43005D01*
X187066Y43034D01*
X186980Y43063D01*
X186887Y43077D01*
X186786Y43084D01*
D02*
G37*
G36*
X120286Y42584D02*
X120250D01*
X120222Y42577D01*
X120150Y42570D01*
X120057Y42548D01*
X119957Y42505D01*
X119842Y42455D01*
X119727Y42376D01*
X119670Y42333D01*
X119620Y42276D01*
Y42269D01*
X119605Y42261D01*
X119577Y42219D01*
X119534Y42147D01*
X119476Y42054D01*
X119426Y41932D01*
X119383Y41788D01*
X119354Y41623D01*
X119340Y41430D01*
Y41423D01*
Y41408D01*
Y41380D01*
X119347Y41344D01*
Y41301D01*
X119354Y41251D01*
X119376Y41136D01*
X119404Y41007D01*
X119455Y40870D01*
X119526Y40741D01*
X119620Y40620D01*
X119634Y40605D01*
X119670Y40569D01*
X119727Y40526D01*
X119806Y40469D01*
X119906Y40412D01*
X120021Y40369D01*
X120157Y40333D01*
X120308Y40318D01*
X120351D01*
X120380Y40326D01*
X120451Y40333D01*
X120552Y40354D01*
X120659Y40390D01*
X120781Y40448D01*
X120896Y40519D01*
X121010Y40620D01*
X121025Y40634D01*
X121054Y40670D01*
X121104Y40734D01*
X121154Y40828D01*
X121204Y40935D01*
X121254Y41071D01*
X121283Y41222D01*
X121297Y41394D01*
Y41408D01*
Y41444D01*
X121290Y41509D01*
X121283Y41587D01*
X121269Y41681D01*
X121240Y41781D01*
X121211Y41889D01*
X121168Y41996D01*
X121161Y42011D01*
X121140Y42046D01*
X121111Y42097D01*
X121068Y42161D01*
X121018Y42226D01*
X120953Y42305D01*
X120881Y42369D01*
X120795Y42434D01*
X120781Y42441D01*
X120752Y42455D01*
X120702Y42484D01*
X120638Y42505D01*
X120566Y42534D01*
X120480Y42563D01*
X120387Y42577D01*
X120286Y42584D01*
D02*
G37*
%LPD*%
D10*
X400520Y130138D02*
G03*
X403256Y127402I2736J0D01*
G01*
X424122Y124646D02*
G03*
X421386Y127382I-2736J0D01*
G01*
X403256Y57598D02*
G03*
X400520Y54862I0J-2736D01*
G01*
X421386Y57618D02*
G03*
X424122Y60354I0J2736D01*
G01*
X-12914Y112362D02*
G03*
X-15651Y115098I-2736J0D01*
G01*
X-36517Y117854D02*
G03*
X-33781Y115118I2736J0D01*
G01*
X-15651Y184902D02*
G03*
X-12914Y187638I0J2736D01*
G01*
X-33781Y184882D02*
G03*
X-36517Y182146I0J-2736D01*
G01*
X388689Y31870D02*
Y153130D01*
X351681Y31870D02*
X400500D01*
X351681Y153130D02*
X400500D01*
X424122Y60354D02*
Y124646D01*
X351681Y31870D02*
Y153130D01*
X351681Y64941D02*
X388689D01*
X400500Y31870D02*
Y153130D01*
X351681Y120059D02*
X388689D01*
X403256Y127402D02*
X421366D01*
X403256Y57598D02*
X421366D01*
X306000Y91484D02*
Y95815D01*
X336500Y101335D02*
Y105665D01*
X320835Y91500D02*
X325165D01*
X80000Y105893D02*
Y110224D01*
X81043Y134803D02*
Y135197D01*
X71457Y139303D02*
Y139697D01*
X63335Y128500D02*
X67665D01*
X51000Y142835D02*
Y147165D01*
X63335Y142500D02*
X67665D01*
X317543Y107803D02*
Y108197D01*
X336500Y91835D02*
Y96165D01*
X51000Y124835D02*
Y129165D01*
X-1084Y89370D02*
Y210630D01*
X-12895D02*
X35924D01*
X-12895Y89370D02*
X35924D01*
X-36517Y117854D02*
Y182146D01*
X35924Y89370D02*
Y210630D01*
X-1084Y177559D02*
X35924D01*
X-12895Y89370D02*
Y210630D01*
X-1084Y122441D02*
X35924D01*
X-33761Y115098D02*
X-15651D01*
X-33761Y184902D02*
X-15651D01*
X36500Y44335D02*
Y48665D01*
X82000Y124544D02*
Y128875D01*
X267835Y114000D02*
X272165D01*
X305457Y103803D02*
Y104197D01*
X320835Y107500D02*
X325165D01*
X36000Y69835D02*
Y74165D01*
D11*
X142600Y144100D02*
G03*
X145500Y143000I2778J2951D01*
G01*
D02*
G03*
X148328Y144100I86J3964D01*
G01*
X148328Y149828D02*
G03*
X145500Y151000I-2829J-2828D01*
G01*
D02*
G03*
X142600Y149828I-36J-4087D01*
G01*
X166954Y138622D02*
G03*
X166954Y138622I-300J0D01*
G01*
X259000Y207000D02*
G03*
X259000Y207000I-7000J0D01*
G01*
X253000D02*
G03*
X253000Y207000I-1000J0D01*
G01*
X297600Y98400D02*
Y100600D01*
X294400Y98400D02*
X297600D01*
Y107400D02*
Y109600D01*
X294400D02*
X297600D01*
X89400Y140400D02*
Y142600D01*
X92600D01*
X89400Y131400D02*
Y133600D01*
Y131400D02*
X92600D01*
X173050Y143450D02*
X175968D01*
X173050Y86550D02*
X175968D01*
X229950D02*
Y89468D01*
X227032Y143450D02*
X229950D01*
X173050Y140532D02*
Y143450D01*
Y86550D02*
Y89468D01*
X227032Y86550D02*
X229950D01*
Y140532D02*
Y143450D01*
X255000Y219000D02*
Y220000D01*
X249000D02*
X255000D01*
X249000Y219000D02*
Y220000D01*
Y194000D02*
Y195000D01*
Y194000D02*
X255000D01*
Y195000D01*
X264000Y198500D02*
Y202000D01*
X240000Y212000D02*
Y215500D01*
Y202000D02*
Y212000D01*
Y198500D02*
Y202000D01*
X264000D02*
Y211500D01*
Y215500D01*
X255000Y219000D02*
X256000D01*
X248000D02*
X249000D01*
X255000Y195000D02*
X256000D01*
X248000D02*
X249000D01*
X284500Y46000D02*
X299500D01*
X284500Y45500D02*
Y46000D01*
X279500Y45500D02*
X284500D01*
X279500D02*
Y46000D01*
X277500D02*
X279500D01*
X277500Y42000D02*
Y46000D01*
X261500Y42000D02*
Y46000D01*
Y41000D02*
Y42000D01*
X244500Y41000D02*
X261500D01*
Y46000D02*
X277500D01*
X239500D02*
X261500D01*
X272000Y11000D02*
X289500D01*
Y10000D02*
Y11000D01*
X294500Y10000D02*
Y11000D01*
X289500Y10000D02*
X294500D01*
X272000D02*
Y11000D01*
X249500D02*
X267000D01*
Y10000D02*
Y11000D01*
Y10000D02*
X272000D01*
X239500Y11000D02*
X244500D01*
X249500Y10000D02*
Y11000D01*
X244500Y10000D02*
X249500D01*
X244500D02*
Y11000D01*
X277500Y41000D02*
Y42000D01*
Y41000D02*
X294500D01*
X277500Y38000D02*
Y41000D01*
X261500Y38000D02*
X277500D01*
X261500D02*
Y41000D01*
X299500Y11000D02*
Y46000D01*
X239500Y11000D02*
Y46000D01*
X294500Y11000D02*
X299500D01*
X294500Y16000D02*
Y41000D01*
X244500Y16000D02*
Y41000D01*
Y16000D02*
X294500D01*
X202000Y45000D02*
X217000D01*
X202000Y44500D02*
Y45000D01*
X197000Y44500D02*
X202000D01*
X197000D02*
Y45000D01*
X195000D02*
X197000D01*
X195000Y41000D02*
Y45000D01*
X179000Y41000D02*
Y45000D01*
Y40000D02*
Y41000D01*
X162000Y40000D02*
X179000D01*
Y45000D02*
X195000D01*
X157000D02*
X179000D01*
X189500Y10000D02*
X207000D01*
Y9000D02*
Y10000D01*
X212000Y9000D02*
Y10000D01*
X207000Y9000D02*
X212000D01*
X189500D02*
Y10000D01*
X167000D02*
X184500D01*
Y9000D02*
Y10000D01*
Y9000D02*
X189500D01*
X157000Y10000D02*
X162000D01*
X167000Y9000D02*
Y10000D01*
X162000Y9000D02*
X167000D01*
X162000D02*
Y10000D01*
X195000Y40000D02*
Y41000D01*
Y40000D02*
X212000D01*
X195000Y37000D02*
Y40000D01*
X179000Y37000D02*
X195000D01*
X179000D02*
Y40000D01*
X217000Y10000D02*
Y45000D01*
X157000Y10000D02*
Y45000D01*
X212000Y10000D02*
X217000D01*
X212000Y15000D02*
Y40000D01*
X162000Y15000D02*
Y40000D01*
Y15000D02*
X212000D01*
X135500Y44500D02*
X150500D01*
X135500Y44000D02*
Y44500D01*
X130500Y44000D02*
X135500D01*
X130500D02*
Y44500D01*
X128500D02*
X130500D01*
X128500Y40500D02*
Y44500D01*
X112500Y40500D02*
Y44500D01*
Y39500D02*
Y40500D01*
X95500Y39500D02*
X112500D01*
Y44500D02*
X128500D01*
X90500D02*
X112500D01*
X123000Y9500D02*
X140500D01*
Y8500D02*
Y9500D01*
X145500Y8500D02*
Y9500D01*
X140500Y8500D02*
X145500D01*
X123000D02*
Y9500D01*
X100500D02*
X118000D01*
Y8500D02*
Y9500D01*
Y8500D02*
X123000D01*
X90500Y9500D02*
X95500D01*
X100500Y8500D02*
Y9500D01*
X95500Y8500D02*
X100500D01*
X95500D02*
Y9500D01*
X128500Y39500D02*
Y40500D01*
Y39500D02*
X145500D01*
X128500Y36500D02*
Y39500D01*
X112500Y36500D02*
X128500D01*
X112500D02*
Y39500D01*
X150500Y9500D02*
Y44500D01*
X90500Y9500D02*
Y44500D01*
X145500Y9500D02*
X150500D01*
X145500Y14500D02*
Y39500D01*
X95500Y14500D02*
Y39500D01*
Y14500D02*
X145500D01*
X287800Y201400D02*
X293900D01*
Y183600D02*
Y201400D01*
X276100Y183600D02*
X282200D01*
X276100D02*
Y201400D01*
Y196900D02*
X280600Y201400D01*
X289400D02*
X293900Y196900D01*
X283500Y208300D02*
X286500D01*
X285000Y206800D02*
Y209800D01*
X276100Y201400D02*
X280600D01*
X282200D01*
X287800Y183600D02*
X293900D01*
D12*
X-21000Y54999D02*
G03*
X-21000Y35999I0J-9500D01*
G01*
X-21500Y82500D02*
G03*
X-21500Y63500I0J-9500D01*
G01*
X24500Y33499D02*
Y37999D01*
X14500D02*
X24500D01*
X14500D02*
Y52999D01*
X24500D01*
Y57499D01*
X-21000Y35999D02*
X-11000D01*
X-21000Y54999D02*
X-11000D01*
Y33499D02*
X24500D01*
X-11000D02*
Y57499D01*
X24500D01*
X24000Y61000D02*
Y65500D01*
X14000D02*
X24000D01*
X14000D02*
Y80500D01*
X24000D01*
Y85000D01*
X-21500Y63500D02*
X-11500D01*
X-21500Y82500D02*
X-11500D01*
Y61000D02*
X24000D01*
X-11500D02*
Y85000D01*
X24000D01*
X372665Y191300D02*
Y192500D01*
X377500Y199800D02*
X379500D01*
X377500Y170236D02*
X379500D01*
X372665Y177250D02*
Y178750D01*
X389398Y170236D02*
Y199800D01*
D13*
X102130Y231100D02*
X124087D01*
X138913D01*
X194100D01*
X209000D01*
X230900D01*
Y197965D02*
Y231100D01*
X209900Y197965D02*
X230900D01*
X209900D02*
Y199146D01*
X204100D02*
X209900D01*
X204100Y197965D02*
Y199146D01*
X174000Y197965D02*
X204100D01*
X174000D02*
Y204067D01*
X159087D02*
X174000D01*
X159087Y197965D02*
Y204067D01*
Y197965D02*
X174000D01*
X129878D02*
X159087D01*
X102130D02*
X124055D01*
X102130D02*
Y231100D01*
X106559Y227400D02*
X124059D01*
X138921D02*
X194100D01*
X209000D02*
X226500D01*
Y201606D02*
Y227400D01*
X174000Y201606D02*
X226500D01*
X106559D02*
X159087D01*
X106559D02*
Y227400D01*
X129878Y197965D02*
Y199146D01*
X124055D02*
X129878D01*
X124055Y197965D02*
Y199146D01*
X124087Y225000D02*
Y231100D01*
Y225000D02*
X138913D01*
Y231100D01*
X194100Y225000D02*
Y231100D01*
Y225000D02*
X209000D01*
Y231100D01*
D14*
X240000Y202000D02*
X241000D01*
Y212000D01*
X240000D02*
X241000D01*
X263000Y202000D02*
Y211500D01*
X264000D01*
X263000Y202000D02*
X264000D01*
X277500Y42000D02*
X295500D01*
Y15000D02*
Y42000D01*
X243500Y15000D02*
X295500D01*
X243500D02*
Y42000D01*
X261500D01*
X195000Y41000D02*
X213000D01*
Y14000D02*
Y41000D01*
X161000Y14000D02*
X213000D01*
X161000D02*
Y41000D01*
X179000D01*
X128500Y40500D02*
X146500D01*
Y13500D02*
Y40500D01*
X94500Y13500D02*
X146500D01*
X94500D02*
Y40500D01*
X112500D01*
D15*
X348100Y170400D02*
X354847D01*
X348100Y173575D02*
X354847D01*
D16*
X46000Y218871D02*
Y211000D01*
X49936D01*
X51248Y212312D01*
Y213624D01*
X49936Y214936D01*
X46000D01*
X49936D01*
X51248Y216248D01*
Y217560D01*
X49936Y218871D01*
X46000D01*
X55183Y211000D02*
X57807D01*
X59119Y212312D01*
Y214936D01*
X57807Y216248D01*
X55183D01*
X53872Y214936D01*
Y212312D01*
X55183Y211000D01*
X61743Y218871D02*
X66991D01*
X64367D01*
Y211000D01*
X69614D02*
X72238D01*
X70926D01*
Y216248D01*
X69614D01*
X222000Y37500D02*
Y41436D01*
X223968D01*
X224624Y40780D01*
Y39468D01*
X223968Y38812D01*
X222000D01*
X223312D02*
X224624Y37500D01*
X225936Y40780D02*
X226592Y41436D01*
X227904D01*
X228560Y40780D01*
Y40124D01*
X227904Y39468D01*
X227248D01*
X227904D01*
X228560Y38812D01*
Y38156D01*
X227904Y37500D01*
X226592D01*
X225936Y38156D01*
X229872Y40780D02*
X230527Y41436D01*
X231839D01*
X232495Y40780D01*
Y38156D01*
X231839Y37500D01*
X230527D01*
X229872Y38156D01*
Y40780D01*
X222000Y15000D02*
Y18936D01*
X223968D01*
X224624Y18280D01*
Y16968D01*
X223968Y16312D01*
X222000D01*
X223312D02*
X224624Y15000D01*
X228560D02*
X225936D01*
X228560Y17624D01*
Y18280D01*
X227904Y18936D01*
X226592D01*
X225936Y18280D01*
X229872Y15656D02*
X230527Y15000D01*
X231839D01*
X232495Y15656D01*
Y18280D01*
X231839Y18936D01*
X230527D01*
X229872Y18280D01*
Y17624D01*
X230527Y16968D01*
X232495D01*
X57500Y110298D02*
Y105300D01*
X58500Y104300D01*
X60499D01*
X61499Y105300D01*
Y110298D01*
X66497Y104300D02*
Y110298D01*
X63498Y107299D01*
X67497D01*
X285500Y142898D02*
Y137900D01*
X286500Y136900D01*
X288499D01*
X289499Y137900D01*
Y142898D01*
X291498Y141898D02*
X292498Y142898D01*
X294497D01*
X295497Y141898D01*
Y140899D01*
X294497Y139899D01*
X293497D01*
X294497D01*
X295497Y138899D01*
Y137900D01*
X294497Y136900D01*
X292498D01*
X291498Y137900D01*
X86500Y108000D02*
Y111936D01*
X88468D01*
X89124Y111280D01*
Y109968D01*
X88468Y109312D01*
X86500D01*
X87812D02*
X89124Y108000D01*
X93060D02*
X90436D01*
X93060Y110624D01*
Y111280D01*
X92404Y111936D01*
X91092D01*
X90436Y111280D01*
X94371D02*
X95027Y111936D01*
X96339D01*
X96995Y111280D01*
Y110624D01*
X96339Y109968D01*
X96995Y109312D01*
Y108656D01*
X96339Y108000D01*
X95027D01*
X94371Y108656D01*
Y109312D01*
X95027Y109968D01*
X94371Y110624D01*
Y111280D01*
X95027Y109968D02*
X96339D01*
X255500Y112000D02*
Y115936D01*
X257468D01*
X258124Y115280D01*
Y113968D01*
X257468Y113312D01*
X255500D01*
X256812D02*
X258124Y112000D01*
X262060D02*
X259436D01*
X262060Y114624D01*
Y115280D01*
X261404Y115936D01*
X260092D01*
X259436Y115280D01*
X263371Y115936D02*
X265995D01*
Y115280D01*
X263371Y112656D01*
Y112000D01*
X63088Y151000D02*
Y154936D01*
X65056D01*
X65711Y154280D01*
Y152968D01*
X65056Y152312D01*
X63088D01*
X64399D02*
X65711Y151000D01*
X69647D02*
X67023D01*
X69647Y153624D01*
Y154280D01*
X68991Y154936D01*
X67679D01*
X67023Y154280D01*
X73583Y154936D02*
X72271Y154280D01*
X70959Y152968D01*
Y151656D01*
X71615Y151000D01*
X72927D01*
X73583Y151656D01*
Y152312D01*
X72927Y152968D01*
X70959D01*
X77500Y117000D02*
Y120936D01*
X79468D01*
X80124Y120280D01*
Y118968D01*
X79468Y118312D01*
X77500D01*
X78812D02*
X80124Y117000D01*
X84060D02*
X81436D01*
X84060Y119624D01*
Y120280D01*
X83404Y120936D01*
X82092D01*
X81436Y120280D01*
X87995Y120936D02*
X85372D01*
Y118968D01*
X86683Y119624D01*
X87339D01*
X87995Y118968D01*
Y117656D01*
X87339Y117000D01*
X86027D01*
X85372Y117656D01*
X46500Y151000D02*
Y154936D01*
X48468D01*
X49124Y154280D01*
Y152968D01*
X48468Y152312D01*
X46500D01*
X47812D02*
X49124Y151000D01*
X53060D02*
X50436D01*
X53060Y153624D01*
Y154280D01*
X52404Y154936D01*
X51092D01*
X50436Y154280D01*
X56339Y151000D02*
Y154936D01*
X54372Y152968D01*
X56995D01*
X45000Y117000D02*
Y120936D01*
X46968D01*
X47624Y120280D01*
Y118968D01*
X46968Y118312D01*
X45000D01*
X46312D02*
X47624Y117000D01*
X51560D02*
X48936D01*
X51560Y119624D01*
Y120280D01*
X50904Y120936D01*
X49592D01*
X48936Y120280D01*
X52872D02*
X53527Y120936D01*
X54839D01*
X55495Y120280D01*
Y119624D01*
X54839Y118968D01*
X54183D01*
X54839D01*
X55495Y118312D01*
Y117656D01*
X54839Y117000D01*
X53527D01*
X52872Y117656D01*
X62000Y116500D02*
Y120436D01*
X63968D01*
X64624Y119780D01*
Y118468D01*
X63968Y117812D01*
X62000D01*
X63312D02*
X64624Y116500D01*
X68560D02*
X65936D01*
X68560Y119124D01*
Y119780D01*
X67904Y120436D01*
X66592D01*
X65936Y119780D01*
X72495Y116500D02*
X69871D01*
X72495Y119124D01*
Y119780D01*
X71839Y120436D01*
X70527D01*
X69871Y119780D01*
X319000Y80500D02*
Y84436D01*
X320968D01*
X321624Y83780D01*
Y82468D01*
X320968Y81812D01*
X319000D01*
X320312D02*
X321624Y80500D01*
X325560D02*
X322936D01*
X325560Y83124D01*
Y83780D01*
X324904Y84436D01*
X323592D01*
X322936Y83780D01*
X326871Y80500D02*
X328183D01*
X327527D01*
Y84436D01*
X326871Y83780D01*
X301500Y84000D02*
Y87936D01*
X303468D01*
X304124Y87280D01*
Y85968D01*
X303468Y85312D01*
X301500D01*
X302812D02*
X304124Y84000D01*
X308060D02*
X305436D01*
X308060Y86624D01*
Y87280D01*
X307404Y87936D01*
X306092D01*
X305436Y87280D01*
X309371D02*
X310027Y87936D01*
X311339D01*
X311995Y87280D01*
Y84656D01*
X311339Y84000D01*
X310027D01*
X309371Y84656D01*
Y87280D01*
X333000Y85500D02*
Y89436D01*
X334968D01*
X335624Y88780D01*
Y87468D01*
X334968Y86812D01*
X333000D01*
X334312D02*
X335624Y85500D01*
X336936D02*
X338248D01*
X337592D01*
Y89436D01*
X336936Y88780D01*
X340215Y86156D02*
X340872Y85500D01*
X342183D01*
X342839Y86156D01*
Y88780D01*
X342183Y89436D01*
X340872D01*
X340215Y88780D01*
Y88124D01*
X340872Y87468D01*
X342839D01*
X334500Y107500D02*
Y111436D01*
X336468D01*
X337124Y110780D01*
Y109468D01*
X336468Y108812D01*
X334500D01*
X335812D02*
X337124Y107500D01*
X338436D02*
X339748D01*
X339092D01*
Y111436D01*
X338436Y110780D01*
X341716D02*
X342372Y111436D01*
X343683D01*
X344339Y110780D01*
Y110124D01*
X343683Y109468D01*
X344339Y108812D01*
Y108156D01*
X343683Y107500D01*
X342372D01*
X341716Y108156D01*
Y108812D01*
X342372Y109468D01*
X341716Y110124D01*
Y110780D01*
X342372Y109468D02*
X343683D01*
X320900Y116200D02*
Y120136D01*
X322868D01*
X323524Y119480D01*
Y118168D01*
X322868Y117512D01*
X320900D01*
X322212D02*
X323524Y116200D01*
X324836D02*
X326148D01*
X325492D01*
Y120136D01*
X324836Y119480D01*
X328116Y120136D02*
X330739D01*
Y119480D01*
X328116Y116856D01*
Y116200D01*
X92000Y151936D02*
Y148000D01*
X93968D01*
X94624Y148656D01*
Y151280D01*
X93968Y151936D01*
X92000D01*
X97904Y148000D02*
Y151936D01*
X95936Y149968D01*
X98560D01*
X289000Y94436D02*
Y90500D01*
X290968D01*
X291624Y91156D01*
Y93780D01*
X290968Y94436D01*
X289000D01*
X292936Y93780D02*
X293592Y94436D01*
X294904D01*
X295560Y93780D01*
Y93124D01*
X294904Y92468D01*
X294248D01*
X294904D01*
X295560Y91812D01*
Y91156D01*
X294904Y90500D01*
X293592D01*
X292936Y91156D01*
X80986Y141189D02*
X80330Y141845D01*
X79018D01*
X78362Y141189D01*
Y138565D01*
X79018Y137909D01*
X80330D01*
X80986Y138565D01*
X84922Y137909D02*
X82298D01*
X84922Y140533D01*
Y141189D01*
X84266Y141845D01*
X82954D01*
X82298Y141189D01*
X86234D02*
X86890Y141845D01*
X88202D01*
X88858Y141189D01*
Y138565D01*
X88202Y137909D01*
X86890D01*
X86234Y138565D01*
Y141189D01*
X73624Y146280D02*
X72968Y146936D01*
X71656D01*
X71000Y146280D01*
Y143656D01*
X71656Y143000D01*
X72968D01*
X73624Y143656D01*
X74936Y143000D02*
X76248D01*
X75592D01*
Y146936D01*
X74936Y146280D01*
X78215Y143656D02*
X78872Y143000D01*
X80183D01*
X80839Y143656D01*
Y146280D01*
X80183Y146936D01*
X78872D01*
X78215Y146280D01*
Y145624D01*
X78872Y144968D01*
X80839D01*
X312624Y101280D02*
X311968Y101936D01*
X310656D01*
X310000Y101280D01*
Y98656D01*
X310656Y98000D01*
X311968D01*
X312624Y98656D01*
X313936Y98000D02*
X315248D01*
X314592D01*
Y101936D01*
X313936Y101280D01*
X317215D02*
X317871Y101936D01*
X319183D01*
X319839Y101280D01*
Y100624D01*
X319183Y99968D01*
X319839Y99312D01*
Y98656D01*
X319183Y98000D01*
X317871D01*
X317215Y98656D01*
Y99312D01*
X317871Y99968D01*
X317215Y100624D01*
Y101280D01*
X317871Y99968D02*
X319183D01*
X305124Y111780D02*
X304468Y112436D01*
X303156D01*
X302500Y111780D01*
Y109156D01*
X303156Y108500D01*
X304468D01*
X305124Y109156D01*
X306436Y108500D02*
X307748D01*
X307092D01*
Y112436D01*
X306436Y111780D01*
X309716Y112436D02*
X312339D01*
Y111780D01*
X309716Y109156D01*
Y108500D01*
X90000Y230998D02*
X93999Y225000D01*
Y230998D02*
X90000Y225000D01*
X95998D02*
X97997D01*
X96998D01*
Y230998D01*
X95998Y229998D01*
X368100Y213698D02*
Y208700D01*
X369100Y207700D01*
X371099D01*
X372099Y208700D01*
Y213698D01*
X378097Y212698D02*
X377097Y213698D01*
X375098D01*
X374098Y212698D01*
Y211699D01*
X375098Y210699D01*
X377097D01*
X378097Y209699D01*
Y208700D01*
X377097Y207700D01*
X375098D01*
X374098Y208700D01*
X380096Y213698D02*
Y207700D01*
X383095D01*
X384095Y208700D01*
Y209699D01*
X383095Y210699D01*
X380096D01*
X383095D01*
X384095Y211699D01*
Y212698D01*
X383095Y213698D01*
X380096D01*
X307500Y210798D02*
Y205800D01*
X308500Y204800D01*
X310499D01*
X311499Y205800D01*
Y210798D01*
X317497Y204800D02*
X313498D01*
X317497Y208799D01*
Y209798D01*
X316497Y210798D01*
X314498D01*
X313498Y209798D01*
X157500Y152498D02*
Y147500D01*
X158500Y146500D01*
X160499D01*
X161499Y147500D01*
Y152498D01*
X163498Y146500D02*
X165497D01*
X164498D01*
Y152498D01*
X163498Y151498D01*
X95199Y52798D02*
X94199Y53798D01*
X92200D01*
X91200Y52798D01*
Y51799D01*
X92200Y50799D01*
X94199D01*
X95199Y49799D01*
Y48800D01*
X94199Y47800D01*
X92200D01*
X91200Y48800D01*
X97198Y53798D02*
Y49799D01*
X99197Y47800D01*
X101197Y49799D01*
Y53798D01*
X103196Y52798D02*
X104196Y53798D01*
X106195D01*
X107195Y52798D01*
Y51799D01*
X106195Y50799D01*
X105195D01*
X106195D01*
X107195Y49799D01*
Y48800D01*
X106195Y47800D01*
X104196D01*
X103196Y48800D01*
X161699Y53298D02*
X160699Y54298D01*
X158700D01*
X157700Y53298D01*
Y52299D01*
X158700Y51299D01*
X160699D01*
X161699Y50299D01*
Y49300D01*
X160699Y48300D01*
X158700D01*
X157700Y49300D01*
X163698Y54298D02*
Y50299D01*
X165697Y48300D01*
X167697Y50299D01*
Y54298D01*
X173695Y48300D02*
X169696D01*
X173695Y52299D01*
Y53298D01*
X172695Y54298D01*
X170696D01*
X169696Y53298D01*
X244199Y54298D02*
X243199Y55298D01*
X241200D01*
X240200Y54298D01*
Y53299D01*
X241200Y52299D01*
X243199D01*
X244199Y51299D01*
Y50300D01*
X243199Y49300D01*
X241200D01*
X240200Y50300D01*
X246198Y55298D02*
Y51299D01*
X248197Y49300D01*
X250197Y51299D01*
Y55298D01*
X252196Y49300D02*
X254195D01*
X253196D01*
Y55298D01*
X252196Y54298D01*
X252499Y229498D02*
X251499Y230498D01*
X249500D01*
X248500Y229498D01*
Y228499D01*
X249500Y227499D01*
X251499D01*
X252499Y226499D01*
Y225500D01*
X251499Y224500D01*
X249500D01*
X248500Y225500D01*
X254498Y224500D02*
X256497D01*
X255498D01*
Y230498D01*
X254498Y229498D01*
X168500Y156000D02*
X164564D01*
Y157968D01*
X165220Y158624D01*
X166532D01*
X167188Y157968D01*
Y156000D01*
Y157312D02*
X168500Y158624D01*
Y159936D02*
Y161248D01*
Y160592D01*
X164564D01*
X165220Y159936D01*
X164564Y165839D02*
X165220Y164527D01*
X166532Y163215D01*
X167844D01*
X168500Y163872D01*
Y165183D01*
X167844Y165839D01*
X167188D01*
X166532Y165183D01*
Y163215D01*
X154500Y124500D02*
Y128436D01*
X156468D01*
X157124Y127780D01*
Y126468D01*
X156468Y125812D01*
X154500D01*
X155812D02*
X157124Y124500D01*
X158436D02*
X159748D01*
X159092D01*
Y128436D01*
X158436Y127780D01*
X164339Y128436D02*
X161715D01*
Y126468D01*
X163027Y127124D01*
X163683D01*
X164339Y126468D01*
Y125156D01*
X163683Y124500D01*
X162372D01*
X161715Y125156D01*
X219000Y176500D02*
Y180436D01*
X220968D01*
X221624Y179780D01*
Y178468D01*
X220968Y177812D01*
X219000D01*
X220312D02*
X221624Y176500D01*
X222936D02*
X224248D01*
X223592D01*
Y180436D01*
X222936Y179780D01*
X228183Y176500D02*
Y180436D01*
X226216Y178468D01*
X228839D01*
X202500Y176500D02*
Y180436D01*
X204468D01*
X205124Y179780D01*
Y178468D01*
X204468Y177812D01*
X202500D01*
X203812D02*
X205124Y176500D01*
X206436D02*
X207748D01*
X207092D01*
Y180436D01*
X206436Y179780D01*
X209716D02*
X210371Y180436D01*
X211683D01*
X212339Y179780D01*
Y179124D01*
X211683Y178468D01*
X211027D01*
X211683D01*
X212339Y177812D01*
Y177156D01*
X211683Y176500D01*
X210371D01*
X209716Y177156D01*
X254500Y171500D02*
Y175436D01*
X256468D01*
X257124Y174780D01*
Y173468D01*
X256468Y172812D01*
X254500D01*
X255812D02*
X257124Y171500D01*
X258436D02*
X259748D01*
X259092D01*
Y175436D01*
X258436Y174780D01*
X264339Y171500D02*
X261716D01*
X264339Y174124D01*
Y174780D01*
X263683Y175436D01*
X262371D01*
X261716Y174780D01*
X187500Y176500D02*
Y180436D01*
X189468D01*
X190124Y179780D01*
Y178468D01*
X189468Y177812D01*
X187500D01*
X188812D02*
X190124Y176500D01*
X191436D02*
X192748D01*
X192092D01*
Y180436D01*
X191436Y179780D01*
X194715Y176500D02*
X196027D01*
X195371D01*
Y180436D01*
X194715Y179780D01*
X31300Y78100D02*
Y84098D01*
X34299D01*
X35299Y83098D01*
Y81099D01*
X34299Y80099D01*
X31300D01*
X33299D02*
X35299Y78100D01*
X37298D02*
X39297D01*
X38298D01*
Y84098D01*
X37298Y83098D01*
X42296D02*
X43296Y84098D01*
X45296D01*
X46295Y83098D01*
Y79100D01*
X45296Y78100D01*
X43296D01*
X42296Y79100D01*
Y83098D01*
X165000Y176500D02*
Y180436D01*
X166968D01*
X167624Y179780D01*
Y178468D01*
X166968Y177812D01*
X165000D01*
X166312D02*
X167624Y176500D01*
X168936Y177156D02*
X169592Y176500D01*
X170904D01*
X171560Y177156D01*
Y179780D01*
X170904Y180436D01*
X169592D01*
X168936Y179780D01*
Y179124D01*
X169592Y178468D01*
X171560D01*
X148000Y173500D02*
Y177436D01*
X149968D01*
X150624Y176780D01*
Y175468D01*
X149968Y174812D01*
X148000D01*
X149312D02*
X150624Y173500D01*
X151936Y176780D02*
X152592Y177436D01*
X153904D01*
X154560Y176780D01*
Y176124D01*
X153904Y175468D01*
X154560Y174812D01*
Y174156D01*
X153904Y173500D01*
X152592D01*
X151936Y174156D01*
Y174812D01*
X152592Y175468D01*
X151936Y176124D01*
Y176780D01*
X152592Y175468D02*
X153904D01*
X35000Y36000D02*
Y41998D01*
X37999D01*
X38999Y40998D01*
Y38999D01*
X37999Y37999D01*
X35000D01*
X36999D02*
X38999Y36000D01*
X40998Y41998D02*
X44997D01*
Y40998D01*
X40998Y37000D01*
Y36000D01*
X129000Y175000D02*
Y178936D01*
X130968D01*
X131624Y178280D01*
Y176968D01*
X130968Y176312D01*
X129000D01*
X130312D02*
X131624Y175000D01*
X135560Y178936D02*
X134248Y178280D01*
X132936Y176968D01*
Y175656D01*
X133592Y175000D01*
X134904D01*
X135560Y175656D01*
Y176312D01*
X134904Y176968D01*
X132936D01*
X112000Y175000D02*
Y178936D01*
X113968D01*
X114624Y178280D01*
Y176968D01*
X113968Y176312D01*
X112000D01*
X113312D02*
X114624Y175000D01*
X118560Y178936D02*
X115936D01*
Y176968D01*
X117248Y177624D01*
X117904D01*
X118560Y176968D01*
Y175656D01*
X117904Y175000D01*
X116592D01*
X115936Y175656D01*
X95000Y175000D02*
Y178936D01*
X96968D01*
X97624Y178280D01*
Y176968D01*
X96968Y176312D01*
X95000D01*
X96312D02*
X97624Y175000D01*
X100904D02*
Y178936D01*
X98936Y176968D01*
X101560D01*
X353000Y225500D02*
Y231498D01*
X355999D01*
X356999Y230498D01*
Y228499D01*
X355999Y227499D01*
X353000D01*
X354999D02*
X356999Y225500D01*
X358998Y230498D02*
X359998Y231498D01*
X361997D01*
X362997Y230498D01*
Y229499D01*
X361997Y228499D01*
X360997D01*
X361997D01*
X362997Y227499D01*
Y226500D01*
X361997Y225500D01*
X359998D01*
X358998Y226500D01*
X347500Y194500D02*
Y200498D01*
X350499D01*
X351499Y199498D01*
Y197499D01*
X350499Y196499D01*
X347500D01*
X349499D02*
X351499Y194500D01*
X357497D02*
X353498D01*
X357497Y198499D01*
Y199498D01*
X356497Y200498D01*
X354498D01*
X353498Y199498D01*
X335000Y172000D02*
Y177998D01*
X337999D01*
X338999Y176998D01*
Y174999D01*
X337999Y173999D01*
X335000D01*
X336999D02*
X338999Y172000D01*
X340998D02*
X342997D01*
X341998D01*
Y177998D01*
X340998Y176998D01*
X124336Y127156D02*
Y129780D01*
X123680Y130436D01*
X122368D01*
X121712Y129780D01*
Y127156D01*
X122368Y126500D01*
X123680D01*
X123024Y127812D02*
X124336Y126500D01*
X123680D02*
X124336Y127156D01*
X128272Y126500D02*
X125648D01*
X128272Y129124D01*
Y129780D01*
X127616Y130436D01*
X126304D01*
X125648Y129780D01*
X145624Y154656D02*
Y157280D01*
X144968Y157936D01*
X143656D01*
X143000Y157280D01*
Y154656D01*
X143656Y154000D01*
X144968D01*
X144312Y155312D02*
X145624Y154000D01*
X144968D02*
X145624Y154656D01*
X146936Y154000D02*
X148248D01*
X147592D01*
Y157936D01*
X146936Y157280D01*
X349500Y165436D02*
Y161500D01*
X352124D01*
X353436D02*
X354748D01*
X354092D01*
Y165436D01*
X353436Y164780D01*
X12104Y221998D02*
X10105D01*
X11104D01*
Y217000D01*
X10105Y216000D01*
X9105D01*
X8105Y217000D01*
X18102Y216000D02*
X14103D01*
X18102Y219999D01*
Y220998D01*
X17102Y221998D01*
X15103D01*
X14103Y220998D01*
X341999Y146998D02*
X339999D01*
X340999D01*
Y142000D01*
X339999Y141000D01*
X339000D01*
X338000Y142000D01*
X343998Y141000D02*
X345997D01*
X344998D01*
Y146998D01*
X343998Y145998D01*
X17000Y75498D02*
Y69500D01*
X19999D01*
X20999Y70500D01*
Y74498D01*
X19999Y75498D01*
X17000D01*
X26997Y69500D02*
X22998D01*
X26997Y73499D01*
Y74498D01*
X25997Y75498D01*
X23998D01*
X22998Y74498D01*
X20000Y47998D02*
Y42000D01*
X22999D01*
X23999Y43000D01*
Y46998D01*
X22999Y47998D01*
X20000D01*
X25998Y42000D02*
X27997D01*
X26998D01*
Y47998D01*
X25998Y46998D01*
X238124Y69780D02*
X237468Y70436D01*
X236156D01*
X235500Y69780D01*
Y67156D01*
X236156Y66500D01*
X237468D01*
X238124Y67156D01*
X239436Y66500D02*
X240748D01*
X240092D01*
Y70436D01*
X239436Y69780D01*
X245339Y70436D02*
X244027Y69780D01*
X242716Y68468D01*
Y67156D01*
X243372Y66500D01*
X244683D01*
X245339Y67156D01*
Y67812D01*
X244683Y68468D01*
X242716D01*
X300780Y210376D02*
X301436Y211032D01*
Y212344D01*
X300780Y213000D01*
X298156D01*
X297500Y212344D01*
Y211032D01*
X298156Y210376D01*
Y209064D02*
X297500Y208408D01*
Y207096D01*
X298156Y206440D01*
X300780D01*
X301436Y207096D01*
Y208408D01*
X300780Y209064D01*
X300124D01*
X299468Y208408D01*
Y206440D01*
X279799Y218098D02*
X278799Y219098D01*
X276800D01*
X275800Y218098D01*
Y214100D01*
X276800Y213100D01*
X278799D01*
X279799Y214100D01*
X281798Y218098D02*
X282798Y219098D01*
X284797D01*
X285797Y218098D01*
Y217099D01*
X284797Y216099D01*
X285797Y215099D01*
Y214100D01*
X284797Y213100D01*
X282798D01*
X281798Y214100D01*
Y215099D01*
X282798Y216099D01*
X281798Y217099D01*
Y218098D01*
X282798Y216099D02*
X284797D01*
X326999Y219498D02*
X325999Y220498D01*
X324000D01*
X323000Y219498D01*
Y215500D01*
X324000Y214500D01*
X325999D01*
X326999Y215500D01*
X328998Y220498D02*
X332997D01*
Y219498D01*
X328998Y215500D01*
Y214500D01*
X151124Y102280D02*
X150468Y102936D01*
X149156D01*
X148500Y102280D01*
Y99656D01*
X149156Y99000D01*
X150468D01*
X151124Y99656D01*
X155060Y102936D02*
X153748Y102280D01*
X152436Y100968D01*
Y99656D01*
X153092Y99000D01*
X154404D01*
X155060Y99656D01*
Y100312D01*
X154404Y100968D01*
X152436D01*
X141624Y139280D02*
X140968Y139936D01*
X139656D01*
X139000Y139280D01*
Y136656D01*
X139656Y136000D01*
X140968D01*
X141624Y136656D01*
X145560Y139936D02*
X142936D01*
Y137968D01*
X144248Y138624D01*
X144904D01*
X145560Y137968D01*
Y136656D01*
X144904Y136000D01*
X143592D01*
X142936Y136656D01*
X242624Y175280D02*
X241968Y175936D01*
X240656D01*
X240000Y175280D01*
Y172656D01*
X240656Y172000D01*
X241968D01*
X242624Y172656D01*
X245904Y172000D02*
Y175936D01*
X243936Y173968D01*
X246560D01*
X338999Y228998D02*
X337999Y229998D01*
X336000D01*
X335000Y228998D01*
Y225000D01*
X336000Y224000D01*
X337999D01*
X338999Y225000D01*
X340998Y228998D02*
X341998Y229998D01*
X343997D01*
X344997Y228998D01*
Y227999D01*
X343997Y226999D01*
X342997D01*
X343997D01*
X344997Y225999D01*
Y225000D01*
X343997Y224000D01*
X341998D01*
X340998Y225000D01*
X131124Y159577D02*
X130468Y160233D01*
X129156D01*
X128500Y159577D01*
Y156953D01*
X129156Y156297D01*
X130468D01*
X131124Y156953D01*
X135060Y156297D02*
X132436D01*
X135060Y158921D01*
Y159577D01*
X134404Y160233D01*
X133092D01*
X132436Y159577D01*
X156125Y159780D02*
X155469Y160436D01*
X154157D01*
X153501Y159780D01*
Y157156D01*
X154157Y156500D01*
X155469D01*
X156125Y157156D01*
X157437Y156500D02*
X158749D01*
X158093D01*
Y160436D01*
X157437Y159780D01*
D17*
X343905Y115295D02*
Y113327D01*
Y114311D01*
X349809D01*
X348825Y115295D01*
X349809Y68722D02*
Y72658D01*
X346857D01*
X347841Y70690D01*
Y69706D01*
X346857Y68722D01*
X344889D01*
X343905Y69706D01*
Y71674D01*
X344889Y72658D01*
X381897Y78110D02*
X380913Y77126D01*
Y75158D01*
X381897Y74174D01*
X385833D01*
X386817Y75158D01*
Y77126D01*
X385833Y78110D01*
X384849D01*
X383865Y77126D01*
Y74174D01*
X386817Y106891D02*
X385833Y108859D01*
X383865Y110827D01*
X381897D01*
X380913Y109843D01*
Y107875D01*
X381897Y106891D01*
X382881D01*
X383865Y107875D01*
Y110827D01*
X43700Y127205D02*
Y129173D01*
Y128189D01*
X37796D01*
X38780Y127205D01*
X37796Y173778D02*
Y169843D01*
X40748D01*
X39764Y171810D01*
Y172794D01*
X40748Y173778D01*
X42716D01*
X43700Y172794D01*
Y170826D01*
X42716Y169843D01*
X5708Y164390D02*
X6692Y165374D01*
Y167342D01*
X5708Y168325D01*
X1772D01*
X788Y167342D01*
Y165374D01*
X1772Y164390D01*
X2756D01*
X3740Y165374D01*
Y168325D01*
X788Y135609D02*
X1772Y133641D01*
X3740Y131673D01*
X5708D01*
X6692Y132657D01*
Y134625D01*
X5708Y135609D01*
X4724D01*
X3740Y134625D01*
Y131673D01*
D18*
X351494Y171997D02*
D03*
M02*
