G04*
G04 #@! TF.GenerationSoftware,Altium Limited,Altium Designer,18.0.7 (293)*
G04*
G04 Layer_Color=16711935*
%FSLAX25Y25*%
%MOIN*%
G70*
G01*
G75*
%ADD46R,0.03600X0.04400*%
%ADD47R,0.04400X0.03600*%
%ADD61C,0.07453*%
%ADD62R,0.07453X0.07453*%
%ADD63C,0.19540*%
%ADD64C,0.05600*%
%ADD65C,0.06400*%
%ADD66O,0.06800X0.12800*%
%ADD67C,0.07800*%
%ADD68P,0.06711X8X202.5*%
%ADD69C,0.03162*%
D46*
X178941Y135500D02*
D03*
X184100D02*
D03*
X187559Y93000D02*
D03*
X182400D02*
D03*
X224559Y94000D02*
D03*
X219400D02*
D03*
D47*
X179500Y102941D02*
D03*
Y108100D02*
D03*
X181000Y116941D02*
D03*
Y122100D02*
D03*
X223000Y138559D02*
D03*
Y133400D02*
D03*
D61*
X357508Y70689D02*
D03*
X368689Y76142D02*
D03*
X357508Y81595D02*
D03*
X368689Y87047D02*
D03*
X357508Y92500D02*
D03*
X368689Y97953D02*
D03*
X357508Y103405D02*
D03*
X368689Y108858D02*
D03*
X30097Y171811D02*
D03*
X18916Y166358D02*
D03*
X30097Y160906D02*
D03*
X18916Y155453D02*
D03*
X30097Y150000D02*
D03*
X18916Y144547D02*
D03*
X30097Y139094D02*
D03*
X18916Y133642D02*
D03*
D62*
X357508Y114311D02*
D03*
X30097Y128189D02*
D03*
D63*
X363098Y141693D02*
D03*
Y43307D02*
D03*
X24507Y100807D02*
D03*
Y199193D02*
D03*
D64*
X150500Y147000D02*
D03*
X140500D02*
D03*
D65*
X121500Y209500D02*
D03*
Y219500D02*
D03*
X131500Y209500D02*
D03*
Y219500D02*
D03*
X141500Y209500D02*
D03*
Y219500D02*
D03*
X151500Y209500D02*
D03*
Y219500D02*
D03*
X161500Y209500D02*
D03*
Y219500D02*
D03*
X171500Y209500D02*
D03*
Y219500D02*
D03*
X181500Y209500D02*
D03*
Y219500D02*
D03*
X191500Y209500D02*
D03*
Y219500D02*
D03*
X201500Y209500D02*
D03*
Y219500D02*
D03*
X211500Y209500D02*
D03*
Y219500D02*
D03*
D66*
X243100Y194200D02*
D03*
X260900D02*
D03*
X243100Y219800D02*
D03*
X260900D02*
D03*
D67*
X9500Y50499D02*
D03*
Y40499D02*
D03*
X9000Y78000D02*
D03*
Y68000D02*
D03*
D68*
X259500Y23500D02*
D03*
Y33500D02*
D03*
X269500Y23500D02*
D03*
Y33500D02*
D03*
X279500Y23500D02*
D03*
Y33500D02*
D03*
X177000Y22500D02*
D03*
Y32500D02*
D03*
X187000Y22500D02*
D03*
Y32500D02*
D03*
X197000Y22500D02*
D03*
Y32500D02*
D03*
X110500Y22000D02*
D03*
Y32000D02*
D03*
X120500Y22000D02*
D03*
Y32000D02*
D03*
X130500Y22000D02*
D03*
Y32000D02*
D03*
D69*
X193000Y104000D02*
D03*
X197500D02*
D03*
X202000D02*
D03*
Y109000D02*
D03*
X197500D02*
D03*
X193000D02*
D03*
X202000Y119000D02*
D03*
X197500D02*
D03*
X193000D02*
D03*
X202000Y123500D02*
D03*
X193000D02*
D03*
X202000Y128000D02*
D03*
X197500D02*
D03*
X193000D02*
D03*
X157000Y196500D02*
D03*
X154500Y193500D02*
D03*
X51000Y110500D02*
D03*
X51500Y106500D02*
D03*
Y102500D02*
D03*
X72000Y129500D02*
D03*
X165500Y81500D02*
D03*
X163000Y84500D02*
D03*
X225000Y74500D02*
D03*
X176500Y123500D02*
D03*
X318000Y126000D02*
D03*
X185500Y214500D02*
D03*
X134000Y197500D02*
D03*
X123500Y163000D02*
D03*
X225000Y90000D02*
D03*
X242500Y62500D02*
D03*
X260500Y61500D02*
D03*
X262500Y124000D02*
D03*
X263000Y135000D02*
D03*
X261500Y56000D02*
D03*
X250000Y55000D02*
D03*
X200500Y40500D02*
D03*
X188000Y40000D02*
D03*
X150000D02*
D03*
X148500Y79000D02*
D03*
X243500Y136000D02*
D03*
X243216Y161284D02*
D03*
X294000Y157500D02*
D03*
X296000Y134500D02*
D03*
X57000Y71000D02*
D03*
X46000Y89000D02*
D03*
X52500Y90000D02*
D03*
X238000Y49000D02*
D03*
X239000Y64500D02*
D03*
X160000Y78500D02*
D03*
X154000Y74500D02*
D03*
X122500Y70000D02*
D03*
X126500Y69500D02*
D03*
X113000Y71000D02*
D03*
X178500Y130000D02*
D03*
X344000Y200000D02*
D03*
X338000Y168000D02*
D03*
X324500Y79000D02*
D03*
Y119500D02*
D03*
X189500Y170500D02*
D03*
X252500Y150862D02*
D03*
Y147500D02*
D03*
X250814Y121814D02*
D03*
X248436Y119436D02*
D03*
X227000Y138500D02*
D03*
X179500Y140000D02*
D03*
X176000Y117500D02*
D03*
X177000Y98500D02*
D03*
X180311Y89019D02*
D03*
X102000Y53500D02*
D03*
X105000Y50500D02*
D03*
X103750Y73250D02*
D03*
X106750Y70250D02*
D03*
X183000Y179000D02*
D03*
X71500Y67500D02*
D03*
X71000Y54000D02*
D03*
X48000Y71500D02*
D03*
X271000Y105500D02*
D03*
X282500Y113000D02*
D03*
X93000Y95000D02*
D03*
X101500D02*
D03*
X150500Y179500D02*
D03*
X142500D02*
D03*
X115500Y193000D02*
D03*
X126500Y202000D02*
D03*
M02*
