G04*
G04 #@! TF.GenerationSoftware,Altium Limited,Altium Designer,18.0.7 (293)*
G04*
G04 Layer_Color=8388736*
%FSLAX25Y25*%
%MOIN*%
G70*
G01*
G75*
%ADD40R,0.06000X0.06800*%
%ADD41R,0.06800X0.06000*%
%ADD42R,0.06400X0.04800*%
%ADD43R,0.04737X0.05918*%
%ADD44R,0.05918X0.04737*%
%ADD45R,0.02769X0.01981*%
%ADD46R,0.03600X0.04400*%
%ADD47R,0.04400X0.03600*%
%ADD48R,0.05500X0.02000*%
%ADD49R,0.02000X0.05500*%
%ADD50R,0.07900X0.05600*%
%ADD51R,0.05200X0.04800*%
%ADD52R,0.04800X0.05200*%
%ADD53R,0.04200X0.03600*%
%ADD54R,0.03600X0.03200*%
%ADD55R,0.09500X0.03200*%
%ADD56R,0.08300X0.08300*%
%ADD57R,0.08300X0.07900*%
%ADD58R,0.07100X0.09100*%
%ADD59R,0.06200X0.02400*%
%ADD60R,0.03800X0.10500*%
%ADD61C,0.07453*%
%ADD62R,0.07453X0.07453*%
%ADD63C,0.19540*%
%ADD64C,0.05600*%
%ADD65C,0.06400*%
%ADD66O,0.06800X0.12800*%
%ADD67C,0.07800*%
%ADD68P,0.06711X8X202.5*%
%ADD69C,0.03162*%
D40*
X219260Y185500D02*
D03*
X226800D02*
D03*
X207740Y186000D02*
D03*
X200200D02*
D03*
X189740D02*
D03*
X182200D02*
D03*
X164760D02*
D03*
X172300D02*
D03*
X154240D02*
D03*
X146700D02*
D03*
X135740Y185500D02*
D03*
X128200D02*
D03*
X93260D02*
D03*
X100800D02*
D03*
X111260D02*
D03*
X118800D02*
D03*
X229969Y9500D02*
D03*
X222429D02*
D03*
X262240Y182500D02*
D03*
X254700D02*
D03*
X221260Y68500D02*
D03*
X228800D02*
D03*
X355740Y189000D02*
D03*
X348200D02*
D03*
X355740Y179500D02*
D03*
X348200D02*
D03*
D41*
X227000Y30800D02*
D03*
Y23260D02*
D03*
X174000Y155290D02*
D03*
Y162830D02*
D03*
X357500Y213260D02*
D03*
Y220800D02*
D03*
X347500Y220740D02*
D03*
Y213200D02*
D03*
D42*
X290669Y107740D02*
D03*
Y100200D02*
D03*
X299400Y104000D02*
D03*
X96331Y133260D02*
D03*
Y140800D02*
D03*
X87600Y137000D02*
D03*
D43*
X309150Y93649D02*
D03*
X302850D02*
D03*
X333350Y103500D02*
D03*
X339650D02*
D03*
X83150Y108059D02*
D03*
X76850D02*
D03*
X54150Y145000D02*
D03*
X47850D02*
D03*
X339650Y94000D02*
D03*
X333350D02*
D03*
X47850Y127000D02*
D03*
X54150D02*
D03*
X39650Y46500D02*
D03*
X33350D02*
D03*
X85150Y126709D02*
D03*
X78850D02*
D03*
X32850Y72000D02*
D03*
X39150D02*
D03*
D44*
X323000Y88350D02*
D03*
Y94650D02*
D03*
X65500Y131650D02*
D03*
Y125350D02*
D03*
Y139350D02*
D03*
Y145650D02*
D03*
X270000Y117150D02*
D03*
Y110850D02*
D03*
X323000Y110650D02*
D03*
Y104350D02*
D03*
D45*
X76122Y135000D02*
D03*
X78878D02*
D03*
X76378Y139500D02*
D03*
X73622D02*
D03*
X315378Y108000D02*
D03*
X312622D02*
D03*
X307622Y104000D02*
D03*
X310378D02*
D03*
D46*
X144559Y131603D02*
D03*
X139400D02*
D03*
X138441Y102500D02*
D03*
X143600D02*
D03*
X246259Y181500D02*
D03*
X241100D02*
D03*
D47*
X156501Y151059D02*
D03*
Y145900D02*
D03*
X134000Y151059D02*
D03*
Y145900D02*
D03*
D48*
X170988Y138622D02*
D03*
Y136653D02*
D03*
Y134685D02*
D03*
Y132717D02*
D03*
Y130748D02*
D03*
Y128779D02*
D03*
Y126811D02*
D03*
Y124843D02*
D03*
Y122874D02*
D03*
Y120905D02*
D03*
Y118937D02*
D03*
Y116969D02*
D03*
Y115000D02*
D03*
Y113031D02*
D03*
Y111063D02*
D03*
Y109095D02*
D03*
Y107126D02*
D03*
Y105157D02*
D03*
Y103189D02*
D03*
Y101221D02*
D03*
Y99252D02*
D03*
Y97284D02*
D03*
Y95315D02*
D03*
Y93347D02*
D03*
Y91378D02*
D03*
X232012D02*
D03*
Y93347D02*
D03*
Y95315D02*
D03*
Y97284D02*
D03*
Y99252D02*
D03*
Y101221D02*
D03*
Y103189D02*
D03*
Y105157D02*
D03*
Y107126D02*
D03*
Y109095D02*
D03*
Y111063D02*
D03*
Y113031D02*
D03*
Y115000D02*
D03*
Y116969D02*
D03*
Y118937D02*
D03*
Y120905D02*
D03*
Y122874D02*
D03*
Y124843D02*
D03*
Y126811D02*
D03*
Y128779D02*
D03*
Y130748D02*
D03*
Y132717D02*
D03*
Y134685D02*
D03*
Y136653D02*
D03*
Y138622D02*
D03*
D49*
X177878Y84488D02*
D03*
X179847D02*
D03*
X181815D02*
D03*
X183783D02*
D03*
X185752D02*
D03*
X187721D02*
D03*
X189689D02*
D03*
X191657D02*
D03*
X193626D02*
D03*
X195595D02*
D03*
X197563D02*
D03*
X199531D02*
D03*
X201500D02*
D03*
X203468D02*
D03*
X205437D02*
D03*
X207405D02*
D03*
X209374D02*
D03*
X211343D02*
D03*
X213311D02*
D03*
X215280D02*
D03*
X217248D02*
D03*
X219216D02*
D03*
X221185D02*
D03*
X223153D02*
D03*
X225122D02*
D03*
Y145512D02*
D03*
X223153D02*
D03*
X221185D02*
D03*
X219216D02*
D03*
X217248D02*
D03*
X215280D02*
D03*
X213311D02*
D03*
X211343D02*
D03*
X209374D02*
D03*
X207405D02*
D03*
X205437D02*
D03*
X203468D02*
D03*
X201500D02*
D03*
X199531D02*
D03*
X197563D02*
D03*
X195595D02*
D03*
X193626D02*
D03*
X191657D02*
D03*
X189689D02*
D03*
X187721D02*
D03*
X185752D02*
D03*
X183783D02*
D03*
X181815D02*
D03*
X179847D02*
D03*
X177878D02*
D03*
D50*
X149112Y121100D02*
D03*
X133412D02*
D03*
X149112Y111600D02*
D03*
X133412D02*
D03*
D51*
X330654Y209500D02*
D03*
X337400D02*
D03*
D52*
X301500Y199846D02*
D03*
Y193100D02*
D03*
D53*
X354551Y172000D02*
D03*
X348400D02*
D03*
D54*
X160000Y114032D02*
D03*
Y118000D02*
D03*
D55*
X289200Y131500D02*
D03*
Y126500D02*
D03*
Y116500D02*
D03*
X309736Y131500D02*
D03*
Y126500D02*
D03*
Y116500D02*
D03*
X289200Y121500D02*
D03*
X309736D02*
D03*
X81800Y84000D02*
D03*
Y89000D02*
D03*
Y99000D02*
D03*
X61264Y84000D02*
D03*
Y89000D02*
D03*
Y99000D02*
D03*
X81800Y94000D02*
D03*
X61264D02*
D03*
X331800Y184500D02*
D03*
Y189500D02*
D03*
Y199500D02*
D03*
X311264Y184500D02*
D03*
Y189500D02*
D03*
Y199500D02*
D03*
X331800Y194500D02*
D03*
X311264D02*
D03*
D56*
X383689Y189800D02*
D03*
Y180276D02*
D03*
D57*
Y200800D02*
D03*
Y169252D02*
D03*
D58*
X373650Y197300D02*
D03*
Y172795D02*
D03*
D59*
X373177Y190200D02*
D03*
Y187600D02*
D03*
Y185000D02*
D03*
Y182480D02*
D03*
Y179882D02*
D03*
D60*
X285000Y185900D02*
D03*
Y199100D02*
D03*
D61*
X357508Y70689D02*
D03*
X368689Y76142D02*
D03*
X357508Y81595D02*
D03*
X368689Y87047D02*
D03*
X357508Y92500D02*
D03*
X368689Y97953D02*
D03*
X357508Y103405D02*
D03*
X368689Y108858D02*
D03*
X30097Y171811D02*
D03*
X18916Y166358D02*
D03*
X30097Y160906D02*
D03*
X18916Y155453D02*
D03*
X30097Y150000D02*
D03*
X18916Y144547D02*
D03*
X30097Y139094D02*
D03*
X18916Y133642D02*
D03*
D62*
X357508Y114311D02*
D03*
X30097Y128189D02*
D03*
D63*
X363098Y141693D02*
D03*
Y43307D02*
D03*
X24507Y100807D02*
D03*
Y199193D02*
D03*
D64*
X150500Y147000D02*
D03*
X140500D02*
D03*
D65*
X121500Y209500D02*
D03*
Y219500D02*
D03*
X131500Y209500D02*
D03*
Y219500D02*
D03*
X141500Y209500D02*
D03*
Y219500D02*
D03*
X151500Y209500D02*
D03*
Y219500D02*
D03*
X161500Y209500D02*
D03*
Y219500D02*
D03*
X171500Y209500D02*
D03*
Y219500D02*
D03*
X181500Y209500D02*
D03*
Y219500D02*
D03*
X191500Y209500D02*
D03*
Y219500D02*
D03*
X201500Y209500D02*
D03*
Y219500D02*
D03*
X211500Y209500D02*
D03*
Y219500D02*
D03*
D66*
X243100Y194200D02*
D03*
X260900D02*
D03*
X243100Y219800D02*
D03*
X260900D02*
D03*
D67*
X9500Y50499D02*
D03*
Y40499D02*
D03*
X9000Y78000D02*
D03*
Y68000D02*
D03*
D68*
X259500Y23500D02*
D03*
Y33500D02*
D03*
X269500Y23500D02*
D03*
Y33500D02*
D03*
X279500Y23500D02*
D03*
Y33500D02*
D03*
X177000Y22500D02*
D03*
Y32500D02*
D03*
X187000Y22500D02*
D03*
Y32500D02*
D03*
X197000Y22500D02*
D03*
Y32500D02*
D03*
X110500Y22000D02*
D03*
Y32000D02*
D03*
X120500Y22000D02*
D03*
Y32000D02*
D03*
X130500Y22000D02*
D03*
Y32000D02*
D03*
D69*
X193000Y104000D02*
D03*
X197500D02*
D03*
X202000D02*
D03*
Y109000D02*
D03*
X197500D02*
D03*
X193000D02*
D03*
X202000Y119000D02*
D03*
X197500D02*
D03*
X193000D02*
D03*
X202000Y123500D02*
D03*
X193000D02*
D03*
X202000Y128000D02*
D03*
X197500D02*
D03*
X193000D02*
D03*
X157000Y196500D02*
D03*
X154500Y193500D02*
D03*
X51000Y110500D02*
D03*
X51500Y106500D02*
D03*
Y102500D02*
D03*
X72000Y129500D02*
D03*
X165500Y81500D02*
D03*
X163000Y84500D02*
D03*
X225000Y74500D02*
D03*
X176500Y123500D02*
D03*
X318000Y126000D02*
D03*
X185500Y214500D02*
D03*
X134000Y197500D02*
D03*
X123500Y163000D02*
D03*
X225000Y90000D02*
D03*
X242500Y62500D02*
D03*
X260500Y61500D02*
D03*
X262500Y124000D02*
D03*
X263000Y135000D02*
D03*
X261500Y56000D02*
D03*
X250000Y55000D02*
D03*
X200500Y40500D02*
D03*
X188000Y40000D02*
D03*
X150000D02*
D03*
X148500Y79000D02*
D03*
X243500Y136000D02*
D03*
X243216Y161284D02*
D03*
X294000Y157500D02*
D03*
X296000Y134500D02*
D03*
X57000Y71000D02*
D03*
X46000Y89000D02*
D03*
X52500Y90000D02*
D03*
X238000Y49000D02*
D03*
X239000Y64500D02*
D03*
X160000Y78500D02*
D03*
X154000Y74500D02*
D03*
X122500Y70000D02*
D03*
X126500Y69500D02*
D03*
X113000Y71000D02*
D03*
X178500Y130000D02*
D03*
X344000Y200000D02*
D03*
X338000Y168000D02*
D03*
X324500Y79000D02*
D03*
Y119500D02*
D03*
X189500Y170500D02*
D03*
X252500Y150862D02*
D03*
Y147500D02*
D03*
X250814Y121814D02*
D03*
X248436Y119436D02*
D03*
X227000Y138500D02*
D03*
X179500Y140000D02*
D03*
X176000Y117500D02*
D03*
X177000Y98500D02*
D03*
X180311Y89019D02*
D03*
X102000Y53500D02*
D03*
X105000Y50500D02*
D03*
X103750Y73250D02*
D03*
X106750Y70250D02*
D03*
X183000Y179000D02*
D03*
X71500Y67500D02*
D03*
X71000Y54000D02*
D03*
X48000Y71500D02*
D03*
X271000Y105500D02*
D03*
X282500Y113000D02*
D03*
X93000Y95000D02*
D03*
X101500D02*
D03*
X150500Y179500D02*
D03*
X142500D02*
D03*
X115500Y193000D02*
D03*
X126500Y202000D02*
D03*
M02*
