G04*
G04 #@! TF.GenerationSoftware,Altium Limited,Altium Designer,18.0.7 (293)*
G04*
G04 Layer_Color=32768*
%FSLAX25Y25*%
%MOIN*%
G70*
G01*
G75*
%ADD11C,0.00600*%
%ADD88C,0.00394*%
G36*
X175878Y86050D02*
X172550D01*
Y89378D01*
X166638D01*
Y140622D01*
X172550D01*
Y143950D01*
X175878D01*
Y149862D01*
X227122D01*
Y143950D01*
X230450D01*
Y140622D01*
X236362D01*
Y89378D01*
X230450D01*
Y86050D01*
X227122D01*
Y80138D01*
X175878D01*
Y86050D01*
D02*
G37*
D11*
X172550D02*
Y89378D01*
X166638D02*
X172550D01*
X166638D02*
Y140622D01*
X172550D01*
Y143950D01*
X175878D01*
Y149862D01*
X227122D01*
Y143950D02*
Y149862D01*
Y143950D02*
X230450D01*
Y140622D02*
Y143950D01*
Y140622D02*
X236362D01*
Y89378D02*
Y140622D01*
X230450Y89378D02*
X236362D01*
X230450Y86050D02*
Y89378D01*
X227122Y86050D02*
X230450D01*
X227122Y80138D02*
Y86050D01*
X175878Y80138D02*
X227122D01*
X175878D02*
Y86050D01*
X172550D02*
X175878D01*
D88*
X311512Y90697D02*
Y96602D01*
X300488Y90697D02*
Y96602D01*
Y90697D02*
X311512D01*
X300488Y96602D02*
X311512D01*
X304031Y93649D02*
X307968D01*
X306000Y91681D02*
Y95618D01*
X330988Y100547D02*
Y106453D01*
X342012Y100547D02*
Y106453D01*
X330988D02*
X342012D01*
X330988Y100547D02*
X342012D01*
X334531Y103500D02*
X338469D01*
X336500Y101532D02*
Y105468D01*
X320047Y85988D02*
X325953D01*
X320047Y97012D02*
X325953D01*
X320047Y85988D02*
Y97012D01*
X325953Y85988D02*
Y97012D01*
X323000Y89531D02*
Y93468D01*
X321031Y91500D02*
X324969D01*
X85512Y105106D02*
Y111011D01*
X74488Y105106D02*
Y111011D01*
Y105106D02*
X85512D01*
X74488Y111011D02*
X85512D01*
X78031Y108059D02*
X81968D01*
X80000Y106090D02*
Y110027D01*
X77500Y134311D02*
Y135689D01*
X76811Y135000D02*
X78189D01*
X74744Y135984D02*
X80256D01*
X74744Y134016D02*
X80256D01*
X74744D02*
Y135984D01*
X80256Y134016D02*
Y135984D01*
X75000Y138811D02*
Y140189D01*
X74311Y139500D02*
X75689D01*
X72244Y138516D02*
X77756D01*
X72244Y140484D02*
X77756D01*
Y138516D02*
Y140484D01*
X72244Y138516D02*
Y140484D01*
X62547Y134012D02*
X68453D01*
X62547Y122988D02*
X68453D01*
Y134012D01*
X62547Y122988D02*
Y134012D01*
X65500Y126532D02*
Y130468D01*
X63532Y128500D02*
X67469D01*
X56512Y142047D02*
Y147953D01*
X45488Y142047D02*
Y147953D01*
Y142047D02*
X56512D01*
X45488Y147953D02*
X56512D01*
X49031Y145000D02*
X52969D01*
X51000Y143032D02*
Y146968D01*
X63532Y142500D02*
X67469D01*
X65500Y140532D02*
Y144468D01*
X62547Y136988D02*
Y148012D01*
X68453Y136988D02*
Y148012D01*
X62547Y136988D02*
X68453D01*
X62547Y148012D02*
X68453D01*
X316756Y107016D02*
Y108984D01*
X311244Y107016D02*
Y108984D01*
Y107016D02*
X316756D01*
X311244Y108984D02*
X316756D01*
X313311Y108000D02*
X314689D01*
X314000Y107311D02*
Y108689D01*
X336500Y92032D02*
Y95969D01*
X334531Y94000D02*
X338469D01*
X330988Y91047D02*
X342012D01*
X330988Y96953D02*
X342012D01*
Y91047D02*
Y96953D01*
X330988Y91047D02*
Y96953D01*
X51000Y125031D02*
Y128969D01*
X49031Y127000D02*
X52969D01*
X45488Y129953D02*
X56512D01*
X45488Y124047D02*
X56512D01*
X45488D02*
Y129953D01*
X56512Y124047D02*
Y129953D01*
X42012Y43547D02*
Y49453D01*
X30988Y43547D02*
Y49453D01*
Y43547D02*
X42012D01*
X30988Y49453D02*
X42012D01*
X34532Y46500D02*
X38469D01*
X36500Y44532D02*
Y48469D01*
X82000Y124741D02*
Y128678D01*
X80032Y126709D02*
X83969D01*
X76488Y123757D02*
X87512D01*
X76488Y129662D02*
X87512D01*
Y123757D02*
Y129662D01*
X76488Y123757D02*
Y129662D01*
X268032Y114000D02*
X271969D01*
X270000Y112031D02*
Y115969D01*
X272953Y108488D02*
Y119512D01*
X267047Y108488D02*
Y119512D01*
X272953D01*
X267047Y108488D02*
X272953D01*
X306244Y103016D02*
Y104984D01*
X311756Y103016D02*
Y104984D01*
X306244D02*
X311756D01*
X306244Y103016D02*
X311756D01*
X308311Y104000D02*
X309689D01*
X309000Y103311D02*
Y104689D01*
X321031Y107500D02*
X324969D01*
X323000Y105532D02*
Y109468D01*
X325953Y101988D02*
Y113012D01*
X320047Y101988D02*
Y113012D01*
X325953D01*
X320047Y101988D02*
X325953D01*
X36000Y70031D02*
Y73968D01*
X34032Y72000D02*
X37969D01*
X30488Y74953D02*
X41512D01*
X30488Y69047D02*
X41512D01*
X30488D02*
Y74953D01*
X41512Y69047D02*
Y74953D01*
M02*
