G04*
G04 #@! TF.GenerationSoftware,Altium Limited,Altium Designer,18.0.7 (293)*
G04*
G04 Layer_Physical_Order=2*
G04 Layer_Color=16711680*
%FSLAX25Y25*%
%MOIN*%
G70*
G01*
G75*
%ADD10C,0.00787*%
%ADD16C,0.01000*%
%ADD25R,0.02800X0.03600*%
%ADD26R,0.03600X0.02800*%
%ADD64C,0.05600*%
%ADD71C,0.02362*%
%ADD72C,0.06653*%
%ADD73R,0.06653X0.06653*%
%ADD74C,0.18740*%
%ADD75C,0.04800*%
%ADD76O,0.06000X0.12000*%
%ADD77C,0.07000*%
%ADD78P,0.05845X8X202.5*%
%ADD79C,0.02362*%
G36*
X390000Y234500D02*
X389500Y234000D01*
Y0D01*
X1000D01*
X500Y500D01*
Y235500D01*
X389000D01*
X390000Y234500D01*
D02*
G37*
%LPC*%
G36*
X243600Y226769D02*
Y220300D01*
X247134D01*
Y222800D01*
X246997Y223844D01*
X246594Y224817D01*
X245953Y225653D01*
X245117Y226294D01*
X244144Y226697D01*
X243600Y226769D01*
D02*
G37*
G36*
X242600D02*
X242056Y226697D01*
X241083Y226294D01*
X240247Y225653D01*
X239606Y224817D01*
X239203Y223844D01*
X239066Y222800D01*
Y220300D01*
X242600D01*
Y226769D01*
D02*
G37*
G36*
X212000Y223267D02*
Y220000D01*
X215267D01*
X215202Y220492D01*
X214819Y221416D01*
X214210Y222210D01*
X213416Y222819D01*
X212492Y223202D01*
X212000Y223267D01*
D02*
G37*
G36*
X211000D02*
X210508Y223202D01*
X209584Y222819D01*
X208790Y222210D01*
X208181Y221416D01*
X207798Y220492D01*
X207733Y220000D01*
X211000D01*
Y223267D01*
D02*
G37*
G36*
X202000D02*
Y220000D01*
X205267D01*
X205202Y220492D01*
X204819Y221416D01*
X204210Y222210D01*
X203416Y222819D01*
X202492Y223202D01*
X202000Y223267D01*
D02*
G37*
G36*
X201000D02*
X200508Y223202D01*
X199584Y222819D01*
X198790Y222210D01*
X198181Y221416D01*
X197798Y220492D01*
X197733Y220000D01*
X201000D01*
Y223267D01*
D02*
G37*
G36*
X192000D02*
Y220000D01*
X195267D01*
X195202Y220492D01*
X194819Y221416D01*
X194210Y222210D01*
X193416Y222819D01*
X192492Y223202D01*
X192000Y223267D01*
D02*
G37*
G36*
X191000D02*
X190508Y223202D01*
X189584Y222819D01*
X188790Y222210D01*
X188181Y221416D01*
X187798Y220492D01*
X187733Y220000D01*
X191000D01*
Y223267D01*
D02*
G37*
G36*
X182000D02*
Y220000D01*
X185267D01*
X185202Y220492D01*
X184819Y221416D01*
X184210Y222210D01*
X183416Y222819D01*
X182492Y223202D01*
X182000Y223267D01*
D02*
G37*
G36*
X181000D02*
X180508Y223202D01*
X179584Y222819D01*
X178790Y222210D01*
X178181Y221416D01*
X177798Y220492D01*
X177733Y220000D01*
X181000D01*
Y223267D01*
D02*
G37*
G36*
X172000D02*
Y220000D01*
X175267D01*
X175202Y220492D01*
X174819Y221416D01*
X174210Y222210D01*
X173416Y222819D01*
X172492Y223202D01*
X172000Y223267D01*
D02*
G37*
G36*
X171000D02*
X170508Y223202D01*
X169584Y222819D01*
X168790Y222210D01*
X168181Y221416D01*
X167798Y220492D01*
X167733Y220000D01*
X171000D01*
Y223267D01*
D02*
G37*
G36*
X162000D02*
Y220000D01*
X165267D01*
X165202Y220492D01*
X164819Y221416D01*
X164210Y222210D01*
X163416Y222819D01*
X162492Y223202D01*
X162000Y223267D01*
D02*
G37*
G36*
X161000D02*
X160508Y223202D01*
X159584Y222819D01*
X158790Y222210D01*
X158181Y221416D01*
X157798Y220492D01*
X157733Y220000D01*
X161000D01*
Y223267D01*
D02*
G37*
G36*
X152000D02*
Y220000D01*
X155267D01*
X155202Y220492D01*
X154819Y221416D01*
X154210Y222210D01*
X153416Y222819D01*
X152492Y223202D01*
X152000Y223267D01*
D02*
G37*
G36*
X151000D02*
X150508Y223202D01*
X149584Y222819D01*
X148790Y222210D01*
X148181Y221416D01*
X147798Y220492D01*
X147733Y220000D01*
X151000D01*
Y223267D01*
D02*
G37*
G36*
X142000D02*
Y220000D01*
X145267D01*
X145202Y220492D01*
X144819Y221416D01*
X144210Y222210D01*
X143416Y222819D01*
X142492Y223202D01*
X142000Y223267D01*
D02*
G37*
G36*
X141000D02*
X140508Y223202D01*
X139584Y222819D01*
X138790Y222210D01*
X138181Y221416D01*
X137798Y220492D01*
X137733Y220000D01*
X141000D01*
Y223267D01*
D02*
G37*
G36*
X132000D02*
Y220000D01*
X135267D01*
X135202Y220492D01*
X134819Y221416D01*
X134210Y222210D01*
X133416Y222819D01*
X132492Y223202D01*
X132000Y223267D01*
D02*
G37*
G36*
X131000D02*
X130508Y223202D01*
X129584Y222819D01*
X128790Y222210D01*
X128181Y221416D01*
X127798Y220492D01*
X127733Y220000D01*
X131000D01*
Y223267D01*
D02*
G37*
G36*
X121500Y223118D02*
X120563Y222995D01*
X119691Y222634D01*
X118941Y222059D01*
X118366Y221309D01*
X118005Y220437D01*
X117882Y219500D01*
X118005Y218564D01*
X118366Y217691D01*
X118941Y216941D01*
X119691Y216366D01*
X120563Y216005D01*
X121500Y215882D01*
X122436Y216005D01*
X123309Y216366D01*
X124059Y216941D01*
X124634Y217691D01*
X124995Y218564D01*
X125118Y219500D01*
X124995Y220437D01*
X124634Y221309D01*
X124059Y222059D01*
X123309Y222634D01*
X122436Y222995D01*
X121500Y223118D01*
D02*
G37*
G36*
X215267Y219000D02*
X212000D01*
Y215733D01*
X212492Y215798D01*
X213416Y216181D01*
X214210Y216790D01*
X214819Y217584D01*
X215202Y218508D01*
X215267Y219000D01*
D02*
G37*
G36*
X211000D02*
X207733D01*
X207798Y218508D01*
X208181Y217584D01*
X208790Y216790D01*
X209584Y216181D01*
X210508Y215798D01*
X211000Y215733D01*
Y219000D01*
D02*
G37*
G36*
X205267D02*
X202000D01*
Y215733D01*
X202492Y215798D01*
X203416Y216181D01*
X204210Y216790D01*
X204819Y217584D01*
X205202Y218508D01*
X205267Y219000D01*
D02*
G37*
G36*
X201000D02*
X197733D01*
X197798Y218508D01*
X198181Y217584D01*
X198790Y216790D01*
X199584Y216181D01*
X200508Y215798D01*
X201000Y215733D01*
Y219000D01*
D02*
G37*
G36*
X195267D02*
X192000D01*
Y215733D01*
X192492Y215798D01*
X193416Y216181D01*
X194210Y216790D01*
X194819Y217584D01*
X195202Y218508D01*
X195267Y219000D01*
D02*
G37*
G36*
X191000D02*
X187733D01*
X187798Y218508D01*
X188181Y217584D01*
X188790Y216790D01*
X189584Y216181D01*
X190508Y215798D01*
X191000Y215733D01*
Y219000D01*
D02*
G37*
G36*
X185267D02*
X182000D01*
Y215733D01*
X182492Y215798D01*
X183416Y216181D01*
X184210Y216790D01*
X184819Y217584D01*
X185202Y218508D01*
X185267Y219000D01*
D02*
G37*
G36*
X181000D02*
X177733D01*
X177798Y218508D01*
X178181Y217584D01*
X178790Y216790D01*
X179584Y216181D01*
X180508Y215798D01*
X181000Y215733D01*
Y219000D01*
D02*
G37*
G36*
X175267D02*
X172000D01*
Y215733D01*
X172492Y215798D01*
X173416Y216181D01*
X174210Y216790D01*
X174819Y217584D01*
X175202Y218508D01*
X175267Y219000D01*
D02*
G37*
G36*
X171000D02*
X167733D01*
X167798Y218508D01*
X168181Y217584D01*
X168790Y216790D01*
X169584Y216181D01*
X170508Y215798D01*
X171000Y215733D01*
Y219000D01*
D02*
G37*
G36*
X165267D02*
X162000D01*
Y215733D01*
X162492Y215798D01*
X163416Y216181D01*
X164210Y216790D01*
X164819Y217584D01*
X165202Y218508D01*
X165267Y219000D01*
D02*
G37*
G36*
X161000D02*
X157733D01*
X157798Y218508D01*
X158181Y217584D01*
X158790Y216790D01*
X159584Y216181D01*
X160508Y215798D01*
X161000Y215733D01*
Y219000D01*
D02*
G37*
G36*
X155267D02*
X152000D01*
Y215733D01*
X152492Y215798D01*
X153416Y216181D01*
X154210Y216790D01*
X154819Y217584D01*
X155202Y218508D01*
X155267Y219000D01*
D02*
G37*
G36*
X151000D02*
X147733D01*
X147798Y218508D01*
X148181Y217584D01*
X148790Y216790D01*
X149584Y216181D01*
X150508Y215798D01*
X151000Y215733D01*
Y219000D01*
D02*
G37*
G36*
X145267D02*
X142000D01*
Y215733D01*
X142492Y215798D01*
X143416Y216181D01*
X144210Y216790D01*
X144819Y217584D01*
X145202Y218508D01*
X145267Y219000D01*
D02*
G37*
G36*
X141000D02*
X137733D01*
X137798Y218508D01*
X138181Y217584D01*
X138790Y216790D01*
X139584Y216181D01*
X140508Y215798D01*
X141000Y215733D01*
Y219000D01*
D02*
G37*
G36*
X135267D02*
X132000D01*
Y215733D01*
X132492Y215798D01*
X133416Y216181D01*
X134210Y216790D01*
X134819Y217584D01*
X135202Y218508D01*
X135267Y219000D01*
D02*
G37*
G36*
X131000D02*
X127733D01*
X127798Y218508D01*
X128181Y217584D01*
X128790Y216790D01*
X129584Y216181D01*
X130508Y215798D01*
X131000Y215733D01*
Y219000D01*
D02*
G37*
G36*
X260900Y226620D02*
X259911Y226490D01*
X258990Y226108D01*
X258199Y225501D01*
X257592Y224710D01*
X257210Y223789D01*
X257080Y222800D01*
Y216800D01*
X257210Y215811D01*
X257592Y214890D01*
X258199Y214099D01*
X258990Y213492D01*
X259911Y213110D01*
X260900Y212980D01*
X261889Y213110D01*
X262810Y213492D01*
X263601Y214099D01*
X264208Y214890D01*
X264590Y215811D01*
X264720Y216800D01*
Y222800D01*
X264590Y223789D01*
X264208Y224710D01*
X263601Y225501D01*
X262810Y226108D01*
X261889Y226490D01*
X260900Y226620D01*
D02*
G37*
G36*
X247134Y219300D02*
X243600D01*
Y212831D01*
X244144Y212903D01*
X245117Y213306D01*
X245953Y213947D01*
X246594Y214783D01*
X246997Y215756D01*
X247134Y216800D01*
Y219300D01*
D02*
G37*
G36*
X242600D02*
X239066D01*
Y216800D01*
X239203Y215756D01*
X239606Y214783D01*
X240247Y213947D01*
X241083Y213306D01*
X242056Y212903D01*
X242600Y212831D01*
Y219300D01*
D02*
G37*
G36*
X211500Y213118D02*
X210563Y212995D01*
X209691Y212634D01*
X208941Y212059D01*
X208366Y211309D01*
X208005Y210437D01*
X207882Y209500D01*
X208005Y208563D01*
X208366Y207691D01*
X208941Y206941D01*
X209691Y206366D01*
X210563Y206005D01*
X211500Y205882D01*
X212437Y206005D01*
X213309Y206366D01*
X214059Y206941D01*
X214634Y207691D01*
X214995Y208563D01*
X215118Y209500D01*
X214995Y210437D01*
X214634Y211309D01*
X214059Y212059D01*
X213309Y212634D01*
X212437Y212995D01*
X211500Y213118D01*
D02*
G37*
G36*
X201500D02*
X200564Y212995D01*
X199691Y212634D01*
X198941Y212059D01*
X198366Y211309D01*
X198005Y210437D01*
X197882Y209500D01*
X198005Y208563D01*
X198366Y207691D01*
X198941Y206941D01*
X199691Y206366D01*
X200564Y206005D01*
X201500Y205882D01*
X202436Y206005D01*
X203309Y206366D01*
X204059Y206941D01*
X204634Y207691D01*
X204995Y208563D01*
X205118Y209500D01*
X204995Y210437D01*
X204634Y211309D01*
X204059Y212059D01*
X203309Y212634D01*
X202436Y212995D01*
X201500Y213118D01*
D02*
G37*
G36*
X185500Y216507D02*
X184732Y216354D01*
X184081Y215919D01*
X183646Y215268D01*
X183493Y214500D01*
X183646Y213732D01*
X184081Y213081D01*
X184732Y212646D01*
X185500Y212493D01*
X186268Y212646D01*
X186498Y212799D01*
X188256Y211041D01*
X188005Y210437D01*
X187882Y209500D01*
X188005Y208563D01*
X188366Y207691D01*
X188941Y206941D01*
X189691Y206366D01*
X190563Y206005D01*
X191500Y205882D01*
X192437Y206005D01*
X193309Y206366D01*
X194059Y206941D01*
X194634Y207691D01*
X194995Y208563D01*
X195118Y209500D01*
X194995Y210437D01*
X194634Y211309D01*
X194059Y212059D01*
X193309Y212634D01*
X192437Y212995D01*
X191500Y213118D01*
X190563Y212995D01*
X189959Y212744D01*
X187352Y215352D01*
X187256Y215416D01*
X186919Y215919D01*
X186268Y216354D01*
X185500Y216507D01*
D02*
G37*
G36*
X181500Y213118D02*
X180563Y212995D01*
X179691Y212634D01*
X178941Y212059D01*
X178366Y211309D01*
X178005Y210437D01*
X177882Y209500D01*
X178005Y208563D01*
X178366Y207691D01*
X178941Y206941D01*
X179691Y206366D01*
X180563Y206005D01*
X181500Y205882D01*
X182437Y206005D01*
X183309Y206366D01*
X184059Y206941D01*
X184634Y207691D01*
X184995Y208563D01*
X185118Y209500D01*
X184995Y210437D01*
X184634Y211309D01*
X184059Y212059D01*
X183309Y212634D01*
X182437Y212995D01*
X181500Y213118D01*
D02*
G37*
G36*
X171500D02*
X170563Y212995D01*
X169691Y212634D01*
X168941Y212059D01*
X168366Y211309D01*
X168005Y210437D01*
X167882Y209500D01*
X168005Y208563D01*
X168366Y207691D01*
X168941Y206941D01*
X169691Y206366D01*
X170563Y206005D01*
X171500Y205882D01*
X172436Y206005D01*
X173309Y206366D01*
X174059Y206941D01*
X174634Y207691D01*
X174995Y208563D01*
X175118Y209500D01*
X174995Y210437D01*
X174634Y211309D01*
X174059Y212059D01*
X173309Y212634D01*
X172436Y212995D01*
X171500Y213118D01*
D02*
G37*
G36*
X161500D02*
X160564Y212995D01*
X159691Y212634D01*
X158941Y212059D01*
X158366Y211309D01*
X158005Y210437D01*
X157882Y209500D01*
X158005Y208563D01*
X158366Y207691D01*
X158941Y206941D01*
X159691Y206366D01*
X160564Y206005D01*
X161500Y205882D01*
X162436Y206005D01*
X163309Y206366D01*
X164059Y206941D01*
X164634Y207691D01*
X164995Y208563D01*
X165118Y209500D01*
X164995Y210437D01*
X164634Y211309D01*
X164059Y212059D01*
X163309Y212634D01*
X162436Y212995D01*
X161500Y213118D01*
D02*
G37*
G36*
X151500D02*
X150564Y212995D01*
X149691Y212634D01*
X148941Y212059D01*
X148366Y211309D01*
X148005Y210437D01*
X147882Y209500D01*
X148005Y208563D01*
X148366Y207691D01*
X148941Y206941D01*
X149691Y206366D01*
X150564Y206005D01*
X151500Y205882D01*
X152436Y206005D01*
X153309Y206366D01*
X154059Y206941D01*
X154634Y207691D01*
X154995Y208563D01*
X155118Y209500D01*
X154995Y210437D01*
X154634Y211309D01*
X154059Y212059D01*
X153309Y212634D01*
X152436Y212995D01*
X151500Y213118D01*
D02*
G37*
G36*
X141500D02*
X140563Y212995D01*
X139691Y212634D01*
X138941Y212059D01*
X138366Y211309D01*
X138005Y210437D01*
X137882Y209500D01*
X138005Y208563D01*
X138366Y207691D01*
X138941Y206941D01*
X139691Y206366D01*
X140563Y206005D01*
X141500Y205882D01*
X142437Y206005D01*
X143309Y206366D01*
X144059Y206941D01*
X144634Y207691D01*
X144995Y208563D01*
X145118Y209500D01*
X144995Y210437D01*
X144634Y211309D01*
X144059Y212059D01*
X143309Y212634D01*
X142437Y212995D01*
X141500Y213118D01*
D02*
G37*
G36*
X131500D02*
X130563Y212995D01*
X129691Y212634D01*
X128941Y212059D01*
X128366Y211309D01*
X128005Y210437D01*
X127882Y209500D01*
X128005Y208563D01*
X128366Y207691D01*
X128941Y206941D01*
X129691Y206366D01*
X130563Y206005D01*
X131500Y205882D01*
X132437Y206005D01*
X133309Y206366D01*
X134059Y206941D01*
X134634Y207691D01*
X134995Y208563D01*
X135118Y209500D01*
X134995Y210437D01*
X134634Y211309D01*
X134059Y212059D01*
X133309Y212634D01*
X132437Y212995D01*
X131500Y213118D01*
D02*
G37*
G36*
X121500D02*
X120563Y212995D01*
X119691Y212634D01*
X118941Y212059D01*
X118366Y211309D01*
X118005Y210437D01*
X117882Y209500D01*
X118005Y208563D01*
X118366Y207691D01*
X118941Y206941D01*
X119691Y206366D01*
X120563Y206005D01*
X121500Y205882D01*
X122436Y206005D01*
X123309Y206366D01*
X124059Y206941D01*
X124634Y207691D01*
X124995Y208563D01*
X125118Y209500D01*
X124995Y210437D01*
X124634Y211309D01*
X124059Y212059D01*
X123309Y212634D01*
X122436Y212995D01*
X121500Y213118D01*
D02*
G37*
G36*
X126500Y204007D02*
X125732Y203854D01*
X125081Y203419D01*
X124646Y202768D01*
X124493Y202000D01*
X124518Y201874D01*
X117050Y194406D01*
X116919Y194419D01*
X116268Y194854D01*
X115500Y195007D01*
X114732Y194854D01*
X114081Y194419D01*
X113646Y193768D01*
X113493Y193000D01*
X113646Y192232D01*
X114081Y191581D01*
X114732Y191146D01*
X115500Y190993D01*
X116268Y191146D01*
X116919Y191581D01*
X117050Y191777D01*
X117500Y191687D01*
X118002Y191787D01*
X118428Y192072D01*
X126374Y200018D01*
X126500Y199993D01*
X127268Y200146D01*
X127919Y200581D01*
X128354Y201232D01*
X128507Y202000D01*
X128354Y202768D01*
X127919Y203419D01*
X127268Y203854D01*
X126500Y204007D01*
D02*
G37*
G36*
X157500Y198624D02*
Y197000D01*
X159124D01*
X159055Y197351D01*
X158572Y198073D01*
X157851Y198555D01*
X157500Y198624D01*
D02*
G37*
G36*
X156500D02*
X156149Y198555D01*
X155428Y198073D01*
X154946Y197351D01*
X154876Y197000D01*
X156500D01*
Y198624D01*
D02*
G37*
G36*
X243600Y201169D02*
Y194700D01*
X247134D01*
Y197200D01*
X246997Y198244D01*
X246594Y199217D01*
X245953Y200053D01*
X245117Y200694D01*
X244144Y201097D01*
X243600Y201169D01*
D02*
G37*
G36*
X242600D02*
X242056Y201097D01*
X241083Y200694D01*
X240247Y200053D01*
X239606Y199217D01*
X239203Y198244D01*
X239066Y197200D01*
Y194700D01*
X242600D01*
Y201169D01*
D02*
G37*
G36*
X159124Y196000D02*
X154714D01*
X154500Y195724D01*
X154461Y195716D01*
X153649Y195554D01*
X152927Y195072D01*
X152445Y194351D01*
X152376Y194000D01*
X156786D01*
X157000Y194276D01*
X157039Y194284D01*
X157851Y194446D01*
X158572Y194928D01*
X159055Y195649D01*
X159124Y196000D01*
D02*
G37*
G36*
X156624Y193000D02*
X155000D01*
Y191376D01*
X155351Y191446D01*
X156072Y191928D01*
X156554Y192649D01*
X156624Y193000D01*
D02*
G37*
G36*
X154000D02*
X152376D01*
X152445Y192649D01*
X152927Y191928D01*
X153649Y191446D01*
X154000Y191376D01*
Y193000D01*
D02*
G37*
G36*
X24507Y209400D02*
X22516Y209203D01*
X20601Y208623D01*
X18836Y207679D01*
X17290Y206410D01*
X16020Y204863D01*
X15077Y203099D01*
X14496Y201184D01*
X14300Y199193D01*
X14496Y197202D01*
X15077Y195287D01*
X16020Y193522D01*
X17290Y191976D01*
X18836Y190706D01*
X20601Y189763D01*
X22516Y189182D01*
X24507Y188986D01*
X26498Y189182D01*
X28413Y189763D01*
X30177Y190706D01*
X31724Y191976D01*
X32993Y193522D01*
X33937Y195287D01*
X34517Y197202D01*
X34714Y199193D01*
X34517Y201184D01*
X33937Y203099D01*
X32993Y204863D01*
X31724Y206410D01*
X30177Y207679D01*
X28413Y208623D01*
X26498Y209203D01*
X24507Y209400D01*
D02*
G37*
G36*
X260900Y201020D02*
X259911Y200890D01*
X258990Y200508D01*
X258199Y199901D01*
X257592Y199110D01*
X257210Y198189D01*
X257080Y197200D01*
Y191200D01*
X257210Y190211D01*
X257592Y189290D01*
X258199Y188499D01*
X258990Y187892D01*
X259911Y187510D01*
X260900Y187380D01*
X261889Y187510D01*
X262810Y187892D01*
X263601Y188499D01*
X264208Y189290D01*
X264590Y190211D01*
X264720Y191200D01*
Y197200D01*
X264590Y198189D01*
X264208Y199110D01*
X263601Y199901D01*
X262810Y200508D01*
X261889Y200890D01*
X260900Y201020D01*
D02*
G37*
G36*
X247134Y193700D02*
X243600D01*
Y187231D01*
X244144Y187303D01*
X245117Y187706D01*
X245953Y188347D01*
X246594Y189183D01*
X246997Y190156D01*
X247134Y191200D01*
Y193700D01*
D02*
G37*
G36*
X242600D02*
X239066D01*
Y191200D01*
X239203Y190156D01*
X239606Y189183D01*
X240247Y188347D01*
X241083Y187706D01*
X242056Y187303D01*
X242600Y187231D01*
Y193700D01*
D02*
G37*
G36*
X150500Y181507D02*
X149732Y181354D01*
X149507Y181204D01*
X143493D01*
X143268Y181354D01*
X142500Y181507D01*
X141732Y181354D01*
X141081Y180919D01*
X140646Y180268D01*
X140493Y179500D01*
X140646Y178732D01*
X141081Y178081D01*
X141732Y177646D01*
X142500Y177493D01*
X143268Y177646D01*
X143919Y178081D01*
X144354Y178732D01*
X144367Y178796D01*
X148633D01*
X148646Y178732D01*
X149081Y178081D01*
X149732Y177646D01*
X150500Y177493D01*
X151268Y177646D01*
X151919Y178081D01*
X152354Y178732D01*
X152507Y179500D01*
X152354Y180268D01*
X151919Y180919D01*
X151268Y181354D01*
X150500Y181507D01*
D02*
G37*
G36*
X183000Y181007D02*
X182232Y180854D01*
X181581Y180419D01*
X181146Y179768D01*
X180993Y179000D01*
X181146Y178232D01*
X181581Y177581D01*
X182232Y177146D01*
X183000Y176993D01*
X183768Y177146D01*
X183906Y177238D01*
X188187Y172956D01*
Y171990D01*
X188081Y171919D01*
X187646Y171268D01*
X187493Y170500D01*
X187646Y169732D01*
X188081Y169081D01*
X188732Y168646D01*
X189500Y168493D01*
X190268Y168646D01*
X190919Y169081D01*
X191354Y169732D01*
X191507Y170500D01*
X191354Y171268D01*
X190919Y171919D01*
X190813Y171990D01*
Y173500D01*
X190713Y174002D01*
X190428Y174428D01*
X184428Y180428D01*
X184002Y180713D01*
X183970Y180719D01*
X183768Y180854D01*
X183000Y181007D01*
D02*
G37*
G36*
X30097Y175961D02*
X29023Y175819D01*
X28023Y175405D01*
X27163Y174745D01*
X26504Y173886D01*
X26089Y172885D01*
X25948Y171811D01*
X26089Y170737D01*
X26504Y169736D01*
X27163Y168877D01*
X28023Y168217D01*
X29023Y167803D01*
X30097Y167661D01*
X31171Y167803D01*
X32172Y168217D01*
X33032Y168877D01*
X33691Y169736D01*
X34106Y170737D01*
X34247Y171811D01*
X34106Y172885D01*
X33691Y173886D01*
X33032Y174745D01*
X32172Y175405D01*
X31171Y175819D01*
X30097Y175961D01*
D02*
G37*
G36*
X344000Y202007D02*
X343232Y201854D01*
X342581Y201419D01*
X336581Y195419D01*
X336146Y194768D01*
X335993Y194000D01*
Y168000D01*
X336146Y167232D01*
X336581Y166581D01*
X337232Y166146D01*
X338000Y165993D01*
X338768Y166146D01*
X339419Y166581D01*
X339854Y167232D01*
X340007Y168000D01*
Y193169D01*
X345419Y198581D01*
X345854Y199232D01*
X346007Y200000D01*
X345854Y200768D01*
X345419Y201419D01*
X344768Y201854D01*
X344000Y202007D01*
D02*
G37*
G36*
X18916Y170508D02*
X17842Y170367D01*
X16841Y169952D01*
X15982Y169292D01*
X15323Y168433D01*
X14908Y167432D01*
X14767Y166358D01*
X14908Y165284D01*
X15323Y164283D01*
X15982Y163424D01*
X16841Y162765D01*
X17842Y162350D01*
X18916Y162209D01*
X19990Y162350D01*
X20991Y162765D01*
X21851Y163424D01*
X22510Y164283D01*
X22925Y165284D01*
X23066Y166358D01*
X22925Y167432D01*
X22510Y168433D01*
X21851Y169292D01*
X20991Y169952D01*
X19990Y170367D01*
X18916Y170508D01*
D02*
G37*
G36*
X134000Y199507D02*
X133232Y199354D01*
X132581Y198919D01*
X132146Y198268D01*
X131993Y197500D01*
X132126Y196829D01*
X124648Y189351D01*
X124387Y188961D01*
X124296Y188500D01*
X124296Y188500D01*
Y178999D01*
X122649Y177351D01*
X122387Y176961D01*
X122296Y176500D01*
X122296Y176500D01*
Y164563D01*
X122081Y164419D01*
X121646Y163768D01*
X121493Y163000D01*
X121646Y162232D01*
X122081Y161581D01*
X122732Y161146D01*
X123500Y160993D01*
X124268Y161146D01*
X124919Y161581D01*
X125354Y162232D01*
X125507Y163000D01*
X125354Y163768D01*
X124919Y164419D01*
X124704Y164563D01*
Y176001D01*
X126351Y177648D01*
X126351Y177648D01*
X126613Y178039D01*
X126704Y178500D01*
X126704Y178500D01*
Y188001D01*
X134245Y195542D01*
X134768Y195646D01*
X135419Y196081D01*
X135854Y196732D01*
X136007Y197500D01*
X135854Y198268D01*
X135419Y198919D01*
X134768Y199354D01*
X134000Y199507D01*
D02*
G37*
G36*
X30097Y165055D02*
X29023Y164914D01*
X28023Y164499D01*
X27163Y163840D01*
X26504Y162980D01*
X26089Y161979D01*
X25948Y160906D01*
X26089Y159832D01*
X26504Y158831D01*
X27163Y157971D01*
X28023Y157312D01*
X29023Y156897D01*
X30097Y156756D01*
X31171Y156897D01*
X32172Y157312D01*
X33032Y157971D01*
X33691Y158831D01*
X34106Y159832D01*
X34247Y160906D01*
X34106Y161979D01*
X33691Y162980D01*
X33032Y163840D01*
X32172Y164499D01*
X31171Y164914D01*
X30097Y165055D01*
D02*
G37*
G36*
X18916Y159602D02*
X17842Y159461D01*
X16841Y159046D01*
X15982Y158387D01*
X15323Y157528D01*
X14908Y156527D01*
X14767Y155453D01*
X14908Y154379D01*
X15323Y153378D01*
X15982Y152518D01*
X16841Y151859D01*
X17842Y151444D01*
X18916Y151303D01*
X19990Y151444D01*
X20991Y151859D01*
X21851Y152518D01*
X22510Y153378D01*
X22925Y154379D01*
X23066Y155453D01*
X22925Y156527D01*
X22510Y157528D01*
X21851Y158387D01*
X20991Y159046D01*
X19990Y159461D01*
X18916Y159602D01*
D02*
G37*
G36*
X30597Y154298D02*
Y150500D01*
X34396D01*
X34313Y151129D01*
X33877Y152182D01*
X33183Y153086D01*
X32280Y153779D01*
X31227Y154215D01*
X30597Y154298D01*
D02*
G37*
G36*
X29597Y154298D02*
X28968Y154215D01*
X27915Y153779D01*
X27011Y153086D01*
X26318Y152182D01*
X25882Y151129D01*
X25799Y150500D01*
X29597D01*
Y154298D01*
D02*
G37*
G36*
X34396Y149500D02*
X30597D01*
Y145702D01*
X31227Y145785D01*
X32280Y146221D01*
X33183Y146914D01*
X33877Y147818D01*
X34313Y148871D01*
X34396Y149500D01*
D02*
G37*
G36*
X29597D02*
X25799D01*
X25882Y148871D01*
X26318Y147818D01*
X27011Y146914D01*
X27915Y146221D01*
X28968Y145785D01*
X29597Y145702D01*
Y149500D01*
D02*
G37*
G36*
X252500Y152869D02*
X251732Y152717D01*
X251081Y152281D01*
X250646Y151630D01*
X250576Y151279D01*
X247387Y148090D01*
X247126Y147700D01*
X247035Y147239D01*
X247035Y147239D01*
Y120867D01*
X247017Y120855D01*
X246582Y120204D01*
X246429Y119436D01*
X246582Y118668D01*
X247017Y118017D01*
X247668Y117582D01*
X248436Y117429D01*
X249204Y117582D01*
X249855Y118017D01*
X250291Y118668D01*
X250431Y119373D01*
X250521Y119539D01*
X250711Y119729D01*
X250877Y119819D01*
X251582Y119959D01*
X252233Y120395D01*
X252668Y121046D01*
X252821Y121814D01*
X252668Y122582D01*
X252233Y123233D01*
X252018Y123377D01*
Y145195D01*
X252404Y145512D01*
X252500Y145493D01*
X253268Y145646D01*
X253919Y146081D01*
X254354Y146732D01*
X254507Y147500D01*
X254354Y148268D01*
X253919Y148919D01*
X253901Y148931D01*
Y149431D01*
X253919Y149443D01*
X254354Y150094D01*
X254507Y150862D01*
X254354Y151630D01*
X253919Y152281D01*
X253268Y152717D01*
X252500Y152869D01*
D02*
G37*
G36*
X150500Y150215D02*
X149668Y150105D01*
X148893Y149784D01*
X148227Y149273D01*
X147716Y148607D01*
X147395Y147832D01*
X147285Y147000D01*
X147395Y146168D01*
X147716Y145393D01*
X148227Y144727D01*
X148893Y144216D01*
X149668Y143895D01*
X150500Y143785D01*
X151332Y143895D01*
X152107Y144216D01*
X152773Y144727D01*
X153284Y145393D01*
X153605Y146168D01*
X153715Y147000D01*
X153605Y147832D01*
X153284Y148607D01*
X152773Y149273D01*
X152107Y149784D01*
X151332Y150105D01*
X150500Y150215D01*
D02*
G37*
G36*
X140500D02*
X139668Y150105D01*
X138893Y149784D01*
X138227Y149273D01*
X137716Y148607D01*
X137395Y147832D01*
X137285Y147000D01*
X137395Y146168D01*
X137716Y145393D01*
X138227Y144727D01*
X138893Y144216D01*
X139668Y143895D01*
X140500Y143785D01*
X141332Y143895D01*
X142107Y144216D01*
X142773Y144727D01*
X143284Y145393D01*
X143605Y146168D01*
X143715Y147000D01*
X143605Y147832D01*
X143284Y148607D01*
X142773Y149273D01*
X142107Y149784D01*
X141332Y150105D01*
X140500Y150215D01*
D02*
G37*
G36*
X18916Y148697D02*
X17842Y148556D01*
X16841Y148141D01*
X15982Y147482D01*
X15323Y146622D01*
X14908Y145621D01*
X14767Y144547D01*
X14908Y143473D01*
X15323Y142472D01*
X15982Y141613D01*
X16841Y140954D01*
X17842Y140539D01*
X18916Y140398D01*
X19990Y140539D01*
X20991Y140954D01*
X21851Y141613D01*
X22510Y142472D01*
X22925Y143473D01*
X23066Y144547D01*
X22925Y145621D01*
X22510Y146622D01*
X21851Y147482D01*
X20991Y148141D01*
X19990Y148556D01*
X18916Y148697D01*
D02*
G37*
G36*
X225587Y140746D02*
X220413D01*
Y136372D01*
X225587D01*
Y136546D01*
X226028Y136782D01*
X226232Y136646D01*
X227000Y136493D01*
X227768Y136646D01*
X228419Y137081D01*
X228854Y137732D01*
X229007Y138500D01*
X228854Y139268D01*
X228419Y139919D01*
X227768Y140354D01*
X227000Y140507D01*
X226232Y140354D01*
X226028Y140218D01*
X225587Y140454D01*
Y140746D01*
D02*
G37*
G36*
X186500Y138300D02*
X184600D01*
Y136000D01*
X186500D01*
Y138300D01*
D02*
G37*
G36*
X183600D02*
X181700D01*
Y136000D01*
X183600D01*
Y138300D01*
D02*
G37*
G36*
X30097Y143244D02*
X29023Y143103D01*
X28023Y142688D01*
X27163Y142029D01*
X26504Y141169D01*
X26089Y140168D01*
X25948Y139094D01*
X26089Y138021D01*
X26504Y137020D01*
X27163Y136160D01*
X28023Y135501D01*
X29023Y135086D01*
X30097Y134945D01*
X31171Y135086D01*
X32172Y135501D01*
X33032Y136160D01*
X33691Y137020D01*
X34106Y138021D01*
X34247Y139094D01*
X34106Y140168D01*
X33691Y141169D01*
X33032Y142029D01*
X32172Y142688D01*
X31171Y143103D01*
X30097Y143244D01*
D02*
G37*
G36*
X243216Y163291D02*
X242448Y163138D01*
X241797Y162703D01*
X241362Y162051D01*
X241210Y161284D01*
X241362Y160515D01*
X241797Y159864D01*
X242012Y159721D01*
Y137317D01*
X241646Y136768D01*
X241493Y136000D01*
X241646Y135232D01*
X242081Y134581D01*
X242732Y134146D01*
X243500Y133993D01*
X244268Y134146D01*
X244919Y134581D01*
X245354Y135232D01*
X245507Y136000D01*
X245354Y136768D01*
X244919Y137419D01*
X244421Y137752D01*
Y159721D01*
X244636Y159864D01*
X245071Y160515D01*
X245224Y161284D01*
X245071Y162051D01*
X244636Y162703D01*
X243985Y163138D01*
X243216Y163291D01*
D02*
G37*
G36*
X225800Y135800D02*
X223500D01*
Y133900D01*
X225800D01*
Y135800D01*
D02*
G37*
G36*
X222500D02*
X220200D01*
Y133900D01*
X222500D01*
Y135800D01*
D02*
G37*
G36*
X186500Y135000D02*
X184600D01*
Y132700D01*
X186500D01*
Y135000D01*
D02*
G37*
G36*
X183600D02*
X181700D01*
Y132700D01*
X183600D01*
Y135000D01*
D02*
G37*
G36*
X294000Y159507D02*
X293232Y159354D01*
X292581Y158919D01*
X292146Y158268D01*
X291993Y157500D01*
X292146Y156732D01*
X292581Y156081D01*
X293232Y155646D01*
X294000Y155493D01*
X294254Y155543D01*
X294796Y155001D01*
Y136063D01*
X294581Y135919D01*
X294146Y135268D01*
X293993Y134500D01*
X294146Y133732D01*
X294581Y133081D01*
X295232Y132646D01*
X296000Y132493D01*
X296768Y132646D01*
X297419Y133081D01*
X297854Y133732D01*
X298007Y134500D01*
X297854Y135268D01*
X297419Y135919D01*
X297204Y136063D01*
Y155500D01*
X297204Y155500D01*
X297113Y155961D01*
X296851Y156351D01*
X296851Y156351D01*
X295957Y157246D01*
X296007Y157500D01*
X295854Y158268D01*
X295419Y158919D01*
X294768Y159354D01*
X294000Y159507D01*
D02*
G37*
G36*
X363098Y151900D02*
X361107Y151703D01*
X359192Y151123D01*
X357428Y150179D01*
X355881Y148910D01*
X354612Y147363D01*
X353669Y145599D01*
X353088Y143684D01*
X352892Y141693D01*
X353088Y139702D01*
X353669Y137787D01*
X354612Y136022D01*
X355881Y134476D01*
X357428Y133206D01*
X359192Y132263D01*
X361107Y131682D01*
X363098Y131486D01*
X365090Y131682D01*
X367004Y132263D01*
X368769Y133206D01*
X370316Y134476D01*
X371585Y136022D01*
X372528Y137787D01*
X373109Y139702D01*
X373305Y141693D01*
X373109Y143684D01*
X372528Y145599D01*
X371585Y147363D01*
X370316Y148910D01*
X368769Y150179D01*
X367004Y151123D01*
X365090Y151703D01*
X363098Y151900D01*
D02*
G37*
G36*
X225800Y132900D02*
X223500D01*
Y131000D01*
X225800D01*
Y132900D01*
D02*
G37*
G36*
X222500D02*
X220200D01*
Y131000D01*
X222500D01*
Y132900D01*
D02*
G37*
G36*
X72500Y131624D02*
Y130000D01*
X74124D01*
X74054Y130351D01*
X73572Y131072D01*
X72851Y131554D01*
X72500Y131624D01*
D02*
G37*
G36*
X71500D02*
X71149Y131554D01*
X70428Y131072D01*
X69946Y130351D01*
X69876Y130000D01*
X71500D01*
Y131624D01*
D02*
G37*
G36*
X18916Y137791D02*
X17842Y137650D01*
X16841Y137235D01*
X15982Y136576D01*
X15323Y135717D01*
X14908Y134716D01*
X14767Y133642D01*
X14908Y132568D01*
X15323Y131567D01*
X15982Y130708D01*
X16841Y130048D01*
X17842Y129633D01*
X18916Y129492D01*
X19990Y129633D01*
X20991Y130048D01*
X21851Y130708D01*
X22510Y131567D01*
X22925Y132568D01*
X23066Y133642D01*
X22925Y134716D01*
X22510Y135717D01*
X21851Y136576D01*
X20991Y137235D01*
X19990Y137650D01*
X18916Y137791D01*
D02*
G37*
G36*
X197000Y130124D02*
X196649Y130054D01*
X195928Y129572D01*
X195528Y128974D01*
X195409Y128943D01*
X195091D01*
X194972Y128974D01*
X194572Y129572D01*
X193851Y130054D01*
X193500Y130124D01*
Y128000D01*
X193000D01*
Y127500D01*
X190876D01*
X190945Y127149D01*
X191428Y126427D01*
X192026Y126028D01*
X192057Y125909D01*
Y125591D01*
X192026Y125472D01*
X191428Y125073D01*
X190945Y124351D01*
X190876Y124000D01*
X195124D01*
X195054Y124351D01*
X194572Y125073D01*
X193974Y125472D01*
X193943Y125591D01*
Y125909D01*
X193974Y126028D01*
X194572Y126427D01*
X194972Y127026D01*
X195091Y127057D01*
X195409D01*
X195528Y127026D01*
X195928Y126427D01*
X196649Y125945D01*
X197000Y125876D01*
Y128000D01*
Y130124D01*
D02*
G37*
G36*
X201500D02*
X201149Y130054D01*
X200428Y129572D01*
X200028Y128974D01*
X199909Y128943D01*
X199591D01*
X199472Y128974D01*
X199073Y129572D01*
X198351Y130054D01*
X198000Y130124D01*
Y128000D01*
Y125876D01*
X198351Y125945D01*
X199073Y126427D01*
X199472Y127026D01*
X199591Y127057D01*
X199909D01*
X200028Y127026D01*
X200428Y126427D01*
X201026Y126028D01*
X201057Y125909D01*
Y125591D01*
X201026Y125472D01*
X200428Y125073D01*
X199945Y124351D01*
X199876Y124000D01*
X204124D01*
X204054Y124351D01*
X203573Y125073D01*
X202974Y125472D01*
X202943Y125591D01*
Y125909D01*
X202974Y126028D01*
X203573Y126427D01*
X204054Y127149D01*
X204124Y127500D01*
X202000D01*
Y128000D01*
X201500D01*
Y130124D01*
D02*
G37*
G36*
X202500D02*
Y128500D01*
X204124D01*
X204054Y128851D01*
X203573Y129572D01*
X202851Y130054D01*
X202500Y130124D01*
D02*
G37*
G36*
X192500D02*
X192149Y130054D01*
X191428Y129572D01*
X190945Y128851D01*
X190876Y128500D01*
X192500D01*
Y130124D01*
D02*
G37*
G36*
X179500Y142007D02*
X178732Y141854D01*
X178081Y141419D01*
X177646Y140768D01*
X177493Y140000D01*
X177646Y139232D01*
X178081Y138581D01*
X177919Y138087D01*
X176753D01*
Y132913D01*
X177737D01*
Y131855D01*
X177732Y131854D01*
X177081Y131419D01*
X176646Y130768D01*
X176493Y130000D01*
X176646Y129232D01*
X177081Y128581D01*
X177732Y128146D01*
X178500Y127993D01*
X179268Y128146D01*
X179919Y128581D01*
X180354Y129232D01*
X180507Y130000D01*
X180354Y130768D01*
X180145Y131081D01*
Y132913D01*
X181128D01*
Y138087D01*
X181081D01*
X180919Y138581D01*
X181354Y139232D01*
X181507Y140000D01*
X181354Y140768D01*
X180919Y141419D01*
X180268Y141854D01*
X179500Y142007D01*
D02*
G37*
G36*
X74124Y129000D02*
X72500D01*
Y127376D01*
X72851Y127445D01*
X73572Y127927D01*
X74054Y128649D01*
X74124Y129000D01*
D02*
G37*
G36*
X71500D02*
X69876D01*
X69946Y128649D01*
X70428Y127927D01*
X71149Y127445D01*
X71500Y127376D01*
Y129000D01*
D02*
G37*
G36*
X34212Y132303D02*
X25983D01*
Y124075D01*
X34212D01*
Y132303D01*
D02*
G37*
G36*
X176000Y125624D02*
X175649Y125555D01*
X174927Y125073D01*
X174445Y124351D01*
X174376Y124000D01*
X176000D01*
Y125624D01*
D02*
G37*
G36*
X183800Y124500D02*
X181500D01*
Y122600D01*
X183800D01*
Y124500D01*
D02*
G37*
G36*
X263000Y137007D02*
X262232Y136854D01*
X261581Y136419D01*
X261146Y135768D01*
X260993Y135000D01*
X261146Y134232D01*
X261581Y133581D01*
X261796Y133437D01*
Y125867D01*
X261732Y125854D01*
X261081Y125419D01*
X260646Y124768D01*
X260493Y124000D01*
X260646Y123232D01*
X261081Y122581D01*
X261732Y122146D01*
X262500Y121993D01*
X263268Y122146D01*
X263919Y122581D01*
X264354Y123232D01*
X264507Y124000D01*
X264354Y124768D01*
X264204Y124993D01*
Y133437D01*
X264419Y133581D01*
X264854Y134232D01*
X265007Y135000D01*
X264854Y135768D01*
X264419Y136419D01*
X263768Y136854D01*
X263000Y137007D01*
D02*
G37*
G36*
X176000Y123000D02*
X174376D01*
X174445Y122649D01*
X174927Y121927D01*
X175649Y121446D01*
X176000Y121376D01*
Y123000D01*
D02*
G37*
G36*
X204124D02*
X199876D01*
X199945Y122649D01*
X200428Y121927D01*
X201026Y121528D01*
X201057Y121409D01*
Y121091D01*
X201026Y120972D01*
X200428Y120572D01*
X200028Y119974D01*
X199909Y119943D01*
X199591D01*
X199472Y119974D01*
X199073Y120572D01*
X198351Y121054D01*
X198000Y121124D01*
Y119000D01*
Y116876D01*
X198351Y116946D01*
X199073Y117428D01*
X199472Y118026D01*
X199591Y118057D01*
X199909D01*
X200028Y118026D01*
X200428Y117428D01*
X201149Y116946D01*
X201500Y116876D01*
Y119000D01*
X202000D01*
Y119500D01*
X204124D01*
X204054Y119851D01*
X203573Y120572D01*
X202974Y120972D01*
X202943Y121091D01*
Y121409D01*
X202974Y121528D01*
X203573Y121927D01*
X204054Y122649D01*
X204124Y123000D01*
D02*
G37*
G36*
X183800Y121600D02*
X181500D01*
Y119700D01*
X183800D01*
Y121600D01*
D02*
G37*
G36*
X177000Y125624D02*
Y123500D01*
Y121376D01*
X177351Y121446D01*
X177700Y121679D01*
X178200Y121411D01*
Y119700D01*
X180500D01*
Y122100D01*
Y124500D01*
X178455D01*
X178073Y125073D01*
X177351Y125555D01*
X177000Y125624D01*
D02*
G37*
G36*
X204124Y118500D02*
X202500D01*
Y116876D01*
X202851Y116946D01*
X203573Y117428D01*
X204054Y118149D01*
X204124Y118500D01*
D02*
G37*
G36*
X195124Y123000D02*
X190876D01*
X190945Y122649D01*
X191428Y121927D01*
X192026Y121528D01*
X192057Y121409D01*
Y121091D01*
X192026Y120972D01*
X191428Y120572D01*
X190945Y119851D01*
X190876Y119500D01*
X193000D01*
Y119000D01*
X193500D01*
Y116876D01*
X193851Y116946D01*
X194572Y117428D01*
X194972Y118026D01*
X195091Y118057D01*
X195409D01*
X195528Y118026D01*
X195928Y117428D01*
X196649Y116946D01*
X197000Y116876D01*
Y119000D01*
Y121124D01*
X196649Y121054D01*
X195928Y120572D01*
X195528Y119974D01*
X195409Y119943D01*
X195091D01*
X194972Y119974D01*
X194572Y120572D01*
X193974Y120972D01*
X193943Y121091D01*
Y121409D01*
X193974Y121528D01*
X194572Y121927D01*
X195054Y122649D01*
X195124Y123000D01*
D02*
G37*
G36*
X192500Y118500D02*
X190876D01*
X190945Y118149D01*
X191428Y117428D01*
X192149Y116946D01*
X192500Y116876D01*
Y118500D01*
D02*
G37*
G36*
X176000Y119507D02*
X175232Y119354D01*
X174581Y118919D01*
X174146Y118268D01*
X173993Y117500D01*
X174146Y116732D01*
X174581Y116081D01*
X175232Y115646D01*
X176000Y115493D01*
X176768Y115646D01*
X176904Y115737D01*
X178413D01*
Y114753D01*
X183587D01*
Y119128D01*
X178413D01*
Y118145D01*
X177879D01*
X177854Y118268D01*
X177419Y118919D01*
X176768Y119354D01*
X176000Y119507D01*
D02*
G37*
G36*
X51500Y112624D02*
Y111000D01*
X53124D01*
X53054Y111351D01*
X52573Y112073D01*
X51851Y112555D01*
X51500Y112624D01*
D02*
G37*
G36*
X50500D02*
X50149Y112555D01*
X49428Y112073D01*
X48945Y111351D01*
X48876Y111000D01*
X50500D01*
Y112624D01*
D02*
G37*
G36*
X282500Y115007D02*
X281732Y114854D01*
X281081Y114419D01*
X280646Y113768D01*
X280493Y113000D01*
X280543Y112746D01*
X274501Y106704D01*
X272563D01*
X272419Y106919D01*
X271768Y107354D01*
X271000Y107507D01*
X270232Y107354D01*
X269581Y106919D01*
X269146Y106268D01*
X268993Y105500D01*
X269146Y104732D01*
X269581Y104081D01*
X270232Y103646D01*
X271000Y103493D01*
X271768Y103646D01*
X272419Y104081D01*
X272563Y104296D01*
X275000D01*
X275000Y104296D01*
X275461Y104387D01*
X275851Y104648D01*
X282246Y111043D01*
X282500Y110993D01*
X283268Y111146D01*
X283919Y111581D01*
X284354Y112232D01*
X284507Y113000D01*
X284354Y113768D01*
X283919Y114419D01*
X283268Y114854D01*
X282500Y115007D01*
D02*
G37*
G36*
X361622Y118425D02*
X353394D01*
Y110197D01*
X361622D01*
Y118425D01*
D02*
G37*
G36*
X201500Y111124D02*
X201149Y111055D01*
X200428Y110573D01*
X200028Y109974D01*
X199909Y109943D01*
X199591D01*
X199472Y109974D01*
X199073Y110573D01*
X198351Y111055D01*
X198000Y111124D01*
Y109000D01*
Y106876D01*
X198351Y106946D01*
X199073Y107428D01*
X199472Y108026D01*
X199591Y108057D01*
X199909D01*
X200028Y108026D01*
X200428Y107428D01*
X201149Y106946D01*
X201500Y106876D01*
Y109000D01*
Y111124D01*
D02*
G37*
G36*
X197000D02*
X196649Y111055D01*
X195928Y110573D01*
X195528Y109974D01*
X195409Y109943D01*
X195091D01*
X194972Y109974D01*
X194572Y110573D01*
X193851Y111055D01*
X193500Y111124D01*
Y109000D01*
Y106876D01*
X193851Y106946D01*
X194572Y107428D01*
X194972Y108026D01*
X195091Y108057D01*
X195409D01*
X195528Y108026D01*
X195928Y107428D01*
X196649Y106946D01*
X197000Y106876D01*
Y109000D01*
Y111124D01*
D02*
G37*
G36*
X202500D02*
Y109500D01*
X204124D01*
X204054Y109851D01*
X203573Y110573D01*
X202851Y111055D01*
X202500Y111124D01*
D02*
G37*
G36*
X192500D02*
X192149Y111055D01*
X191428Y110573D01*
X190945Y109851D01*
X190876Y109500D01*
X192500D01*
Y111124D01*
D02*
G37*
G36*
X182300Y110500D02*
X180000D01*
Y108600D01*
X182300D01*
Y110500D01*
D02*
G37*
G36*
X179000D02*
X176700D01*
Y108600D01*
X179000D01*
Y110500D01*
D02*
G37*
G36*
X53124Y110000D02*
X48876D01*
X48945Y109649D01*
X49428Y108928D01*
X49867Y108634D01*
X49927Y108075D01*
X49911Y108049D01*
X49445Y107351D01*
X49376Y107000D01*
X53624D01*
X53554Y107351D01*
X53073Y108072D01*
X52633Y108366D01*
X52573Y108925D01*
X52588Y108951D01*
X53054Y109649D01*
X53124Y110000D01*
D02*
G37*
G36*
X204124Y108500D02*
X202500D01*
Y106876D01*
X202851Y106946D01*
X203573Y107428D01*
X204054Y108149D01*
X204124Y108500D01*
D02*
G37*
G36*
X192500D02*
X190876D01*
X190945Y108149D01*
X191428Y107428D01*
X192149Y106946D01*
X192500Y106876D01*
Y108500D01*
D02*
G37*
G36*
X182300Y107600D02*
X180000D01*
Y105700D01*
X182300D01*
Y107600D01*
D02*
G37*
G36*
X179000D02*
X176700D01*
Y105700D01*
X179000D01*
Y107600D01*
D02*
G37*
G36*
X201500Y106124D02*
X201149Y106054D01*
X200428Y105572D01*
X200028Y104974D01*
X199909Y104943D01*
X199591D01*
X199472Y104974D01*
X199073Y105572D01*
X198351Y106054D01*
X198000Y106124D01*
Y104000D01*
Y101876D01*
X198351Y101945D01*
X199073Y102427D01*
X199472Y103026D01*
X199591Y103057D01*
X199909D01*
X200028Y103026D01*
X200428Y102427D01*
X201149Y101945D01*
X201500Y101876D01*
Y104000D01*
Y106124D01*
D02*
G37*
G36*
X197000D02*
X196649Y106054D01*
X195928Y105572D01*
X195528Y104974D01*
X195409Y104943D01*
X195091D01*
X194972Y104974D01*
X194572Y105572D01*
X193851Y106054D01*
X193500Y106124D01*
Y104000D01*
Y101876D01*
X193851Y101945D01*
X194572Y102427D01*
X194972Y103026D01*
X195091Y103057D01*
X195409D01*
X195528Y103026D01*
X195928Y102427D01*
X196649Y101945D01*
X197000Y101876D01*
Y104000D01*
Y106124D01*
D02*
G37*
G36*
X368689Y113008D02*
X367615Y112867D01*
X366614Y112452D01*
X365755Y111793D01*
X365095Y110933D01*
X364681Y109932D01*
X364539Y108858D01*
X364681Y107784D01*
X365095Y106783D01*
X365755Y105924D01*
X366614Y105265D01*
X367615Y104850D01*
X368689Y104709D01*
X369763Y104850D01*
X370764Y105265D01*
X371623Y105924D01*
X372283Y106783D01*
X372697Y107784D01*
X372839Y108858D01*
X372697Y109932D01*
X372283Y110933D01*
X371623Y111793D01*
X370764Y112452D01*
X369763Y112867D01*
X368689Y113008D01*
D02*
G37*
G36*
X202500Y106124D02*
Y104500D01*
X204124D01*
X204054Y104851D01*
X203573Y105572D01*
X202851Y106054D01*
X202500Y106124D01*
D02*
G37*
G36*
X192500D02*
X192149Y106054D01*
X191428Y105572D01*
X190945Y104851D01*
X190876Y104500D01*
X192500D01*
Y106124D01*
D02*
G37*
G36*
X53624Y106000D02*
X49376D01*
X49445Y105649D01*
X49927Y104928D01*
X50193Y104750D01*
Y104250D01*
X49927Y104072D01*
X49445Y103351D01*
X49376Y103000D01*
X53624D01*
X53554Y103351D01*
X53073Y104072D01*
X52807Y104250D01*
Y104750D01*
X53073Y104928D01*
X53554Y105649D01*
X53624Y106000D01*
D02*
G37*
G36*
X204124Y103500D02*
X202500D01*
Y101876D01*
X202851Y101945D01*
X203573Y102427D01*
X204054Y103149D01*
X204124Y103500D01*
D02*
G37*
G36*
X192500D02*
X190876D01*
X190945Y103149D01*
X191428Y102427D01*
X192149Y101945D01*
X192500Y101876D01*
Y103500D01*
D02*
G37*
G36*
X53624Y102000D02*
X52000D01*
Y100376D01*
X52351Y100445D01*
X53073Y100927D01*
X53554Y101649D01*
X53624Y102000D01*
D02*
G37*
G36*
X51000D02*
X49376D01*
X49445Y101649D01*
X49927Y100927D01*
X50649Y100445D01*
X51000Y100376D01*
Y102000D01*
D02*
G37*
G36*
X357508Y107555D02*
X356434Y107414D01*
X355433Y106999D01*
X354574Y106340D01*
X353914Y105480D01*
X353500Y104480D01*
X353358Y103405D01*
X353500Y102331D01*
X353914Y101331D01*
X354574Y100471D01*
X355433Y99812D01*
X356434Y99397D01*
X357508Y99256D01*
X358582Y99397D01*
X359583Y99812D01*
X360442Y100471D01*
X361102Y101331D01*
X361516Y102331D01*
X361658Y103405D01*
X361516Y104480D01*
X361102Y105480D01*
X360442Y106340D01*
X359583Y106999D01*
X358582Y107414D01*
X357508Y107555D01*
D02*
G37*
G36*
X182087Y105128D02*
X176913D01*
Y100753D01*
X176552Y100418D01*
X176232Y100354D01*
X175581Y99919D01*
X175146Y99268D01*
X174993Y98500D01*
X175146Y97732D01*
X175581Y97081D01*
X176232Y96646D01*
X177000Y96493D01*
X177768Y96646D01*
X178419Y97081D01*
X178854Y97732D01*
X178958Y98255D01*
X180351Y99648D01*
X180351Y99648D01*
X180613Y100039D01*
X180704Y100500D01*
X181090Y100753D01*
X182087D01*
Y105128D01*
D02*
G37*
G36*
X101500Y97007D02*
X100732Y96854D01*
X100081Y96419D01*
X99937Y96204D01*
X94563D01*
X94419Y96419D01*
X93768Y96854D01*
X93000Y97007D01*
X92232Y96854D01*
X91581Y96419D01*
X91146Y95768D01*
X90993Y95000D01*
X91146Y94232D01*
X91581Y93581D01*
X92232Y93146D01*
X93000Y92993D01*
X93768Y93146D01*
X94419Y93581D01*
X94563Y93796D01*
X99937D01*
X100081Y93581D01*
X100732Y93146D01*
X101500Y92993D01*
X102268Y93146D01*
X102919Y93581D01*
X103354Y94232D01*
X103507Y95000D01*
X103354Y95768D01*
X102919Y96419D01*
X102268Y96854D01*
X101500Y97007D01*
D02*
G37*
G36*
X221800Y96800D02*
X219900D01*
Y94500D01*
X221800D01*
Y96800D01*
D02*
G37*
G36*
X218900D02*
X217000D01*
Y94500D01*
X218900D01*
Y96800D01*
D02*
G37*
G36*
X368689Y102102D02*
X367615Y101961D01*
X366614Y101547D01*
X365755Y100887D01*
X365095Y100028D01*
X364681Y99027D01*
X364539Y97953D01*
X364681Y96879D01*
X365095Y95878D01*
X365755Y95019D01*
X366614Y94359D01*
X367615Y93945D01*
X368689Y93803D01*
X369763Y93945D01*
X370764Y94359D01*
X371623Y95019D01*
X372283Y95878D01*
X372697Y96879D01*
X372839Y97953D01*
X372697Y99027D01*
X372283Y100028D01*
X371623Y100887D01*
X370764Y101547D01*
X369763Y101961D01*
X368689Y102102D01*
D02*
G37*
G36*
X181900Y95800D02*
X180000D01*
Y93500D01*
X181900D01*
Y95800D01*
D02*
G37*
G36*
X358008Y96798D02*
Y93000D01*
X361806D01*
X361723Y93629D01*
X361287Y94682D01*
X360594Y95586D01*
X359690Y96279D01*
X358637Y96715D01*
X358008Y96798D01*
D02*
G37*
G36*
X357008D02*
X356378Y96715D01*
X355326Y96279D01*
X354422Y95586D01*
X353728Y94682D01*
X353292Y93629D01*
X353210Y93000D01*
X357008D01*
Y96798D01*
D02*
G37*
G36*
X221800Y93500D02*
X219900D01*
Y91200D01*
X221800D01*
Y93500D01*
D02*
G37*
G36*
X218900D02*
X217000D01*
Y91200D01*
X218900D01*
Y93500D01*
D02*
G37*
G36*
X52500Y92007D02*
X51732Y91854D01*
X51081Y91419D01*
X50937Y91204D01*
X47000D01*
X46539Y91113D01*
X46294Y90949D01*
X46000Y91007D01*
X45232Y90854D01*
X44581Y90419D01*
X44146Y89768D01*
X43993Y89000D01*
X44146Y88232D01*
X44581Y87581D01*
X45232Y87146D01*
X46000Y86993D01*
X46768Y87146D01*
X47419Y87581D01*
X47854Y88232D01*
X47966Y88796D01*
X50937D01*
X51081Y88581D01*
X51732Y88146D01*
X52500Y87993D01*
X53268Y88146D01*
X53919Y88581D01*
X54354Y89232D01*
X54507Y90000D01*
X54354Y90768D01*
X53919Y91419D01*
X53268Y91854D01*
X52500Y92007D01*
D02*
G37*
G36*
X24507Y111014D02*
X22516Y110818D01*
X20601Y110237D01*
X18836Y109294D01*
X17290Y108024D01*
X16020Y106478D01*
X15077Y104713D01*
X14496Y102798D01*
X14300Y100807D01*
X14496Y98816D01*
X15077Y96901D01*
X16020Y95137D01*
X17290Y93590D01*
X18836Y92321D01*
X20601Y91377D01*
X22516Y90797D01*
X24507Y90601D01*
X26498Y90797D01*
X28413Y91377D01*
X30177Y92321D01*
X31724Y93590D01*
X32993Y95137D01*
X33937Y96901D01*
X34517Y98816D01*
X34714Y100807D01*
X34517Y102798D01*
X33937Y104713D01*
X32993Y106478D01*
X31724Y108024D01*
X30177Y109294D01*
X28413Y110237D01*
X26498Y110818D01*
X24507Y111014D01*
D02*
G37*
G36*
X184800Y95800D02*
X182900D01*
Y93000D01*
X182400D01*
Y92500D01*
X180000D01*
Y90964D01*
X179543Y90873D01*
X178892Y90438D01*
X178457Y89787D01*
X178304Y89019D01*
X178457Y88251D01*
X178892Y87600D01*
X179543Y87165D01*
X180311Y87012D01*
X181079Y87165D01*
X181730Y87600D01*
X182166Y88251D01*
X182235Y88602D01*
X184377D01*
X184377Y88602D01*
X184838Y88694D01*
X185229Y88955D01*
X186687Y90413D01*
X189746D01*
Y95587D01*
X185372D01*
Y92890D01*
X185300Y92842D01*
X184800Y93109D01*
Y95800D01*
D02*
G37*
G36*
X361806Y92000D02*
X358008D01*
Y88202D01*
X358637Y88285D01*
X359690Y88721D01*
X360594Y89414D01*
X361287Y90318D01*
X361723Y91370D01*
X361806Y92000D01*
D02*
G37*
G36*
X357008D02*
X353210D01*
X353292Y91370D01*
X353728Y90318D01*
X354422Y89414D01*
X355326Y88721D01*
X356378Y88285D01*
X357008Y88202D01*
Y92000D01*
D02*
G37*
G36*
X226747Y96587D02*
X222372D01*
Y91413D01*
X223020D01*
X223242Y90913D01*
X223146Y90768D01*
X222993Y90000D01*
X223146Y89232D01*
X223581Y88581D01*
X224232Y88146D01*
X225000Y87993D01*
X225768Y88146D01*
X226419Y88581D01*
X226854Y89232D01*
X227007Y90000D01*
X226854Y90768D01*
X226603Y91144D01*
X226747Y91413D01*
X226747D01*
Y96587D01*
D02*
G37*
G36*
X163500Y86624D02*
Y85000D01*
X165124D01*
X165055Y85351D01*
X164573Y86072D01*
X163851Y86554D01*
X163500Y86624D01*
D02*
G37*
G36*
X162500D02*
X162149Y86554D01*
X161427Y86072D01*
X160945Y85351D01*
X160876Y85000D01*
X162500D01*
Y86624D01*
D02*
G37*
G36*
X368689Y91197D02*
X367615Y91056D01*
X366614Y90641D01*
X365755Y89982D01*
X365095Y89122D01*
X364681Y88121D01*
X364539Y87047D01*
X364681Y85973D01*
X365095Y84972D01*
X365755Y84113D01*
X366614Y83454D01*
X367615Y83039D01*
X368689Y82898D01*
X369763Y83039D01*
X370764Y83454D01*
X371623Y84113D01*
X372283Y84972D01*
X372697Y85973D01*
X372839Y87047D01*
X372697Y88121D01*
X372283Y89122D01*
X371623Y89982D01*
X370764Y90641D01*
X369763Y91056D01*
X368689Y91197D01*
D02*
G37*
G36*
X165286Y84000D02*
X160876D01*
X160945Y83649D01*
X161427Y82928D01*
X162149Y82446D01*
X162961Y82284D01*
X163000Y82276D01*
X163214Y82000D01*
X167624D01*
X167554Y82351D01*
X167072Y83073D01*
X166351Y83555D01*
X165539Y83716D01*
X165500Y83724D01*
X165286Y84000D01*
D02*
G37*
G36*
X167624Y81000D02*
X166000D01*
Y79376D01*
X166351Y79445D01*
X167072Y79927D01*
X167554Y80649D01*
X167624Y81000D01*
D02*
G37*
G36*
X165000D02*
X163376D01*
X163445Y80649D01*
X163927Y79927D01*
X164649Y79445D01*
X165000Y79376D01*
Y81000D01*
D02*
G37*
G36*
X9500Y82473D02*
Y78500D01*
X13473D01*
X13384Y79175D01*
X12931Y80269D01*
X12209Y81209D01*
X11269Y81931D01*
X10175Y82384D01*
X9500Y82473D01*
D02*
G37*
G36*
X8500D02*
X7825Y82384D01*
X6731Y81931D01*
X5791Y81209D01*
X5069Y80269D01*
X4616Y79175D01*
X4527Y78500D01*
X8500D01*
Y82473D01*
D02*
G37*
G36*
X357508Y85744D02*
X356434Y85603D01*
X355433Y85188D01*
X354574Y84529D01*
X353914Y83669D01*
X353500Y82669D01*
X353358Y81595D01*
X353500Y80520D01*
X353914Y79520D01*
X354574Y78660D01*
X355433Y78001D01*
X356434Y77586D01*
X357508Y77445D01*
X358582Y77586D01*
X359583Y78001D01*
X360442Y78660D01*
X361102Y79520D01*
X361516Y80520D01*
X361658Y81595D01*
X361516Y82669D01*
X361102Y83669D01*
X360442Y84529D01*
X359583Y85188D01*
X358582Y85603D01*
X357508Y85744D01*
D02*
G37*
G36*
X318000Y128007D02*
X317232Y127854D01*
X316581Y127419D01*
X316146Y126768D01*
X315993Y126000D01*
X316146Y125232D01*
X316581Y124581D01*
X317232Y124146D01*
X318000Y123993D01*
X318254Y124043D01*
X322543Y119754D01*
X322493Y119500D01*
Y79000D01*
X322646Y78232D01*
X323081Y77581D01*
X323732Y77146D01*
X324500Y76993D01*
X325268Y77146D01*
X325919Y77581D01*
X326354Y78232D01*
X326507Y79000D01*
Y119500D01*
X326354Y120268D01*
X325919Y120919D01*
X325268Y121354D01*
X324500Y121507D01*
X324246Y121457D01*
X319957Y125746D01*
X320007Y126000D01*
X319854Y126768D01*
X319419Y127419D01*
X318768Y127854D01*
X318000Y128007D01*
D02*
G37*
G36*
X160000Y80507D02*
X159232Y80354D01*
X158581Y79919D01*
X158146Y79268D01*
X158034Y78704D01*
X157000D01*
X156539Y78613D01*
X156149Y78351D01*
X154254Y76457D01*
X154000Y76507D01*
X153232Y76354D01*
X152581Y75919D01*
X152146Y75268D01*
X151993Y74500D01*
X152146Y73732D01*
X152581Y73081D01*
X153232Y72646D01*
X154000Y72493D01*
X154768Y72646D01*
X155419Y73081D01*
X155854Y73732D01*
X156007Y74500D01*
X155957Y74754D01*
X157499Y76296D01*
X159000D01*
X159000Y76296D01*
X159461Y76387D01*
X159706Y76551D01*
X160000Y76493D01*
X160768Y76646D01*
X161419Y77081D01*
X161854Y77732D01*
X162007Y78500D01*
X161854Y79268D01*
X161419Y79919D01*
X160768Y80354D01*
X160000Y80507D01*
D02*
G37*
G36*
X225500Y76624D02*
Y75000D01*
X227124D01*
X227055Y75351D01*
X226572Y76073D01*
X225851Y76555D01*
X225500Y76624D01*
D02*
G37*
G36*
X224500D02*
X224149Y76555D01*
X223428Y76073D01*
X222945Y75351D01*
X222876Y75000D01*
X224500D01*
Y76624D01*
D02*
G37*
G36*
X13473Y77500D02*
X9500D01*
Y73527D01*
X10175Y73616D01*
X11269Y74069D01*
X12209Y74791D01*
X12931Y75731D01*
X13384Y76825D01*
X13473Y77500D01*
D02*
G37*
G36*
X8500D02*
X4527D01*
X4616Y76825D01*
X5069Y75731D01*
X5791Y74791D01*
X6731Y74069D01*
X7825Y73616D01*
X8500Y73527D01*
Y77500D01*
D02*
G37*
G36*
X227124Y74000D02*
X225500D01*
Y72376D01*
X225851Y72445D01*
X226572Y72927D01*
X227055Y73649D01*
X227124Y74000D01*
D02*
G37*
G36*
X224500D02*
X222876D01*
X222945Y73649D01*
X223428Y72927D01*
X224149Y72445D01*
X224500Y72376D01*
Y74000D01*
D02*
G37*
G36*
X368689Y80291D02*
X367615Y80150D01*
X366614Y79735D01*
X365755Y79076D01*
X365095Y78217D01*
X364681Y77216D01*
X364539Y76142D01*
X364681Y75068D01*
X365095Y74067D01*
X365755Y73207D01*
X366614Y72548D01*
X367615Y72133D01*
X368689Y71992D01*
X369763Y72133D01*
X370764Y72548D01*
X371623Y73207D01*
X372283Y74067D01*
X372697Y75068D01*
X372839Y76142D01*
X372697Y77216D01*
X372283Y78217D01*
X371623Y79076D01*
X370764Y79735D01*
X369763Y80150D01*
X368689Y80291D01*
D02*
G37*
G36*
X48000Y73507D02*
X47232Y73354D01*
X46581Y72919D01*
X46146Y72268D01*
X45993Y71500D01*
X46146Y70732D01*
X46581Y70081D01*
X47232Y69646D01*
X48000Y69493D01*
X48768Y69646D01*
X49419Y70081D01*
X49563Y70296D01*
X55133D01*
X55146Y70232D01*
X55581Y69581D01*
X56232Y69146D01*
X57000Y68993D01*
X57768Y69146D01*
X58419Y69581D01*
X58854Y70232D01*
X59007Y71000D01*
X58854Y71768D01*
X58419Y72419D01*
X57768Y72854D01*
X57000Y73007D01*
X56232Y72854D01*
X56007Y72704D01*
X49563D01*
X49419Y72919D01*
X48768Y73354D01*
X48000Y73507D01*
D02*
G37*
G36*
X357508Y74839D02*
X356434Y74697D01*
X355433Y74283D01*
X354574Y73623D01*
X353914Y72764D01*
X353500Y71763D01*
X353358Y70689D01*
X353500Y69615D01*
X353914Y68614D01*
X354574Y67755D01*
X355433Y67095D01*
X356434Y66681D01*
X357508Y66539D01*
X358582Y66681D01*
X359583Y67095D01*
X360442Y67755D01*
X361102Y68614D01*
X361516Y69615D01*
X361658Y70689D01*
X361516Y71763D01*
X361102Y72764D01*
X360442Y73623D01*
X359583Y74283D01*
X358582Y74697D01*
X357508Y74839D01*
D02*
G37*
G36*
X9000Y72324D02*
X7881Y72177D01*
X6838Y71745D01*
X5942Y71058D01*
X5255Y70162D01*
X4823Y69119D01*
X4676Y68000D01*
X4823Y66881D01*
X5255Y65838D01*
X5942Y64942D01*
X6838Y64255D01*
X7881Y63823D01*
X9000Y63676D01*
X10119Y63823D01*
X11162Y64255D01*
X12058Y64942D01*
X12745Y65838D01*
X13177Y66881D01*
X13324Y68000D01*
X13177Y69119D01*
X12745Y70162D01*
X12058Y71058D01*
X11162Y71745D01*
X10119Y72177D01*
X9000Y72324D01*
D02*
G37*
G36*
X239000Y66507D02*
X238232Y66354D01*
X237581Y65919D01*
X237146Y65268D01*
X236993Y64500D01*
X237146Y63732D01*
X237581Y63081D01*
X237796Y62937D01*
Y50966D01*
X237232Y50854D01*
X236581Y50419D01*
X236146Y49768D01*
X235993Y49000D01*
X236146Y48232D01*
X236581Y47581D01*
X237232Y47146D01*
X238000Y46993D01*
X238768Y47146D01*
X239419Y47581D01*
X239854Y48232D01*
X240007Y49000D01*
X239949Y49294D01*
X240113Y49539D01*
X240204Y50000D01*
Y61561D01*
X240288Y61594D01*
X240704Y61644D01*
X241081Y61081D01*
X241732Y60646D01*
X242331Y60527D01*
X242539Y60387D01*
X243000Y60296D01*
X243000Y60296D01*
X258937D01*
X259081Y60081D01*
X259732Y59646D01*
X260500Y59493D01*
X261268Y59646D01*
X261919Y60081D01*
X262354Y60732D01*
X262507Y61500D01*
X262354Y62268D01*
X261919Y62919D01*
X261268Y63354D01*
X260500Y63507D01*
X259732Y63354D01*
X259081Y62919D01*
X258937Y62704D01*
X244466D01*
X244354Y63268D01*
X243919Y63919D01*
X243268Y64354D01*
X242500Y64507D01*
X241732Y64354D01*
X241451Y64166D01*
X241001Y64467D01*
X241007Y64500D01*
X240854Y65268D01*
X240419Y65919D01*
X239768Y66354D01*
X239000Y66507D01*
D02*
G37*
G36*
X261500Y58007D02*
X260732Y57854D01*
X260081Y57419D01*
X259937Y57204D01*
X251000D01*
X250539Y57113D01*
X250294Y56949D01*
X250000Y57007D01*
X249232Y56854D01*
X248581Y56419D01*
X248146Y55768D01*
X247993Y55000D01*
X248146Y54232D01*
X248581Y53581D01*
X249232Y53146D01*
X250000Y52993D01*
X250768Y53146D01*
X251419Y53581D01*
X251854Y54232D01*
X251966Y54796D01*
X259937D01*
X260081Y54581D01*
X260732Y54146D01*
X261500Y53993D01*
X262268Y54146D01*
X262919Y54581D01*
X263354Y55232D01*
X263507Y56000D01*
X263354Y56768D01*
X262919Y57419D01*
X262268Y57854D01*
X261500Y58007D01*
D02*
G37*
G36*
X103750Y75257D02*
X102982Y75104D01*
X102331Y74669D01*
X101896Y74018D01*
X101743Y73250D01*
X101896Y72482D01*
X102331Y71831D01*
X102546Y71687D01*
Y55817D01*
X102159Y55475D01*
X102000Y55507D01*
X101232Y55354D01*
X100581Y54919D01*
X100146Y54268D01*
X99993Y53500D01*
X100146Y52732D01*
X100581Y52081D01*
X101232Y51646D01*
X102000Y51493D01*
X102768Y51646D01*
X102820Y51680D01*
X103180Y51320D01*
X103146Y51268D01*
X102993Y50500D01*
X103146Y49732D01*
X103581Y49081D01*
X104232Y48646D01*
X105000Y48493D01*
X105768Y48646D01*
X106419Y49081D01*
X106854Y49732D01*
X107007Y50500D01*
X106957Y50754D01*
X107601Y51398D01*
X107601Y51398D01*
X107863Y51789D01*
X107954Y52250D01*
Y68687D01*
X108169Y68831D01*
X108604Y69482D01*
X108757Y70250D01*
X108604Y71018D01*
X108169Y71669D01*
X107518Y72104D01*
X106750Y72257D01*
X105982Y72104D01*
X105930Y72070D01*
X105570Y72430D01*
X105604Y72482D01*
X105757Y73250D01*
X105604Y74018D01*
X105169Y74669D01*
X104518Y75104D01*
X103750Y75257D01*
D02*
G37*
G36*
X71500Y69507D02*
X70732Y69354D01*
X70081Y68919D01*
X69646Y68268D01*
X69493Y67500D01*
X69646Y66732D01*
X69796Y66507D01*
Y55563D01*
X69581Y55419D01*
X69146Y54768D01*
X68993Y54000D01*
X69146Y53232D01*
X69581Y52581D01*
X70232Y52146D01*
X71000Y51993D01*
X71768Y52146D01*
X72419Y52581D01*
X72854Y53232D01*
X73007Y54000D01*
X72854Y54768D01*
X72419Y55419D01*
X72204Y55563D01*
Y65633D01*
X72268Y65646D01*
X72919Y66081D01*
X73354Y66732D01*
X73507Y67500D01*
X73354Y68268D01*
X72919Y68919D01*
X72268Y69354D01*
X71500Y69507D01*
D02*
G37*
G36*
X10000Y54972D02*
Y50999D01*
X13973D01*
X13884Y51674D01*
X13431Y52768D01*
X12709Y53708D01*
X11769Y54430D01*
X10675Y54883D01*
X10000Y54972D01*
D02*
G37*
G36*
X9000D02*
X8325Y54883D01*
X7231Y54430D01*
X6291Y53708D01*
X5569Y52768D01*
X5116Y51674D01*
X5027Y50999D01*
X9000D01*
Y54972D01*
D02*
G37*
G36*
X13973Y49999D02*
X10000D01*
Y46026D01*
X10675Y46115D01*
X11769Y46568D01*
X12709Y47290D01*
X13431Y48230D01*
X13884Y49324D01*
X13973Y49999D01*
D02*
G37*
G36*
X9000D02*
X5027D01*
X5116Y49324D01*
X5569Y48230D01*
X6291Y47290D01*
X7231Y46568D01*
X8325Y46115D01*
X9000Y46026D01*
Y49999D01*
D02*
G37*
G36*
X200500Y42507D02*
X199732Y42354D01*
X199081Y41919D01*
X198646Y41268D01*
X198633Y41204D01*
X189563D01*
X189419Y41419D01*
X188768Y41854D01*
X188000Y42007D01*
X187232Y41854D01*
X186581Y41419D01*
X186146Y40768D01*
X185993Y40000D01*
X186146Y39232D01*
X186581Y38581D01*
X187232Y38146D01*
X188000Y37993D01*
X188768Y38146D01*
X189419Y38581D01*
X189563Y38796D01*
X199507D01*
X199732Y38646D01*
X200500Y38493D01*
X201268Y38646D01*
X201919Y39081D01*
X202354Y39732D01*
X202507Y40500D01*
X202354Y41268D01*
X201919Y41919D01*
X201268Y42354D01*
X200500Y42507D01*
D02*
G37*
G36*
X148500Y81007D02*
X147732Y80854D01*
X147081Y80419D01*
X146646Y79768D01*
X146493Y79000D01*
X146646Y78232D01*
X147081Y77581D01*
X147296Y77437D01*
Y41500D01*
X147296Y41500D01*
X147387Y41039D01*
X147649Y40648D01*
X148043Y40254D01*
X147993Y40000D01*
X148146Y39232D01*
X148581Y38581D01*
X149232Y38146D01*
X150000Y37993D01*
X150768Y38146D01*
X151419Y38581D01*
X151854Y39232D01*
X152007Y40000D01*
X151854Y40768D01*
X151419Y41419D01*
X150768Y41854D01*
X150000Y42007D01*
X149704Y42458D01*
Y77437D01*
X149919Y77581D01*
X150354Y78232D01*
X150507Y79000D01*
X150354Y79768D01*
X149919Y80419D01*
X149268Y80854D01*
X148500Y81007D01*
D02*
G37*
G36*
X9500Y44823D02*
X8381Y44676D01*
X7338Y44244D01*
X6442Y43557D01*
X5755Y42661D01*
X5323Y41618D01*
X5176Y40499D01*
X5323Y39380D01*
X5755Y38337D01*
X6442Y37441D01*
X7338Y36754D01*
X8381Y36322D01*
X9500Y36175D01*
X10619Y36322D01*
X11662Y36754D01*
X12558Y37441D01*
X13245Y38337D01*
X13677Y39380D01*
X13824Y40499D01*
X13677Y41618D01*
X13245Y42661D01*
X12558Y43557D01*
X11662Y44244D01*
X10619Y44676D01*
X9500Y44823D01*
D02*
G37*
G36*
X261350Y37200D02*
X260000D01*
Y34000D01*
X263200D01*
Y35350D01*
X261350Y37200D01*
D02*
G37*
G36*
X259000D02*
X257650D01*
X255800Y35350D01*
Y34000D01*
X259000D01*
Y37200D01*
D02*
G37*
G36*
X363098Y53514D02*
X361107Y53318D01*
X359192Y52737D01*
X357428Y51794D01*
X355881Y50524D01*
X354612Y48978D01*
X353669Y47213D01*
X353088Y45298D01*
X352892Y43307D01*
X353088Y41316D01*
X353669Y39401D01*
X354612Y37637D01*
X355881Y36090D01*
X357428Y34821D01*
X359192Y33877D01*
X361107Y33297D01*
X363098Y33101D01*
X365090Y33297D01*
X367004Y33877D01*
X368769Y34821D01*
X370316Y36090D01*
X371585Y37637D01*
X372528Y39401D01*
X373109Y41316D01*
X373305Y43307D01*
X373109Y45298D01*
X372528Y47213D01*
X371585Y48978D01*
X370316Y50524D01*
X368769Y51794D01*
X367004Y52737D01*
X365090Y53318D01*
X363098Y53514D01*
D02*
G37*
G36*
X281244Y36987D02*
X277756D01*
X276013Y35244D01*
Y31756D01*
X277756Y30013D01*
X281244D01*
X282987Y31756D01*
Y35244D01*
X281244Y36987D01*
D02*
G37*
G36*
X271244D02*
X267756D01*
X266013Y35244D01*
Y31756D01*
X267756Y30013D01*
X271244D01*
X272987Y31756D01*
Y35244D01*
X271244Y36987D01*
D02*
G37*
G36*
X263200Y33000D02*
X260000D01*
Y29800D01*
X261350D01*
X263200Y31650D01*
Y33000D01*
D02*
G37*
G36*
X259000D02*
X255800D01*
Y31650D01*
X257650Y29800D01*
X259000D01*
Y33000D01*
D02*
G37*
G36*
X198744Y35987D02*
X195256D01*
X193513Y34244D01*
Y30756D01*
X195256Y29013D01*
X198744D01*
X200487Y30756D01*
Y34244D01*
X198744Y35987D01*
D02*
G37*
G36*
X188744D02*
X185256D01*
X183513Y34244D01*
Y30756D01*
X185256Y29013D01*
X188744D01*
X190487Y30756D01*
Y34244D01*
X188744Y35987D01*
D02*
G37*
G36*
X178744D02*
X175256D01*
X173513Y34244D01*
Y30756D01*
X175256Y29013D01*
X178744D01*
X180487Y30756D01*
Y34244D01*
X178744Y35987D01*
D02*
G37*
G36*
X122500Y72007D02*
X121732Y71854D01*
X121081Y71419D01*
X120646Y70768D01*
X120493Y70000D01*
X120543Y69746D01*
X119649Y68852D01*
X119387Y68461D01*
X119296Y68000D01*
X119296Y68000D01*
Y35487D01*
X118756D01*
X117013Y33744D01*
Y30256D01*
X118756Y28513D01*
X122244D01*
X123987Y30256D01*
Y33744D01*
X122244Y35487D01*
X121704D01*
Y67501D01*
X122246Y68043D01*
X122500Y67993D01*
X123268Y68146D01*
X123919Y68581D01*
X124109Y68865D01*
X124640Y68760D01*
X124646Y68732D01*
X125081Y68081D01*
X125296Y67937D01*
Y34391D01*
X125294Y34388D01*
X125202Y33927D01*
X125202Y33927D01*
Y26094D01*
X125202Y26094D01*
X125294Y25633D01*
X125555Y25242D01*
X127033Y23764D01*
X127013Y23744D01*
Y20256D01*
X128756Y18513D01*
X132244D01*
X133987Y20256D01*
Y23744D01*
X132244Y25487D01*
X128756D01*
X128736Y25467D01*
X127611Y26592D01*
Y29005D01*
X128073Y29196D01*
X128756Y28513D01*
X132244D01*
X133987Y30256D01*
Y33744D01*
X132244Y35487D01*
X128756D01*
X128166Y34897D01*
X127704Y35089D01*
Y67937D01*
X127919Y68081D01*
X128354Y68732D01*
X128507Y69500D01*
X128354Y70268D01*
X127919Y70919D01*
X127268Y71354D01*
X126500Y71507D01*
X125732Y71354D01*
X125081Y70919D01*
X124891Y70635D01*
X124360Y70740D01*
X124354Y70768D01*
X123919Y71419D01*
X123268Y71854D01*
X122500Y72007D01*
D02*
G37*
G36*
X113000Y73007D02*
X112232Y72854D01*
X111581Y72419D01*
X111146Y71768D01*
X110993Y71000D01*
X111146Y70232D01*
X111581Y69581D01*
X111796Y69437D01*
Y35487D01*
X108756D01*
X107013Y33744D01*
Y30256D01*
X108756Y28513D01*
X112244D01*
X113987Y30256D01*
Y33744D01*
X113944Y33787D01*
X114113Y34039D01*
X114204Y34500D01*
Y69437D01*
X114419Y69581D01*
X114854Y70232D01*
X115007Y71000D01*
X114854Y71768D01*
X114419Y72419D01*
X113768Y72854D01*
X113000Y73007D01*
D02*
G37*
G36*
X261350Y27200D02*
X260000D01*
Y24000D01*
X263200D01*
Y25350D01*
X261350Y27200D01*
D02*
G37*
G36*
X259000D02*
X257650D01*
X255800Y25350D01*
Y24000D01*
X259000D01*
Y27200D01*
D02*
G37*
G36*
X178850Y26200D02*
X177500D01*
Y23000D01*
X180700D01*
Y24350D01*
X178850Y26200D01*
D02*
G37*
G36*
X176500D02*
X175150D01*
X173300Y24350D01*
Y23000D01*
X176500D01*
Y26200D01*
D02*
G37*
G36*
X112350Y25700D02*
X111000D01*
Y22500D01*
X114200D01*
Y23850D01*
X112350Y25700D01*
D02*
G37*
G36*
X110000D02*
X108650D01*
X106800Y23850D01*
Y22500D01*
X110000D01*
Y25700D01*
D02*
G37*
G36*
X281244Y26987D02*
X277756D01*
X276013Y25244D01*
Y21756D01*
X277756Y20013D01*
X281244D01*
X282987Y21756D01*
Y25244D01*
X281244Y26987D01*
D02*
G37*
G36*
X271244D02*
X267756D01*
X266013Y25244D01*
Y21756D01*
X267756Y20013D01*
X271244D01*
X272987Y21756D01*
Y25244D01*
X271244Y26987D01*
D02*
G37*
G36*
X263200Y23000D02*
X260000D01*
Y19800D01*
X261350D01*
X263200Y21650D01*
Y23000D01*
D02*
G37*
G36*
X259000D02*
X255800D01*
Y21650D01*
X257650Y19800D01*
X259000D01*
Y23000D01*
D02*
G37*
G36*
X198744Y25987D02*
X195256D01*
X193513Y24244D01*
Y20756D01*
X195256Y19013D01*
X198744D01*
X200487Y20756D01*
Y24244D01*
X198744Y25987D01*
D02*
G37*
G36*
X188744D02*
X185256D01*
X183513Y24244D01*
Y20756D01*
X185256Y19013D01*
X188744D01*
X190487Y20756D01*
Y24244D01*
X188744Y25987D01*
D02*
G37*
G36*
X180700Y22000D02*
X177500D01*
Y18800D01*
X178850D01*
X180700Y20650D01*
Y22000D01*
D02*
G37*
G36*
X176500D02*
X173300D01*
Y20650D01*
X175150Y18800D01*
X176500D01*
Y22000D01*
D02*
G37*
G36*
X122244Y25487D02*
X118756D01*
X117013Y23744D01*
Y20256D01*
X118756Y18513D01*
X122244D01*
X123987Y20256D01*
Y23744D01*
X122244Y25487D01*
D02*
G37*
G36*
X114200Y21500D02*
X111000D01*
Y18300D01*
X112350D01*
X114200Y20150D01*
Y21500D01*
D02*
G37*
G36*
X110000D02*
X106800D01*
Y20150D01*
X108650Y18300D01*
X110000D01*
Y21500D01*
D02*
G37*
%LPD*%
D10*
X110500Y32000D02*
X113000Y34500D01*
X318000Y126000D02*
X324500Y119500D01*
X125500Y188500D02*
X134500Y197500D01*
X186500Y214500D02*
X191500Y209500D01*
X185500Y214500D02*
X186500D01*
X134000Y197500D02*
X134500D01*
X125500Y178500D02*
Y188500D01*
X123500Y176500D02*
X125500Y178500D01*
X123500Y163000D02*
Y176500D01*
X224559Y90441D02*
X225000Y90000D01*
X242500Y62000D02*
Y62500D01*
Y62000D02*
X243000Y61500D01*
X260500D01*
X262500Y124000D02*
X263000Y124500D01*
Y135000D01*
X251000Y56000D02*
X261500D01*
X250000Y55000D02*
X251000Y56000D01*
X200000Y40000D02*
X200500Y40500D01*
X188000Y40000D02*
X200000D01*
X148500Y41500D02*
X150000Y40000D01*
X148500Y41500D02*
Y79000D01*
X243216Y136284D02*
X243500Y136000D01*
X244000Y135500D01*
X243216Y136284D02*
Y161284D01*
X294000Y157500D02*
X296000Y155500D01*
Y134500D02*
Y155500D01*
X48000Y71500D02*
X56500D01*
X57000Y71000D01*
X46000Y89000D02*
X47000Y90000D01*
X52500D01*
X238000Y49000D02*
X239000Y50000D01*
Y64500D01*
X159000Y77500D02*
X160000Y78500D01*
X157000Y77500D02*
X159000D01*
X154000Y74500D02*
X157000Y77500D01*
X120500Y68000D02*
X122500Y70000D01*
X126500Y34021D02*
Y69500D01*
X126406Y33927D02*
X126500Y34021D01*
X113000Y34500D02*
Y71000D01*
X178500Y130000D02*
X178941Y130441D01*
Y135500D01*
X248239Y147239D02*
X251862Y150862D01*
X252500D01*
X252000Y147500D02*
X252500D01*
X248239Y119634D02*
Y147239D01*
Y119634D02*
X248436Y119436D01*
X250814Y146314D02*
X252000Y147500D01*
X250814Y121814D02*
Y146314D01*
X223059Y138500D02*
X227000D01*
X178941Y135500D02*
Y136000D01*
X179500Y136559D01*
Y140000D01*
X176559Y116941D02*
X181000D01*
X179500Y100500D02*
Y102941D01*
X177500Y98500D02*
X179500Y100500D01*
X177000Y98500D02*
X177500D01*
X187559Y92988D02*
Y93000D01*
X184377Y89806D02*
X187559Y92988D01*
X181099Y89806D02*
X184377D01*
X180311Y89019D02*
X181099Y89806D01*
X224559Y90441D02*
Y94000D01*
X102000Y53500D02*
X103750Y55250D01*
Y73250D01*
X105000Y50500D02*
X106750Y52250D01*
Y70250D01*
X120500Y32000D02*
Y68000D01*
X126406Y26094D02*
X130500Y22000D01*
X126406Y26094D02*
Y33927D01*
X71000Y67000D02*
X71500Y67500D01*
X71000Y54000D02*
Y67000D01*
X271000Y105500D02*
X275000D01*
X282500Y113000D01*
X93000Y95000D02*
X101500D01*
X143000Y180000D02*
X150500D01*
Y179500D02*
Y180000D01*
X142500Y179500D02*
X143000Y180000D01*
X115500Y193000D02*
X117500D01*
D16*
X189500Y170500D02*
Y173500D01*
X183000Y179000D02*
X183500Y179500D01*
X117500Y193000D02*
X126500Y202000D01*
X183500Y179500D02*
X189500Y173500D01*
D25*
X178941Y135500D02*
D03*
X184100D02*
D03*
X187559Y93000D02*
D03*
X182400D02*
D03*
X224559Y94000D02*
D03*
X219400D02*
D03*
D26*
X179500Y102941D02*
D03*
Y108100D02*
D03*
X181000Y116941D02*
D03*
Y122100D02*
D03*
X223000Y138559D02*
D03*
Y133400D02*
D03*
D64*
X121500Y209500D02*
D03*
Y219500D02*
D03*
X131500Y209500D02*
D03*
Y219500D02*
D03*
X141500Y209500D02*
D03*
Y219500D02*
D03*
X151500Y209500D02*
D03*
Y219500D02*
D03*
X161500Y209500D02*
D03*
Y219500D02*
D03*
X171500Y209500D02*
D03*
Y219500D02*
D03*
X181500Y209500D02*
D03*
Y219500D02*
D03*
X191500Y209500D02*
D03*
Y219500D02*
D03*
X201500Y209500D02*
D03*
Y219500D02*
D03*
X211500Y209500D02*
D03*
Y219500D02*
D03*
D71*
X338000Y194000D02*
X344000Y200000D01*
X338000Y168000D02*
Y194000D01*
X324500Y79000D02*
Y119500D01*
D72*
X357508Y70689D02*
D03*
X368689Y76142D02*
D03*
X357508Y81595D02*
D03*
X368689Y87047D02*
D03*
X357508Y92500D02*
D03*
X368689Y97953D02*
D03*
X357508Y103405D02*
D03*
X368689Y108858D02*
D03*
X30097Y171811D02*
D03*
X18916Y166358D02*
D03*
X30097Y160906D02*
D03*
X18916Y155453D02*
D03*
X30097Y150000D02*
D03*
X18916Y144547D02*
D03*
X30097Y139094D02*
D03*
X18916Y133642D02*
D03*
D73*
X357508Y114311D02*
D03*
X30097Y128189D02*
D03*
D74*
X363098Y141693D02*
D03*
Y43307D02*
D03*
X24507Y100807D02*
D03*
Y199193D02*
D03*
D75*
X150500Y147000D02*
D03*
X140500D02*
D03*
D76*
X243100Y194200D02*
D03*
X260900D02*
D03*
X243100Y219800D02*
D03*
X260900D02*
D03*
D77*
X9500Y50499D02*
D03*
Y40499D02*
D03*
X9000Y78000D02*
D03*
Y68000D02*
D03*
D78*
X259500Y23500D02*
D03*
Y33500D02*
D03*
X269500Y23500D02*
D03*
Y33500D02*
D03*
X279500Y23500D02*
D03*
Y33500D02*
D03*
X177000Y22500D02*
D03*
Y32500D02*
D03*
X187000Y22500D02*
D03*
Y32500D02*
D03*
X197000Y22500D02*
D03*
Y32500D02*
D03*
X110500Y22000D02*
D03*
Y32000D02*
D03*
X120500Y22000D02*
D03*
Y32000D02*
D03*
X130500Y22000D02*
D03*
Y32000D02*
D03*
D79*
X193000Y104000D02*
D03*
X197500D02*
D03*
X202000D02*
D03*
Y109000D02*
D03*
X197500D02*
D03*
X193000D02*
D03*
X202000Y119000D02*
D03*
X197500D02*
D03*
X193000D02*
D03*
X202000Y123500D02*
D03*
X193000D02*
D03*
X202000Y128000D02*
D03*
X197500D02*
D03*
X193000D02*
D03*
X157000Y196500D02*
D03*
X154500Y193500D02*
D03*
X51000Y110500D02*
D03*
X51500Y106500D02*
D03*
Y102500D02*
D03*
X72000Y129500D02*
D03*
X165500Y81500D02*
D03*
X163000Y84500D02*
D03*
X225000Y74500D02*
D03*
X176500Y123500D02*
D03*
X318000Y126000D02*
D03*
X185500Y214500D02*
D03*
X134000Y197500D02*
D03*
X123500Y163000D02*
D03*
X225000Y90000D02*
D03*
X242500Y62500D02*
D03*
X260500Y61500D02*
D03*
X262500Y124000D02*
D03*
X263000Y135000D02*
D03*
X261500Y56000D02*
D03*
X250000Y55000D02*
D03*
X200500Y40500D02*
D03*
X188000Y40000D02*
D03*
X150000D02*
D03*
X148500Y79000D02*
D03*
X243500Y136000D02*
D03*
X243216Y161284D02*
D03*
X294000Y157500D02*
D03*
X296000Y134500D02*
D03*
X57000Y71000D02*
D03*
X46000Y89000D02*
D03*
X52500Y90000D02*
D03*
X238000Y49000D02*
D03*
X239000Y64500D02*
D03*
X160000Y78500D02*
D03*
X154000Y74500D02*
D03*
X122500Y70000D02*
D03*
X126500Y69500D02*
D03*
X113000Y71000D02*
D03*
X178500Y130000D02*
D03*
X344000Y200000D02*
D03*
X338000Y168000D02*
D03*
X324500Y79000D02*
D03*
Y119500D02*
D03*
X189500Y170500D02*
D03*
X252500Y150862D02*
D03*
Y147500D02*
D03*
X250814Y121814D02*
D03*
X248436Y119436D02*
D03*
X227000Y138500D02*
D03*
X179500Y140000D02*
D03*
X176000Y117500D02*
D03*
X177000Y98500D02*
D03*
X180311Y89019D02*
D03*
X102000Y53500D02*
D03*
X105000Y50500D02*
D03*
X103750Y73250D02*
D03*
X106750Y70250D02*
D03*
X183000Y179000D02*
D03*
X71500Y67500D02*
D03*
X71000Y54000D02*
D03*
X48000Y71500D02*
D03*
X271000Y105500D02*
D03*
X282500Y113000D02*
D03*
X93000Y95000D02*
D03*
X101500D02*
D03*
X150500Y179500D02*
D03*
X142500D02*
D03*
X115500Y193000D02*
D03*
X126500Y202000D02*
D03*
M02*
