G04*
G04 #@! TF.GenerationSoftware,Altium Limited,Altium Designer,18.0.7 (293)*
G04*
G04 Layer_Color=255*
%FSLAX25Y25*%
%MOIN*%
G70*
G01*
G75*
%ADD25R,0.02800X0.03600*%
%ADD26R,0.03600X0.02800*%
%ADD64C,0.05600*%
%ADD72C,0.06653*%
%ADD73R,0.06653X0.06653*%
%ADD74C,0.18740*%
%ADD75C,0.04800*%
%ADD76O,0.06000X0.12000*%
%ADD77C,0.07000*%
%ADD78P,0.05845X8X202.5*%
D25*
X178941Y135500D02*
D03*
X184100D02*
D03*
X187559Y93000D02*
D03*
X182400D02*
D03*
X224559Y94000D02*
D03*
X219400D02*
D03*
D26*
X179500Y102941D02*
D03*
Y108100D02*
D03*
X181000Y116941D02*
D03*
Y122100D02*
D03*
X223000Y138559D02*
D03*
Y133400D02*
D03*
D64*
X121500Y209500D02*
D03*
Y219500D02*
D03*
X131500Y209500D02*
D03*
Y219500D02*
D03*
X141500Y209500D02*
D03*
Y219500D02*
D03*
X151500Y209500D02*
D03*
Y219500D02*
D03*
X161500Y209500D02*
D03*
Y219500D02*
D03*
X171500Y209500D02*
D03*
Y219500D02*
D03*
X181500Y209500D02*
D03*
Y219500D02*
D03*
X191500Y209500D02*
D03*
Y219500D02*
D03*
X201500Y209500D02*
D03*
Y219500D02*
D03*
X211500Y209500D02*
D03*
Y219500D02*
D03*
D72*
X357508Y70689D02*
D03*
X368689Y76142D02*
D03*
X357508Y81595D02*
D03*
X368689Y87047D02*
D03*
X357508Y92500D02*
D03*
X368689Y97953D02*
D03*
X357508Y103405D02*
D03*
X368689Y108858D02*
D03*
X30097Y171811D02*
D03*
X18916Y166358D02*
D03*
X30097Y160906D02*
D03*
X18916Y155453D02*
D03*
X30097Y150000D02*
D03*
X18916Y144547D02*
D03*
X30097Y139094D02*
D03*
X18916Y133642D02*
D03*
D73*
X357508Y114311D02*
D03*
X30097Y128189D02*
D03*
D74*
X363098Y141693D02*
D03*
Y43307D02*
D03*
X24507Y100807D02*
D03*
Y199193D02*
D03*
D75*
X150500Y147000D02*
D03*
X140500D02*
D03*
D76*
X243100Y194200D02*
D03*
X260900D02*
D03*
X243100Y219800D02*
D03*
X260900D02*
D03*
D77*
X9500Y50499D02*
D03*
Y40499D02*
D03*
X9000Y78000D02*
D03*
Y68000D02*
D03*
D78*
X259500Y23500D02*
D03*
Y33500D02*
D03*
X269500Y23500D02*
D03*
Y33500D02*
D03*
X279500Y23500D02*
D03*
Y33500D02*
D03*
X177000Y22500D02*
D03*
Y32500D02*
D03*
X187000Y22500D02*
D03*
Y32500D02*
D03*
X197000Y22500D02*
D03*
Y32500D02*
D03*
X110500Y22000D02*
D03*
Y32000D02*
D03*
X120500Y22000D02*
D03*
Y32000D02*
D03*
X130500Y22000D02*
D03*
Y32000D02*
D03*
M02*
