G04 Layer_Color=65535*
%FSLAX43Y43*%
%MOMM*%
G71*
G01*
G75*
%ADD19C,0.127*%
%ADD31C,0.120*%
%ADD32C,0.080*%
%ADD33C,0.100*%
G36*
X23804Y-37720D02*
X24012Y-37765D01*
X24235Y-37832D01*
X24421Y-37906D01*
X24615Y-38018D01*
X24793Y-38137D01*
X24972Y-38278D01*
X24979Y-38286D01*
X24987Y-38293D01*
X25009Y-38316D01*
X25017Y-38323D01*
X25031Y-38338D01*
X25054Y-38360D01*
X25083Y-38390D01*
X25091Y-38397D01*
X25113Y-38420D01*
X25158Y-38472D01*
X25165Y-38479D01*
X25180Y-38494D01*
X25188Y-38509D01*
X25195Y-38516D01*
X25322Y-38680D01*
X25433Y-38866D01*
X25545Y-39089D01*
X25619Y-39305D01*
X25351Y-39052D01*
X24927Y-39469D01*
Y-39476D01*
X24920Y-39469D01*
Y-39461D01*
X24912Y-39454D01*
X24905Y-39417D01*
X24883Y-39365D01*
X24853Y-39305D01*
Y-39298D01*
X24845Y-39290D01*
X24831Y-39253D01*
X24801Y-39201D01*
X24764Y-39141D01*
X24667Y-39000D01*
X24555Y-38874D01*
X24548Y-38866D01*
X24511Y-38836D01*
Y-38829D01*
X24496Y-38821D01*
X24459Y-38784D01*
X24451Y-38777D01*
X24444Y-38769D01*
X24399Y-38740D01*
Y-38732D01*
X24384Y-38725D01*
X24369Y-38710D01*
X24220Y-38621D01*
X24213Y-38613D01*
X24191Y-38606D01*
X24154Y-38583D01*
X24109Y-38561D01*
X24057Y-38531D01*
X23990Y-38509D01*
X23848Y-38464D01*
X23841D01*
X23819Y-38457D01*
X23774Y-38450D01*
X23729Y-38435D01*
X23670Y-38427D01*
X23603Y-38420D01*
X23454Y-38412D01*
X23380D01*
X23335Y-38420D01*
X23305D01*
X23268Y-38427D01*
X23231Y-38435D01*
X23060Y-38464D01*
X23052D01*
X23038Y-38472D01*
X23015D01*
X22993Y-38479D01*
X22919Y-38509D01*
X22829Y-38546D01*
X22822D01*
X22807Y-38554D01*
X22785Y-38569D01*
X22755Y-38583D01*
X22680Y-38621D01*
X22599Y-38673D01*
X22591D01*
X22576Y-38688D01*
X22561Y-38702D01*
X22532Y-38717D01*
X22465Y-38769D01*
X22390Y-38836D01*
X22383Y-38844D01*
X22375Y-38851D01*
X22338Y-38896D01*
X22286Y-38955D01*
X22234Y-39022D01*
X22137Y-39156D01*
Y-39164D01*
X22122Y-39179D01*
X22108Y-39201D01*
X22093Y-39238D01*
X22048Y-39320D01*
X22003Y-39432D01*
Y-39439D01*
X21996Y-39454D01*
X21989Y-39484D01*
X21974Y-39521D01*
X21951Y-39618D01*
X21937Y-39722D01*
X21914Y-39885D01*
Y-39960D01*
X22294D01*
X21557Y-40681D01*
X20828Y-39960D01*
X21200D01*
X21207Y-39848D01*
X21230Y-39610D01*
X21274Y-39394D01*
X21334Y-39186D01*
X21416Y-38993D01*
X21527Y-38784D01*
X21639Y-38621D01*
X21780Y-38442D01*
X21944Y-38286D01*
X22115Y-38137D01*
X22286Y-38025D01*
X22494Y-37914D01*
X22680Y-37832D01*
X22896Y-37765D01*
X23112Y-37728D01*
X23343Y-37698D01*
X23566D01*
X23804Y-37720D01*
D02*
G37*
G36*
X23157Y-40890D02*
X22680D01*
Y-39670D01*
Y-39655D01*
X22673Y-39632D01*
X22658Y-39595D01*
X22628Y-39573D01*
X22621Y-39565D01*
X22599Y-39558D01*
X22561Y-39551D01*
X22517Y-39543D01*
X22361Y-39536D01*
Y-39313D01*
X22368D01*
X22390Y-39305D01*
X22420Y-39298D01*
X22457Y-39290D01*
X22547Y-39253D01*
X22643Y-39208D01*
X22651D01*
X22666Y-39193D01*
X22688Y-39179D01*
X22718Y-39156D01*
X22792Y-39097D01*
X22874Y-39022D01*
Y-39015D01*
X23157D01*
Y-40890D01*
D02*
G37*
G36*
X23968Y-38985D02*
X24027Y-38993D01*
X24101Y-39015D01*
X24168Y-39037D01*
X24235Y-39074D01*
X24295Y-39127D01*
X24302Y-39134D01*
X24317Y-39156D01*
X24340Y-39186D01*
X24369Y-39231D01*
X24392Y-39290D01*
X24414Y-39365D01*
X24429Y-39446D01*
X24436Y-39543D01*
Y-40384D01*
X24421Y-40525D01*
Y-40533D01*
Y-40540D01*
X24414Y-40585D01*
X24392Y-40644D01*
X24362Y-40704D01*
X24354Y-40719D01*
X24332Y-40748D01*
X24295Y-40786D01*
X24243Y-40830D01*
X24228Y-40838D01*
X24198Y-40860D01*
X24146Y-40882D01*
X24087Y-40905D01*
X24072D01*
X24034Y-40912D01*
X23975Y-40919D01*
X23908Y-40927D01*
X23856D01*
X23804Y-40919D01*
X23744Y-40912D01*
X23670Y-40890D01*
X23596Y-40867D01*
X23529Y-40830D01*
X23469Y-40786D01*
X23462Y-40778D01*
X23447Y-40756D01*
X23424Y-40726D01*
X23402Y-40681D01*
X23380Y-40614D01*
X23357Y-40540D01*
X23343Y-40458D01*
X23335Y-40354D01*
Y-39595D01*
Y-39588D01*
Y-39573D01*
Y-39551D01*
Y-39521D01*
X23343Y-39439D01*
X23357Y-39357D01*
Y-39350D01*
X23365Y-39335D01*
X23372Y-39313D01*
X23380Y-39290D01*
X23410Y-39223D01*
X23447Y-39156D01*
Y-39149D01*
X23462Y-39141D01*
X23491Y-39112D01*
X23551Y-39067D01*
X23618Y-39030D01*
X23625D01*
X23640Y-39022D01*
X23663Y-39015D01*
X23692Y-39000D01*
X23767Y-38985D01*
X23871Y-38978D01*
X23915D01*
X23968Y-38985D01*
D02*
G37*
G36*
X29664Y-34069D02*
Y-34084D01*
Y-34092D01*
X29656Y-34099D01*
X29649Y-34107D01*
X29642D01*
X29634Y-34099D01*
X29627Y-34084D01*
Y-34077D01*
Y-34069D01*
X29634Y-34062D01*
X29649Y-34055D01*
X29656D01*
X29664Y-34069D01*
D02*
G37*
G36*
X29590Y-34040D02*
Y-34047D01*
Y-34062D01*
X29575D01*
X29567Y-34055D01*
X29560Y-34047D01*
Y-34040D01*
X29567Y-34032D01*
X29582D01*
X29590Y-34040D01*
D02*
G37*
G36*
X24964Y-32680D02*
X25017Y-32695D01*
X25031Y-32703D01*
X25054Y-32718D01*
X25098Y-32740D01*
X25136Y-32777D01*
X25143Y-32784D01*
X25173Y-32807D01*
X25203Y-32844D01*
X25232Y-32889D01*
X25240Y-32896D01*
X25255Y-32926D01*
X25262Y-32970D01*
X25269Y-33030D01*
Y-33461D01*
X25284Y-33454D01*
X25307Y-33447D01*
X25344Y-33417D01*
X25374Y-33387D01*
X25381Y-33380D01*
X25396Y-33357D01*
X25418Y-33320D01*
X25448Y-33283D01*
X25455Y-33276D01*
X25478Y-33253D01*
X25508Y-33223D01*
X25552Y-33186D01*
X25567Y-33179D01*
X25597Y-33164D01*
X25656Y-33149D01*
X25731Y-33142D01*
X25746D01*
X25753Y-33156D01*
X25760Y-33171D01*
Y-33179D01*
X25753Y-33186D01*
X25731Y-33216D01*
X25723Y-33223D01*
X25716Y-33231D01*
X25708Y-33238D01*
X25269Y-33796D01*
Y-34510D01*
Y-34518D01*
X25262Y-34548D01*
X25255Y-34592D01*
X25232Y-34637D01*
X25225Y-34644D01*
X25210Y-34674D01*
X25173Y-34711D01*
X25136Y-34749D01*
X25128Y-34756D01*
X25098Y-34771D01*
X25061Y-34801D01*
X25017Y-34823D01*
X25009D01*
X24979Y-34830D01*
X24935Y-34838D01*
X24890Y-34845D01*
X21170D01*
X21140Y-34838D01*
X21096Y-34830D01*
X21044Y-34816D01*
X21036Y-34808D01*
X21007Y-34793D01*
X20969Y-34763D01*
X20932Y-34726D01*
X20925Y-34719D01*
X20902Y-34689D01*
X20873Y-34644D01*
X20850Y-34600D01*
Y-34585D01*
X20843Y-34555D01*
X20835Y-34510D01*
X20828Y-34458D01*
Y-33045D01*
Y-33030D01*
X20835Y-33000D01*
X20843Y-32956D01*
X20858Y-32904D01*
X20865Y-32889D01*
X20880Y-32859D01*
X20910Y-32822D01*
X20947Y-32784D01*
X20954Y-32777D01*
X20984Y-32755D01*
X21029Y-32725D01*
X21074Y-32703D01*
X21088Y-32695D01*
X21118Y-32680D01*
X21170Y-32673D01*
X21222Y-32665D01*
X24920D01*
X24964Y-32680D01*
D02*
G37*
G36*
X30564Y-32582D02*
Y-32596D01*
Y-32604D01*
X30557Y-32611D01*
X30542Y-32619D01*
X30534D01*
X30527Y-32611D01*
Y-32596D01*
Y-32589D01*
Y-32582D01*
X30534Y-32574D01*
X30542Y-32567D01*
X30557D01*
X30564Y-32582D01*
D02*
G37*
G36*
X30586Y-32634D02*
Y-32648D01*
Y-32656D01*
X30579Y-32663D01*
X30572Y-32671D01*
X30564D01*
X30557Y-32663D01*
X30549Y-32648D01*
Y-32641D01*
Y-32634D01*
X30557Y-32626D01*
X30572Y-32619D01*
X30579D01*
X30586Y-32634D01*
D02*
G37*
G36*
X30616Y-32701D02*
X30624Y-32708D01*
Y-32715D01*
Y-32723D01*
X30609D01*
X30601Y-32715D01*
X30594Y-32708D01*
Y-32701D01*
Y-32693D01*
X30601D01*
X30616Y-32701D01*
D02*
G37*
G36*
X26095Y-39967D02*
X25716D01*
X25701Y-40183D01*
X25671Y-40414D01*
X25612Y-40622D01*
X25545Y-40815D01*
X25493Y-40934D01*
X25389Y-41120D01*
X25269Y-41299D01*
X25128Y-41477D01*
X24972Y-41626D01*
X24816Y-41753D01*
X24637Y-41872D01*
X24436Y-41983D01*
X24235Y-42065D01*
X24027Y-42132D01*
X23796Y-42184D01*
X23551Y-42207D01*
X23365D01*
X23119Y-42177D01*
X22889Y-42132D01*
X22680Y-42065D01*
X22480Y-41983D01*
X22294Y-41887D01*
X22115Y-41768D01*
X21951Y-41641D01*
X21937Y-41626D01*
X21922Y-41619D01*
X21899Y-41596D01*
X21892Y-41589D01*
X21877Y-41574D01*
X21832Y-41522D01*
X21825Y-41515D01*
X21810Y-41500D01*
X21765Y-41455D01*
X21758Y-41448D01*
X21751Y-41433D01*
X21721Y-41396D01*
X21587Y-41217D01*
X21475Y-41039D01*
X21371Y-40830D01*
X21304Y-40622D01*
X21297Y-40607D01*
X21304D01*
X21557Y-40867D01*
X21989Y-40443D01*
X21996D01*
X22003Y-40458D01*
X22011Y-40495D01*
X22033Y-40547D01*
X22056Y-40614D01*
X22063Y-40629D01*
X22078Y-40667D01*
X22108Y-40711D01*
X22145Y-40763D01*
X22242Y-40905D01*
Y-40912D01*
X22256Y-40919D01*
X22294Y-40964D01*
X22346Y-41031D01*
X22413Y-41098D01*
X22420Y-41105D01*
X22428Y-41113D01*
X22472Y-41150D01*
X22539Y-41202D01*
X22621Y-41262D01*
X22628D01*
X22643Y-41277D01*
X22666Y-41291D01*
X22695Y-41306D01*
X22762Y-41344D01*
X22852Y-41388D01*
X22859D01*
X22874Y-41396D01*
X22896Y-41403D01*
X22933Y-41418D01*
X23008Y-41440D01*
X23097Y-41455D01*
X23268Y-41485D01*
X23298D01*
X23328Y-41492D01*
X23521D01*
X23566Y-41485D01*
X23618D01*
X23677Y-41477D01*
X23804Y-41455D01*
X23811D01*
X23834Y-41448D01*
X23871Y-41440D01*
X23915Y-41425D01*
X24020Y-41388D01*
X24139Y-41336D01*
X24146D01*
X24168Y-41321D01*
X24198Y-41306D01*
X24235Y-41284D01*
X24340Y-41224D01*
X24444Y-41150D01*
X24451Y-41143D01*
X24466Y-41128D01*
X24496Y-41105D01*
X24526Y-41076D01*
X24607Y-40986D01*
X24682Y-40890D01*
X24771Y-40763D01*
X24845Y-40614D01*
Y-40607D01*
X24853Y-40600D01*
X24875Y-40555D01*
X24905Y-40495D01*
X24935Y-40414D01*
Y-40406D01*
X24942Y-40391D01*
X24950Y-40369D01*
X24957Y-40347D01*
X24972Y-40272D01*
X24979Y-40198D01*
X24994Y-40027D01*
Y-39967D01*
X24622D01*
Y-39960D01*
X25351Y-39231D01*
X26095Y-39967D01*
D02*
G37*
G36*
X31266Y-37587D02*
X31258Y-37594D01*
X31251Y-37601D01*
X31228Y-37624D01*
X31191Y-37661D01*
X31184Y-37668D01*
X31161Y-37698D01*
X31124Y-37735D01*
X31080Y-37780D01*
X31072Y-37795D01*
X31042Y-37825D01*
X30998Y-37869D01*
X30946Y-37921D01*
X30938Y-37936D01*
X30908Y-37966D01*
X30864Y-38011D01*
X30819Y-38063D01*
X30812Y-38070D01*
X30782Y-38100D01*
X30745Y-38137D01*
X30708Y-38182D01*
X30700Y-38189D01*
X30685Y-38211D01*
X30663Y-38234D01*
X30641Y-38256D01*
X30633Y-38271D01*
X30618Y-38286D01*
X30596Y-38308D01*
X30589Y-38316D01*
X30581Y-38323D01*
X30566Y-38338D01*
X30559Y-38345D01*
X30581Y-38360D01*
Y-38695D01*
X30328D01*
Y-38702D01*
Y-38710D01*
X30321Y-38740D01*
Y-38747D01*
Y-38762D01*
X30313Y-38814D01*
Y-38829D01*
X30306Y-38859D01*
Y-38911D01*
X30298Y-38978D01*
Y-38985D01*
Y-38993D01*
X30291Y-39037D01*
Y-39104D01*
X30283Y-39186D01*
Y-39193D01*
Y-39201D01*
Y-39223D01*
X30276Y-39253D01*
X30269Y-39320D01*
X30261Y-39402D01*
Y-39409D01*
Y-39417D01*
X30254Y-39461D01*
Y-39528D01*
X30246Y-39595D01*
Y-39610D01*
Y-39640D01*
X30239Y-39692D01*
Y-39737D01*
Y-39744D01*
Y-39766D01*
Y-39781D01*
Y-39796D01*
Y-39856D01*
X31266Y-40964D01*
Y-41098D01*
X30224Y-40004D01*
Y-40153D01*
X30231D01*
X30239Y-40161D01*
X30276Y-40183D01*
X30321Y-40220D01*
X30365Y-40265D01*
X30373Y-40280D01*
X30395Y-40309D01*
X30410Y-40361D01*
X30417Y-40436D01*
Y-40443D01*
Y-40458D01*
X30410Y-40481D01*
Y-40510D01*
X30380Y-40585D01*
X30365Y-40622D01*
X30336Y-40652D01*
X30321Y-40667D01*
X30283Y-40689D01*
X30217Y-40711D01*
X30135Y-40726D01*
X30120D01*
X30083Y-40719D01*
X30038Y-40711D01*
X29978Y-40689D01*
X29964Y-40681D01*
X29934Y-40652D01*
X29897Y-40614D01*
X29859Y-40555D01*
X29182D01*
Y-40719D01*
X28989D01*
Y-40555D01*
X28982D01*
X28974Y-40547D01*
X28959Y-40540D01*
X28952Y-40525D01*
Y-40518D01*
Y-40510D01*
Y-40495D01*
Y-40488D01*
Y-40481D01*
X28944Y-40473D01*
Y-40451D01*
X28937Y-40421D01*
Y-40414D01*
Y-40391D01*
Y-40354D01*
X28929Y-40317D01*
Y-40309D01*
Y-40280D01*
Y-40250D01*
X28922Y-40213D01*
Y-40205D01*
Y-40183D01*
Y-40161D01*
Y-40146D01*
X28907Y-40094D01*
X27940Y-41098D01*
Y-40964D01*
X28907Y-39930D01*
X28781Y-38494D01*
X27940Y-37587D01*
Y-37453D01*
X28617Y-38137D01*
Y-38070D01*
X28773D01*
X28929Y-37914D01*
Y-37787D01*
X29115D01*
X29123Y-37795D01*
Y-37810D01*
X29130D01*
Y-37817D01*
X29145D01*
X29153Y-37810D01*
X29190D01*
X29197Y-37802D01*
X29227Y-37795D01*
X29242D01*
X29279Y-37787D01*
Y-37653D01*
X29845D01*
Y-37772D01*
X29852D01*
X29867Y-37780D01*
X29897Y-37795D01*
X29934Y-37817D01*
X29941Y-37825D01*
X29971Y-37839D01*
X30016Y-37854D01*
X30060Y-37884D01*
X30075Y-37892D01*
X30105Y-37899D01*
X30150Y-37921D01*
X30194Y-37944D01*
X30202D01*
X30231Y-37951D01*
X30254Y-37958D01*
X30283Y-37966D01*
X30291D01*
X30306Y-37958D01*
X30321Y-37951D01*
X30343Y-37936D01*
X30350Y-37929D01*
X30365Y-37921D01*
X30388Y-37914D01*
X30417Y-37906D01*
X30425D01*
X30455Y-37914D01*
X30484Y-37921D01*
X30514Y-37951D01*
X30522Y-37958D01*
X30536Y-37973D01*
X30544Y-38011D01*
X30551Y-38048D01*
Y-38055D01*
X30544Y-38078D01*
X30536Y-38107D01*
X30514Y-38130D01*
X30507D01*
X30492Y-38144D01*
X30447Y-38167D01*
X30440D01*
X30432Y-38174D01*
X30388Y-38189D01*
X30373D01*
X30365Y-38197D01*
X30358D01*
Y-38345D01*
X30403D01*
X31266Y-37453D01*
Y-37587D01*
D02*
G37*
G36*
X31027Y-42504D02*
X28186D01*
Y-41790D01*
X31027D01*
Y-42504D01*
D02*
G37*
G36*
X29716Y-34114D02*
X29723Y-34122D01*
Y-34129D01*
Y-34136D01*
X29709D01*
X29701Y-34129D01*
X29694Y-34122D01*
Y-34114D01*
Y-34107D01*
X29709D01*
X29716Y-34114D01*
D02*
G37*
G36*
X29277Y-34627D02*
Y-34642D01*
Y-34650D01*
X29270Y-34657D01*
X29262Y-34665D01*
X29255D01*
X29247Y-34657D01*
X29240Y-34642D01*
Y-34635D01*
Y-34627D01*
X29247Y-34620D01*
X29262Y-34613D01*
X29270D01*
X29277Y-34627D01*
D02*
G37*
G36*
X29359Y-34590D02*
Y-34598D01*
Y-34605D01*
X29351Y-34613D01*
X29314D01*
Y-34605D01*
X29307Y-34598D01*
X29314Y-34590D01*
X29337Y-34583D01*
X29351D01*
X29359Y-34590D01*
D02*
G37*
G36*
X29069D02*
X29054Y-34598D01*
X29039D01*
Y-34590D01*
Y-34583D01*
X29046Y-34575D01*
X29061D01*
X29069Y-34590D01*
D02*
G37*
G36*
X29523Y-34732D02*
Y-34739D01*
X29515Y-34746D01*
Y-34754D01*
X29500Y-34776D01*
Y-34784D01*
X29493Y-34791D01*
Y-34724D01*
X29523D01*
Y-34732D01*
D02*
G37*
G36*
X28712Y-34717D02*
Y-34732D01*
Y-34739D01*
X28704Y-34746D01*
X28689Y-34754D01*
X28682D01*
X28674Y-34746D01*
Y-34732D01*
Y-34724D01*
Y-34717D01*
X28682Y-34709D01*
X28689Y-34702D01*
X28704D01*
X28712Y-34717D01*
D02*
G37*
G36*
X29255Y-34679D02*
Y-34694D01*
Y-34702D01*
Y-34709D01*
X29247Y-34717D01*
X29232Y-34724D01*
X29225Y-34717D01*
X29218Y-34709D01*
Y-34694D01*
Y-34687D01*
Y-34679D01*
X29225Y-34672D01*
X29232Y-34665D01*
X29247D01*
X29255Y-34679D01*
D02*
G37*
G36*
X29895Y-34218D02*
X29902Y-34226D01*
Y-34233D01*
Y-34241D01*
X29887D01*
X29880Y-34233D01*
X29872Y-34226D01*
Y-34218D01*
Y-34211D01*
X29887D01*
X29895Y-34218D01*
D02*
G37*
G36*
X29842Y-34174D02*
Y-34188D01*
Y-34196D01*
X29835Y-34203D01*
X29828Y-34211D01*
X29820D01*
X29813Y-34203D01*
X29805Y-34188D01*
Y-34181D01*
Y-34174D01*
X29813Y-34166D01*
X29828Y-34159D01*
X29835D01*
X29842Y-34174D01*
D02*
G37*
G36*
X29790Y-34144D02*
Y-34159D01*
Y-34166D01*
X29783Y-34174D01*
X29775Y-34181D01*
X29768D01*
X29761Y-34174D01*
X29753Y-34159D01*
Y-34151D01*
Y-34144D01*
X29761Y-34136D01*
X29775Y-34129D01*
X29783D01*
X29790Y-34144D01*
D02*
G37*
G36*
X29664Y-34553D02*
Y-34568D01*
Y-34575D01*
X29656Y-34583D01*
X29649Y-34590D01*
X29642D01*
X29634Y-34583D01*
X29627Y-34568D01*
Y-34560D01*
Y-34553D01*
X29634Y-34546D01*
X29649Y-34538D01*
X29656D01*
X29664Y-34553D01*
D02*
G37*
G36*
X29084Y-34449D02*
X29091Y-34456D01*
Y-34464D01*
X29076Y-34471D01*
X29069Y-34456D01*
Y-34449D01*
X29076Y-34441D01*
X29084Y-34449D01*
D02*
G37*
G36*
X29180Y-33816D02*
X29188D01*
X29195Y-33824D01*
X29210Y-33831D01*
X29203Y-33839D01*
X29173Y-33869D01*
X29143Y-33906D01*
X29121Y-33958D01*
Y-33973D01*
X29113Y-34002D01*
X29106Y-34055D01*
Y-34114D01*
Y-34122D01*
Y-34151D01*
Y-34166D01*
X29113Y-34196D01*
X29121Y-34203D01*
X29136Y-34226D01*
X29143Y-34233D01*
X29165Y-34241D01*
X29180D01*
X29203Y-34211D01*
X29210Y-34203D01*
X29225Y-34188D01*
X29240Y-34166D01*
X29247Y-34159D01*
X29255Y-34144D01*
X29270Y-34122D01*
X29284Y-34107D01*
X29277Y-34099D01*
X29270Y-34092D01*
X29262Y-34069D01*
X29255Y-34040D01*
Y-34032D01*
Y-34010D01*
Y-33980D01*
Y-33958D01*
Y-33943D01*
Y-33928D01*
Y-33906D01*
Y-33898D01*
Y-33883D01*
Y-33869D01*
Y-33854D01*
X29329Y-33898D01*
X29322Y-33906D01*
X29299Y-33928D01*
X29292Y-33943D01*
X29284Y-33958D01*
Y-33965D01*
Y-33973D01*
Y-33980D01*
Y-33988D01*
X29299Y-34025D01*
Y-34032D01*
X29307Y-34040D01*
X29314Y-34047D01*
Y-34055D01*
X29329D01*
X29344Y-34047D01*
X29366Y-34032D01*
X29381Y-34010D01*
Y-34002D01*
X29389Y-33980D01*
X29396Y-33950D01*
X29389Y-33928D01*
X29515Y-34002D01*
X29508D01*
X29485Y-34010D01*
X29456Y-34032D01*
X29411Y-34069D01*
X29396Y-34077D01*
X29366Y-34107D01*
X29329Y-34144D01*
X29277Y-34188D01*
X29270Y-34203D01*
X29240Y-34233D01*
X29203Y-34270D01*
X29165Y-34322D01*
X29158Y-34330D01*
X29136Y-34360D01*
X29121Y-34389D01*
X29106Y-34419D01*
Y-34412D01*
Y-34389D01*
Y-34352D01*
X29098Y-34315D01*
Y-34308D01*
Y-34285D01*
X29091Y-34248D01*
X29084Y-34211D01*
Y-34203D01*
X29076Y-34181D01*
X29069Y-34144D01*
X29061Y-34107D01*
Y-34099D01*
Y-34077D01*
X29054Y-34040D01*
Y-34002D01*
Y-33980D01*
Y-33973D01*
X29061Y-33950D01*
Y-33943D01*
X29069Y-33936D01*
X29084Y-33906D01*
Y-33898D01*
X29091Y-33891D01*
X29106Y-33861D01*
Y-33854D01*
X29113Y-33846D01*
X29128Y-33831D01*
X29136Y-33824D01*
X29143Y-33816D01*
X29151Y-33809D01*
X29158Y-33802D01*
X29165D01*
X29180Y-33816D01*
D02*
G37*
G36*
X29656Y-33601D02*
X29686Y-33616D01*
X29694D01*
X29701Y-33623D01*
X29723Y-33645D01*
X29709Y-33638D01*
X29679Y-33631D01*
X29664Y-33623D01*
X29649Y-33593D01*
X29656Y-33601D01*
D02*
G37*
G36*
X28868Y-33608D02*
Y-33623D01*
Y-33631D01*
X28860Y-33638D01*
X28853Y-33645D01*
X28846D01*
X28838Y-33638D01*
X28831Y-33623D01*
Y-33616D01*
Y-33608D01*
X28838Y-33601D01*
X28853Y-33593D01*
X28860D01*
X28868Y-33608D01*
D02*
G37*
G36*
X28920Y-33638D02*
Y-33653D01*
Y-33660D01*
X28912Y-33668D01*
X28898Y-33675D01*
X28890D01*
X28883Y-33668D01*
Y-33653D01*
Y-33645D01*
Y-33638D01*
X28890Y-33631D01*
X28898Y-33623D01*
X28912D01*
X28920Y-33638D01*
D02*
G37*
G36*
X28741Y-33526D02*
Y-33541D01*
Y-33549D01*
X28734Y-33556D01*
X28719Y-33564D01*
X28712D01*
X28704Y-33556D01*
X28697Y-33541D01*
Y-33534D01*
Y-33526D01*
X28704Y-33519D01*
X28734D01*
X28741Y-33526D01*
D02*
G37*
G36*
X29612Y-33556D02*
Y-33571D01*
Y-33578D01*
X29604Y-33586D01*
X29590Y-33593D01*
X29582D01*
X29575Y-33586D01*
Y-33571D01*
Y-33564D01*
Y-33556D01*
X29582Y-33549D01*
X29590Y-33541D01*
X29604D01*
X29612Y-33556D01*
D02*
G37*
G36*
X28786D02*
Y-33571D01*
Y-33578D01*
X28779Y-33586D01*
X28771Y-33593D01*
X28764D01*
X28756Y-33586D01*
Y-33571D01*
Y-33564D01*
Y-33556D01*
X28764Y-33549D01*
X28771Y-33541D01*
X28779D01*
X28786Y-33556D01*
D02*
G37*
G36*
X30095Y-33861D02*
X30125Y-33876D01*
X30133D01*
X30140Y-33883D01*
X30155Y-33906D01*
X30147Y-33898D01*
X30118Y-33891D01*
X30103Y-33883D01*
X30081Y-33854D01*
X30088D01*
X30095Y-33861D01*
D02*
G37*
G36*
X30229Y-33913D02*
Y-33928D01*
Y-33936D01*
X30222Y-33943D01*
X30207Y-33950D01*
X30200D01*
X30192Y-33943D01*
Y-33928D01*
Y-33921D01*
Y-33913D01*
X30200Y-33906D01*
X30207Y-33898D01*
X30222D01*
X30229Y-33913D01*
D02*
G37*
G36*
X29076Y-33750D02*
X29069Y-33757D01*
X29046Y-33779D01*
X29017Y-33809D01*
X28987Y-33854D01*
X28979Y-33861D01*
X28965Y-33883D01*
X28935Y-33921D01*
X28898Y-33958D01*
Y-33928D01*
X28905Y-33921D01*
X28912Y-33898D01*
Y-33891D01*
X28920Y-33883D01*
X28935Y-33854D01*
Y-33846D01*
X28942Y-33839D01*
X28957Y-33802D01*
Y-33794D01*
X28965Y-33787D01*
X28972Y-33779D01*
X28979D01*
Y-33772D01*
Y-33764D01*
Y-33757D01*
Y-33750D01*
Y-33742D01*
Y-33727D01*
X28965Y-33705D01*
X28950Y-33675D01*
X29076Y-33750D01*
D02*
G37*
G36*
X29805Y-33683D02*
X29828Y-33697D01*
X29850Y-33720D01*
X29835D01*
X29805Y-33705D01*
X29790Y-33697D01*
X29775Y-33675D01*
X29783D01*
X29805Y-33683D01*
D02*
G37*
G36*
X29924Y-33735D02*
Y-33750D01*
Y-33757D01*
X29917Y-33764D01*
X29902Y-33772D01*
X29895D01*
X29887Y-33764D01*
X29880Y-33750D01*
Y-33742D01*
Y-33735D01*
X29887Y-33727D01*
X29902Y-33720D01*
X29917D01*
X29924Y-33735D01*
D02*
G37*
G36*
X29984Y-33787D02*
X30006Y-33802D01*
X30028Y-33824D01*
X30014Y-33816D01*
X29984Y-33809D01*
X29976Y-33802D01*
X29954Y-33779D01*
X29961D01*
X29984Y-33787D01*
D02*
G37*
G36*
X29508Y-33511D02*
X29515D01*
X29523Y-33519D01*
X29545Y-33541D01*
X29530Y-33534D01*
X29500Y-33526D01*
X29485Y-33519D01*
X29463Y-33497D01*
X29478D01*
X29508Y-33511D01*
D02*
G37*
G36*
X30765Y-32939D02*
Y-32953D01*
Y-32961D01*
X30758Y-32968D01*
X30750Y-32976D01*
X30743D01*
X30735Y-32968D01*
Y-32953D01*
Y-32946D01*
Y-32939D01*
X30743Y-32931D01*
X30750Y-32924D01*
X30758D01*
X30765Y-32939D01*
D02*
G37*
G36*
X30824Y-33013D02*
Y-33028D01*
Y-33035D01*
X30817Y-33043D01*
X30802Y-33050D01*
X30795D01*
X30787Y-33043D01*
X30780Y-33028D01*
Y-33020D01*
Y-33013D01*
X30787Y-33006D01*
X30802Y-32998D01*
X30817D01*
X30824Y-33013D01*
D02*
G37*
G36*
X30847Y-33065D02*
Y-33080D01*
Y-33087D01*
X30839Y-33095D01*
X30824Y-33102D01*
X30817D01*
X30810Y-33095D01*
Y-33080D01*
Y-33073D01*
Y-33065D01*
X30817Y-33058D01*
X30824Y-33050D01*
X30839D01*
X30847Y-33065D01*
D02*
G37*
G36*
X30668Y-32760D02*
Y-32775D01*
Y-32782D01*
X30661Y-32790D01*
X30646Y-32797D01*
X30638D01*
X30631Y-32790D01*
Y-32775D01*
Y-32768D01*
Y-32760D01*
X30638Y-32753D01*
X30646Y-32745D01*
X30661D01*
X30668Y-32760D01*
D02*
G37*
G36*
X30691Y-32834D02*
X30698Y-32842D01*
Y-32849D01*
X30683D01*
X30676Y-32842D01*
X30668Y-32834D01*
Y-32827D01*
X30683D01*
X30691Y-32834D01*
D02*
G37*
G36*
X30743Y-32887D02*
Y-32901D01*
Y-32909D01*
X30735Y-32916D01*
X30728Y-32924D01*
X30720D01*
X30713Y-32916D01*
X30705Y-32901D01*
Y-32894D01*
Y-32887D01*
X30713Y-32879D01*
X30728Y-32872D01*
X30735D01*
X30743Y-32887D01*
D02*
G37*
G36*
X29299Y-33378D02*
Y-33392D01*
Y-33400D01*
X29292Y-33407D01*
X29284Y-33415D01*
X29277D01*
X29270Y-33407D01*
X29262Y-33392D01*
Y-33385D01*
Y-33378D01*
X29270Y-33370D01*
X29284Y-33363D01*
X29292D01*
X29299Y-33378D01*
D02*
G37*
G36*
X29351Y-33422D02*
X29374Y-33437D01*
X29381D01*
X29389Y-33445D01*
X29411Y-33467D01*
X29396Y-33459D01*
X29366Y-33445D01*
X29359Y-33437D01*
X29337Y-33415D01*
X29344D01*
X29351Y-33422D01*
D02*
G37*
G36*
X28478Y-33401D02*
X28503Y-33407D01*
X28533Y-33430D01*
X28578Y-33452D01*
X28585Y-33459D01*
X28615Y-33467D01*
X28645Y-33489D01*
X28674Y-33526D01*
X28667D01*
X28637Y-33519D01*
X28593Y-33526D01*
X28548Y-33556D01*
X28541Y-33564D01*
X28518Y-33593D01*
X28488Y-33638D01*
X28459Y-33697D01*
X28451Y-33712D01*
X28436Y-33750D01*
X28421Y-33802D01*
X28399Y-33869D01*
Y-33883D01*
X28392Y-33921D01*
X28384Y-33965D01*
Y-34017D01*
Y-34025D01*
Y-34047D01*
Y-34084D01*
Y-34136D01*
Y-34151D01*
X28392Y-34181D01*
X28399Y-34226D01*
X28407Y-34278D01*
Y-34293D01*
X28414Y-34322D01*
X28429Y-34374D01*
X28436Y-34434D01*
X28444Y-34449D01*
X28451Y-34479D01*
X28466Y-34523D01*
X28488Y-34568D01*
X28496Y-34575D01*
X28511Y-34605D01*
X28533Y-34635D01*
X28555Y-34665D01*
X28563Y-34672D01*
X28578Y-34679D01*
X28607Y-34694D01*
X28645Y-34702D01*
X28622D01*
X28607Y-34709D01*
X28593Y-34724D01*
Y-34732D01*
Y-34739D01*
Y-34776D01*
Y-34791D01*
Y-34821D01*
X28600Y-34873D01*
X28607Y-34925D01*
Y-34940D01*
X28615Y-34977D01*
X28630Y-35022D01*
X28645Y-35081D01*
X28652Y-35089D01*
X28682D01*
X28697Y-35081D01*
X28719Y-35066D01*
X28741Y-35037D01*
X28749Y-35029D01*
X28756Y-35007D01*
X28764Y-34985D01*
X28771Y-34955D01*
Y-34962D01*
Y-34970D01*
X28779Y-34985D01*
X28786Y-34992D01*
X28801Y-34999D01*
X28831Y-35007D01*
X28838D01*
X28853Y-34999D01*
X28875Y-34992D01*
X28898Y-34977D01*
X28905Y-34970D01*
X28912Y-34955D01*
X28942Y-34910D01*
Y-34903D01*
X28950Y-34880D01*
X28957Y-34851D01*
Y-34821D01*
Y-34813D01*
Y-34791D01*
Y-34761D01*
Y-34739D01*
Y-34732D01*
Y-34724D01*
Y-34687D01*
X28942Y-34627D01*
X28927Y-34568D01*
Y-34560D01*
Y-34553D01*
X28912Y-34508D01*
X28898Y-34456D01*
X28875Y-34389D01*
Y-34382D01*
Y-34374D01*
X28860Y-34330D01*
X28846Y-34278D01*
X28831Y-34211D01*
Y-34203D01*
Y-34196D01*
X28823Y-34151D01*
Y-34099D01*
X28831Y-34032D01*
Y-34025D01*
X28846Y-34002D01*
Y-33995D01*
X28853Y-33988D01*
X28868Y-33980D01*
X28875D01*
Y-33988D01*
X28883Y-34017D01*
X28890Y-34062D01*
X28898Y-34122D01*
Y-34129D01*
Y-34136D01*
X28905Y-34181D01*
X28920Y-34255D01*
X28927Y-34337D01*
Y-34345D01*
Y-34360D01*
X28935Y-34382D01*
Y-34412D01*
X28950Y-34493D01*
X28965Y-34590D01*
Y-34598D01*
X28972Y-34613D01*
X28979Y-34635D01*
X28987Y-34665D01*
X29009Y-34739D01*
X29032Y-34821D01*
Y-34828D01*
X29039Y-34836D01*
X29054Y-34880D01*
X29084Y-34940D01*
X29121Y-34992D01*
X29128Y-34999D01*
X29158Y-35022D01*
X29203Y-35051D01*
X29262Y-35059D01*
X29284D01*
X29307Y-35051D01*
X29329Y-35037D01*
X29337Y-35029D01*
X29351Y-35022D01*
X29389Y-34977D01*
X29396D01*
X29411Y-34985D01*
X29426Y-34992D01*
X29448Y-34999D01*
X29470D01*
X29515Y-35007D01*
X29523D01*
X29552Y-34999D01*
X29575Y-34985D01*
X29597Y-34962D01*
X29604Y-34955D01*
X29612Y-34932D01*
X29619Y-34903D01*
Y-34865D01*
Y-34858D01*
Y-34828D01*
X29612Y-34799D01*
X29604Y-34769D01*
Y-34761D01*
X29597Y-34746D01*
X29575Y-34724D01*
X29545Y-34694D01*
X29567Y-34672D01*
X29575D01*
X29582Y-34687D01*
X29619Y-34724D01*
X29627Y-34732D01*
X29642Y-34739D01*
X29664Y-34746D01*
X29686Y-34754D01*
X29716D01*
X29723Y-34746D01*
X29731Y-34739D01*
X29738Y-34717D01*
Y-34709D01*
X29746Y-34702D01*
Y-34672D01*
Y-34665D01*
Y-34657D01*
Y-34635D01*
Y-34627D01*
Y-34605D01*
X29731Y-34560D01*
Y-34553D01*
Y-34538D01*
X29723Y-34516D01*
Y-34486D01*
Y-34479D01*
X29731Y-34471D01*
X29746Y-34456D01*
X29768Y-34434D01*
X29775Y-34427D01*
X29798Y-34419D01*
X29828Y-34397D01*
X29857Y-34382D01*
X29865Y-34374D01*
X29887Y-34360D01*
X29932Y-34322D01*
X29939Y-34315D01*
X29947Y-34308D01*
X29954Y-34285D01*
Y-34270D01*
X30006Y-34293D01*
X31643Y-35237D01*
X27432D01*
Y-35230D01*
Y-35223D01*
X27439Y-35185D01*
X27447Y-35178D01*
X27462Y-35156D01*
X28436Y-33467D01*
X28478Y-33401D01*
X28474Y-33400D01*
X28466Y-33392D01*
X28488Y-33385D01*
X28478Y-33401D01*
D02*
G37*
G36*
X29775Y-31257D02*
X30519Y-32537D01*
X30505D01*
X30467Y-32552D01*
X30438Y-32559D01*
X30400Y-32567D01*
X30356Y-32582D01*
X30304Y-32589D01*
X30296D01*
X30281Y-32596D01*
X30244Y-32604D01*
X30207Y-32611D01*
X30155Y-32619D01*
X30103Y-32634D01*
X29969Y-32663D01*
X29961D01*
X29939Y-32671D01*
X29902Y-32678D01*
X29850Y-32686D01*
X29790Y-32701D01*
X29731Y-32723D01*
X29582Y-32760D01*
X29575D01*
X29552Y-32768D01*
X29515Y-32782D01*
X29463Y-32790D01*
X29411Y-32805D01*
X29351Y-32827D01*
X29225Y-32864D01*
X29218D01*
X29195Y-32872D01*
X29165Y-32887D01*
X29128Y-32894D01*
X29046Y-32931D01*
X28957Y-32976D01*
X28950D01*
X28942Y-32983D01*
X28905Y-33013D01*
X28868Y-33050D01*
X28860Y-33073D01*
X28853Y-33095D01*
Y-33102D01*
X28868Y-33132D01*
X28875Y-33139D01*
X28905Y-33162D01*
X28912D01*
X28920Y-33169D01*
X28942Y-33184D01*
X28950D01*
X28957Y-33192D01*
X28979Y-33206D01*
X28965Y-33199D01*
X28935Y-33184D01*
X28890Y-33162D01*
X28831Y-33139D01*
X28816Y-33132D01*
X28786Y-33110D01*
X28741Y-33087D01*
X28697Y-33058D01*
Y-33028D01*
Y-33020D01*
X28704Y-33006D01*
Y-32998D01*
X28712Y-32991D01*
Y-32983D01*
X28719D01*
X29671Y-31332D01*
X29679Y-31317D01*
X29709Y-31287D01*
X29716Y-31280D01*
X29723Y-31265D01*
X29753Y-31227D01*
X29775Y-31257D01*
D02*
G37*
G36*
X29069Y-33259D02*
X29076D01*
X29084Y-33266D01*
X29106Y-33288D01*
X29091Y-33281D01*
X29061Y-33266D01*
X29054Y-33259D01*
X29039Y-33244D01*
X29069Y-33259D01*
D02*
G37*
G36*
X29165Y-33318D02*
X29195Y-33333D01*
X29203D01*
X29210Y-33340D01*
X29232Y-33363D01*
X29218Y-33355D01*
X29188Y-33348D01*
X29180Y-33340D01*
X29158Y-33311D01*
X29165Y-33318D01*
D02*
G37*
G36*
X33624Y-14682D02*
X33632D01*
X33639Y-14675D01*
X33647Y-14667D01*
X33654Y-14652D01*
X33662Y-14645D01*
X33684Y-14622D01*
X33691Y-14615D01*
X33699Y-14608D01*
X33729Y-14570D01*
X33736Y-14563D01*
X33743Y-14555D01*
X33773Y-14518D01*
X33781Y-14511D01*
X33788Y-14503D01*
X33803Y-14489D01*
X33952D01*
X33758Y-14704D01*
X33952Y-14927D01*
X33795D01*
X33788Y-14920D01*
X33766Y-14898D01*
Y-14890D01*
X33751Y-14875D01*
X33721Y-14838D01*
Y-14831D01*
X33706Y-14823D01*
X33676Y-14786D01*
Y-14779D01*
X33662Y-14771D01*
X33654Y-14756D01*
X33647Y-14749D01*
X33639D01*
X33632Y-14741D01*
Y-14734D01*
X33624Y-14727D01*
Y-14927D01*
X33505D01*
Y-14273D01*
X33624D01*
Y-14682D01*
D02*
G37*
G36*
X34309Y-14496D02*
X34324Y-14511D01*
X34331Y-14526D01*
X34339Y-14563D01*
Y-14570D01*
X34346Y-14578D01*
Y-14622D01*
Y-14630D01*
Y-14637D01*
Y-14652D01*
Y-14660D01*
X34220D01*
Y-14593D01*
Y-14585D01*
X34205Y-14578D01*
X34197Y-14570D01*
X34138D01*
Y-14927D01*
X34011D01*
Y-14489D01*
X34294D01*
X34309Y-14496D01*
D02*
G37*
G36*
X33394Y-14927D02*
X33267D01*
Y-14489D01*
X33394D01*
Y-14927D01*
D02*
G37*
G36*
X1624Y-26035D02*
X1506D01*
Y-25283D01*
X1504Y-25284D01*
X1498Y-25290D01*
X1488Y-25298D01*
X1475Y-25308D01*
X1459Y-25321D01*
X1440Y-25334D01*
X1418Y-25350D01*
X1393Y-25365D01*
X1391D01*
X1390Y-25366D01*
X1381Y-25372D01*
X1368Y-25380D01*
X1352Y-25388D01*
X1333Y-25399D01*
X1312Y-25407D01*
X1290Y-25418D01*
X1270Y-25426D01*
Y-25311D01*
X1271D01*
X1274Y-25309D01*
X1280Y-25306D01*
X1286Y-25302D01*
X1295Y-25298D01*
X1305Y-25293D01*
X1329Y-25280D01*
X1355Y-25264D01*
X1384Y-25245D01*
X1413Y-25223D01*
X1441Y-25200D01*
X1443Y-25198D01*
X1444Y-25197D01*
X1453Y-25188D01*
X1466Y-25175D01*
X1482Y-25159D01*
X1500Y-25138D01*
X1517Y-25116D01*
X1533Y-25093D01*
X1547Y-25069D01*
X1624D01*
Y-26035D01*
D02*
G37*
G36*
X47115Y-25984D02*
X46997D01*
Y-25232D01*
X46995Y-25234D01*
X46990Y-25240D01*
X46979Y-25247D01*
X46966Y-25257D01*
X46950Y-25270D01*
X46931Y-25283D01*
X46909Y-25299D01*
X46884Y-25314D01*
X46883D01*
X46881Y-25316D01*
X46873Y-25321D01*
X46859Y-25329D01*
X46843Y-25338D01*
X46824Y-25348D01*
X46804Y-25357D01*
X46782Y-25367D01*
X46761Y-25376D01*
Y-25260D01*
X46763D01*
X46766Y-25259D01*
X46772Y-25256D01*
X46777Y-25251D01*
X46786Y-25247D01*
X46797Y-25242D01*
X46820Y-25229D01*
X46846Y-25213D01*
X46876Y-25194D01*
X46905Y-25172D01*
X46933Y-25149D01*
X46934Y-25147D01*
X46936Y-25146D01*
X46944Y-25137D01*
X46957Y-25124D01*
X46974Y-25108D01*
X46991Y-25087D01*
X47009Y-25065D01*
X47025Y-25042D01*
X47038Y-25019D01*
X47115D01*
Y-25984D01*
D02*
G37*
G36*
X33394Y-14384D02*
X33267D01*
Y-14273D01*
X33394D01*
Y-14384D01*
D02*
G37*
G36*
X39899Y-3026D02*
X39901Y-3025D01*
X39907Y-3019D01*
X39917Y-3011D01*
X39930Y-3001D01*
X39946Y-2988D01*
X39965Y-2975D01*
X39987Y-2959D01*
X40012Y-2944D01*
X40014D01*
X40015Y-2943D01*
X40024Y-2937D01*
X40037Y-2929D01*
X40053Y-2921D01*
X40072Y-2910D01*
X40093Y-2902D01*
X40115Y-2891D01*
X40135Y-2883D01*
Y-2998D01*
X40134D01*
X40131Y-3000D01*
X40125Y-3003D01*
X40119Y-3007D01*
X40110Y-3011D01*
X40100Y-3016D01*
X40076Y-3029D01*
X40050Y-3045D01*
X40021Y-3064D01*
X39992Y-3086D01*
X39964Y-3109D01*
X39962Y-3111D01*
X39961Y-3112D01*
X39952Y-3121D01*
X39939Y-3134D01*
X39923Y-3150D01*
X39905Y-3171D01*
X39888Y-3193D01*
X39872Y-3216D01*
X39858Y-3240D01*
X39781D01*
Y-2274D01*
X39899D01*
Y-3026D01*
D02*
G37*
G36*
X18390Y-4259D02*
X18402Y-4261D01*
X18415Y-4264D01*
X18429Y-4267D01*
X18445Y-4270D01*
X18481Y-4281D01*
X18500Y-4290D01*
X18517Y-4299D01*
X18536Y-4311D01*
X18554Y-4324D01*
X18570Y-4338D01*
X18586Y-4356D01*
X18587Y-4357D01*
X18590Y-4362D01*
X18595Y-4369D01*
X18601Y-4379D01*
X18608Y-4393D01*
X18615Y-4409D01*
X18624Y-4428D01*
X18633Y-4451D01*
X18642Y-4476D01*
X18650Y-4505D01*
X18658Y-4537D01*
X18665Y-4572D01*
X18671Y-4612D01*
X18675Y-4653D01*
X18678Y-4700D01*
X18680Y-4748D01*
Y-4749D01*
Y-4755D01*
Y-4764D01*
Y-4776D01*
X18678Y-4790D01*
Y-4807D01*
X18677Y-4826D01*
X18675Y-4846D01*
X18671Y-4890D01*
X18665Y-4935D01*
X18658Y-4981D01*
X18652Y-5001D01*
X18646Y-5022D01*
Y-5023D01*
X18644Y-5026D01*
X18642Y-5032D01*
X18639Y-5039D01*
X18636Y-5048D01*
X18631Y-5058D01*
X18620Y-5082D01*
X18605Y-5108D01*
X18587Y-5134D01*
X18567Y-5159D01*
X18542Y-5183D01*
X18541D01*
X18539Y-5185D01*
X18535Y-5188D01*
X18529Y-5191D01*
X18514Y-5200D01*
X18494Y-5212D01*
X18469Y-5222D01*
X18438Y-5231D01*
X18404Y-5237D01*
X18366Y-5240D01*
X18353D01*
X18339Y-5238D01*
X18321Y-5235D01*
X18301Y-5232D01*
X18277Y-5226D01*
X18254Y-5218D01*
X18232Y-5207D01*
X18229Y-5206D01*
X18222Y-5202D01*
X18211Y-5194D01*
X18197Y-5185D01*
X18182Y-5172D01*
X18166Y-5156D01*
X18150Y-5139D01*
X18135Y-5118D01*
X18134Y-5115D01*
X18129Y-5108D01*
X18122Y-5095D01*
X18113Y-5079D01*
X18105Y-5058D01*
X18094Y-5033D01*
X18084Y-5006D01*
X18075Y-4975D01*
Y-4973D01*
X18074Y-4970D01*
Y-4966D01*
X18072Y-4959D01*
X18069Y-4951D01*
X18068Y-4941D01*
X18067Y-4928D01*
X18064Y-4915D01*
X18062Y-4899D01*
X18061Y-4883D01*
X18058Y-4864D01*
X18056Y-4843D01*
X18055Y-4821D01*
Y-4799D01*
X18053Y-4748D01*
Y-4747D01*
Y-4741D01*
Y-4732D01*
Y-4720D01*
X18055Y-4706D01*
Y-4689D01*
X18056Y-4670D01*
X18058Y-4650D01*
X18062Y-4606D01*
X18068Y-4561D01*
X18077Y-4515D01*
X18083Y-4495D01*
X18088Y-4474D01*
Y-4473D01*
X18090Y-4470D01*
X18091Y-4464D01*
X18094Y-4457D01*
X18099Y-4448D01*
X18103Y-4439D01*
X18115Y-4416D01*
X18129Y-4390D01*
X18147Y-4363D01*
X18167Y-4337D01*
X18192Y-4313D01*
X18194D01*
X18195Y-4311D01*
X18200Y-4309D01*
X18204Y-4305D01*
X18220Y-4296D01*
X18239Y-4286D01*
X18266Y-4275D01*
X18295Y-4267D01*
X18328Y-4261D01*
X18366Y-4258D01*
X18380D01*
X18390Y-4259D01*
D02*
G37*
G36*
X39153Y-3026D02*
X39155Y-3025D01*
X39161Y-3019D01*
X39171Y-3011D01*
X39184Y-3001D01*
X39200Y-2988D01*
X39219Y-2975D01*
X39241Y-2959D01*
X39266Y-2944D01*
X39267D01*
X39269Y-2943D01*
X39278Y-2937D01*
X39291Y-2929D01*
X39307Y-2921D01*
X39326Y-2910D01*
X39346Y-2902D01*
X39368Y-2891D01*
X39389Y-2883D01*
Y-2998D01*
X39387D01*
X39384Y-3000D01*
X39379Y-3003D01*
X39373Y-3007D01*
X39364Y-3011D01*
X39354Y-3016D01*
X39330Y-3029D01*
X39304Y-3045D01*
X39275Y-3064D01*
X39245Y-3086D01*
X39218Y-3109D01*
X39216Y-3111D01*
X39215Y-3112D01*
X39206Y-3121D01*
X39193Y-3134D01*
X39177Y-3150D01*
X39159Y-3171D01*
X39142Y-3193D01*
X39125Y-3216D01*
X39112Y-3240D01*
X39035D01*
Y-2274D01*
X39153D01*
Y-3026D01*
D02*
G37*
G36*
X13835Y-43644D02*
X13083D01*
X13084Y-43646D01*
X13090Y-43652D01*
X13098Y-43662D01*
X13108Y-43675D01*
X13121Y-43691D01*
X13134Y-43710D01*
X13150Y-43732D01*
X13165Y-43757D01*
Y-43759D01*
X13166Y-43760D01*
X13172Y-43769D01*
X13180Y-43782D01*
X13188Y-43798D01*
X13199Y-43817D01*
X13207Y-43838D01*
X13218Y-43860D01*
X13226Y-43880D01*
X13111D01*
Y-43879D01*
X13109Y-43876D01*
X13106Y-43870D01*
X13102Y-43864D01*
X13098Y-43855D01*
X13093Y-43845D01*
X13080Y-43821D01*
X13064Y-43795D01*
X13045Y-43766D01*
X13023Y-43737D01*
X13000Y-43709D01*
X12998Y-43707D01*
X12997Y-43706D01*
X12988Y-43697D01*
X12975Y-43684D01*
X12959Y-43668D01*
X12938Y-43650D01*
X12916Y-43633D01*
X12893Y-43617D01*
X12869Y-43603D01*
Y-43526D01*
X13835D01*
Y-43644D01*
D02*
G37*
G36*
X39149Y-5026D02*
X39151Y-5025D01*
X39157Y-5019D01*
X39167Y-5011D01*
X39180Y-5001D01*
X39196Y-4988D01*
X39215Y-4975D01*
X39237Y-4959D01*
X39262Y-4944D01*
X39264D01*
X39265Y-4943D01*
X39274Y-4937D01*
X39287Y-4929D01*
X39303Y-4921D01*
X39322Y-4910D01*
X39343Y-4902D01*
X39365Y-4891D01*
X39385Y-4883D01*
Y-4998D01*
X39384D01*
X39381Y-5000D01*
X39375Y-5003D01*
X39369Y-5007D01*
X39360Y-5011D01*
X39350Y-5016D01*
X39326Y-5029D01*
X39300Y-5045D01*
X39271Y-5064D01*
X39242Y-5086D01*
X39214Y-5109D01*
X39212Y-5111D01*
X39211Y-5112D01*
X39202Y-5121D01*
X39189Y-5134D01*
X39173Y-5150D01*
X39155Y-5171D01*
X39138Y-5193D01*
X39122Y-5216D01*
X39108Y-5240D01*
X39031D01*
Y-4274D01*
X39149D01*
Y-5026D01*
D02*
G37*
G36*
X33989Y-15783D02*
Y-15790D01*
X33981Y-15820D01*
X33974Y-15850D01*
X33952Y-15880D01*
X33944Y-15887D01*
X33929Y-15902D01*
X33907Y-15917D01*
X33870Y-15939D01*
X33862D01*
X33840Y-15954D01*
X33803Y-15962D01*
X33758Y-15969D01*
X33721D01*
X33691Y-15976D01*
X33580D01*
X33535Y-15969D01*
X33528D01*
X33498Y-15954D01*
X33461Y-15947D01*
X33423Y-15924D01*
X33416Y-15917D01*
X33401Y-15902D01*
X33371Y-15880D01*
X33349Y-15850D01*
Y-15843D01*
X33342Y-15813D01*
X33334Y-15776D01*
X33327Y-15724D01*
Y-15203D01*
X33490D01*
Y-15724D01*
Y-15731D01*
X33498Y-15746D01*
X33505Y-15768D01*
X33520Y-15798D01*
X33528Y-15805D01*
X33543Y-15820D01*
X33565Y-15835D01*
X33587Y-15843D01*
X33751D01*
X33781Y-15828D01*
X33788D01*
X33795Y-15820D01*
X33810Y-15790D01*
Y-15783D01*
X33818Y-15768D01*
X33833Y-15731D01*
Y-15724D01*
X33840Y-15716D01*
Y-15686D01*
Y-15203D01*
X33989D01*
Y-15783D01*
D02*
G37*
G36*
X34807Y-15337D02*
X34361D01*
X34339Y-15352D01*
X34316Y-15366D01*
Y-15374D01*
X34309Y-15389D01*
X34301Y-15404D01*
X34294Y-15433D01*
Y-15441D01*
Y-15456D01*
Y-15463D01*
Y-15471D01*
X34301Y-15485D01*
X34331Y-15508D01*
X34339D01*
X34346Y-15515D01*
X34376Y-15523D01*
X34718D01*
X34740Y-15530D01*
X34763Y-15545D01*
X34770Y-15552D01*
X34777Y-15560D01*
X34807Y-15604D01*
X34815Y-15612D01*
X34822Y-15627D01*
X34837Y-15671D01*
Y-15679D01*
X34844Y-15694D01*
Y-15738D01*
Y-15746D01*
Y-15753D01*
X34837Y-15790D01*
X34822Y-15843D01*
X34792Y-15902D01*
X34785Y-15909D01*
X34755Y-15932D01*
X34711Y-15962D01*
X34651Y-15969D01*
X34153D01*
Y-15835D01*
X34606D01*
X34636Y-15820D01*
X34644D01*
X34651Y-15813D01*
X34666Y-15790D01*
Y-15746D01*
Y-15738D01*
X34658Y-15716D01*
X34644Y-15686D01*
X34614Y-15664D01*
X34606Y-15657D01*
X34584Y-15649D01*
X34547Y-15642D01*
X34339D01*
X34309Y-15649D01*
X34272D01*
X34242Y-15634D01*
X34197Y-15619D01*
X34160Y-15582D01*
X34153Y-15567D01*
X34138Y-15538D01*
X34123Y-15493D01*
X34115Y-15441D01*
Y-15433D01*
Y-15426D01*
X34123Y-15381D01*
X34138Y-15329D01*
X34167Y-15277D01*
X34182Y-15262D01*
X34212Y-15240D01*
X34264Y-15218D01*
X34331Y-15203D01*
X34807D01*
Y-15337D01*
D02*
G37*
G36*
X33066Y-14496D02*
X33089Y-14503D01*
X33118Y-14526D01*
X33126Y-14533D01*
X33141Y-14548D01*
X33148Y-14578D01*
X33156Y-14608D01*
Y-14927D01*
X33037D01*
Y-14637D01*
Y-14630D01*
Y-14622D01*
X33029Y-14608D01*
X33014Y-14600D01*
X33007Y-14593D01*
X32903D01*
Y-14927D01*
X32769D01*
Y-14593D01*
X32635D01*
Y-14927D01*
X32508D01*
Y-14489D01*
X33044D01*
X33066Y-14496D01*
D02*
G37*
G36*
X31593Y-14295D02*
X31638Y-14317D01*
X31690Y-14355D01*
X31697Y-14369D01*
X31727Y-14399D01*
X31750Y-14451D01*
X31757Y-14518D01*
Y-14533D01*
X31750Y-14570D01*
X31735Y-14615D01*
X31697Y-14667D01*
X31690Y-14675D01*
X31660Y-14697D01*
X31623Y-14727D01*
X31571Y-14749D01*
Y-15106D01*
X32055D01*
Y-15545D01*
X32069Y-15552D01*
X32099Y-15567D01*
X32144Y-15597D01*
X32188Y-15634D01*
X32196Y-15642D01*
X32218Y-15671D01*
X32241Y-15716D01*
X32248Y-15776D01*
Y-15783D01*
Y-15790D01*
X32241Y-15828D01*
X32218Y-15880D01*
X32181Y-15939D01*
X32166Y-15947D01*
X32136Y-15969D01*
X32084Y-15999D01*
X32025Y-16006D01*
X32010D01*
X31965Y-15999D01*
X31913Y-15976D01*
X31861Y-15939D01*
X31854Y-15924D01*
X31831Y-15895D01*
X31802Y-15843D01*
X31794Y-15776D01*
Y-15768D01*
Y-15761D01*
X31802Y-15724D01*
X31817Y-15671D01*
X31846Y-15634D01*
X31854Y-15627D01*
X31883Y-15604D01*
X31928Y-15575D01*
X31980Y-15545D01*
Y-15188D01*
X31095D01*
Y-15545D01*
X31110Y-15552D01*
X31139Y-15567D01*
X31177Y-15597D01*
X31221Y-15642D01*
X31229Y-15649D01*
X31251Y-15679D01*
X31266Y-15724D01*
X31273Y-15776D01*
Y-15783D01*
Y-15790D01*
X31266Y-15835D01*
X31244Y-15887D01*
X31206Y-15939D01*
X31199Y-15947D01*
X31162Y-15969D01*
X31117Y-15999D01*
X31050Y-16006D01*
X31035D01*
X30991Y-15999D01*
X30939Y-15976D01*
X30887Y-15939D01*
X30879Y-15924D01*
X30857Y-15895D01*
X30827Y-15843D01*
X30820Y-15776D01*
Y-15761D01*
X30827Y-15731D01*
X30842Y-15686D01*
X30872Y-15642D01*
X30879Y-15627D01*
X30909Y-15604D01*
X30946Y-15575D01*
X30998Y-15545D01*
Y-15188D01*
X30120D01*
Y-15545D01*
Y-15552D01*
X30128Y-15567D01*
X30143Y-15582D01*
X30150D01*
X30165Y-15597D01*
X30202Y-15634D01*
X30210Y-15642D01*
X30224Y-15657D01*
X30262Y-15701D01*
X30269Y-15709D01*
X30277Y-15724D01*
X30284Y-15746D01*
X30291Y-15776D01*
Y-15783D01*
Y-15790D01*
X30284Y-15835D01*
X30262Y-15887D01*
X30224Y-15939D01*
X30217Y-15947D01*
X30180Y-15969D01*
X30135Y-15999D01*
X30068Y-16006D01*
X30053D01*
X30016Y-15999D01*
X29964Y-15976D01*
X29912Y-15939D01*
X29905Y-15924D01*
X29882Y-15895D01*
X29860Y-15843D01*
X29852Y-15776D01*
Y-15768D01*
X29860Y-15753D01*
X29867Y-15731D01*
X29882Y-15701D01*
X29890Y-15694D01*
X29905Y-15679D01*
X29942Y-15634D01*
X29949Y-15627D01*
X29964Y-15619D01*
X30001Y-15582D01*
X30009Y-15575D01*
X30016Y-15567D01*
X30024Y-15560D01*
X30031Y-15545D01*
Y-15106D01*
X30515D01*
Y-14749D01*
Y-14741D01*
X30500Y-14727D01*
X30485Y-14712D01*
X30477Y-14704D01*
X30462Y-14697D01*
X30418Y-14660D01*
X30410Y-14652D01*
X30403Y-14637D01*
X30358Y-14593D01*
X30351Y-14585D01*
X30343Y-14570D01*
X30336Y-14541D01*
X30329Y-14511D01*
Y-14503D01*
Y-14496D01*
X30336Y-14451D01*
X30358Y-14407D01*
X30396Y-14355D01*
X30410Y-14347D01*
X30440Y-14317D01*
X30492Y-14295D01*
X30559Y-14288D01*
X30574D01*
X30619Y-14295D01*
X30663Y-14317D01*
X30715Y-14355D01*
X30723Y-14369D01*
X30753Y-14399D01*
X30775Y-14451D01*
X30782Y-14518D01*
Y-14526D01*
Y-14541D01*
X30768Y-14563D01*
X30753Y-14593D01*
X30745Y-14600D01*
X30738Y-14615D01*
X30693Y-14660D01*
X30686Y-14667D01*
X30678Y-14675D01*
X30634Y-14712D01*
X30626D01*
X30619Y-14727D01*
X30611Y-14734D01*
X30604Y-14749D01*
Y-15106D01*
X31489D01*
Y-14749D01*
Y-14741D01*
X31474Y-14727D01*
X31459Y-14712D01*
X31452Y-14704D01*
X31437Y-14697D01*
X31392Y-14660D01*
X31385Y-14652D01*
X31378Y-14637D01*
X31333Y-14593D01*
Y-14585D01*
X31325Y-14570D01*
X31318Y-14541D01*
X31311Y-14511D01*
Y-14503D01*
Y-14496D01*
X31318Y-14459D01*
X31333Y-14407D01*
X31370Y-14355D01*
X31385Y-14347D01*
X31415Y-14317D01*
X31467Y-14295D01*
X31534Y-14288D01*
X31549D01*
X31593Y-14295D01*
D02*
G37*
G36*
X34696Y-14481D02*
X34748Y-14503D01*
X34800Y-14541D01*
X34807Y-14548D01*
X34837Y-14585D01*
X34859Y-14637D01*
X34867Y-14712D01*
Y-14719D01*
Y-14727D01*
X34859Y-14771D01*
X34837Y-14823D01*
X34800Y-14875D01*
X34785Y-14883D01*
X34755Y-14905D01*
X34703Y-14927D01*
X34629Y-14935D01*
X34614D01*
X34569Y-14927D01*
X34517Y-14913D01*
X34458Y-14875D01*
X34450Y-14861D01*
X34428Y-14831D01*
X34398Y-14779D01*
X34391Y-14704D01*
Y-14697D01*
Y-14689D01*
X34398Y-14645D01*
X34420Y-14593D01*
X34458Y-14541D01*
X34472Y-14533D01*
X34510Y-14503D01*
X34562Y-14481D01*
X34629Y-14474D01*
X34651D01*
X34696Y-14481D01*
D02*
G37*
G36*
X33029Y-15210D02*
X33074Y-15225D01*
X33126Y-15262D01*
X33133Y-15270D01*
X33163Y-15299D01*
X33185Y-15344D01*
X33193Y-15411D01*
Y-15418D01*
Y-15448D01*
X33178Y-15478D01*
X33163Y-15508D01*
X33156Y-15515D01*
X33148Y-15530D01*
X33126Y-15552D01*
X33096Y-15582D01*
X33104Y-15597D01*
X33126Y-15627D01*
X33133D01*
X33141Y-15634D01*
X33163Y-15664D01*
X33171Y-15671D01*
X33185Y-15701D01*
Y-15709D01*
X33193Y-15716D01*
Y-15761D01*
Y-15776D01*
X33185Y-15805D01*
X33178Y-15850D01*
X33148Y-15902D01*
X33141Y-15909D01*
X33118Y-15932D01*
X33074Y-15962D01*
X33014Y-15969D01*
X32523D01*
Y-15203D01*
X32985D01*
X33029Y-15210D01*
D02*
G37*
G36*
X1624Y-22225D02*
X1506D01*
Y-21473D01*
X1504Y-21474D01*
X1498Y-21480D01*
X1488Y-21488D01*
X1475Y-21498D01*
X1459Y-21511D01*
X1440Y-21524D01*
X1418Y-21540D01*
X1393Y-21555D01*
X1391D01*
X1390Y-21556D01*
X1381Y-21562D01*
X1368Y-21570D01*
X1352Y-21578D01*
X1333Y-21589D01*
X1312Y-21597D01*
X1290Y-21608D01*
X1270Y-21616D01*
Y-21501D01*
X1271D01*
X1274Y-21499D01*
X1280Y-21496D01*
X1286Y-21492D01*
X1295Y-21488D01*
X1305Y-21483D01*
X1329Y-21470D01*
X1355Y-21454D01*
X1384Y-21435D01*
X1413Y-21413D01*
X1441Y-21390D01*
X1443Y-21388D01*
X1444Y-21387D01*
X1453Y-21378D01*
X1466Y-21365D01*
X1482Y-21349D01*
X1500Y-21328D01*
X1517Y-21306D01*
X1533Y-21283D01*
X1547Y-21259D01*
X1624D01*
Y-22225D01*
D02*
G37*
G36*
X47192Y-22098D02*
X47073D01*
Y-21346D01*
X47072Y-21347D01*
X47066Y-21353D01*
X47056Y-21361D01*
X47042Y-21371D01*
X47026Y-21384D01*
X47007Y-21397D01*
X46985Y-21413D01*
X46960Y-21428D01*
X46959D01*
X46958Y-21429D01*
X46949Y-21435D01*
X46936Y-21443D01*
X46920Y-21451D01*
X46901Y-21462D01*
X46880Y-21470D01*
X46858Y-21481D01*
X46838Y-21489D01*
Y-21374D01*
X46839D01*
X46842Y-21372D01*
X46848Y-21369D01*
X46854Y-21365D01*
X46862Y-21361D01*
X46873Y-21356D01*
X46896Y-21343D01*
X46922Y-21327D01*
X46952Y-21308D01*
X46981Y-21286D01*
X47009Y-21263D01*
X47010Y-21261D01*
X47012Y-21260D01*
X47020Y-21251D01*
X47034Y-21238D01*
X47050Y-21222D01*
X47067Y-21201D01*
X47085Y-21179D01*
X47101Y-21156D01*
X47114Y-21132D01*
X47192D01*
Y-22098D01*
D02*
G37*
G36*
X20129Y-14445D02*
X20011D01*
Y-13693D01*
X20009Y-13694D01*
X20003Y-13700D01*
X19993Y-13708D01*
X19980Y-13718D01*
X19964Y-13731D01*
X19945Y-13744D01*
X19923Y-13760D01*
X19898Y-13775D01*
X19896D01*
X19895Y-13776D01*
X19886Y-13782D01*
X19873Y-13790D01*
X19857Y-13798D01*
X19838Y-13809D01*
X19817Y-13817D01*
X19795Y-13828D01*
X19775Y-13836D01*
Y-13721D01*
X19776D01*
X19779Y-13719D01*
X19785Y-13716D01*
X19791Y-13712D01*
X19800Y-13708D01*
X19810Y-13703D01*
X19834Y-13690D01*
X19860Y-13674D01*
X19889Y-13655D01*
X19918Y-13633D01*
X19946Y-13610D01*
X19948Y-13608D01*
X19949Y-13607D01*
X19958Y-13598D01*
X19971Y-13585D01*
X19987Y-13569D01*
X20005Y-13548D01*
X20022Y-13526D01*
X20038Y-13503D01*
X20052Y-13479D01*
X20129D01*
Y-14445D01*
D02*
G37*
G36*
X4009Y-18186D02*
X4011Y-18189D01*
X4014Y-18195D01*
X4018Y-18201D01*
X4022Y-18210D01*
X4027Y-18220D01*
X4040Y-18244D01*
X4056Y-18270D01*
X4075Y-18299D01*
X4097Y-18328D01*
X4120Y-18356D01*
X4122Y-18358D01*
X4123Y-18359D01*
X4132Y-18368D01*
X4145Y-18381D01*
X4161Y-18397D01*
X4182Y-18415D01*
X4204Y-18432D01*
X4227Y-18448D01*
X4251Y-18462D01*
Y-18539D01*
X3285D01*
Y-18421D01*
X4037D01*
X4036Y-18419D01*
X4030Y-18413D01*
X4022Y-18403D01*
X4012Y-18390D01*
X3999Y-18374D01*
X3986Y-18355D01*
X3970Y-18333D01*
X3955Y-18308D01*
Y-18306D01*
X3954Y-18305D01*
X3948Y-18296D01*
X3940Y-18283D01*
X3932Y-18267D01*
X3921Y-18248D01*
X3913Y-18227D01*
X3902Y-18205D01*
X3894Y-18185D01*
X4009D01*
Y-18186D01*
D02*
G37*
G36*
X25729Y-8436D02*
X25731Y-8439D01*
X25734Y-8445D01*
X25738Y-8451D01*
X25742Y-8460D01*
X25747Y-8470D01*
X25760Y-8494D01*
X25776Y-8520D01*
X25795Y-8549D01*
X25817Y-8578D01*
X25840Y-8606D01*
X25842Y-8608D01*
X25843Y-8609D01*
X25852Y-8618D01*
X25865Y-8631D01*
X25881Y-8647D01*
X25902Y-8665D01*
X25924Y-8682D01*
X25947Y-8698D01*
X25971Y-8712D01*
Y-8789D01*
X25005D01*
Y-8671D01*
X25757D01*
X25756Y-8669D01*
X25750Y-8663D01*
X25742Y-8653D01*
X25732Y-8640D01*
X25719Y-8624D01*
X25706Y-8605D01*
X25690Y-8583D01*
X25675Y-8558D01*
Y-8556D01*
X25674Y-8555D01*
X25668Y-8546D01*
X25660Y-8533D01*
X25652Y-8517D01*
X25641Y-8498D01*
X25633Y-8477D01*
X25622Y-8455D01*
X25614Y-8435D01*
X25729D01*
Y-8436D01*
D02*
G37*
G36*
X19099Y-5026D02*
X19101Y-5025D01*
X19107Y-5019D01*
X19117Y-5011D01*
X19130Y-5001D01*
X19146Y-4988D01*
X19165Y-4975D01*
X19187Y-4959D01*
X19212Y-4944D01*
X19214D01*
X19215Y-4943D01*
X19224Y-4937D01*
X19237Y-4929D01*
X19253Y-4921D01*
X19272Y-4910D01*
X19293Y-4902D01*
X19315Y-4891D01*
X19335Y-4883D01*
Y-4998D01*
X19334D01*
X19331Y-5000D01*
X19325Y-5003D01*
X19319Y-5007D01*
X19310Y-5011D01*
X19300Y-5016D01*
X19276Y-5029D01*
X19250Y-5045D01*
X19221Y-5064D01*
X19192Y-5086D01*
X19164Y-5109D01*
X19162Y-5111D01*
X19161Y-5112D01*
X19152Y-5121D01*
X19139Y-5134D01*
X19123Y-5150D01*
X19105Y-5171D01*
X19088Y-5193D01*
X19072Y-5216D01*
X19058Y-5240D01*
X18981D01*
Y-4274D01*
X19099D01*
Y-5026D01*
D02*
G37*
G36*
X25894Y-26670D02*
Y-27213D01*
X25790D01*
X25775Y-27206D01*
X25641D01*
X25589Y-27213D01*
X25530Y-27221D01*
X25463Y-27236D01*
X25307Y-27280D01*
X25299D01*
X25269Y-27295D01*
X25232Y-27310D01*
X25173Y-27333D01*
X25113Y-27362D01*
X25046Y-27399D01*
X24905Y-27489D01*
X24897Y-27496D01*
X24875Y-27511D01*
X24838Y-27541D01*
X24801Y-27578D01*
X24749Y-27623D01*
X24697Y-27682D01*
X24600Y-27809D01*
X24592Y-27816D01*
X24585Y-27838D01*
X24563Y-27876D01*
X24540Y-27928D01*
X24518Y-27980D01*
X24503Y-28047D01*
X24488Y-28121D01*
X24481Y-28203D01*
X25530D01*
Y-28746D01*
X24481D01*
Y-28753D01*
Y-28783D01*
X24488Y-28820D01*
X24496Y-28880D01*
X24511Y-28939D01*
X24533Y-29006D01*
X24563Y-29073D01*
X24600Y-29148D01*
X24607Y-29155D01*
X24622Y-29178D01*
X24645Y-29215D01*
X24682Y-29252D01*
X24726Y-29304D01*
X24778Y-29356D01*
X24838Y-29408D01*
X24905Y-29460D01*
X24912Y-29468D01*
X24935Y-29483D01*
X24972Y-29505D01*
X25024Y-29535D01*
X25083Y-29564D01*
X25150Y-29602D01*
X25299Y-29661D01*
X25307D01*
X25336Y-29676D01*
X25381Y-29683D01*
X25433Y-29698D01*
X25493Y-29713D01*
X25560Y-29721D01*
X25701Y-29736D01*
X25805D01*
X25827Y-29728D01*
X25894D01*
Y-30271D01*
X25887Y-30279D01*
X25656D01*
X25582Y-30271D01*
X25493Y-30264D01*
X25381Y-30241D01*
X25262Y-30219D01*
X25143Y-30182D01*
X25017Y-30137D01*
X25002Y-30130D01*
X24964Y-30107D01*
X24897Y-30078D01*
X24823Y-30033D01*
X24734Y-29981D01*
X24637Y-29914D01*
X24533Y-29840D01*
X24436Y-29750D01*
X24429Y-29736D01*
X24399Y-29706D01*
X24354Y-29654D01*
X24295Y-29587D01*
X24235Y-29505D01*
X24168Y-29408D01*
X24109Y-29297D01*
X24049Y-29178D01*
Y-29170D01*
X24042Y-29163D01*
X24027Y-29118D01*
X24005Y-29051D01*
X23982Y-28969D01*
X23953Y-28865D01*
X23930Y-28746D01*
X23915Y-28612D01*
X23908Y-28478D01*
Y-28471D01*
Y-28463D01*
Y-28441D01*
Y-28411D01*
X23915Y-28344D01*
X23923Y-28248D01*
X23945Y-28143D01*
X23968Y-28024D01*
X24005Y-27905D01*
X24049Y-27779D01*
Y-27771D01*
X24057Y-27764D01*
X24079Y-27727D01*
X24109Y-27660D01*
X24154Y-27585D01*
X24206Y-27496D01*
X24273Y-27399D01*
X24347Y-27303D01*
X24429Y-27206D01*
X24444Y-27191D01*
X24473Y-27161D01*
X24526Y-27117D01*
X24592Y-27065D01*
X24674Y-26998D01*
X24771Y-26931D01*
X24883Y-26871D01*
X25002Y-26812D01*
X25009D01*
X25017Y-26804D01*
X25061Y-26789D01*
X25128Y-26767D01*
X25210Y-26737D01*
X25314Y-26708D01*
X25433Y-26685D01*
X25567Y-26670D01*
X25701Y-26663D01*
X25857D01*
X25894Y-26670D01*
D02*
G37*
G36*
X22814D02*
X22822Y-26678D01*
Y-27213D01*
X22718D01*
X22695Y-27206D01*
X22591D01*
X22539Y-27213D01*
X22480Y-27221D01*
X22405Y-27228D01*
X22316Y-27251D01*
X22234Y-27273D01*
X22145Y-27310D01*
X22137Y-27318D01*
X22108Y-27325D01*
X22063Y-27347D01*
X22011Y-27377D01*
X21944Y-27422D01*
X21877Y-27466D01*
X21810Y-27518D01*
X21743Y-27585D01*
X21736Y-27593D01*
X21713Y-27615D01*
X21684Y-27652D01*
X21646Y-27697D01*
X21602Y-27757D01*
X21557Y-27824D01*
X21512Y-27905D01*
X21468Y-27987D01*
X21460Y-27995D01*
X21453Y-28024D01*
X21438Y-28069D01*
X21423Y-28129D01*
X21401Y-28203D01*
X21386Y-28285D01*
X21379Y-28367D01*
X21371Y-28463D01*
Y-28478D01*
Y-28508D01*
X21379Y-28560D01*
X21386Y-28620D01*
X21393Y-28701D01*
X21416Y-28783D01*
X21438Y-28873D01*
X21468Y-28962D01*
X21475Y-28969D01*
X21483Y-28999D01*
X21505Y-29044D01*
X21535Y-29096D01*
X21579Y-29163D01*
X21624Y-29230D01*
X21676Y-29297D01*
X21736Y-29364D01*
X21743Y-29371D01*
X21765Y-29393D01*
X21803Y-29423D01*
X21847Y-29460D01*
X21907Y-29505D01*
X21981Y-29550D01*
X22056Y-29594D01*
X22137Y-29639D01*
X22145Y-29646D01*
X22175Y-29654D01*
X22227Y-29669D01*
X22286Y-29683D01*
X22361Y-29706D01*
X22442Y-29721D01*
X22532Y-29728D01*
X22628Y-29736D01*
X22725D01*
X22747Y-29728D01*
X22822D01*
Y-30271D01*
X22814D01*
X22807Y-30279D01*
X22576D01*
X22502Y-30271D01*
X22413Y-30264D01*
X22301Y-30241D01*
X22182Y-30219D01*
X22063Y-30182D01*
X21937Y-30137D01*
X21922Y-30130D01*
X21884Y-30107D01*
X21817Y-30078D01*
X21743Y-30033D01*
X21654Y-29981D01*
X21557Y-29914D01*
X21453Y-29840D01*
X21356Y-29750D01*
X21349Y-29736D01*
X21319Y-29706D01*
X21274Y-29654D01*
X21215Y-29587D01*
X21155Y-29505D01*
X21088Y-29408D01*
X21029Y-29297D01*
X20969Y-29178D01*
Y-29170D01*
X20962Y-29163D01*
X20947Y-29118D01*
X20925Y-29051D01*
X20902Y-28969D01*
X20873Y-28865D01*
X20850Y-28746D01*
X20835Y-28612D01*
X20828Y-28478D01*
Y-28471D01*
Y-28463D01*
Y-28441D01*
Y-28411D01*
X20835Y-28344D01*
X20843Y-28248D01*
X20865Y-28143D01*
X20888Y-28024D01*
X20925Y-27905D01*
X20969Y-27779D01*
Y-27771D01*
X20977Y-27764D01*
X20999Y-27727D01*
X21029Y-27660D01*
X21074Y-27585D01*
X21126Y-27496D01*
X21193Y-27399D01*
X21267Y-27303D01*
X21349Y-27206D01*
X21364Y-27191D01*
X21393Y-27161D01*
X21445Y-27117D01*
X21512Y-27065D01*
X21594Y-26998D01*
X21691Y-26931D01*
X21803Y-26871D01*
X21922Y-26812D01*
X21929D01*
X21937Y-26804D01*
X21981Y-26789D01*
X22048Y-26767D01*
X22137Y-26737D01*
X22242Y-26708D01*
X22361Y-26685D01*
X22487Y-26670D01*
X22621Y-26663D01*
X22792D01*
X22814Y-26670D01*
D02*
G37*
G36*
X28938Y-21167D02*
X28953Y-21181D01*
Y-21196D01*
Y-21211D01*
Y-21226D01*
X27628Y-24426D01*
X27613Y-24441D01*
X27598Y-24485D01*
X27539Y-24530D01*
X27464Y-24545D01*
X26155D01*
X26140Y-24530D01*
X26155Y-24515D01*
X26170Y-24500D01*
X26214Y-24485D01*
X26259Y-24456D01*
X26333Y-24396D01*
X26423Y-24336D01*
X26497Y-24262D01*
X26586Y-24158D01*
X26661Y-24054D01*
X26676Y-24039D01*
X26691Y-23994D01*
X26720Y-23935D01*
X26765Y-23860D01*
X26795Y-23756D01*
X26824Y-23652D01*
X26839Y-23518D01*
X26854Y-23399D01*
Y-23384D01*
Y-23354D01*
Y-23310D01*
X26839Y-23265D01*
X26824Y-23116D01*
X26765Y-22952D01*
Y-22938D01*
X26750Y-22908D01*
X26705Y-22819D01*
X26631Y-22699D01*
X26527Y-22580D01*
X25366Y-21509D01*
X25351Y-21494D01*
X25336Y-21464D01*
X25321Y-21420D01*
X25307Y-21360D01*
Y-21345D01*
X25321Y-21315D01*
X25336Y-21271D01*
X25366Y-21211D01*
X25381Y-21196D01*
X25411Y-21167D01*
X25455Y-21152D01*
X25515Y-21137D01*
X28908D01*
X28938Y-21167D01*
D02*
G37*
G36*
X32018Y-19470D02*
X32033Y-19485D01*
X32048Y-19515D01*
Y-19530D01*
Y-19544D01*
Y-19559D01*
X31810Y-20125D01*
X31795Y-20140D01*
X31780Y-20170D01*
X31750Y-20184D01*
X25381D01*
X25321Y-20199D01*
X25188Y-20229D01*
X25024Y-20289D01*
X25009D01*
X24994Y-20303D01*
X24905Y-20348D01*
X24801Y-20437D01*
X24682Y-20542D01*
X24652Y-20571D01*
X24592Y-20646D01*
X24518Y-20780D01*
X24443Y-20929D01*
Y-20943D01*
X24429Y-20958D01*
X24414Y-21003D01*
Y-21062D01*
X24384Y-21196D01*
X24369Y-21360D01*
Y-21375D01*
Y-21390D01*
X24384Y-21479D01*
X24399Y-21613D01*
X24429Y-21777D01*
Y-21792D01*
X24443Y-21807D01*
X24473Y-21896D01*
X24548Y-22015D01*
X24637Y-22119D01*
X25842Y-23250D01*
X25857Y-23265D01*
X25887Y-23295D01*
X25902Y-23354D01*
X25917Y-23429D01*
Y-23444D01*
X25902Y-23473D01*
X25887Y-23518D01*
X25842Y-23563D01*
X25827Y-23577D01*
X25798Y-23592D01*
X25753Y-23607D01*
X25693Y-23622D01*
X22524D01*
X22494Y-23607D01*
Y-23592D01*
X22479Y-23548D01*
Y-23533D01*
X23848Y-20199D01*
Y-20184D01*
X23863Y-20170D01*
X23908Y-20095D01*
X23967Y-20006D01*
X24042Y-19902D01*
X24056Y-19872D01*
X24116Y-19827D01*
X24205Y-19738D01*
X24309Y-19664D01*
X24339Y-19649D01*
X24414Y-19604D01*
X24518Y-19544D01*
X24637Y-19500D01*
X24652D01*
X24667Y-19485D01*
X24741Y-19470D01*
X24860Y-19455D01*
X24979Y-19440D01*
X31989D01*
X32018Y-19470D01*
D02*
G37*
G36*
X31334Y-21167D02*
X31349Y-21181D01*
Y-21196D01*
Y-21211D01*
Y-21241D01*
X30307Y-23741D01*
Y-23756D01*
X30277Y-23801D01*
X30247Y-23875D01*
X30188Y-23950D01*
X30128Y-24054D01*
X30039Y-24143D01*
X29950Y-24247D01*
X29831Y-24336D01*
X29816Y-24351D01*
X29771Y-24366D01*
X29712Y-24396D01*
X29622Y-24441D01*
X29518Y-24485D01*
X29399Y-24515D01*
X29265Y-24530D01*
X29116Y-24545D01*
X28655D01*
X28640Y-24530D01*
X28610Y-24515D01*
X28595Y-24485D01*
Y-24470D01*
X28610Y-24456D01*
X29920Y-21256D01*
Y-21241D01*
X29935Y-21226D01*
X29979Y-21181D01*
X29994Y-21167D01*
X30009Y-21152D01*
X30039Y-21137D01*
X31304D01*
X31334Y-21167D01*
D02*
G37*
G36*
X31111Y-27555D02*
X31193Y-27570D01*
X31200D01*
X31215Y-27577D01*
X31237D01*
X31275Y-27585D01*
X31356Y-27607D01*
X31446Y-27644D01*
X31453D01*
X31468Y-27652D01*
X31490Y-27667D01*
X31527Y-27682D01*
X31602Y-27719D01*
X31676Y-27771D01*
X31684D01*
X31691Y-27786D01*
X31728Y-27823D01*
X31758Y-27875D01*
X31766Y-27912D01*
X31773Y-27949D01*
Y-27957D01*
Y-27964D01*
X31758Y-27972D01*
X31743Y-27994D01*
X31713Y-28016D01*
X31706Y-28024D01*
X31684Y-28039D01*
X31654Y-28061D01*
X31624Y-28083D01*
X31617Y-28091D01*
X31602Y-28098D01*
X31550Y-28143D01*
X31542D01*
X31527Y-28150D01*
X31513Y-28158D01*
X31505Y-28165D01*
X31483D01*
X31475Y-28158D01*
X31468Y-28143D01*
X31423Y-28098D01*
X31349Y-28039D01*
X31267Y-27979D01*
X31260D01*
X31245Y-27972D01*
X31222Y-27957D01*
X31185Y-27942D01*
X31103Y-27920D01*
X30992Y-27912D01*
X30947D01*
X30917Y-27920D01*
X30836Y-27935D01*
X30754Y-27964D01*
X30746D01*
X30739Y-27972D01*
X30694Y-27994D01*
X30635Y-28039D01*
X30568Y-28091D01*
X30553Y-28106D01*
X30523Y-28143D01*
X30479Y-28210D01*
X30441Y-28284D01*
Y-28292D01*
X30434Y-28307D01*
X30426Y-28329D01*
X30419Y-28359D01*
X30404Y-28433D01*
X30397Y-28522D01*
Y-28530D01*
Y-28545D01*
Y-28567D01*
X30404Y-28597D01*
X30419Y-28671D01*
X30441Y-28753D01*
Y-28760D01*
X30449Y-28768D01*
X30471Y-28820D01*
X30516Y-28879D01*
X30568Y-28946D01*
X30575D01*
X30583Y-28961D01*
X30620Y-28991D01*
X30687Y-29036D01*
X30761Y-29080D01*
X30769D01*
X30784Y-29088D01*
X30806Y-29095D01*
X30836Y-29103D01*
X30903Y-29117D01*
X30992Y-29125D01*
X31014D01*
X31044Y-29117D01*
X31081D01*
X31170Y-29095D01*
X31267Y-29058D01*
X31275D01*
X31289Y-29043D01*
X31312Y-29028D01*
X31341Y-29013D01*
X31408Y-28954D01*
X31483Y-28879D01*
X31513D01*
X31527Y-28887D01*
X31535Y-28894D01*
X31542Y-28902D01*
X31557Y-28909D01*
X31587Y-28931D01*
X31594D01*
X31609Y-28946D01*
X31661Y-28984D01*
X31669D01*
X31684Y-28998D01*
X31728Y-29036D01*
X31736D01*
X31743Y-29051D01*
X31773Y-29065D01*
Y-29073D01*
Y-29080D01*
Y-29088D01*
Y-29095D01*
X31766Y-29125D01*
X31758Y-29170D01*
X31728Y-29214D01*
X31721Y-29222D01*
X31699Y-29244D01*
X31661Y-29274D01*
X31609Y-29311D01*
X31594Y-29318D01*
X31565Y-29341D01*
X31513Y-29363D01*
X31453Y-29393D01*
X31446D01*
X31438Y-29400D01*
X31401Y-29415D01*
X31341Y-29430D01*
X31275Y-29452D01*
X31260D01*
X31222Y-29467D01*
X31170Y-29475D01*
X31111Y-29489D01*
X31066D01*
X31029Y-29497D01*
X30955D01*
X30917Y-29489D01*
X30873D01*
X30813Y-29482D01*
X30746Y-29467D01*
X30612Y-29423D01*
X30605Y-29415D01*
X30583Y-29408D01*
X30545Y-29393D01*
X30508Y-29363D01*
X30404Y-29303D01*
X30300Y-29214D01*
X30293Y-29207D01*
X30278Y-29192D01*
X30255Y-29162D01*
X30226Y-29125D01*
X30196Y-29080D01*
X30159Y-29028D01*
X30099Y-28902D01*
Y-28894D01*
X30084Y-28872D01*
X30077Y-28835D01*
X30062Y-28790D01*
X30047Y-28731D01*
X30040Y-28664D01*
X30025Y-28522D01*
Y-28515D01*
Y-28485D01*
X30032Y-28448D01*
Y-28396D01*
X30040Y-28336D01*
X30054Y-28269D01*
X30099Y-28135D01*
Y-28128D01*
X30114Y-28106D01*
X30129Y-28069D01*
X30151Y-28031D01*
X30218Y-27935D01*
X30300Y-27830D01*
X30307Y-27823D01*
X30322Y-27808D01*
X30352Y-27786D01*
X30389Y-27756D01*
X30434Y-27719D01*
X30486Y-27689D01*
X30605Y-27622D01*
X30612Y-27615D01*
X30635Y-27607D01*
X30672Y-27592D01*
X30724Y-27577D01*
X30776Y-27563D01*
X30843Y-27555D01*
X30917Y-27540D01*
X31044D01*
X31111Y-27555D01*
D02*
G37*
G36*
X29485Y-34843D02*
Y-34858D01*
Y-34865D01*
X29478Y-34873D01*
X29463Y-34880D01*
X29456D01*
X29448Y-34873D01*
Y-34858D01*
Y-34851D01*
Y-34843D01*
X29456Y-34836D01*
X29463Y-34828D01*
X29478D01*
X29485Y-34843D01*
D02*
G37*
G36*
X28764Y-34813D02*
Y-34828D01*
Y-34836D01*
X28756Y-34843D01*
X28749Y-34851D01*
X28741D01*
X28734Y-34843D01*
X28726Y-34828D01*
Y-34821D01*
Y-34813D01*
X28734Y-34806D01*
X28749Y-34799D01*
X28756D01*
X28764Y-34813D01*
D02*
G37*
G36*
X30906Y-33206D02*
X31888Y-34910D01*
X30289Y-33980D01*
X30259Y-33958D01*
X30267D01*
X30281Y-33943D01*
X30304Y-33928D01*
X30333Y-33913D01*
X30400Y-33861D01*
X30460Y-33794D01*
X30467Y-33787D01*
X30475Y-33779D01*
X30512Y-33735D01*
X30557Y-33668D01*
X30601Y-33593D01*
Y-33586D01*
X30609Y-33571D01*
X30624Y-33549D01*
X30638Y-33526D01*
X30676Y-33452D01*
X30720Y-33370D01*
Y-33363D01*
X30728Y-33348D01*
X30765Y-33303D01*
X30810Y-33244D01*
X30877Y-33184D01*
X30906Y-33206D01*
D02*
G37*
G36*
X31118Y-26834D02*
X31208Y-26848D01*
X31215D01*
X31230Y-26856D01*
X31260D01*
X31297Y-26863D01*
X31386Y-26886D01*
X31490Y-26915D01*
X31498D01*
X31520Y-26923D01*
X31550Y-26930D01*
X31587Y-26938D01*
X31691Y-26975D01*
X31803Y-27012D01*
X31810D01*
X31833Y-27020D01*
X31862Y-27034D01*
X31899Y-27049D01*
X31989Y-27094D01*
X32078Y-27146D01*
X32085D01*
X32100Y-27161D01*
X32123Y-27176D01*
X32152Y-27198D01*
X32219Y-27250D01*
X32286Y-27317D01*
X32294Y-27325D01*
X32301Y-27332D01*
X32331Y-27377D01*
X32353Y-27444D01*
X32368Y-27481D01*
Y-27525D01*
Y-27533D01*
X32361Y-27540D01*
X32353D01*
X32346Y-27548D01*
X32338D01*
X32324Y-27563D01*
X32301Y-27577D01*
X32271Y-27600D01*
X32264Y-27607D01*
X32249Y-27615D01*
X32197Y-27659D01*
X32190Y-27667D01*
X32175Y-27674D01*
X32130Y-27711D01*
X32123D01*
X32115Y-27719D01*
X32108Y-27726D01*
X32100Y-27734D01*
X32078D01*
X32071Y-27726D01*
X32056Y-27711D01*
X32033Y-27689D01*
X32011Y-27659D01*
X31937Y-27592D01*
X31847Y-27518D01*
X31840Y-27511D01*
X31825Y-27503D01*
X31803Y-27481D01*
X31773Y-27458D01*
X31691Y-27399D01*
X31594Y-27347D01*
X31587D01*
X31572Y-27332D01*
X31542Y-27325D01*
X31513Y-27302D01*
X31416Y-27265D01*
X31312Y-27235D01*
X31304D01*
X31289Y-27228D01*
X31252Y-27220D01*
X31215Y-27213D01*
X31170Y-27205D01*
X31111Y-27198D01*
X30992Y-27191D01*
X30947D01*
X30895Y-27198D01*
X30821Y-27205D01*
X30746Y-27220D01*
X30657Y-27235D01*
X30568Y-27265D01*
X30471Y-27302D01*
X30464Y-27310D01*
X30434Y-27325D01*
X30389Y-27347D01*
X30330Y-27377D01*
X30263Y-27414D01*
X30196Y-27466D01*
X30121Y-27518D01*
X30054Y-27585D01*
X30047Y-27592D01*
X30025Y-27615D01*
X29995Y-27652D01*
X29950Y-27704D01*
X29906Y-27763D01*
X29861Y-27838D01*
X29816Y-27920D01*
X29772Y-28009D01*
X29764Y-28016D01*
X29757Y-28054D01*
X29742Y-28098D01*
X29727Y-28165D01*
X29705Y-28240D01*
X29690Y-28329D01*
X29682Y-28418D01*
X29675Y-28522D01*
Y-28537D01*
Y-28567D01*
X29682Y-28619D01*
X29690Y-28686D01*
X29697Y-28768D01*
X29720Y-28850D01*
X29742Y-28946D01*
X29772Y-29036D01*
X29779Y-29043D01*
X29794Y-29073D01*
X29816Y-29117D01*
X29846Y-29177D01*
X29883Y-29244D01*
X29935Y-29318D01*
X29995Y-29385D01*
X30054Y-29460D01*
X30062Y-29467D01*
X30084Y-29489D01*
X30121Y-29519D01*
X30173Y-29564D01*
X30233Y-29609D01*
X30307Y-29653D01*
X30382Y-29698D01*
X30471Y-29742D01*
X30486Y-29750D01*
X30516Y-29757D01*
X30560Y-29772D01*
X30627Y-29795D01*
X30709Y-29817D01*
X30791Y-29832D01*
X30888Y-29839D01*
X30992Y-29847D01*
X31044D01*
X31111Y-29839D01*
X31193Y-29832D01*
X31282Y-29809D01*
X31379Y-29787D01*
X31483Y-29750D01*
X31587Y-29705D01*
X31602Y-29698D01*
X31632Y-29675D01*
X31684Y-29646D01*
X31751Y-29601D01*
X31825Y-29542D01*
X31907Y-29475D01*
X31996Y-29400D01*
X32078Y-29311D01*
X32108D01*
X32115Y-29318D01*
X32138Y-29333D01*
X32167Y-29348D01*
X32175D01*
X32197Y-29363D01*
X32257Y-29400D01*
X32264Y-29408D01*
X32286Y-29415D01*
X32331Y-29460D01*
X32338Y-29467D01*
X32353Y-29475D01*
X32361Y-29497D01*
X32368Y-29519D01*
Y-29527D01*
Y-29542D01*
X32361Y-29556D01*
Y-29586D01*
X32331Y-29653D01*
X32316Y-29690D01*
X32286Y-29728D01*
Y-29735D01*
X32271Y-29742D01*
X32227Y-29787D01*
X32167Y-29847D01*
X32078Y-29906D01*
X32071D01*
X32056Y-29921D01*
X32033Y-29936D01*
X31996Y-29951D01*
X31907Y-29995D01*
X31795Y-30040D01*
X31788D01*
X31766Y-30047D01*
X31736Y-30062D01*
X31699Y-30077D01*
X31594Y-30107D01*
X31483Y-30144D01*
X31475D01*
X31453Y-30152D01*
X31423Y-30159D01*
X31386Y-30166D01*
X31297Y-30181D01*
X31193Y-30204D01*
X31170D01*
X31148Y-30211D01*
X31118D01*
X31051Y-30219D01*
X30947D01*
X30895Y-30211D01*
X30828D01*
X30754Y-30204D01*
X30664Y-30189D01*
X30486Y-30144D01*
X30479D01*
X30449Y-30129D01*
X30397Y-30114D01*
X30345Y-30092D01*
X30270Y-30055D01*
X30196Y-30025D01*
X30040Y-29928D01*
X30032Y-29921D01*
X30002Y-29906D01*
X29965Y-29876D01*
X29913Y-29832D01*
X29861Y-29787D01*
X29794Y-29728D01*
X29668Y-29594D01*
X29660Y-29586D01*
X29645Y-29556D01*
X29615Y-29519D01*
X29578Y-29460D01*
X29534Y-29393D01*
X29489Y-29318D01*
X29452Y-29237D01*
X29407Y-29147D01*
Y-29132D01*
X29400Y-29110D01*
X29385Y-29073D01*
Y-29058D01*
X29377Y-29028D01*
X29363Y-28984D01*
X29348Y-28931D01*
Y-28924D01*
Y-28917D01*
X29333Y-28879D01*
X29318Y-28835D01*
X29303Y-28783D01*
Y-28775D01*
X29296Y-28746D01*
X29288Y-28723D01*
Y-28716D01*
X28663D01*
Y-29914D01*
Y-29921D01*
X28656Y-29928D01*
X28648Y-29951D01*
X28619Y-29973D01*
X28611Y-29980D01*
X28589Y-29995D01*
X28559Y-30018D01*
X28514Y-30047D01*
X28507Y-30055D01*
X28485Y-30070D01*
X28447Y-30092D01*
X28403Y-30114D01*
X28395Y-30122D01*
X28373Y-30129D01*
X28343Y-30144D01*
X28321Y-30159D01*
Y-26871D01*
X29735D01*
X29727Y-26878D01*
X29720Y-26886D01*
X29712Y-26908D01*
X29705Y-26915D01*
X29697Y-26923D01*
X29690Y-26930D01*
X29682Y-26938D01*
X29675Y-26953D01*
X29653Y-26982D01*
X29623Y-27020D01*
X29615Y-27027D01*
X29601Y-27049D01*
X29571Y-27079D01*
X29541Y-27116D01*
X29534Y-27124D01*
X29519Y-27146D01*
X29474Y-27198D01*
X29467Y-27205D01*
X29459Y-27213D01*
X29452Y-27220D01*
X29444Y-27228D01*
X28671D01*
Y-28329D01*
X29288D01*
Y-28321D01*
X29296Y-28307D01*
X29303Y-28299D01*
Y-28292D01*
X29310Y-28284D01*
Y-28269D01*
Y-28254D01*
X29325Y-28217D01*
X29340Y-28158D01*
X29363Y-28083D01*
X29400Y-27994D01*
X29430Y-27897D01*
X29526Y-27697D01*
X29534Y-27682D01*
X29556Y-27652D01*
X29586Y-27607D01*
X29630Y-27540D01*
X29682Y-27473D01*
X29742Y-27391D01*
X29809Y-27317D01*
X29883Y-27243D01*
X29891Y-27235D01*
X29921Y-27213D01*
X29965Y-27176D01*
X30025Y-27131D01*
X30099Y-27086D01*
X30181Y-27034D01*
X30278Y-26982D01*
X30374Y-26938D01*
X30389Y-26930D01*
X30426Y-26923D01*
X30479Y-26900D01*
X30560Y-26878D01*
X30650Y-26863D01*
X30754Y-26841D01*
X30873Y-26834D01*
X30992Y-26826D01*
X31051D01*
X31118Y-26834D01*
D02*
G37*
G36*
X29433Y-34918D02*
Y-34932D01*
Y-34940D01*
X29426Y-34947D01*
X29411Y-34955D01*
X29404D01*
X29396Y-34947D01*
Y-34932D01*
Y-34925D01*
Y-34918D01*
X29404Y-34910D01*
X29426D01*
X29433Y-34918D01*
D02*
G37*
G36*
X16425Y-4759D02*
Y-4855D01*
X15803D01*
Y-4986D01*
X15695D01*
Y-4855D01*
X15465D01*
Y-4737D01*
X15695D01*
Y-4320D01*
X15803D01*
X16425Y-4759D01*
D02*
G37*
G36*
X48670Y-4219D02*
X47918D01*
X47919Y-4221D01*
X47925Y-4227D01*
X47933Y-4237D01*
X47943Y-4250D01*
X47956Y-4266D01*
X47969Y-4285D01*
X47985Y-4307D01*
X48000Y-4332D01*
Y-4334D01*
X48001Y-4335D01*
X48007Y-4344D01*
X48015Y-4357D01*
X48023Y-4373D01*
X48034Y-4392D01*
X48042Y-4413D01*
X48053Y-4435D01*
X48061Y-4455D01*
X47946D01*
Y-4454D01*
X47944Y-4451D01*
X47941Y-4445D01*
X47937Y-4439D01*
X47933Y-4430D01*
X47928Y-4420D01*
X47915Y-4396D01*
X47899Y-4370D01*
X47880Y-4341D01*
X47858Y-4312D01*
X47835Y-4284D01*
X47833Y-4282D01*
X47832Y-4281D01*
X47823Y-4272D01*
X47810Y-4259D01*
X47794Y-4243D01*
X47773Y-4225D01*
X47751Y-4208D01*
X47728Y-4192D01*
X47704Y-4178D01*
Y-4101D01*
X48670D01*
Y-4219D01*
D02*
G37*
G36*
X18282Y-2259D02*
X18293Y-2261D01*
X18306Y-2264D01*
X18321Y-2267D01*
X18337Y-2270D01*
X18372Y-2281D01*
X18391Y-2290D01*
X18409Y-2299D01*
X18428Y-2311D01*
X18445Y-2324D01*
X18462Y-2338D01*
X18478Y-2356D01*
X18479Y-2357D01*
X18482Y-2362D01*
X18486Y-2369D01*
X18492Y-2379D01*
X18500Y-2393D01*
X18507Y-2409D01*
X18516Y-2428D01*
X18524Y-2451D01*
X18533Y-2476D01*
X18542Y-2505D01*
X18549Y-2537D01*
X18557Y-2572D01*
X18563Y-2612D01*
X18567Y-2653D01*
X18570Y-2700D01*
X18571Y-2748D01*
Y-2749D01*
Y-2755D01*
Y-2764D01*
Y-2776D01*
X18570Y-2790D01*
Y-2807D01*
X18568Y-2826D01*
X18567Y-2846D01*
X18563Y-2890D01*
X18557Y-2935D01*
X18549Y-2981D01*
X18543Y-3001D01*
X18538Y-3022D01*
Y-3023D01*
X18536Y-3026D01*
X18533Y-3032D01*
X18530Y-3039D01*
X18527Y-3048D01*
X18523Y-3058D01*
X18511Y-3082D01*
X18497Y-3108D01*
X18479Y-3134D01*
X18459Y-3159D01*
X18434Y-3183D01*
X18432D01*
X18431Y-3185D01*
X18426Y-3188D01*
X18421Y-3191D01*
X18406Y-3200D01*
X18385Y-3212D01*
X18361Y-3222D01*
X18330Y-3231D01*
X18296Y-3237D01*
X18258Y-3240D01*
X18245D01*
X18230Y-3238D01*
X18213Y-3235D01*
X18192Y-3232D01*
X18169Y-3226D01*
X18146Y-3218D01*
X18124Y-3207D01*
X18121Y-3206D01*
X18113Y-3202D01*
X18103Y-3194D01*
X18088Y-3185D01*
X18074Y-3172D01*
X18058Y-3156D01*
X18042Y-3139D01*
X18027Y-3118D01*
X18026Y-3115D01*
X18021Y-3108D01*
X18014Y-3095D01*
X18005Y-3079D01*
X17996Y-3058D01*
X17986Y-3033D01*
X17976Y-3006D01*
X17967Y-2975D01*
Y-2973D01*
X17966Y-2970D01*
Y-2966D01*
X17964Y-2959D01*
X17961Y-2951D01*
X17960Y-2941D01*
X17958Y-2928D01*
X17955Y-2915D01*
X17954Y-2899D01*
X17952Y-2883D01*
X17949Y-2864D01*
X17948Y-2843D01*
X17947Y-2821D01*
Y-2799D01*
X17945Y-2748D01*
Y-2747D01*
Y-2741D01*
Y-2732D01*
Y-2720D01*
X17947Y-2706D01*
Y-2690D01*
X17948Y-2670D01*
X17949Y-2650D01*
X17954Y-2606D01*
X17960Y-2561D01*
X17969Y-2515D01*
X17974Y-2495D01*
X17980Y-2474D01*
Y-2473D01*
X17982Y-2470D01*
X17983Y-2464D01*
X17986Y-2457D01*
X17990Y-2448D01*
X17995Y-2439D01*
X18007Y-2416D01*
X18021Y-2390D01*
X18039Y-2363D01*
X18059Y-2337D01*
X18084Y-2313D01*
X18086D01*
X18087Y-2311D01*
X18091Y-2309D01*
X18096Y-2305D01*
X18112Y-2296D01*
X18131Y-2286D01*
X18157Y-2275D01*
X18187Y-2267D01*
X18220Y-2261D01*
X18258Y-2258D01*
X18271D01*
X18282Y-2259D01*
D02*
G37*
G36*
X41775Y-43644D02*
X41023D01*
X41024Y-43646D01*
X41030Y-43652D01*
X41038Y-43662D01*
X41048Y-43675D01*
X41061Y-43691D01*
X41074Y-43710D01*
X41090Y-43732D01*
X41105Y-43757D01*
Y-43759D01*
X41106Y-43760D01*
X41112Y-43769D01*
X41120Y-43782D01*
X41128Y-43798D01*
X41139Y-43817D01*
X41147Y-43838D01*
X41158Y-43860D01*
X41166Y-43880D01*
X41051D01*
Y-43879D01*
X41049Y-43876D01*
X41046Y-43870D01*
X41042Y-43864D01*
X41038Y-43855D01*
X41033Y-43845D01*
X41020Y-43821D01*
X41004Y-43795D01*
X40985Y-43766D01*
X40963Y-43737D01*
X40940Y-43709D01*
X40938Y-43707D01*
X40937Y-43706D01*
X40928Y-43697D01*
X40915Y-43684D01*
X40899Y-43668D01*
X40878Y-43650D01*
X40856Y-43633D01*
X40833Y-43617D01*
X40809Y-43603D01*
Y-43526D01*
X41775D01*
Y-43644D01*
D02*
G37*
G36*
X16189Y-12246D02*
X16191Y-12249D01*
X16194Y-12255D01*
X16198Y-12261D01*
X16202Y-12270D01*
X16207Y-12280D01*
X16220Y-12304D01*
X16236Y-12330D01*
X16255Y-12359D01*
X16277Y-12388D01*
X16300Y-12416D01*
X16302Y-12418D01*
X16303Y-12419D01*
X16312Y-12428D01*
X16325Y-12441D01*
X16341Y-12457D01*
X16362Y-12475D01*
X16384Y-12492D01*
X16407Y-12508D01*
X16431Y-12522D01*
Y-12599D01*
X15465D01*
Y-12481D01*
X16217D01*
X16216Y-12479D01*
X16210Y-12473D01*
X16202Y-12463D01*
X16192Y-12450D01*
X16179Y-12434D01*
X16166Y-12415D01*
X16150Y-12393D01*
X16135Y-12368D01*
Y-12366D01*
X16134Y-12365D01*
X16128Y-12356D01*
X16120Y-12343D01*
X16112Y-12327D01*
X16101Y-12308D01*
X16093Y-12287D01*
X16082Y-12265D01*
X16074Y-12245D01*
X16189D01*
Y-12246D01*
D02*
G37*
G36*
X48440Y-11845D02*
X48670D01*
Y-11963D01*
X48440D01*
Y-12380D01*
X48332D01*
X47710Y-11941D01*
Y-11845D01*
X48332D01*
Y-11714D01*
X48440D01*
Y-11845D01*
D02*
G37*
G36*
X16350Y-43684D02*
X15598D01*
X15599Y-43686D01*
X15605Y-43692D01*
X15613Y-43702D01*
X15623Y-43715D01*
X15636Y-43731D01*
X15649Y-43750D01*
X15665Y-43772D01*
X15680Y-43797D01*
Y-43799D01*
X15681Y-43800D01*
X15687Y-43809D01*
X15695Y-43822D01*
X15703Y-43838D01*
X15714Y-43857D01*
X15722Y-43878D01*
X15733Y-43900D01*
X15741Y-43920D01*
X15626D01*
Y-43919D01*
X15624Y-43916D01*
X15621Y-43910D01*
X15617Y-43904D01*
X15613Y-43895D01*
X15608Y-43885D01*
X15595Y-43861D01*
X15579Y-43835D01*
X15560Y-43806D01*
X15538Y-43777D01*
X15515Y-43749D01*
X15513Y-43747D01*
X15512Y-43746D01*
X15503Y-43737D01*
X15490Y-43724D01*
X15474Y-43708D01*
X15453Y-43690D01*
X15431Y-43673D01*
X15408Y-43657D01*
X15384Y-43643D01*
Y-43566D01*
X16350D01*
Y-43684D01*
D02*
G37*
G36*
X19334Y-2275D02*
Y-2281D01*
Y-2290D01*
X19332Y-2300D01*
X19331Y-2312D01*
X19329Y-2325D01*
X19325Y-2340D01*
X19320Y-2354D01*
Y-2356D01*
X19319Y-2357D01*
X19316Y-2366D01*
X19310Y-2378D01*
X19301Y-2395D01*
X19291Y-2414D01*
X19276Y-2436D01*
X19262Y-2458D01*
X19243Y-2482D01*
Y-2483D01*
X19240Y-2485D01*
X19233Y-2493D01*
X19221Y-2507D01*
X19203Y-2524D01*
X19181Y-2545D01*
X19155Y-2570D01*
X19123Y-2597D01*
X19088Y-2628D01*
X19086Y-2630D01*
X19080Y-2634D01*
X19073Y-2640D01*
X19063Y-2650D01*
X19050Y-2660D01*
X19035Y-2673D01*
X19003Y-2701D01*
X18968Y-2735D01*
X18933Y-2769D01*
X18915Y-2785D01*
X18900Y-2801D01*
X18887Y-2817D01*
X18876Y-2831D01*
Y-2833D01*
X18873Y-2834D01*
X18870Y-2839D01*
X18867Y-2845D01*
X18858Y-2859D01*
X18848Y-2878D01*
X18838Y-2900D01*
X18829Y-2924D01*
X18823Y-2950D01*
X18820Y-2975D01*
Y-2976D01*
Y-2978D01*
X18821Y-2987D01*
X18823Y-3000D01*
X18826Y-3016D01*
X18833Y-3035D01*
X18842Y-3054D01*
X18854Y-3074D01*
X18871Y-3093D01*
X18874Y-3095D01*
X18880Y-3101D01*
X18892Y-3108D01*
X18906Y-3118D01*
X18925Y-3127D01*
X18947Y-3134D01*
X18974Y-3140D01*
X19003Y-3142D01*
X19012D01*
X19018Y-3140D01*
X19032Y-3139D01*
X19051Y-3136D01*
X19073Y-3128D01*
X19097Y-3120D01*
X19118Y-3106D01*
X19139Y-3089D01*
X19140Y-3086D01*
X19146Y-3080D01*
X19155Y-3068D01*
X19164Y-3052D01*
X19174Y-3032D01*
X19181Y-3008D01*
X19187Y-2981D01*
X19190Y-2948D01*
X19312Y-2962D01*
Y-2963D01*
Y-2967D01*
X19310Y-2975D01*
X19309Y-2984D01*
X19306Y-2995D01*
X19304Y-3008D01*
X19295Y-3038D01*
X19284Y-3071D01*
X19268Y-3105D01*
X19246Y-3139D01*
X19234Y-3153D01*
X19219Y-3168D01*
X19218Y-3169D01*
X19215Y-3171D01*
X19211Y-3175D01*
X19205Y-3180D01*
X19196Y-3184D01*
X19186Y-3191D01*
X19174Y-3197D01*
X19161Y-3204D01*
X19146Y-3210D01*
X19130Y-3218D01*
X19111Y-3224D01*
X19092Y-3228D01*
X19048Y-3237D01*
X19025Y-3238D01*
X19000Y-3240D01*
X18987D01*
X18977Y-3238D01*
X18965Y-3237D01*
X18952Y-3235D01*
X18937Y-3234D01*
X18921Y-3229D01*
X18886Y-3221D01*
X18849Y-3207D01*
X18830Y-3199D01*
X18813Y-3188D01*
X18797Y-3175D01*
X18781Y-3162D01*
X18779Y-3161D01*
X18778Y-3159D01*
X18773Y-3155D01*
X18767Y-3149D01*
X18761Y-3140D01*
X18754Y-3131D01*
X18740Y-3109D01*
X18725Y-3082D01*
X18712Y-3049D01*
X18701Y-3013D01*
X18700Y-2992D01*
X18699Y-2972D01*
Y-2969D01*
Y-2962D01*
X18700Y-2950D01*
X18701Y-2935D01*
X18704Y-2918D01*
X18709Y-2899D01*
X18715Y-2878D01*
X18723Y-2858D01*
X18725Y-2855D01*
X18728Y-2848D01*
X18734Y-2837D01*
X18742Y-2823D01*
X18753Y-2805D01*
X18766Y-2785D01*
X18783Y-2764D01*
X18802Y-2741D01*
X18805Y-2738D01*
X18813Y-2729D01*
X18826Y-2716D01*
X18835Y-2707D01*
X18845Y-2697D01*
X18857Y-2685D01*
X18871Y-2672D01*
X18886Y-2659D01*
X18902Y-2643D01*
X18919Y-2627D01*
X18940Y-2609D01*
X18960Y-2591D01*
X18984Y-2571D01*
X18985Y-2570D01*
X18988Y-2567D01*
X18994Y-2562D01*
X19001Y-2556D01*
X19019Y-2542D01*
X19041Y-2523D01*
X19063Y-2502D01*
X19086Y-2482D01*
X19105Y-2464D01*
X19113Y-2457D01*
X19120Y-2450D01*
X19121Y-2448D01*
X19124Y-2444D01*
X19130Y-2438D01*
X19137Y-2429D01*
X19154Y-2410D01*
X19170Y-2387D01*
X18697D01*
Y-2274D01*
X19334D01*
Y-2275D01*
D02*
G37*
G36*
X39210Y-43684D02*
X38458D01*
X38459Y-43686D01*
X38465Y-43692D01*
X38473Y-43702D01*
X38483Y-43715D01*
X38496Y-43731D01*
X38509Y-43750D01*
X38525Y-43772D01*
X38540Y-43797D01*
Y-43799D01*
X38541Y-43800D01*
X38547Y-43809D01*
X38555Y-43822D01*
X38563Y-43838D01*
X38574Y-43857D01*
X38582Y-43878D01*
X38593Y-43900D01*
X38601Y-43920D01*
X38486D01*
Y-43919D01*
X38484Y-43916D01*
X38481Y-43910D01*
X38477Y-43904D01*
X38473Y-43895D01*
X38468Y-43885D01*
X38455Y-43861D01*
X38439Y-43835D01*
X38420Y-43806D01*
X38398Y-43777D01*
X38375Y-43749D01*
X38373Y-43747D01*
X38372Y-43746D01*
X38363Y-43737D01*
X38350Y-43724D01*
X38334Y-43708D01*
X38313Y-43690D01*
X38291Y-43673D01*
X38268Y-43657D01*
X38244Y-43643D01*
Y-43566D01*
X39210D01*
Y-43684D01*
D02*
G37*
%LPC*%
G36*
X23908Y-39268D02*
X23878D01*
X23856Y-39275D01*
X23826Y-39290D01*
X23811Y-39320D01*
Y-39327D01*
Y-39350D01*
X23804Y-39379D01*
Y-39409D01*
Y-40510D01*
Y-40518D01*
Y-40540D01*
Y-40570D01*
X23811Y-40600D01*
Y-40607D01*
X23826Y-40614D01*
X23848Y-40629D01*
X23878Y-40637D01*
X23893D01*
X23923Y-40622D01*
X23930D01*
X23938Y-40614D01*
X23953Y-40585D01*
Y-40577D01*
X23960Y-40570D01*
Y-40533D01*
Y-40525D01*
X23968Y-40518D01*
Y-40481D01*
Y-39432D01*
Y-39424D01*
Y-39417D01*
Y-39379D01*
Y-39372D01*
Y-39365D01*
X23953Y-39327D01*
Y-39320D01*
X23945Y-39313D01*
X23930Y-39290D01*
Y-39283D01*
X23923Y-39275D01*
X23908Y-39268D01*
D02*
G37*
G36*
X24897Y-32762D02*
X21178D01*
X21140Y-32770D01*
X21103Y-32784D01*
X21096Y-32792D01*
X21074Y-32799D01*
X21044Y-32822D01*
X21007Y-32844D01*
X20999Y-32851D01*
X20984Y-32866D01*
X20969Y-32896D01*
X20947Y-32933D01*
Y-32941D01*
X20940Y-32963D01*
X20932Y-32993D01*
X20925Y-33030D01*
Y-34473D01*
Y-34481D01*
Y-34503D01*
X20932Y-34533D01*
X20940Y-34570D01*
X20947Y-34577D01*
X20954Y-34600D01*
X20999Y-34659D01*
X21007Y-34667D01*
X21021Y-34682D01*
X21051Y-34704D01*
X21081Y-34726D01*
X21088D01*
X21111Y-34734D01*
X21140Y-34741D01*
X21178Y-34749D01*
X24935D01*
X24964Y-34741D01*
X25002Y-34726D01*
X25009Y-34719D01*
X25031Y-34704D01*
X25091Y-34659D01*
X25098Y-34652D01*
X25113Y-34630D01*
X25136Y-34600D01*
X25150Y-34563D01*
X25158Y-34555D01*
X25165Y-34525D01*
X25173Y-34488D01*
Y-34444D01*
Y-33945D01*
X25165D01*
Y-33953D01*
X25150Y-33960D01*
X25136Y-33990D01*
X25128Y-33997D01*
X25121Y-34012D01*
X25098Y-34042D01*
X25076Y-34079D01*
X25069Y-34086D01*
X25054Y-34109D01*
X25039Y-34146D01*
X25009Y-34191D01*
X25002Y-34198D01*
X24994Y-34220D01*
X24957Y-34280D01*
X24950Y-34287D01*
X24927Y-34317D01*
X24905Y-34354D01*
X24875Y-34391D01*
X24868Y-34399D01*
X24853Y-34414D01*
X24816Y-34429D01*
X24764Y-34436D01*
X24756D01*
X24726Y-34429D01*
X24689Y-34414D01*
X24652Y-34391D01*
X24645Y-34384D01*
X24630Y-34362D01*
X24600Y-34332D01*
X24578Y-34287D01*
Y-34280D01*
X24563Y-34250D01*
X24555Y-34205D01*
X24540Y-34161D01*
Y-34146D01*
Y-34116D01*
X24533Y-34079D01*
Y-34034D01*
Y-34027D01*
X24540Y-34005D01*
X24555Y-33975D01*
X24585Y-33945D01*
X24592Y-33938D01*
X24622Y-33923D01*
X24659Y-33908D01*
X24697Y-33900D01*
X24704D01*
X24719Y-33908D01*
X24734Y-33915D01*
X24749Y-33938D01*
Y-33945D01*
X24756Y-33960D01*
X24771Y-34005D01*
Y-34012D01*
X24778Y-34019D01*
X24793Y-34064D01*
Y-34072D01*
X24801Y-34079D01*
X24816Y-34086D01*
X24831Y-34094D01*
X24838D01*
X24853Y-34079D01*
Y-34072D01*
X24860Y-34064D01*
X24875Y-34049D01*
X25173Y-33603D01*
Y-33075D01*
Y-33067D01*
Y-33045D01*
X25165Y-33008D01*
X25150Y-32970D01*
X25143Y-32963D01*
X25136Y-32933D01*
X25113Y-32904D01*
X25091Y-32866D01*
X25083Y-32859D01*
X25069Y-32837D01*
X25039Y-32814D01*
X25002Y-32792D01*
X24994Y-32784D01*
X24972Y-32777D01*
X24942Y-32770D01*
X24897Y-32762D01*
D02*
G37*
%LPD*%
G36*
X24072Y-34161D02*
X24094Y-34176D01*
X24101Y-34183D01*
X24116Y-34191D01*
X24131Y-34213D01*
X24139Y-34235D01*
Y-34488D01*
Y-34496D01*
X24124Y-34510D01*
X24087D01*
X24064Y-34503D01*
Y-34496D01*
X24057Y-34473D01*
Y-34265D01*
Y-34258D01*
Y-34250D01*
X24049Y-34243D01*
X24034Y-34235D01*
X24020Y-34228D01*
X23997Y-34220D01*
X23990D01*
X23975Y-34228D01*
X23960Y-34235D01*
X23938Y-34258D01*
Y-34265D01*
X23930Y-34280D01*
X23923Y-34310D01*
X23915Y-34339D01*
Y-34347D01*
Y-34369D01*
Y-34399D01*
Y-34429D01*
Y-34436D01*
X23923Y-34451D01*
Y-34466D01*
Y-34481D01*
Y-34488D01*
X23915Y-34496D01*
X23901Y-34503D01*
X23878Y-34510D01*
X23871D01*
X23848Y-34503D01*
Y-34496D01*
X23841Y-34473D01*
Y-34183D01*
Y-34176D01*
X23856Y-34161D01*
X23863Y-34153D01*
X23893D01*
X23901Y-34161D01*
X23908Y-34176D01*
X23915Y-34183D01*
Y-34191D01*
X23923Y-34198D01*
X23938D01*
X23953Y-34191D01*
X23968Y-34176D01*
X23975Y-34168D01*
X23990Y-34161D01*
X24005Y-34153D01*
X24049D01*
X24072Y-34161D01*
D02*
G37*
G36*
X23343Y-34034D02*
X23357Y-34042D01*
X23365Y-34072D01*
Y-34079D01*
X23357Y-34086D01*
X23350Y-34101D01*
X23320Y-34109D01*
X23313D01*
X23305Y-34101D01*
X23291Y-34094D01*
X23283Y-34072D01*
Y-34064D01*
X23291Y-34049D01*
X23298Y-34034D01*
X23320Y-34027D01*
X23328D01*
X23343Y-34034D01*
D02*
G37*
G36*
X21505D02*
X21542Y-34042D01*
X21587Y-34064D01*
X21594Y-34072D01*
X21624Y-34086D01*
X21646Y-34124D01*
X21654Y-34168D01*
Y-34176D01*
X21646Y-34183D01*
X21639Y-34198D01*
X21617Y-34205D01*
X21602D01*
X21579Y-34191D01*
X21572Y-34183D01*
X21550Y-34161D01*
Y-34153D01*
X21542Y-34146D01*
X21512Y-34124D01*
Y-34116D01*
X21505Y-34109D01*
X21490Y-34101D01*
X21453D01*
X21431Y-34109D01*
X21393Y-34124D01*
X21371Y-34161D01*
Y-34168D01*
X21364Y-34191D01*
X21356Y-34228D01*
X21349Y-34272D01*
Y-34280D01*
Y-34310D01*
X21356Y-34347D01*
X21371Y-34384D01*
X21379Y-34391D01*
X21393Y-34406D01*
X21416Y-34421D01*
X21460Y-34429D01*
X21483D01*
X21498Y-34421D01*
X21512Y-34414D01*
X21520Y-34406D01*
X21527Y-34399D01*
X21550Y-34377D01*
Y-34369D01*
X21557Y-34362D01*
X21579Y-34332D01*
Y-34324D01*
X21587Y-34317D01*
X21602Y-34310D01*
X21624D01*
X21639Y-34317D01*
X21654Y-34324D01*
X21661Y-34354D01*
Y-34369D01*
X21654Y-34399D01*
X21631Y-34436D01*
X21594Y-34473D01*
X21587Y-34481D01*
X21557Y-34488D01*
X21512Y-34503D01*
X21468Y-34510D01*
X21453D01*
X21408Y-34503D01*
X21356Y-34481D01*
X21304Y-34444D01*
X21297Y-34429D01*
X21274Y-34399D01*
X21252Y-34339D01*
X21245Y-34272D01*
Y-34265D01*
Y-34258D01*
X21252Y-34213D01*
X21267Y-34161D01*
X21304Y-34101D01*
X21319Y-34086D01*
X21349Y-34064D01*
X21401Y-34042D01*
X21468Y-34027D01*
X21475D01*
X21505Y-34034D01*
D02*
G37*
G36*
X22547Y-34161D02*
X22569Y-34176D01*
X22576Y-34183D01*
X22591Y-34191D01*
X22606Y-34213D01*
X22614Y-34235D01*
Y-34481D01*
Y-34496D01*
X22599Y-34510D01*
X22561D01*
X22539Y-34496D01*
X22532Y-34488D01*
X22524Y-34458D01*
Y-34250D01*
Y-34243D01*
X22517Y-34235D01*
X22502Y-34228D01*
X22494Y-34220D01*
X22465D01*
X22450Y-34228D01*
X22435Y-34243D01*
X22428Y-34258D01*
X22420Y-34287D01*
Y-34473D01*
Y-34481D01*
X22413Y-34488D01*
X22398Y-34503D01*
X22383D01*
X22368Y-34510D01*
X22361D01*
X22338Y-34503D01*
X22331Y-34496D01*
X22323Y-34473D01*
Y-34250D01*
Y-34243D01*
X22316Y-34235D01*
X22301Y-34228D01*
X22294Y-34220D01*
X22264D01*
X22234Y-34235D01*
X22227Y-34243D01*
X22219Y-34280D01*
Y-34458D01*
Y-34473D01*
X22204Y-34496D01*
X22197Y-34503D01*
X22167Y-34510D01*
X22137D01*
Y-34503D01*
X22130Y-34481D01*
Y-34183D01*
Y-34176D01*
X22137Y-34161D01*
X22145Y-34153D01*
X22175D01*
X22182Y-34161D01*
X22189Y-34176D01*
X22197Y-34183D01*
X22204Y-34191D01*
X22212Y-34198D01*
X22227D01*
X22242Y-34191D01*
X22256Y-34176D01*
X22264Y-34168D01*
X22279Y-34161D01*
X22294Y-34153D01*
X22331D01*
X22346Y-34161D01*
X22361Y-34176D01*
X22368D01*
X22375Y-34183D01*
X22383Y-34191D01*
X22398Y-34198D01*
X22413D01*
X22435Y-34191D01*
X22450Y-34176D01*
X22457Y-34168D01*
X22465Y-34161D01*
X22480Y-34153D01*
X22524D01*
X22547Y-34161D01*
D02*
G37*
G36*
X23491Y-33067D02*
X23514Y-33082D01*
X23521D01*
X23529Y-33090D01*
X23536Y-33104D01*
X23543Y-33127D01*
Y-33856D01*
Y-33863D01*
Y-33878D01*
X23529Y-33893D01*
X23514Y-33908D01*
X23506D01*
X23499Y-33915D01*
X23462Y-33923D01*
X23439D01*
X23424Y-33915D01*
X23402Y-33900D01*
Y-33893D01*
X23395Y-33878D01*
X23387Y-33856D01*
X23380Y-33833D01*
Y-33551D01*
X23023D01*
Y-33856D01*
Y-33863D01*
X23015Y-33878D01*
X23008Y-33893D01*
X22986Y-33908D01*
X22978D01*
X22971Y-33915D01*
X22933Y-33923D01*
X22911D01*
X22896Y-33915D01*
X22874Y-33900D01*
Y-33893D01*
X22866Y-33878D01*
X22859Y-33856D01*
X22852Y-33833D01*
Y-33156D01*
Y-33149D01*
Y-33134D01*
X22859Y-33112D01*
X22874Y-33090D01*
X22881Y-33082D01*
X22889Y-33075D01*
X22911Y-33067D01*
X22933Y-33060D01*
X22948D01*
X22963Y-33067D01*
X22986Y-33082D01*
X22993D01*
X23008Y-33097D01*
X23015Y-33112D01*
X23023Y-33134D01*
Y-33402D01*
X23380D01*
Y-33156D01*
Y-33149D01*
Y-33134D01*
X23387Y-33112D01*
X23402Y-33090D01*
X23410Y-33082D01*
X23417Y-33075D01*
X23439Y-33067D01*
X23462Y-33060D01*
X23477D01*
X23491Y-33067D01*
D02*
G37*
G36*
X24087D02*
X24116Y-33075D01*
X24124D01*
X24146Y-33082D01*
X24176Y-33090D01*
X24213Y-33104D01*
X24220Y-33112D01*
X24243Y-33119D01*
X24287Y-33164D01*
X24295Y-33171D01*
X24310Y-33186D01*
X24317Y-33223D01*
X24325Y-33261D01*
Y-33276D01*
X24317Y-33298D01*
X24295Y-33328D01*
X24273Y-33335D01*
X24250Y-33342D01*
X24213D01*
X24198Y-33328D01*
Y-33320D01*
X24183Y-33298D01*
X24146Y-33246D01*
X24139Y-33238D01*
X24124Y-33223D01*
X24101Y-33201D01*
X24064Y-33186D01*
X23990D01*
X23960Y-33194D01*
X23923Y-33209D01*
X23915D01*
X23901Y-33223D01*
X23886Y-33246D01*
X23878Y-33283D01*
Y-33290D01*
Y-33305D01*
X23886Y-33320D01*
X23901Y-33342D01*
X23908D01*
X23915Y-33357D01*
X23953Y-33372D01*
X24206Y-33447D01*
X24213D01*
X24235Y-33461D01*
X24265Y-33476D01*
X24302Y-33506D01*
X24310Y-33514D01*
X24332Y-33536D01*
X24354Y-33566D01*
X24362Y-33603D01*
Y-33722D01*
Y-33729D01*
X24354Y-33752D01*
X24347Y-33781D01*
X24325Y-33819D01*
X24317Y-33826D01*
X24302Y-33841D01*
X24273Y-33856D01*
X24235Y-33878D01*
X24228D01*
X24206Y-33893D01*
X24176Y-33900D01*
X24131Y-33915D01*
X24094D01*
X24064Y-33923D01*
X23968D01*
X23923Y-33915D01*
X23915D01*
X23886Y-33908D01*
X23848Y-33893D01*
X23811Y-33878D01*
X23804Y-33871D01*
X23789Y-33856D01*
X23759Y-33833D01*
X23737Y-33804D01*
X23729Y-33796D01*
X23722Y-33774D01*
X23715Y-33737D01*
X23707Y-33692D01*
Y-33685D01*
Y-33677D01*
X23722Y-33640D01*
Y-33633D01*
X23737Y-33625D01*
X23752Y-33618D01*
X23774Y-33610D01*
X23796D01*
X23819Y-33625D01*
X23834Y-33640D01*
X23841Y-33647D01*
X23848Y-33662D01*
X23886Y-33707D01*
X23893Y-33714D01*
X23901Y-33729D01*
X23938Y-33774D01*
X23945D01*
X23960Y-33781D01*
X23982Y-33789D01*
X24020Y-33796D01*
X24057D01*
X24094Y-33789D01*
X24131Y-33774D01*
X24139Y-33767D01*
X24161Y-33752D01*
X24183Y-33729D01*
X24191Y-33685D01*
Y-33677D01*
X24183Y-33647D01*
X24176Y-33625D01*
X24154Y-33595D01*
X24146Y-33588D01*
X24131Y-33581D01*
X24101Y-33566D01*
X24064Y-33551D01*
X24057Y-33543D01*
X24034Y-33536D01*
X23997Y-33528D01*
X23953Y-33514D01*
X23945D01*
X23915Y-33506D01*
X23878Y-33491D01*
X23841Y-33476D01*
X23834Y-33469D01*
X23811Y-33461D01*
X23752Y-33417D01*
X23744Y-33409D01*
X23737Y-33387D01*
X23729Y-33350D01*
X23722Y-33298D01*
Y-33283D01*
Y-33261D01*
X23729Y-33223D01*
X23744Y-33186D01*
X23752Y-33179D01*
X23767Y-33164D01*
X23789Y-33142D01*
X23819Y-33119D01*
X23826Y-33112D01*
X23848Y-33104D01*
X23878Y-33090D01*
X23915Y-33075D01*
X23923D01*
X23953Y-33067D01*
X23990Y-33060D01*
X24057D01*
X24087Y-33067D01*
D02*
G37*
G36*
X21862Y-33090D02*
X21907Y-33112D01*
X21951Y-33156D01*
X21959Y-33171D01*
X21981Y-33201D01*
X21996Y-33253D01*
X22003Y-33313D01*
Y-33320D01*
Y-33328D01*
X21996Y-33365D01*
X21981Y-33417D01*
X21951Y-33461D01*
X21944Y-33469D01*
X21914Y-33491D01*
X21870Y-33521D01*
X21810Y-33543D01*
X21817Y-33551D01*
X21832Y-33558D01*
X21877Y-33603D01*
X21884Y-33610D01*
X21899Y-33625D01*
X21922Y-33655D01*
X21944Y-33685D01*
X21951Y-33692D01*
X21959Y-33707D01*
X21981Y-33737D01*
X21996Y-33767D01*
X22003Y-33774D01*
X22011Y-33796D01*
X22018Y-33826D01*
X22026Y-33856D01*
Y-33863D01*
Y-33878D01*
X22011Y-33893D01*
X21996Y-33908D01*
X21981Y-33915D01*
X21944Y-33923D01*
X21937D01*
X21914Y-33915D01*
X21884Y-33908D01*
X21862Y-33886D01*
X21706Y-33633D01*
X21698Y-33625D01*
X21661Y-33595D01*
Y-33588D01*
X21646Y-33581D01*
X21631Y-33573D01*
X21609Y-33566D01*
X21505D01*
Y-33848D01*
Y-33856D01*
Y-33871D01*
X21490Y-33886D01*
X21475Y-33908D01*
X21468D01*
X21460Y-33915D01*
X21416Y-33923D01*
X21401D01*
X21379Y-33915D01*
X21349Y-33886D01*
X21341Y-33871D01*
X21334Y-33841D01*
Y-33156D01*
Y-33149D01*
Y-33142D01*
X21349Y-33112D01*
Y-33104D01*
X21364Y-33097D01*
X21371Y-33090D01*
X21393Y-33082D01*
X21825D01*
X21862Y-33090D01*
D02*
G37*
G36*
X22457Y-33298D02*
X22487D01*
X22561Y-33328D01*
X22599Y-33350D01*
X22628Y-33380D01*
X22636Y-33387D01*
X22643Y-33395D01*
X22658Y-33417D01*
X22673Y-33439D01*
X22703Y-33514D01*
X22718Y-33558D01*
Y-33610D01*
Y-33618D01*
Y-33633D01*
X22710Y-33662D01*
Y-33692D01*
X22680Y-33767D01*
X22658Y-33804D01*
X22628Y-33841D01*
X22614Y-33856D01*
X22569Y-33878D01*
X22502Y-33908D01*
X22457Y-33915D01*
X22405Y-33923D01*
X22383D01*
X22353Y-33915D01*
X22323D01*
X22249Y-33886D01*
X22212Y-33871D01*
X22182Y-33841D01*
Y-33833D01*
X22167Y-33826D01*
X22160Y-33804D01*
X22145Y-33781D01*
X22115Y-33707D01*
X22108Y-33662D01*
X22100Y-33610D01*
Y-33603D01*
Y-33588D01*
X22108Y-33558D01*
Y-33528D01*
X22137Y-33454D01*
X22152Y-33417D01*
X22182Y-33380D01*
X22189Y-33372D01*
X22197Y-33365D01*
X22242Y-33335D01*
X22308Y-33305D01*
X22353Y-33290D01*
X22428D01*
X22457Y-33298D01*
D02*
G37*
G36*
X22933Y-34161D02*
X22971Y-34176D01*
X23000Y-34213D01*
X23008Y-34220D01*
X23023Y-34250D01*
X23030Y-34287D01*
X23038Y-34332D01*
Y-34339D01*
X23030Y-34369D01*
X23023Y-34414D01*
X23000Y-34458D01*
X22993Y-34466D01*
X22971Y-34481D01*
X22941Y-34503D01*
X22889Y-34510D01*
X22866D01*
X22829Y-34503D01*
X22814Y-34496D01*
X22785Y-34466D01*
Y-34607D01*
X22703D01*
Y-34191D01*
Y-34183D01*
X22710Y-34168D01*
X22718Y-34161D01*
X22740Y-34153D01*
X22755D01*
X22770Y-34168D01*
X22777Y-34176D01*
X22785Y-34213D01*
X22792Y-34205D01*
X22800Y-34198D01*
X22829Y-34168D01*
X22837D01*
X22844Y-34161D01*
X22889Y-34153D01*
X22904D01*
X22933Y-34161D01*
D02*
G37*
G36*
X23350Y-34168D02*
X23357Y-34176D01*
X23365Y-34191D01*
Y-34473D01*
Y-34481D01*
X23357Y-34488D01*
X23350Y-34503D01*
X23320Y-34510D01*
X23305D01*
X23291Y-34496D01*
Y-34488D01*
X23283Y-34466D01*
Y-34205D01*
Y-34198D01*
X23291Y-34176D01*
X23298Y-34161D01*
X23320Y-34153D01*
X23328D01*
X23350Y-34168D01*
D02*
G37*
G36*
X23670D02*
X23700Y-34183D01*
X23707Y-34191D01*
X23722Y-34205D01*
X23737Y-34228D01*
X23752Y-34258D01*
Y-34265D01*
X23759Y-34287D01*
X23767Y-34317D01*
Y-34362D01*
Y-34369D01*
Y-34391D01*
Y-34429D01*
Y-34473D01*
Y-34481D01*
X23759Y-34488D01*
X23752Y-34503D01*
X23729Y-34510D01*
X23715D01*
X23692Y-34503D01*
X23685Y-34496D01*
X23670Y-34466D01*
X23648D01*
X23633Y-34473D01*
X23610Y-34488D01*
X23603D01*
X23588Y-34496D01*
X23573Y-34503D01*
X23543Y-34510D01*
X23521D01*
X23491Y-34503D01*
X23469Y-34488D01*
X23462Y-34481D01*
X23454Y-34473D01*
X23447Y-34444D01*
X23439Y-34414D01*
Y-34399D01*
X23447Y-34377D01*
X23469Y-34347D01*
X23506Y-34317D01*
X23536D01*
X23543Y-34310D01*
X23581D01*
X23588Y-34302D01*
X23618D01*
X23625Y-34295D01*
X23648Y-34287D01*
X23663D01*
X23670Y-34280D01*
Y-34272D01*
X23663Y-34243D01*
X23640Y-34220D01*
X23603Y-34213D01*
X23588D01*
X23566Y-34228D01*
X23558Y-34235D01*
X23536Y-34258D01*
X23529Y-34265D01*
X23514Y-34280D01*
X23506D01*
X23484Y-34287D01*
X23477D01*
X23469Y-34280D01*
X23462Y-34272D01*
X23454Y-34258D01*
Y-34250D01*
X23462Y-34228D01*
X23477Y-34198D01*
X23506Y-34176D01*
X23514Y-34168D01*
X23536Y-34161D01*
X23566Y-34153D01*
X23640D01*
X23670Y-34168D01*
D02*
G37*
G36*
X21929Y-34161D02*
X21974Y-34176D01*
X22011Y-34205D01*
X22018Y-34213D01*
X22033Y-34243D01*
X22048Y-34280D01*
X22056Y-34332D01*
Y-34347D01*
X22048Y-34377D01*
X22041Y-34421D01*
X22011Y-34466D01*
X22003Y-34473D01*
X21981Y-34488D01*
X21937Y-34503D01*
X21884Y-34510D01*
X21870D01*
X21840Y-34503D01*
X21803Y-34488D01*
X21765Y-34466D01*
X21758Y-34458D01*
X21743Y-34429D01*
X21728Y-34384D01*
X21721Y-34332D01*
Y-34317D01*
X21728Y-34287D01*
X21743Y-34250D01*
X21765Y-34205D01*
X21773Y-34198D01*
X21795Y-34176D01*
X21832Y-34161D01*
X21884Y-34153D01*
X21899D01*
X21929Y-34161D01*
D02*
G37*
G36*
X23171Y-34034D02*
X23179D01*
X23186Y-34049D01*
Y-34481D01*
Y-34496D01*
X23179Y-34503D01*
X23164Y-34510D01*
X23134D01*
X23112Y-34503D01*
Y-34496D01*
X23105Y-34473D01*
Y-34064D01*
Y-34057D01*
Y-34049D01*
X23119Y-34034D01*
X23127Y-34027D01*
X23157D01*
X23171Y-34034D01*
D02*
G37*
G36*
X24310Y-34049D02*
X24317D01*
X24325Y-34057D01*
X24332D01*
Y-34064D01*
Y-34153D01*
X24340D01*
X24369Y-34161D01*
X24377D01*
X24384Y-34168D01*
X24392Y-34176D01*
X24399Y-34191D01*
Y-34198D01*
Y-34205D01*
X24384Y-34220D01*
X24369Y-34228D01*
X24332D01*
Y-34406D01*
Y-34421D01*
X24340Y-34436D01*
X24347D01*
X24377Y-34444D01*
X24406D01*
X24414Y-34451D01*
X24421Y-34466D01*
Y-34473D01*
Y-34488D01*
X24406Y-34503D01*
X24392Y-34510D01*
X24317D01*
X24273Y-34496D01*
X24265Y-34488D01*
X24258Y-34481D01*
X24250Y-34458D01*
X24243Y-34429D01*
Y-34235D01*
X24228Y-34228D01*
X24206D01*
Y-34220D01*
X24198Y-34205D01*
Y-34191D01*
Y-34183D01*
X24206Y-34176D01*
X24213Y-34168D01*
X24243Y-34161D01*
Y-34153D01*
Y-34131D01*
Y-34124D01*
Y-34116D01*
Y-34094D01*
Y-34086D01*
Y-34079D01*
X24250Y-34057D01*
Y-34049D01*
X24258Y-34042D01*
X24273Y-34034D01*
X24295D01*
X24310Y-34049D01*
D02*
G37*
%LPC*%
G36*
X21728Y-33209D02*
X21505D01*
Y-33432D01*
X21706Y-33424D01*
X21743D01*
X21773Y-33417D01*
X21803Y-33402D01*
X21810Y-33395D01*
X21825Y-33380D01*
X21832Y-33357D01*
X21840Y-33320D01*
Y-33313D01*
Y-33290D01*
X21825Y-33268D01*
X21810Y-33246D01*
X21803Y-33238D01*
X21788Y-33223D01*
X21765Y-33216D01*
X21728Y-33209D01*
D02*
G37*
G36*
X22405Y-33409D02*
X22390D01*
X22361Y-33417D01*
X22316Y-33439D01*
X22286Y-33476D01*
X22279Y-33484D01*
X22271Y-33514D01*
X22264Y-33558D01*
X22256Y-33610D01*
Y-33625D01*
Y-33662D01*
Y-33670D01*
X22264Y-33685D01*
X22271Y-33729D01*
Y-33737D01*
X22279Y-33744D01*
X22308Y-33781D01*
X22316D01*
X22323Y-33789D01*
X22361Y-33796D01*
X22465D01*
X22480Y-33789D01*
X22494Y-33781D01*
X22502Y-33774D01*
X22509Y-33767D01*
X22524Y-33729D01*
Y-33722D01*
X22532Y-33707D01*
X22547Y-33662D01*
Y-33655D01*
X22554Y-33640D01*
Y-33603D01*
Y-33588D01*
X22547Y-33558D01*
X22539Y-33514D01*
X22517Y-33469D01*
X22509Y-33461D01*
X22494Y-33439D01*
X22457Y-33417D01*
X22405Y-33409D01*
D02*
G37*
G36*
X22866Y-34220D02*
X22859D01*
X22844Y-34228D01*
X22822Y-34235D01*
X22800Y-34258D01*
Y-34265D01*
X22792Y-34280D01*
X22785Y-34332D01*
Y-34339D01*
Y-34362D01*
X22800Y-34414D01*
X22807Y-34421D01*
X22814Y-34429D01*
X22837Y-34436D01*
X22866Y-34444D01*
X22874D01*
X22889Y-34436D01*
X22911Y-34429D01*
X22926Y-34406D01*
X22933Y-34399D01*
X22941Y-34384D01*
X22948Y-34362D01*
Y-34332D01*
Y-34324D01*
Y-34310D01*
X22941Y-34287D01*
X22926Y-34258D01*
Y-34250D01*
X22911Y-34235D01*
X22896Y-34228D01*
X22866Y-34220D01*
D02*
G37*
G36*
X23670Y-34339D02*
X23663D01*
X23633Y-34347D01*
X23618D01*
X23581Y-34354D01*
X23566Y-34362D01*
X23536Y-34377D01*
X23529Y-34384D01*
X23521Y-34406D01*
Y-34414D01*
Y-34421D01*
X23529Y-34436D01*
X23536Y-34444D01*
X23543D01*
X23573Y-34451D01*
X23581D01*
X23603Y-34444D01*
X23625Y-34436D01*
X23648Y-34421D01*
X23655Y-34414D01*
X23663Y-34399D01*
X23670Y-34377D01*
Y-34339D01*
D02*
G37*
G36*
X21907Y-34220D02*
X21877D01*
X21862Y-34228D01*
X21840Y-34235D01*
X21825Y-34258D01*
Y-34265D01*
X21817Y-34280D01*
X21810Y-34302D01*
Y-34332D01*
Y-34339D01*
Y-34354D01*
X21825Y-34406D01*
Y-34414D01*
X21840Y-34421D01*
X21855Y-34436D01*
X21884Y-34444D01*
X21899D01*
X21937Y-34429D01*
X21944D01*
X21951Y-34414D01*
X21959Y-34406D01*
X21966Y-34384D01*
Y-34287D01*
Y-34280D01*
Y-34272D01*
X21951Y-34258D01*
X21937Y-34243D01*
Y-34235D01*
X21922Y-34228D01*
X21907Y-34220D01*
D02*
G37*
G36*
X29711Y-37862D02*
X29547D01*
X29502Y-37869D01*
X29487D01*
X29443Y-37877D01*
X29376D01*
X29368Y-37892D01*
X29748D01*
Y-37884D01*
X29733Y-37877D01*
X29726Y-37869D01*
X29711Y-37862D01*
D02*
G37*
G36*
X29748Y-37758D02*
X29368D01*
X29376Y-37765D01*
X29748D01*
Y-37758D01*
D02*
G37*
G36*
X28922Y-38048D02*
X28915Y-38063D01*
Y-38070D01*
X28922Y-38078D01*
X28929D01*
X28937Y-38063D01*
Y-38055D01*
X28922Y-38048D01*
D02*
G37*
G36*
X29889Y-37892D02*
X29845D01*
Y-37981D01*
X29279D01*
Y-37892D01*
X29264D01*
X29249Y-37899D01*
X29235Y-37906D01*
X29197Y-37914D01*
X29182Y-37921D01*
X29153Y-37929D01*
X29145Y-37936D01*
X29138D01*
X29130Y-37944D01*
Y-38055D01*
X30217Y-38063D01*
X30209Y-38048D01*
X30179Y-38025D01*
X30135Y-37988D01*
X30068Y-37951D01*
X30060D01*
X30053Y-37944D01*
X30016Y-37929D01*
X29956Y-37906D01*
X29889Y-37892D01*
D02*
G37*
G36*
X29599Y-39357D02*
X29011Y-39975D01*
Y-40004D01*
Y-40012D01*
Y-40027D01*
Y-40056D01*
Y-40094D01*
Y-40101D01*
X29019Y-40123D01*
Y-40161D01*
Y-40205D01*
Y-40213D01*
X29026Y-40242D01*
Y-40272D01*
X29034Y-40309D01*
Y-40317D01*
X29041Y-40332D01*
Y-40347D01*
Y-40361D01*
Y-40369D01*
X29049Y-40376D01*
Y-40421D01*
Y-40428D01*
X29056Y-40451D01*
X29830D01*
Y-40443D01*
X29837Y-40436D01*
X29845Y-40399D01*
X29867Y-40354D01*
X29897Y-40309D01*
X29904Y-40302D01*
X29926Y-40272D01*
X29956Y-40242D01*
X29993Y-40205D01*
X30001Y-40198D01*
X30023Y-40176D01*
X30053Y-40146D01*
X30083Y-40109D01*
X30090Y-40101D01*
X30105Y-40071D01*
X30112Y-40027D01*
X30120Y-39967D01*
Y-39900D01*
X29599Y-39357D01*
D02*
G37*
G36*
X28892Y-38621D02*
X28996Y-39826D01*
X29517Y-39275D01*
X28892Y-38621D01*
D02*
G37*
G36*
X30477Y-38464D02*
X30440D01*
X30432Y-38472D01*
X30417Y-38487D01*
X30410Y-38494D01*
X30380Y-38524D01*
X30373Y-38539D01*
X30343Y-38569D01*
X30336Y-38583D01*
X30321Y-38598D01*
X30477D01*
Y-38464D01*
D02*
G37*
G36*
X28758Y-38167D02*
X28639D01*
X28647Y-38174D01*
X28654Y-38189D01*
X28691Y-38241D01*
X28699Y-38249D01*
X28714Y-38256D01*
X28758Y-38301D01*
Y-38167D01*
D02*
G37*
G36*
X30209Y-38725D02*
X29681Y-39275D01*
X30127Y-39751D01*
X30150Y-39662D01*
Y-39655D01*
Y-39640D01*
Y-39610D01*
Y-39603D01*
Y-39573D01*
Y-39536D01*
X30157Y-39491D01*
Y-39476D01*
X30164Y-39439D01*
Y-39387D01*
X30172Y-39327D01*
Y-39320D01*
Y-39313D01*
X30179Y-39275D01*
Y-39216D01*
Y-39156D01*
Y-39149D01*
Y-39141D01*
X30187Y-39104D01*
Y-39052D01*
X30194Y-38993D01*
Y-38985D01*
Y-38978D01*
X30202Y-38941D01*
Y-38896D01*
X30209Y-38851D01*
Y-38725D01*
D02*
G37*
G36*
X30254Y-38167D02*
X28863D01*
Y-38174D01*
Y-38189D01*
X28855Y-38241D01*
Y-38249D01*
Y-38264D01*
Y-38316D01*
Y-38323D01*
Y-38338D01*
X28863Y-38390D01*
Y-38397D01*
X28870Y-38405D01*
X28892Y-38442D01*
X29599Y-39193D01*
X29874Y-38888D01*
X29376D01*
Y-38688D01*
X29993D01*
Y-38762D01*
X30217Y-38539D01*
X30224Y-38531D01*
X30231Y-38524D01*
X30246Y-38502D01*
X30254Y-38472D01*
Y-38464D01*
X30261Y-38442D01*
Y-38405D01*
Y-38368D01*
Y-38360D01*
Y-38338D01*
Y-38301D01*
X30254Y-38264D01*
Y-38256D01*
Y-38226D01*
Y-38197D01*
Y-38167D01*
D02*
G37*
G36*
X18366Y-4354D02*
X18359D01*
X18353Y-4356D01*
X18339Y-4359D01*
X18320Y-4365D01*
X18298Y-4373D01*
X18276Y-4387D01*
X18264Y-4395D01*
X18252Y-4407D01*
X18241Y-4419D01*
X18230Y-4432D01*
Y-4433D01*
X18227Y-4436D01*
X18225Y-4441D01*
X18222Y-4448D01*
X18217Y-4457D01*
X18213Y-4470D01*
X18208Y-4485D01*
X18203Y-4501D01*
X18197Y-4521D01*
X18192Y-4543D01*
X18188Y-4570D01*
X18184Y-4599D01*
X18179Y-4631D01*
X18178Y-4666D01*
X18175Y-4706D01*
Y-4748D01*
Y-4751D01*
Y-4758D01*
Y-4770D01*
X18176Y-4786D01*
Y-4805D01*
X18178Y-4827D01*
X18179Y-4850D01*
X18182Y-4877D01*
X18188Y-4929D01*
X18198Y-4981D01*
X18204Y-5006D01*
X18211Y-5027D01*
X18220Y-5046D01*
X18230Y-5063D01*
Y-5064D01*
X18233Y-5065D01*
X18241Y-5074D01*
X18252Y-5087D01*
X18268Y-5102D01*
X18289Y-5117D01*
X18312Y-5130D01*
X18339Y-5139D01*
X18353Y-5140D01*
X18368Y-5142D01*
X18375D01*
X18381Y-5140D01*
X18396Y-5139D01*
X18415Y-5133D01*
X18435Y-5124D01*
X18457Y-5112D01*
X18479Y-5095D01*
X18489Y-5083D01*
X18498Y-5071D01*
Y-5070D01*
X18501Y-5067D01*
X18504Y-5061D01*
X18507Y-5054D01*
X18511Y-5044D01*
X18517Y-5032D01*
X18523Y-5016D01*
X18527Y-4998D01*
X18533Y-4978D01*
X18539Y-4954D01*
X18543Y-4928D01*
X18549Y-4897D01*
X18552Y-4865D01*
X18555Y-4830D01*
X18558Y-4790D01*
Y-4748D01*
Y-4745D01*
Y-4738D01*
Y-4726D01*
X18557Y-4710D01*
Y-4691D01*
X18555Y-4669D01*
X18554Y-4644D01*
X18551Y-4619D01*
X18545Y-4567D01*
X18535Y-4514D01*
X18529Y-4491D01*
X18522Y-4469D01*
X18513Y-4448D01*
X18504Y-4432D01*
Y-4431D01*
X18501Y-4429D01*
X18494Y-4420D01*
X18482Y-4407D01*
X18466Y-4394D01*
X18445Y-4379D01*
X18422Y-4366D01*
X18396Y-4357D01*
X18381Y-4356D01*
X18366Y-4354D01*
D02*
G37*
G36*
X34629Y-14578D02*
X34621D01*
X34599Y-14585D01*
X34569Y-14593D01*
X34539Y-14615D01*
Y-14622D01*
X34532Y-14637D01*
X34525Y-14667D01*
X34517Y-14704D01*
Y-14712D01*
Y-14734D01*
X34525Y-14764D01*
X34539Y-14794D01*
X34547Y-14801D01*
X34562Y-14808D01*
X34584Y-14823D01*
X34621Y-14831D01*
X34636D01*
X34681Y-14816D01*
X34696Y-14801D01*
X34718Y-14779D01*
X34725Y-14749D01*
X34733Y-14712D01*
Y-14704D01*
Y-14682D01*
X34725Y-14652D01*
X34711Y-14622D01*
Y-14615D01*
X34696Y-14600D01*
X34673Y-14585D01*
X34629Y-14578D01*
D02*
G37*
G36*
X32925Y-15337D02*
X32680D01*
Y-15508D01*
X32970D01*
X32985Y-15500D01*
X32999Y-15485D01*
X33007Y-15478D01*
X33014Y-15471D01*
X33022Y-15456D01*
Y-15433D01*
Y-15426D01*
Y-15418D01*
X33007Y-15381D01*
X32985Y-15352D01*
X32955Y-15344D01*
X32925Y-15337D01*
D02*
G37*
G36*
X32955Y-15657D02*
X32680D01*
Y-15828D01*
X32985D01*
X32999Y-15820D01*
X33007Y-15805D01*
Y-15798D01*
X33014Y-15783D01*
X33022Y-15746D01*
Y-15738D01*
Y-15731D01*
X33007Y-15694D01*
Y-15686D01*
X32992Y-15671D01*
X32977Y-15664D01*
X32955Y-15657D01*
D02*
G37*
G36*
X15803Y-4436D02*
Y-4737D01*
X16233D01*
X15803Y-4436D01*
D02*
G37*
G36*
X18258Y-2354D02*
X18251D01*
X18245Y-2356D01*
X18230Y-2359D01*
X18211Y-2365D01*
X18189Y-2373D01*
X18167Y-2387D01*
X18156Y-2395D01*
X18144Y-2407D01*
X18132Y-2419D01*
X18122Y-2432D01*
Y-2433D01*
X18119Y-2436D01*
X18116Y-2441D01*
X18113Y-2448D01*
X18109Y-2457D01*
X18105Y-2470D01*
X18100Y-2485D01*
X18094Y-2501D01*
X18088Y-2521D01*
X18084Y-2543D01*
X18080Y-2570D01*
X18075Y-2599D01*
X18071Y-2631D01*
X18069Y-2666D01*
X18067Y-2706D01*
Y-2748D01*
Y-2751D01*
Y-2758D01*
Y-2770D01*
X18068Y-2786D01*
Y-2805D01*
X18069Y-2827D01*
X18071Y-2850D01*
X18074Y-2877D01*
X18080Y-2929D01*
X18090Y-2981D01*
X18096Y-3006D01*
X18103Y-3027D01*
X18112Y-3046D01*
X18122Y-3063D01*
Y-3064D01*
X18125Y-3066D01*
X18132Y-3074D01*
X18144Y-3087D01*
X18160Y-3102D01*
X18181Y-3117D01*
X18204Y-3130D01*
X18230Y-3139D01*
X18245Y-3140D01*
X18260Y-3142D01*
X18267D01*
X18273Y-3140D01*
X18287Y-3139D01*
X18306Y-3133D01*
X18327Y-3124D01*
X18349Y-3112D01*
X18371Y-3095D01*
X18381Y-3083D01*
X18390Y-3071D01*
Y-3070D01*
X18393Y-3067D01*
X18396Y-3061D01*
X18399Y-3054D01*
X18403Y-3044D01*
X18409Y-3032D01*
X18415Y-3016D01*
X18419Y-2998D01*
X18425Y-2978D01*
X18431Y-2954D01*
X18435Y-2928D01*
X18441Y-2897D01*
X18444Y-2865D01*
X18447Y-2830D01*
X18450Y-2790D01*
Y-2748D01*
Y-2745D01*
Y-2738D01*
Y-2726D01*
X18448Y-2710D01*
Y-2691D01*
X18447Y-2669D01*
X18445Y-2644D01*
X18443Y-2619D01*
X18437Y-2567D01*
X18426Y-2514D01*
X18421Y-2491D01*
X18413Y-2469D01*
X18404Y-2448D01*
X18396Y-2432D01*
Y-2431D01*
X18393Y-2429D01*
X18385Y-2420D01*
X18374Y-2407D01*
X18358Y-2394D01*
X18337Y-2379D01*
X18314Y-2366D01*
X18287Y-2357D01*
X18273Y-2356D01*
X18258Y-2354D01*
D02*
G37*
G36*
X48332Y-11963D02*
X47902D01*
X48332Y-12264D01*
Y-11963D01*
D02*
G37*
%LPD*%
D19*
X7112Y-3810D02*
G03*
X7112Y-3810I-1143J0D01*
G01*
X38354Y-18796D02*
X38862D01*
Y-21336D02*
Y-18796D01*
Y-21336D02*
X39370Y-20828D01*
X38354D02*
X38862Y-21336D01*
X15748D02*
X16256Y-20828D01*
X15240D02*
X15748Y-21336D01*
Y-18796D01*
X16256D01*
X44450Y-21590D02*
X45212D01*
X44450Y-31750D02*
X45212D01*
X44450Y-29210D02*
X45212D01*
X44450Y-24130D02*
X45212D01*
X44450Y-26670D02*
X45212D01*
X44450Y-36830D02*
X45212D01*
X44450Y-34290D02*
X45212D01*
X44450Y-39370D02*
X45212D01*
X44450Y-41910D02*
X45212D01*
X44450Y-19050D02*
X45212D01*
Y-41910D02*
Y-19050D01*
X9398Y-21590D02*
X10160D01*
X9398Y-31750D02*
X10160D01*
X9398Y-29210D02*
X10160D01*
X9398Y-24130D02*
X10160D01*
X9398Y-26670D02*
X10160D01*
X9398Y-36830D02*
X10160D01*
X9398Y-34290D02*
X10160D01*
X9398Y-39370D02*
X10160D01*
X9398Y-41910D02*
X10160D01*
X9398Y-19050D02*
X10160D01*
X9398Y-41910D02*
Y-19050D01*
X36830Y-38100D02*
X37465D01*
X36830Y-40640D02*
X37465D01*
X36830Y-35560D02*
X37465D01*
X36830Y-33020D02*
X37465D01*
X36830Y-27940D02*
X37465D01*
X36830Y-30480D02*
X37465D01*
X36830Y-25400D02*
X37465D01*
X17145D02*
X17780D01*
X17145Y-30480D02*
X17780D01*
X17145Y-27940D02*
X17780D01*
X17145Y-35560D02*
X17780D01*
X17145Y-33020D02*
X17780D01*
X17145Y-38100D02*
X17780D01*
X17145Y-40640D02*
X17780D01*
X41057Y-1579D02*
X41021Y-1506D01*
X40948Y-1433D01*
X40876Y-1397D01*
X40731D01*
X40658Y-1433D01*
X40586Y-1506D01*
X40549Y-1579D01*
X40513Y-1687D01*
Y-1869D01*
X40549Y-1978D01*
X40586Y-2050D01*
X40658Y-2123D01*
X40731Y-2159D01*
X40876D01*
X40948Y-2123D01*
X41021Y-2050D01*
X41057Y-1978D01*
X41271Y-1397D02*
Y-2159D01*
Y-1397D02*
X41779Y-2159D01*
Y-1397D02*
Y-2159D01*
X41990Y-1542D02*
X42062Y-1506D01*
X42171Y-1397D01*
Y-2159D01*
X26670Y-7493D02*
Y-8037D01*
X26706Y-8146D01*
X26779Y-8219D01*
X26888Y-8255D01*
X26960D01*
X27069Y-8219D01*
X27142Y-8146D01*
X27178Y-8037D01*
Y-7493D01*
X27388Y-7638D02*
X27461Y-7602D01*
X27570Y-7493D01*
Y-8255D01*
X33818Y-12501D02*
X33782Y-12428D01*
X33709Y-12355D01*
X33637Y-12319D01*
X33492D01*
X33419Y-12355D01*
X33347Y-12428D01*
X33310Y-12501D01*
X33274Y-12609D01*
Y-12791D01*
X33310Y-12900D01*
X33347Y-12972D01*
X33419Y-13045D01*
X33492Y-13081D01*
X33637D01*
X33709Y-13045D01*
X33782Y-12972D01*
X33818Y-12900D01*
X34468Y-12319D02*
X34105D01*
X34068Y-12646D01*
X34105Y-12609D01*
X34214Y-12573D01*
X34322D01*
X34431Y-12609D01*
X34504Y-12682D01*
X34540Y-12791D01*
Y-12863D01*
X34504Y-12972D01*
X34431Y-13045D01*
X34322Y-13081D01*
X34214D01*
X34105Y-13045D01*
X34068Y-13008D01*
X34032Y-12936D01*
X23785Y-8310D02*
X23749Y-8237D01*
X23676Y-8164D01*
X23604Y-8128D01*
X23459D01*
X23386Y-8164D01*
X23314Y-8237D01*
X23277Y-8310D01*
X23241Y-8418D01*
Y-8600D01*
X23277Y-8709D01*
X23314Y-8781D01*
X23386Y-8854D01*
X23459Y-8890D01*
X23604D01*
X23676Y-8854D01*
X23749Y-8781D01*
X23785Y-8709D01*
X24035Y-8310D02*
Y-8273D01*
X24072Y-8201D01*
X24108Y-8164D01*
X24181Y-8128D01*
X24326D01*
X24398Y-8164D01*
X24435Y-8201D01*
X24471Y-8273D01*
Y-8346D01*
X24435Y-8418D01*
X24362Y-8527D01*
X23999Y-8890D01*
X24507D01*
X31024Y-8310D02*
X30988Y-8237D01*
X30915Y-8164D01*
X30843Y-8128D01*
X30698D01*
X30625Y-8164D01*
X30553Y-8237D01*
X30516Y-8310D01*
X30480Y-8418D01*
Y-8600D01*
X30516Y-8709D01*
X30553Y-8781D01*
X30625Y-8854D01*
X30698Y-8890D01*
X30843D01*
X30915Y-8854D01*
X30988Y-8781D01*
X31024Y-8709D01*
X31311Y-8128D02*
X31710D01*
X31492Y-8418D01*
X31601D01*
X31674Y-8455D01*
X31710Y-8491D01*
X31746Y-8600D01*
Y-8672D01*
X31710Y-8781D01*
X31637Y-8854D01*
X31528Y-8890D01*
X31420D01*
X31311Y-8854D01*
X31274Y-8817D01*
X31238Y-8745D01*
X22134Y-8310D02*
X22098Y-8237D01*
X22025Y-8164D01*
X21953Y-8128D01*
X21808D01*
X21735Y-8164D01*
X21663Y-8237D01*
X21626Y-8310D01*
X21590Y-8418D01*
Y-8600D01*
X21626Y-8709D01*
X21663Y-8781D01*
X21735Y-8854D01*
X21808Y-8890D01*
X21953D01*
X22025Y-8854D01*
X22098Y-8781D01*
X22134Y-8709D01*
X22348Y-8273D02*
X22421Y-8237D01*
X22530Y-8128D01*
Y-8890D01*
X32929Y-8310D02*
X32893Y-8237D01*
X32820Y-8164D01*
X32748Y-8128D01*
X32603D01*
X32530Y-8164D01*
X32458Y-8237D01*
X32421Y-8310D01*
X32385Y-8418D01*
Y-8600D01*
X32421Y-8709D01*
X32458Y-8781D01*
X32530Y-8854D01*
X32603Y-8890D01*
X32748D01*
X32820Y-8854D01*
X32893Y-8781D01*
X32929Y-8709D01*
X33506Y-8128D02*
X33143Y-8636D01*
X33687D01*
X33506Y-8128D02*
Y-8890D01*
X46899Y-2595D02*
X46863Y-2522D01*
X46790Y-2449D01*
X46718Y-2413D01*
X46573D01*
X46500Y-2449D01*
X46428Y-2522D01*
X46391Y-2595D01*
X46355Y-2703D01*
Y-2885D01*
X46391Y-2994D01*
X46428Y-3066D01*
X46500Y-3139D01*
X46573Y-3175D01*
X46718D01*
X46790Y-3139D01*
X46863Y-3066D01*
X46899Y-2994D01*
X47113Y-2413D02*
Y-3175D01*
Y-2413D02*
X47621Y-3175D01*
Y-2413D02*
Y-3175D01*
X47904Y-2413D02*
X48303D01*
X48085Y-2703D01*
X48194D01*
X48267Y-2740D01*
X48303Y-2776D01*
X48339Y-2885D01*
Y-2957D01*
X48303Y-3066D01*
X48231Y-3139D01*
X48122Y-3175D01*
X48013D01*
X47904Y-3139D01*
X47868Y-3102D01*
X47832Y-3030D01*
X40752Y-16768D02*
X40716Y-16695D01*
X40644Y-16623D01*
X40571Y-16586D01*
X40426D01*
X40353Y-16623D01*
X40281Y-16695D01*
X40244Y-16768D01*
X40208Y-16877D01*
Y-17058D01*
X40244Y-17167D01*
X40281Y-17239D01*
X40353Y-17312D01*
X40426Y-17348D01*
X40571D01*
X40644Y-17312D01*
X40716Y-17239D01*
X40752Y-17167D01*
X40966Y-16586D02*
Y-17348D01*
Y-16586D02*
X41474Y-17348D01*
Y-16586D02*
Y-17348D01*
X41685Y-16731D02*
X41757Y-16695D01*
X41866Y-16586D01*
Y-17348D01*
X42280Y-16768D02*
Y-16731D01*
X42316Y-16659D01*
X42352Y-16623D01*
X42425Y-16586D01*
X42570D01*
X42642Y-16623D01*
X42679Y-16659D01*
X42715Y-16731D01*
Y-16804D01*
X42679Y-16877D01*
X42606Y-16985D01*
X42243Y-17348D01*
X42751D01*
X12889Y-16793D02*
X12852Y-16721D01*
X12780Y-16648D01*
X12707Y-16612D01*
X12562D01*
X12490Y-16648D01*
X12417Y-16721D01*
X12381Y-16793D01*
X12344Y-16902D01*
Y-17083D01*
X12381Y-17192D01*
X12417Y-17265D01*
X12490Y-17337D01*
X12562Y-17374D01*
X12707D01*
X12780Y-17337D01*
X12852Y-17265D01*
X12889Y-17192D01*
X13103Y-16612D02*
Y-17374D01*
Y-16612D02*
X13611Y-17374D01*
Y-16612D02*
Y-17374D01*
X14293Y-16866D02*
X14256Y-16975D01*
X14184Y-17047D01*
X14075Y-17083D01*
X14039D01*
X13930Y-17047D01*
X13857Y-16975D01*
X13821Y-16866D01*
Y-16829D01*
X13857Y-16721D01*
X13930Y-16648D01*
X14039Y-16612D01*
X14075D01*
X14184Y-16648D01*
X14256Y-16721D01*
X14293Y-16866D01*
Y-17047D01*
X14256Y-17228D01*
X14184Y-17337D01*
X14075Y-17374D01*
X14002D01*
X13893Y-17337D01*
X13857Y-17265D01*
X37984Y-21822D02*
X37947Y-21750D01*
X37875Y-21677D01*
X37802Y-21641D01*
X37657D01*
X37585Y-21677D01*
X37512Y-21750D01*
X37476Y-21822D01*
X37440Y-21931D01*
Y-22113D01*
X37476Y-22221D01*
X37512Y-22294D01*
X37585Y-22367D01*
X37657Y-22403D01*
X37802D01*
X37875Y-22367D01*
X37947Y-22294D01*
X37984Y-22221D01*
X38198Y-21641D02*
Y-22403D01*
Y-21641D02*
X38706Y-22403D01*
Y-21641D02*
Y-22403D01*
X38916Y-21786D02*
X38989Y-21750D01*
X39097Y-21641D01*
Y-22403D01*
X39475Y-21786D02*
X39547Y-21750D01*
X39656Y-21641D01*
Y-22403D01*
X15403Y-21822D02*
X15367Y-21750D01*
X15294Y-21677D01*
X15222Y-21641D01*
X15077D01*
X15004Y-21677D01*
X14932Y-21750D01*
X14895Y-21822D01*
X14859Y-21931D01*
Y-22113D01*
X14895Y-22221D01*
X14932Y-22294D01*
X15004Y-22367D01*
X15077Y-22403D01*
X15222D01*
X15294Y-22367D01*
X15367Y-22294D01*
X15403Y-22221D01*
X15617Y-21641D02*
Y-22403D01*
Y-21641D02*
X16125Y-22403D01*
Y-21641D02*
Y-22403D01*
X16336Y-21786D02*
X16408Y-21750D01*
X16517Y-21641D01*
Y-22403D01*
X17112Y-21641D02*
X17003Y-21677D01*
X16930Y-21786D01*
X16894Y-21967D01*
Y-22076D01*
X16930Y-22258D01*
X17003Y-22367D01*
X17112Y-22403D01*
X17184D01*
X17293Y-22367D01*
X17366Y-22258D01*
X17402Y-22076D01*
Y-21967D01*
X17366Y-21786D01*
X17293Y-21677D01*
X17184Y-21641D01*
X17112D01*
X23223Y-11684D02*
Y-12265D01*
X23187Y-12373D01*
X23150Y-12410D01*
X23078Y-12446D01*
X23005D01*
X22933Y-12410D01*
X22896Y-12373D01*
X22860Y-12265D01*
Y-12192D01*
X23419Y-12083D02*
X23745D01*
X23854Y-12047D01*
X23890Y-12011D01*
X23927Y-11938D01*
Y-11829D01*
X23890Y-11757D01*
X23854Y-11720D01*
X23745Y-11684D01*
X23419D01*
Y-12446D01*
X24097Y-11829D02*
X24170Y-11793D01*
X24278Y-11684D01*
Y-12446D01*
X35815Y-14224D02*
Y-14986D01*
Y-14224D02*
X36142D01*
X36251Y-14260D01*
X36287Y-14297D01*
X36323Y-14369D01*
Y-14442D01*
X36287Y-14514D01*
X36251Y-14551D01*
X36142Y-14587D01*
X35815D01*
X36069D02*
X36323Y-14986D01*
X36494Y-14369D02*
X36566Y-14333D01*
X36675Y-14224D01*
Y-14986D01*
X42672Y-15494D02*
Y-16256D01*
Y-15494D02*
X42999D01*
X43107Y-15530D01*
X43144Y-15567D01*
X43180Y-15639D01*
Y-15712D01*
X43144Y-15784D01*
X43107Y-15821D01*
X42999Y-15857D01*
X42672D01*
X42926D02*
X43180Y-16256D01*
X43387Y-15676D02*
Y-15639D01*
X43423Y-15567D01*
X43459Y-15530D01*
X43532Y-15494D01*
X43677D01*
X43749Y-15530D01*
X43786Y-15567D01*
X43822Y-15639D01*
Y-15712D01*
X43786Y-15784D01*
X43713Y-15893D01*
X43350Y-16256D01*
X43858D01*
X41783Y-6332D02*
X41710Y-6259D01*
X41602Y-6223D01*
X41456D01*
X41348Y-6259D01*
X41275Y-6332D01*
Y-6405D01*
X41311Y-6477D01*
X41348Y-6513D01*
X41420Y-6550D01*
X41638Y-6622D01*
X41710Y-6659D01*
X41747Y-6695D01*
X41783Y-6767D01*
Y-6876D01*
X41710Y-6949D01*
X41602Y-6985D01*
X41456D01*
X41348Y-6949D01*
X41275Y-6876D01*
X41953Y-6223D02*
Y-6985D01*
Y-6223D02*
X42280D01*
X42389Y-6259D01*
X42425Y-6296D01*
X42461Y-6368D01*
Y-6441D01*
X42425Y-6513D01*
X42389Y-6550D01*
X42280Y-6586D01*
X41953D02*
X42280D01*
X42389Y-6622D01*
X42425Y-6659D01*
X42461Y-6731D01*
Y-6840D01*
X42425Y-6912D01*
X42389Y-6949D01*
X42280Y-6985D01*
X41953D01*
X42668Y-6405D02*
Y-6368D01*
X42704Y-6296D01*
X42741Y-6259D01*
X42813Y-6223D01*
X42958D01*
X43031Y-6259D01*
X43067Y-6296D01*
X43103Y-6368D01*
Y-6441D01*
X43067Y-6513D01*
X42995Y-6622D01*
X42632Y-6985D01*
X43140D01*
X37973Y-6332D02*
X37900Y-6259D01*
X37792Y-6223D01*
X37646D01*
X37538Y-6259D01*
X37465Y-6332D01*
Y-6405D01*
X37501Y-6477D01*
X37538Y-6513D01*
X37610Y-6550D01*
X37828Y-6622D01*
X37900Y-6659D01*
X37937Y-6695D01*
X37973Y-6767D01*
Y-6876D01*
X37900Y-6949D01*
X37792Y-6985D01*
X37646D01*
X37538Y-6949D01*
X37465Y-6876D01*
X38143Y-6223D02*
Y-6985D01*
Y-6223D02*
X38470D01*
X38579Y-6259D01*
X38615Y-6296D01*
X38651Y-6368D01*
Y-6441D01*
X38615Y-6513D01*
X38579Y-6550D01*
X38470Y-6586D01*
X38143D02*
X38470D01*
X38579Y-6622D01*
X38615Y-6659D01*
X38651Y-6731D01*
Y-6840D01*
X38615Y-6912D01*
X38579Y-6949D01*
X38470Y-6985D01*
X38143D01*
X38822Y-6368D02*
X38894Y-6332D01*
X39003Y-6223D01*
Y-6985D01*
X40767Y-12827D02*
Y-13589D01*
X40513Y-12827D02*
X41021D01*
X41148Y-13009D02*
Y-12972D01*
X41184Y-12900D01*
X41220Y-12863D01*
X41293Y-12827D01*
X41438D01*
X41511Y-12863D01*
X41547Y-12900D01*
X41583Y-12972D01*
Y-13045D01*
X41547Y-13117D01*
X41474Y-13226D01*
X41112Y-13589D01*
X41619D01*
X35687Y-12700D02*
Y-13462D01*
X35433Y-12700D02*
X35941D01*
X36032Y-12845D02*
X36104Y-12809D01*
X36213Y-12700D01*
Y-13462D01*
X16419Y-14025D02*
X16383Y-13952D01*
X16310Y-13879D01*
X16238Y-13843D01*
X16093D01*
X16020Y-13879D01*
X15948Y-13952D01*
X15911Y-14025D01*
X15875Y-14133D01*
Y-14315D01*
X15911Y-14424D01*
X15948Y-14496D01*
X16020Y-14569D01*
X16093Y-14605D01*
X16238D01*
X16310Y-14569D01*
X16383Y-14496D01*
X16419Y-14424D01*
X16633Y-13843D02*
Y-14605D01*
Y-13843D02*
X17141Y-14605D01*
Y-13843D02*
Y-14605D01*
X17388Y-14025D02*
Y-13988D01*
X17424Y-13916D01*
X17460Y-13879D01*
X17533Y-13843D01*
X17678D01*
X17751Y-13879D01*
X17787Y-13916D01*
X17823Y-13988D01*
Y-14061D01*
X17787Y-14133D01*
X17714Y-14242D01*
X17352Y-14605D01*
X17859D01*
X8164Y-6405D02*
X8128Y-6332D01*
X8055Y-6259D01*
X7983Y-6223D01*
X7838D01*
X7765Y-6259D01*
X7693Y-6332D01*
X7656Y-6405D01*
X7620Y-6513D01*
Y-6695D01*
X7656Y-6804D01*
X7693Y-6876D01*
X7765Y-6949D01*
X7838Y-6985D01*
X7983D01*
X8055Y-6949D01*
X8128Y-6876D01*
X8164Y-6804D01*
X8378Y-6223D02*
Y-6985D01*
Y-6223D02*
X8886Y-6985D01*
Y-6223D02*
Y-6985D01*
X9459Y-6223D02*
X9097Y-6731D01*
X9641D01*
X9459Y-6223D02*
Y-6985D01*
X5396Y-23270D02*
X5359Y-23198D01*
X5287Y-23125D01*
X5214Y-23089D01*
X5069D01*
X4997Y-23125D01*
X4924Y-23198D01*
X4888Y-23270D01*
X4851Y-23379D01*
Y-23560D01*
X4888Y-23669D01*
X4924Y-23742D01*
X4997Y-23814D01*
X5069Y-23851D01*
X5214D01*
X5287Y-23814D01*
X5359Y-23742D01*
X5396Y-23669D01*
X5610Y-23089D02*
Y-23851D01*
Y-23089D02*
X6117Y-23851D01*
Y-23089D02*
Y-23851D01*
X6763Y-23089D02*
X6400D01*
X6364Y-23415D01*
X6400Y-23379D01*
X6509Y-23343D01*
X6618D01*
X6727Y-23379D01*
X6800Y-23452D01*
X6836Y-23560D01*
Y-23633D01*
X6800Y-23742D01*
X6727Y-23814D01*
X6618Y-23851D01*
X6509D01*
X6400Y-23814D01*
X6364Y-23778D01*
X6328Y-23705D01*
X48245Y-23270D02*
X48209Y-23198D01*
X48137Y-23125D01*
X48064Y-23089D01*
X47919D01*
X47846Y-23125D01*
X47774Y-23198D01*
X47737Y-23270D01*
X47701Y-23379D01*
Y-23560D01*
X47737Y-23669D01*
X47774Y-23742D01*
X47846Y-23814D01*
X47919Y-23851D01*
X48064D01*
X48137Y-23814D01*
X48209Y-23742D01*
X48245Y-23669D01*
X48459Y-23089D02*
Y-23851D01*
Y-23089D02*
X48967Y-23851D01*
Y-23089D02*
Y-23851D01*
X49613Y-23198D02*
X49577Y-23125D01*
X49468Y-23089D01*
X49395D01*
X49287Y-23125D01*
X49214Y-23234D01*
X49178Y-23415D01*
Y-23597D01*
X49214Y-23742D01*
X49287Y-23814D01*
X49395Y-23851D01*
X49432D01*
X49540Y-23814D01*
X49613Y-23742D01*
X49649Y-23633D01*
Y-23597D01*
X49613Y-23488D01*
X49540Y-23415D01*
X49432Y-23379D01*
X49395D01*
X49287Y-23415D01*
X49214Y-23488D01*
X49178Y-23597D01*
X8128Y-1143D02*
Y-1905D01*
X7874Y-1143D02*
X8382D01*
X8473Y-1542D02*
X8799D01*
X8908Y-1506D01*
X8944Y-1470D01*
X8980Y-1397D01*
Y-1288D01*
X8944Y-1216D01*
X8908Y-1179D01*
X8799Y-1143D01*
X8473D01*
Y-1905D01*
X9151Y-1288D02*
X9224Y-1252D01*
X9332Y-1143D01*
Y-1905D01*
X7834Y-25480D02*
X7798Y-25407D01*
X7725Y-25335D01*
X7653Y-25299D01*
X7507D01*
X7435Y-25335D01*
X7362Y-25407D01*
X7326Y-25480D01*
X7290Y-25589D01*
Y-25770D01*
X7326Y-25879D01*
X7362Y-25952D01*
X7435Y-26024D01*
X7507Y-26060D01*
X7653D01*
X7725Y-26024D01*
X7798Y-25952D01*
X7834Y-25879D01*
X8048Y-25299D02*
Y-26060D01*
Y-25299D02*
X8556Y-26060D01*
Y-25299D02*
Y-26060D01*
X9274Y-25299D02*
X8911Y-26060D01*
X8766Y-25299D02*
X9274D01*
X48322Y-27207D02*
X48285Y-27135D01*
X48213Y-27062D01*
X48140Y-27026D01*
X47995D01*
X47923Y-27062D01*
X47850Y-27135D01*
X47814Y-27207D01*
X47777Y-27316D01*
Y-27497D01*
X47814Y-27606D01*
X47850Y-27679D01*
X47923Y-27751D01*
X47995Y-27788D01*
X48140D01*
X48213Y-27751D01*
X48285Y-27679D01*
X48322Y-27606D01*
X48536Y-27026D02*
Y-27788D01*
Y-27026D02*
X49043Y-27788D01*
Y-27026D02*
Y-27788D01*
X49435Y-27026D02*
X49326Y-27062D01*
X49290Y-27135D01*
Y-27207D01*
X49326Y-27280D01*
X49399Y-27316D01*
X49544Y-27352D01*
X49653Y-27389D01*
X49726Y-27461D01*
X49762Y-27534D01*
Y-27642D01*
X49726Y-27715D01*
X49689Y-27751D01*
X49580Y-27788D01*
X49435D01*
X49326Y-27751D01*
X49290Y-27715D01*
X49254Y-27642D01*
Y-27534D01*
X49290Y-27461D01*
X49363Y-27389D01*
X49472Y-27352D01*
X49617Y-27316D01*
X49689Y-27280D01*
X49726Y-27207D01*
Y-27135D01*
X49689Y-27062D01*
X49580Y-27026D01*
X49435D01*
X43265Y-24511D02*
X43180Y-24553D01*
X43096Y-24638D01*
X43053Y-24723D01*
Y-24892D01*
X43096Y-24977D01*
X43180Y-25061D01*
X43265Y-25104D01*
X43392Y-25146D01*
X43603D01*
X43730Y-25104D01*
X43815Y-25061D01*
X43900Y-24977D01*
X43942Y-24892D01*
Y-24723D01*
X43900Y-24638D01*
X43815Y-24553D01*
X43730Y-24511D01*
X43603D01*
Y-24723D02*
Y-24511D01*
X43053Y-24308D02*
X43942D01*
X43053D02*
X43942Y-23715D01*
X43053D02*
X43942D01*
X43053Y-23470D02*
X43942D01*
X43053D02*
Y-23174D01*
X43096Y-23047D01*
X43180Y-22962D01*
X43265Y-22920D01*
X43392Y-22877D01*
X43603D01*
X43730Y-22920D01*
X43815Y-22962D01*
X43900Y-23047D01*
X43942Y-23174D01*
Y-23470D01*
X43053Y-27178D02*
Y-27601D01*
X43434Y-27644D01*
X43392Y-27601D01*
X43349Y-27474D01*
Y-27347D01*
X43392Y-27220D01*
X43476Y-27136D01*
X43603Y-27093D01*
X43688D01*
X43815Y-27136D01*
X43900Y-27220D01*
X43942Y-27347D01*
Y-27474D01*
X43900Y-27601D01*
X43857Y-27644D01*
X43773Y-27686D01*
X43053Y-26895D02*
X43942Y-26556D01*
X43053Y-26217D02*
X43942Y-26556D01*
X11007Y-24511D02*
X10922Y-24553D01*
X10838Y-24638D01*
X10795Y-24723D01*
Y-24892D01*
X10838Y-24977D01*
X10922Y-25061D01*
X11007Y-25104D01*
X11134Y-25146D01*
X11345D01*
X11472Y-25104D01*
X11557Y-25061D01*
X11642Y-24977D01*
X11684Y-24892D01*
Y-24723D01*
X11642Y-24638D01*
X11557Y-24553D01*
X11472Y-24511D01*
X11345D01*
Y-24723D02*
Y-24511D01*
X10795Y-24308D02*
X11684D01*
X10795D02*
X11684Y-23715D01*
X10795D02*
X11684D01*
X10795Y-23470D02*
X11684D01*
X10795D02*
Y-23174D01*
X10838Y-23047D01*
X10922Y-22962D01*
X11007Y-22920D01*
X11134Y-22877D01*
X11345D01*
X11472Y-22920D01*
X11557Y-22962D01*
X11642Y-23047D01*
X11684Y-23174D01*
Y-23470D01*
X10795Y-26924D02*
Y-27347D01*
X11176Y-27390D01*
X11134Y-27347D01*
X11091Y-27220D01*
Y-27093D01*
X11134Y-26966D01*
X11218Y-26882D01*
X11345Y-26839D01*
X11430D01*
X11557Y-26882D01*
X11642Y-26966D01*
X11684Y-27093D01*
Y-27220D01*
X11642Y-27347D01*
X11599Y-27390D01*
X11515Y-27432D01*
X10795Y-26641D02*
X11684Y-26302D01*
X10795Y-25963D02*
X11684Y-26302D01*
X45593Y-28702D02*
X46482D01*
X45593D02*
Y-28152D01*
X46016Y-28702D02*
Y-28363D01*
X45889Y-28050D02*
X46482D01*
X46143D02*
X46016Y-28008D01*
X45932Y-27923D01*
X45889Y-27839D01*
Y-27712D01*
Y-27420D02*
X45932Y-27504D01*
X46016Y-27589D01*
X46143Y-27631D01*
X46228D01*
X46355Y-27589D01*
X46440Y-27504D01*
X46482Y-27420D01*
Y-27293D01*
X46440Y-27208D01*
X46355Y-27123D01*
X46228Y-27081D01*
X46143D01*
X46016Y-27123D01*
X45932Y-27208D01*
X45889Y-27293D01*
Y-27420D01*
Y-26886D02*
X46482D01*
X46059D02*
X45932Y-26759D01*
X45889Y-26675D01*
Y-26548D01*
X45932Y-26463D01*
X46059Y-26421D01*
X46482D01*
X46059D02*
X45932Y-26294D01*
X45889Y-26209D01*
Y-26082D01*
X45932Y-25997D01*
X46059Y-25955D01*
X46482D01*
X45805Y-24343D02*
X45720Y-24385D01*
X45636Y-24470D01*
X45593Y-24554D01*
Y-24724D01*
X45636Y-24808D01*
X45720Y-24893D01*
X45805Y-24935D01*
X45932Y-24977D01*
X46143D01*
X46270Y-24935D01*
X46355Y-24893D01*
X46440Y-24808D01*
X46482Y-24724D01*
Y-24554D01*
X46440Y-24470D01*
X46355Y-24385D01*
X46270Y-24343D01*
X45593Y-24093D02*
X46482D01*
X45593D02*
X46482Y-23500D01*
X45593D02*
X46482D01*
X45762Y-23255D02*
X45720Y-23170D01*
X45593Y-23043D01*
X46482D01*
X42926Y-41698D02*
X43011Y-41656D01*
X43138Y-41529D01*
Y-42418D01*
X43662Y-41529D02*
X44128D01*
X43874Y-41868D01*
X44001D01*
X44086Y-41910D01*
X44128Y-41952D01*
X44170Y-42079D01*
Y-42164D01*
X44128Y-42291D01*
X44043Y-42376D01*
X43916Y-42418D01*
X43789D01*
X43662Y-42376D01*
X43620Y-42333D01*
X43578Y-42249D01*
X42926Y-39158D02*
X43011Y-39116D01*
X43138Y-38989D01*
Y-39878D01*
X43620Y-39201D02*
Y-39158D01*
X43662Y-39074D01*
X43705Y-39032D01*
X43789Y-38989D01*
X43959D01*
X44043Y-39032D01*
X44086Y-39074D01*
X44128Y-39158D01*
Y-39243D01*
X44086Y-39328D01*
X44001Y-39455D01*
X43578Y-39878D01*
X44170D01*
X42926Y-36618D02*
X43011Y-36576D01*
X43138Y-36449D01*
Y-37338D01*
Y-28829D02*
X43011Y-28872D01*
X42968Y-28956D01*
Y-29041D01*
X43011Y-29125D01*
X43095Y-29168D01*
X43265Y-29210D01*
X43392Y-29252D01*
X43476Y-29337D01*
X43519Y-29422D01*
Y-29549D01*
X43476Y-29633D01*
X43434Y-29676D01*
X43307Y-29718D01*
X43138D01*
X43011Y-29676D01*
X42968Y-29633D01*
X42926Y-29549D01*
Y-29422D01*
X42968Y-29337D01*
X43053Y-29252D01*
X43180Y-29210D01*
X43349Y-29168D01*
X43434Y-29125D01*
X43476Y-29041D01*
Y-28956D01*
X43434Y-28872D01*
X43307Y-28829D01*
X43138D01*
X43476Y-31665D02*
X43434Y-31792D01*
X43349Y-31877D01*
X43222Y-31919D01*
X43180D01*
X43053Y-31877D01*
X42968Y-31792D01*
X42926Y-31665D01*
Y-31623D01*
X42968Y-31496D01*
X43053Y-31412D01*
X43180Y-31369D01*
X43222D01*
X43349Y-31412D01*
X43434Y-31496D01*
X43476Y-31665D01*
Y-31877D01*
X43434Y-32089D01*
X43349Y-32216D01*
X43222Y-32258D01*
X43138D01*
X43011Y-32216D01*
X42968Y-32131D01*
X43349Y-33909D02*
X42926Y-34502D01*
X43561D01*
X43349Y-33909D02*
Y-34798D01*
X42926Y-21378D02*
X43011Y-21336D01*
X43138Y-21209D01*
Y-22098D01*
X44170Y-21209D02*
X43747Y-22098D01*
X43578Y-21209D02*
X44170D01*
X42926Y-18838D02*
X43011Y-18796D01*
X43138Y-18669D01*
Y-19558D01*
X43789Y-18669D02*
X43662Y-18712D01*
X43620Y-18796D01*
Y-18881D01*
X43662Y-18965D01*
X43747Y-19008D01*
X43916Y-19050D01*
X44043Y-19092D01*
X44128Y-19177D01*
X44170Y-19262D01*
Y-19389D01*
X44128Y-19473D01*
X44086Y-19516D01*
X43959Y-19558D01*
X43789D01*
X43662Y-19516D01*
X43620Y-19473D01*
X43578Y-19389D01*
Y-19262D01*
X43620Y-19177D01*
X43705Y-19092D01*
X43832Y-19050D01*
X44001Y-19008D01*
X44086Y-18965D01*
X44128Y-18881D01*
Y-18796D01*
X44086Y-18712D01*
X43959Y-18669D01*
X43789D01*
X10456Y-18881D02*
Y-18838D01*
X10499Y-18754D01*
X10541Y-18712D01*
X10626Y-18669D01*
X10795D01*
X10880Y-18712D01*
X10922Y-18754D01*
X10964Y-18838D01*
Y-18923D01*
X10922Y-19008D01*
X10837Y-19135D01*
X10414Y-19558D01*
X11007D01*
X11459Y-18669D02*
X11332Y-18712D01*
X11248Y-18838D01*
X11205Y-19050D01*
Y-19177D01*
X11248Y-19389D01*
X11332Y-19516D01*
X11459Y-19558D01*
X11544D01*
X11671Y-19516D01*
X11756Y-19389D01*
X11798Y-19177D01*
Y-19050D01*
X11756Y-18838D01*
X11671Y-18712D01*
X11544Y-18669D01*
X11459D01*
X10414Y-21378D02*
X10499Y-21336D01*
X10626Y-21209D01*
Y-22098D01*
X11616Y-21505D02*
X11574Y-21632D01*
X11489Y-21717D01*
X11362Y-21759D01*
X11320D01*
X11193Y-21717D01*
X11108Y-21632D01*
X11066Y-21505D01*
Y-21463D01*
X11108Y-21336D01*
X11193Y-21252D01*
X11320Y-21209D01*
X11362D01*
X11489Y-21252D01*
X11574Y-21336D01*
X11616Y-21505D01*
Y-21717D01*
X11574Y-21929D01*
X11489Y-22056D01*
X11362Y-22098D01*
X11277D01*
X11150Y-22056D01*
X11108Y-21971D01*
X10499Y-36449D02*
X10964D01*
X10710Y-36788D01*
X10837D01*
X10922Y-36830D01*
X10964Y-36872D01*
X11007Y-36999D01*
Y-37084D01*
X10964Y-37211D01*
X10880Y-37296D01*
X10753Y-37338D01*
X10626D01*
X10499Y-37296D01*
X10456Y-37253D01*
X10414Y-37169D01*
X11007Y-31369D02*
X10583Y-32258D01*
X10414Y-31369D02*
X11007D01*
X10414Y-28998D02*
X10499Y-28956D01*
X10626Y-28829D01*
Y-29718D01*
X11320Y-28829D02*
X11193Y-28872D01*
X11108Y-28998D01*
X11066Y-29210D01*
Y-29337D01*
X11108Y-29549D01*
X11193Y-29676D01*
X11320Y-29718D01*
X11404D01*
X11531Y-29676D01*
X11616Y-29549D01*
X11658Y-29337D01*
Y-29210D01*
X11616Y-28998D01*
X11531Y-28872D01*
X11404Y-28829D01*
X11320D01*
X10456Y-33994D02*
Y-33951D01*
X10499Y-33867D01*
X10541Y-33825D01*
X10626Y-33782D01*
X10795D01*
X10880Y-33825D01*
X10922Y-33867D01*
X10964Y-33951D01*
Y-34036D01*
X10922Y-34121D01*
X10837Y-34248D01*
X10414Y-34671D01*
X11007D01*
X10414Y-39158D02*
X10499Y-39116D01*
X10626Y-38989D01*
Y-39878D01*
X11066Y-39158D02*
X11150Y-39116D01*
X11277Y-38989D01*
Y-39878D01*
X10414Y-41698D02*
X10499Y-41656D01*
X10626Y-41529D01*
Y-42418D01*
X11489Y-41529D02*
X11066Y-42122D01*
X11701D01*
X11489Y-41529D02*
Y-42418D01*
X19050Y-14859D02*
Y-15282D01*
X19431Y-15325D01*
X19389Y-15282D01*
X19346Y-15155D01*
Y-15028D01*
X19389Y-14901D01*
X19473Y-14817D01*
X19600Y-14774D01*
X19685D01*
X19812Y-14817D01*
X19897Y-14901D01*
X19939Y-15028D01*
Y-15155D01*
X19897Y-15282D01*
X19854Y-15325D01*
X19770Y-15367D01*
X19050Y-14576D02*
X19939Y-14237D01*
X19050Y-13898D02*
X19939Y-14237D01*
X28194Y-15536D02*
Y-15071D01*
X28533Y-15325D01*
Y-15198D01*
X28575Y-15113D01*
X28617Y-15071D01*
X28744Y-15028D01*
X28829D01*
X28956Y-15071D01*
X29041Y-15155D01*
X29083Y-15282D01*
Y-15409D01*
X29041Y-15536D01*
X28998Y-15579D01*
X28914Y-15621D01*
X28194Y-14830D02*
X29083Y-14491D01*
X28194Y-14152D02*
X29083Y-14491D01*
X28194Y-13953D02*
Y-13488D01*
X28533Y-13742D01*
Y-13615D01*
X28575Y-13530D01*
X28617Y-13488D01*
X28744Y-13446D01*
X28829D01*
X28956Y-13488D01*
X29041Y-13573D01*
X29083Y-13699D01*
Y-13826D01*
X29041Y-13953D01*
X28998Y-13996D01*
X28914Y-14038D01*
X8255Y-24384D02*
X9144D01*
X8255D02*
Y-23834D01*
X8678Y-24384D02*
Y-24045D01*
X8551Y-23732D02*
X9144D01*
X8805D02*
X8678Y-23690D01*
X8594Y-23605D01*
X8551Y-23521D01*
Y-23394D01*
Y-23102D02*
X8594Y-23186D01*
X8678Y-23271D01*
X8805Y-23313D01*
X8890D01*
X9017Y-23271D01*
X9102Y-23186D01*
X9144Y-23102D01*
Y-22975D01*
X9102Y-22890D01*
X9017Y-22805D01*
X8890Y-22763D01*
X8805D01*
X8678Y-22805D01*
X8594Y-22890D01*
X8551Y-22975D01*
Y-23102D01*
Y-22568D02*
X9144D01*
X8721D02*
X8594Y-22441D01*
X8551Y-22357D01*
Y-22230D01*
X8594Y-22145D01*
X8721Y-22103D01*
X9144D01*
X8721D02*
X8594Y-21976D01*
X8551Y-21891D01*
Y-21764D01*
X8594Y-21679D01*
X8721Y-21637D01*
X9144D01*
X8467Y-20025D02*
X8382Y-20067D01*
X8298Y-20152D01*
X8255Y-20236D01*
Y-20406D01*
X8298Y-20490D01*
X8382Y-20575D01*
X8467Y-20617D01*
X8594Y-20659D01*
X8805D01*
X8932Y-20617D01*
X9017Y-20575D01*
X9102Y-20490D01*
X9144Y-20406D01*
Y-20236D01*
X9102Y-20152D01*
X9017Y-20067D01*
X8932Y-20025D01*
X8255Y-19775D02*
X9144D01*
X8255D02*
X9144Y-19182D01*
X8255D02*
X9144D01*
X8424Y-18937D02*
X8382Y-18852D01*
X8255Y-18725D01*
X9144D01*
X18119Y-43434D02*
Y-43053D01*
X18076Y-42926D01*
X18034Y-42884D01*
X17949Y-42841D01*
X17822D01*
X17738Y-42884D01*
X17696Y-42926D01*
X17653Y-43053D01*
Y-43434D01*
X18542D01*
X17653Y-42643D02*
X18542Y-42431D01*
X17653Y-42219D02*
X18542Y-42431D01*
X17653Y-42219D02*
X18542Y-42008D01*
X17653Y-41796D02*
X18542Y-42008D01*
X17653Y-41618D02*
X18542D01*
X17653D02*
X18542Y-41280D01*
X17653Y-40941D02*
X18542Y-41280D01*
X17653Y-40941D02*
X18542D01*
X17653Y-40132D02*
X18542D01*
X17653Y-39946D02*
X18542D01*
X17653D02*
X18542Y-39353D01*
X17653D02*
X18542D01*
X17653Y-38811D02*
X18542D01*
X17653Y-39108D02*
Y-38515D01*
Y-37592D02*
X18542D01*
X17653D02*
Y-37211D01*
X17696Y-37084D01*
X17738Y-37042D01*
X17822Y-36999D01*
X17907D01*
X17992Y-37042D01*
X18034Y-37084D01*
X18076Y-37211D01*
Y-37592D01*
Y-37296D02*
X18542Y-36999D01*
X17653Y-36801D02*
X18542Y-36208D01*
X17653D02*
X18542Y-36801D01*
X17653Y-34756D02*
X18542D01*
X17653Y-35052D02*
Y-34459D01*
Y-34354D02*
X18542Y-33761D01*
X17653D02*
X18542Y-34354D01*
X17780Y-32173D02*
X17696Y-32258D01*
X17653Y-32385D01*
Y-32554D01*
X17696Y-32681D01*
X17780Y-32766D01*
X17865D01*
X17949Y-32724D01*
X17992Y-32681D01*
X18034Y-32597D01*
X18119Y-32343D01*
X18161Y-32258D01*
X18203Y-32216D01*
X18288Y-32173D01*
X18415D01*
X18500Y-32258D01*
X18542Y-32385D01*
Y-32554D01*
X18500Y-32681D01*
X18415Y-32766D01*
X17865Y-31340D02*
X17780Y-31382D01*
X17696Y-31467D01*
X17653Y-31551D01*
Y-31721D01*
X17696Y-31805D01*
X17780Y-31890D01*
X17865Y-31932D01*
X17992Y-31975D01*
X18203D01*
X18330Y-31932D01*
X18415Y-31890D01*
X18500Y-31805D01*
X18542Y-31721D01*
Y-31551D01*
X18500Y-31467D01*
X18415Y-31382D01*
X18330Y-31340D01*
X17653Y-31090D02*
X18542D01*
Y-30582D01*
X17780Y-29633D02*
X17696Y-29718D01*
X17653Y-29845D01*
Y-30014D01*
X17696Y-30141D01*
X17780Y-30226D01*
X17865D01*
X17949Y-30184D01*
X17992Y-30141D01*
X18034Y-30057D01*
X18119Y-29803D01*
X18161Y-29718D01*
X18203Y-29676D01*
X18288Y-29633D01*
X18415D01*
X18500Y-29718D01*
X18542Y-29845D01*
Y-30014D01*
X18500Y-30141D01*
X18415Y-30226D01*
X17653Y-29435D02*
X18542D01*
X17653D02*
Y-29138D01*
X17696Y-29011D01*
X17780Y-28927D01*
X17865Y-28884D01*
X17992Y-28842D01*
X18203D01*
X18330Y-28884D01*
X18415Y-28927D01*
X18500Y-29011D01*
X18542Y-29138D01*
Y-29435D01*
Y-27966D02*
X17653Y-28304D01*
X18542Y-28643D01*
X18246Y-28516D02*
Y-28093D01*
X17653Y-26924D02*
Y-27347D01*
X18034Y-27390D01*
X17992Y-27347D01*
X17949Y-27220D01*
Y-27093D01*
X17992Y-26966D01*
X18076Y-26882D01*
X18203Y-26839D01*
X18288D01*
X18415Y-26882D01*
X18500Y-26966D01*
X18542Y-27093D01*
Y-27220D01*
X18500Y-27347D01*
X18457Y-27390D01*
X18373Y-27432D01*
X17653Y-26641D02*
X18542Y-26302D01*
X17653Y-25963D02*
X18542Y-26302D01*
X17865Y-24511D02*
X17780Y-24553D01*
X17696Y-24638D01*
X17653Y-24723D01*
Y-24892D01*
X17696Y-24977D01*
X17780Y-25061D01*
X17865Y-25104D01*
X17992Y-25146D01*
X18203D01*
X18330Y-25104D01*
X18415Y-25061D01*
X18500Y-24977D01*
X18542Y-24892D01*
Y-24723D01*
X18500Y-24638D01*
X18415Y-24553D01*
X18330Y-24511D01*
X18203D01*
Y-24723D02*
Y-24511D01*
X17653Y-24308D02*
X18542D01*
X17653D02*
X18542Y-23715D01*
X17653D02*
X18542D01*
X17653Y-23470D02*
X18542D01*
X17653D02*
Y-23174D01*
X17696Y-23047D01*
X17780Y-22962D01*
X17865Y-22920D01*
X17992Y-22877D01*
X18203D01*
X18330Y-22920D01*
X18415Y-22962D01*
X18500Y-23047D01*
X18542Y-23174D01*
Y-23470D01*
X36407Y-24511D02*
X36322Y-24553D01*
X36238Y-24638D01*
X36195Y-24723D01*
Y-24892D01*
X36238Y-24977D01*
X36322Y-25061D01*
X36407Y-25104D01*
X36534Y-25146D01*
X36745D01*
X36872Y-25104D01*
X36957Y-25061D01*
X37042Y-24977D01*
X37084Y-24892D01*
Y-24723D01*
X37042Y-24638D01*
X36957Y-24553D01*
X36872Y-24511D01*
X36745D01*
Y-24723D02*
Y-24511D01*
X36195Y-24308D02*
X37084D01*
X36195D02*
X37084Y-23715D01*
X36195D02*
X37084D01*
X36195Y-23470D02*
X37084D01*
X36195D02*
Y-23174D01*
X36238Y-23047D01*
X36322Y-22962D01*
X36407Y-22920D01*
X36534Y-22877D01*
X36745D01*
X36872Y-22920D01*
X36957Y-22962D01*
X37042Y-23047D01*
X37084Y-23174D01*
Y-23470D01*
X36195Y-27601D02*
Y-27136D01*
X36534Y-27390D01*
Y-27263D01*
X36576Y-27178D01*
X36618Y-27136D01*
X36745Y-27093D01*
X36830D01*
X36957Y-27136D01*
X37042Y-27220D01*
X37084Y-27347D01*
Y-27474D01*
X37042Y-27601D01*
X36999Y-27644D01*
X36915Y-27686D01*
X36195Y-26895D02*
X37084Y-26556D01*
X36195Y-26217D02*
X37084Y-26556D01*
X36195Y-26018D02*
Y-25553D01*
X36534Y-25807D01*
Y-25680D01*
X36576Y-25595D01*
X36618Y-25553D01*
X36745Y-25511D01*
X36830D01*
X36957Y-25553D01*
X37042Y-25638D01*
X37084Y-25764D01*
Y-25891D01*
X37042Y-26018D01*
X36999Y-26061D01*
X36915Y-26103D01*
X36068Y-30226D02*
X36830D01*
X36068D02*
X36830Y-29936D01*
X36068Y-29646D02*
X36830Y-29936D01*
X36068Y-29646D02*
X36830D01*
X36068Y-29210D02*
X36104Y-29283D01*
X36177Y-29355D01*
X36250Y-29392D01*
X36358Y-29428D01*
X36540D01*
X36649Y-29392D01*
X36721Y-29355D01*
X36794Y-29283D01*
X36830Y-29210D01*
Y-29065D01*
X36794Y-28993D01*
X36721Y-28920D01*
X36649Y-28884D01*
X36540Y-28847D01*
X36358D01*
X36250Y-28884D01*
X36177Y-28920D01*
X36104Y-28993D01*
X36068Y-29065D01*
Y-29210D01*
X36177Y-28162D02*
X36104Y-28234D01*
X36068Y-28343D01*
Y-28488D01*
X36104Y-28597D01*
X36177Y-28670D01*
X36250D01*
X36322Y-28633D01*
X36358Y-28597D01*
X36395Y-28525D01*
X36467Y-28307D01*
X36504Y-28234D01*
X36540Y-28198D01*
X36612Y-28162D01*
X36721D01*
X36794Y-28234D01*
X36830Y-28343D01*
Y-28488D01*
X36794Y-28597D01*
X36721Y-28670D01*
X36068Y-27991D02*
X36830D01*
X36068Y-32766D02*
X36830D01*
X36068D02*
X36830Y-32476D01*
X36068Y-32186D02*
X36830Y-32476D01*
X36068Y-32186D02*
X36830D01*
X36068Y-31968D02*
X36830D01*
X36177Y-31300D02*
X36104Y-31373D01*
X36068Y-31482D01*
Y-31627D01*
X36104Y-31736D01*
X36177Y-31808D01*
X36250D01*
X36322Y-31772D01*
X36358Y-31736D01*
X36395Y-31663D01*
X36467Y-31445D01*
X36504Y-31373D01*
X36540Y-31337D01*
X36612Y-31300D01*
X36721D01*
X36794Y-31373D01*
X36830Y-31482D01*
Y-31627D01*
X36794Y-31736D01*
X36721Y-31808D01*
X36068Y-30912D02*
X36104Y-30985D01*
X36177Y-31057D01*
X36250Y-31094D01*
X36358Y-31130D01*
X36540D01*
X36649Y-31094D01*
X36721Y-31057D01*
X36794Y-30985D01*
X36830Y-30912D01*
Y-30767D01*
X36794Y-30695D01*
X36721Y-30622D01*
X36649Y-30586D01*
X36540Y-30549D01*
X36358D01*
X36250Y-30586D01*
X36177Y-30622D01*
X36104Y-30695D01*
X36068Y-30767D01*
Y-30912D01*
X36322Y-34713D02*
X36238Y-34798D01*
X36195Y-34925D01*
Y-35094D01*
X36238Y-35221D01*
X36322Y-35306D01*
X36407D01*
X36491Y-35264D01*
X36534Y-35221D01*
X36576Y-35137D01*
X36661Y-34883D01*
X36703Y-34798D01*
X36745Y-34756D01*
X36830Y-34713D01*
X36957D01*
X37042Y-34798D01*
X37084Y-34925D01*
Y-35094D01*
X37042Y-35221D01*
X36957Y-35306D01*
X36407Y-33880D02*
X36322Y-33922D01*
X36238Y-34007D01*
X36195Y-34091D01*
Y-34261D01*
X36238Y-34345D01*
X36322Y-34430D01*
X36407Y-34472D01*
X36534Y-34515D01*
X36745D01*
X36872Y-34472D01*
X36957Y-34430D01*
X37042Y-34345D01*
X37084Y-34261D01*
Y-34091D01*
X37042Y-34007D01*
X36957Y-33922D01*
X36872Y-33880D01*
X36195Y-33630D02*
X37084D01*
X36195Y-33037D02*
X36788Y-33630D01*
X36576Y-33418D02*
X37084Y-33037D01*
X36407Y-36957D02*
X36322Y-36999D01*
X36238Y-37084D01*
X36195Y-37169D01*
Y-37338D01*
X36238Y-37423D01*
X36322Y-37507D01*
X36407Y-37550D01*
X36534Y-37592D01*
X36745D01*
X36872Y-37550D01*
X36957Y-37507D01*
X37042Y-37423D01*
X37084Y-37338D01*
Y-37169D01*
X37042Y-37084D01*
X36957Y-36999D01*
X36872Y-36957D01*
X36322Y-36115D02*
X36238Y-36200D01*
X36195Y-36326D01*
Y-36496D01*
X36238Y-36623D01*
X36322Y-36707D01*
X36407D01*
X36491Y-36665D01*
X36534Y-36623D01*
X36576Y-36538D01*
X36661Y-36284D01*
X36703Y-36200D01*
X36745Y-36157D01*
X36830Y-36115D01*
X36957D01*
X37042Y-36200D01*
X37084Y-36326D01*
Y-36496D01*
X37042Y-36623D01*
X36957Y-36707D01*
X36195Y-40386D02*
X37084D01*
X36195D02*
Y-40005D01*
X36238Y-39878D01*
X36280Y-39836D01*
X36364Y-39793D01*
X36449D01*
X36534Y-39836D01*
X36576Y-39878D01*
X36618Y-40005D01*
Y-40386D01*
Y-40090D02*
X37084Y-39793D01*
X36322Y-39002D02*
X36238Y-39087D01*
X36195Y-39214D01*
Y-39383D01*
X36238Y-39510D01*
X36322Y-39595D01*
X36407D01*
X36491Y-39552D01*
X36534Y-39510D01*
X36576Y-39425D01*
X36661Y-39171D01*
X36703Y-39087D01*
X36745Y-39044D01*
X36830Y-39002D01*
X36957D01*
X37042Y-39087D01*
X37084Y-39214D01*
Y-39383D01*
X37042Y-39510D01*
X36957Y-39595D01*
X36195Y-38507D02*
X37084D01*
X36195Y-38803D02*
Y-38211D01*
X37084Y-42249D02*
X36195Y-42587D01*
X37084Y-42926D01*
X36788Y-42799D02*
Y-42376D01*
X36195Y-42041D02*
X37084D01*
X36195D02*
X37084Y-41449D01*
X36195D02*
X37084D01*
X47879Y-19050D02*
X47456D01*
X47413Y-19431D01*
X47456Y-19389D01*
X47583Y-19346D01*
X47710D01*
X47837Y-19389D01*
X47921Y-19473D01*
X47964Y-19600D01*
Y-19685D01*
X47921Y-19812D01*
X47837Y-19897D01*
X47710Y-19939D01*
X47583D01*
X47456Y-19897D01*
X47413Y-19854D01*
X47371Y-19770D01*
X48162Y-19050D02*
X48501Y-19939D01*
X48840Y-19050D02*
X48501Y-19939D01*
X1990Y-27051D02*
X2455D01*
X2201Y-27390D01*
X2328D01*
X2413Y-27432D01*
X2455Y-27474D01*
X2498Y-27601D01*
Y-27686D01*
X2455Y-27813D01*
X2371Y-27898D01*
X2244Y-27940D01*
X2117D01*
X1990Y-27898D01*
X1947Y-27855D01*
X1905Y-27771D01*
X2696Y-27051D02*
X3035Y-27940D01*
X3374Y-27051D02*
X3035Y-27940D01*
X3573Y-27051D02*
X4038D01*
X3784Y-27390D01*
X3911D01*
X3996Y-27432D01*
X4038Y-27474D01*
X4080Y-27601D01*
Y-27686D01*
X4038Y-27813D01*
X3953Y-27898D01*
X3827Y-27940D01*
X3700D01*
X3573Y-27898D01*
X3530Y-27855D01*
X3488Y-27771D01*
X5461Y-27263D02*
X5419Y-27178D01*
X5334Y-27094D01*
X5249Y-27051D01*
X5080D01*
X4995Y-27094D01*
X4911Y-27178D01*
X4868Y-27263D01*
X4826Y-27390D01*
Y-27601D01*
X4868Y-27728D01*
X4911Y-27813D01*
X4995Y-27898D01*
X5080Y-27940D01*
X5249D01*
X5334Y-27898D01*
X5419Y-27813D01*
X5461Y-27728D01*
Y-27601D01*
X5249D02*
X5461D01*
X5664Y-27051D02*
Y-27940D01*
Y-27051D02*
X6257Y-27940D01*
Y-27051D02*
Y-27940D01*
X6502Y-27051D02*
Y-27940D01*
Y-27051D02*
X6798D01*
X6925Y-27094D01*
X7010Y-27178D01*
X7052Y-27263D01*
X7095Y-27390D01*
Y-27601D01*
X7052Y-27728D01*
X7010Y-27813D01*
X6925Y-27898D01*
X6798Y-27940D01*
X6502D01*
X51308Y-19262D02*
X51266Y-19177D01*
X51181Y-19093D01*
X51096Y-19050D01*
X50927D01*
X50842Y-19093D01*
X50758Y-19177D01*
X50715Y-19262D01*
X50673Y-19389D01*
Y-19600D01*
X50715Y-19727D01*
X50758Y-19812D01*
X50842Y-19897D01*
X50927Y-19939D01*
X51096D01*
X51181Y-19897D01*
X51266Y-19812D01*
X51308Y-19727D01*
Y-19600D01*
X51096D02*
X51308D01*
X51511Y-19050D02*
Y-19939D01*
Y-19050D02*
X52104Y-19939D01*
Y-19050D02*
Y-19939D01*
X52349Y-19050D02*
Y-19939D01*
Y-19050D02*
X52645D01*
X52772Y-19093D01*
X52857Y-19177D01*
X52899Y-19262D01*
X52942Y-19389D01*
Y-19600D01*
X52899Y-19727D01*
X52857Y-19812D01*
X52772Y-19897D01*
X52645Y-19939D01*
X52349D01*
X44154Y-6731D02*
X44069Y-6647D01*
X43942Y-6604D01*
X43773D01*
X43646Y-6647D01*
X43561Y-6731D01*
Y-6816D01*
X43603Y-6900D01*
X43646Y-6943D01*
X43730Y-6985D01*
X43984Y-7070D01*
X44069Y-7112D01*
X44111Y-7154D01*
X44154Y-7239D01*
Y-7366D01*
X44069Y-7451D01*
X43942Y-7493D01*
X43773D01*
X43646Y-7451D01*
X43561Y-7366D01*
X44352Y-6604D02*
Y-7493D01*
Y-6604D02*
X44649D01*
X44776Y-6647D01*
X44860Y-6731D01*
X44903Y-6816D01*
X44945Y-6943D01*
Y-7154D01*
X44903Y-7281D01*
X44860Y-7366D01*
X44776Y-7451D01*
X44649Y-7493D01*
X44352D01*
X45821D02*
X45483Y-6604D01*
X45144Y-7493D01*
X45271Y-7197D02*
X45694D01*
X44154Y-4699D02*
X44069Y-4615D01*
X43942Y-4572D01*
X43773D01*
X43646Y-4615D01*
X43561Y-4699D01*
Y-4784D01*
X43603Y-4868D01*
X43646Y-4911D01*
X43730Y-4953D01*
X43984Y-5038D01*
X44069Y-5080D01*
X44111Y-5122D01*
X44154Y-5207D01*
Y-5334D01*
X44069Y-5419D01*
X43942Y-5461D01*
X43773D01*
X43646Y-5419D01*
X43561Y-5334D01*
X44987Y-4784D02*
X44945Y-4699D01*
X44860Y-4615D01*
X44776Y-4572D01*
X44606D01*
X44522Y-4615D01*
X44437Y-4699D01*
X44395Y-4784D01*
X44352Y-4911D01*
Y-5122D01*
X44395Y-5249D01*
X44437Y-5334D01*
X44522Y-5419D01*
X44606Y-5461D01*
X44776D01*
X44860Y-5419D01*
X44945Y-5334D01*
X44987Y-5249D01*
X45237Y-4572D02*
Y-5461D01*
X45745D01*
X44069Y-8763D02*
X44408Y-9652D01*
X44746Y-8763D02*
X44408Y-9652D01*
X45495Y-8975D02*
X45453Y-8890D01*
X45368Y-8806D01*
X45284Y-8763D01*
X45114D01*
X45030Y-8806D01*
X44945Y-8890D01*
X44903Y-8975D01*
X44860Y-9102D01*
Y-9313D01*
X44903Y-9440D01*
X44945Y-9525D01*
X45030Y-9610D01*
X45114Y-9652D01*
X45284D01*
X45368Y-9610D01*
X45453Y-9525D01*
X45495Y-9440D01*
X46380Y-8975D02*
X46338Y-8890D01*
X46253Y-8806D01*
X46168Y-8763D01*
X45999D01*
X45914Y-8806D01*
X45830Y-8890D01*
X45787Y-8975D01*
X45745Y-9102D01*
Y-9313D01*
X45787Y-9440D01*
X45830Y-9525D01*
X45914Y-9610D01*
X45999Y-9652D01*
X46168D01*
X46253Y-9610D01*
X46338Y-9525D01*
X46380Y-9440D01*
X45339Y-12023D02*
X45297Y-11938D01*
X45212Y-11854D01*
X45127Y-11811D01*
X44958D01*
X44873Y-11854D01*
X44789Y-11938D01*
X44746Y-12023D01*
X44704Y-12150D01*
Y-12361D01*
X44746Y-12488D01*
X44789Y-12573D01*
X44873Y-12658D01*
X44958Y-12700D01*
X45127D01*
X45212Y-12658D01*
X45297Y-12573D01*
X45339Y-12488D01*
Y-12361D01*
X45127D02*
X45339D01*
X45542Y-11811D02*
Y-12700D01*
Y-11811D02*
X46135Y-12700D01*
Y-11811D02*
Y-12700D01*
X46380Y-11811D02*
Y-12700D01*
Y-11811D02*
X46676D01*
X46803Y-11854D01*
X46888Y-11938D01*
X46930Y-12023D01*
X46973Y-12150D01*
Y-12361D01*
X46930Y-12488D01*
X46888Y-12573D01*
X46803Y-12658D01*
X46676Y-12700D01*
X46380D01*
X18923Y-5927D02*
X18881Y-5842D01*
X18796Y-5758D01*
X18711Y-5715D01*
X18542D01*
X18457Y-5758D01*
X18373Y-5842D01*
X18330Y-5927D01*
X18288Y-6054D01*
Y-6265D01*
X18330Y-6392D01*
X18373Y-6477D01*
X18457Y-6562D01*
X18542Y-6604D01*
X18711D01*
X18796Y-6562D01*
X18881Y-6477D01*
X18923Y-6392D01*
Y-6265D01*
X18711D02*
X18923D01*
X19126Y-5715D02*
Y-6604D01*
Y-5715D02*
X19719Y-6604D01*
Y-5715D02*
Y-6604D01*
X19964Y-5715D02*
Y-6604D01*
Y-5715D02*
X20260D01*
X20387Y-5758D01*
X20472Y-5842D01*
X20514Y-5927D01*
X20557Y-6054D01*
Y-6265D01*
X20514Y-6392D01*
X20472Y-6477D01*
X20387Y-6562D01*
X20260Y-6604D01*
X19964D01*
X18415Y-7366D02*
X18754Y-8255D01*
X19092Y-7366D02*
X18754Y-8255D01*
X19841Y-7578D02*
X19799Y-7493D01*
X19714Y-7409D01*
X19630Y-7366D01*
X19460D01*
X19376Y-7409D01*
X19291Y-7493D01*
X19249Y-7578D01*
X19206Y-7705D01*
Y-7916D01*
X19249Y-8043D01*
X19291Y-8128D01*
X19376Y-8213D01*
X19460Y-8255D01*
X19630D01*
X19714Y-8213D01*
X19799Y-8128D01*
X19841Y-8043D01*
X20726Y-7578D02*
X20684Y-7493D01*
X20599Y-7409D01*
X20514Y-7366D01*
X20345D01*
X20260Y-7409D01*
X20176Y-7493D01*
X20133Y-7578D01*
X20091Y-7705D01*
Y-7916D01*
X20133Y-8043D01*
X20176Y-8128D01*
X20260Y-8213D01*
X20345Y-8255D01*
X20514D01*
X20599Y-8213D01*
X20684Y-8128D01*
X20726Y-8043D01*
X18711Y-9271D02*
Y-10160D01*
X18415Y-9271D02*
X19008D01*
X19113D02*
X19706Y-10160D01*
Y-9271D02*
X19113Y-10160D01*
X18415Y-11176D02*
Y-12065D01*
Y-11176D02*
X18796D01*
X18923Y-11219D01*
X18965Y-11261D01*
X19008Y-11345D01*
Y-11430D01*
X18965Y-11515D01*
X18923Y-11557D01*
X18796Y-11599D01*
X18415D01*
X18711D02*
X19008Y-12065D01*
X19206Y-11176D02*
X19799Y-12065D01*
Y-11176D02*
X19206Y-12065D01*
X931Y-8382D02*
Y-9271D01*
X635Y-8382D02*
X1228D01*
X1333D02*
X1926Y-9271D01*
Y-8382D02*
X1333Y-9271D01*
X8255Y-16891D02*
Y-17780D01*
Y-16891D02*
X8636D01*
X8763Y-16934D01*
X8805Y-16976D01*
X8848Y-17060D01*
Y-17145D01*
X8805Y-17230D01*
X8763Y-17272D01*
X8636Y-17314D01*
X8255D01*
X8551D02*
X8848Y-17780D01*
X9046Y-16891D02*
X9639Y-17780D01*
Y-16891D02*
X9046Y-17780D01*
X8213Y-15875D02*
X8128Y-15917D01*
X8044Y-16002D01*
X8001Y-16087D01*
Y-16256D01*
X8044Y-16341D01*
X8128Y-16425D01*
X8213Y-16468D01*
X8340Y-16510D01*
X8551D01*
X8678Y-16468D01*
X8763Y-16425D01*
X8848Y-16341D01*
X8890Y-16256D01*
Y-16087D01*
X8848Y-16002D01*
X8763Y-15917D01*
X8678Y-15875D01*
X8001Y-15625D02*
X8890D01*
X8001Y-15033D02*
X8890D01*
X8424Y-15625D02*
Y-15033D01*
X9186Y-14787D02*
Y-14110D01*
X8467Y-13996D02*
Y-13615D01*
X8424Y-13488D01*
X8382Y-13446D01*
X8297Y-13403D01*
X8170D01*
X8086Y-13446D01*
X8044Y-13488D01*
X8001Y-13615D01*
Y-13996D01*
X8890D01*
X8001Y-13204D02*
X8890D01*
X8001D02*
Y-12908D01*
X8044Y-12781D01*
X8128Y-12697D01*
X8213Y-12654D01*
X8340Y-12612D01*
X8551D01*
X8678Y-12654D01*
X8763Y-12697D01*
X8848Y-12781D01*
X8890Y-12908D01*
Y-13204D01*
X7620Y-11176D02*
Y-12065D01*
Y-11176D02*
X8001D01*
X8128Y-11219D01*
X8170Y-11261D01*
X8213Y-11345D01*
Y-11430D01*
X8170Y-11515D01*
X8128Y-11557D01*
X8001Y-11599D01*
X7620D01*
X7916D02*
X8213Y-12065D01*
X9004Y-11303D02*
X8919Y-11219D01*
X8792Y-11176D01*
X8623D01*
X8496Y-11219D01*
X8411Y-11303D01*
Y-11388D01*
X8454Y-11472D01*
X8496Y-11515D01*
X8581Y-11557D01*
X8835Y-11642D01*
X8919Y-11684D01*
X8962Y-11726D01*
X9004Y-11811D01*
Y-11938D01*
X8919Y-12023D01*
X8792Y-12065D01*
X8623D01*
X8496Y-12023D01*
X8411Y-11938D01*
X9499Y-11176D02*
Y-12065D01*
X9203Y-11176D02*
X9795D01*
X7705Y-8636D02*
X8170D01*
X7916Y-8975D01*
X8043D01*
X8128Y-9017D01*
X8170Y-9059D01*
X8213Y-9186D01*
Y-9271D01*
X8170Y-9398D01*
X8086Y-9483D01*
X7959Y-9525D01*
X7832D01*
X7705Y-9483D01*
X7662Y-9440D01*
X7620Y-9356D01*
X8411Y-8636D02*
X8750Y-9525D01*
X9089Y-8636D02*
X8750Y-9525D01*
X9288Y-8636D02*
X9753D01*
X9499Y-8975D01*
X9626D01*
X9711Y-9017D01*
X9753Y-9059D01*
X9795Y-9186D01*
Y-9271D01*
X9753Y-9398D01*
X9668Y-9483D01*
X9542Y-9525D01*
X9415D01*
X9288Y-9483D01*
X9245Y-9440D01*
X9203Y-9356D01*
X1482Y-11938D02*
X1397Y-11980D01*
X1313Y-12065D01*
X1270Y-12150D01*
Y-12319D01*
X1313Y-12404D01*
X1397Y-12488D01*
X1482Y-12531D01*
X1609Y-12573D01*
X1820D01*
X1947Y-12531D01*
X2032Y-12488D01*
X2117Y-12404D01*
X2159Y-12319D01*
Y-12150D01*
X2117Y-12065D01*
X2032Y-11980D01*
X1947Y-11938D01*
X1820D01*
Y-12150D02*
Y-11938D01*
X1736Y-11735D02*
Y-11354D01*
X1693Y-11227D01*
X1651Y-11185D01*
X1566Y-11142D01*
X1439D01*
X1355Y-11185D01*
X1313Y-11227D01*
X1270Y-11354D01*
Y-11735D01*
X2159D01*
X1270Y-10690D02*
X1313Y-10817D01*
X1439Y-10901D01*
X1651Y-10944D01*
X1778D01*
X1990Y-10901D01*
X2117Y-10817D01*
X2159Y-10690D01*
Y-10605D01*
X2117Y-10478D01*
X1990Y-10393D01*
X1778Y-10351D01*
X1651D01*
X1439Y-10393D01*
X1313Y-10478D01*
X1270Y-10605D01*
Y-10690D01*
X1482Y-14732D02*
X1397Y-14774D01*
X1313Y-14859D01*
X1270Y-14944D01*
Y-15113D01*
X1313Y-15198D01*
X1397Y-15282D01*
X1482Y-15325D01*
X1609Y-15367D01*
X1820D01*
X1947Y-15325D01*
X2032Y-15282D01*
X2117Y-15198D01*
X2159Y-15113D01*
Y-14944D01*
X2117Y-14859D01*
X2032Y-14774D01*
X1947Y-14732D01*
X1820D01*
Y-14944D02*
Y-14732D01*
X1736Y-14529D02*
Y-14148D01*
X1693Y-14021D01*
X1651Y-13979D01*
X1566Y-13936D01*
X1439D01*
X1355Y-13979D01*
X1313Y-14021D01*
X1270Y-14148D01*
Y-14529D01*
X2159D01*
X1482Y-13695D02*
X1439D01*
X1355Y-13653D01*
X1313Y-13611D01*
X1270Y-13526D01*
Y-13357D01*
X1313Y-13272D01*
X1355Y-13230D01*
X1439Y-13187D01*
X1524D01*
X1609Y-13230D01*
X1736Y-13314D01*
X2159Y-13738D01*
Y-13145D01*
X1482Y-17526D02*
X1397Y-17568D01*
X1313Y-17653D01*
X1270Y-17738D01*
Y-17907D01*
X1313Y-17992D01*
X1397Y-18076D01*
X1482Y-18119D01*
X1609Y-18161D01*
X1820D01*
X1947Y-18119D01*
X2032Y-18076D01*
X2117Y-17992D01*
X2159Y-17907D01*
Y-17738D01*
X2117Y-17653D01*
X2032Y-17568D01*
X1947Y-17526D01*
X1820D01*
Y-17738D02*
Y-17526D01*
X1270Y-17323D02*
X2159D01*
X1270D02*
X2159Y-16730D01*
X1270D02*
X2159D01*
X1270Y-16485D02*
X2159D01*
X1270D02*
Y-16189D01*
X1313Y-16062D01*
X1397Y-15977D01*
X1482Y-15935D01*
X1609Y-15892D01*
X1820D01*
X1947Y-15935D01*
X2032Y-15977D01*
X2117Y-16062D01*
X2159Y-16189D01*
Y-16485D01*
X9864Y-508D02*
X10329D01*
X10075Y-847D01*
X10202D01*
X10287Y-889D01*
X10329Y-931D01*
X10372Y-1058D01*
Y-1143D01*
X10329Y-1270D01*
X10245Y-1355D01*
X10118Y-1397D01*
X9991D01*
X9864Y-1355D01*
X9821Y-1312D01*
X9779Y-1228D01*
X10613Y-1312D02*
X10570Y-1355D01*
X10613Y-1397D01*
X10655Y-1355D01*
X10613Y-1312D01*
X10934Y-508D02*
X11400D01*
X11146Y-847D01*
X11273D01*
X11358Y-889D01*
X11400Y-931D01*
X11442Y-1058D01*
Y-1143D01*
X11400Y-1270D01*
X11315Y-1355D01*
X11188Y-1397D01*
X11061D01*
X10934Y-1355D01*
X10892Y-1312D01*
X10850Y-1228D01*
X11641Y-508D02*
X11980Y-1397D01*
X12318Y-508D02*
X11980Y-1397D01*
X13639Y-508D02*
Y-1397D01*
Y-931D02*
X13554Y-847D01*
X13470Y-804D01*
X13343D01*
X13258Y-847D01*
X13173Y-931D01*
X13131Y-1058D01*
Y-1143D01*
X13173Y-1270D01*
X13258Y-1355D01*
X13343Y-1397D01*
X13470D01*
X13554Y-1355D01*
X13639Y-1270D01*
X13876Y-1058D02*
X14384D01*
Y-974D01*
X14342Y-889D01*
X14299Y-847D01*
X14215Y-804D01*
X14088D01*
X14003Y-847D01*
X13918Y-931D01*
X13876Y-1058D01*
Y-1143D01*
X13918Y-1270D01*
X14003Y-1355D01*
X14088Y-1397D01*
X14215D01*
X14299Y-1355D01*
X14384Y-1270D01*
X14913Y-508D02*
X14828D01*
X14744Y-551D01*
X14701Y-677D01*
Y-1397D01*
X14574Y-804D02*
X14871D01*
X15548D02*
Y-1397D01*
Y-931D02*
X15463Y-847D01*
X15378Y-804D01*
X15252D01*
X15167Y-847D01*
X15082Y-931D01*
X15040Y-1058D01*
Y-1143D01*
X15082Y-1270D01*
X15167Y-1355D01*
X15252Y-1397D01*
X15378D01*
X15463Y-1355D01*
X15548Y-1270D01*
X15785Y-804D02*
Y-1228D01*
X15827Y-1355D01*
X15912Y-1397D01*
X16039D01*
X16123Y-1355D01*
X16250Y-1228D01*
Y-804D02*
Y-1397D01*
X16483Y-508D02*
Y-1397D01*
X16796Y-508D02*
Y-1228D01*
X16839Y-1355D01*
X16923Y-1397D01*
X17008D01*
X16669Y-804D02*
X16966D01*
X45551Y-635D02*
X46016D01*
X45762Y-974D01*
X45889D01*
X45974Y-1016D01*
X46016Y-1058D01*
X46059Y-1185D01*
Y-1270D01*
X46016Y-1397D01*
X45932Y-1482D01*
X45805Y-1524D01*
X45678D01*
X45551Y-1482D01*
X45508Y-1439D01*
X45466Y-1355D01*
X46300Y-1439D02*
X46257Y-1482D01*
X46300Y-1524D01*
X46342Y-1482D01*
X46300Y-1439D01*
X46621Y-635D02*
X47087D01*
X46833Y-974D01*
X46960D01*
X47045Y-1016D01*
X47087Y-1058D01*
X47129Y-1185D01*
Y-1270D01*
X47087Y-1397D01*
X47002Y-1482D01*
X46875Y-1524D01*
X46748D01*
X46621Y-1482D01*
X46579Y-1439D01*
X46537Y-1355D01*
X47328Y-635D02*
X47667Y-1524D01*
X48005Y-635D02*
X47667Y-1524D01*
X49326Y-635D02*
Y-1524D01*
Y-1058D02*
X49241Y-974D01*
X49157Y-931D01*
X49030D01*
X48945Y-974D01*
X48860Y-1058D01*
X48818Y-1185D01*
Y-1270D01*
X48860Y-1397D01*
X48945Y-1482D01*
X49030Y-1524D01*
X49157D01*
X49241Y-1482D01*
X49326Y-1397D01*
X49563Y-1185D02*
X50071D01*
Y-1101D01*
X50029Y-1016D01*
X49986Y-974D01*
X49902Y-931D01*
X49775D01*
X49690Y-974D01*
X49605Y-1058D01*
X49563Y-1185D01*
Y-1270D01*
X49605Y-1397D01*
X49690Y-1482D01*
X49775Y-1524D01*
X49902D01*
X49986Y-1482D01*
X50071Y-1397D01*
X50600Y-635D02*
X50515D01*
X50431Y-678D01*
X50388Y-804D01*
Y-1524D01*
X50261Y-931D02*
X50558D01*
X51235D02*
Y-1524D01*
Y-1058D02*
X51150Y-974D01*
X51065Y-931D01*
X50939D01*
X50854Y-974D01*
X50769Y-1058D01*
X50727Y-1185D01*
Y-1270D01*
X50769Y-1397D01*
X50854Y-1482D01*
X50939Y-1524D01*
X51065D01*
X51150Y-1482D01*
X51235Y-1397D01*
X51472Y-931D02*
Y-1355D01*
X51514Y-1482D01*
X51599Y-1524D01*
X51726D01*
X51810Y-1482D01*
X51937Y-1355D01*
Y-931D02*
Y-1524D01*
X52170Y-635D02*
Y-1524D01*
X52483Y-635D02*
Y-1355D01*
X52526Y-1482D01*
X52610Y-1524D01*
X52695D01*
X52356Y-931D02*
X52653D01*
X47879Y-14817D02*
X47837Y-14732D01*
X47752Y-14648D01*
X47667Y-14605D01*
X47498D01*
X47413Y-14648D01*
X47329Y-14732D01*
X47286Y-14817D01*
X47244Y-14944D01*
Y-15155D01*
X47286Y-15282D01*
X47329Y-15367D01*
X47413Y-15452D01*
X47498Y-15494D01*
X47667D01*
X47752Y-15452D01*
X47837Y-15367D01*
X47879Y-15282D01*
Y-15155D01*
X47667D02*
X47879D01*
X48082Y-14901D02*
Y-15494D01*
Y-15155D02*
X48124Y-15028D01*
X48209Y-14944D01*
X48294Y-14901D01*
X48421D01*
X48713D02*
X48628Y-14944D01*
X48543Y-15028D01*
X48501Y-15155D01*
Y-15240D01*
X48543Y-15367D01*
X48628Y-15452D01*
X48713Y-15494D01*
X48840D01*
X48924Y-15452D01*
X49009Y-15367D01*
X49051Y-15240D01*
Y-15155D01*
X49009Y-15028D01*
X48924Y-14944D01*
X48840Y-14901D01*
X48713D01*
X49246D02*
X49500Y-15494D01*
X49754Y-14901D02*
X49500Y-15494D01*
X49898Y-15155D02*
X50406D01*
Y-15071D01*
X50363Y-14986D01*
X50321Y-14944D01*
X50236Y-14901D01*
X50109D01*
X50025Y-14944D01*
X49940Y-15028D01*
X49898Y-15155D01*
Y-15240D01*
X49940Y-15367D01*
X50025Y-15452D01*
X50109Y-15494D01*
X50236D01*
X50321Y-15452D01*
X50406Y-15367D01*
X51294Y-14605D02*
Y-15494D01*
X51523Y-14817D02*
Y-14774D01*
X51565Y-14690D01*
X51608Y-14648D01*
X51692Y-14605D01*
X51862D01*
X51946Y-14648D01*
X51989Y-14690D01*
X52031Y-14774D01*
Y-14859D01*
X51989Y-14944D01*
X51904Y-15071D01*
X51481Y-15494D01*
X52073D01*
X52907Y-14817D02*
X52865Y-14732D01*
X52780Y-14648D01*
X52695Y-14605D01*
X52526D01*
X52441Y-14648D01*
X52357Y-14732D01*
X52314Y-14817D01*
X52272Y-14944D01*
Y-15155D01*
X52314Y-15282D01*
X52357Y-15367D01*
X52441Y-15452D01*
X52526Y-15494D01*
X52695D01*
X52780Y-15452D01*
X52865Y-15367D01*
X52907Y-15282D01*
X11303Y-15325D02*
X11261Y-15240D01*
X11176Y-15156D01*
X11091Y-15113D01*
X10922D01*
X10837Y-15156D01*
X10753Y-15240D01*
X10710Y-15325D01*
X10668Y-15452D01*
Y-15663D01*
X10710Y-15790D01*
X10753Y-15875D01*
X10837Y-15960D01*
X10922Y-16002D01*
X11091D01*
X11176Y-15960D01*
X11261Y-15875D01*
X11303Y-15790D01*
Y-15663D01*
X11091D02*
X11303D01*
X11506Y-15409D02*
Y-16002D01*
Y-15663D02*
X11548Y-15536D01*
X11633Y-15452D01*
X11718Y-15409D01*
X11845D01*
X12137D02*
X12052Y-15452D01*
X11967Y-15536D01*
X11925Y-15663D01*
Y-15748D01*
X11967Y-15875D01*
X12052Y-15960D01*
X12137Y-16002D01*
X12264D01*
X12348Y-15960D01*
X12433Y-15875D01*
X12475Y-15748D01*
Y-15663D01*
X12433Y-15536D01*
X12348Y-15452D01*
X12264Y-15409D01*
X12137D01*
X12670D02*
X12924Y-16002D01*
X13178Y-15409D02*
X12924Y-16002D01*
X13322Y-15663D02*
X13830D01*
Y-15579D01*
X13787Y-15494D01*
X13745Y-15452D01*
X13660Y-15409D01*
X13533D01*
X13449Y-15452D01*
X13364Y-15536D01*
X13322Y-15663D01*
Y-15748D01*
X13364Y-15875D01*
X13449Y-15960D01*
X13533Y-16002D01*
X13660D01*
X13745Y-15960D01*
X13830Y-15875D01*
X14718Y-15113D02*
Y-15748D01*
X14761Y-15875D01*
X14845Y-15960D01*
X14972Y-16002D01*
X15057D01*
X15184Y-15960D01*
X15269Y-15875D01*
X15311Y-15748D01*
Y-15113D01*
X16234Y-16002D02*
X15895Y-15113D01*
X15556Y-16002D01*
X15683Y-15706D02*
X16107D01*
X16441Y-15113D02*
Y-16002D01*
Y-15113D02*
X16822D01*
X16949Y-15156D01*
X16991Y-15198D01*
X17034Y-15282D01*
Y-15367D01*
X16991Y-15452D01*
X16949Y-15494D01*
X16822Y-15536D01*
X16441D01*
X16737D02*
X17034Y-16002D01*
X17529Y-15113D02*
Y-16002D01*
X17232Y-15113D02*
X17825D01*
X3852Y-18923D02*
X3302D01*
Y-19812D01*
X3852D01*
X3302Y-19346D02*
X3641D01*
X4593Y-19050D02*
X4508Y-18966D01*
X4381Y-18923D01*
X4212D01*
X4085Y-18966D01*
X4000Y-19050D01*
Y-19135D01*
X4043Y-19219D01*
X4085Y-19262D01*
X4170Y-19304D01*
X4424Y-19389D01*
X4508Y-19431D01*
X4551Y-19473D01*
X4593Y-19558D01*
Y-19685D01*
X4508Y-19770D01*
X4381Y-19812D01*
X4212D01*
X4085Y-19770D01*
X4000Y-19685D01*
X4792Y-19389D02*
X5173D01*
X5300Y-19346D01*
X5342Y-19304D01*
X5384Y-19219D01*
Y-19092D01*
X5342Y-19008D01*
X5300Y-18966D01*
X5173Y-18923D01*
X4792D01*
Y-19812D01*
X5583Y-19431D02*
X6345D01*
X6861Y-18923D02*
X6734Y-18966D01*
X6650Y-19092D01*
X6608Y-19304D01*
Y-19431D01*
X6650Y-19643D01*
X6734Y-19770D01*
X6861Y-19812D01*
X6946D01*
X7073Y-19770D01*
X7158Y-19643D01*
X7200Y-19431D01*
Y-19304D01*
X7158Y-19092D01*
X7073Y-18966D01*
X6946Y-18923D01*
X6861D01*
X7399Y-19092D02*
X7484Y-19050D01*
X7611Y-18923D01*
Y-19812D01*
X16383Y-21336D02*
X17272D01*
X16383D02*
X17272Y-20997D01*
X16383Y-20659D02*
X17272Y-20997D01*
X16383Y-20659D02*
X17272D01*
X16383Y-20320D02*
X16426Y-20278D01*
X16383Y-20236D01*
X16341Y-20278D01*
X16383Y-20320D01*
X16679Y-20278D02*
X17272D01*
X16383Y-20079D02*
X17272D01*
X16679Y-19656D02*
X17103Y-20079D01*
X16933Y-19910D02*
X17272Y-19613D01*
X16679Y-19474D02*
X17272D01*
X16933D02*
X16806Y-19431D01*
X16722Y-19347D01*
X16679Y-19262D01*
Y-19135D01*
Y-18843D02*
X16722Y-18928D01*
X16806Y-19012D01*
X16933Y-19055D01*
X17018D01*
X17145Y-19012D01*
X17230Y-18928D01*
X17272Y-18843D01*
Y-18716D01*
X17230Y-18631D01*
X17145Y-18547D01*
X17018Y-18505D01*
X16933D01*
X16806Y-18547D01*
X16722Y-18631D01*
X16679Y-18716D01*
Y-18843D01*
X16383Y-18310D02*
X17272D01*
X16806D02*
X16722Y-18225D01*
X16679Y-18141D01*
Y-18014D01*
X16722Y-17929D01*
X16806Y-17844D01*
X16933Y-17802D01*
X17018D01*
X17145Y-17844D01*
X17230Y-17929D01*
X17272Y-18014D01*
Y-18141D01*
X17230Y-18225D01*
X17145Y-18310D01*
X16679Y-17611D02*
X17103D01*
X17230Y-17569D01*
X17272Y-17484D01*
Y-17358D01*
X17230Y-17273D01*
X17103Y-17146D01*
X16679D02*
X17272D01*
X16806Y-16448D02*
X16722Y-16490D01*
X16679Y-16617D01*
Y-16744D01*
X16722Y-16871D01*
X16806Y-16913D01*
X16891Y-16871D01*
X16933Y-16786D01*
X16976Y-16575D01*
X17018Y-16490D01*
X17103Y-16448D01*
X17145D01*
X17230Y-16490D01*
X17272Y-16617D01*
Y-16744D01*
X17230Y-16871D01*
X17145Y-16913D01*
X37211Y-21336D02*
X38100D01*
X37211D02*
X38100Y-20997D01*
X37211Y-20659D02*
X38100Y-20997D01*
X37211Y-20659D02*
X38100D01*
X37211Y-20320D02*
X37254Y-20278D01*
X37211Y-20236D01*
X37169Y-20278D01*
X37211Y-20320D01*
X37507Y-20278D02*
X38100D01*
X37211Y-20079D02*
X38100D01*
X37507Y-19656D02*
X37931Y-20079D01*
X37761Y-19910D02*
X38100Y-19613D01*
X37507Y-19474D02*
X38100D01*
X37761D02*
X37634Y-19431D01*
X37550Y-19347D01*
X37507Y-19262D01*
Y-19135D01*
Y-18843D02*
X37550Y-18928D01*
X37634Y-19012D01*
X37761Y-19055D01*
X37846D01*
X37973Y-19012D01*
X38058Y-18928D01*
X38100Y-18843D01*
Y-18716D01*
X38058Y-18631D01*
X37973Y-18547D01*
X37846Y-18505D01*
X37761D01*
X37634Y-18547D01*
X37550Y-18631D01*
X37507Y-18716D01*
Y-18843D01*
X37211Y-18310D02*
X38100D01*
X37634D02*
X37550Y-18225D01*
X37507Y-18141D01*
Y-18014D01*
X37550Y-17929D01*
X37634Y-17844D01*
X37761Y-17802D01*
X37846D01*
X37973Y-17844D01*
X38058Y-17929D01*
X38100Y-18014D01*
Y-18141D01*
X38058Y-18225D01*
X37973Y-18310D01*
X37507Y-17611D02*
X37931D01*
X38058Y-17569D01*
X38100Y-17484D01*
Y-17358D01*
X38058Y-17273D01*
X37931Y-17146D01*
X37507D02*
X38100D01*
X37634Y-16448D02*
X37550Y-16490D01*
X37507Y-16617D01*
Y-16744D01*
X37550Y-16871D01*
X37634Y-16913D01*
X37719Y-16871D01*
X37761Y-16786D01*
X37804Y-16575D01*
X37846Y-16490D01*
X37931Y-16448D01*
X37973D01*
X38058Y-16490D01*
X38100Y-16617D01*
Y-16744D01*
X38058Y-16871D01*
X37973Y-16913D01*
X33689Y-45085D02*
G03*
X34535Y-44239I0J846D01*
G01*
X20035D02*
G03*
X20881Y-45085I846J0D01*
G01*
X20035Y-32485D02*
G03*
X19035Y-32485I-500J0D01*
G01*
X18189Y-45085D02*
G03*
X19035Y-44239I-0J846D01*
G01*
X35535Y-32485D02*
G03*
X34535Y-32485I-500J0D01*
G01*
Y-29220D02*
G03*
X35535Y-29220I500J0D01*
G01*
Y-18669D02*
G03*
X33386Y-16520I-2149J0D01*
G01*
X34535Y-18510D02*
G03*
X33345Y-17320I-1190J0D01*
G01*
X21225D02*
G03*
X20035Y-18510I0J-1190D01*
G01*
X21229Y-16520D02*
G03*
X19035Y-18714I0J-2194D01*
G01*
Y-29220D02*
G03*
X20035Y-29220I500J0D01*
G01*
X35535Y-44239D02*
G03*
X36381Y-45085I846J0D01*
G01*
X54610Y-27940D02*
Y-1270D01*
X53340Y0D02*
X54610Y-1270D01*
X1270Y0D02*
X53340D01*
X46355Y-43815D02*
Y-30480D01*
X36381Y-45085D02*
X45085D01*
X46355Y-43815D01*
X8255D02*
Y-30480D01*
Y-43815D02*
X9525Y-45085D01*
X18189D01*
X0Y-27940D02*
Y-1270D01*
X1270Y0D01*
X20881Y-45085D02*
X33689D01*
X20035Y-44239D02*
Y-32520D01*
X19035Y-44239D02*
X19035Y-32520D01*
X35535D02*
X35535Y-44239D01*
X34535Y-44239D02*
Y-32520D01*
X46355Y-30480D02*
X47625Y-29210D01*
X53340D02*
X54610Y-27940D01*
X47625Y-29210D02*
X53340D01*
X0Y-27940D02*
X1270Y-29210D01*
X6985D01*
X8255Y-30480D01*
X35535Y-29220D02*
Y-18669D01*
X34535Y-29220D02*
Y-18510D01*
X21229Y-16520D02*
X33386D01*
X21225Y-17320D02*
X33345D01*
X20035Y-29220D02*
Y-18510D01*
X19035Y-29220D02*
Y-18714D01*
D31*
X21960Y-1274D02*
X22460D01*
X21960Y-24D02*
X22460D01*
X23960Y-1274D02*
X24460D01*
X23960Y-24D02*
X24460D01*
X25960Y-1274D02*
X26460D01*
X25960Y-24D02*
X26460D01*
X27960Y-1274D02*
X28460D01*
X27960Y-24D02*
X28460D01*
X29960Y-1274D02*
X30460D01*
X29960Y-24D02*
X30460D01*
X31960Y-1274D02*
X32460D01*
X31960Y-24D02*
X32460D01*
X33960D02*
X34460D01*
X33960Y-1274D02*
X34460D01*
X35960Y-24D02*
X36460D01*
X35960Y-1274D02*
X36460D01*
X37960Y-24D02*
X38460D01*
X37960Y-1274D02*
X38460D01*
X19085Y-1024D02*
X19335Y-1274D01*
X19085Y-274D02*
X19335Y-24D01*
Y-1524D02*
Y-24D01*
X19585Y-1524D02*
Y-1274D01*
X39210Y-149D02*
X39335Y-274D01*
Y-1024D02*
Y-274D01*
X39210Y-1149D02*
X39335Y-1024D01*
X37210Y-149D02*
X37335Y-24D01*
X37210Y-1149D02*
X37335Y-1274D01*
X37960Y2976D02*
X38460D01*
X37960D02*
X38135Y3176D01*
X38285D01*
X38460Y2976D01*
X37960Y-24D02*
Y2976D01*
X38460Y-24D02*
Y2976D01*
X37335Y-1524D02*
Y-1274D01*
Y-1524D02*
X37585D01*
Y-1274D01*
X37960D01*
X37335Y-24D02*
X37960Y-24D01*
X39085D02*
X39210Y-149D01*
X39085Y-1274D02*
X39210Y-1149D01*
X39085Y-1524D02*
Y-24D01*
X37335Y-1274D02*
Y-24D01*
X38835Y-1524D02*
Y-1274D01*
Y-1524D02*
X39085D01*
X38460Y-24D02*
X39085D01*
X38460Y-1274D02*
X38835D01*
X35210Y-149D02*
X35335Y-24D01*
X35210Y-1149D02*
X35335Y-1274D01*
X35960Y2976D02*
X36460D01*
X35960D02*
X36135Y3176D01*
X36285D01*
X36460Y2976D01*
X35960Y-24D02*
Y2976D01*
X36460Y-24D02*
Y2976D01*
X35335Y-1524D02*
Y-1274D01*
Y-1524D02*
X35585D01*
Y-1274D01*
X35960D01*
X35335Y-24D02*
X35960Y-24D01*
X37085D02*
X37210Y-149D01*
X37085Y-1274D02*
X37210Y-1149D01*
X37085Y-1524D02*
Y-24D01*
X35335Y-1274D02*
Y-24D01*
X36835Y-1524D02*
Y-1274D01*
Y-1524D02*
X37085D01*
X36460Y-24D02*
X37085D01*
X36460Y-1274D02*
X36835D01*
X33210Y-149D02*
X33335Y-24D01*
X33210Y-1149D02*
X33335Y-1274D01*
X33960Y2976D02*
X34460D01*
X33960D02*
X34135Y3176D01*
X34285D01*
X34460Y2976D01*
X33960Y-24D02*
Y2976D01*
X34460Y-24D02*
Y2976D01*
X33335Y-1524D02*
Y-1274D01*
Y-1524D02*
X33585D01*
Y-1274D01*
X33960D01*
X33335Y-24D02*
X33960Y-24D01*
X35085D02*
X35210Y-149D01*
X35085Y-1274D02*
X35210Y-1149D01*
X35085Y-1524D02*
Y-24D01*
X33335Y-1274D02*
Y-24D01*
X34835Y-1524D02*
Y-1274D01*
Y-1524D02*
X35085D01*
X34460Y-24D02*
X35085D01*
X34460Y-1274D02*
X34835D01*
X31210Y-149D02*
X31335Y-24D01*
X31210Y-1149D02*
X31335Y-1274D01*
X31960Y2976D02*
X32460D01*
X31960D02*
X32135Y3176D01*
X32285D01*
X32460Y2976D01*
X31960Y-24D02*
Y2976D01*
X32460Y-24D02*
Y2976D01*
X31335Y-1524D02*
Y-1274D01*
Y-1524D02*
X31585D01*
Y-1274D01*
X31960D01*
X31335Y-24D02*
X31960Y-24D01*
X33085D02*
X33210Y-149D01*
X33085Y-1274D02*
X33210Y-1149D01*
X33085Y-1524D02*
Y-24D01*
X31335Y-1274D02*
Y-24D01*
X32835Y-1524D02*
Y-1274D01*
Y-1524D02*
X33085D01*
X32460Y-24D02*
X33085D01*
X32460Y-1274D02*
X32835D01*
X29210Y-149D02*
X29335Y-24D01*
X29210Y-1149D02*
X29335Y-1274D01*
X29960Y2976D02*
X30460D01*
X29960D02*
X30135Y3176D01*
X30285D01*
X30460Y2976D01*
X29960Y-24D02*
Y2976D01*
X30460Y-24D02*
Y2976D01*
X29335Y-1524D02*
Y-1274D01*
Y-1524D02*
X29585D01*
Y-1274D01*
X29960D01*
X29335Y-24D02*
X29960Y-24D01*
X31085D02*
X31210Y-149D01*
X31085Y-1274D02*
X31210Y-1149D01*
X31085Y-1524D02*
Y-24D01*
X29335Y-1274D02*
Y-24D01*
X30835Y-1524D02*
Y-1274D01*
Y-1524D02*
X31085D01*
X30460Y-24D02*
X31085D01*
X30460Y-1274D02*
X30835D01*
X27210Y-149D02*
X27335Y-24D01*
X27210Y-1149D02*
X27335Y-1274D01*
X27960Y2976D02*
X28460D01*
X27960D02*
X28135Y3176D01*
X28285D01*
X28460Y2976D01*
X27960Y-24D02*
Y2976D01*
X28460Y-24D02*
Y2976D01*
X27335Y-1524D02*
Y-1274D01*
Y-1524D02*
X27585D01*
Y-1274D01*
X27960D01*
X27335Y-24D02*
X27960Y-24D01*
X29085D02*
X29210Y-149D01*
X29085Y-1274D02*
X29210Y-1149D01*
X29085Y-1524D02*
Y-24D01*
X27335Y-1274D02*
Y-24D01*
X28835Y-1524D02*
Y-1274D01*
Y-1524D02*
X29085D01*
X28460Y-24D02*
X29085D01*
X28460Y-1274D02*
X28835D01*
X25210Y-149D02*
X25335Y-24D01*
X25210Y-1149D02*
X25335Y-1274D01*
X25960Y2976D02*
X26460D01*
X25960D02*
X26135Y3176D01*
X26285D01*
X26460Y2976D01*
X25960Y-24D02*
Y2976D01*
X26460Y-24D02*
Y2976D01*
X25335Y-1524D02*
Y-1274D01*
Y-1524D02*
X25585D01*
Y-1274D01*
X25960D01*
X25335Y-24D02*
X25960Y-24D01*
X27085D02*
X27210Y-149D01*
X27085Y-1274D02*
X27210Y-1149D01*
X27085Y-1524D02*
Y-24D01*
X25335Y-1274D02*
Y-24D01*
X26835Y-1524D02*
Y-1274D01*
Y-1524D02*
X27085D01*
X26460Y-24D02*
X27085D01*
X26460Y-1274D02*
X26835D01*
X23210Y-149D02*
X23335Y-24D01*
X23210Y-1149D02*
X23335Y-1274D01*
X23960Y2976D02*
X24460D01*
X23960D02*
X24135Y3176D01*
X24285D01*
X24460Y2976D01*
X23960Y-24D02*
Y2976D01*
X24460Y-24D02*
Y2976D01*
X23335Y-1524D02*
Y-1274D01*
Y-1524D02*
X23585D01*
Y-1274D01*
X23960D01*
X23335Y-24D02*
X23960Y-24D01*
X25085D02*
X25210Y-149D01*
X25085Y-1274D02*
X25210Y-1149D01*
X25085Y-1524D02*
Y-24D01*
X23335Y-1274D02*
Y-24D01*
X24835Y-1524D02*
Y-1274D01*
Y-1524D02*
X25085D01*
X24460Y-24D02*
X25085D01*
X24460Y-1274D02*
X24835D01*
X22460D02*
X22835D01*
X22460Y-24D02*
X23085D01*
X22835Y-1524D02*
X23085D01*
X22835D02*
Y-1274D01*
X21335Y-1274D02*
Y-24D01*
X23085Y-1524D02*
Y-24D01*
Y-1274D02*
X23210Y-1149D01*
X23085Y-24D02*
X23210Y-149D01*
X21335Y-24D02*
X21960Y-24D01*
X21585Y-1274D02*
X21960D01*
X21585Y-1524D02*
Y-1274D01*
X21335Y-1524D02*
X21585D01*
X21335D02*
Y-1274D01*
X22460Y-24D02*
Y2976D01*
X21960Y-24D02*
Y2976D01*
X22285Y3176D02*
X22460Y2976D01*
X22135Y3176D02*
X22285D01*
X21960Y2976D02*
X22135Y3176D01*
X21960Y2976D02*
X22460D01*
X21210Y-1149D02*
X21335Y-1274D01*
X21210Y-149D02*
X21335Y-24D01*
X19085Y-1024D02*
Y-274D01*
X19960Y2976D02*
X20460D01*
X19960D02*
X20135Y3176D01*
X20285D01*
X20460Y2976D01*
X19960Y-24D02*
Y2976D01*
X20460Y-24D02*
Y2976D01*
X21085Y-24D02*
X21210Y-149D01*
X21085Y-1274D02*
X21210Y-1149D01*
X19335Y-24D02*
X21085D01*
X19335Y-1524D02*
X19585D01*
Y-1274D02*
X20835D01*
Y-1524D02*
Y-1274D01*
Y-1524D02*
X21085D01*
Y-24D01*
X38460Y-1824D02*
Y-1274D01*
X37960Y-1824D02*
Y-1274D01*
X35960Y-1824D02*
Y-1274D01*
X36460Y-1824D02*
Y-1274D01*
X33960Y-1824D02*
Y-1274D01*
X34460Y-1824D02*
Y-1274D01*
X31960Y-1824D02*
Y-1274D01*
X32460Y-1824D02*
Y-1274D01*
X29960Y-1824D02*
Y-1274D01*
X30460Y-1824D02*
Y-1274D01*
X27960Y-1824D02*
Y-1274D01*
X28460Y-1824D02*
Y-1274D01*
X25960Y-1824D02*
Y-1274D01*
X26460Y-1824D02*
Y-1274D01*
X23960Y-1824D02*
Y-1274D01*
X24460Y-1824D02*
Y-1274D01*
X21960Y-1824D02*
Y-1274D01*
X22460Y-1824D02*
Y-1274D01*
X19960Y-1824D02*
Y-1274D01*
X20460Y-1824D02*
Y-1274D01*
X7555Y-18035D02*
Y-7365D01*
X2605Y-18035D02*
X7555D01*
X2605D02*
Y-7365D01*
X7555D01*
X39287Y-7680D02*
X39537D01*
Y-8830D02*
Y-7680D01*
X39287Y-8830D02*
X39537D01*
X36987D02*
X37237D01*
X36987D02*
Y-8080D01*
Y-7680D01*
X37237D01*
X43689D02*
X43939D01*
Y-8830D02*
Y-7680D01*
X43689Y-8830D02*
X43939D01*
X41389D02*
X41639D01*
X41389D02*
Y-8080D01*
Y-7680D01*
X41639D01*
X38042Y-10689D02*
X38666D01*
X36729Y-12339D02*
Y-10764D01*
Y-12339D02*
X37730D01*
X39979D02*
Y-10764D01*
X38978Y-12339D02*
X39979D01*
X42553Y-10775D02*
X43177D01*
X41240Y-12425D02*
Y-10850D01*
Y-12425D02*
X42241D01*
X44490D02*
Y-10850D01*
X43489Y-12425D02*
X44490D01*
X28005Y-10710D02*
Y-9610D01*
X26105Y-11760D02*
Y-11532D01*
Y-11760D02*
X28005D01*
Y-11560D01*
X26105Y-8788D02*
Y-8560D01*
X28030D01*
Y-8785D02*
Y-8560D01*
X20280Y-15270D02*
X27980D01*
Y-12670D01*
X20280D02*
X27980D01*
X20280Y-15270D02*
Y-12670D01*
X1735Y-22915D02*
Y-20265D01*
X4445Y-22915D02*
Y-20265D01*
X1735Y-22915D02*
X7155D01*
X1735Y-20265D02*
X7155D01*
Y-22915D02*
Y-20265D01*
X47455Y-22915D02*
Y-20265D01*
X50165Y-22915D02*
Y-20265D01*
X47455Y-22915D02*
X52875D01*
X47455Y-20265D02*
X52875D01*
Y-22915D02*
Y-20265D01*
X1735Y-26725D02*
Y-24075D01*
X4445Y-26725D02*
Y-24075D01*
X1735Y-26725D02*
X7155D01*
X1735Y-24075D02*
X7155D01*
Y-26725D02*
Y-24075D01*
X47455Y-26725D02*
Y-24075D01*
X50165Y-26725D02*
Y-24075D01*
X47455Y-26725D02*
X52875D01*
X47455Y-24075D02*
X52875D01*
Y-26725D02*
Y-24075D01*
X12065Y-20066D02*
X12255Y-20257D01*
Y-20320D02*
Y-20257D01*
X12065Y-20066D02*
Y-18034D01*
X12255Y-17844D01*
X14415D01*
X14605Y-18034D01*
Y-20066D02*
Y-18034D01*
X14415Y-20257D02*
X14605Y-20066D01*
X12255Y-20257D02*
X14415D01*
Y-20320D02*
Y-20257D01*
X12065Y-22606D02*
X12255Y-22796D01*
Y-22860D02*
Y-22796D01*
X12065Y-22606D02*
Y-20574D01*
X12255Y-20383D01*
Y-20320D01*
Y-20383D02*
X14415D01*
X14605Y-20574D01*
Y-22606D02*
Y-20574D01*
X14415Y-22796D02*
X14605Y-22606D01*
X12255Y-22796D02*
X14415D01*
Y-20383D02*
Y-20320D01*
Y-22860D02*
Y-22796D01*
X12065Y-42926D02*
X12319Y-43180D01*
X12065Y-42926D02*
Y-40894D01*
X12255Y-40703D01*
Y-40640D01*
Y-40703D02*
X14415D01*
X14605Y-40894D01*
Y-42926D02*
Y-40894D01*
X14351Y-43180D02*
X14605Y-42926D01*
X12319Y-43180D02*
X14351D01*
X14415Y-40703D02*
Y-40640D01*
X12065Y-40386D02*
X12255Y-40576D01*
Y-40640D02*
Y-40576D01*
X12065Y-40386D02*
Y-38354D01*
X12255Y-38164D01*
Y-38100D01*
Y-38164D02*
X14415D01*
X14605Y-38354D01*
Y-40386D02*
Y-38354D01*
X14415Y-40576D02*
X14605Y-40386D01*
X12255Y-40576D02*
X14415D01*
Y-38164D02*
Y-38100D01*
Y-40640D02*
Y-40576D01*
X12065Y-37846D02*
X12255Y-38036D01*
Y-38100D02*
Y-38036D01*
X12065Y-37846D02*
Y-35814D01*
X12255Y-35624D01*
Y-35560D01*
Y-35624D02*
X14415D01*
X14605Y-35814D01*
Y-37846D02*
Y-35814D01*
X14415Y-38036D02*
X14605Y-37846D01*
X12255Y-38036D02*
X14415D01*
Y-35624D02*
Y-35560D01*
Y-38100D02*
Y-38036D01*
X12065Y-35306D02*
X12255Y-35496D01*
Y-35560D02*
Y-35496D01*
X12065Y-35306D02*
Y-33274D01*
X12255Y-33083D01*
Y-33020D01*
Y-33083D02*
X14415D01*
X14605Y-33274D01*
Y-35306D02*
Y-33274D01*
X14415Y-35496D02*
X14605Y-35306D01*
X12255Y-35496D02*
X14415D01*
Y-33083D02*
Y-33020D01*
Y-35560D02*
Y-35496D01*
X12065Y-32766D02*
X12255Y-32957D01*
Y-33020D02*
Y-32957D01*
X12065Y-32766D02*
Y-30734D01*
X12255Y-30544D01*
Y-30480D01*
Y-30544D02*
X14415D01*
X14605Y-30734D01*
Y-32766D02*
Y-30734D01*
X14415Y-32957D02*
X14605Y-32766D01*
X12255Y-32957D02*
X14415D01*
Y-30544D02*
Y-30480D01*
Y-33020D02*
Y-32957D01*
X12065Y-30226D02*
X12255Y-30417D01*
Y-30480D02*
Y-30417D01*
X12065Y-30226D02*
Y-28194D01*
X12255Y-28003D01*
Y-27940D01*
Y-28003D02*
X14415D01*
X14605Y-28194D01*
Y-30226D02*
Y-28194D01*
X14415Y-30417D02*
X14605Y-30226D01*
X12255Y-30417D02*
X14415D01*
Y-28003D02*
Y-27940D01*
Y-30480D02*
Y-30417D01*
X12065Y-27686D02*
X12255Y-27876D01*
Y-27940D02*
Y-27876D01*
X12065Y-27686D02*
Y-25654D01*
X12255Y-25463D01*
Y-25400D01*
Y-25463D02*
X14415D01*
X14605Y-25654D01*
Y-27686D02*
Y-25654D01*
X14415Y-27876D02*
X14605Y-27686D01*
X12255Y-27876D02*
X14415D01*
Y-25463D02*
Y-25400D01*
Y-27940D02*
Y-27876D01*
Y-25400D02*
Y-25337D01*
Y-22924D02*
Y-22860D01*
X12255Y-25337D02*
X14415D01*
X14605Y-25146D01*
Y-23114D01*
X14415Y-22924D02*
X14605Y-23114D01*
X12255Y-22924D02*
X14415D01*
X12255D02*
Y-22860D01*
X12065Y-23114D02*
X12255Y-22924D01*
X12065Y-25146D02*
Y-23114D01*
X12255Y-25400D02*
Y-25337D01*
X12065Y-25146D02*
X12255Y-25337D01*
X40005Y-20066D02*
X40195Y-20257D01*
Y-20320D02*
Y-20257D01*
X40005Y-20066D02*
Y-18034D01*
X40195Y-17844D01*
X42354D01*
X42545Y-18034D01*
Y-20066D02*
Y-18034D01*
X42354Y-20257D02*
X42545Y-20066D01*
X40195Y-20257D02*
X42354D01*
Y-20320D02*
Y-20257D01*
X40005Y-22606D02*
X40195Y-22796D01*
Y-22860D02*
Y-22796D01*
X40005Y-22606D02*
Y-20574D01*
X40195Y-20383D01*
Y-20320D01*
Y-20383D02*
X42354D01*
X42545Y-20574D01*
Y-22606D02*
Y-20574D01*
X42354Y-22796D02*
X42545Y-22606D01*
X40195Y-22796D02*
X42354D01*
Y-20383D02*
Y-20320D01*
Y-22860D02*
Y-22796D01*
X40005Y-42926D02*
X40259Y-43180D01*
X40005Y-42926D02*
Y-40894D01*
X40195Y-40703D01*
Y-40640D01*
Y-40703D02*
X42354D01*
X42545Y-40894D01*
Y-42926D02*
Y-40894D01*
X42291Y-43180D02*
X42545Y-42926D01*
X40259Y-43180D02*
X42291D01*
X42354Y-40703D02*
Y-40640D01*
X40005Y-40386D02*
X40195Y-40576D01*
Y-40640D02*
Y-40576D01*
X40005Y-40386D02*
Y-38354D01*
X40195Y-38164D01*
Y-38100D01*
Y-38164D02*
X42354D01*
X42545Y-38354D01*
Y-40386D02*
Y-38354D01*
X42354Y-40576D02*
X42545Y-40386D01*
X40195Y-40576D02*
X42354D01*
Y-38164D02*
Y-38100D01*
Y-40640D02*
Y-40576D01*
X40005Y-37846D02*
X40195Y-38036D01*
Y-38100D02*
Y-38036D01*
X40005Y-37846D02*
Y-35814D01*
X40195Y-35624D01*
Y-35560D01*
Y-35624D02*
X42354D01*
X42545Y-35814D01*
Y-37846D02*
Y-35814D01*
X42354Y-38036D02*
X42545Y-37846D01*
X40195Y-38036D02*
X42354D01*
Y-35624D02*
Y-35560D01*
Y-38100D02*
Y-38036D01*
X40005Y-35306D02*
X40195Y-35496D01*
Y-35560D02*
Y-35496D01*
X40005Y-35306D02*
Y-33274D01*
X40195Y-33083D01*
Y-33020D01*
Y-33083D02*
X42354D01*
X42545Y-33274D01*
Y-35306D02*
Y-33274D01*
X42354Y-35496D02*
X42545Y-35306D01*
X40195Y-35496D02*
X42354D01*
Y-33083D02*
Y-33020D01*
Y-35560D02*
Y-35496D01*
X40005Y-32766D02*
X40195Y-32957D01*
Y-33020D02*
Y-32957D01*
X40005Y-32766D02*
Y-30734D01*
X40195Y-30544D01*
Y-30480D01*
Y-30544D02*
X42354D01*
X42545Y-30734D01*
Y-32766D02*
Y-30734D01*
X42354Y-32957D02*
X42545Y-32766D01*
X40195Y-32957D02*
X42354D01*
Y-30544D02*
Y-30480D01*
Y-33020D02*
Y-32957D01*
X40005Y-30226D02*
X40195Y-30417D01*
Y-30480D02*
Y-30417D01*
X40005Y-30226D02*
Y-28194D01*
X40195Y-28003D01*
Y-27940D01*
Y-28003D02*
X42354D01*
X42545Y-28194D01*
Y-30226D02*
Y-28194D01*
X42354Y-30417D02*
X42545Y-30226D01*
X40195Y-30417D02*
X42354D01*
Y-28003D02*
Y-27940D01*
Y-30480D02*
Y-30417D01*
X40005Y-27686D02*
X40195Y-27876D01*
Y-27940D02*
Y-27876D01*
X40005Y-27686D02*
Y-25654D01*
X40195Y-25463D01*
Y-25400D01*
Y-25463D02*
X42354D01*
X42545Y-25654D01*
Y-27686D02*
Y-25654D01*
X42354Y-27876D02*
X42545Y-27686D01*
X40195Y-27876D02*
X42354D01*
Y-25463D02*
Y-25400D01*
Y-27940D02*
Y-27876D01*
Y-25400D02*
Y-25337D01*
Y-22924D02*
Y-22860D01*
X40195Y-25337D02*
X42354D01*
X42545Y-25146D01*
Y-23114D01*
X42354Y-22924D02*
X42545Y-23114D01*
X40195Y-22924D02*
X42354D01*
X40195D02*
Y-22860D01*
X40005Y-23114D02*
X40195Y-22924D01*
X40005Y-25146D02*
Y-23114D01*
X40195Y-25400D02*
Y-25337D01*
X40005Y-25146D02*
X40195Y-25337D01*
X14115Y-13470D02*
X15290D01*
X14290Y-12570D02*
X14365Y-12495D01*
X14965D01*
X14890Y-12995D02*
X14965Y-13070D01*
X14890Y-12570D02*
X14965Y-12495D01*
Y-13070D02*
Y-12495D01*
X10290Y-13070D02*
X10865D01*
X14890Y-12995D02*
Y-12570D01*
X14290D02*
X14890D01*
X15290Y-14745D02*
Y-12245D01*
X13765Y-14745D02*
X15290D01*
X9940D02*
X11215D01*
X14365Y-12495D02*
Y-12245D01*
X14290Y-12570D02*
Y-12245D01*
X9940Y-13470D02*
X10865D01*
X10290Y-12995D02*
X10865D01*
X14115D02*
X14965D01*
X14115Y-13070D02*
X14965D01*
X14115Y-4170D02*
X14965D01*
X14115Y-4245D02*
X14965D01*
X10290D02*
X10865D01*
X10290Y-4170D02*
X10365Y-4245D01*
X9940Y-3770D02*
X10865D01*
X14290Y-4995D02*
Y-4670D01*
X14365Y-4995D02*
Y-4745D01*
X12240Y-11370D02*
X12740D01*
X12240Y-11870D02*
Y-11370D01*
Y-11870D02*
X12740D01*
Y-11370D01*
X12665Y-11445D02*
X12740Y-11370D01*
X12665Y-11795D02*
Y-11445D01*
X12315Y-11795D02*
X12665D01*
X12315D02*
Y-11445D01*
X12665D01*
Y-11795D02*
X12740Y-11870D01*
X12240D02*
X12315Y-11795D01*
X12240Y-11370D02*
X12315Y-11445D01*
X12240Y-5370D02*
X12740D01*
X12240Y-5870D02*
Y-5370D01*
Y-5870D02*
X12740D01*
Y-5370D01*
X12665Y-5445D02*
X12740Y-5370D01*
X12665Y-5795D02*
Y-5445D01*
X12315Y-5795D02*
X12665D01*
X12315D02*
Y-5445D01*
X12665D01*
Y-5795D02*
X12740Y-5870D01*
X12240D02*
X12315Y-5795D01*
X12240Y-5370D02*
X12315Y-5445D01*
X12240Y-7370D02*
X12740D01*
X12240Y-7870D02*
Y-7370D01*
Y-7870D02*
X12740D01*
Y-7370D01*
X12665Y-7445D02*
X12740Y-7370D01*
X12665Y-7795D02*
Y-7445D01*
X12315Y-7795D02*
X12665D01*
X12315D02*
Y-7445D01*
X12665D01*
Y-7795D02*
X12740Y-7870D01*
X12240D02*
X12315Y-7795D01*
X12240Y-7370D02*
X12315Y-7445D01*
X12240Y-9370D02*
X12315Y-9445D01*
X12240Y-9870D02*
X12315Y-9795D01*
X12665D02*
X12740Y-9870D01*
X12315Y-9445D02*
X12665D01*
X12315Y-9795D02*
Y-9445D01*
Y-9795D02*
X12665D01*
Y-9445D01*
X12740Y-9370D01*
Y-9870D02*
Y-9370D01*
X12240Y-9870D02*
X12740D01*
X12240D02*
Y-9370D01*
X12740D01*
X9940Y-2495D02*
X11215D01*
X13765D02*
X15290D01*
X10290Y-12170D02*
Y-5070D01*
Y-13070D02*
X10365Y-12995D01*
X10290Y-12245D02*
X10365Y-12170D01*
X10290Y-13070D02*
Y-12245D01*
X15290Y-4995D02*
Y-2495D01*
X9940Y-14745D02*
Y-2495D01*
X14290Y-4670D02*
X14890D01*
Y-4245D01*
X10365Y-12995D02*
Y-4245D01*
X9940Y-5070D02*
X10365D01*
X9940D02*
Y-4995D01*
X10290D01*
X9940Y-12170D02*
X10365D01*
X9940Y-12245D02*
Y-12170D01*
Y-12245D02*
X10290D01*
X10365Y-5070D02*
X10365D01*
X10290Y-4995D02*
X10365Y-5070D01*
X10290Y-4995D02*
Y-4170D01*
X10865D01*
X14965Y-4745D02*
Y-4170D01*
X14890Y-4670D02*
X14965Y-4745D01*
X14890Y-4245D02*
X14965Y-4170D01*
X14365Y-4745D02*
X14965D01*
X14290Y-4670D02*
X14365Y-4745D01*
X14115Y-3770D02*
X15290D01*
X14690Y-6945D02*
Y-6295D01*
Y-6870D02*
X15290D01*
Y-6920D02*
Y-6870D01*
Y-6945D02*
Y-6920D01*
X14365Y-6945D02*
Y-6295D01*
X14290Y-6945D02*
Y-6295D01*
X15290Y-8945D02*
Y-8295D01*
X14690Y-8945D02*
Y-8295D01*
X14365Y-8945D02*
Y-8295D01*
X14290Y-8945D02*
Y-8295D01*
X15290Y-10370D02*
Y-10295D01*
X14690Y-10370D02*
X15290D01*
X14690Y-10945D02*
Y-10295D01*
X14365Y-10945D02*
Y-10295D01*
X14290Y-10945D02*
Y-10295D01*
X48845Y-3230D02*
X50020D01*
X49770Y-4205D02*
X49845Y-4130D01*
X49170Y-4205D02*
X49770D01*
X49170Y-3630D02*
X49245Y-3705D01*
X49170Y-4205D02*
X49245Y-4130D01*
X49170Y-4205D02*
Y-3630D01*
X53270D02*
X53845D01*
X49245Y-4130D02*
Y-3705D01*
Y-4130D02*
X49845D01*
X48845Y-4455D02*
Y-1955D01*
X50370D01*
X52920D02*
X54195D01*
X49770Y-4455D02*
Y-4205D01*
X49845Y-4455D02*
Y-4130D01*
X53270Y-3230D02*
X54195D01*
X53270Y-3705D02*
X53845D01*
X49170D02*
X50020D01*
X49170Y-3630D02*
X50020D01*
X49170Y-12530D02*
X50020D01*
X49170Y-12455D02*
X50020D01*
X53270D02*
X53845D01*
X53770D02*
X53845Y-12530D01*
X53270Y-12930D02*
X54195D01*
X49845Y-12030D02*
Y-11705D01*
X49770Y-11955D02*
Y-11705D01*
X51395Y-5330D02*
X51895D01*
Y-4830D01*
X51395D02*
X51895D01*
X51395Y-5330D02*
Y-4830D01*
Y-5330D02*
X51470Y-5255D01*
Y-4905D01*
X51820D01*
Y-5255D02*
Y-4905D01*
X51470Y-5255D02*
X51820D01*
X51395Y-4830D02*
X51470Y-4905D01*
X51820D02*
X51895Y-4830D01*
X51820Y-5255D02*
X51895Y-5330D01*
X51395Y-11330D02*
X51895D01*
Y-10830D01*
X51395D02*
X51895D01*
X51395Y-11330D02*
Y-10830D01*
Y-11330D02*
X51470Y-11255D01*
Y-10905D01*
X51820D01*
Y-11255D02*
Y-10905D01*
X51470Y-11255D02*
X51820D01*
X51395Y-10830D02*
X51470Y-10905D01*
X51820D02*
X51895Y-10830D01*
X51820Y-11255D02*
X51895Y-11330D01*
X51395Y-9330D02*
X51895D01*
Y-8830D01*
X51395D02*
X51895D01*
X51395Y-9330D02*
Y-8830D01*
Y-9330D02*
X51470Y-9255D01*
Y-8905D01*
X51820D01*
Y-9255D02*
Y-8905D01*
X51470Y-9255D02*
X51820D01*
X51395Y-8830D02*
X51470Y-8905D01*
X51820D02*
X51895Y-8830D01*
X51820Y-9255D02*
X51895Y-9330D01*
X51820Y-7255D02*
X51895Y-7330D01*
X51820Y-6905D02*
X51895Y-6830D01*
X51395D02*
X51470Y-6905D01*
Y-7255D02*
X51820D01*
Y-6905D01*
X51470D02*
X51820D01*
X51470Y-7255D02*
Y-6905D01*
X51395Y-7330D02*
X51470Y-7255D01*
X51395Y-7330D02*
Y-6830D01*
X51895D01*
Y-7330D02*
Y-6830D01*
X51395Y-7330D02*
X51895D01*
X52920Y-14205D02*
X54195D01*
X48845D02*
X50370D01*
X53845Y-11630D02*
Y-4530D01*
X53770Y-3705D02*
X53845Y-3630D01*
X53770Y-4530D02*
X53845Y-4455D01*
Y-3630D01*
X48845Y-14205D02*
Y-11705D01*
X54195Y-14205D02*
Y-1955D01*
X49245Y-12030D02*
X49845D01*
X49245Y-12455D02*
Y-12030D01*
X53770Y-12455D02*
Y-3705D01*
Y-11630D02*
X54195D01*
Y-11705D02*
Y-11630D01*
X53845Y-11705D02*
X54195D01*
X53770Y-4530D02*
X54195D01*
Y-4455D01*
X53845D02*
X54195D01*
X53770Y-11630D02*
X53770D01*
X53845Y-11705D01*
Y-12530D02*
Y-11705D01*
X53270Y-12530D02*
X53845D01*
X49170D02*
Y-11955D01*
X49245Y-12030D01*
X49170Y-12530D02*
X49245Y-12455D01*
X49170Y-11955D02*
X49770D01*
X49845Y-12030D01*
X48845Y-12930D02*
X50020D01*
X49445Y-10405D02*
Y-9755D01*
X48845Y-9830D02*
X49445D01*
X48845D02*
Y-9780D01*
Y-9755D01*
X49770Y-10405D02*
Y-9755D01*
X49845Y-10405D02*
Y-9755D01*
X48845Y-8405D02*
Y-7755D01*
X49445Y-8405D02*
Y-7755D01*
X49770Y-8405D02*
Y-7755D01*
X49845Y-8405D02*
Y-7755D01*
X48845Y-6405D02*
Y-6330D01*
X49445D01*
Y-6405D02*
Y-5755D01*
X49770Y-6405D02*
Y-5755D01*
X49845Y-6405D02*
Y-5755D01*
X14670Y-22605D02*
X17080D01*
X14670Y-43435D02*
Y-22605D01*
X17080Y-43435D02*
Y-22605D01*
X14670Y-43435D02*
X17080D01*
X37530Y-22605D02*
X39940D01*
X37530Y-43435D02*
Y-22605D01*
X39940Y-43435D02*
Y-22605D01*
X37530Y-43435D02*
X39940D01*
D32*
X22225Y-10360D02*
Y-10260D01*
Y-10060D02*
Y-9960D01*
X22025Y-10060D02*
X22425D01*
X22025Y-10260D02*
X22425D01*
X32385Y-10425D02*
Y-10325D01*
Y-10125D02*
Y-10025D01*
X32185Y-10125D02*
X32585D01*
X32185Y-10325D02*
X32585D01*
X31851Y-12700D02*
X31951D01*
X31552D02*
X31652D01*
Y-12900D02*
Y-12500D01*
X31851Y-12900D02*
Y-12500D01*
X23495Y-10360D02*
Y-10260D01*
Y-10060D02*
Y-9960D01*
X23295Y-10060D02*
X23695D01*
X23295Y-10260D02*
X23695D01*
X31115Y-10425D02*
Y-10325D01*
Y-10125D02*
Y-10025D01*
X30915Y-10125D02*
X31315D01*
X30915Y-10325D02*
X31315D01*
D33*
X22775Y-11210D02*
Y-9135D01*
X21675Y-11185D02*
Y-9135D01*
X32935Y-11275D02*
Y-9200D01*
X31835Y-11250D02*
Y-9200D01*
X30726Y-12150D02*
X32801D01*
X30726Y-13250D02*
X32777D01*
X24045Y-11060D02*
Y-9260D01*
X22945Y-11060D02*
Y-9260D01*
X31665Y-11125D02*
Y-9325D01*
X30565Y-11125D02*
Y-9325D01*
X37687Y-14030D02*
X39786D01*
X37687Y-15180D02*
X39786D01*
X42130Y-14030D02*
X44230D01*
X42130Y-15180D02*
X44230D01*
M02*
