G04 Layer_Color=128*
%FSLAX43Y43*%
%MOMM*%
G71*
G01*
G75*
%ADD19C,0.127*%
%ADD50C,0.051*%
D19*
X33689Y-45085D02*
G03*
X34535Y-44239I0J846D01*
G01*
X20035D02*
G03*
X20881Y-45085I846J0D01*
G01*
X20035Y-32485D02*
G03*
X19035Y-32485I-500J0D01*
G01*
X18189Y-45085D02*
G03*
X19035Y-44239I-0J846D01*
G01*
X35535Y-32485D02*
G03*
X34535Y-32485I-500J0D01*
G01*
Y-29220D02*
G03*
X35535Y-29220I500J0D01*
G01*
Y-18669D02*
G03*
X33386Y-16520I-2149J0D01*
G01*
X34535Y-18510D02*
G03*
X33345Y-17320I-1190J0D01*
G01*
X21225D02*
G03*
X20035Y-18510I0J-1190D01*
G01*
X21229Y-16520D02*
G03*
X19035Y-18714I0J-2194D01*
G01*
Y-29220D02*
G03*
X20035Y-29220I500J0D01*
G01*
X35535Y-44239D02*
G03*
X36381Y-45085I846J0D01*
G01*
X54610Y-27940D02*
Y-1270D01*
X53340Y0D02*
X54610Y-1270D01*
X1270Y0D02*
X53340D01*
X46355Y-43815D02*
Y-30480D01*
X36381Y-45085D02*
X45085D01*
X46355Y-43815D01*
X8255D02*
Y-30480D01*
Y-43815D02*
X9525Y-45085D01*
X18189D01*
X0Y-27940D02*
Y-1270D01*
X1270Y0D01*
X20881Y-45085D02*
X33689D01*
X20035Y-44239D02*
Y-32520D01*
X19035Y-44239D02*
X19035Y-32520D01*
X35535D02*
X35535Y-44239D01*
X34535Y-44239D02*
Y-32520D01*
X46355Y-30480D02*
X47625Y-29210D01*
X53340D02*
X54610Y-27940D01*
X47625Y-29210D02*
X53340D01*
X0Y-27940D02*
X1270Y-29210D01*
X6985D01*
X8255Y-30480D01*
X35535Y-29220D02*
Y-18669D01*
X34535Y-29220D02*
Y-18510D01*
X21229Y-16520D02*
X33386D01*
X21225Y-17320D02*
X33345D01*
X20035Y-29220D02*
Y-18510D01*
X19035Y-29220D02*
Y-18714D01*
D50*
X19760Y-2794D02*
X20660D01*
X20210Y-3244D02*
Y-2344D01*
X19760Y-4794D02*
X20660D01*
X20210Y-5244D02*
Y-4344D01*
X21760Y-4794D02*
X22660D01*
X22210Y-5244D02*
Y-4344D01*
X21760Y-2794D02*
X22660D01*
X22210Y-3244D02*
Y-2344D01*
X23760Y-2794D02*
X24660D01*
X24210Y-3244D02*
Y-2344D01*
X25760Y-2794D02*
X26660D01*
X26210Y-3244D02*
Y-2344D01*
X27760Y-2794D02*
X28660D01*
X28210Y-3244D02*
Y-2344D01*
X29760Y-2794D02*
X30660D01*
X30210Y-3244D02*
Y-2344D01*
X31760Y-2794D02*
X32660D01*
X32210Y-3244D02*
Y-2344D01*
X33760Y-2794D02*
X34660D01*
X34210Y-3244D02*
Y-2344D01*
X35760Y-2794D02*
X36660D01*
X36210Y-3244D02*
Y-2344D01*
X37760Y-2794D02*
X38660D01*
X38210Y-3244D02*
Y-2344D01*
X23760Y-4794D02*
X24660D01*
X24210Y-5244D02*
Y-4344D01*
X25760Y-4794D02*
X26660D01*
X26210Y-5244D02*
Y-4344D01*
X27760Y-4794D02*
X28660D01*
X28210Y-5244D02*
Y-4344D01*
X29760Y-4794D02*
X30660D01*
X30210Y-5244D02*
Y-4344D01*
X31760Y-4794D02*
X32660D01*
X32210Y-5244D02*
Y-4344D01*
X33760Y-4794D02*
X34660D01*
X34210Y-5244D02*
Y-4344D01*
X35760Y-4794D02*
X36660D01*
X36210Y-5244D02*
Y-4344D01*
X37760Y-4794D02*
X38660D01*
X38210Y-5244D02*
Y-4344D01*
X3260Y-16510D02*
X4360D01*
X3810Y-17060D02*
Y-15960D01*
X3260Y-13970D02*
X4360D01*
X3810Y-14520D02*
Y-13420D01*
X3260Y-11430D02*
X4360D01*
X3810Y-11980D02*
Y-10880D01*
X3260Y-8890D02*
X4360D01*
X3810Y-9440D02*
Y-8340D01*
X5800Y-8890D02*
X6900D01*
X6350Y-9440D02*
Y-8340D01*
X5800Y-11430D02*
X6900D01*
X6350Y-11980D02*
Y-10880D01*
X5800Y-13970D02*
X6900D01*
X6350Y-14520D02*
Y-13420D01*
X5800Y-16510D02*
X6900D01*
X6350Y-17060D02*
Y-15960D01*
X3969Y-3810D02*
X7969D01*
X5969Y-5810D02*
Y-1810D01*
X21090Y-13970D02*
X22090D01*
X21590Y-14470D02*
Y-13470D01*
X23630Y-13970D02*
X24630D01*
X24130Y-14470D02*
Y-13470D01*
X26170Y-13970D02*
X27170D01*
X26670Y-14470D02*
Y-13470D01*
X5215Y-21590D02*
X6215D01*
X5715Y-22090D02*
Y-21090D01*
X2675Y-21590D02*
X3675D01*
X3175Y-22090D02*
Y-21090D01*
X50935Y-21590D02*
X51935D01*
X51435Y-22090D02*
Y-21090D01*
X48395Y-21590D02*
X49395D01*
X48895Y-22090D02*
Y-21090D01*
X5215Y-25400D02*
X6215D01*
X5715Y-25900D02*
Y-24900D01*
X2675Y-25400D02*
X3675D01*
X3175Y-25900D02*
Y-24900D01*
X50935Y-25400D02*
X51935D01*
X51435Y-25900D02*
Y-24900D01*
X48395Y-25400D02*
X49395D01*
X48895Y-25900D02*
Y-24900D01*
X12835Y-39370D02*
X13835D01*
X13335Y-39870D02*
Y-38870D01*
X12835Y-41910D02*
X13835D01*
X13335Y-42410D02*
Y-41410D01*
X12835Y-36830D02*
X13835D01*
X13335Y-37330D02*
Y-36330D01*
X12835Y-34290D02*
X13835D01*
X13335Y-34790D02*
Y-33790D01*
X12835Y-31750D02*
X13835D01*
X13335Y-32250D02*
Y-31250D01*
X12835Y-29210D02*
X13835D01*
X13335Y-29710D02*
Y-28710D01*
X12835Y-26670D02*
X13835D01*
X13335Y-27170D02*
Y-26170D01*
X12835Y-24130D02*
X13835D01*
X13335Y-24630D02*
Y-23630D01*
X12835Y-21590D02*
X13835D01*
X13335Y-22090D02*
Y-21090D01*
X12835Y-19050D02*
X13835D01*
X13335Y-19550D02*
Y-18550D01*
X40775Y-39370D02*
X41775D01*
X41275Y-39870D02*
Y-38870D01*
X40775Y-41910D02*
X41775D01*
X41275Y-42410D02*
Y-41410D01*
X40775Y-36830D02*
X41775D01*
X41275Y-37330D02*
Y-36330D01*
X40775Y-34290D02*
X41775D01*
X41275Y-34790D02*
Y-33790D01*
X40775Y-31750D02*
X41775D01*
X41275Y-32250D02*
Y-31250D01*
X40775Y-29210D02*
X41775D01*
X41275Y-29710D02*
Y-28710D01*
X40775Y-26670D02*
X41775D01*
X41275Y-27170D02*
Y-26170D01*
X40775Y-24130D02*
X41775D01*
X41275Y-24630D02*
Y-23630D01*
X40775Y-21590D02*
X41775D01*
X41275Y-22090D02*
Y-21090D01*
X40775Y-19050D02*
X41775D01*
X41275Y-19550D02*
Y-18550D01*
X15325Y-29210D02*
X16425D01*
X15875Y-29760D02*
Y-28660D01*
X15325Y-31750D02*
X16425D01*
X15875Y-32300D02*
Y-31200D01*
X15325Y-41910D02*
X16425D01*
X15875Y-42460D02*
Y-41360D01*
X15325Y-39370D02*
X16425D01*
X15875Y-39920D02*
Y-38820D01*
X15325Y-36830D02*
X16425D01*
X15875Y-37380D02*
Y-36280D01*
X15325Y-34290D02*
X16425D01*
X15875Y-34840D02*
Y-33740D01*
X15325Y-26670D02*
X16425D01*
X15875Y-27220D02*
Y-26120D01*
X15325Y-24130D02*
X16425D01*
X15875Y-24680D02*
Y-23580D01*
X38185Y-29210D02*
X39285D01*
X38735Y-29760D02*
Y-28660D01*
X38185Y-31750D02*
X39285D01*
X38735Y-32300D02*
Y-31200D01*
X38185Y-41910D02*
X39285D01*
X38735Y-42460D02*
Y-41360D01*
X38185Y-39370D02*
X39285D01*
X38735Y-39920D02*
Y-38820D01*
X38185Y-36830D02*
X39285D01*
X38735Y-37380D02*
Y-36280D01*
X38185Y-34290D02*
X39285D01*
X38735Y-34840D02*
Y-33740D01*
X38185Y-26670D02*
X39285D01*
X38735Y-27220D02*
Y-26120D01*
X38185Y-24130D02*
X39285D01*
X38735Y-24680D02*
Y-23580D01*
X40564Y-11581D02*
X40767D01*
X40665Y-11683D02*
Y-11479D01*
X40589Y-17323D02*
X40792D01*
X40691Y-17424D02*
Y-17221D01*
X38557Y-17958D02*
X38760D01*
X38659Y-18059D02*
Y-17856D01*
X41834Y-15951D02*
X42037D01*
X41935Y-16053D02*
Y-15850D01*
X41681Y-14605D02*
X41885D01*
X41783Y-14707D02*
Y-14503D01*
X27330Y-7366D02*
X27534D01*
X27432Y-7468D02*
Y-7264D01*
X26314Y-7366D02*
X26518D01*
X26416Y-7468D02*
Y-7264D01*
X36601Y-9652D02*
X36805D01*
X36703Y-9754D02*
Y-9550D01*
X35585Y-6350D02*
X35789D01*
X35687Y-6452D02*
Y-6248D01*
X18821Y-7620D02*
X19025D01*
X18923Y-7722D02*
Y-7518D01*
X20472Y-6795D02*
X20676D01*
X20574Y-6897D02*
Y-6693D01*
X31140Y-5969D02*
X31344D01*
X31242Y-6071D02*
Y-5867D01*
X47650Y-12446D02*
X47854D01*
X47752Y-12548D02*
Y-12344D01*
X36474Y-12700D02*
X36678D01*
X36576Y-12802D02*
Y-12598D01*
X18707Y-16015D02*
X18911D01*
X18809Y-16116D02*
Y-15913D01*
X17551Y-4445D02*
X17755D01*
X17653Y-4547D02*
Y-4343D01*
X26568Y-12065D02*
X26772D01*
X26670Y-12167D02*
Y-11963D01*
X36982Y-20066D02*
X37186D01*
X37084Y-20168D02*
Y-19964D01*
X11963Y-10160D02*
X12167D01*
X12065Y-10262D02*
Y-10058D01*
X10947Y-10795D02*
X11151D01*
X11049Y-10897D02*
Y-10693D01*
X36982Y-20701D02*
X37186D01*
X37084Y-20803D02*
Y-20599D01*
X36982Y-21717D02*
X37186D01*
X37084Y-21819D02*
Y-21615D01*
X44602Y-24130D02*
X44806D01*
X44704Y-24232D02*
Y-24028D01*
X45237Y-24130D02*
X45441D01*
X45339Y-24232D02*
Y-24028D01*
M02*
