M48
;Layer_Color=9474304
;FILE_FORMAT=4:3
METRIC,LZ
;TYPE=PLATED
T1F00S00C0.203
T2F00S00C0.900
T3F00S00C1.000
T4F00S00C1.100
T5F00S00C4.000
%
T01
X0018809Y-0016015
X0038659Y-0017958
X0040691Y-0017323
X0037084Y-0020066
Y-0020701
Y-0021717
X0044704Y-002413
X0045339
X0041935Y-0015951
X0041783Y-0014605
X0040665Y-0011581
X0036576Y-00127
X0036703Y-0009652
X0035687Y-000635
X0031242Y-0005969
X0027432Y-0007366
X0026416
X002667Y-0012065
X0020574Y-0006795
X0018923Y-000762
X0017653Y-0004445
X0012065Y-001016
X0011049Y-0010795
X0047752Y-0012446
T02
X002021Y-0004794
Y-0002794
X002221
X002421
X002621
X002821
X003021
X003221
X003421
X003621
X003821
Y-0004794
X003621
X003421
X003221
X003021
X002821
X002621
X002421
X002221
T03
X0051435Y-00254
Y-002159
X0048895
Y-00254
X0041275Y-002667
Y-002921
Y-003175
Y-003429
Y-003683
Y-003937
Y-004191
Y-002413
Y-002159
Y-001905
X0013335
Y-002159
Y-002413
Y-002667
Y-002921
Y-003175
Y-003429
Y-003683
Y-003937
Y-004191
X0005715Y-00254
X0003175
Y-002159
X0005715
X002159Y-001397
X002413
X002667
T04
X0015875Y-004191
Y-003937
Y-003683
Y-003429
Y-003175
Y-002921
Y-002667
Y-002413
X0038735
Y-002667
Y-002921
Y-003175
Y-003429
Y-003683
Y-003937
Y-004191
X000635Y-001651
X000381
Y-001397
Y-001143
Y-000889
X000635
Y-001143
Y-001397
T05
X0005969Y-000381
M30
