G04 Layer_Physical_Order=2*
G04 Layer_Color=16711680*
%FSLAX43Y43*%
%MOMM*%
G71*
G01*
G75*
%ADD10R,6.000X5.000*%
%ADD19C,0.127*%
%ADD20C,0.381*%
%ADD22C,1.400*%
%ADD23R,1.400X1.400*%
%ADD24R,1.850X1.850*%
%ADD25C,1.850*%
%ADD26C,5.000*%
%ADD27R,1.850X1.850*%
%ADD28C,1.600*%
%ADD29R,1.600X1.600*%
%ADD30C,0.406*%
G36*
X39939Y-21910D02*
X39939Y-21910D01*
X40015Y-21962D01*
X40134Y-22249D01*
X40344Y-22521D01*
X40616Y-22731D01*
X40934Y-22862D01*
X40938Y-22863D01*
X40946Y-22894D01*
X40942Y-22992D01*
X40680Y-23100D01*
X40434Y-23289D01*
X40245Y-23535D01*
X40126Y-23822D01*
X40119Y-23876D01*
X41275D01*
Y-24384D01*
X40119D01*
X40126Y-24438D01*
X40245Y-24725D01*
X40434Y-24971D01*
X40680Y-25160D01*
X40942Y-25268D01*
X40946Y-25366D01*
X40938Y-25397D01*
X40934Y-25398D01*
X40616Y-25529D01*
X40344Y-25739D01*
X40134Y-26011D01*
X40069Y-26170D01*
X39942D01*
X39876Y-26011D01*
X39666Y-25739D01*
X39394Y-25529D01*
X39076Y-25398D01*
X39072Y-25397D01*
X39064Y-25366D01*
X39068Y-25268D01*
X39330Y-25160D01*
X39576Y-24971D01*
X39765Y-24725D01*
X39884Y-24438D01*
X39891Y-24384D01*
X38735D01*
Y-24130D01*
X38481D01*
Y-22974D01*
X38427Y-22981D01*
X38195Y-23078D01*
X38123Y-22970D01*
X39561Y-21532D01*
X39939Y-21910D01*
D02*
G37*
G36*
X19266Y-3339D02*
X19439Y-3565D01*
X19643Y-3721D01*
X19655Y-3793D01*
Y-3795D01*
X19643Y-3867D01*
X19439Y-4023D01*
X19266Y-4249D01*
X19157Y-4512D01*
X19120Y-4794D01*
X19157Y-5076D01*
X19266Y-5339D01*
X19439Y-5565D01*
X19440Y-5565D01*
X19448Y-5692D01*
X18608Y-6532D01*
X18035D01*
X18035Y-6532D01*
X17862Y-6566D01*
X17715Y-6665D01*
X17715Y-6665D01*
X17460Y-6920D01*
X17361Y-7067D01*
X17327Y-7240D01*
Y-28387D01*
X17138Y-28576D01*
X17113Y-28571D01*
X17002Y-28533D01*
X16806Y-28279D01*
X16534Y-28069D01*
X16375Y-28003D01*
Y-27876D01*
X16534Y-27811D01*
X16806Y-27601D01*
X17016Y-27329D01*
X17147Y-27011D01*
X17192Y-26670D01*
X17147Y-26329D01*
X17016Y-26011D01*
X16806Y-25739D01*
X16534Y-25529D01*
X16216Y-25398D01*
X16212Y-25397D01*
X16204Y-25366D01*
X16208Y-25268D01*
X16470Y-25160D01*
X16716Y-24971D01*
X16905Y-24725D01*
X17024Y-24438D01*
X17031Y-24384D01*
X15875D01*
X14719D01*
X14726Y-24438D01*
X14845Y-24725D01*
X15034Y-24971D01*
X15280Y-25160D01*
X15542Y-25268D01*
X15546Y-25366D01*
X15538Y-25397D01*
X15534Y-25398D01*
X15216Y-25529D01*
X14944Y-25739D01*
X14734Y-26011D01*
X14668Y-26170D01*
X14542D01*
X14476Y-26011D01*
X14266Y-25739D01*
X13994Y-25529D01*
X13676Y-25398D01*
X13672Y-25397D01*
X13664Y-25366D01*
X13668Y-25268D01*
X13930Y-25160D01*
X14176Y-24971D01*
X14365Y-24725D01*
X14484Y-24438D01*
X14491Y-24384D01*
X13335D01*
Y-23876D01*
X14491D01*
X14484Y-23822D01*
X14365Y-23535D01*
X14176Y-23289D01*
X13930Y-23100D01*
X13668Y-22992D01*
X13664Y-22894D01*
X13672Y-22863D01*
X13676Y-22862D01*
X13994Y-22731D01*
X14266Y-22521D01*
X14476Y-22249D01*
X14607Y-21931D01*
X14652Y-21590D01*
X14607Y-21249D01*
X14476Y-20931D01*
X14266Y-20659D01*
X13994Y-20449D01*
X13835Y-20383D01*
Y-20257D01*
X13994Y-20191D01*
X14266Y-19981D01*
X14476Y-19709D01*
X14607Y-19391D01*
X14652Y-19050D01*
X14607Y-18709D01*
X14476Y-18391D01*
X14266Y-18119D01*
X13994Y-17909D01*
X13788Y-17824D01*
Y-5268D01*
X15793Y-3263D01*
X19234D01*
X19266Y-3339D01*
D02*
G37*
G36*
X54157Y-1458D02*
Y-27752D01*
X53152Y-28757D01*
X47625D01*
X47625Y-28757D01*
X47452Y-28791D01*
X47305Y-28890D01*
X47305Y-28890D01*
X46035Y-30160D01*
X45936Y-30307D01*
X45902Y-30480D01*
Y-43627D01*
X44897Y-44632D01*
X36479D01*
X36354Y-44632D01*
X36236Y-44612D01*
X36202Y-44605D01*
X36073Y-44519D01*
X35987Y-44390D01*
X35981Y-44357D01*
X35961Y-44239D01*
X35961Y-44112D01*
X35961Y-32520D01*
X35961Y-32520D01*
Y-18669D01*
X35964D01*
X35914Y-18160D01*
X35766Y-17671D01*
X35525Y-17221D01*
X35201Y-16826D01*
X34806Y-16502D01*
X34356Y-16261D01*
X33867Y-16113D01*
X33359Y-16063D01*
Y-16067D01*
X21202D01*
X21197Y-16068D01*
X20788Y-16100D01*
X20584Y-16149D01*
X20557Y-16152D01*
X20514Y-16166D01*
X20384Y-16197D01*
X20289Y-16236D01*
X20273Y-16241D01*
X20248Y-16253D01*
X20246Y-16254D01*
X20197Y-16270D01*
X20187Y-16276D01*
X20176Y-16278D01*
X20049Y-16329D01*
X20020Y-16348D01*
X20000Y-16356D01*
X19995Y-16359D01*
X19978Y-16366D01*
X19911Y-16410D01*
X19646Y-16573D01*
X19330Y-16843D01*
X19060Y-17159D01*
X18843Y-17513D01*
X18741Y-17759D01*
X18614Y-17734D01*
Y-16672D01*
X18712Y-16591D01*
X18809Y-16610D01*
X19037Y-16565D01*
X19230Y-16436D01*
X19359Y-16243D01*
X19405Y-16015D01*
X19392Y-15950D01*
Y-14833D01*
X19672Y-14553D01*
X20284D01*
Y-15276D01*
X22896D01*
Y-14716D01*
X23023Y-14673D01*
X23199Y-14901D01*
X23471Y-15111D01*
X23789Y-15242D01*
X24130Y-15287D01*
X24471Y-15242D01*
X24789Y-15111D01*
X25061Y-14901D01*
X25271Y-14629D01*
X25337Y-14470D01*
X25463D01*
X25529Y-14629D01*
X25739Y-14901D01*
X26011Y-15111D01*
X26329Y-15242D01*
X26670Y-15287D01*
X27011Y-15242D01*
X27329Y-15111D01*
X27601Y-14901D01*
X27811Y-14629D01*
X27942Y-14311D01*
X27987Y-13970D01*
X27942Y-13629D01*
X27811Y-13311D01*
X27601Y-13039D01*
X27329Y-12829D01*
X27011Y-12698D01*
X26670Y-12653D01*
X26329Y-12698D01*
X26011Y-12829D01*
X25739Y-13039D01*
X25529Y-13311D01*
X25463Y-13470D01*
X25337D01*
X25271Y-13311D01*
X25061Y-13039D01*
X24789Y-12829D01*
X24713Y-12798D01*
Y-10934D01*
X35383D01*
X35993Y-11544D01*
Y-12635D01*
X35980Y-12700D01*
X36026Y-12928D01*
X36155Y-13121D01*
X36348Y-13250D01*
X36576Y-13296D01*
X36804Y-13250D01*
X36997Y-13121D01*
X37126Y-12928D01*
X37172Y-12700D01*
X37159Y-12635D01*
Y-11303D01*
X37114Y-11080D01*
X36988Y-10891D01*
X36405Y-10308D01*
X36470Y-10210D01*
X36480Y-10203D01*
X36703Y-10248D01*
X36931Y-10202D01*
X37124Y-10073D01*
X37168Y-10008D01*
X37294Y-9995D01*
X37647Y-10348D01*
Y-21625D01*
X36510Y-22763D01*
X36411Y-22910D01*
X36377Y-23083D01*
Y-31115D01*
X36411Y-31288D01*
X36510Y-31435D01*
X37145Y-32070D01*
X37145Y-32070D01*
X37292Y-32169D01*
X37465Y-32203D01*
X37509D01*
X37594Y-32409D01*
X37804Y-32681D01*
X38076Y-32891D01*
X38235Y-32957D01*
Y-33083D01*
X38076Y-33149D01*
X37804Y-33359D01*
X37594Y-33631D01*
X37463Y-33949D01*
X37418Y-34290D01*
X37463Y-34631D01*
X37594Y-34949D01*
X37804Y-35221D01*
X38076Y-35431D01*
X38235Y-35496D01*
Y-35624D01*
X38076Y-35689D01*
X37804Y-35899D01*
X37594Y-36171D01*
X37463Y-36489D01*
X37418Y-36830D01*
X37463Y-37171D01*
X37594Y-37489D01*
X37804Y-37761D01*
X38076Y-37971D01*
X38235Y-38036D01*
Y-38164D01*
X38076Y-38229D01*
X37804Y-38439D01*
X37594Y-38711D01*
X37463Y-39029D01*
X37418Y-39370D01*
X37463Y-39711D01*
X37594Y-40029D01*
X37804Y-40301D01*
X38032Y-40477D01*
X37989Y-40604D01*
X37429D01*
Y-43216D01*
X42581D01*
Y-42356D01*
X42718Y-42329D01*
X42865Y-42230D01*
X44389Y-40706D01*
X44488Y-40559D01*
X44522Y-40386D01*
Y-11557D01*
X44488Y-11384D01*
X44389Y-11237D01*
X44389Y-11237D01*
X40331Y-7178D01*
Y-2032D01*
X40331Y-2032D01*
X40297Y-1859D01*
X40198Y-1712D01*
X40198Y-1712D01*
X39491Y-1004D01*
X39344Y-906D01*
X39171Y-872D01*
X34536D01*
X34536Y-872D01*
X34363Y-906D01*
X34216Y-1004D01*
X34216Y-1004D01*
X33890Y-1331D01*
X33791Y-1478D01*
X33757Y-1651D01*
Y-1812D01*
X33665Y-1850D01*
X33439Y-2023D01*
X33283Y-2227D01*
X33211Y-2239D01*
X33209D01*
X33137Y-2227D01*
X32981Y-2023D01*
X32755Y-1850D01*
X32492Y-1741D01*
X32210Y-1704D01*
X31928Y-1741D01*
X31665Y-1850D01*
X31439Y-2023D01*
X31283Y-2227D01*
X31211Y-2239D01*
X31209D01*
X31137Y-2227D01*
X30981Y-2023D01*
X30755Y-1850D01*
X30492Y-1741D01*
X30210Y-1704D01*
X29928Y-1741D01*
X29665Y-1850D01*
X29439Y-2023D01*
X29266Y-2249D01*
X29210Y-2383D01*
X29073D01*
X29043Y-2313D01*
X28890Y-2114D01*
X28691Y-1961D01*
X28464Y-1867D01*
Y-2794D01*
X27956D01*
Y-1867D01*
X27729Y-1961D01*
X27530Y-2114D01*
X27377Y-2313D01*
X27347Y-2383D01*
X27210D01*
X27154Y-2249D01*
X26981Y-2023D01*
X26755Y-1850D01*
X26492Y-1741D01*
X26210Y-1704D01*
X25928Y-1741D01*
X25665Y-1850D01*
X25439Y-2023D01*
X25283Y-2227D01*
X25211Y-2239D01*
X25209D01*
X25137Y-2227D01*
X24981Y-2023D01*
X24755Y-1850D01*
X24492Y-1741D01*
X24210Y-1704D01*
X23928Y-1741D01*
X23665Y-1850D01*
X23439Y-2023D01*
X23283Y-2227D01*
X23211Y-2239D01*
X23209D01*
X23137Y-2227D01*
X22981Y-2023D01*
X22755Y-1850D01*
X22492Y-1741D01*
X22480Y-1739D01*
X22313Y-1572D01*
X22166Y-1474D01*
X21992Y-1439D01*
X15887D01*
X15714Y-1474D01*
X15567Y-1572D01*
X15567Y-1572D01*
X12634Y-4506D01*
X12535Y-4653D01*
X12501Y-4826D01*
Y-9596D01*
X12374Y-9664D01*
X12293Y-9610D01*
X12065Y-9564D01*
X11837Y-9610D01*
X11692Y-9707D01*
X7513D01*
X7457Y-9593D01*
X7491Y-9549D01*
X7622Y-9231D01*
X7667Y-8890D01*
X7622Y-8549D01*
X7491Y-8231D01*
X7281Y-7959D01*
X7009Y-7749D01*
X6691Y-7618D01*
X6350Y-7573D01*
X6009Y-7618D01*
X5691Y-7749D01*
X5419Y-7959D01*
X5209Y-8231D01*
X5143Y-8390D01*
X5016D01*
X4951Y-8231D01*
X4741Y-7959D01*
X4469Y-7749D01*
X4151Y-7618D01*
X3810Y-7573D01*
X3469Y-7618D01*
X3151Y-7749D01*
X2879Y-7959D01*
X2669Y-8231D01*
X2538Y-8549D01*
X2493Y-8890D01*
X2538Y-9231D01*
X2669Y-9549D01*
X2879Y-9821D01*
X3151Y-10031D01*
X3297Y-10091D01*
Y-10229D01*
X3151Y-10289D01*
X2879Y-10499D01*
X2669Y-10771D01*
X2538Y-11089D01*
X2493Y-11430D01*
X2538Y-11771D01*
X2669Y-12089D01*
X2879Y-12361D01*
X3151Y-12571D01*
X3297Y-12631D01*
Y-12769D01*
X3151Y-12829D01*
X2879Y-13039D01*
X2669Y-13311D01*
X2538Y-13629D01*
X2493Y-13970D01*
X2538Y-14311D01*
X2669Y-14629D01*
X2879Y-14901D01*
X3151Y-15111D01*
X3254Y-15153D01*
X3268Y-15204D01*
X3171Y-15331D01*
X2631D01*
Y-16256D01*
X3810D01*
Y-16510D01*
X4064D01*
Y-17689D01*
X4989D01*
Y-16969D01*
X5116Y-16944D01*
X5209Y-17169D01*
X5419Y-17441D01*
X5691Y-17651D01*
X6009Y-17782D01*
X6350Y-17827D01*
X6691Y-17782D01*
X7009Y-17651D01*
X7281Y-17441D01*
X7491Y-17169D01*
X7622Y-16851D01*
X7667Y-16510D01*
X7622Y-16169D01*
X7491Y-15851D01*
X7457Y-15807D01*
X7513Y-15693D01*
X9083D01*
X10088Y-16698D01*
Y-38385D01*
X10122Y-38558D01*
X10221Y-38705D01*
X10977Y-39462D01*
Y-41275D01*
X11011Y-41448D01*
X11110Y-41595D01*
X11745Y-42230D01*
X11745Y-42230D01*
X11892Y-42329D01*
X12029Y-42356D01*
Y-43216D01*
X17181D01*
Y-40604D01*
X16621D01*
X16578Y-40477D01*
X16806Y-40301D01*
X17016Y-40029D01*
X17147Y-39711D01*
X17192Y-39370D01*
X17147Y-39029D01*
X17016Y-38711D01*
X16806Y-38439D01*
X16534Y-38229D01*
X16375Y-38164D01*
Y-38036D01*
X16534Y-37971D01*
X16806Y-37761D01*
X17016Y-37489D01*
X17147Y-37171D01*
X17192Y-36830D01*
X17147Y-36489D01*
X17016Y-36171D01*
X16806Y-35899D01*
X16534Y-35689D01*
X16375Y-35624D01*
Y-35496D01*
X16534Y-35431D01*
X16806Y-35221D01*
X17016Y-34949D01*
X17147Y-34631D01*
X17192Y-34290D01*
X17147Y-33949D01*
X17016Y-33631D01*
X16806Y-33359D01*
X16534Y-33149D01*
X16375Y-33083D01*
Y-32957D01*
X16534Y-32891D01*
X16806Y-32681D01*
X17016Y-32409D01*
X17101Y-32203D01*
X17272D01*
X17445Y-32169D01*
X17592Y-32070D01*
X18427Y-31236D01*
X18554Y-31288D01*
Y-32520D01*
X18554Y-32520D01*
X18554Y-44239D01*
X18556Y-44248D01*
X18528Y-44390D01*
X18442Y-44519D01*
X18313Y-44605D01*
X18170Y-44634D01*
X18161Y-44632D01*
X9713D01*
X8708Y-43627D01*
Y-30480D01*
X8708Y-30480D01*
X8674Y-30307D01*
X8575Y-30160D01*
X8575Y-30160D01*
X7305Y-28890D01*
X7158Y-28791D01*
X6985Y-28757D01*
X1458D01*
X453Y-27752D01*
Y-6564D01*
X3175D01*
Y-3810D01*
Y-1056D01*
X1021D01*
X972Y-939D01*
X1458Y-453D01*
X53152D01*
X54157Y-1458D01*
D02*
G37*
%LPC*%
G36*
X38989Y-22974D02*
Y-23876D01*
X39891D01*
X39884Y-23822D01*
X39765Y-23535D01*
X39576Y-23289D01*
X39330Y-23100D01*
X39043Y-22981D01*
X38989Y-22974D01*
D02*
G37*
G36*
X16129D02*
Y-23876D01*
X17031D01*
X17024Y-23822D01*
X16905Y-23535D01*
X16716Y-23289D01*
X16470Y-23100D01*
X16183Y-22981D01*
X16129Y-22974D01*
D02*
G37*
G36*
X15621Y-22974D02*
X15567Y-22981D01*
X15280Y-23100D01*
X15034Y-23289D01*
X14845Y-23535D01*
X14726Y-23822D01*
X14719Y-23876D01*
X15621D01*
Y-22974D01*
D02*
G37*
G36*
X5969Y-24370D02*
Y-25146D01*
X6745D01*
X6742Y-25125D01*
X6636Y-24868D01*
X6467Y-24648D01*
X6247Y-24479D01*
X5990Y-24373D01*
X5969Y-24370D01*
D02*
G37*
G36*
X5461D02*
X5440Y-24373D01*
X5183Y-24479D01*
X4963Y-24648D01*
X4794Y-24868D01*
X4688Y-25125D01*
X4685Y-25146D01*
X5461D01*
Y-24370D01*
D02*
G37*
G36*
X51181D02*
X51160Y-24373D01*
X50903Y-24479D01*
X50683Y-24648D01*
X50514Y-24868D01*
X50408Y-25125D01*
X50405Y-25146D01*
X51181D01*
Y-24370D01*
D02*
G37*
G36*
X51689D02*
Y-25146D01*
X52465D01*
X52462Y-25125D01*
X52356Y-24868D01*
X52187Y-24648D01*
X51967Y-24479D01*
X51710Y-24373D01*
X51689Y-24370D01*
D02*
G37*
G36*
X5461Y-25654D02*
X4685D01*
X4688Y-25675D01*
X4794Y-25932D01*
X4963Y-26152D01*
X5183Y-26321D01*
X5440Y-26427D01*
X5461Y-26430D01*
Y-25654D01*
D02*
G37*
G36*
X50076Y-24219D02*
X47714D01*
Y-26581D01*
X50076D01*
Y-24219D01*
D02*
G37*
G36*
X4356D02*
X1994D01*
Y-26581D01*
X4356D01*
Y-24219D01*
D02*
G37*
G36*
X52465Y-25654D02*
X51689D01*
Y-26430D01*
X51710Y-26427D01*
X51967Y-26321D01*
X52187Y-26152D01*
X52356Y-25932D01*
X52462Y-25675D01*
X52465Y-25654D01*
D02*
G37*
G36*
X51181D02*
X50405D01*
X50408Y-25675D01*
X50514Y-25932D01*
X50683Y-26152D01*
X50903Y-26321D01*
X51160Y-26427D01*
X51181Y-26430D01*
Y-25654D01*
D02*
G37*
G36*
X6745D02*
X5969D01*
Y-26430D01*
X5990Y-26427D01*
X6247Y-26321D01*
X6467Y-26152D01*
X6636Y-25932D01*
X6742Y-25675D01*
X6745Y-25654D01*
D02*
G37*
G36*
X51689Y-20560D02*
Y-21336D01*
X52465D01*
X52462Y-21315D01*
X52356Y-21058D01*
X52187Y-20838D01*
X51967Y-20669D01*
X51710Y-20563D01*
X51689Y-20560D01*
D02*
G37*
G36*
X51181D02*
X51160Y-20563D01*
X50903Y-20669D01*
X50683Y-20838D01*
X50514Y-21058D01*
X50408Y-21315D01*
X50405Y-21336D01*
X51181D01*
Y-20560D01*
D02*
G37*
G36*
X5969D02*
Y-21336D01*
X6745D01*
X6742Y-21315D01*
X6636Y-21058D01*
X6467Y-20838D01*
X6247Y-20669D01*
X5990Y-20563D01*
X5969Y-20560D01*
D02*
G37*
G36*
X3556Y-16764D02*
X2631D01*
Y-17689D01*
X3556D01*
Y-16764D01*
D02*
G37*
G36*
X6683Y-1056D02*
X6223D01*
Y-3556D01*
X8712D01*
X8698Y-3378D01*
X8596Y-2956D01*
X8430Y-2556D01*
X8204Y-2186D01*
X7922Y-1857D01*
X7593Y-1575D01*
X7223Y-1349D01*
X6823Y-1183D01*
X6683Y-1149D01*
Y-1056D01*
D02*
G37*
G36*
X8712Y-4064D02*
X6223D01*
Y-6564D01*
X6683D01*
Y-6471D01*
X6823Y-6437D01*
X7223Y-6271D01*
X7593Y-6045D01*
X7922Y-5763D01*
X8204Y-5434D01*
X8430Y-5064D01*
X8596Y-4664D01*
X8698Y-4242D01*
X8712Y-4064D01*
D02*
G37*
G36*
X5715Y-1056D02*
X3683D01*
Y-3810D01*
Y-6564D01*
X5715D01*
Y-3810D01*
Y-1056D01*
D02*
G37*
G36*
X5461Y-21844D02*
X4685D01*
X4688Y-21865D01*
X4794Y-22122D01*
X4963Y-22342D01*
X5183Y-22511D01*
X5440Y-22617D01*
X5461Y-22620D01*
Y-21844D01*
D02*
G37*
G36*
X50076Y-20409D02*
X47714D01*
Y-22771D01*
X50076D01*
Y-20409D01*
D02*
G37*
G36*
X4356D02*
X1994D01*
Y-22771D01*
X4356D01*
Y-20409D01*
D02*
G37*
G36*
X6745Y-21844D02*
X5969D01*
Y-22620D01*
X5990Y-22617D01*
X6247Y-22511D01*
X6467Y-22342D01*
X6636Y-22122D01*
X6742Y-21865D01*
X6745Y-21844D01*
D02*
G37*
G36*
X5461Y-20560D02*
X5440Y-20563D01*
X5183Y-20669D01*
X4963Y-20838D01*
X4794Y-21058D01*
X4688Y-21315D01*
X4685Y-21336D01*
X5461D01*
Y-20560D01*
D02*
G37*
G36*
X52465Y-21844D02*
X51689D01*
Y-22620D01*
X51710Y-22617D01*
X51967Y-22511D01*
X52187Y-22342D01*
X52356Y-22122D01*
X52462Y-21865D01*
X52465Y-21844D01*
D02*
G37*
G36*
X51181D02*
X50405D01*
X50408Y-21865D01*
X50514Y-22122D01*
X50683Y-22342D01*
X50903Y-22511D01*
X51160Y-22617D01*
X51181Y-22620D01*
Y-21844D01*
D02*
G37*
%LPD*%
D10*
X3429Y-3810D02*
D03*
D19*
X25146Y-5313D02*
Y-3048D01*
Y-7379D02*
Y-5313D01*
X25384Y-2810D02*
X26210D01*
X34210D02*
Y-1651D01*
X34536Y-1325D01*
X39171D01*
X39878Y-2032D01*
Y-7366D02*
Y-2032D01*
X39497Y-7620D02*
Y-2190D01*
X39013Y-1706D02*
X39497Y-2190D01*
X36210Y-2810D02*
Y-2017D01*
X36521Y-1706D02*
X39013D01*
X36210Y-2017D02*
X36521Y-1706D01*
X25146Y-3048D02*
X25384Y-2810D01*
X23128Y-3048D02*
X23365Y-2810D01*
X23128Y-7253D02*
Y-3048D01*
X15887Y-1893D02*
X21992D01*
X43307Y-36068D02*
Y-12065D01*
X42926Y-33909D02*
Y-12319D01*
X43688Y-38227D02*
Y-11811D01*
X44069Y-40386D02*
Y-11557D01*
X42545Y-39370D02*
X43688Y-38227D01*
X39497Y-7620D02*
X43688Y-11811D01*
X42545Y-41910D02*
X44069Y-40386D01*
X39878Y-7366D02*
X44069Y-11557D01*
X39751Y-21082D02*
Y-9779D01*
X39370Y-21082D02*
Y-10033D01*
X38659Y-17958D02*
Y-10109D01*
X38100Y-21813D02*
Y-10160D01*
X38659Y-10109D02*
X38735Y-10033D01*
X37351Y-8649D02*
X38735Y-10033D01*
X42545Y-34290D02*
X42926Y-33909D01*
X36957Y-6350D02*
X42926Y-12319D01*
X42545Y-36830D02*
X43307Y-36068D01*
X38210Y-6968D02*
X43307Y-12065D01*
X15605Y-2810D02*
X20210D01*
X13335Y-5080D02*
X15605Y-2810D01*
X13335Y-19050D02*
Y-5080D01*
X36970Y-9030D02*
X38100Y-10160D01*
X37211Y-28956D02*
X37465Y-29210D01*
X36830Y-31115D02*
X37465Y-31750D01*
X18161Y-7874D02*
X18415Y-7620D01*
X18923D01*
X20210Y-5605D02*
X24257Y-9652D01*
X36703D01*
X20210Y-5605D02*
Y-4810D01*
X20176Y-5605D02*
X20210D01*
X18796Y-6985D02*
X20176Y-5605D01*
X18035Y-6985D02*
X18796D01*
X17780Y-7240D02*
X18035Y-6985D01*
X22210Y-6970D02*
Y-4810D01*
Y-6970D02*
X24270Y-9030D01*
X36970D01*
X24210Y-7700D02*
X24778Y-8268D01*
X24210Y-7700D02*
Y-4810D01*
X27432Y-7366D02*
X33654D01*
X3810Y-12446D02*
X4064Y-12700D01*
X3810Y-12446D02*
Y-11430D01*
X9652Y-12700D02*
X10922Y-13970D01*
Y-38227D02*
Y-13970D01*
Y-38227D02*
X12065Y-39370D01*
X4064Y-12700D02*
X9652D01*
X3810Y-15113D02*
X3937Y-15240D01*
X3810Y-15113D02*
Y-13970D01*
X9271Y-15240D02*
X10541Y-16510D01*
Y-38385D02*
Y-16510D01*
Y-38385D02*
X11430Y-39274D01*
Y-41275D02*
Y-39274D01*
Y-41275D02*
X12065Y-41910D01*
X3937Y-15240D02*
X9271D01*
X24524Y-8649D02*
X37351D01*
X37605Y-8268D02*
X39370Y-10033D01*
X24778Y-8268D02*
X37605D01*
X37859Y-7887D02*
X39751Y-9779D01*
X40259Y-21590D02*
X41275D01*
X39751Y-21082D02*
X40259Y-21590D01*
X35687Y-6350D02*
X36957D01*
X38210Y-6968D02*
Y-4810D01*
X17272Y-31750D02*
X18161Y-30861D01*
X17145Y-29210D02*
X17780Y-28575D01*
X18161Y-30861D02*
Y-7874D01*
X17780Y-28575D02*
Y-7240D01*
X37211Y-23241D02*
X39370Y-21082D01*
X37211Y-28956D02*
Y-23241D01*
X36830Y-23083D02*
X38100Y-21813D01*
X36830Y-31115D02*
Y-23083D01*
X22210Y-2810D02*
Y-2110D01*
X21992Y-1893D02*
X22210Y-2110D01*
X23365Y-2810D02*
X24210D01*
X23128Y-7253D02*
X24524Y-8649D01*
X25146Y-7379D02*
X25654Y-7887D01*
X37859D01*
X26210Y-5636D02*
Y-4810D01*
Y-5636D02*
X26543Y-5969D01*
X31242D01*
X34210Y-6049D02*
Y-4810D01*
X33528Y-6731D02*
X34210Y-6049D01*
X36210Y-5573D02*
Y-4810D01*
X35305Y-5715D02*
X36068D01*
X36210Y-5573D01*
X33654Y-7366D02*
X35305Y-5715D01*
X12446Y-21590D02*
X13335D01*
X12065Y-21209D02*
X12446Y-21590D01*
X26416Y-6985D02*
X26670Y-6731D01*
X26416Y-7366D02*
Y-6985D01*
X26670Y-6731D02*
X33528D01*
X11303Y-36195D02*
X11938Y-36830D01*
X11684Y-33909D02*
X12065Y-34290D01*
X12954Y-4826D02*
X15887Y-1893D01*
X11303Y-36195D02*
Y-11684D01*
X11049Y-11430D02*
X11303Y-11684D01*
X11049Y-11430D02*
Y-10795D01*
X4064Y-10160D02*
X12065D01*
X3810Y-9906D02*
X4064Y-10160D01*
X3810Y-9906D02*
Y-8890D01*
X12954Y-10414D02*
Y-4826D01*
X12065Y-10764D02*
Y-10160D01*
Y-21209D02*
Y-11303D01*
X12954Y-10414D01*
X11684Y-33909D02*
Y-11145D01*
X12065Y-10764D01*
X11938Y-36830D02*
X13335D01*
X15875D01*
X12065Y-34290D02*
X13335D01*
X15875D01*
X12065Y-39370D02*
X13335D01*
X15875D01*
X12065Y-41910D02*
X13335D01*
X15875D01*
X38735D02*
X41275D01*
X42545D01*
X38735Y-39370D02*
X41275D01*
X42545D01*
X38735Y-36830D02*
X41275D01*
X42545D01*
X38735Y-34290D02*
X41275D01*
X42545D01*
X13335Y-29210D02*
X15875D01*
X17145D01*
X13335Y-31750D02*
X15875D01*
X17272D01*
X37465D02*
X38735D01*
X41275D01*
X37465Y-29210D02*
X38735D01*
X41275D01*
X33689Y-45085D02*
G03*
X34535Y-44239I0J846D01*
G01*
X20035D02*
G03*
X20881Y-45085I846J0D01*
G01*
X20035Y-32485D02*
G03*
X19035Y-32485I-500J0D01*
G01*
X18189Y-45085D02*
G03*
X19035Y-44239I-0J846D01*
G01*
X35535Y-32485D02*
G03*
X34535Y-32485I-500J0D01*
G01*
Y-29220D02*
G03*
X35535Y-29220I500J0D01*
G01*
Y-18669D02*
G03*
X33386Y-16520I-2149J0D01*
G01*
X34535Y-18510D02*
G03*
X33345Y-17320I-1190J0D01*
G01*
X21225D02*
G03*
X20035Y-18510I0J-1190D01*
G01*
X21229Y-16520D02*
G03*
X19035Y-18714I0J-2194D01*
G01*
Y-29220D02*
G03*
X20035Y-29220I500J0D01*
G01*
X35535Y-44239D02*
G03*
X36381Y-45085I846J0D01*
G01*
X54610Y-27940D02*
Y-1270D01*
X53340Y0D02*
X54610Y-1270D01*
X1270Y0D02*
X53340D01*
X46355Y-43815D02*
Y-30480D01*
X36381Y-45085D02*
X45085D01*
X46355Y-43815D01*
X8255D02*
Y-30480D01*
Y-43815D02*
X9525Y-45085D01*
X18189D01*
X0Y-27940D02*
Y-1270D01*
X1270Y0D01*
X20881Y-45085D02*
X33689D01*
X20035Y-44239D02*
Y-32520D01*
X19035Y-44239D02*
X19035Y-32520D01*
X35535D02*
X35535Y-44239D01*
X34535Y-44239D02*
Y-32520D01*
X46355Y-30480D02*
X47625Y-29210D01*
X53340D02*
X54610Y-27940D01*
X47625Y-29210D02*
X53340D01*
X0Y-27940D02*
X1270Y-29210D01*
X6985D01*
X8255Y-30480D01*
X35535Y-29220D02*
Y-18669D01*
X34535Y-29220D02*
Y-18510D01*
X21229Y-16520D02*
X33386D01*
X21225Y-17320D02*
X33345D01*
X20035Y-29220D02*
Y-18510D01*
X19035Y-29220D02*
Y-18714D01*
D20*
X40665Y-17297D02*
Y-11581D01*
Y-17297D02*
X40691Y-17323D01*
X41935Y-15951D02*
Y-14757D01*
X41783Y-14605D02*
X41935Y-14757D01*
X24130Y-13970D02*
Y-10351D01*
X20574Y-6795D02*
X24130Y-10351D01*
X35624D01*
X36576Y-11303D01*
Y-12700D02*
Y-11303D01*
X19431Y-13970D02*
X21590D01*
X18809Y-16015D02*
Y-14592D01*
X28210Y-2810D02*
X30210Y-4810D01*
X18809Y-14592D02*
X19431Y-13970D01*
D22*
X20210Y-2794D02*
D03*
Y-4794D02*
D03*
X22210D02*
D03*
Y-2794D02*
D03*
X24210D02*
D03*
X26210D02*
D03*
X28210D02*
D03*
X30210D02*
D03*
X32210D02*
D03*
X34210D02*
D03*
X36210D02*
D03*
X38210D02*
D03*
X24210Y-4794D02*
D03*
X26210D02*
D03*
X28210D02*
D03*
X30210D02*
D03*
X32210D02*
D03*
X34210D02*
D03*
X36210D02*
D03*
D23*
X38210D02*
D03*
D24*
X3810Y-16510D02*
D03*
X13335Y-41910D02*
D03*
X41275D02*
D03*
X15875D02*
D03*
X38735D02*
D03*
D25*
X3810Y-13970D02*
D03*
Y-11430D02*
D03*
Y-8890D02*
D03*
X6350D02*
D03*
Y-11430D02*
D03*
Y-13970D02*
D03*
Y-16510D02*
D03*
X24130Y-13970D02*
D03*
X26670D02*
D03*
X13335Y-39370D02*
D03*
Y-36830D02*
D03*
Y-34290D02*
D03*
Y-31750D02*
D03*
Y-29210D02*
D03*
Y-26670D02*
D03*
Y-24130D02*
D03*
Y-21590D02*
D03*
Y-19050D02*
D03*
X41275Y-39370D02*
D03*
Y-36830D02*
D03*
Y-34290D02*
D03*
Y-31750D02*
D03*
Y-29210D02*
D03*
Y-26670D02*
D03*
Y-24130D02*
D03*
Y-21590D02*
D03*
Y-19050D02*
D03*
X15875Y-29210D02*
D03*
Y-31750D02*
D03*
Y-39370D02*
D03*
Y-36830D02*
D03*
Y-34290D02*
D03*
Y-26670D02*
D03*
Y-24130D02*
D03*
X38735Y-29210D02*
D03*
Y-31750D02*
D03*
Y-39370D02*
D03*
Y-36830D02*
D03*
Y-34290D02*
D03*
Y-26670D02*
D03*
Y-24130D02*
D03*
D26*
X5969Y-3810D02*
D03*
D27*
X21590Y-13970D02*
D03*
D28*
X5715Y-21590D02*
D03*
X51435D02*
D03*
X5715Y-25400D02*
D03*
X51435D02*
D03*
D29*
X3175Y-21590D02*
D03*
X48895D02*
D03*
X3175Y-25400D02*
D03*
X48895D02*
D03*
D30*
X40665Y-11581D02*
D03*
X40691Y-17323D02*
D03*
X38659Y-17958D02*
D03*
X41935Y-15951D02*
D03*
X41783Y-14605D02*
D03*
X27432Y-7366D02*
D03*
X26416D02*
D03*
X36703Y-9652D02*
D03*
X35687Y-6350D02*
D03*
X18923Y-7620D02*
D03*
X20574Y-6795D02*
D03*
X31242Y-5969D02*
D03*
X47752Y-12446D02*
D03*
X36576Y-12700D02*
D03*
X18809Y-16015D02*
D03*
X17653Y-4445D02*
D03*
X26670Y-12065D02*
D03*
X37084Y-20066D02*
D03*
X12065Y-10160D02*
D03*
X11049Y-10795D02*
D03*
X37084Y-20701D02*
D03*
Y-21717D02*
D03*
X44704Y-24130D02*
D03*
X45339D02*
D03*
M02*
