%FSTAX23Y23*%
%MOIN*%
%SFA1B1*%

%IPPOS*%
%ADD19C,0.005000*%
%ADD21C,0.010000*%
%ADD32C,0.008000*%
%ADD48C,0.006670*%
%ADD49C,0.001000*%
%ADD50C,0.004000*%
%ADD51C,0.005330*%
%LNmb1280-1*%
%LPD*%
G54D19*
X01399Y-01741D02*
D01*
X01399Y-01744*
X01399Y-01746*
X01399Y-01748*
X014Y-0175*
X01401Y-01753*
X01401Y-01755*
X01402Y-01757*
X01404Y-01759*
X01405Y-01761*
X01406Y-01763*
X01408Y-01764*
X0141Y-01766*
X01411Y-01767*
X01413Y-01769*
X01415Y-0177*
X01417Y-01771*
X01419Y-01772*
X01422Y-01773*
X01424Y-01774*
X01426Y-01774*
X01428Y-01774*
X01431Y-01774*
X01432Y-01775*
X00749Y-0115D02*
D01*
X00749Y-01151*
X00749Y-01153*
X00749Y-01154*
X0075Y-01155*
X0075Y-01157*
X00751Y-01158*
X00751Y-01159*
X00752Y-0116*
X00753Y-01161*
X00754Y-01163*
X00754Y-01164*
X00755Y-01165*
X00756Y-01165*
X00758Y-01166*
X00759Y-01167*
X0076Y-01168*
X00761Y-01168*
X00763Y-01169*
X00764Y-01169*
X00765Y-01169*
X00767Y-01169*
X00768Y-0117*
X00769*
X00771Y-01169*
X00772Y-01169*
X00773Y-01169*
X00775Y-01169*
X00776Y-01168*
X00777Y-01168*
X00778Y-01167*
X0078Y-01166*
X00781Y-01165*
X00782Y-01165*
X00783Y-01164*
X00784Y-01163*
X00785Y-01161*
X00785Y-0116*
X00786Y-01159*
X00787Y-01158*
X00787Y-01157*
X00788Y-01155*
X00788Y-01154*
X00788Y-01153*
X00788Y-01151*
X00788Y-0115*
X00835Y-0065D02*
D01*
X00829Y-0065*
X00823Y-00651*
X00817Y-00652*
X00811Y-00653*
X00806Y-00655*
X008Y-00657*
X00795Y-0066*
X0079Y-00663*
X00785Y-00666*
X0078Y-0067*
X00775Y-00674*
X00771Y-00678*
X00767Y-00683*
X00764Y-00688*
X0076Y-00693*
X00758Y-00698*
X00755Y-00704*
X00753Y-0071*
X00751Y-00715*
X0075Y-00721*
X00749Y-00727*
X00749Y-00733*
X00749Y-00736*
X00835Y-00681D02*
D01*
X00832Y-00682*
X00829Y-00682*
X00825Y-00682*
X00822Y-00683*
X00819Y-00684*
X00816Y-00685*
X00813Y-00687*
X0081Y-00689*
X00808Y-0069*
X00805Y-00692*
X00803Y-00695*
X008Y-00697*
X00798Y-00699*
X00796Y-00702*
X00795Y-00705*
X00793Y-00708*
X00792Y-00711*
X00791Y-00714*
X0079Y-00717*
X00789Y-0072*
X00789Y-00723*
X00788Y-00727*
X00788Y-00728*
X01359D02*
D01*
X01359Y-00725*
X01359Y-00722*
X01358Y-00718*
X01357Y-00715*
X01356Y-00712*
X01355Y-00709*
X01354Y-00706*
X01352Y-00703*
X0135Y-00701*
X01348Y-00698*
X01346Y-00696*
X01344Y-00693*
X01341Y-00691*
X01338Y-00689*
X01336Y-00688*
X01333Y-00686*
X0133Y-00685*
X01327Y-00684*
X01324Y-00683*
X0132Y-00682*
X01317Y-00682*
X01314Y-00681*
X01312Y-00681*
X01399Y-00734D02*
D01*
X01398Y-00729*
X01398Y-00723*
X01397Y-00717*
X01395Y-00711*
X01393Y-00706*
X01391Y-007*
X01389Y-00695*
X01386Y-0069*
X01382Y-00685*
X01379Y-0068*
X01375Y-00676*
X01371Y-00672*
X01366Y-00668*
X01361Y-00664*
X01356Y-00661*
X01351Y-00658*
X01346Y-00656*
X0134Y-00654*
X01334Y-00652*
X01329Y-00651*
X01323Y-0065*
X01317Y-0065*
X01314Y-0065*
X01359Y-0115D02*
D01*
X01359Y-01151*
X01359Y-01153*
X0136Y-01154*
X0136Y-01155*
X0136Y-01157*
X01361Y-01158*
X01361Y-01159*
X01362Y-0116*
X01363Y-01161*
X01364Y-01163*
X01365Y-01164*
X01366Y-01165*
X01367Y-01165*
X01368Y-01166*
X01369Y-01167*
X0137Y-01168*
X01371Y-01168*
X01373Y-01169*
X01374Y-01169*
X01375Y-01169*
X01377Y-01169*
X01378Y-0117*
X0138*
X01381Y-01169*
X01382Y-01169*
X01384Y-01169*
X01385Y-01169*
X01386Y-01168*
X01387Y-01168*
X01389Y-01167*
X0139Y-01166*
X01391Y-01165*
X01392Y-01165*
X01393Y-01164*
X01394Y-01163*
X01395Y-01161*
X01396Y-0116*
X01396Y-01159*
X01397Y-01158*
X01397Y-01157*
X01398Y-01155*
X01398Y-01154*
X01398Y-01153*
X01398Y-01151*
X01399Y-0115*
Y-01278D02*
D01*
X01398Y-01277*
X01398Y-01276*
X01398Y-01274*
X01398Y-01273*
X01397Y-01272*
X01397Y-0127*
X01396Y-01269*
X01396Y-01268*
X01395Y-01267*
X01394Y-01266*
X01393Y-01265*
X01392Y-01264*
X01391Y-01263*
X0139Y-01262*
X01389Y-01261*
X01387Y-01261*
X01386Y-0126*
X01385Y-0126*
X01384Y-01259*
X01382Y-01259*
X01381Y-01259*
X0138Y-01259*
X01378*
X01377Y-01259*
X01375Y-01259*
X01374Y-01259*
X01373Y-0126*
X01371Y-0126*
X0137Y-01261*
X01369Y-01261*
X01368Y-01262*
X01367Y-01263*
X01366Y-01264*
X01365Y-01265*
X01364Y-01266*
X01363Y-01267*
X01362Y-01268*
X01361Y-01269*
X01361Y-0127*
X0136Y-01272*
X0136Y-01273*
X0136Y-01274*
X01359Y-01276*
X01359Y-01277*
X01359Y-01278*
X00716Y-01775D02*
D01*
X00718Y-01774*
X0072Y-01774*
X00723Y-01774*
X00725Y-01773*
X00727Y-01772*
X00729Y-01772*
X00731Y-01771*
X00733Y-01769*
X00735Y-01768*
X00737Y-01767*
X00739Y-01765*
X0074Y-01763*
X00742Y-01762*
X00743Y-0176*
X00744Y-01758*
X00746Y-01756*
X00746Y-01754*
X00747Y-01751*
X00748Y-01749*
X00748Y-01747*
X00749Y-01745*
X00749Y-01742*
X00749Y-01741*
X00788Y-01278D02*
D01*
X00788Y-01277*
X00788Y-01276*
X00788Y-01274*
X00788Y-01273*
X00787Y-01272*
X00787Y-0127*
X00786Y-01269*
X00785Y-01268*
X00785Y-01267*
X00784Y-01266*
X00783Y-01265*
X00782Y-01264*
X00781Y-01263*
X0078Y-01262*
X00778Y-01261*
X00777Y-01261*
X00776Y-0126*
X00775Y-0126*
X00773Y-01259*
X00772Y-01259*
X00771Y-01259*
X00769Y-01259*
X00768*
X00767Y-01259*
X00765Y-01259*
X00764Y-01259*
X00763Y-0126*
X00761Y-0126*
X0076Y-01261*
X00759Y-01261*
X00758Y-01262*
X00756Y-01263*
X00755Y-01264*
X00754Y-01265*
X00754Y-01266*
X00753Y-01267*
X00752Y-01268*
X00751Y-01269*
X00751Y-0127*
X0075Y-01272*
X0075Y-01273*
X00749Y-01274*
X00749Y-01276*
X00749Y-01277*
X00749Y-01278*
X00788Y-01741D02*
D01*
X00788Y-01744*
X00789Y-01746*
X00789Y-01748*
X0079Y-0175*
X0079Y-01753*
X00791Y-01755*
X00792Y-01757*
X00793Y-01759*
X00795Y-01761*
X00796Y-01763*
X00798Y-01764*
X00799Y-01766*
X00801Y-01767*
X00803Y-01769*
X00805Y-0177*
X00807Y-01771*
X00809Y-01772*
X00811Y-01773*
X00814Y-01774*
X00816Y-01774*
X00818Y-01774*
X0082Y-01774*
X00822Y-01775*
X01326D02*
D01*
X01328Y-01774*
X0133Y-01774*
X01333Y-01774*
X01335Y-01773*
X01337Y-01772*
X01339Y-01772*
X01341Y-01771*
X01343Y-01769*
X01345Y-01768*
X01347Y-01767*
X01349Y-01765*
X01351Y-01763*
X01352Y-01762*
X01353Y-0176*
X01355Y-01758*
X01356Y-01756*
X01357Y-01754*
X01358Y-01751*
X01358Y-01749*
X01359Y-01747*
X01359Y-01745*
X01359Y-01742*
X01359Y-01741*
X00749Y-0115D02*
Y-00736D01*
X00788Y-0115D02*
Y-00728D01*
X00835Y-00681D02*
X01312D01*
X00835Y-0065D02*
X01314D01*
X01359Y-0115D02*
Y-00728D01*
X01399Y-0115D02*
Y-00734D01*
X00275Y-0115D02*
X00325Y-012D01*
X0005Y-0115D02*
X00275D01*
X0Y-011D02*
X0005Y-0115D01*
X01875D02*
X021D01*
X0215Y-011*
X01825Y-012D02*
X01875Y-0115D01*
X01359Y-01741D02*
Y-0128D01*
X01399D02*
X01399Y-01741D01*
X00749D02*
Y-0128D01*
X00788Y-01741D02*
Y-0128D01*
X00822Y-01775D02*
X01326D01*
X0Y-0005D02*
X0005Y0D01*
X0Y-011D02*
Y-0005D01*
X00375Y-01775D02*
X00716D01*
X00325Y-01725D02*
X00375Y-01775D01*
X00325Y-01725D02*
Y-012D01*
X01775Y-01775D02*
X01825Y-01725D01*
X01432Y-01775D02*
X01775D01*
X01825Y-01725D02*
Y-012D01*
X0005Y0D02*
X021D01*
X0215Y-0005*
Y-011D02*
Y-0005D01*
X01505Y-0137D02*
Y-0133D01*
X01545*
Y-0137*
X01505*
Y-0157D02*
Y-0153D01*
X01545*
Y-0157*
X01505*
Y-0127D02*
Y-0123D01*
X01545*
Y-0127*
X01505*
Y-0117D02*
Y-0113D01*
X01545*
Y-0117*
X01505*
Y-0107D02*
Y-0103D01*
X01545*
Y-0107*
X01505*
Y-0097D02*
Y-0093D01*
X01545*
Y-0097*
X01505*
Y-0167D02*
Y-0163D01*
X01545*
Y-0167*
X01505*
Y-0147D02*
Y-0143D01*
X01545*
Y-0147*
X01505*
X00605D02*
Y-0143D01*
X00645*
Y-0147*
X00605*
Y-0167D02*
Y-0163D01*
X00645*
Y-0167*
X00605*
Y-0097D02*
Y-0093D01*
X00645*
Y-0097*
X00605*
Y-0107D02*
Y-0103D01*
X00645*
Y-0107*
X00605*
Y-0117D02*
Y-0113D01*
X00645*
Y-0117*
X00605*
Y-0127D02*
Y-0123D01*
X00645*
Y-0127*
X00605*
Y-0157D02*
Y-0153D01*
X00645*
Y-0157*
X00605*
Y-0137D02*
Y-0133D01*
X00645*
Y-0137*
X00605*
X0013Y-0067D02*
Y-0063D01*
X0017*
Y-0067*
X0013*
Y-0057D02*
Y-0053D01*
X0017*
Y-0057*
X0013*
Y-0047D02*
Y-0043D01*
X0017*
Y-0047*
X0013*
Y-0037D02*
Y-0033D01*
X0017*
Y-0037*
X0013*
X0023Y-0067D02*
Y-0063D01*
X0027*
Y-0067*
X0023*
Y-0057D02*
Y-0053D01*
X0027*
Y-0057*
X0023*
Y-0047D02*
Y-0043D01*
X0027*
Y-0047*
X0023*
Y-0037D02*
Y-0033D01*
X0027*
Y-0037*
X0023*
X01605Y-0107D02*
Y-0103D01*
X01645*
Y-0107*
X01605*
Y-0087D02*
Y-0083D01*
X01645*
Y-0087*
X01605*
Y-0077D02*
Y-0073D01*
X01645*
Y-0077*
X01605*
Y-0117D02*
Y-0113D01*
X01645*
Y-0117*
X01605*
Y-0097D02*
Y-0093D01*
X01645*
Y-0097*
X01605*
Y-0127D02*
Y-0123D01*
X01645*
Y-0127*
X01605*
Y-0137D02*
Y-0133D01*
X01645*
Y-0137*
X01605*
Y-0147D02*
Y-0143D01*
X01645*
Y-0147*
X01605*
Y-0157D02*
Y-0153D01*
X01645*
Y-0157*
X01605*
Y-0167D02*
Y-0163D01*
X01645*
Y-0167*
X01605*
X00505D02*
Y-0163D01*
X00545*
Y-0167*
X00505*
Y-0157D02*
Y-0153D01*
X00545*
Y-0157*
X00505*
Y-0147D02*
Y-0143D01*
X00545*
Y-0147*
X00505*
Y-0137D02*
Y-0133D01*
X00545*
Y-0137*
X00505*
Y-0127D02*
Y-0123D01*
X00545*
Y-0127*
X00505*
Y-0097D02*
Y-0093D01*
X00545*
Y-0097*
X00505*
Y-0117D02*
Y-0113D01*
X00545*
Y-0117*
X00505*
Y-0077D02*
Y-0073D01*
X00545*
Y-0077*
X00505*
Y-0087D02*
Y-0083D01*
X00545*
Y-0087*
X00505*
Y-0107D02*
Y-0103D01*
X00545*
Y-0107*
X00505*
X00105Y-0102D02*
Y-0098D01*
X00145*
Y-0102*
X00105*
X00205D02*
Y-0098D01*
X00245*
Y-0102*
X00205*
X02005D02*
Y-0098D01*
X02045*
Y-0102*
X02005*
X01905D02*
Y-0098D01*
X01945*
Y-0102*
X01905*
X0083Y-0057D02*
Y-0053D01*
X0087*
Y-0057*
X0083*
X0093D02*
Y-0053D01*
X0097*
Y-0057*
X0093*
X0103D02*
Y-0053D01*
X0107*
Y-0057*
X0103*
X00225Y-0017D02*
X00205Y-0013D01*
X00245*
X00225Y-0017*
X02005Y-0087D02*
Y-0083D01*
X02045*
Y-0087*
X02005*
X01905D02*
Y-0083D01*
X01945*
Y-0087*
X01905*
X00105D02*
Y-0083D01*
X00145*
Y-0087*
X00105*
X00205D02*
Y-0083D01*
X00245*
Y-0087*
X00205*
X00435Y-00445D02*
X00445Y-00435D01*
X00455*
X00445Y-00425*
X00455Y-00415*
X00445*
X00435Y-00405*
X00425Y-00415*
X00415*
X00425Y-00425*
X00415Y-00435*
X00425*
X00435Y-00445*
X00475Y-0042D02*
X00485Y-0041D01*
X00495*
X00485Y-004*
X00495Y-0039*
X00485*
X00475Y-0038*
X00465Y-0039*
X00455*
X00465Y-004*
X00455Y-0041*
X00465*
X00475Y-0042*
X0146Y-0081D02*
X0147Y-008D01*
X0148*
X0147Y-0079*
X0148Y-0078*
X0147*
X0146Y-0077*
X0145Y-0078*
X0144*
X0145Y-0079*
X0144Y-008*
X0145*
X0146Y-0081*
X01775Y-0097D02*
X01785Y-0096D01*
X01795*
X01785Y-0095*
X01795Y-0094*
X01785*
X01775Y-0093*
X01765Y-0094*
X01755*
X01765Y-0095*
X01755Y-0096*
X01765*
X01775Y-0097*
X0105Y-00495D02*
X0106Y-00485D01*
X0107*
X0106Y-00475*
X0107Y-00465*
X0106*
X0105Y-00455*
X0104Y-00465*
X0103*
X0104Y-00475*
X0103Y-00485*
X0104*
X0105Y-00495*
X00695Y-00195D02*
X00705Y-00185D01*
X00715*
X00705Y-00175*
X00715Y-00165*
X00705*
X00695Y-00155*
X00685Y-00165*
X00675*
X00685Y-00175*
X00675Y-00185*
X00685*
X00695Y-00195*
X0074Y-0065D02*
X0075Y-0064D01*
X0076*
X0075Y-0063*
X0076Y-0062*
X0075*
X0074Y-0061*
X0073Y-0062*
X0072*
X0073Y-0063*
X0072Y-0064*
X0073*
X0074Y-0065*
X0173Y-0039D02*
X0174Y-0038D01*
X0175*
X0174Y-0037*
X0175Y-0036*
X0174*
X0173Y-0035*
X0172Y-0036*
X0171*
X0172Y-0037*
X0171Y-0038*
X0172*
X0173Y-0039*
X0175Y-0045D02*
X0176Y-0044D01*
X0177*
X0176Y-0043*
X0177Y-0042*
X0176*
X0175Y-0041*
X0174Y-0042*
X0173*
X0174Y-0043*
X0173Y-0044*
X0174*
X0175Y-0045*
X01525Y-00705D02*
X01535Y-00695D01*
X01545*
X01535Y-00685*
X01545Y-00675*
X01535*
X01525Y-00665*
X01515Y-00675*
X01505*
X01515Y-00685*
X01505Y-00695*
X01515*
X01525Y-00705*
X0144Y-0052D02*
X0145Y-0051D01*
X0146*
X0145Y-005*
X0146Y-0049*
X0145*
X0144Y-0048*
X0143Y-0049*
X0142*
X0143Y-005*
X0142Y-0051*
X0143*
X0144Y-0052*
X0188Y-0051D02*
X0189Y-005D01*
X019*
X0189Y-0049*
X019Y-0048*
X0189*
X0188Y-0047*
X0187Y-0048*
X0186*
X0187Y-0049*
X0186Y-005*
X0187*
X0188Y-0051*
X0123Y-00255D02*
X0124Y-00245D01*
X0125*
X0124Y-00235*
X0125Y-00225*
X0124*
X0123Y-00215*
X0122Y-00225*
X0121*
X0122Y-00235*
X0121Y-00245*
X0122*
X0123Y-00255*
X0081Y-00287D02*
X0082Y-00277D01*
X0083*
X0082Y-00267*
X0083Y-00257*
X0082*
X0081Y-00247*
X008Y-00257*
X0079*
X008Y-00267*
X0079Y-00277*
X008*
X0081Y-00287*
X00745Y-0032D02*
X00755Y-0031D01*
X00765*
X00755Y-003*
X00765Y-0029*
X00755*
X00745Y-0028*
X00735Y-0029*
X00725*
X00735Y-003*
X00725Y-0031*
X00735*
X00745Y-0032*
X01405Y-0027D02*
X01415Y-0026D01*
X01425*
X01415Y-0025*
X01425Y-0024*
X01415*
X01405Y-0023*
X01395Y-0024*
X01385*
X01395Y-0025*
X01385Y-0026*
X01395*
X01405Y-0027*
X01445Y-004D02*
X01455Y-0039D01*
X01465*
X01455Y-0038*
X01465Y-0037*
X01455*
X01445Y-0036*
X01435Y-0037*
X01425*
X01435Y-0038*
X01425Y-0039*
X01435*
X01445Y-004*
X0104Y-0031D02*
X0105Y-003D01*
X0106*
X0105Y-0029*
X0106Y-0028*
X0105*
X0104Y-0027*
X0103Y-0028*
X0102*
X0103Y-0029*
X0102Y-003*
X0103*
X0104Y-0031*
X0108D02*
X0109Y-003D01*
X011*
X0109Y-0029*
X011Y-0028*
X0109*
X0108Y-0027*
X0107Y-0028*
X0106*
X0107Y-0029*
X0106Y-003*
X0107*
X0108Y-0031*
X02491Y-00036D02*
X02499Y-00028D01*
X02507*
X02499Y-0002*
X02507Y-00012*
X02499*
X02491Y-00004*
X02483Y-00012*
X02475*
X02483Y-0002*
X02475Y-00028*
X02483*
X02491Y-00036*
X02802Y-0004D02*
X02816D01*
X02809*
Y0*
X02802Y-00006*
X02836Y-00033D02*
X02842Y-0004D01*
X02856*
X02862Y-00033*
Y-00006*
X02856Y0*
X02842*
X02836Y-00006*
Y-00013*
X02842Y-0002*
X02862*
X03258Y-00006D02*
X03265Y0D01*
X03278*
X03285Y-00006*
Y-00013*
X03278Y-0002*
X03285Y-00026*
Y-00033*
X03278Y-0004*
X03265*
X03258Y-00033*
Y-00026*
X03265Y-0002*
X03258Y-00013*
Y-00006*
X03265Y-0002D02*
X03278D01*
X03298Y-0004D02*
Y-00013D01*
X03305*
X03312Y-0002*
Y-0004*
Y-0002*
X03318Y-00013*
X03325Y-0002*
Y-0004*
X03338D02*
X03352D01*
X03345*
Y-00013*
X03338*
X03372Y-0004D02*
X03385D01*
X03378*
Y0*
X03372*
X03458Y-0004D02*
X03445Y-00026D01*
Y-00013*
X03458Y0*
X03478Y-00006D02*
X03485Y0D01*
X03498*
X03505Y-00006*
Y-00033*
X03498Y-0004*
X03485*
X03478Y-00033*
Y-00006*
X03518Y-0004D02*
Y-00033D01*
X03525*
Y-0004*
X03518*
X03578D02*
X03552D01*
X03578Y-00013*
Y-00006*
X03572Y0*
X03558*
X03552Y-00006*
X03592D02*
X03598Y0D01*
X03612*
X03618Y-00006*
Y-00033*
X03612Y-0004*
X03598*
X03592Y-00033*
Y-00006*
X03632D02*
X03638Y0D01*
X03652*
X03658Y-00006*
Y-00013*
X03652Y-0002*
X03645*
X03652*
X03658Y-00026*
Y-00033*
X03652Y-0004*
X03638*
X03632Y-00033*
X03698Y-0004D02*
X03671D01*
X03698Y-00013*
Y-00006*
X03691Y0*
X03678*
X03671Y-00006*
X03711Y-0004D02*
Y-00013D01*
X03718*
X03725Y-0002*
Y-0004*
Y-0002*
X03731Y-00013*
X03738Y-0002*
Y-0004*
X03751D02*
Y-00013D01*
X03758*
X03765Y-0002*
Y-0004*
Y-0002*
X03771Y-00013*
X03778Y-0002*
Y-0004*
X03791D02*
X03805Y-00026D01*
Y-00013*
X03791Y0*
X04146Y-0004D02*
Y0D01*
X04166*
X04173Y-00006*
Y-0002*
X04166Y-00026*
X04146*
X04186Y0D02*
X04213D01*
X04199*
Y-0004*
X04226Y0D02*
Y-0004D01*
Y-0002*
X04253*
Y0*
Y-0004*
X04474D02*
Y0D01*
X04494*
X04501Y-00006*
Y-0002*
X04494Y-00026*
X04474*
X04487D02*
X04501Y-0004D01*
X04521D02*
X04534D01*
X04541Y-00033*
Y-0002*
X04534Y-00013*
X04521*
X04514Y-0002*
Y-00033*
X04521Y-0004*
X04554Y-00013D02*
Y-00033D01*
X04561Y-0004*
X04581*
Y-00013*
X04594Y-0004D02*
Y-00013D01*
X04614*
X04621Y-0002*
Y-0004*
X04661Y0D02*
Y-0004D01*
X04641*
X04634Y-00033*
Y-0002*
X04641Y-00013*
X04661*
X02829Y-0012D02*
X02802D01*
X02829Y-00093*
Y-00086*
X02822Y-0008*
X02809*
X02802Y-00086*
X02842D02*
X02849Y-0008D01*
X02862*
X02869Y-00086*
Y-00113*
X02862Y-0012*
X02849*
X02842Y-00113*
Y-00086*
X03258D02*
X03265Y-0008D01*
X03278*
X03285Y-00086*
Y-00093*
X03278Y-001*
X03272*
X03278*
X03285Y-00106*
Y-00113*
X03278Y-0012*
X03265*
X03258Y-00113*
X03325Y-0008D02*
X03298D01*
Y-001*
X03312Y-00093*
X03318*
X03325Y-001*
Y-00113*
X03318Y-0012*
X03305*
X03298Y-00113*
X03338Y-0012D02*
Y-00113D01*
X03345*
Y-0012*
X03338*
X03372Y-00086D02*
X03378Y-0008D01*
X03392*
X03398Y-00086*
Y-00093*
X03392Y-001*
X03398Y-00106*
Y-00113*
X03392Y-0012*
X03378*
X03372Y-00113*
Y-00106*
X03378Y-001*
X03372Y-00093*
Y-00086*
X03378Y-001D02*
X03392D01*
X03438Y-0012D02*
X03412D01*
X03438Y-00093*
Y-00086*
X03432Y-0008*
X03418*
X03412Y-00086*
X03452Y-0008D02*
X03478D01*
Y-00086*
X03452Y-00113*
Y-0012*
X03492D02*
Y-00093D01*
X03498*
X03505Y-001*
Y-0012*
Y-001*
X03512Y-00093*
X03518Y-001*
Y-0012*
X03532D02*
X03545D01*
X03538*
Y-00093*
X03532*
X03565Y-0012D02*
X03578D01*
X03572*
Y-0008*
X03565*
X03652Y-0012D02*
X03638Y-00106D01*
Y-00093*
X03652Y-0008*
X03671Y-00086D02*
X03678Y-0008D01*
X03691*
X03698Y-00086*
Y-00113*
X03691Y-0012*
X03678*
X03671Y-00113*
Y-00086*
X03711Y-0012D02*
Y-00113D01*
X03718*
Y-0012*
X03711*
X03745Y-00113D02*
X03751Y-0012D01*
X03765*
X03771Y-00113*
Y-00086*
X03765Y-0008*
X03751*
X03745Y-00086*
Y-00093*
X03751Y-001*
X03771*
X03785Y-0012D02*
X03798D01*
X03791*
Y-0008*
X03785Y-00086*
X03818Y-0012D02*
Y-00093D01*
X03825*
X03831Y-001*
Y-0012*
Y-001*
X03838Y-00093*
X03845Y-001*
Y-0012*
X03858D02*
Y-00093D01*
X03865*
X03871Y-001*
Y-0012*
Y-001*
X03878Y-00093*
X03885Y-001*
Y-0012*
X03898D02*
X03911Y-00106D01*
Y-00093*
X03898Y-0008*
X04146Y-0012D02*
Y-0008D01*
X04166*
X04173Y-00086*
Y-001*
X04166Y-00106*
X04146*
X04186Y-0008D02*
X04213D01*
X04199*
Y-0012*
X04226Y-0008D02*
Y-0012D01*
Y-001*
X04253*
Y-0008*
Y-0012*
X04474D02*
Y-0008D01*
X04494*
X04501Y-00086*
Y-001*
X04494Y-00106*
X04474*
X04487D02*
X04501Y-0012D01*
X04521D02*
X04534D01*
X04541Y-00113*
Y-001*
X04534Y-00093*
X04521*
X04514Y-001*
Y-00113*
X04521Y-0012*
X04554Y-00093D02*
Y-00113D01*
X04561Y-0012*
X04581*
Y-00093*
X04594Y-0012D02*
Y-00093D01*
X04614*
X04621Y-001*
Y-0012*
X04661Y-0008D02*
Y-0012D01*
X04641*
X04634Y-00113*
Y-001*
X04641Y-00093*
X04661*
X02475Y-00196D02*
Y-00164D01*
X02507*
Y-00196*
X02475*
X02829Y-0016D02*
X02802D01*
Y-0018*
X02816Y-00173*
X02822*
X02829Y-0018*
Y-00193*
X02822Y-002*
X02809*
X02802Y-00193*
X02869Y-0016D02*
X02842D01*
Y-0018*
X02856Y-00173*
X02862*
X02869Y-0018*
Y-00193*
X02862Y-002*
X02849*
X02842Y-00193*
X03278Y-002D02*
Y-0016D01*
X03258Y-0018*
X03285*
X03298Y-00166D02*
X03305Y-0016D01*
X03318*
X03325Y-00166*
Y-00193*
X03318Y-002*
X03305*
X03298Y-00193*
Y-00166*
X03338Y-002D02*
Y-00173D01*
X03345*
X03352Y-0018*
Y-002*
Y-0018*
X03358Y-00173*
X03365Y-0018*
Y-002*
X03378D02*
X03392D01*
X03385*
Y-00173*
X03378*
X03412Y-002D02*
X03425D01*
X03418*
Y-0016*
X03412*
X03498Y-002D02*
X03485Y-00186D01*
Y-00173*
X03498Y-0016*
X03518Y-002D02*
X03532D01*
X03525*
Y-0016*
X03518Y-00166*
X03552Y-002D02*
Y-00193D01*
X03558*
Y-002*
X03552*
X03585Y-00166D02*
X03592Y-0016D01*
X03605*
X03612Y-00166*
Y-00193*
X03605Y-002*
X03592*
X03585Y-00193*
Y-00166*
X03625Y-002D02*
X03638D01*
X03632*
Y-0016*
X03625Y-00166*
X03685Y-0016D02*
X03671Y-00166D01*
X03658Y-0018*
Y-00193*
X03665Y-002*
X03678*
X03685Y-00193*
Y-00186*
X03678Y-0018*
X03658*
X03698Y-002D02*
Y-00173D01*
X03705*
X03711Y-0018*
Y-002*
Y-0018*
X03718Y-00173*
X03725Y-0018*
Y-002*
X03738D02*
Y-00173D01*
X03745*
X03751Y-0018*
Y-002*
Y-0018*
X03758Y-00173*
X03765Y-0018*
Y-002*
X03778D02*
X03791Y-00186D01*
Y-00173*
X03778Y-0016*
X04146Y-002D02*
Y-0016D01*
X04166*
X04173Y-00166*
Y-0018*
X04166Y-00186*
X04146*
X04186Y-0016D02*
X04213D01*
X04199*
Y-002*
X04226Y-0016D02*
Y-002D01*
Y-0018*
X04253*
Y-0016*
Y-002*
X04474D02*
Y-0016D01*
X04494*
X04501Y-00166*
Y-0018*
X04494Y-00186*
X04474*
X04487D02*
X04501Y-002D01*
X04521D02*
X04534D01*
X04541Y-00193*
Y-0018*
X04534Y-00173*
X04521*
X04514Y-0018*
Y-00193*
X04521Y-002*
X04554Y-00173D02*
Y-00193D01*
X04561Y-002*
X04581*
Y-00173*
X04594Y-002D02*
Y-00173D01*
X04614*
X04621Y-0018*
Y-002*
X04661Y-0016D02*
Y-002D01*
X04641*
X04634Y-00193*
Y-0018*
X04641Y-00173*
X04661*
X02491Y-00276D02*
X02475Y-00244D01*
X02507*
X02491Y-00276*
X02802Y-0028D02*
X02816D01*
X02809*
Y-0024*
X02802Y-00246*
X03258Y-0028D02*
X03272D01*
X03265*
Y-0024*
X03258Y-00246*
X03318Y-0024D02*
X03292D01*
Y-0026*
X03305Y-00253*
X03312*
X03318Y-0026*
Y-00273*
X03312Y-0028*
X03298*
X03292Y-00273*
X03332Y-0024D02*
X03358D01*
Y-00246*
X03332Y-00273*
Y-0028*
X03372D02*
Y-00273D01*
X03378*
Y-0028*
X03372*
X03425D02*
Y-0024D01*
X03405Y-0026*
X03432*
X03445Y-00246D02*
X03452Y-0024D01*
X03465*
X03472Y-00246*
Y-00253*
X03465Y-0026*
X03472Y-00266*
Y-00273*
X03465Y-0028*
X03452*
X03445Y-00273*
Y-00266*
X03452Y-0026*
X03445Y-00253*
Y-00246*
X03452Y-0026D02*
X03465D01*
X03485Y-0028D02*
Y-00253D01*
X03492*
X03498Y-0026*
Y-0028*
Y-0026*
X03505Y-00253*
X03512Y-0026*
Y-0028*
X03525D02*
X03538D01*
X03532*
Y-00253*
X03525*
X03558Y-0028D02*
X03572D01*
X03565*
Y-0024*
X03558*
X03645Y-0028D02*
X03632Y-00266D01*
Y-00253*
X03645Y-0024*
X03685Y-0028D02*
Y-0024D01*
X03665Y-0026*
X03691*
X03705Y-0028D02*
Y-00253D01*
X03711*
X03718Y-0026*
Y-0028*
Y-0026*
X03725Y-00253*
X03731Y-0026*
Y-0028*
X03745D02*
Y-00253D01*
X03751*
X03758Y-0026*
Y-0028*
Y-0026*
X03765Y-00253*
X03771Y-0026*
Y-0028*
X03785D02*
X03798Y-00266D01*
Y-00253*
X03785Y-0024*
X04146Y-0028D02*
Y-0024D01*
X04166*
X04173Y-00246*
Y-0026*
X04166Y-00266*
X04146*
X04186Y-0024D02*
X04213D01*
X04199*
Y-0028*
X04226Y-0024D02*
Y-0028D01*
Y-0026*
X04253*
Y-0024*
Y-0028*
X04474D02*
Y-0024D01*
X04494*
X04501Y-00246*
Y-0026*
X04494Y-00266*
X04474*
X04487D02*
X04501Y-0028D01*
X04521D02*
X04534D01*
X04541Y-00273*
Y-0026*
X04534Y-00253*
X04521*
X04514Y-0026*
Y-00273*
X04521Y-0028*
X04554Y-00253D02*
Y-00273D01*
X04561Y-0028*
X04581*
Y-00253*
X04594Y-0028D02*
Y-00253D01*
X04614*
X04621Y-0026*
Y-0028*
X04661Y-0024D02*
Y-0028D01*
X04641*
X04634Y-00273*
Y-0026*
X04641Y-00253*
X04661*
X02802Y-00353D02*
X02809Y-0036D01*
X02822*
X02829Y-00353*
Y-00326*
X02822Y-0032*
X02809*
X02802Y-00326*
Y-00333*
X02809Y-0034*
X02829*
X02869Y-0032D02*
X02842D01*
Y-0034*
X02856Y-00333*
X02862*
X02869Y-0034*
Y-00353*
X02862Y-0036*
X02849*
X02842Y-00353*
X02935Y-0032D02*
X02962D01*
X02948*
Y-0036*
X02982D02*
X02995D01*
X03002Y-00353*
Y-0034*
X02995Y-00333*
X02982*
X02975Y-0034*
Y-00353*
X02982Y-0036*
X03022Y-00326D02*
Y-00333D01*
X03015*
X03028*
X03022*
Y-00353*
X03028Y-0036*
X03055Y-00333D02*
X03068D01*
X03075Y-0034*
Y-0036*
X03055*
X03048Y-00353*
X03055Y-00346*
X03075*
X03088Y-0036D02*
X03102D01*
X03095*
Y-0032*
X03088*
G54D21*
X0012Y00145D02*
Y00204D01*
X00139Y00184*
X00159Y00204*
Y00145*
X00179Y00204D02*
Y00145D01*
X00209*
X00219Y00155*
Y00164*
X00209Y00174*
X00179*
X00209*
X00219Y00184*
Y00194*
X00209Y00204*
X00179*
X00239Y00145D02*
X00259D01*
X00249*
Y00204*
X00239Y00194*
X00329Y00145D02*
X00289D01*
X00329Y00184*
Y00194*
X00319Y00204*
X00299*
X00289Y00194*
X00349D02*
X00359Y00204D01*
X00379*
X00389Y00194*
Y00184*
X00379Y00174*
X00389Y00164*
Y00155*
X00379Y00145*
X00359*
X00349Y00155*
Y00164*
X00359Y00174*
X00349Y00184*
Y00194*
X00359Y00174D02*
X00379D01*
X00409Y00194D02*
X00419Y00204D01*
X00439*
X00449Y00194*
Y00155*
X00439Y00145*
X00419*
X00409Y00155*
Y00194*
X0215Y-00037D02*
Y00085D01*
X0Y-00037D02*
Y00085D01*
X01158Y00075D02*
X0215D01*
X0D02*
X00971D01*
X0209Y00095D02*
X0215Y00075D01*
X0209Y00055D02*
X0215Y00075D01*
X0D02*
X0006Y00055D01*
X0Y00075D02*
X0006Y00095D01*
X01787Y-01775D02*
X0226D01*
X02112Y0D02*
X0226D01*
X0225Y-01775D02*
Y-00997D01*
Y-00797D02*
Y0D01*
Y-01775D02*
X0227Y-01715D01*
X0223D02*
X0225Y-01775D01*
X0223Y-0006D02*
X0225Y0D01*
X0227Y-0006*
X01825Y-01955D02*
Y-01737D01*
X00325Y-01955D02*
Y-01737D01*
X01161Y-01945D02*
X01825D01*
X00325D02*
X00968D01*
X01765Y-01925D02*
X01825Y-01945D01*
X01765Y-01965D02*
X01825Y-01945D01*
X00325D02*
X00385Y-01965D01*
X00325Y-01945D02*
X00385Y-01925D01*
X01399Y-0186D02*
Y-01754D01*
X00749Y-0186D02*
Y-01754D01*
X0116Y-0185D02*
X01399D01*
X00749D02*
X00967D01*
X01339Y-0183D02*
X01399Y-0185D01*
X01339Y-0187D02*
X01399Y-0185D01*
X00749D02*
X00809Y-0187D01*
X00749Y-0185D02*
X00809Y-0183D01*
G54D32*
X02506Y00095D02*
X02498Y00103D01*
X02483*
X02475Y00095*
Y00087*
X02483Y00079*
X02498*
X02506Y00071*
Y00064*
X02498Y00056*
X02483*
X02475Y00064*
X02522Y00087D02*
Y00064D01*
X0253Y00056*
X02554*
Y00048*
X02546Y0004*
X02538*
X02554Y00056D02*
Y00087D01*
X0257Y00056D02*
Y00087D01*
X02578*
X02586Y00079*
Y00056*
Y00079*
X02594Y00087*
X02602Y00079*
Y00056*
X02618Y00103D02*
Y00056D01*
X02642*
X0265Y00064*
Y00071*
Y00079*
X02642Y00087*
X02618*
X02674Y00056D02*
X0269D01*
X02698Y00064*
Y00079*
X0269Y00087*
X02674*
X02666Y00079*
Y00064*
X02674Y00056*
X02714D02*
X0273D01*
X02722*
Y00103*
X02714*
X02802D02*
Y00056D01*
Y00079*
X02834*
Y00103*
Y00056*
X0285D02*
X02866D01*
X02858*
Y00087*
X0285*
X02898Y00095D02*
Y00087D01*
X0289*
X02906*
X02898*
Y00064*
X02906Y00056*
X0301Y00095D02*
X03002Y00103D01*
X02986*
X02978Y00095*
Y00064*
X02986Y00056*
X03002*
X0301Y00064*
X03034Y00056D02*
X0305D01*
X03058Y00064*
Y00079*
X0305Y00087*
X03034*
X03026Y00079*
Y00064*
X03034Y00056*
X03074Y00087D02*
Y00064D01*
X03082Y00056*
X03106*
Y00087*
X03122Y00056D02*
Y00087D01*
X03146*
X03154Y00079*
Y00056*
X03178Y00095D02*
Y00087D01*
X0317*
X03186*
X03178*
Y00064*
X03186Y00056*
X0329Y00103D02*
X03258D01*
Y00079*
X03274*
X03258*
Y00056*
X03306D02*
X03322D01*
X03314*
Y00087*
X03306*
X03346Y00056D02*
Y00087D01*
X0337*
X03378Y00079*
Y00056*
X03394D02*
X0341D01*
X03402*
Y00087*
X03394*
X03434Y00056D02*
X03458D01*
X03466Y00064*
X03458Y00071*
X03442*
X03434Y00079*
X03442Y00087*
X03466*
X03482Y00103D02*
Y00056D01*
Y00079*
X0349Y00087*
X03506*
X03514Y00079*
Y00056*
X03554D02*
X03538D01*
X0353Y00064*
Y00079*
X03538Y00087*
X03554*
X03562Y00079*
Y00071*
X0353*
X0361Y00103D02*
Y00056D01*
X03586*
X03578Y00064*
Y00079*
X03586Y00087*
X0361*
X03674Y00103D02*
Y00056D01*
Y00079*
X03706*
Y00103*
Y00056*
X0373D02*
X03746D01*
X03754Y00064*
Y00079*
X03746Y00087*
X0373*
X03722Y00079*
Y00064*
X0373Y00056*
X0377D02*
X03786D01*
X03778*
Y00103*
X0377*
X03834Y00056D02*
X03818D01*
X0381Y00064*
Y00079*
X03818Y00087*
X03834*
X03842Y00079*
Y00071*
X0381*
X03938Y00095D02*
X0393Y00103D01*
X03914*
X03906Y00095*
Y00087*
X03914Y00079*
X0393*
X03938Y00071*
Y00064*
X0393Y00056*
X03914*
X03906Y00064*
X03954Y00056D02*
X0397D01*
X03962*
Y00087*
X03954*
X03994D02*
X04026D01*
X03994Y00056*
X04026*
X04066D02*
X0405D01*
X04042Y00064*
Y00079*
X0405Y00087*
X04066*
X04074Y00079*
Y00071*
X04042*
X04146Y00056D02*
Y00103D01*
X0417*
X04178Y00095*
Y00079*
X0417Y00071*
X04146*
X04194Y00056D02*
X0421D01*
X04202*
Y00103*
X04194*
X04242Y00087D02*
X04258D01*
X04266Y00079*
Y00056*
X04242*
X04234Y00064*
X04242Y00071*
X04266*
X0429Y00095D02*
Y00087D01*
X04282*
X04298*
X0429*
Y00064*
X04298Y00056*
X04346D02*
X0433D01*
X04322Y00064*
Y00079*
X0433Y00087*
X04346*
X04354Y00079*
Y00071*
X04322*
X04402Y00103D02*
Y00056D01*
X04378*
X0437Y00064*
Y00079*
X04378Y00087*
X04402*
X04474Y00103D02*
Y00056D01*
Y00079*
X04506*
Y00103*
Y00056*
X0453D02*
X04546D01*
X04554Y00064*
Y00079*
X04546Y00087*
X0453*
X04522Y00079*
Y00064*
X0453Y00056*
X0457D02*
X04586D01*
X04578*
Y00103*
X0457*
X04634Y00056D02*
X04618D01*
X0461Y00064*
Y00079*
X04618Y00087*
X04634*
X04642Y00079*
Y00071*
X0461*
X04706Y00103D02*
X04738D01*
X04722*
Y00056*
X04754Y00087D02*
Y00064D01*
X04762Y00056*
X04786*
Y00048*
X04778Y0004*
X0477*
X04786Y00056D02*
Y00087D01*
X04802Y0004D02*
Y00087D01*
X04826*
X04834Y00079*
Y00064*
X04826Y00056*
X04802*
X04874D02*
X04858D01*
X0485Y00064*
Y00079*
X04858Y00087*
X04874*
X04882Y00079*
Y00071*
X0485*
X02419Y00128D02*
X04954D01*
X02419Y0002D02*
X04954D01*
X02419Y00128D02*
Y-0038D01*
X04954Y00128D02*
Y-0038D01*
X02774Y00128D02*
Y-0038D01*
X0323Y00128D02*
Y-0038D01*
X04118Y00128D02*
Y-0038D01*
X04446Y00128D02*
Y-0038D01*
X02419Y-003D02*
X04954D01*
X02419Y-0038D02*
X04954D01*
G54D48*
X00815Y-0011D02*
D01*
X00815Y-00109*
X00815Y-00107*
X00815Y-00106*
X00814Y-00105*
X00814Y-00103*
X00813Y-00102*
X00813Y-00101*
X00812Y-001*
X00811Y-00098*
X0081Y-00097*
X0081Y-00096*
X00809Y-00095*
X00807Y-00094*
X00806Y-00094*
X00805Y-00093*
X00804Y-00092*
X00803Y-00092*
X00801Y-00091*
X008Y-00091*
X00799Y-0009*
X00797Y-0009*
X00796Y-0009*
X00794*
X00793Y-0009*
X00792Y-0009*
X0079Y-00091*
X00789Y-00091*
X00788Y-00092*
X00786Y-00092*
X00785Y-00093*
X00784Y-00094*
X00783Y-00094*
X00782Y-00095*
X00781Y-00096*
X0078Y-00097*
X00779Y-00098*
X00778Y-001*
X00778Y-00101*
X00777Y-00102*
X00776Y-00103*
X00776Y-00105*
X00776Y-00106*
X00775Y-00107*
X00775Y-00109*
X00775Y-0011*
X00775Y-00112*
X00775Y-00113*
X00776Y-00114*
X00776Y-00116*
X00776Y-00117*
X00777Y-00118*
X00778Y-0012*
X00778Y-00121*
X00779Y-00122*
X0078Y-00123*
X00781Y-00124*
X00782Y-00125*
X00783Y-00126*
X00784Y-00127*
X00785Y-00127*
X00786Y-00128*
X00788Y-00129*
X00789Y-00129*
X0079Y-0013*
X00792Y-0013*
X00793Y-0013*
X00794Y-0013*
X00796*
X00797Y-0013*
X00799Y-0013*
X008Y-0013*
X00801Y-00129*
X00803Y-00129*
X00804Y-00128*
X00805Y-00127*
X00806Y-00127*
X00807Y-00126*
X00809Y-00125*
X0081Y-00124*
X0081Y-00123*
X00811Y-00122*
X00812Y-00121*
X00813Y-0012*
X00813Y-00118*
X00814Y-00117*
X00814Y-00116*
X00815Y-00114*
X00815Y-00113*
X00815Y-00112*
X00815Y-0011*
X00894D02*
D01*
X00894Y-00109*
X00894Y-00107*
X00893Y-00106*
X00893Y-00105*
X00893Y-00103*
X00892Y-00102*
X00892Y-00101*
X00891Y-001*
X0089Y-00098*
X00889Y-00097*
X00888Y-00096*
X00887Y-00095*
X00886Y-00094*
X00885Y-00094*
X00884Y-00093*
X00883Y-00092*
X00881Y-00092*
X0088Y-00091*
X00879Y-00091*
X00877Y-0009*
X00876Y-0009*
X00875Y-0009*
X00873*
X00872Y-0009*
X0087Y-0009*
X00869Y-00091*
X00868Y-00091*
X00866Y-00092*
X00865Y-00092*
X00864Y-00093*
X00863Y-00094*
X00862Y-00094*
X00861Y-00095*
X0086Y-00096*
X00859Y-00097*
X00858Y-00098*
X00857Y-001*
X00856Y-00101*
X00856Y-00102*
X00855Y-00103*
X00855Y-00105*
X00854Y-00106*
X00854Y-00107*
X00854Y-00109*
X00854Y-0011*
X00854Y-00112*
X00854Y-00113*
X00854Y-00114*
X00855Y-00116*
X00855Y-00117*
X00856Y-00118*
X00856Y-0012*
X00857Y-00121*
X00858Y-00122*
X00859Y-00123*
X0086Y-00124*
X00861Y-00125*
X00862Y-00126*
X00863Y-00127*
X00864Y-00127*
X00865Y-00128*
X00866Y-00129*
X00868Y-00129*
X00869Y-0013*
X0087Y-0013*
X00872Y-0013*
X00873Y-0013*
X00875*
X00876Y-0013*
X00877Y-0013*
X00879Y-0013*
X0088Y-00129*
X00881Y-00129*
X00883Y-00128*
X00884Y-00127*
X00885Y-00127*
X00886Y-00126*
X00887Y-00125*
X00888Y-00124*
X00889Y-00123*
X0089Y-00122*
X00891Y-00121*
X00892Y-0012*
X00892Y-00118*
X00893Y-00117*
X00893Y-00116*
X00893Y-00114*
X00894Y-00113*
X00894Y-00112*
X00894Y-0011*
X00973D02*
D01*
X00973Y-00109*
X00972Y-00107*
X00972Y-00106*
X00972Y-00105*
X00971Y-00103*
X00971Y-00102*
X0097Y-00101*
X0097Y-001*
X00969Y-00098*
X00968Y-00097*
X00967Y-00096*
X00966Y-00095*
X00965Y-00094*
X00964Y-00094*
X00963Y-00093*
X00961Y-00092*
X0096Y-00092*
X00959Y-00091*
X00957Y-00091*
X00956Y-0009*
X00955Y-0009*
X00953Y-0009*
X00952*
X00951Y-0009*
X00949Y-0009*
X00948Y-00091*
X00946Y-00091*
X00945Y-00092*
X00944Y-00092*
X00943Y-00093*
X00941Y-00094*
X0094Y-00094*
X00939Y-00095*
X00938Y-00096*
X00937Y-00097*
X00936Y-00098*
X00936Y-001*
X00935Y-00101*
X00934Y-00102*
X00934Y-00103*
X00933Y-00105*
X00933Y-00106*
X00933Y-00107*
X00933Y-00109*
X00933Y-0011*
X00933Y-00112*
X00933Y-00113*
X00933Y-00114*
X00933Y-00116*
X00934Y-00117*
X00934Y-00118*
X00935Y-0012*
X00936Y-00121*
X00936Y-00122*
X00937Y-00123*
X00938Y-00124*
X00939Y-00125*
X0094Y-00126*
X00941Y-00127*
X00943Y-00127*
X00944Y-00128*
X00945Y-00129*
X00946Y-00129*
X00948Y-0013*
X00949Y-0013*
X00951Y-0013*
X00952Y-0013*
X00953*
X00955Y-0013*
X00956Y-0013*
X00957Y-0013*
X00959Y-00129*
X0096Y-00129*
X00961Y-00128*
X00963Y-00127*
X00964Y-00127*
X00965Y-00126*
X00966Y-00125*
X00967Y-00124*
X00968Y-00123*
X00969Y-00122*
X0097Y-00121*
X0097Y-0012*
X00971Y-00118*
X00971Y-00117*
X00972Y-00116*
X00972Y-00114*
X00972Y-00113*
X00973Y-00112*
X00973Y-0011*
X01051D02*
D01*
X01051Y-00109*
X01051Y-00107*
X01051Y-00106*
X01051Y-00105*
X0105Y-00103*
X0105Y-00102*
X01049Y-00101*
X01048Y-001*
X01048Y-00098*
X01047Y-00097*
X01046Y-00096*
X01045Y-00095*
X01044Y-00094*
X01043Y-00094*
X01041Y-00093*
X0104Y-00092*
X01039Y-00092*
X01038Y-00091*
X01036Y-00091*
X01035Y-0009*
X01033Y-0009*
X01032Y-0009*
X01031*
X01029Y-0009*
X01028Y-0009*
X01027Y-00091*
X01025Y-00091*
X01024Y-00092*
X01023Y-00092*
X01021Y-00093*
X0102Y-00094*
X01019Y-00094*
X01018Y-00095*
X01017Y-00096*
X01016Y-00097*
X01015Y-00098*
X01014Y-001*
X01014Y-00101*
X01013Y-00102*
X01013Y-00103*
X01012Y-00105*
X01012Y-00106*
X01012Y-00107*
X01011Y-00109*
X01011Y-0011*
X01011Y-00112*
X01012Y-00113*
X01012Y-00114*
X01012Y-00116*
X01013Y-00117*
X01013Y-00118*
X01014Y-0012*
X01014Y-00121*
X01015Y-00122*
X01016Y-00123*
X01017Y-00124*
X01018Y-00125*
X01019Y-00126*
X0102Y-00127*
X01021Y-00127*
X01023Y-00128*
X01024Y-00129*
X01025Y-00129*
X01027Y-0013*
X01028Y-0013*
X01029Y-0013*
X01031Y-0013*
X01032*
X01033Y-0013*
X01035Y-0013*
X01036Y-0013*
X01038Y-00129*
X01039Y-00129*
X0104Y-00128*
X01041Y-00127*
X01043Y-00127*
X01044Y-00126*
X01045Y-00125*
X01046Y-00124*
X01047Y-00123*
X01048Y-00122*
X01048Y-00121*
X01049Y-0012*
X0105Y-00118*
X0105Y-00117*
X01051Y-00116*
X01051Y-00114*
X01051Y-00113*
X01051Y-00112*
X01051Y-0011*
X0113D02*
D01*
X0113Y-00109*
X0113Y-00107*
X0113Y-00106*
X01129Y-00105*
X01129Y-00103*
X01128Y-00102*
X01128Y-00101*
X01127Y-001*
X01126Y-00098*
X01125Y-00097*
X01125Y-00096*
X01124Y-00095*
X01122Y-00094*
X01121Y-00094*
X0112Y-00093*
X01119Y-00092*
X01118Y-00092*
X01116Y-00091*
X01115Y-00091*
X01114Y-0009*
X01112Y-0009*
X01111Y-0009*
X01109*
X01108Y-0009*
X01107Y-0009*
X01105Y-00091*
X01104Y-00091*
X01103Y-00092*
X01101Y-00092*
X011Y-00093*
X01099Y-00094*
X01098Y-00094*
X01097Y-00095*
X01096Y-00096*
X01095Y-00097*
X01094Y-00098*
X01093Y-001*
X01092Y-00101*
X01092Y-00102*
X01091Y-00103*
X01091Y-00105*
X01091Y-00106*
X0109Y-00107*
X0109Y-00109*
X0109Y-0011*
X0109Y-00112*
X0109Y-00113*
X01091Y-00114*
X01091Y-00116*
X01091Y-00117*
X01092Y-00118*
X01092Y-0012*
X01093Y-00121*
X01094Y-00122*
X01095Y-00123*
X01096Y-00124*
X01097Y-00125*
X01098Y-00126*
X01099Y-00127*
X011Y-00127*
X01101Y-00128*
X01103Y-00129*
X01104Y-00129*
X01105Y-0013*
X01107Y-0013*
X01108Y-0013*
X01109Y-0013*
X01111*
X01112Y-0013*
X01114Y-0013*
X01115Y-0013*
X01116Y-00129*
X01118Y-00129*
X01119Y-00128*
X0112Y-00127*
X01121Y-00127*
X01122Y-00126*
X01124Y-00125*
X01125Y-00124*
X01125Y-00123*
X01126Y-00122*
X01127Y-00121*
X01128Y-0012*
X01128Y-00118*
X01129Y-00117*
X01129Y-00116*
X0113Y-00114*
X0113Y-00113*
X0113Y-00112*
X0113Y-0011*
X01209D02*
D01*
X01209Y-00109*
X01209Y-00107*
X01208Y-00106*
X01208Y-00105*
X01208Y-00103*
X01207Y-00102*
X01207Y-00101*
X01206Y-001*
X01205Y-00098*
X01204Y-00097*
X01203Y-00096*
X01202Y-00095*
X01201Y-00094*
X012Y-00094*
X01199Y-00093*
X01198Y-00092*
X01196Y-00092*
X01195Y-00091*
X01194Y-00091*
X01192Y-0009*
X01191Y-0009*
X0119Y-0009*
X01188*
X01187Y-0009*
X01185Y-0009*
X01184Y-00091*
X01183Y-00091*
X01181Y-00092*
X0118Y-00092*
X01179Y-00093*
X01178Y-00094*
X01177Y-00094*
X01175Y-00095*
X01174Y-00096*
X01174Y-00097*
X01173Y-00098*
X01172Y-001*
X01171Y-00101*
X01171Y-00102*
X0117Y-00103*
X0117Y-00105*
X01169Y-00106*
X01169Y-00107*
X01169Y-00109*
X01169Y-0011*
X01169Y-00112*
X01169Y-00113*
X01169Y-00114*
X0117Y-00116*
X0117Y-00117*
X01171Y-00118*
X01171Y-0012*
X01172Y-00121*
X01173Y-00122*
X01174Y-00123*
X01174Y-00124*
X01175Y-00125*
X01177Y-00126*
X01178Y-00127*
X01179Y-00127*
X0118Y-00128*
X01181Y-00129*
X01183Y-00129*
X01184Y-0013*
X01185Y-0013*
X01187Y-0013*
X01188Y-0013*
X0119*
X01191Y-0013*
X01192Y-0013*
X01194Y-0013*
X01195Y-00129*
X01196Y-00129*
X01198Y-00128*
X01199Y-00127*
X012Y-00127*
X01201Y-00126*
X01202Y-00125*
X01203Y-00124*
X01204Y-00123*
X01205Y-00122*
X01206Y-00121*
X01207Y-0012*
X01207Y-00118*
X01208Y-00117*
X01208Y-00116*
X01208Y-00114*
X01209Y-00113*
X01209Y-00112*
X01209Y-0011*
X01288D02*
D01*
X01288Y-00109*
X01287Y-00107*
X01287Y-00106*
X01287Y-00105*
X01286Y-00103*
X01286Y-00102*
X01285Y-00101*
X01285Y-001*
X01284Y-00098*
X01283Y-00097*
X01282Y-00096*
X01281Y-00095*
X0128Y-00094*
X01279Y-00094*
X01278Y-00093*
X01276Y-00092*
X01275Y-00092*
X01274Y-00091*
X01272Y-00091*
X01271Y-0009*
X0127Y-0009*
X01268Y-0009*
X01267*
X01266Y-0009*
X01264Y-0009*
X01263Y-00091*
X01261Y-00091*
X0126Y-00092*
X01259Y-00092*
X01258Y-00093*
X01256Y-00094*
X01255Y-00094*
X01254Y-00095*
X01253Y-00096*
X01252Y-00097*
X01251Y-00098*
X01251Y-001*
X0125Y-00101*
X01249Y-00102*
X01249Y-00103*
X01248Y-00105*
X01248Y-00106*
X01248Y-00107*
X01248Y-00109*
X01248Y-0011*
X01248Y-00112*
X01248Y-00113*
X01248Y-00114*
X01248Y-00116*
X01249Y-00117*
X01249Y-00118*
X0125Y-0012*
X01251Y-00121*
X01251Y-00122*
X01252Y-00123*
X01253Y-00124*
X01254Y-00125*
X01255Y-00126*
X01256Y-00127*
X01258Y-00127*
X01259Y-00128*
X0126Y-00129*
X01261Y-00129*
X01263Y-0013*
X01264Y-0013*
X01266Y-0013*
X01267Y-0013*
X01268*
X0127Y-0013*
X01271Y-0013*
X01272Y-0013*
X01274Y-00129*
X01275Y-00129*
X01276Y-00128*
X01278Y-00127*
X01279Y-00127*
X0128Y-00126*
X01281Y-00125*
X01282Y-00124*
X01283Y-00123*
X01284Y-00122*
X01285Y-00121*
X01285Y-0012*
X01286Y-00118*
X01286Y-00117*
X01287Y-00116*
X01287Y-00114*
X01287Y-00113*
X01288Y-00112*
X01288Y-0011*
X01366D02*
D01*
X01366Y-00109*
X01366Y-00107*
X01366Y-00106*
X01366Y-00105*
X01365Y-00103*
X01365Y-00102*
X01364Y-00101*
X01363Y-001*
X01363Y-00098*
X01362Y-00097*
X01361Y-00096*
X0136Y-00095*
X01359Y-00094*
X01358Y-00094*
X01356Y-00093*
X01355Y-00092*
X01354Y-00092*
X01353Y-00091*
X01351Y-00091*
X0135Y-0009*
X01348Y-0009*
X01347Y-0009*
X01346*
X01344Y-0009*
X01343Y-0009*
X01342Y-00091*
X0134Y-00091*
X01339Y-00092*
X01338Y-00092*
X01336Y-00093*
X01335Y-00094*
X01334Y-00094*
X01333Y-00095*
X01332Y-00096*
X01331Y-00097*
X0133Y-00098*
X01329Y-001*
X01329Y-00101*
X01328Y-00102*
X01328Y-00103*
X01327Y-00105*
X01327Y-00106*
X01327Y-00107*
X01326Y-00109*
X01326Y-0011*
X01326Y-00112*
X01327Y-00113*
X01327Y-00114*
X01327Y-00116*
X01328Y-00117*
X01328Y-00118*
X01329Y-0012*
X01329Y-00121*
X0133Y-00122*
X01331Y-00123*
X01332Y-00124*
X01333Y-00125*
X01334Y-00126*
X01335Y-00127*
X01336Y-00127*
X01338Y-00128*
X01339Y-00129*
X0134Y-00129*
X01342Y-0013*
X01343Y-0013*
X01344Y-0013*
X01346Y-0013*
X01347*
X01348Y-0013*
X0135Y-0013*
X01351Y-0013*
X01353Y-00129*
X01354Y-00129*
X01355Y-00128*
X01356Y-00127*
X01358Y-00127*
X01359Y-00126*
X0136Y-00125*
X01361Y-00124*
X01362Y-00123*
X01363Y-00122*
X01363Y-00121*
X01364Y-0012*
X01365Y-00118*
X01365Y-00117*
X01366Y-00116*
X01366Y-00114*
X01366Y-00113*
X01366Y-00112*
X01366Y-0011*
X01445D02*
D01*
X01445Y-00109*
X01445Y-00107*
X01445Y-00106*
X01444Y-00105*
X01444Y-00103*
X01443Y-00102*
X01443Y-00101*
X01442Y-001*
X01441Y-00098*
X0144Y-00097*
X01439Y-00096*
X01438Y-00095*
X01437Y-00094*
X01436Y-00094*
X01435Y-00093*
X01434Y-00092*
X01433Y-00092*
X01431Y-00091*
X0143Y-00091*
X01429Y-0009*
X01427Y-0009*
X01426Y-0009*
X01424*
X01423Y-0009*
X01422Y-0009*
X0142Y-00091*
X01419Y-00091*
X01418Y-00092*
X01416Y-00092*
X01415Y-00093*
X01414Y-00094*
X01413Y-00094*
X01412Y-00095*
X01411Y-00096*
X0141Y-00097*
X01409Y-00098*
X01408Y-001*
X01407Y-00101*
X01407Y-00102*
X01406Y-00103*
X01406Y-00105*
X01406Y-00106*
X01405Y-00107*
X01405Y-00109*
X01405Y-0011*
X01405Y-00112*
X01405Y-00113*
X01406Y-00114*
X01406Y-00116*
X01406Y-00117*
X01407Y-00118*
X01407Y-0012*
X01408Y-00121*
X01409Y-00122*
X0141Y-00123*
X01411Y-00124*
X01412Y-00125*
X01413Y-00126*
X01414Y-00127*
X01415Y-00127*
X01416Y-00128*
X01418Y-00129*
X01419Y-00129*
X0142Y-0013*
X01422Y-0013*
X01423Y-0013*
X01424Y-0013*
X01426*
X01427Y-0013*
X01429Y-0013*
X0143Y-0013*
X01431Y-00129*
X01433Y-00129*
X01434Y-00128*
X01435Y-00127*
X01436Y-00127*
X01437Y-00126*
X01438Y-00125*
X01439Y-00124*
X0144Y-00123*
X01441Y-00122*
X01442Y-00121*
X01443Y-0012*
X01443Y-00118*
X01444Y-00117*
X01444Y-00116*
X01445Y-00114*
X01445Y-00113*
X01445Y-00112*
X01445Y-0011*
X01524D02*
D01*
X01524Y-00109*
X01524Y-00107*
X01523Y-00106*
X01523Y-00105*
X01523Y-00103*
X01522Y-00102*
X01521Y-00101*
X01521Y-001*
X0152Y-00098*
X01519Y-00097*
X01518Y-00096*
X01517Y-00095*
X01516Y-00094*
X01515Y-00094*
X01514Y-00093*
X01513Y-00092*
X01511Y-00092*
X0151Y-00091*
X01509Y-00091*
X01507Y-0009*
X01506Y-0009*
X01505Y-0009*
X01503*
X01502Y-0009*
X015Y-0009*
X01499Y-00091*
X01498Y-00091*
X01496Y-00092*
X01495Y-00092*
X01494Y-00093*
X01493Y-00094*
X01492Y-00094*
X0149Y-00095*
X01489Y-00096*
X01489Y-00097*
X01488Y-00098*
X01487Y-001*
X01486Y-00101*
X01486Y-00102*
X01485Y-00103*
X01485Y-00105*
X01484Y-00106*
X01484Y-00107*
X01484Y-00109*
X01484Y-0011*
X01484Y-00112*
X01484Y-00113*
X01484Y-00114*
X01485Y-00116*
X01485Y-00117*
X01486Y-00118*
X01486Y-0012*
X01487Y-00121*
X01488Y-00122*
X01489Y-00123*
X01489Y-00124*
X0149Y-00125*
X01492Y-00126*
X01493Y-00127*
X01494Y-00127*
X01495Y-00128*
X01496Y-00129*
X01498Y-00129*
X01499Y-0013*
X015Y-0013*
X01502Y-0013*
X01503Y-0013*
X01505*
X01506Y-0013*
X01507Y-0013*
X01509Y-0013*
X0151Y-00129*
X01511Y-00129*
X01513Y-00128*
X01514Y-00127*
X01515Y-00127*
X01516Y-00126*
X01517Y-00125*
X01518Y-00124*
X01519Y-00123*
X0152Y-00122*
X01521Y-00121*
X01521Y-0012*
X01522Y-00118*
X01523Y-00117*
X01523Y-00116*
X01523Y-00114*
X01524Y-00113*
X01524Y-00112*
X01524Y-0011*
X00815Y-00189D02*
D01*
X00815Y-00187*
X00815Y-00186*
X00815Y-00185*
X00814Y-00183*
X00814Y-00182*
X00813Y-00181*
X00813Y-00179*
X00812Y-00178*
X00811Y-00177*
X0081Y-00176*
X0081Y-00175*
X00809Y-00174*
X00807Y-00173*
X00806Y-00172*
X00805Y-00172*
X00804Y-00171*
X00803Y-0017*
X00801Y-0017*
X008Y-00169*
X00799Y-00169*
X00797Y-00169*
X00796Y-00169*
X00794*
X00793Y-00169*
X00792Y-00169*
X0079Y-00169*
X00789Y-0017*
X00788Y-0017*
X00786Y-00171*
X00785Y-00172*
X00784Y-00172*
X00783Y-00173*
X00782Y-00174*
X00781Y-00175*
X0078Y-00176*
X00779Y-00177*
X00778Y-00178*
X00778Y-00179*
X00777Y-00181*
X00776Y-00182*
X00776Y-00183*
X00776Y-00185*
X00775Y-00186*
X00775Y-00187*
X00775Y-00189*
X00775Y-0019*
X00775Y-00192*
X00776Y-00193*
X00776Y-00194*
X00776Y-00196*
X00777Y-00197*
X00778Y-00198*
X00778Y-00199*
X00779Y-00201*
X0078Y-00202*
X00781Y-00203*
X00782Y-00204*
X00783Y-00205*
X00784Y-00205*
X00785Y-00206*
X00786Y-00207*
X00788Y-00207*
X00789Y-00208*
X0079Y-00208*
X00792Y-00209*
X00793Y-00209*
X00794Y-00209*
X00796*
X00797Y-00209*
X00799Y-00209*
X008Y-00208*
X00801Y-00208*
X00803Y-00207*
X00804Y-00207*
X00805Y-00206*
X00806Y-00205*
X00807Y-00205*
X00809Y-00204*
X0081Y-00203*
X0081Y-00202*
X00811Y-00201*
X00812Y-00199*
X00813Y-00198*
X00813Y-00197*
X00814Y-00196*
X00814Y-00194*
X00815Y-00193*
X00815Y-00192*
X00815Y-0019*
X00815Y-00189*
X00894D02*
D01*
X00894Y-00187*
X00894Y-00186*
X00893Y-00185*
X00893Y-00183*
X00893Y-00182*
X00892Y-00181*
X00892Y-00179*
X00891Y-00178*
X0089Y-00177*
X00889Y-00176*
X00888Y-00175*
X00887Y-00174*
X00886Y-00173*
X00885Y-00172*
X00884Y-00172*
X00883Y-00171*
X00881Y-0017*
X0088Y-0017*
X00879Y-00169*
X00877Y-00169*
X00876Y-00169*
X00875Y-00169*
X00873*
X00872Y-00169*
X0087Y-00169*
X00869Y-00169*
X00868Y-0017*
X00866Y-0017*
X00865Y-00171*
X00864Y-00172*
X00863Y-00172*
X00862Y-00173*
X00861Y-00174*
X0086Y-00175*
X00859Y-00176*
X00858Y-00177*
X00857Y-00178*
X00856Y-00179*
X00856Y-00181*
X00855Y-00182*
X00855Y-00183*
X00854Y-00185*
X00854Y-00186*
X00854Y-00187*
X00854Y-00189*
X00854Y-0019*
X00854Y-00192*
X00854Y-00193*
X00855Y-00194*
X00855Y-00196*
X00856Y-00197*
X00856Y-00198*
X00857Y-00199*
X00858Y-00201*
X00859Y-00202*
X0086Y-00203*
X00861Y-00204*
X00862Y-00205*
X00863Y-00205*
X00864Y-00206*
X00865Y-00207*
X00866Y-00207*
X00868Y-00208*
X00869Y-00208*
X0087Y-00209*
X00872Y-00209*
X00873Y-00209*
X00875*
X00876Y-00209*
X00877Y-00209*
X00879Y-00208*
X0088Y-00208*
X00881Y-00207*
X00883Y-00207*
X00884Y-00206*
X00885Y-00205*
X00886Y-00205*
X00887Y-00204*
X00888Y-00203*
X00889Y-00202*
X0089Y-00201*
X00891Y-00199*
X00892Y-00198*
X00892Y-00197*
X00893Y-00196*
X00893Y-00194*
X00893Y-00193*
X00894Y-00192*
X00894Y-0019*
X00894Y-00189*
X00973D02*
D01*
X00973Y-00187*
X00972Y-00186*
X00972Y-00185*
X00972Y-00183*
X00971Y-00182*
X00971Y-00181*
X0097Y-00179*
X0097Y-00178*
X00969Y-00177*
X00968Y-00176*
X00967Y-00175*
X00966Y-00174*
X00965Y-00173*
X00964Y-00172*
X00963Y-00172*
X00961Y-00171*
X0096Y-0017*
X00959Y-0017*
X00957Y-00169*
X00956Y-00169*
X00955Y-00169*
X00953Y-00169*
X00952*
X00951Y-00169*
X00949Y-00169*
X00948Y-00169*
X00946Y-0017*
X00945Y-0017*
X00944Y-00171*
X00943Y-00172*
X00941Y-00172*
X0094Y-00173*
X00939Y-00174*
X00938Y-00175*
X00937Y-00176*
X00936Y-00177*
X00936Y-00178*
X00935Y-00179*
X00934Y-00181*
X00934Y-00182*
X00933Y-00183*
X00933Y-00185*
X00933Y-00186*
X00933Y-00187*
X00933Y-00189*
X00933Y-0019*
X00933Y-00192*
X00933Y-00193*
X00933Y-00194*
X00934Y-00196*
X00934Y-00197*
X00935Y-00198*
X00936Y-00199*
X00936Y-00201*
X00937Y-00202*
X00938Y-00203*
X00939Y-00204*
X0094Y-00205*
X00941Y-00205*
X00943Y-00206*
X00944Y-00207*
X00945Y-00207*
X00946Y-00208*
X00948Y-00208*
X00949Y-00209*
X00951Y-00209*
X00952Y-00209*
X00953*
X00955Y-00209*
X00956Y-00209*
X00957Y-00208*
X00959Y-00208*
X0096Y-00207*
X00961Y-00207*
X00963Y-00206*
X00964Y-00205*
X00965Y-00205*
X00966Y-00204*
X00967Y-00203*
X00968Y-00202*
X00969Y-00201*
X0097Y-00199*
X0097Y-00198*
X00971Y-00197*
X00971Y-00196*
X00972Y-00194*
X00972Y-00193*
X00972Y-00192*
X00973Y-0019*
X00973Y-00189*
X01051D02*
D01*
X01051Y-00187*
X01051Y-00186*
X01051Y-00185*
X01051Y-00183*
X0105Y-00182*
X0105Y-00181*
X01049Y-00179*
X01048Y-00178*
X01048Y-00177*
X01047Y-00176*
X01046Y-00175*
X01045Y-00174*
X01044Y-00173*
X01043Y-00172*
X01041Y-00172*
X0104Y-00171*
X01039Y-0017*
X01038Y-0017*
X01036Y-00169*
X01035Y-00169*
X01033Y-00169*
X01032Y-00169*
X01031*
X01029Y-00169*
X01028Y-00169*
X01027Y-00169*
X01025Y-0017*
X01024Y-0017*
X01023Y-00171*
X01021Y-00172*
X0102Y-00172*
X01019Y-00173*
X01018Y-00174*
X01017Y-00175*
X01016Y-00176*
X01015Y-00177*
X01014Y-00178*
X01014Y-00179*
X01013Y-00181*
X01013Y-00182*
X01012Y-00183*
X01012Y-00185*
X01012Y-00186*
X01011Y-00187*
X01011Y-00189*
X01011Y-0019*
X01012Y-00192*
X01012Y-00193*
X01012Y-00194*
X01013Y-00196*
X01013Y-00197*
X01014Y-00198*
X01014Y-00199*
X01015Y-00201*
X01016Y-00202*
X01017Y-00203*
X01018Y-00204*
X01019Y-00205*
X0102Y-00205*
X01021Y-00206*
X01023Y-00207*
X01024Y-00207*
X01025Y-00208*
X01027Y-00208*
X01028Y-00209*
X01029Y-00209*
X01031Y-00209*
X01032*
X01033Y-00209*
X01035Y-00209*
X01036Y-00208*
X01038Y-00208*
X01039Y-00207*
X0104Y-00207*
X01041Y-00206*
X01043Y-00205*
X01044Y-00205*
X01045Y-00204*
X01046Y-00203*
X01047Y-00202*
X01048Y-00201*
X01048Y-00199*
X01049Y-00198*
X0105Y-00197*
X0105Y-00196*
X01051Y-00194*
X01051Y-00193*
X01051Y-00192*
X01051Y-0019*
X01051Y-00189*
X0113D02*
D01*
X0113Y-00187*
X0113Y-00186*
X0113Y-00185*
X01129Y-00183*
X01129Y-00182*
X01128Y-00181*
X01128Y-00179*
X01127Y-00178*
X01126Y-00177*
X01125Y-00176*
X01125Y-00175*
X01124Y-00174*
X01122Y-00173*
X01121Y-00172*
X0112Y-00172*
X01119Y-00171*
X01118Y-0017*
X01116Y-0017*
X01115Y-00169*
X01114Y-00169*
X01112Y-00169*
X01111Y-00169*
X01109*
X01108Y-00169*
X01107Y-00169*
X01105Y-00169*
X01104Y-0017*
X01103Y-0017*
X01101Y-00171*
X011Y-00172*
X01099Y-00172*
X01098Y-00173*
X01097Y-00174*
X01096Y-00175*
X01095Y-00176*
X01094Y-00177*
X01093Y-00178*
X01092Y-00179*
X01092Y-00181*
X01091Y-00182*
X01091Y-00183*
X01091Y-00185*
X0109Y-00186*
X0109Y-00187*
X0109Y-00189*
X0109Y-0019*
X0109Y-00192*
X01091Y-00193*
X01091Y-00194*
X01091Y-00196*
X01092Y-00197*
X01092Y-00198*
X01093Y-00199*
X01094Y-00201*
X01095Y-00202*
X01096Y-00203*
X01097Y-00204*
X01098Y-00205*
X01099Y-00205*
X011Y-00206*
X01101Y-00207*
X01103Y-00207*
X01104Y-00208*
X01105Y-00208*
X01107Y-00209*
X01108Y-00209*
X01109Y-00209*
X01111*
X01112Y-00209*
X01114Y-00209*
X01115Y-00208*
X01116Y-00208*
X01118Y-00207*
X01119Y-00207*
X0112Y-00206*
X01121Y-00205*
X01122Y-00205*
X01124Y-00204*
X01125Y-00203*
X01125Y-00202*
X01126Y-00201*
X01127Y-00199*
X01128Y-00198*
X01128Y-00197*
X01129Y-00196*
X01129Y-00194*
X0113Y-00193*
X0113Y-00192*
X0113Y-0019*
X0113Y-00189*
X01209D02*
D01*
X01209Y-00187*
X01209Y-00186*
X01208Y-00185*
X01208Y-00183*
X01208Y-00182*
X01207Y-00181*
X01207Y-00179*
X01206Y-00178*
X01205Y-00177*
X01204Y-00176*
X01203Y-00175*
X01202Y-00174*
X01201Y-00173*
X012Y-00172*
X01199Y-00172*
X01198Y-00171*
X01196Y-0017*
X01195Y-0017*
X01194Y-00169*
X01192Y-00169*
X01191Y-00169*
X0119Y-00169*
X01188*
X01187Y-00169*
X01185Y-00169*
X01184Y-00169*
X01183Y-0017*
X01181Y-0017*
X0118Y-00171*
X01179Y-00172*
X01178Y-00172*
X01177Y-00173*
X01175Y-00174*
X01174Y-00175*
X01174Y-00176*
X01173Y-00177*
X01172Y-00178*
X01171Y-00179*
X01171Y-00181*
X0117Y-00182*
X0117Y-00183*
X01169Y-00185*
X01169Y-00186*
X01169Y-00187*
X01169Y-00189*
X01169Y-0019*
X01169Y-00192*
X01169Y-00193*
X0117Y-00194*
X0117Y-00196*
X01171Y-00197*
X01171Y-00198*
X01172Y-00199*
X01173Y-00201*
X01174Y-00202*
X01174Y-00203*
X01175Y-00204*
X01177Y-00205*
X01178Y-00205*
X01179Y-00206*
X0118Y-00207*
X01181Y-00207*
X01183Y-00208*
X01184Y-00208*
X01185Y-00209*
X01187Y-00209*
X01188Y-00209*
X0119*
X01191Y-00209*
X01192Y-00209*
X01194Y-00208*
X01195Y-00208*
X01196Y-00207*
X01198Y-00207*
X01199Y-00206*
X012Y-00205*
X01201Y-00205*
X01202Y-00204*
X01203Y-00203*
X01204Y-00202*
X01205Y-00201*
X01206Y-00199*
X01207Y-00198*
X01207Y-00197*
X01208Y-00196*
X01208Y-00194*
X01208Y-00193*
X01209Y-00192*
X01209Y-0019*
X01209Y-00189*
X01288D02*
D01*
X01288Y-00187*
X01287Y-00186*
X01287Y-00185*
X01287Y-00183*
X01286Y-00182*
X01286Y-00181*
X01285Y-00179*
X01285Y-00178*
X01284Y-00177*
X01283Y-00176*
X01282Y-00175*
X01281Y-00174*
X0128Y-00173*
X01279Y-00172*
X01278Y-00172*
X01276Y-00171*
X01275Y-0017*
X01274Y-0017*
X01272Y-00169*
X01271Y-00169*
X0127Y-00169*
X01268Y-00169*
X01267*
X01266Y-00169*
X01264Y-00169*
X01263Y-00169*
X01261Y-0017*
X0126Y-0017*
X01259Y-00171*
X01258Y-00172*
X01256Y-00172*
X01255Y-00173*
X01254Y-00174*
X01253Y-00175*
X01252Y-00176*
X01251Y-00177*
X01251Y-00178*
X0125Y-00179*
X01249Y-00181*
X01249Y-00182*
X01248Y-00183*
X01248Y-00185*
X01248Y-00186*
X01248Y-00187*
X01248Y-00189*
X01248Y-0019*
X01248Y-00192*
X01248Y-00193*
X01248Y-00194*
X01249Y-00196*
X01249Y-00197*
X0125Y-00198*
X01251Y-00199*
X01251Y-00201*
X01252Y-00202*
X01253Y-00203*
X01254Y-00204*
X01255Y-00205*
X01256Y-00205*
X01258Y-00206*
X01259Y-00207*
X0126Y-00207*
X01261Y-00208*
X01263Y-00208*
X01264Y-00209*
X01266Y-00209*
X01267Y-00209*
X01268*
X0127Y-00209*
X01271Y-00209*
X01272Y-00208*
X01274Y-00208*
X01275Y-00207*
X01276Y-00207*
X01278Y-00206*
X01279Y-00205*
X0128Y-00205*
X01281Y-00204*
X01282Y-00203*
X01283Y-00202*
X01284Y-00201*
X01285Y-00199*
X01285Y-00198*
X01286Y-00197*
X01286Y-00196*
X01287Y-00194*
X01287Y-00193*
X01287Y-00192*
X01288Y-0019*
X01288Y-00189*
X01366D02*
D01*
X01366Y-00187*
X01366Y-00186*
X01366Y-00185*
X01366Y-00183*
X01365Y-00182*
X01365Y-00181*
X01364Y-00179*
X01363Y-00178*
X01363Y-00177*
X01362Y-00176*
X01361Y-00175*
X0136Y-00174*
X01359Y-00173*
X01358Y-00172*
X01356Y-00172*
X01355Y-00171*
X01354Y-0017*
X01353Y-0017*
X01351Y-00169*
X0135Y-00169*
X01348Y-00169*
X01347Y-00169*
X01346*
X01344Y-00169*
X01343Y-00169*
X01342Y-00169*
X0134Y-0017*
X01339Y-0017*
X01338Y-00171*
X01336Y-00172*
X01335Y-00172*
X01334Y-00173*
X01333Y-00174*
X01332Y-00175*
X01331Y-00176*
X0133Y-00177*
X01329Y-00178*
X01329Y-00179*
X01328Y-00181*
X01328Y-00182*
X01327Y-00183*
X01327Y-00185*
X01327Y-00186*
X01326Y-00187*
X01326Y-00189*
X01326Y-0019*
X01327Y-00192*
X01327Y-00193*
X01327Y-00194*
X01328Y-00196*
X01328Y-00197*
X01329Y-00198*
X01329Y-00199*
X0133Y-00201*
X01331Y-00202*
X01332Y-00203*
X01333Y-00204*
X01334Y-00205*
X01335Y-00205*
X01336Y-00206*
X01338Y-00207*
X01339Y-00207*
X0134Y-00208*
X01342Y-00208*
X01343Y-00209*
X01344Y-00209*
X01346Y-00209*
X01347*
X01348Y-00209*
X0135Y-00209*
X01351Y-00208*
X01353Y-00208*
X01354Y-00207*
X01355Y-00207*
X01356Y-00206*
X01358Y-00205*
X01359Y-00205*
X0136Y-00204*
X01361Y-00203*
X01362Y-00202*
X01363Y-00201*
X01363Y-00199*
X01364Y-00198*
X01365Y-00197*
X01365Y-00196*
X01366Y-00194*
X01366Y-00193*
X01366Y-00192*
X01366Y-0019*
X01366Y-00189*
X01445D02*
D01*
X01445Y-00187*
X01445Y-00186*
X01445Y-00185*
X01444Y-00183*
X01444Y-00182*
X01443Y-00181*
X01443Y-00179*
X01442Y-00178*
X01441Y-00177*
X0144Y-00176*
X01439Y-00175*
X01438Y-00174*
X01437Y-00173*
X01436Y-00172*
X01435Y-00172*
X01434Y-00171*
X01433Y-0017*
X01431Y-0017*
X0143Y-00169*
X01429Y-00169*
X01427Y-00169*
X01426Y-00169*
X01424*
X01423Y-00169*
X01422Y-00169*
X0142Y-00169*
X01419Y-0017*
X01418Y-0017*
X01416Y-00171*
X01415Y-00172*
X01414Y-00172*
X01413Y-00173*
X01412Y-00174*
X01411Y-00175*
X0141Y-00176*
X01409Y-00177*
X01408Y-00178*
X01407Y-00179*
X01407Y-00181*
X01406Y-00182*
X01406Y-00183*
X01406Y-00185*
X01405Y-00186*
X01405Y-00187*
X01405Y-00189*
X01405Y-0019*
X01405Y-00192*
X01406Y-00193*
X01406Y-00194*
X01406Y-00196*
X01407Y-00197*
X01407Y-00198*
X01408Y-00199*
X01409Y-00201*
X0141Y-00202*
X01411Y-00203*
X01412Y-00204*
X01413Y-00205*
X01414Y-00205*
X01415Y-00206*
X01416Y-00207*
X01418Y-00207*
X01419Y-00208*
X0142Y-00208*
X01422Y-00209*
X01423Y-00209*
X01424Y-00209*
X01426*
X01427Y-00209*
X01429Y-00209*
X0143Y-00208*
X01431Y-00208*
X01433Y-00207*
X01434Y-00207*
X01435Y-00206*
X01436Y-00205*
X01437Y-00205*
X01438Y-00204*
X01439Y-00203*
X0144Y-00202*
X01441Y-00201*
X01442Y-00199*
X01443Y-00198*
X01443Y-00197*
X01444Y-00196*
X01444Y-00194*
X01445Y-00193*
X01445Y-00192*
X01445Y-0019*
X01445Y-00189*
X01524D02*
D01*
X01524Y-00187*
X01524Y-00186*
X01523Y-00185*
X01523Y-00183*
X01523Y-00182*
X01522Y-00181*
X01521Y-00179*
X01521Y-00178*
X0152Y-00177*
X01519Y-00176*
X01518Y-00175*
X01517Y-00174*
X01516Y-00173*
X01515Y-00172*
X01514Y-00172*
X01513Y-00171*
X01511Y-0017*
X0151Y-0017*
X01509Y-00169*
X01507Y-00169*
X01506Y-00169*
X01505Y-00169*
X01503*
X01502Y-00169*
X015Y-00169*
X01499Y-00169*
X01498Y-0017*
X01496Y-0017*
X01495Y-00171*
X01494Y-00172*
X01493Y-00172*
X01492Y-00173*
X0149Y-00174*
X01489Y-00175*
X01489Y-00176*
X01488Y-00177*
X01487Y-00178*
X01486Y-00179*
X01486Y-00181*
X01485Y-00182*
X01485Y-00183*
X01484Y-00185*
X01484Y-00186*
X01484Y-00187*
X01484Y-00189*
X01484Y-0019*
X01484Y-00192*
X01484Y-00193*
X01485Y-00194*
X01485Y-00196*
X01486Y-00197*
X01486Y-00198*
X01487Y-00199*
X01488Y-00201*
X01489Y-00202*
X01489Y-00203*
X0149Y-00204*
X01492Y-00205*
X01493Y-00205*
X01494Y-00206*
X01495Y-00207*
X01496Y-00207*
X01498Y-00208*
X01499Y-00208*
X015Y-00209*
X01502Y-00209*
X01503Y-00209*
X01505*
X01506Y-00209*
X01507Y-00209*
X01509Y-00208*
X0151Y-00208*
X01511Y-00207*
X01513Y-00207*
X01514Y-00206*
X01515Y-00205*
X01516Y-00205*
X01517Y-00204*
X01518Y-00203*
X01519Y-00202*
X0152Y-00201*
X01521Y-00199*
X01521Y-00198*
X01522Y-00197*
X01523Y-00196*
X01523Y-00194*
X01523Y-00193*
X01524Y-00192*
X01524Y-0019*
X01524Y-00189*
G54D49*
X02931Y-0155D02*
D01*
X02931Y-01549*
X02931Y-01549*
X02931Y-01549*
X02932Y-01549*
X02932Y-01549*
X02932Y-01549*
X02932Y-01549*
X02933Y-01549*
X02933Y-01549*
X02933Y-01549*
X02933Y-01548*
X02933Y-01548*
X02934Y-01548*
X02934Y-01548*
X02934Y-01548*
X02934Y-01547*
X02934Y-01547*
X02934Y-01547*
X02934Y-01546*
X02934Y-01546*
X02934Y-01546*
X02934Y-01546*
X02935Y-01546*
X02395D02*
D01*
X02395Y-01546*
X02395Y-01546*
X02395Y-01546*
X02395Y-01547*
X02395Y-01547*
X02395Y-01547*
X02395Y-01547*
X02395Y-01548*
X02395Y-01548*
X02395Y-01548*
X02396Y-01548*
X02396Y-01548*
X02396Y-01549*
X02396Y-01549*
X02397Y-01549*
X02397Y-01549*
X02397Y-01549*
X02397Y-01549*
X02398Y-01549*
X02398Y-01549*
X02398Y-01549*
X02398Y-01549*
X02399Y-0155*
Y-0145D02*
D01*
X02398Y-0145*
X02398Y-0145*
X02398Y-0145*
X02397Y-0145*
X02397Y-0145*
X02397Y-0145*
X02397Y-0145*
X02396Y-0145*
X02396Y-0145*
X02396Y-0145*
X02396Y-01451*
X02396Y-01451*
X02395Y-01451*
X02395Y-01451*
X02395Y-01452*
X02395Y-01452*
X02395Y-01452*
X02395Y-01452*
X02395Y-01453*
X02395Y-01453*
X02395Y-01453*
X02395Y-01453*
X02395Y-01454*
X02935D02*
D01*
X02934Y-01453*
X02934Y-01453*
X02934Y-01453*
X02934Y-01452*
X02934Y-01452*
X02934Y-01452*
X02934Y-01452*
X02934Y-01451*
X02934Y-01451*
X02934Y-01451*
X02933Y-01451*
X02933Y-01451*
X02933Y-0145*
X02933Y-0145*
X02933Y-0145*
X02932Y-0145*
X02932Y-0145*
X02932Y-0145*
X02931Y-0145*
X02931Y-0145*
X02931Y-0145*
X02931Y-0145*
X02931Y-0145*
X02399D02*
X02931D01*
X02399Y-0155D02*
X02931D01*
X02395Y-01546D02*
Y-01454D01*
X02935Y-01546D02*
Y-01454D01*
X02455Y-01469D02*
X02875D01*
X02455Y-01482D02*
X02875D01*
X02455Y-01457D02*
Y-01464D01*
X02459*
X02463Y-0146D02*
X02465D01*
X02466Y-01461*
Y-01464*
X02463*
X02462Y-01463*
X02463Y-01462*
X02466*
X02469Y-0146D02*
Y-01463D01*
X0247Y-01464*
X02473*
Y-01466*
X02472Y-01467*
X02471*
X02473Y-01464D02*
Y-0146D01*
X02479Y-01464D02*
X02477D01*
X02475Y-01463*
Y-01461*
X02477Y-0146*
X02479*
X0248Y-01461*
Y-01462*
X02475*
X02482Y-0146D02*
Y-01464D01*
Y-01462*
X02484Y-01461*
X02485Y-0146*
X02486*
X02501Y-01459D02*
X025Y-01457D01*
X02498*
X02496Y-01459*
Y-0146*
X02498Y-01461*
X025*
X02501Y-01462*
Y-01463*
X025Y-01464*
X02498*
X02496Y-01463*
X02505Y-01459D02*
Y-0146D01*
X02503*
X02506*
X02505*
Y-01463*
X02506Y-01464*
X0251Y-0146D02*
X02513D01*
X02514Y-01461*
Y-01464*
X0251*
X02509Y-01463*
X0251Y-01462*
X02514*
X02521Y-0146D02*
X02517D01*
X02516Y-01461*
Y-01463*
X02517Y-01464*
X02521*
X02523D02*
Y-01457D01*
Y-01462D02*
X02527Y-0146D01*
X02523Y-01462D02*
X02527Y-01464D01*
X02537Y-01457D02*
Y-01463D01*
X02538Y-01464*
X02541*
X02542Y-01463*
Y-01457*
X02544Y-01467D02*
Y-0146D01*
X02548*
X02549Y-01461*
Y-01463*
X02548Y-01464*
X02544*
X02558Y-01457D02*
Y-01464D01*
X02562*
X02563Y-01463*
Y-01459*
X02562Y-01457*
X02558*
X02569Y-01464D02*
X02566D01*
X02565Y-01463*
Y-01461*
X02566Y-0146*
X02569*
X0257Y-01461*
Y-01462*
X02565*
X02573Y-01459D02*
Y-0146D01*
X02572*
X02575*
X02573*
Y-01463*
X02575Y-01464*
X02579Y-0146D02*
X02582D01*
X02583Y-01461*
Y-01464*
X02579*
X02578Y-01463*
X02579Y-01462*
X02583*
X02585Y-01464D02*
X02587D01*
X02586*
Y-0146*
X02585*
X02591Y-01464D02*
X02593D01*
X02592*
Y-01457*
X02591*
X02605Y-01464D02*
Y-01459D01*
Y-01461*
X02604*
X02606*
X02605*
Y-01459*
X02606Y-01457*
X02611Y-01464D02*
X02613D01*
X02614Y-01463*
Y-01461*
X02613Y-0146*
X02611*
X0261Y-01461*
Y-01463*
X02611Y-01464*
X02617Y-0146D02*
Y-01464D01*
Y-01462*
X02618Y-01461*
X02619Y-0146*
X0262*
X02624D02*
X02625D01*
Y-01461*
X02624*
Y-0146*
Y-01463D02*
X02625D01*
Y-01464*
X02624*
Y-01463*
X02636Y-01464D02*
Y-01457D01*
X02639Y-0146*
X02641Y-01457*
Y-01464*
X02643Y-01457D02*
Y-01464D01*
X02647*
X02648Y-01463*
Y-01462*
X02647Y-01461*
X02643*
X02647*
X02648Y-0146*
Y-01459*
X02647Y-01457*
X02643*
X0265Y-01464D02*
X02653D01*
X02652*
Y-01457*
X0265Y-01459*
X02661Y-01464D02*
X02656D01*
X02661Y-0146*
Y-01459*
X0266Y-01457*
X02657*
X02656Y-01459*
X02663D02*
X02664Y-01457D01*
X02667*
X02668Y-01459*
Y-0146*
X02667Y-01461*
X02668Y-01462*
Y-01463*
X02667Y-01464*
X02664*
X02663Y-01463*
Y-01462*
X02664Y-01461*
X02663Y-0146*
Y-01459*
X02664Y-01461D02*
X02667D01*
X0267Y-01459D02*
X02671Y-01457D01*
X02674*
X02675Y-01459*
Y-01463*
X02674Y-01464*
X02671*
X0267Y-01463*
Y-01459*
X02677Y-01464D02*
Y-01463D01*
X02678*
Y-01464*
X02677*
X02683D02*
Y-01457D01*
X02687*
X02688Y-01459*
Y-01461*
X02687Y-01462*
X02683*
X02695Y-0146D02*
X02691D01*
X0269Y-01461*
Y-01463*
X02691Y-01464*
X02695*
X02697Y-01457D02*
Y-01464D01*
X02701*
X02702Y-01463*
Y-01462*
Y-01461*
X02701Y-0146*
X02697*
X02704Y-01457D02*
Y-01464D01*
X02708*
X02709Y-01463*
Y-01459*
X02708Y-01457*
X02704*
X02712Y-01464D02*
X02715D01*
X02716Y-01463*
Y-01461*
X02715Y-0146*
X02712*
X02711Y-01461*
Y-01463*
X02712Y-01464*
X02723Y-0146D02*
X02719D01*
X02718Y-01461*
Y-01463*
X02719Y-01464*
X02723*
X02455Y-01471D02*
Y-01474D01*
X02457*
X02458Y-01472D02*
X02459D01*
X0246Y-01473*
Y-01474*
X02458*
X02458Y-01474*
X02458Y-01473*
X0246*
X02461Y-01472D02*
Y-01474D01*
X02461Y-01474*
X02463*
Y-01475*
X02462Y-01475*
X02462*
X02463Y-01474D02*
Y-01472D01*
X02465Y-01474D02*
X02464D01*
X02464Y-01474*
Y-01473*
X02464Y-01472*
X02465*
X02466Y-01473*
Y-01473*
X02464*
X02467Y-01472D02*
Y-01474D01*
Y-01473*
X02467Y-01473*
X02468Y-01472*
X02468*
X02544Y-01472D02*
X02544Y-01471D01*
X02543*
X02542Y-01472*
Y-01474*
X02543Y-01474*
X02544*
X02544Y-01474*
Y-01473*
X02543*
X02547Y-01474D02*
X02546D01*
X02545Y-01474*
Y-01473*
X02546Y-01472*
X02547*
X02547Y-01473*
Y-01473*
X02545*
X02548Y-01472D02*
Y-01474D01*
Y-01473*
X02549Y-01473*
X02549Y-01472*
X0255*
X02551Y-01471D02*
Y-01474D01*
X02553*
X02553Y-01474*
Y-01473*
Y-01473*
X02553Y-01472*
X02551*
X02556Y-01474D02*
X02555D01*
X02554Y-01474*
Y-01473*
X02555Y-01472*
X02556*
X02556Y-01473*
Y-01473*
X02554*
X02557Y-01472D02*
Y-01474D01*
Y-01473*
X02558Y-01473*
X02558Y-01472*
X02559*
X02596Y-01472D02*
X02596Y-01471D01*
X02595*
X02594Y-01472*
Y-01474*
X02595Y-01474*
X02596*
X02596Y-01474*
X02598Y-01474D02*
X02599D01*
X02599Y-01474*
Y-01473*
X02599Y-01472*
X02598*
X02597Y-01473*
Y-01474*
X02598Y-01474*
X026Y-01475D02*
Y-01472D01*
X02602*
X02602Y-01473*
Y-01474*
X02602Y-01474*
X026*
X02603Y-01475D02*
Y-01472D01*
X02605*
X02605Y-01473*
Y-01474*
X02605Y-01474*
X02603*
X02608D02*
X02607D01*
X02606Y-01474*
Y-01473*
X02607Y-01472*
X02608*
X02608Y-01473*
Y-01473*
X02606*
X02609Y-01472D02*
Y-01474D01*
Y-01473*
X0261Y-01473*
X0261Y-01472*
X02611*
X02651Y-01471D02*
Y-01474D01*
X02652*
X02653Y-01474*
Y-01472*
X02652Y-01471*
X02651*
X02654Y-01474D02*
X02655D01*
X02654*
Y-01472*
X02654*
X02658Y-01474D02*
X02657D01*
X02656Y-01474*
Y-01473*
X02657Y-01472*
X02658*
X02658Y-01473*
Y-01473*
X02656*
X02659Y-01474D02*
X0266D01*
X0266*
Y-01471*
X02659*
X02663Y-01474D02*
X02662D01*
X02662Y-01474*
Y-01473*
X02662Y-01472*
X02663*
X02664Y-01473*
Y-01473*
X02662*
X02667Y-01472D02*
X02665D01*
X02665Y-01473*
Y-01474*
X02665Y-01474*
X02667*
X02668Y-01472D02*
Y-01472D01*
X02668*
X02669*
X02668*
Y-01474*
X02669Y-01474*
X0267Y-01472D02*
Y-01474D01*
Y-01473*
X02671Y-01473*
X02671Y-01472*
X02672*
X02673Y-01474D02*
X02674D01*
X02674*
Y-01472*
X02673*
X02678D02*
X02676D01*
X02676Y-01473*
Y-01474*
X02676Y-01474*
X02678*
X02709Y-01471D02*
Y-01474D01*
X02711*
X02711Y-01474*
Y-01472*
X02711Y-01471*
X02709*
X02712Y-01474D02*
X02713D01*
X02713*
Y-01472*
X02712*
X02716Y-01474D02*
X02715D01*
X02715Y-01474*
Y-01473*
X02715Y-01472*
X02716*
X02717Y-01473*
Y-01473*
X02715*
X02718Y-01474D02*
X02719D01*
X02718*
Y-01471*
X02718*
X02722Y-01474D02*
X02721D01*
X0272Y-01474*
Y-01473*
X02721Y-01472*
X02722*
X02722Y-01473*
Y-01473*
X0272*
X02725Y-01472D02*
X02724D01*
X02723Y-01473*
Y-01474*
X02724Y-01474*
X02725*
X02727Y-01472D02*
Y-01472D01*
X02726*
X02727*
X02727*
Y-01474*
X02727Y-01474*
X02729Y-01472D02*
Y-01474D01*
Y-01473*
X02729Y-01473*
X0273Y-01472*
X0273*
X02732Y-01474D02*
X02733D01*
X02732*
Y-01472*
X02732*
X02736D02*
X02735D01*
X02734Y-01473*
Y-01474*
X02735Y-01474*
X02736*
X02777Y-01471D02*
Y-01474D01*
X02779*
X02779Y-01474*
Y-01472*
X02779Y-01471*
X02777*
X0278Y-01474D02*
X02781D01*
X02781*
Y-01472*
X0278*
X02784Y-01474D02*
X02783D01*
X02783Y-01474*
Y-01473*
X02783Y-01472*
X02784*
X02785Y-01473*
Y-01473*
X02783*
X02786Y-01474D02*
X02787D01*
X02786*
Y-01471*
X02786*
X0279Y-01474D02*
X02789D01*
X02788Y-01474*
Y-01473*
X02789Y-01472*
X0279*
X0279Y-01473*
Y-01473*
X02788*
X02793Y-01472D02*
X02792D01*
X02791Y-01473*
Y-01474*
X02792Y-01474*
X02793*
X02795Y-01472D02*
Y-01472D01*
X02794*
X02795*
X02795*
Y-01474*
X02795Y-01474*
X02797Y-01472D02*
Y-01474D01*
Y-01473*
X02797Y-01473*
X02798Y-01472*
X02798*
X028Y-01474D02*
X02801D01*
X028*
Y-01472*
X028*
X02804D02*
X02803D01*
X02802Y-01473*
Y-01474*
X02803Y-01474*
X02804*
X02836Y-01471D02*
Y-01474D01*
X02837*
X02838Y-01474*
Y-01472*
X02837Y-01471*
X02836*
X02839Y-01474D02*
X0284D01*
X02839*
Y-01472*
X02839*
X02843Y-01474D02*
X02842D01*
X02841Y-01474*
Y-01473*
X02842Y-01472*
X02843*
X02843Y-01473*
Y-01473*
X02841*
X02844Y-01474D02*
X02845D01*
X02845*
Y-01471*
X02844*
X02848Y-01474D02*
X02847D01*
X02847Y-01474*
Y-01473*
X02847Y-01472*
X02848*
X02849Y-01473*
Y-01473*
X02847*
X02852Y-01472D02*
X0285D01*
X0285Y-01473*
Y-01474*
X0285Y-01474*
X02852*
X02853Y-01472D02*
Y-01472D01*
X02853*
X02854*
X02853*
Y-01474*
X02854Y-01474*
X02855Y-01472D02*
Y-01474D01*
Y-01473*
X02856Y-01473*
X02856Y-01472*
X02857*
X02858Y-01474D02*
X02859D01*
X02859*
Y-01472*
X02858*
X02863D02*
X02861D01*
X02861Y-01473*
Y-01474*
X02861Y-01474*
X02863*
X02455Y-0148D02*
Y-01477D01*
X02457Y-0148*
Y-01477*
X02458Y-01478D02*
X02459D01*
X0246Y-01479*
Y-0148*
X02458*
X02458Y-0148*
X02458Y-01479*
X0246*
X02461Y-0148D02*
Y-01478D01*
X02461*
X02462Y-01479*
Y-0148*
Y-01479*
X02462Y-01478*
X02463Y-01479*
Y-0148*
X02465D02*
X02464D01*
X02464Y-0148*
Y-01479*
X02464Y-01478*
X02465*
X02466Y-01479*
Y-01479*
X02464*
X02542Y-01477D02*
Y-0148D01*
X02544*
X02544Y-0148*
Y-01478*
X02544Y-01477*
X02542*
X02546Y-0148D02*
X02547D01*
X02547Y-0148*
Y-01479*
X02547Y-01478*
X02546*
X02545Y-01479*
Y-0148*
X02546Y-0148*
X0255Y-01478D02*
X02549D01*
X02548Y-01479*
Y-0148*
X02549Y-0148*
X0255*
X02551Y-01478D02*
Y-0148D01*
X02552Y-0148*
X02553*
Y-01478*
X02554Y-0148D02*
Y-01478D01*
X02555*
X02555Y-01479*
Y-0148*
Y-01479*
X02556Y-01478*
X02556Y-01479*
Y-0148*
X02559D02*
X02558D01*
X02557Y-0148*
Y-01479*
X02558Y-01478*
X02559*
X02559Y-01479*
Y-01479*
X02557*
X0256Y-0148D02*
Y-01478D01*
X02562*
X02562Y-01479*
Y-0148*
X02564Y-01478D02*
Y-01478D01*
X02563*
X02564*
X02564*
Y-0148*
X02564Y-0148*
X02594Y-01477D02*
X02596D01*
X02595*
Y-0148*
X02597Y-01477D02*
Y-0148D01*
Y-01479*
X02598Y-01478*
X02599*
X02599Y-01479*
Y-0148*
X026D02*
X02601D01*
X02601*
Y-01478*
X026*
X02605D02*
X02603D01*
X02603Y-01479*
Y-0148*
X02603Y-0148*
X02605*
X02606D02*
Y-01477D01*
Y-01479D02*
X02607Y-01478D01*
X02606Y-01479D02*
X02607Y-0148D01*
X02609D02*
Y-01478D01*
X0261*
X02611Y-01479*
Y-0148*
X02613D02*
X02612D01*
X02612Y-0148*
Y-01479*
X02612Y-01478*
X02613*
X02614Y-01479*
Y-01479*
X02612*
X02615Y-0148D02*
X02616D01*
X02617Y-0148*
X02616Y-01479*
X02615*
X02615Y-01479*
X02615Y-01478*
X02617*
X02618Y-0148D02*
X02619D01*
X0262Y-0148*
X02619Y-01479*
X02618*
X02618Y-01479*
X02618Y-01478*
X0262*
X02651Y-01477D02*
Y-0148D01*
Y-01479*
X02653*
Y-01477*
Y-0148*
X02655D02*
X02654D01*
X02654Y-0148*
Y-01479*
X02654Y-01478*
X02655*
X02656Y-01479*
Y-01479*
X02654*
X02657Y-0148D02*
X02658D01*
X02657*
Y-01478*
X02657*
X0266Y-01481D02*
X02661D01*
X02661Y-01481*
Y-01478*
X0266*
X02659Y-01479*
Y-0148*
X0266Y-0148*
X02661*
X02662Y-01477D02*
Y-0148D01*
Y-01479*
X02663Y-01478*
X02664*
X02664Y-01479*
Y-0148*
X02666Y-01478D02*
Y-01478D01*
X02665*
X02666*
X02666*
Y-0148*
X02666Y-0148*
X02709D02*
Y-01477D01*
X0271Y-01478*
X02711Y-01477*
Y-0148*
X02713Y-01478D02*
X02714D01*
X02714Y-01479*
Y-0148*
X02713*
X02712Y-0148*
X02713Y-01479*
X02714*
X02716Y-01478D02*
Y-01478D01*
X02715*
X02716*
X02716*
Y-0148*
X02716Y-0148*
X02719D02*
X02718D01*
X02718Y-0148*
Y-01479*
X02718Y-01478*
X02719*
X0272Y-01479*
Y-01479*
X02718*
X02721Y-01478D02*
Y-0148D01*
Y-01479*
X02721Y-01479*
X02722Y-01478*
X02722*
X02724Y-0148D02*
X02725D01*
X02724*
Y-01478*
X02724*
X02727D02*
X02728D01*
X02728Y-01479*
Y-0148*
X02727*
X02726Y-0148*
X02727Y-01479*
X02728*
X02729Y-0148D02*
X0273D01*
X0273*
Y-01477*
X02729*
X02779Y-01478D02*
X02779Y-01477D01*
X02778*
X02777Y-01478*
Y-0148*
X02778Y-0148*
X02779*
X02779Y-0148*
X02781Y-0148D02*
X02782D01*
X02782Y-0148*
Y-01479*
X02782Y-01478*
X02781*
X0278Y-01479*
Y-0148*
X02781Y-0148*
X02783D02*
Y-01478D01*
X02785*
X02785Y-01479*
Y-0148*
X02786D02*
X02788D01*
X02788Y-0148*
X02788Y-01479*
X02787*
X02786Y-01479*
X02787Y-01478*
X02788*
X0279Y-01478D02*
Y-01478D01*
X02789*
X0279*
X0279*
Y-0148*
X0279Y-0148*
X02792Y-01478D02*
X02793D01*
X02794Y-01479*
Y-0148*
X02792*
X02792Y-0148*
X02792Y-01479*
X02794*
X02795Y-0148D02*
Y-01478D01*
X02796*
X02797Y-01479*
Y-0148*
X02798Y-01478D02*
Y-01478D01*
X02798*
X02799*
X02798*
Y-0148*
X02799Y-0148*
X02836Y-01477D02*
X02838D01*
X02837*
Y-0148*
X02839Y-01478D02*
Y-0148D01*
X02839Y-0148*
X02841*
Y-01481*
X0284Y-01481*
X0284*
X02841Y-0148D02*
Y-01478D01*
X02842Y-01481D02*
Y-01478D01*
X02843*
X02844Y-01479*
Y-0148*
X02843Y-0148*
X02842*
X02846D02*
X02845D01*
X02845Y-0148*
Y-01479*
X02845Y-01478*
X02846*
X02847Y-01479*
Y-01479*
X02845*
X02455Y-01485D02*
X02457D01*
X02456*
Y-01489*
X02459D02*
X02461D01*
X02461Y-01488*
Y-01487*
X02461Y-01486*
X02459*
X02459Y-01487*
Y-01488*
X02459Y-01489*
X02463Y-0149D02*
Y-01486D01*
X02465*
X02465Y-01487*
Y-01488*
X02465Y-01489*
X02463*
X02473Y-01486D02*
X02472Y-01485D01*
X02471*
X0247Y-01486*
Y-01486*
X02471Y-01487*
X02472*
X02473Y-01488*
Y-01488*
X02472Y-01489*
X02471*
X0247Y-01488*
X02475Y-01489D02*
X02476D01*
X02477Y-01488*
Y-01487*
X02476Y-01486*
X02475*
X02474Y-01487*
Y-01488*
X02475Y-01489*
X02478D02*
X0248D01*
X02479*
Y-01485*
X02478*
X02484D02*
Y-01489D01*
X02482*
X02482Y-01488*
Y-01487*
X02482Y-01486*
X02484*
X02488Y-01489D02*
X02486D01*
X02486Y-01488*
Y-01487*
X02486Y-01486*
X02488*
X02488Y-01487*
Y-01488*
X02486*
X0249Y-01486D02*
Y-01489D01*
Y-01488*
X0249Y-01487*
X02491Y-01486*
X02492*
X02498Y-01489D02*
Y-01485D01*
X02499Y-01486*
X025Y-01485*
Y-01489*
X02502Y-01486D02*
X02504D01*
X02504Y-01487*
Y-01489*
X02502*
X02502Y-01488*
X02502Y-01488*
X02504*
X02506Y-01489D02*
X02508D01*
X02508Y-01488*
X02508Y-01488*
X02506*
X02506Y-01487*
X02506Y-01486*
X02508*
X0251Y-01489D02*
Y-01485D01*
Y-01488D02*
X02512Y-01486D01*
X0251Y-01488D02*
X02512Y-01489D01*
X02544D02*
X02542Y-01488D01*
Y-01486*
X02544Y-01485*
X02546Y-01489D02*
Y-01488D01*
X02546*
Y-01489*
X02546*
X02552Y-01486D02*
X02551Y-01485D01*
X0255*
X02549Y-01486*
Y-01488*
X0255Y-01489*
X02551*
X02552Y-01488*
Y-01487*
X0255*
X02553Y-01485D02*
X02556D01*
X02554*
Y-01489*
X0256Y-01486D02*
X02559Y-01485D01*
X02558*
X02557Y-01486*
Y-01486*
X02558Y-01487*
X02559*
X0256Y-01488*
Y-01488*
X02559Y-01489*
X02558*
X02557Y-01488*
X02561Y-01489D02*
X02562Y-01488D01*
Y-01486*
X02561Y-01485*
X02651Y-01486D02*
X02651Y-01485D01*
X02653*
X02653Y-01486*
Y-01488*
X02653Y-01489*
X02651*
X02651Y-01488*
Y-01486*
X02655Y-01489D02*
Y-01488D01*
X02655*
Y-01489*
X02655*
X0266D02*
Y-01485D01*
X02658Y-01487*
X02661*
X02662Y-01489D02*
Y-01486D01*
X02663*
X02663Y-01487*
Y-01489*
Y-01487*
X02664Y-01486*
X02665Y-01487*
Y-01489*
X02666D02*
X02667D01*
X02667*
Y-01486*
X02666*
X02669Y-01489D02*
X02671D01*
X0267*
Y-01485*
X02669*
X02712Y-01486D02*
X02711Y-01485D01*
X0271*
X02709Y-01486*
Y-01486*
X0271Y-01487*
X02711*
X02712Y-01488*
Y-01488*
X02711Y-01489*
X0271*
X02709Y-01488*
X02714Y-01489D02*
X02715D01*
X02716Y-01488*
Y-01487*
X02715Y-01486*
X02714*
X02713Y-01487*
Y-01488*
X02714Y-01489*
X02717D02*
X02718D01*
X02718*
Y-01485*
X02717*
X02723D02*
Y-01489D01*
X02721*
X0272Y-01488*
Y-01487*
X02721Y-01486*
X02723*
X02726Y-01489D02*
X02725D01*
X02724Y-01488*
Y-01487*
X02725Y-01486*
X02726*
X02727Y-01487*
Y-01488*
X02724*
X02728Y-01486D02*
Y-01489D01*
Y-01488*
X02729Y-01487*
X0273Y-01486*
X0273*
X02736Y-01489D02*
Y-01485D01*
X02738*
X02739Y-01486*
Y-01487*
X02738Y-01488*
X02736*
X02738D02*
X02739Y-01489D01*
X02742D02*
X02741D01*
X0274Y-01488*
Y-01487*
X02741Y-01486*
X02742*
X02743Y-01487*
Y-01488*
X0274*
X02744Y-01489D02*
X02746D01*
X02747Y-01488*
X02746Y-01488*
X02745*
X02744Y-01487*
X02745Y-01486*
X02747*
X02748Y-01489D02*
X0275D01*
X02749*
Y-01486*
X02748*
X02752Y-01489D02*
X02754D01*
X02754Y-01488*
X02754Y-01488*
X02752*
X02752Y-01487*
X02752Y-01486*
X02754*
X02756Y-01486D02*
Y-01486D01*
X02756*
X02757*
X02756*
Y-01488*
X02757Y-01489*
X02777Y-01486D02*
X02778Y-01485D01*
X02779*
X0278Y-01486*
Y-01486*
X02779Y-01487*
X02778*
X02779*
X0278Y-01488*
Y-01488*
X02779Y-01489*
X02778*
X02777Y-01488*
X02781Y-01489D02*
Y-01488D01*
X02782*
Y-01489*
X02781*
X02787Y-01485D02*
X02784D01*
Y-01487*
X02786Y-01486*
X02786*
X02787Y-01487*
Y-01488*
X02786Y-01489*
X02785*
X02784Y-01488*
X02788Y-01486D02*
X02789Y-01485D01*
X0279*
X02791Y-01486*
Y-01488*
X0279Y-01489*
X02789*
X02788Y-01488*
Y-01486*
X02455Y-01523D02*
Y-01527D01*
X02457*
X02457Y-01526*
Y-01525*
X02457Y-01525*
X02455*
X02457*
X02457Y-01524*
Y-01523*
X02457Y-01523*
X02455*
X02459Y-01527D02*
X02461D01*
X02461Y-01526*
Y-01525*
X02461Y-01524*
X02459*
X02459Y-01525*
Y-01526*
X02459Y-01527*
X02463Y-01523D02*
Y-01524D01*
X02463*
X02464*
X02463*
Y-01526*
X02464Y-01527*
X02467Y-01523D02*
Y-01524D01*
X02466*
X02467*
X02467*
Y-01526*
X02467Y-01527*
X0247D02*
X02471D01*
X02472Y-01526*
Y-01525*
X02471Y-01524*
X0247*
X02469Y-01525*
Y-01526*
X0247Y-01527*
X02473D02*
Y-01524D01*
X02474*
X02474Y-01525*
Y-01527*
Y-01525*
X02475Y-01524*
X02476Y-01525*
Y-01527*
X02484Y-01523D02*
X02483Y-01523D01*
X02482*
X02481Y-01523*
Y-01524*
X02482Y-01525*
X02483*
X02484Y-01525*
Y-01526*
X02483Y-01527*
X02482*
X02481Y-01526*
X02486Y-01527D02*
X02487D01*
X02488Y-01526*
Y-01525*
X02487Y-01524*
X02486*
X02485Y-01525*
Y-01526*
X02486Y-01527*
X02489D02*
X0249D01*
X0249*
Y-01523*
X02489*
X02495D02*
Y-01527D01*
X02493*
X02492Y-01526*
Y-01525*
X02493Y-01524*
X02495*
X02498Y-01527D02*
X02497D01*
X02496Y-01526*
Y-01525*
X02497Y-01524*
X02498*
X02499Y-01525*
Y-01525*
X02496*
X025Y-01524D02*
Y-01527D01*
Y-01525*
X02501Y-01525*
X02502Y-01524*
X02502*
X02508Y-01527D02*
Y-01523D01*
X0251Y-01524*
X02511Y-01523*
Y-01527*
X02513Y-01524D02*
X02514D01*
X02515Y-01525*
Y-01527*
X02513*
X02512Y-01526*
X02513Y-01525*
X02515*
X02516Y-01527D02*
X02518D01*
X02519Y-01526*
X02518Y-01525*
X02517*
X02516Y-01525*
X02517Y-01524*
X02519*
X0252Y-01527D02*
Y-01523D01*
Y-01525D02*
X02522Y-01524D01*
X0252Y-01525D02*
X02522Y-01527D01*
X02544D02*
X02542Y-01525D01*
Y-01524*
X02544Y-01523*
X02546Y-01527D02*
Y-01526D01*
X02546*
Y-01527*
X02546*
X02552Y-01523D02*
X02551Y-01523D01*
X0255*
X02549Y-01523*
Y-01526*
X0255Y-01527*
X02551*
X02552Y-01526*
Y-01525*
X0255*
X02553Y-01523D02*
Y-01527D01*
X02555*
X02556Y-01526*
Y-01525*
X02555Y-01525*
X02553*
X02555*
X02556Y-01524*
Y-01523*
X02555Y-01523*
X02553*
X0256Y-01523D02*
X02559Y-01523D01*
X02558*
X02557Y-01523*
Y-01524*
X02558Y-01525*
X02559*
X0256Y-01525*
Y-01526*
X02559Y-01527*
X02558*
X02557Y-01526*
X02561Y-01527D02*
X02562Y-01525D01*
Y-01524*
X02561Y-01523*
X02651Y-01523D02*
X02651Y-01523D01*
X02653*
X02653Y-01523*
Y-01526*
X02653Y-01527*
X02651*
X02651Y-01526*
Y-01523*
X02655Y-01527D02*
Y-01526D01*
X02655*
Y-01527*
X02655*
X0266D02*
Y-01523D01*
X02658Y-01525*
X02661*
X02662Y-01527D02*
Y-01524D01*
X02663*
X02663Y-01525*
Y-01527*
Y-01525*
X02664Y-01524*
X02665Y-01525*
Y-01527*
X02666D02*
X02667D01*
X02667*
Y-01524*
X02666*
X02669Y-01527D02*
X02671D01*
X0267*
Y-01523*
X02669*
X02712Y-01523D02*
X02711Y-01523D01*
X0271*
X02709Y-01523*
Y-01524*
X0271Y-01525*
X02711*
X02712Y-01525*
Y-01526*
X02711Y-01527*
X0271*
X02709Y-01526*
X02714Y-01527D02*
X02715D01*
X02716Y-01526*
Y-01525*
X02715Y-01524*
X02714*
X02713Y-01525*
Y-01526*
X02714Y-01527*
X02717D02*
X02718D01*
X02718*
Y-01523*
X02717*
X02723D02*
Y-01527D01*
X02721*
X0272Y-01526*
Y-01525*
X02721Y-01524*
X02723*
X02726Y-01527D02*
X02725D01*
X02724Y-01526*
Y-01525*
X02725Y-01524*
X02726*
X02727Y-01525*
Y-01525*
X02724*
X02728Y-01524D02*
Y-01527D01*
Y-01525*
X02729Y-01525*
X0273Y-01524*
X0273*
X02736Y-01527D02*
Y-01523D01*
X02738*
X02739Y-01523*
Y-01525*
X02738Y-01525*
X02736*
X02738D02*
X02739Y-01527D01*
X02742D02*
X02741D01*
X0274Y-01526*
Y-01525*
X02741Y-01524*
X02742*
X02743Y-01525*
Y-01525*
X0274*
X02744Y-01527D02*
X02746D01*
X02747Y-01526*
X02746Y-01525*
X02745*
X02744Y-01525*
X02745Y-01524*
X02747*
X02748Y-01527D02*
X0275D01*
X02749*
Y-01524*
X02748*
X02752Y-01527D02*
X02754D01*
X02754Y-01526*
X02754Y-01525*
X02752*
X02752Y-01525*
X02752Y-01524*
X02754*
X02756Y-01523D02*
Y-01524D01*
X02756*
X02757*
X02756*
Y-01526*
X02757Y-01527*
X02777Y-01523D02*
X02778Y-01523D01*
X02779*
X0278Y-01523*
Y-01524*
X02779Y-01525*
X02778*
X02779*
X0278Y-01525*
Y-01526*
X02779Y-01527*
X02778*
X02777Y-01526*
X02781Y-01527D02*
Y-01526D01*
X02782*
Y-01527*
X02781*
X02787Y-01523D02*
X02784D01*
Y-01525*
X02786Y-01524*
X02786*
X02787Y-01525*
Y-01526*
X02786Y-01527*
X02785*
X02784Y-01526*
X02788Y-01523D02*
X02789Y-01523D01*
X0279*
X02791Y-01523*
Y-01526*
X0279Y-01527*
X02789*
X02788Y-01526*
Y-01523*
X02455Y-01498D02*
X02457D01*
X02456*
Y-01502*
X02459D02*
X02461D01*
X02461Y-01501*
Y-015*
X02461Y-01499*
X02459*
X02459Y-015*
Y-01501*
X02459Y-01502*
X02463Y-01503D02*
Y-01499D01*
X02465*
X02465Y-015*
Y-01501*
X02465Y-01502*
X02463*
X0247Y-01498D02*
Y-01502D01*
X02473*
X02475Y-01499D02*
X02476D01*
X02477Y-015*
Y-01502*
X02475*
X02474Y-01501*
X02475Y-015*
X02477*
X02478Y-01499D02*
Y-01501D01*
X02479Y-01502*
X02481*
Y-01502*
X0248Y-01503*
X0248*
X02481Y-01502D02*
Y-01499D01*
X02484Y-01502D02*
X02483D01*
X02482Y-01501*
Y-015*
X02483Y-01499*
X02484*
X02485Y-015*
Y-015*
X02482*
X02486Y-01499D02*
Y-01502D01*
Y-015*
X02487Y-015*
X02488Y-01499*
X02488*
X02544Y-01502D02*
X02542Y-015D01*
Y-01499*
X02544Y-01498*
X02546Y-01502D02*
Y-01501D01*
X02546*
Y-01502*
X02546*
X02552Y-01498D02*
X02551Y-01498D01*
X0255*
X02549Y-01498*
Y-01501*
X0255Y-01502*
X02551*
X02552Y-01501*
Y-015*
X0255*
X02553Y-01498D02*
X02556D01*
X02554*
Y-01502*
X02557Y-01498D02*
Y-01502D01*
X0256*
X02561D02*
X02562Y-015D01*
Y-01499*
X02561Y-01498*
X02594Y-01502D02*
X02595D01*
X02595*
Y-01498*
X02594Y-01498*
X02597Y-01502D02*
Y-01501D01*
X02598*
Y-01502*
X02597*
X02603D02*
Y-01498D01*
X02601Y-015*
X02603*
X02605Y-01502D02*
Y-01499D01*
X02605*
X02606Y-015*
Y-01502*
Y-015*
X02607Y-01499*
X02607Y-015*
Y-01502*
X02609D02*
X0261D01*
X02609*
Y-01499*
X02609*
X02612Y-01502D02*
X02613D01*
X02613*
Y-01498*
X02612*
X02653Y-01504D02*
X02651D01*
Y-01506*
X02652Y-01505*
X02653*
X02653Y-01506*
Y-01507*
X02653Y-01508*
X02651*
X02651Y-01507*
X02655D02*
X02655Y-01508D01*
X02657*
X02657Y-01507*
Y-01505*
X02657Y-01504*
X02655*
X02655Y-01505*
Y-01505*
X02655Y-01506*
X02657*
X02659Y-01508D02*
Y-01507D01*
X02659*
Y-01508*
X02659*
X02662Y-01505D02*
X02663Y-01504D01*
X02664*
X02665Y-01505*
Y-01507*
X02664Y-01508*
X02663*
X02662Y-01507*
Y-01505*
X02669Y-01504D02*
X02666D01*
Y-01506*
X02667Y-01505*
X02668*
X02669Y-01506*
Y-01507*
X02668Y-01508*
X02667*
X02666Y-01507*
X02673Y-01504D02*
X0267D01*
Y-01506*
X02671Y-01505*
X02672*
X02673Y-01506*
Y-01507*
X02672Y-01508*
X02671*
X0267Y-01507*
X02674Y-01508D02*
Y-01505D01*
X02675*
X02675Y-01506*
Y-01508*
Y-01506*
X02676Y-01505*
X02677Y-01506*
Y-01508*
X02678D02*
X02679D01*
X02679*
Y-01505*
X02678*
X02681Y-01508D02*
X02683D01*
X02682*
Y-01504*
X02681*
X02712D02*
X02709D01*
Y-01506*
X0271*
X02709*
Y-01508*
X02713D02*
Y-01504D01*
X02715*
X02716Y-01505*
Y-01506*
X02715Y-01507*
X02713*
X02714D02*
X02716Y-01508D01*
X02717Y-01506D02*
X0272D01*
X02723Y-01508D02*
Y-01504D01*
X02721Y-01506*
X02724*
X02779Y-01508D02*
Y-01504D01*
X02777Y-01506*
X0278*
X02781Y-01508D02*
Y-01507D01*
X02782*
Y-01508*
X02781*
X02784Y-01505D02*
X02785Y-01504D01*
X02786*
X02787Y-01505*
Y-01505*
X02786Y-01506*
X02787Y-01507*
Y-01507*
X02786Y-01508*
X02785*
X02784Y-01507*
Y-01507*
X02785Y-01506*
X02784Y-01505*
Y-01505*
X02785Y-01506D02*
X02786D01*
X02788Y-01505D02*
X02789Y-01504D01*
X0279*
X02791Y-01505*
Y-01507*
X0279Y-01508*
X02789*
X02788Y-01507*
Y-01505*
X02838D02*
X02838Y-01504D01*
X02836*
X02836Y-01505*
Y-01507*
X02836Y-01508*
X02838*
X02838Y-01507*
X0284Y-01508D02*
X02842D01*
X02842Y-01507*
Y-01506*
X02842Y-01505*
X0284*
X0284Y-01506*
Y-01507*
X0284Y-01508*
X02844Y-01505D02*
Y-01508D01*
Y-01507*
X02844Y-01506*
X02845Y-01505*
X02846*
X0285Y-01508D02*
X02848D01*
X02848Y-01507*
Y-01506*
X02848Y-01505*
X0285*
X0285Y-01506*
Y-01507*
X02848*
X02455Y-0151D02*
Y-01514D01*
X02457*
X02457Y-01513*
Y-01513*
X02457Y-01512*
X02455*
X02457*
X02457Y-01511*
Y-01511*
X02457Y-0151*
X02455*
X02459Y-01514D02*
X02461D01*
X02461Y-01513*
Y-01512*
X02461Y-01511*
X02459*
X02459Y-01512*
Y-01513*
X02459Y-01514*
X02463Y-01511D02*
Y-01511D01*
X02463*
X02464*
X02463*
Y-01513*
X02464Y-01514*
X02467Y-01511D02*
Y-01511D01*
X02466*
X02467*
X02467*
Y-01513*
X02467Y-01514*
X0247D02*
X02471D01*
X02472Y-01513*
Y-01512*
X02471Y-01511*
X0247*
X02469Y-01512*
Y-01513*
X0247Y-01514*
X02473D02*
Y-01511D01*
X02474*
X02474Y-01512*
Y-01514*
Y-01512*
X02475Y-01511*
X02476Y-01512*
Y-01514*
X02481Y-0151D02*
Y-01514D01*
X02484*
X02486Y-01511D02*
X02487D01*
X02488Y-01512*
Y-01514*
X02486*
X02485Y-01513*
X02486Y-01513*
X02488*
X02489Y-01511D02*
Y-01513D01*
X0249Y-01514*
X02492*
Y-01515*
X02491Y-01515*
X0249*
X02492Y-01514D02*
Y-01511D01*
X02495Y-01514D02*
X02494D01*
X02493Y-01513*
Y-01512*
X02494Y-01511*
X02495*
X02496Y-01512*
Y-01513*
X02493*
X02497Y-01511D02*
Y-01514D01*
Y-01513*
X02498Y-01512*
X02498Y-01511*
X02499*
X02544Y-01514D02*
X02542Y-01513D01*
Y-01511*
X02544Y-0151*
X02546Y-01514D02*
Y-01513D01*
X02546*
Y-01514*
X02546*
X02552Y-01511D02*
X02551Y-0151D01*
X0255*
X02549Y-01511*
Y-01513*
X0255Y-01514*
X02551*
X02552Y-01513*
Y-01512*
X0255*
X02553Y-0151D02*
Y-01514D01*
X02555*
X02556Y-01513*
Y-01513*
X02555Y-01512*
X02553*
X02555*
X02556Y-01511*
Y-01511*
X02555Y-0151*
X02553*
X02557D02*
Y-01514D01*
X0256*
X02561D02*
X02562Y-01513D01*
Y-01511*
X02561Y-0151*
X02594Y-01514D02*
X02595D01*
X02595*
Y-0151*
X02594Y-01511*
X02597Y-01514D02*
Y-01513D01*
X02598*
Y-01514*
X02597*
X02603D02*
Y-0151D01*
X02601Y-01512*
X02603*
X02605Y-01514D02*
Y-01511D01*
X02605*
X02606Y-01512*
Y-01514*
Y-01512*
X02607Y-01511*
X02607Y-01512*
Y-01514*
X02609D02*
X0261D01*
X02609*
Y-01511*
X02609*
X02612Y-01514D02*
X02613D01*
X02613*
Y-0151*
X02612*
G54D50*
X01008Y0009D02*
X00981D01*
Y00071*
X00995Y00077*
X01001*
X01008Y00071*
Y00057*
X01001Y00051*
X00988*
X00981Y00057*
X01041Y00051D02*
Y0009D01*
X01021Y00071*
X01048*
X01061Y00051D02*
Y00057D01*
X01068*
Y00051*
X01061*
X01121Y0009D02*
X01108Y00084D01*
X01094Y00071*
Y00057*
X01101Y00051*
X01114*
X01121Y00057*
Y00064*
X01114Y00071*
X01094*
X01134Y00051D02*
X01148D01*
X01141*
Y0009*
X01134Y00084*
X02273Y-00967D02*
X02234D01*
X02254Y-00987*
Y-0096*
X02234Y-0092D02*
Y-00947D01*
X02254*
X02247Y-00934*
Y-00927*
X02254Y-0092*
X02267*
X02273Y-00927*
Y-0094*
X02267Y-00947*
X02273Y-00907D02*
X02267D01*
Y-009*
X02273*
Y-00907*
X0224Y-00874D02*
X02234Y-00867D01*
Y-00854*
X0224Y-00847*
X02267*
X02273Y-00854*
Y-00867*
X02267Y-00874*
X0224*
X02267Y-00834D02*
X02273Y-00827D01*
Y-00814*
X02267Y-00807*
X0224*
X02234Y-00814*
Y-00827*
X0224Y-00834*
X02247*
X02254Y-00827*
Y-00807*
X00978Y-01935D02*
X00985Y-01929D01*
X00998*
X01005Y-01935*
Y-01942*
X00998Y-01949*
X00991*
X00998*
X01005Y-01955*
Y-01962*
X00998Y-01968*
X00985*
X00978Y-01962*
X01018Y-01935D02*
X01025Y-01929D01*
X01038*
X01045Y-01935*
Y-01942*
X01038Y-01949*
X01045Y-01955*
Y-01962*
X01038Y-01968*
X01025*
X01018Y-01962*
Y-01955*
X01025Y-01949*
X01018Y-01942*
Y-01935*
X01025Y-01949D02*
X01038D01*
X01058Y-01968D02*
Y-01962D01*
X01065*
Y-01968*
X01058*
X01091D02*
X01104D01*
X01098*
Y-01929*
X01091Y-01935*
X01124D02*
X01131Y-01929D01*
X01144*
X01151Y-01935*
Y-01962*
X01144Y-01968*
X01131*
X01124Y-01962*
Y-01935*
X00977Y-01873D02*
X0099D01*
X00984*
Y-01834*
X00977Y-0184*
X01037Y-01834D02*
X01024Y-0184D01*
X0101Y-01854*
Y-01867*
X01017Y-01873*
X0103*
X01037Y-01867*
Y-0186*
X0103Y-01854*
X0101*
X0105Y-01873D02*
Y-01867D01*
X01057*
Y-01873*
X0105*
X0111Y-01834D02*
X01084D01*
Y-01854*
X01097Y-01847*
X01104*
X0111Y-01854*
Y-01867*
X01104Y-01873*
X0109*
X01084Y-01867*
X01124Y-0184D02*
X0113Y-01834D01*
X01144*
X0115Y-0184*
Y-01867*
X01144Y-01873*
X0113*
X01124Y-01867*
Y-0184*
G54D51*
X02507Y-001D02*
D01*
X02506Y-00098*
X02506Y-00097*
X02506Y-00096*
X02506Y-00095*
X02506Y-00094*
X02505Y-00093*
X02505Y-00092*
X02504Y-00091*
X02503Y-0009*
X02503Y-00089*
X02502Y-00088*
X02501Y-00088*
X025Y-00087*
X02499Y-00086*
X02499Y-00086*
X02498Y-00085*
X02496Y-00085*
X02495Y-00084*
X02494Y-00084*
X02493Y-00084*
X02492Y-00084*
X02491Y-00084*
X0249*
X02489Y-00084*
X02488Y-00084*
X02487Y-00084*
X02486Y-00084*
X02485Y-00085*
X02483Y-00085*
X02483Y-00086*
X02482Y-00086*
X02481Y-00087*
X0248Y-00088*
X02479Y-00088*
X02478Y-00089*
X02478Y-0009*
X02477Y-00091*
X02476Y-00092*
X02476Y-00093*
X02475Y-00094*
X02475Y-00095*
X02475Y-00096*
X02475Y-00097*
X02475Y-00098*
X02475Y-001*
X02475Y-00101*
X02475Y-00102*
X02475Y-00103*
X02475Y-00104*
X02475Y-00105*
X02476Y-00106*
X02476Y-00107*
X02477Y-00108*
X02478Y-00109*
X02478Y-0011*
X02479Y-00111*
X0248Y-00111*
X02481Y-00112*
X02482Y-00113*
X02483Y-00113*
X02483Y-00114*
X02485Y-00114*
X02486Y-00115*
X02487Y-00115*
X02488Y-00115*
X02489Y-00115*
X0249Y-00115*
X02491*
X02492Y-00115*
X02493Y-00115*
X02494Y-00115*
X02495Y-00115*
X02496Y-00114*
X02498Y-00114*
X02499Y-00113*
X02499Y-00113*
X025Y-00112*
X02501Y-00111*
X02502Y-00111*
X02503Y-0011*
X02503Y-00109*
X02504Y-00108*
X02505Y-00107*
X02505Y-00106*
X02506Y-00105*
X02506Y-00104*
X02506Y-00103*
X02506Y-00102*
X02506Y-00101*
X02507Y-001*
M02*