G04*
G04 #@! TF.GenerationSoftware,Altium Limited,Altium Designer,18.0.7 (293)*
G04*
G04 Layer_Color=0*
%FSLAX25Y25*%
%MOIN*%
G70*
G01*
G75*
%ADD13C,0.00600*%
%ADD14C,0.00500*%
%ADD16C,0.00800*%
%ADD17C,0.00200*%
%ADD18C,0.00300*%
%ADD129C,0.00400*%
%ADD130R,0.02400X0.01181*%
%ADD131R,0.02400X0.01100*%
%ADD132R,0.02559X0.05550*%
%ADD133R,0.02600X0.05550*%
%ADD134R,0.03000X0.05750*%
%ADD135R,0.02953X0.05750*%
%ADD136R,0.01100X0.02400*%
%ADD137R,0.01181X0.02400*%
%ADD138R,0.05750X0.03000*%
%ADD139R,0.05750X0.02953*%
%ADD140R,0.04331X0.01929*%
%ADD141R,0.04331X0.01900*%
%ADD142R,0.04400X0.01900*%
%ADD143R,0.04400X0.01929*%
%ADD144R,0.05550X0.02600*%
%ADD145R,0.05550X0.02559*%
%ADD146R,0.02300X0.01800*%
%ADD147R,0.01800X0.02300*%
%ADD148R,0.04331X0.01930*%
%ADD149R,0.04331X0.01900*%
%ADD150R,0.04400X0.01930*%
%ADD151R,0.02000X0.02000*%
%ADD152R,0.03750X0.02000*%
%ADD153R,0.03750X0.01969*%
%ADD154R,0.02000X0.03750*%
%ADD155R,0.01969X0.03750*%
G36*
X332810Y261768D02*
X334000D01*
Y261158D01*
X332810D01*
Y259000D01*
X332250D01*
X329038Y261273D01*
Y261768D01*
X332250D01*
Y262442D01*
X332810D01*
Y261768D01*
D02*
G37*
G36*
X332645Y230241D02*
X332702Y230234D01*
X332767Y230219D01*
X332839Y230205D01*
X332917Y230191D01*
X333089Y230133D01*
X333183Y230090D01*
X333269Y230047D01*
X333362Y229990D01*
X333455Y229925D01*
X333548Y229854D01*
X333634Y229768D01*
X333642Y229760D01*
X333656Y229746D01*
X333677Y229717D01*
X333706Y229682D01*
X333742Y229639D01*
X333778Y229581D01*
X333821Y229517D01*
X333857Y229438D01*
X333900Y229359D01*
X333943Y229266D01*
X333979Y229172D01*
X334014Y229065D01*
X334043Y228950D01*
X334065Y228828D01*
X334079Y228707D01*
X334086Y228570D01*
Y228506D01*
X334079Y228463D01*
X334072Y228405D01*
X334065Y228341D01*
X334050Y228269D01*
X334036Y228190D01*
X333993Y228018D01*
X333921Y227839D01*
X333878Y227746D01*
X333828Y227660D01*
X333763Y227574D01*
X333699Y227488D01*
X333692Y227480D01*
X333677Y227466D01*
X333656Y227445D01*
X333627Y227423D01*
X333591Y227387D01*
X333541Y227351D01*
X333491Y227308D01*
X333426Y227265D01*
X333355Y227222D01*
X333283Y227179D01*
X333111Y227100D01*
X332910Y227036D01*
X332803Y227014D01*
X332688Y227000D01*
X332609Y227609D01*
X332616D01*
X332630Y227617D01*
X332659Y227624D01*
X332695Y227631D01*
X332738Y227638D01*
X332788Y227653D01*
X332896Y227688D01*
X333025Y227738D01*
X333147Y227803D01*
X333261Y227875D01*
X333362Y227961D01*
X333369Y227975D01*
X333398Y228004D01*
X333434Y228061D01*
X333469Y228133D01*
X333512Y228219D01*
X333548Y228327D01*
X333577Y228448D01*
X333584Y228577D01*
Y228620D01*
X333577Y228649D01*
X333570Y228728D01*
X333548Y228828D01*
X333512Y228943D01*
X333462Y229065D01*
X333390Y229187D01*
X333290Y229302D01*
X333276Y229316D01*
X333233Y229352D01*
X333168Y229395D01*
X333082Y229452D01*
X332975Y229509D01*
X332853Y229553D01*
X332709Y229588D01*
X332552Y229603D01*
X332544D01*
X332530D01*
X332509D01*
X332480Y229595D01*
X332401Y229588D01*
X332308Y229567D01*
X332193Y229538D01*
X332078Y229488D01*
X331964Y229416D01*
X331856Y229323D01*
X331842Y229309D01*
X331813Y229273D01*
X331770Y229216D01*
X331720Y229137D01*
X331670Y229036D01*
X331627Y228914D01*
X331598Y228778D01*
X331584Y228628D01*
Y228563D01*
X331591Y228513D01*
X331598Y228448D01*
X331612Y228377D01*
X331627Y228291D01*
X331648Y228197D01*
X331111Y228269D01*
Y228305D01*
X331118Y228334D01*
Y228427D01*
X331103Y228506D01*
X331089Y228599D01*
X331067Y228707D01*
X331032Y228828D01*
X330981Y228943D01*
X330917Y229065D01*
Y229072D01*
X330910Y229079D01*
X330881Y229115D01*
X330831Y229165D01*
X330766Y229223D01*
X330673Y229280D01*
X330566Y229330D01*
X330444Y229366D01*
X330372Y229380D01*
X330293D01*
X330286D01*
X330279D01*
X330236D01*
X330178Y229366D01*
X330100Y229352D01*
X330013Y229323D01*
X329920Y229287D01*
X329827Y229230D01*
X329741Y229151D01*
X329734Y229144D01*
X329705Y229108D01*
X329669Y229058D01*
X329626Y228993D01*
X329591Y228907D01*
X329555Y228807D01*
X329526Y228692D01*
X329519Y228563D01*
Y228506D01*
X329533Y228441D01*
X329547Y228355D01*
X329576Y228262D01*
X329612Y228169D01*
X329669Y228068D01*
X329741Y227975D01*
X329748Y227968D01*
X329784Y227939D01*
X329834Y227896D01*
X329906Y227846D01*
X329999Y227796D01*
X330114Y227746D01*
X330250Y227703D01*
X330408Y227674D01*
X330300Y227064D01*
X330293D01*
X330272Y227072D01*
X330243Y227079D01*
X330200Y227086D01*
X330150Y227100D01*
X330092Y227122D01*
X329956Y227165D01*
X329798Y227237D01*
X329641Y227323D01*
X329490Y227430D01*
X329354Y227566D01*
X329347Y227574D01*
X329340Y227588D01*
X329325Y227609D01*
X329304Y227638D01*
X329275Y227674D01*
X329246Y227724D01*
X329218Y227774D01*
X329182Y227839D01*
X329124Y227982D01*
X329067Y228147D01*
X329031Y228341D01*
X329017Y228441D01*
Y228620D01*
X329024Y228699D01*
X329038Y228793D01*
X329060Y228907D01*
X329096Y229036D01*
X329139Y229165D01*
X329196Y229294D01*
Y229302D01*
X329203Y229309D01*
X329225Y229352D01*
X329268Y229416D01*
X329318Y229488D01*
X329390Y229574D01*
X329469Y229660D01*
X329562Y229746D01*
X329669Y229818D01*
X329684Y229825D01*
X329719Y229847D01*
X329784Y229875D01*
X329863Y229911D01*
X329956Y229947D01*
X330064Y229976D01*
X330186Y229997D01*
X330308Y230004D01*
X330322D01*
X330365D01*
X330422Y229997D01*
X330501Y229983D01*
X330594Y229961D01*
X330695Y229925D01*
X330795Y229882D01*
X330895Y229825D01*
X330910Y229818D01*
X330938Y229796D01*
X330989Y229753D01*
X331046Y229696D01*
X331111Y229624D01*
X331182Y229538D01*
X331247Y229438D01*
X331311Y229316D01*
Y229323D01*
X331318Y229337D01*
X331326Y229359D01*
X331333Y229388D01*
X331361Y229467D01*
X331404Y229567D01*
X331462Y229682D01*
X331534Y229796D01*
X331627Y229904D01*
X331734Y230004D01*
X331749Y230011D01*
X331792Y230040D01*
X331863Y230083D01*
X331957Y230126D01*
X332071Y230169D01*
X332207Y230212D01*
X332365Y230241D01*
X332537Y230248D01*
X332544D01*
X332566D01*
X332602D01*
X332645Y230241D01*
D02*
G37*
G36*
X317000Y259007D02*
X316993D01*
X316964D01*
X316921D01*
X316864Y259014D01*
X316799Y259021D01*
X316727Y259036D01*
X316656Y259050D01*
X316577Y259079D01*
X316570D01*
X316563Y259086D01*
X316520Y259100D01*
X316455Y259129D01*
X316369Y259172D01*
X316269Y259229D01*
X316154Y259301D01*
X316039Y259380D01*
X315917Y259480D01*
X315910D01*
X315903Y259495D01*
X315860Y259531D01*
X315795Y259595D01*
X315702Y259688D01*
X315595Y259796D01*
X315466Y259932D01*
X315322Y260097D01*
X315172Y260276D01*
X315164Y260283D01*
X315143Y260312D01*
X315107Y260355D01*
X315064Y260405D01*
X315007Y260470D01*
X314942Y260549D01*
X314871Y260628D01*
X314792Y260721D01*
X314620Y260900D01*
X314447Y261079D01*
X314361Y261165D01*
X314275Y261244D01*
X314196Y261316D01*
X314118Y261373D01*
X314110D01*
X314103Y261388D01*
X314082Y261402D01*
X314053Y261416D01*
X313974Y261467D01*
X313881Y261524D01*
X313766Y261574D01*
X313644Y261624D01*
X313508Y261653D01*
X313379Y261667D01*
X313372D01*
X313365D01*
X313322Y261660D01*
X313250Y261653D01*
X313171Y261631D01*
X313071Y261603D01*
X312970Y261553D01*
X312870Y261488D01*
X312770Y261402D01*
X312755Y261388D01*
X312727Y261352D01*
X312691Y261302D01*
X312641Y261223D01*
X312598Y261122D01*
X312555Y261008D01*
X312526Y260871D01*
X312519Y260721D01*
Y260678D01*
X312526Y260649D01*
X312533Y260563D01*
X312555Y260463D01*
X312583Y260355D01*
X312633Y260233D01*
X312698Y260119D01*
X312784Y260011D01*
X312798Y259997D01*
X312834Y259968D01*
X312892Y259925D01*
X312978Y259882D01*
X313078Y259832D01*
X313207Y259789D01*
X313351Y259760D01*
X313515Y259746D01*
X313451Y259122D01*
X313444D01*
X313422Y259129D01*
X313386D01*
X313336Y259136D01*
X313279Y259151D01*
X313214Y259165D01*
X313135Y259186D01*
X313056Y259208D01*
X312884Y259265D01*
X312712Y259351D01*
X312626Y259401D01*
X312540Y259466D01*
X312461Y259531D01*
X312390Y259602D01*
X312383Y259610D01*
X312375Y259624D01*
X312354Y259645D01*
X312332Y259681D01*
X312304Y259724D01*
X312275Y259774D01*
X312239Y259832D01*
X312203Y259903D01*
X312167Y259982D01*
X312132Y260068D01*
X312103Y260161D01*
X312074Y260262D01*
X312053Y260369D01*
X312031Y260484D01*
X312024Y260606D01*
X312017Y260735D01*
Y260807D01*
X312024Y260857D01*
X312031Y260914D01*
X312038Y260986D01*
X312053Y261065D01*
X312067Y261144D01*
X312117Y261330D01*
X312189Y261517D01*
X312232Y261610D01*
X312282Y261703D01*
X312347Y261789D01*
X312418Y261868D01*
X312425Y261875D01*
X312433Y261890D01*
X312461Y261904D01*
X312490Y261932D01*
X312526Y261968D01*
X312576Y262004D01*
X312626Y262040D01*
X312691Y262083D01*
X312827Y262155D01*
X312999Y262227D01*
X313085Y262255D01*
X313186Y262269D01*
X313286Y262284D01*
X313393Y262291D01*
X313408D01*
X313444D01*
X313501Y262284D01*
X313580Y262277D01*
X313666Y262262D01*
X313766Y262234D01*
X313874Y262205D01*
X313981Y262162D01*
X313996Y262155D01*
X314032Y262140D01*
X314089Y262112D01*
X314168Y262069D01*
X314254Y262011D01*
X314361Y261940D01*
X314469Y261854D01*
X314591Y261753D01*
X314605Y261739D01*
X314648Y261703D01*
X314684Y261667D01*
X314720Y261631D01*
X314763Y261588D01*
X314820Y261531D01*
X314878Y261474D01*
X314942Y261402D01*
X315014Y261330D01*
X315093Y261244D01*
X315172Y261151D01*
X315265Y261051D01*
X315358Y260936D01*
X315458Y260821D01*
X315466Y260814D01*
X315480Y260800D01*
X315501Y260771D01*
X315530Y260735D01*
X315573Y260692D01*
X315616Y260642D01*
X315709Y260527D01*
X315817Y260405D01*
X315925Y260291D01*
X316018Y260190D01*
X316054Y260147D01*
X316089Y260111D01*
X316097Y260104D01*
X316118Y260083D01*
X316147Y260054D01*
X316190Y260018D01*
X316240Y259982D01*
X316290Y259939D01*
X316412Y259853D01*
Y262298D01*
X317000D01*
Y259007D01*
D02*
G37*
G36*
X316500Y229219D02*
X312621D01*
X312628Y229212D01*
X312657Y229176D01*
X312700Y229133D01*
X312750Y229061D01*
X312815Y228982D01*
X312886Y228882D01*
X312965Y228767D01*
X313044Y228638D01*
Y228631D01*
X313051Y228624D01*
X313080Y228581D01*
X313116Y228509D01*
X313159Y228423D01*
X313209Y228323D01*
X313259Y228215D01*
X313309Y228108D01*
X313352Y228000D01*
X312764D01*
Y228007D01*
X312750Y228022D01*
X312743Y228050D01*
X312721Y228086D01*
X312700Y228129D01*
X312671Y228179D01*
X312599Y228301D01*
X312521Y228445D01*
X312420Y228588D01*
X312305Y228738D01*
X312184Y228889D01*
X312176Y228896D01*
X312169Y228903D01*
X312148Y228925D01*
X312126Y228954D01*
X312055Y229018D01*
X311969Y229104D01*
X311868Y229190D01*
X311754Y229283D01*
X311639Y229362D01*
X311517Y229434D01*
Y229828D01*
X316500D01*
Y229219D01*
D02*
G37*
%LPC*%
G36*
X332250Y261158D02*
X330028D01*
X332250Y259595D01*
Y261158D01*
D02*
G37*
%LPD*%
D13*
X316500Y236500D02*
G03*
X316500Y236500I-2000J0D01*
G01*
Y253500D02*
G03*
X316500Y253500I-2000J0D01*
G01*
X333000D02*
G03*
X333000Y253500I-2000J0D01*
G01*
X333500Y236500D02*
G03*
X333500Y236500I-2000J0D01*
G01*
X206000Y67000D02*
G03*
X206000Y67000I-4000J0D01*
G01*
X336900Y184035D02*
Y186000D01*
X335118Y184035D02*
Y186000D01*
X356386Y198500D02*
X359700D01*
X356386Y203500D02*
X359700D01*
X370300Y167000D02*
X373614D01*
X370300Y162000D02*
X373614D01*
X73886Y191500D02*
X77200D01*
X73886Y186500D02*
X77200D01*
X73886Y210500D02*
X77200D01*
X73886Y205500D02*
X77200D01*
X295800Y42000D02*
X299114D01*
X295800Y47000D02*
X299114D01*
X73386Y252500D02*
X76700D01*
X73386Y247500D02*
X76700D01*
X73386Y241500D02*
X76700D01*
X73386Y236500D02*
X76700D01*
X73105Y231000D02*
X76419D01*
X73105Y226000D02*
X76419D01*
X369300Y156500D02*
X372614D01*
X369300Y151500D02*
X372614D01*
X357188Y148457D02*
X359152D01*
X357188Y146675D02*
X359152D01*
X325000Y147118D02*
X326965D01*
X325000Y148900D02*
X326965D01*
X272000Y75618D02*
X273965D01*
X272000Y77400D02*
X273965D01*
X319118Y68535D02*
Y70500D01*
X320900Y68535D02*
Y70500D01*
X285382Y76500D02*
Y78465D01*
X283600Y76500D02*
Y78465D01*
X328882Y137035D02*
Y139000D01*
X327100Y137035D02*
Y139000D01*
X345535Y121618D02*
X347500D01*
X345535Y123400D02*
X347500D01*
X195035Y141882D02*
X197000D01*
X195035Y140100D02*
X197000D01*
X193535Y113882D02*
X195500D01*
X193535Y112100D02*
X195500D01*
X193035Y160882D02*
X195000D01*
X193035Y159100D02*
X195000D01*
X203118Y115035D02*
Y117000D01*
X204900Y115035D02*
Y117000D01*
X213618Y114535D02*
Y116500D01*
X215400Y114535D02*
Y116500D01*
X225118Y114535D02*
Y116500D01*
X226900Y114535D02*
Y116500D01*
X244000Y112118D02*
X245965D01*
X244000Y113900D02*
X245965D01*
X223382Y174500D02*
Y176465D01*
X221600Y174500D02*
Y176465D01*
X191382Y173000D02*
Y174965D01*
X189600Y173000D02*
Y174965D01*
X155886Y131000D02*
X159200D01*
X155886Y126000D02*
X159200D01*
X80300Y78058D02*
X83614D01*
X80300Y83059D02*
X83614D01*
X429300Y10500D02*
X432614D01*
X429300Y15500D02*
X432614D01*
X70000Y113300D02*
Y116614D01*
X65000Y113300D02*
Y116614D01*
X82386Y101709D02*
X85700D01*
X82386Y96709D02*
X85700D01*
X51300Y115000D02*
X54614D01*
X51300Y120000D02*
X54614D01*
X51300Y97000D02*
X54614D01*
X51300Y102000D02*
X54614D01*
X70000Y99300D02*
Y102614D01*
X65000Y99300D02*
Y102614D01*
X413300Y64500D02*
X416614D01*
X413300Y69500D02*
X416614D01*
X415351Y48300D02*
Y51614D01*
X410351Y48300D02*
Y51614D01*
X410000Y78886D02*
Y82200D01*
X415000Y78886D02*
Y82200D01*
X400500Y78886D02*
Y82200D01*
X405500Y78886D02*
Y82200D01*
X397300Y64500D02*
X400614D01*
X397300Y69500D02*
X400614D01*
X91400Y115100D02*
X96600D01*
Y103900D02*
Y115100D01*
X91400Y103900D02*
X96600D01*
X91400D02*
Y115100D01*
X408100Y36400D02*
Y41600D01*
X396900Y36400D02*
X408100D01*
X396900D02*
Y41600D01*
X408100D01*
X321000Y235500D02*
X324500Y236500D01*
X325000Y235500D02*
X328000D01*
X318000D02*
X321000D01*
X314000Y240000D02*
Y250000D01*
X331500Y240000D02*
Y250000D01*
X311000Y253500D02*
Y255000D01*
Y235000D02*
Y236500D01*
X335000Y235000D02*
Y236500D01*
Y253500D02*
Y255000D01*
X327000Y233000D02*
X333000D01*
X335000Y235000D01*
X313000Y233000D02*
X319000D01*
X311000Y235000D02*
X313000Y233000D01*
X327000Y257000D02*
X333000D01*
X335000Y255000D01*
X311000D02*
X313000Y257000D01*
X319000D01*
X238000Y81882D02*
X239965D01*
X238000Y80100D02*
X239965D01*
X292386Y221500D02*
X295700D01*
X292386Y226500D02*
X295700D01*
X273300D02*
X276614D01*
X273300Y221500D02*
X276614D01*
X327800Y223000D02*
X331114D01*
X327800Y218000D02*
X331114D01*
X255300Y226500D02*
X258614D01*
X255300Y221500D02*
X258614D01*
X237886D02*
X241200D01*
X237886Y226500D02*
X241200D01*
X219800D02*
X223114D01*
X219800Y221500D02*
X223114D01*
X201300Y226000D02*
X204614D01*
X201300Y221000D02*
X204614D01*
X184386D02*
X187700D01*
X184386Y226000D02*
X187700D01*
X166386Y221000D02*
X169700D01*
X166386Y226000D02*
X169700D01*
X431000Y253386D02*
Y256700D01*
X426000Y253386D02*
Y256700D01*
X421300Y229500D02*
X424614D01*
X421300Y224500D02*
X424614D01*
X421300Y220000D02*
X424614D01*
X421300Y215000D02*
X424614D01*
X203500Y65000D02*
Y67000D01*
X205000D01*
X200500Y65000D02*
Y67000D01*
X199000D02*
X200500D01*
Y69000D01*
X203500Y67000D02*
Y69000D01*
X202500Y65000D02*
Y69000D01*
X201500Y65000D02*
X202500D01*
X201500D02*
Y69000D01*
X202500D01*
X356000Y244800D02*
Y247800D01*
X354500Y246300D02*
X357500D01*
X360400Y239400D02*
X364900Y234900D01*
X347100D02*
X351600Y239400D01*
X347100Y221600D02*
Y239400D01*
Y221600D02*
X364900D01*
Y239400D01*
X347100D02*
X364900D01*
X253382Y61035D02*
Y63000D01*
X251600Y61035D02*
Y63000D01*
X222515Y62000D02*
Y63965D01*
X224297Y62000D02*
Y63965D01*
X313700Y220382D02*
X315664D01*
X313700Y218600D02*
X315664D01*
X195000Y59882D02*
X196965D01*
X195000Y58100D02*
X196965D01*
X207835Y58118D02*
X209799D01*
X207835Y59900D02*
X209799D01*
X254000Y117618D02*
X255965D01*
X254000Y119400D02*
X255965D01*
X248382Y173500D02*
Y175465D01*
X246600Y173500D02*
Y175465D01*
X258882Y173500D02*
Y175465D01*
X257100Y173500D02*
Y175465D01*
X253000Y147118D02*
X254965D01*
X253000Y148900D02*
X254965D01*
X254000Y123618D02*
X255965D01*
X254000Y125400D02*
X255965D01*
D14*
X227648Y76468D02*
G03*
X227648Y76468I-400J0D01*
G01*
X228350Y77649D02*
X248500D01*
X228350Y46912D02*
Y77649D01*
Y46912D02*
X248500D01*
Y77649D01*
X419300Y210000D02*
X425650D01*
D16*
X67988Y54500D02*
X81000D01*
X66020D02*
X67988D01*
X66020D02*
Y73449D01*
X67988D01*
X81000D01*
Y54500D02*
Y73449D01*
X67988Y54500D02*
Y73449D01*
X397488Y8000D02*
X410500D01*
X395520D02*
X397488D01*
X395520D02*
Y26949D01*
X397488D01*
X410500D01*
Y8000D02*
Y26949D01*
X397488Y8000D02*
Y26949D01*
X386988Y220500D02*
X400000D01*
X385020D02*
X386988D01*
X385020D02*
Y239449D01*
X386988D01*
X400000D01*
Y220500D02*
Y239449D01*
X386988Y220500D02*
Y239449D01*
D17*
X325500Y245000D02*
G03*
X325500Y245000I-2500J0D01*
G01*
X318000Y240000D02*
Y250000D01*
X328000D01*
Y240000D02*
Y250000D01*
X318000Y240000D02*
X328000D01*
D18*
X425846Y208400D02*
Y211575D01*
X419100Y208400D02*
Y211575D01*
D129*
X370598Y172902D02*
X373500D01*
X370500Y178100D02*
X373500D01*
X54500Y189100D02*
X57500D01*
X54598Y183902D02*
X57500D01*
X362598Y116000D02*
Y118902D01*
X357400Y116000D02*
Y119000D01*
X336098Y116500D02*
Y119402D01*
X330900Y116500D02*
Y119500D01*
X251500Y159902D02*
X254402D01*
X251500Y165100D02*
X254500D01*
X204098Y170500D02*
Y173402D01*
X198900Y170500D02*
Y173500D01*
X370850Y233000D02*
Y235902D01*
X374300Y233000D02*
Y235902D01*
X403598Y245850D02*
X406500D01*
X403598Y249300D02*
X406500D01*
X415902Y253500D02*
Y256402D01*
X421100Y253500D02*
Y256500D01*
D130*
X336000Y183410D02*
D03*
X320001Y67909D02*
D03*
X284499Y79089D02*
D03*
X328001Y136409D02*
D03*
X204000Y114409D02*
D03*
X214500Y113909D02*
D03*
X226000D02*
D03*
X222499Y177089D02*
D03*
X190499Y175589D02*
D03*
X252499Y60409D02*
D03*
X223397Y64591D02*
D03*
X247501Y176089D02*
D03*
X257999Y176087D02*
D03*
D131*
X336000Y186650D02*
D03*
X320000Y71150D02*
D03*
X284500Y75850D02*
D03*
X328000Y139650D02*
D03*
X204000Y117650D02*
D03*
X214500Y117150D02*
D03*
X226000D02*
D03*
X222500Y173850D02*
D03*
X190500Y172350D02*
D03*
X252500Y63650D02*
D03*
X223398Y61350D02*
D03*
X247500Y172850D02*
D03*
X258000D02*
D03*
D132*
X355080Y201025D02*
D03*
X374921Y164475D02*
D03*
X72579Y189025D02*
D03*
Y208025D02*
D03*
X300420Y44475D02*
D03*
X72079Y250025D02*
D03*
Y239025D02*
D03*
X71798Y228525D02*
D03*
X373920Y153975D02*
D03*
X154580Y128525D02*
D03*
X84921Y80533D02*
D03*
X433920Y12974D02*
D03*
X81080Y99234D02*
D03*
X55920Y117475D02*
D03*
Y99475D02*
D03*
X417920Y66974D02*
D03*
X401920Y66974D02*
D03*
X291080Y224025D02*
D03*
X277921Y223975D02*
D03*
X332420Y220475D02*
D03*
X259921Y223975D02*
D03*
X236580Y224025D02*
D03*
X224420Y223975D02*
D03*
X205921Y223475D02*
D03*
X183080Y223525D02*
D03*
X165079D02*
D03*
X425920Y226975D02*
D03*
Y217475D02*
D03*
D133*
X360900Y201025D02*
D03*
X369100Y164475D02*
D03*
X78400Y189025D02*
D03*
Y208025D02*
D03*
X294600Y44475D02*
D03*
X77900Y250025D02*
D03*
Y239025D02*
D03*
X77619Y228525D02*
D03*
X368100Y153975D02*
D03*
X160400Y128525D02*
D03*
X79100Y80533D02*
D03*
X428100Y12975D02*
D03*
X86900Y99234D02*
D03*
X50100Y117475D02*
D03*
Y99475D02*
D03*
X412100Y66975D02*
D03*
X396100D02*
D03*
X296900Y224025D02*
D03*
X272100Y223975D02*
D03*
X326600Y220475D02*
D03*
X254100Y223975D02*
D03*
X242400Y224025D02*
D03*
X218600Y223975D02*
D03*
X200100Y223475D02*
D03*
X188900Y223525D02*
D03*
X170900D02*
D03*
X420100Y226975D02*
D03*
Y217475D02*
D03*
D134*
X374900Y175525D02*
D03*
X58900Y186525D02*
D03*
X250100Y162525D02*
D03*
D135*
X369177Y175525D02*
D03*
X53177Y186525D02*
D03*
X255823Y162525D02*
D03*
D136*
X359802Y147575D02*
D03*
X324350Y148000D02*
D03*
X271350Y76500D02*
D03*
X348150Y122500D02*
D03*
X197650Y141000D02*
D03*
X196150Y113000D02*
D03*
X195650Y160000D02*
D03*
X243350Y113000D02*
D03*
X237350Y81000D02*
D03*
X313050Y219500D02*
D03*
X194350Y59000D02*
D03*
X210449D02*
D03*
X253350Y118500D02*
D03*
X252350Y148000D02*
D03*
X253350Y124500D02*
D03*
D137*
X356562Y147575D02*
D03*
X327590Y148001D02*
D03*
X274590Y76501D02*
D03*
X344910Y122500D02*
D03*
X194410Y141000D02*
D03*
X192910Y113000D02*
D03*
X192410Y159999D02*
D03*
X246591Y113001D02*
D03*
X240591Y80998D02*
D03*
X316290Y219500D02*
D03*
X197588Y59000D02*
D03*
X207211Y59000D02*
D03*
X256590Y118501D02*
D03*
X255590Y148001D02*
D03*
X256591Y124499D02*
D03*
D138*
X359975Y114600D02*
D03*
X333475Y115100D02*
D03*
X201475Y169100D02*
D03*
X418525Y252100D02*
D03*
D139*
X359975Y120323D02*
D03*
X333475Y120823D02*
D03*
X201475Y174823D02*
D03*
X418525Y257823D02*
D03*
D140*
X63461Y71500D02*
D03*
Y66500D02*
D03*
X392961Y25000D02*
D03*
Y20000D02*
D03*
D141*
X63461Y61448D02*
D03*
Y56447D02*
D03*
X392963Y14951D02*
D03*
Y9951D02*
D03*
D142*
X83600Y56450D02*
D03*
Y61450D02*
D03*
X413100Y9950D02*
D03*
Y14950D02*
D03*
X402600Y222450D02*
D03*
Y227450D02*
D03*
D143*
X83602Y66501D02*
D03*
Y71500D02*
D03*
X413099Y20002D02*
D03*
Y25002D02*
D03*
D144*
X67525Y112100D02*
D03*
Y98100D02*
D03*
X412876Y47100D02*
D03*
X412475Y83400D02*
D03*
X402975D02*
D03*
X428475Y257900D02*
D03*
D145*
X67525Y117919D02*
D03*
Y103919D02*
D03*
X412876Y52919D02*
D03*
X412474Y77579D02*
D03*
X402974D02*
D03*
X428477Y252079D02*
D03*
D146*
X90050Y109500D02*
D03*
X97950Y113200D02*
D03*
Y105800D02*
D03*
D147*
X402500Y42950D02*
D03*
X406200Y35050D02*
D03*
X398800D02*
D03*
D148*
X382460Y237498D02*
D03*
Y232498D02*
D03*
D149*
Y227448D02*
D03*
Y222448D02*
D03*
D150*
X402600Y232500D02*
D03*
Y237500D02*
D03*
D151*
X118000Y19000D02*
D03*
X128000D02*
D03*
X108000D02*
D03*
X118000Y29000D02*
D03*
X128000D02*
D03*
X108000D02*
D03*
D152*
X372525Y232200D02*
D03*
D153*
X372525Y236813D02*
D03*
D154*
X407300Y247525D02*
D03*
D155*
X402684D02*
D03*
M02*
