G04*
G04 #@! TF.GenerationSoftware,Altium Limited,Altium Designer,18.0.7 (293)*
G04*
G04 Layer_Color=32768*
%FSLAX25Y25*%
%MOIN*%
G70*
G01*
G75*
%ADD14C,0.00200*%
D14*
X215232Y189400D02*
X230800D01*
Y181630D02*
Y189400D01*
X215232Y181630D02*
X230800D01*
X215232D02*
Y189400D01*
X196200Y182100D02*
X211768D01*
X196200D02*
Y189870D01*
X211768D01*
Y182100D02*
Y189870D01*
X178200Y182100D02*
X193768D01*
X178200D02*
Y189870D01*
X193768D01*
Y182100D02*
Y189870D01*
X160732Y189900D02*
X176300D01*
Y182130D02*
Y189900D01*
X160732Y182130D02*
X176300D01*
X160732D02*
Y189900D01*
X142700Y182100D02*
X158268D01*
X142700D02*
Y189870D01*
X158268D01*
Y182100D02*
Y189870D01*
X124200Y181600D02*
X139768D01*
X124200D02*
Y189370D01*
X139768D01*
Y181600D02*
Y189370D01*
X89232Y189400D02*
X104800D01*
Y181630D02*
Y189400D01*
X89232Y181630D02*
X104800D01*
X89232D02*
Y189400D01*
X107232D02*
X122800D01*
Y181630D02*
Y189400D01*
X107232Y181630D02*
X122800D01*
X107232D02*
Y189400D01*
X218401Y5630D02*
Y13400D01*
Y5630D02*
X233969D01*
Y13400D01*
X218401D02*
X233969D01*
X223100Y19232D02*
X230870D01*
Y34800D01*
X223100D02*
X230870D01*
X223100Y19232D02*
Y34800D01*
X136200Y129603D02*
X147799D01*
X136200D02*
Y133504D01*
X147799D01*
Y129603D02*
Y133504D01*
X135201Y104500D02*
X146800D01*
Y100598D02*
Y104500D01*
X135201Y100598D02*
X146800D01*
X135201D02*
Y104500D01*
X158501Y142700D02*
Y154299D01*
X154599Y142700D02*
X158501D01*
X154599D02*
Y154299D01*
X158501D01*
X136000Y142700D02*
Y154299D01*
X132098Y142700D02*
X136000D01*
X132098D02*
Y154299D01*
X136000D01*
X250700Y178600D02*
X266268D01*
X250700D02*
Y186370D01*
X266268D01*
Y178600D02*
Y186370D01*
X237900Y179500D02*
X249499D01*
X237900D02*
Y183402D01*
X249499D01*
Y179500D02*
Y183402D01*
X170100Y151263D02*
Y166831D01*
X177870D01*
Y151263D02*
Y166831D01*
X170100Y151263D02*
X177870D01*
X328201Y213400D02*
X339800D01*
Y205630D02*
Y213400D01*
X328201Y205630D02*
X339800D01*
X328201D02*
Y213400D01*
X305400Y190700D02*
Y202299D01*
X297630Y190700D02*
X305400D01*
X297630D02*
Y202299D01*
X305400D01*
X181500Y99701D02*
Y111300D01*
X177598D02*
X181500D01*
X177598Y99701D02*
Y111300D01*
Y99701D02*
X181500D01*
X217232Y72400D02*
X232800D01*
X217232Y64630D02*
X232800D01*
X217232D02*
Y72400D01*
X232800Y64630D02*
Y72400D01*
X175701Y133500D02*
X187300D01*
Y137402D01*
X175701D02*
X187300D01*
X175701Y133500D02*
Y137402D01*
X179200Y95000D02*
X190799D01*
X179200Y91098D02*
Y95000D01*
Y91098D02*
X190799D01*
Y95000D01*
X183000Y113701D02*
Y125300D01*
X179098D02*
X183000D01*
X179098Y113701D02*
Y125300D01*
Y113701D02*
X183000D01*
X221000Y130200D02*
Y141799D01*
Y130200D02*
X224902D01*
Y141799D01*
X221000D02*
X224902D01*
X216200Y96000D02*
X227799D01*
X216200Y92098D02*
Y96000D01*
Y92098D02*
X227799D01*
Y96000D01*
X353600Y209232D02*
Y224800D01*
X361370D01*
Y209232D02*
Y224800D01*
X353600Y209232D02*
X361370D01*
X344200Y185100D02*
X359768D01*
X344200D02*
Y192870D01*
X359768D01*
Y185100D02*
Y192870D01*
X344200Y175600D02*
X359768D01*
X344200D02*
Y183370D01*
X359768D01*
Y175600D02*
Y183370D01*
X158000Y112063D02*
Y120000D01*
X161902D01*
Y112063D02*
Y120000D01*
X158000Y112063D02*
X161902D01*
X351400Y209200D02*
Y224768D01*
X343630Y209200D02*
Y224768D01*
X351400D01*
X343630Y209200D02*
X351400D01*
M02*
