G04*
G04 #@! TF.GenerationSoftware,Altium Limited,Altium Designer,18.0.7 (293)*
G04*
G04 Layer_Color=8388736*
%FSLAX25Y25*%
%MOIN*%
G70*
G01*
G75*
%ADD51R,0.06000X0.06800*%
%ADD52R,0.04400X0.03600*%
%ADD53R,0.03600X0.04400*%
%ADD54C,0.02257*%
%ADD55R,0.06312X0.05524*%
%ADD56R,0.06700X0.04000*%
%ADD57R,0.08300X0.06300*%
%ADD58R,0.06300X0.07900*%
%ADD59R,0.04147X0.01981*%
%ADD60R,0.01981X0.04147*%
%ADD61R,0.14186X0.14186*%
%ADD62R,0.05131X0.06312*%
%ADD63R,0.06312X0.05131*%
%ADD64R,0.06800X0.06000*%
%ADD65R,0.01981X0.06607*%
%ADD66R,0.06607X0.01981*%
%ADD67R,0.04800X0.06400*%
%ADD68R,0.06400X0.04800*%
%ADD69R,0.05600X0.07900*%
%ADD70R,0.04737X0.05918*%
%ADD71R,0.05200X0.04800*%
%ADD72R,0.04800X0.05200*%
%ADD73R,0.04200X0.03600*%
%ADD74R,0.03200X0.03600*%
%ADD75R,0.09500X0.03200*%
%ADD76R,0.08300X0.08300*%
%ADD77R,0.08300X0.07900*%
%ADD78R,0.07100X0.09100*%
%ADD79R,0.06200X0.02400*%
%ADD80R,0.03800X0.10500*%
%ADD81C,0.06400*%
%ADD82P,0.06711X8X202.5*%
%ADD83O,0.06800X0.12800*%
%ADD84C,0.05600*%
%ADD85C,0.19540*%
%ADD86R,0.07453X0.07453*%
%ADD87C,0.07453*%
%ADD88C,0.07800*%
%ADD89C,0.03162*%
D51*
X361800Y201000D02*
D03*
X354260D02*
D03*
X419200Y217500D02*
D03*
Y227000D02*
D03*
X368260Y175500D02*
D03*
X375800D02*
D03*
X375740Y164500D02*
D03*
X368200D02*
D03*
X71760Y189000D02*
D03*
X79300D02*
D03*
X71760Y208000D02*
D03*
X79300D02*
D03*
X301240Y44500D02*
D03*
X293700D02*
D03*
X71260Y250000D02*
D03*
X78800D02*
D03*
X71260Y239000D02*
D03*
X78800D02*
D03*
X70979Y228500D02*
D03*
X78519D02*
D03*
X52260Y186500D02*
D03*
X59800D02*
D03*
X374740Y154000D02*
D03*
X367200D02*
D03*
X161300Y128500D02*
D03*
X153760D02*
D03*
X78200Y80559D02*
D03*
X85740D02*
D03*
X427200Y13000D02*
D03*
X434740D02*
D03*
X87800Y99209D02*
D03*
X80260D02*
D03*
X49200Y117500D02*
D03*
X56740D02*
D03*
X49200Y99500D02*
D03*
X56740D02*
D03*
X411200Y67000D02*
D03*
X418740D02*
D03*
X395200D02*
D03*
X402740D02*
D03*
X290260Y224000D02*
D03*
X297800D02*
D03*
X278740D02*
D03*
X271200D02*
D03*
X260740D02*
D03*
X253200D02*
D03*
X235760D02*
D03*
X243300D02*
D03*
X225240D02*
D03*
X217700D02*
D03*
X206740Y223500D02*
D03*
X199200D02*
D03*
X164260D02*
D03*
X171800D02*
D03*
X182260D02*
D03*
X189800D02*
D03*
X333240Y220500D02*
D03*
X325700D02*
D03*
X426740Y227000D02*
D03*
Y217500D02*
D03*
D52*
X328000Y135441D02*
D03*
Y140600D02*
D03*
X223397Y65559D02*
D03*
Y60400D02*
D03*
X252500Y59441D02*
D03*
Y64600D02*
D03*
D53*
X343941Y122500D02*
D03*
X349100D02*
D03*
X206240Y59000D02*
D03*
X211399D02*
D03*
X198559D02*
D03*
X193400D02*
D03*
X317259Y219500D02*
D03*
X312100D02*
D03*
D54*
X290126Y79374D02*
D03*
X294063D02*
D03*
X298000D02*
D03*
X301937D02*
D03*
X305874D02*
D03*
X290126Y75437D02*
D03*
X294063D02*
D03*
X298000D02*
D03*
X301937D02*
D03*
X305874D02*
D03*
X290126Y71500D02*
D03*
X294063D02*
D03*
X298000D02*
D03*
X301937D02*
D03*
X305874D02*
D03*
X290126Y67563D02*
D03*
X294063D02*
D03*
X298000D02*
D03*
X301937D02*
D03*
X305874D02*
D03*
X290126Y63626D02*
D03*
X294063D02*
D03*
X298000D02*
D03*
X301937D02*
D03*
D55*
X341500Y142500D02*
D03*
Y134500D02*
D03*
X349500D02*
D03*
Y142500D02*
D03*
D56*
X17922Y220524D02*
D03*
X19522Y224823D02*
D03*
X17922Y229123D02*
D03*
X17122Y233423D02*
D03*
X17922Y237723D02*
D03*
X17122Y242023D02*
D03*
X17922Y246323D02*
D03*
Y250623D02*
D03*
D57*
X3950Y201150D02*
D03*
X6790Y253290D02*
D03*
D58*
X59800Y246950D02*
D03*
Y224450D02*
D03*
D59*
X354146Y159110D02*
D03*
Y161079D02*
D03*
Y163047D02*
D03*
Y165016D02*
D03*
Y166984D02*
D03*
Y168953D02*
D03*
Y170921D02*
D03*
Y172890D02*
D03*
X334854D02*
D03*
Y170921D02*
D03*
Y168953D02*
D03*
Y166984D02*
D03*
Y165016D02*
D03*
Y163047D02*
D03*
Y161079D02*
D03*
Y159110D02*
D03*
D60*
X351390Y175646D02*
D03*
X349421D02*
D03*
X347453D02*
D03*
X345484D02*
D03*
X343516D02*
D03*
X341547D02*
D03*
X339579D02*
D03*
X337610D02*
D03*
Y156354D02*
D03*
X339579D02*
D03*
X341547D02*
D03*
X343516D02*
D03*
X345484D02*
D03*
X347453D02*
D03*
X349421D02*
D03*
X351390D02*
D03*
D61*
X344500Y166000D02*
D03*
D62*
X76547Y107500D02*
D03*
X82453D02*
D03*
X82453Y117000D02*
D03*
X76547D02*
D03*
D63*
X402500Y55953D02*
D03*
Y50047D02*
D03*
X393500Y52047D02*
D03*
Y57953D02*
D03*
D64*
X67500Y111200D02*
D03*
Y118740D02*
D03*
Y97200D02*
D03*
Y104740D02*
D03*
X412851Y46200D02*
D03*
Y53740D02*
D03*
X412500Y84300D02*
D03*
Y76760D02*
D03*
X403000Y84300D02*
D03*
Y76760D02*
D03*
X428500Y251260D02*
D03*
Y258800D02*
D03*
X418500Y258740D02*
D03*
Y251200D02*
D03*
D65*
X190551Y102724D02*
D03*
X192520D02*
D03*
X194488D02*
D03*
X196457D02*
D03*
X198425D02*
D03*
X200394D02*
D03*
X202362D02*
D03*
X204331D02*
D03*
X206299D02*
D03*
X208268D02*
D03*
X210236D02*
D03*
X212205D02*
D03*
X214173D02*
D03*
X216142D02*
D03*
X218110D02*
D03*
X220079D02*
D03*
X222047D02*
D03*
X224016D02*
D03*
X225984D02*
D03*
X227953D02*
D03*
X229921D02*
D03*
X231890D02*
D03*
X233858D02*
D03*
X235827D02*
D03*
X237795D02*
D03*
X239764D02*
D03*
X241732D02*
D03*
X243701D02*
D03*
X245669D02*
D03*
X247638D02*
D03*
X249606D02*
D03*
X251575D02*
D03*
X253543D02*
D03*
X255512D02*
D03*
X257480D02*
D03*
X259449D02*
D03*
Y187276D02*
D03*
X257480D02*
D03*
X255512D02*
D03*
X253543D02*
D03*
X251575D02*
D03*
X249606D02*
D03*
X247638D02*
D03*
X245669D02*
D03*
X243701D02*
D03*
X241732D02*
D03*
X239764D02*
D03*
X237795D02*
D03*
X235827D02*
D03*
X233858D02*
D03*
X231890D02*
D03*
X229921D02*
D03*
X227953D02*
D03*
X225984D02*
D03*
X224016D02*
D03*
X222047D02*
D03*
X220079D02*
D03*
X218110D02*
D03*
X216142D02*
D03*
X214173D02*
D03*
X212205D02*
D03*
X210236D02*
D03*
X208268D02*
D03*
X206299D02*
D03*
X204331D02*
D03*
X202362D02*
D03*
X200394D02*
D03*
X198425D02*
D03*
X196457D02*
D03*
X194488D02*
D03*
X192520D02*
D03*
X190551D02*
D03*
D66*
X267276Y110551D02*
D03*
Y112520D02*
D03*
Y114488D02*
D03*
Y116457D02*
D03*
Y118425D02*
D03*
Y120394D02*
D03*
Y122362D02*
D03*
Y124331D02*
D03*
Y126299D02*
D03*
Y128268D02*
D03*
Y130236D02*
D03*
Y132205D02*
D03*
Y134173D02*
D03*
Y136142D02*
D03*
Y138110D02*
D03*
Y140079D02*
D03*
Y142047D02*
D03*
Y144016D02*
D03*
Y145984D02*
D03*
Y147953D02*
D03*
Y149921D02*
D03*
Y151890D02*
D03*
Y153858D02*
D03*
Y155827D02*
D03*
Y157795D02*
D03*
Y159764D02*
D03*
Y161732D02*
D03*
Y163701D02*
D03*
Y165669D02*
D03*
Y167638D02*
D03*
Y169606D02*
D03*
Y171575D02*
D03*
Y173543D02*
D03*
Y175512D02*
D03*
Y177480D02*
D03*
Y179449D02*
D03*
X182724D02*
D03*
Y177480D02*
D03*
Y175512D02*
D03*
Y173543D02*
D03*
Y171575D02*
D03*
Y169606D02*
D03*
Y167638D02*
D03*
Y165669D02*
D03*
Y163701D02*
D03*
Y161732D02*
D03*
Y159764D02*
D03*
Y157795D02*
D03*
Y155827D02*
D03*
Y153858D02*
D03*
Y151890D02*
D03*
Y149921D02*
D03*
Y147953D02*
D03*
Y145984D02*
D03*
Y144016D02*
D03*
Y142047D02*
D03*
Y140079D02*
D03*
Y138110D02*
D03*
Y136142D02*
D03*
Y134173D02*
D03*
Y132205D02*
D03*
Y130236D02*
D03*
Y128268D02*
D03*
Y126299D02*
D03*
Y124331D02*
D03*
Y122362D02*
D03*
Y120394D02*
D03*
Y118425D02*
D03*
Y116457D02*
D03*
Y114488D02*
D03*
Y112520D02*
D03*
Y110551D02*
D03*
D67*
X398760Y34669D02*
D03*
X406300D02*
D03*
X402500Y43400D02*
D03*
D68*
X98331Y105760D02*
D03*
Y113300D02*
D03*
X89600Y109500D02*
D03*
D69*
X233900Y70112D02*
D03*
Y54412D02*
D03*
X243400Y70112D02*
D03*
Y54412D02*
D03*
D70*
X415350Y157000D02*
D03*
X421650D02*
D03*
X34850Y44500D02*
D03*
X41150D02*
D03*
D71*
X401653Y247500D02*
D03*
X408400D02*
D03*
D72*
X372500Y237846D02*
D03*
Y231100D02*
D03*
D73*
X425551Y210000D02*
D03*
X419400D02*
D03*
D74*
X240968Y81000D02*
D03*
X237000D02*
D03*
D75*
X413300Y10000D02*
D03*
Y15000D02*
D03*
Y25000D02*
D03*
X392764Y10000D02*
D03*
Y15000D02*
D03*
Y25000D02*
D03*
X413300Y20000D02*
D03*
X392764D02*
D03*
X83800Y56500D02*
D03*
Y61500D02*
D03*
Y71500D02*
D03*
X63264Y56500D02*
D03*
Y61500D02*
D03*
Y71500D02*
D03*
X83800Y66500D02*
D03*
X63264D02*
D03*
X402800Y222500D02*
D03*
Y227500D02*
D03*
Y237500D02*
D03*
X382264Y222500D02*
D03*
Y227500D02*
D03*
Y237500D02*
D03*
X402800Y232500D02*
D03*
X382264D02*
D03*
D76*
X454689Y227800D02*
D03*
Y218276D02*
D03*
D77*
Y238800D02*
D03*
Y207252D02*
D03*
D78*
X444650Y235300D02*
D03*
Y210795D02*
D03*
D79*
X444177Y228200D02*
D03*
Y225600D02*
D03*
Y223000D02*
D03*
Y220480D02*
D03*
Y217882D02*
D03*
D80*
X356000Y223900D02*
D03*
Y237100D02*
D03*
D81*
X282500Y257500D02*
D03*
Y247500D02*
D03*
X272500Y257500D02*
D03*
Y247500D02*
D03*
X262500Y257500D02*
D03*
Y247500D02*
D03*
X252500Y257500D02*
D03*
Y247500D02*
D03*
X242500Y257500D02*
D03*
Y247500D02*
D03*
X232500Y257500D02*
D03*
Y247500D02*
D03*
X222500Y257500D02*
D03*
Y247500D02*
D03*
X212500Y257500D02*
D03*
Y247500D02*
D03*
X202500Y257500D02*
D03*
Y247500D02*
D03*
X192500Y257500D02*
D03*
Y247500D02*
D03*
D82*
X128000Y29000D02*
D03*
Y19000D02*
D03*
X118000Y29000D02*
D03*
Y19000D02*
D03*
X108000Y29000D02*
D03*
Y19000D02*
D03*
D83*
X331900Y257800D02*
D03*
X314100D02*
D03*
X331900Y232200D02*
D03*
X314100D02*
D03*
D84*
X197000Y67000D02*
D03*
X207000D02*
D03*
D85*
X26507Y171693D02*
D03*
Y73307D02*
D03*
X439098Y32807D02*
D03*
Y131193D02*
D03*
D86*
X32097Y100689D02*
D03*
X433508Y103811D02*
D03*
D87*
X20916Y106142D02*
D03*
X32097Y111594D02*
D03*
X20916Y117047D02*
D03*
X32097Y122500D02*
D03*
X20916Y127953D02*
D03*
X32097Y133405D02*
D03*
X20916Y138858D02*
D03*
X32097Y144311D02*
D03*
X444689Y98358D02*
D03*
X433508Y92905D02*
D03*
X444689Y87453D02*
D03*
X433508Y82000D02*
D03*
X444689Y76547D02*
D03*
X433508Y71095D02*
D03*
X444689Y65642D02*
D03*
X433508Y60189D02*
D03*
D88*
X11000Y40500D02*
D03*
Y50500D02*
D03*
X445500Y163001D02*
D03*
Y153001D02*
D03*
D89*
X347500Y198000D02*
D03*
X369000Y200000D02*
D03*
X362000Y186500D02*
D03*
X298500Y140000D02*
D03*
X147000Y15000D02*
D03*
X190000Y86500D02*
D03*
X256500Y81000D02*
D03*
X314500Y203000D02*
D03*
X308500Y146500D02*
D03*
X319000Y111500D02*
D03*
X275000Y104500D02*
D03*
X323000Y89000D02*
D03*
Y98000D02*
D03*
X220000Y210000D02*
D03*
X205500Y150000D02*
D03*
X306500Y139500D02*
D03*
X312500Y112000D02*
D03*
X305874Y111626D02*
D03*
X299000Y113000D02*
D03*
X311500Y127500D02*
D03*
X277500Y120000D02*
D03*
X268000Y64500D02*
D03*
X265500Y48500D02*
D03*
X189000Y56500D02*
D03*
X185306Y60694D02*
D03*
X202000Y39000D02*
D03*
X191500Y154000D02*
D03*
X201500Y158000D02*
D03*
X195000Y179000D02*
D03*
X193500Y166000D02*
D03*
X209000Y175500D02*
D03*
X228500Y172500D02*
D03*
X217000Y178000D02*
D03*
X241000Y170000D02*
D03*
X251000Y156000D02*
D03*
X252500Y169500D02*
D03*
X241000Y177500D02*
D03*
X253000Y176500D02*
D03*
X247500Y151000D02*
D03*
X257000Y153500D02*
D03*
X256000Y129500D02*
D03*
X246500Y121000D02*
D03*
X239500Y119000D02*
D03*
X259000Y110500D02*
D03*
X267000Y99000D02*
D03*
X252500Y110000D02*
D03*
X232000Y113000D02*
D03*
X221000Y111500D02*
D03*
X209000Y112500D02*
D03*
X198500Y120000D02*
D03*
X192000Y118000D02*
D03*
X198500Y146500D02*
D03*
X193000Y135500D02*
D03*
X202500Y56000D02*
D03*
X226000Y49000D02*
D03*
X250500Y71000D02*
D03*
X284000Y43500D02*
D03*
X282500Y83000D02*
D03*
X280000Y69500D02*
D03*
X314000Y76000D02*
D03*
X314500Y67000D02*
D03*
X326500Y74000D02*
D03*
Y65500D02*
D03*
X345000Y108000D02*
D03*
X379000Y32000D02*
D03*
X374000Y15000D02*
D03*
X404000Y163000D02*
D03*
X385000Y163500D02*
D03*
X380500Y208500D02*
D03*
X373273Y213727D02*
D03*
X375500Y211500D02*
D03*
X378500Y186000D02*
D03*
X403500Y170000D02*
D03*
X385000Y169000D02*
D03*
X362500Y170000D02*
D03*
X361000Y160000D02*
D03*
X382500Y175500D02*
D03*
X382000Y154000D02*
D03*
X367000Y143000D02*
D03*
X357000Y151500D02*
D03*
X328500Y154000D02*
D03*
X362000Y129500D02*
D03*
X338000Y149000D02*
D03*
X332441Y130559D02*
D03*
X356500Y140500D02*
D03*
X393500Y45000D02*
D03*
X383500Y18500D02*
D03*
X421000Y10500D02*
D03*
X331500Y179500D02*
D03*
X333500Y192500D02*
D03*
X344500Y166500D02*
D03*
X360500Y250500D02*
D03*
X391500Y244000D02*
D03*
X405000Y255000D02*
D03*
X371000Y222500D02*
D03*
X359000Y214500D02*
D03*
X285000Y231500D02*
D03*
X237500Y232000D02*
D03*
X224000D02*
D03*
X54000Y69000D02*
D03*
X93500Y53000D02*
D03*
X89000Y117500D02*
D03*
X85500Y184000D02*
D03*
X63000Y178500D02*
D03*
X45260Y179500D02*
D03*
X87000Y202500D02*
D03*
X83500Y222000D02*
D03*
X88000Y240000D02*
D03*
X87500Y251500D02*
D03*
X52000Y223000D02*
D03*
Y245500D02*
D03*
X11000Y233000D02*
D03*
X9523Y241976D02*
D03*
X170500Y116000D02*
D03*
X151500Y121000D02*
D03*
X125575Y171575D02*
D03*
X115500Y171500D02*
D03*
X163000Y173500D02*
D03*
X131500Y36500D02*
D03*
X195000Y38500D02*
D03*
X121000Y203500D02*
D03*
X125000Y197000D02*
D03*
X200500Y196000D02*
D03*
X203500Y200500D02*
D03*
X146500Y207500D02*
D03*
X207500Y206000D02*
D03*
X141500Y207000D02*
D03*
X142500Y202000D02*
D03*
X211500Y196500D02*
D03*
X213500Y207000D02*
D03*
X215500Y199500D02*
D03*
X158000Y168500D02*
D03*
X114500Y177500D02*
D03*
X158500Y174500D02*
D03*
X119500Y181500D02*
D03*
X158000Y180500D02*
D03*
X140500Y24000D02*
D03*
X128500Y49000D02*
D03*
X138000Y197500D02*
D03*
X211500Y202500D02*
D03*
X135500Y48500D02*
D03*
X135000Y209000D02*
D03*
X151000Y24000D02*
D03*
X150500Y49000D02*
D03*
X145000Y49500D02*
D03*
X139500Y49000D02*
D03*
X225500Y214000D02*
D03*
X179000D02*
D03*
X371500Y189000D02*
D03*
X368500Y184000D02*
D03*
X409000Y206000D02*
D03*
X351000Y209500D02*
D03*
X117000Y48000D02*
D03*
X118000Y37500D02*
D03*
X232500Y89500D02*
D03*
X249000Y79000D02*
D03*
X231000Y83000D02*
D03*
X274500Y96000D02*
D03*
X300000Y94500D02*
D03*
X269500Y90500D02*
D03*
X302500Y145000D02*
D03*
X301937Y106500D02*
D03*
X320000Y199500D02*
D03*
X317500Y148500D02*
D03*
X48000Y61500D02*
D03*
X54500Y62500D02*
D03*
X415000Y238000D02*
D03*
X95000Y67500D02*
D03*
X103500D02*
D03*
X186500Y231000D02*
D03*
X197500Y240000D02*
D03*
M02*
