G04*
G04 #@! TF.GenerationSoftware,Altium Limited,Altium Designer,18.0.7 (293)*
G04*
G04 Layer_Color=8388736*
%FSLAX25Y25*%
%MOIN*%
G70*
G01*
G75*
%ADD80R,0.01587X0.03969*%
%ADD81R,0.03969X0.01587*%
%ADD82R,0.01587X0.02381*%
%ADD83R,0.02381X0.01587*%
%ADD84R,0.00794X0.03175*%
%ADD85R,0.02778X0.01587*%
%ADD86R,0.03175X0.00794*%
D80*
X223007Y185516D02*
D03*
X203994Y185984D02*
D03*
X185994D02*
D03*
X168507Y186016D02*
D03*
X150494Y185984D02*
D03*
X131993Y185484D02*
D03*
X97006Y185516D02*
D03*
X115006D02*
D03*
X226175Y9516D02*
D03*
X258493Y182484D02*
D03*
X351993Y188984D02*
D03*
Y179484D02*
D03*
D81*
X226985Y27007D02*
D03*
X173984Y159037D02*
D03*
X357485Y217006D02*
D03*
D82*
X141993Y131594D02*
D03*
X141007Y102509D02*
D03*
X243693Y181491D02*
D03*
X334007Y209509D02*
D03*
X181507Y135491D02*
D03*
X184994Y93010D02*
D03*
X221993Y94010D02*
D03*
D83*
X156510Y148494D02*
D03*
X134009D02*
D03*
X301509Y196493D02*
D03*
X179509Y105507D02*
D03*
X181009Y119507D02*
D03*
X222990Y135994D02*
D03*
D84*
X225003Y68512D02*
D03*
D85*
X159989Y116007D02*
D03*
D86*
X347512Y216997D02*
D03*
M02*
