G04*
G04 #@! TF.GenerationSoftware,Altium Limited,Altium Designer,18.0.7 (293)*
G04*
G04 Layer_Color=255*
%FSLAX25Y25*%
%MOIN*%
G70*
G01*
G75*
%ADD22R,0.05200X0.06000*%
%ADD23R,0.03600X0.02800*%
%ADD24R,0.02800X0.03600*%
%ADD35R,0.06000X0.05200*%
%ADD86C,0.05600*%
%ADD96P,0.05845X8X202.5*%
%ADD97O,0.06000X0.12000*%
%ADD98C,0.04800*%
%ADD99C,0.18740*%
%ADD100R,0.06653X0.06653*%
%ADD101C,0.06653*%
%ADD102C,0.07000*%
D22*
X256740Y162500D02*
D03*
X249200D02*
D03*
D23*
X320000Y66941D02*
D03*
Y72100D02*
D03*
X284500Y80059D02*
D03*
Y74900D02*
D03*
X336000Y182441D02*
D03*
Y187600D02*
D03*
X204000Y113441D02*
D03*
Y118600D02*
D03*
X214500Y112941D02*
D03*
Y118100D02*
D03*
X226000Y112941D02*
D03*
Y118100D02*
D03*
X222500Y178059D02*
D03*
Y172900D02*
D03*
X190500Y176559D02*
D03*
Y171400D02*
D03*
X247500Y177059D02*
D03*
Y171900D02*
D03*
X258000Y177059D02*
D03*
Y171900D02*
D03*
D24*
X355593Y147575D02*
D03*
X360752D02*
D03*
X328559Y148000D02*
D03*
X323400D02*
D03*
X275559Y76500D02*
D03*
X270400D02*
D03*
X193441Y141000D02*
D03*
X198600D02*
D03*
X191941Y113000D02*
D03*
X197100D02*
D03*
X191441Y160000D02*
D03*
X196600D02*
D03*
X247559Y113000D02*
D03*
X242400D02*
D03*
X257559Y124500D02*
D03*
X252400D02*
D03*
X257559Y118500D02*
D03*
X252400D02*
D03*
X256559Y148000D02*
D03*
X251400D02*
D03*
D35*
X360000Y121240D02*
D03*
Y113700D02*
D03*
X333500Y121740D02*
D03*
Y114200D02*
D03*
X201500Y175740D02*
D03*
Y168200D02*
D03*
D86*
X282500Y257500D02*
D03*
Y247500D02*
D03*
X272500Y257500D02*
D03*
Y247500D02*
D03*
X262500Y257500D02*
D03*
Y247500D02*
D03*
X252500Y257500D02*
D03*
Y247500D02*
D03*
X242500Y257500D02*
D03*
Y247500D02*
D03*
X232500Y257500D02*
D03*
Y247500D02*
D03*
X222500Y257500D02*
D03*
Y247500D02*
D03*
X212500Y257500D02*
D03*
Y247500D02*
D03*
X202500Y257500D02*
D03*
Y247500D02*
D03*
X192500Y257500D02*
D03*
Y247500D02*
D03*
D96*
X128000Y29000D02*
D03*
Y19000D02*
D03*
X118000Y29000D02*
D03*
Y19000D02*
D03*
X108000Y29000D02*
D03*
Y19000D02*
D03*
D97*
X331900Y257800D02*
D03*
X314100D02*
D03*
X331900Y232200D02*
D03*
X314100D02*
D03*
D98*
X197000Y67000D02*
D03*
X207000D02*
D03*
D99*
X26507Y171693D02*
D03*
Y73307D02*
D03*
X439098Y32807D02*
D03*
Y131193D02*
D03*
D100*
X32097Y100689D02*
D03*
X433508Y103811D02*
D03*
D101*
X20916Y106142D02*
D03*
X32097Y111594D02*
D03*
X20916Y117047D02*
D03*
X32097Y122500D02*
D03*
X20916Y127953D02*
D03*
X32097Y133405D02*
D03*
X20916Y138858D02*
D03*
X32097Y144311D02*
D03*
X444689Y98358D02*
D03*
X433508Y92905D02*
D03*
X444689Y87453D02*
D03*
X433508Y82000D02*
D03*
X444689Y76547D02*
D03*
X433508Y71095D02*
D03*
X444689Y65642D02*
D03*
X433508Y60189D02*
D03*
D102*
X11000Y40500D02*
D03*
Y50500D02*
D03*
X445500Y163001D02*
D03*
Y153001D02*
D03*
M02*
