G04*
G04 #@! TF.GenerationSoftware,Altium Limited,Altium Designer,18.0.7 (293)*
G04*
G04 Layer_Physical_Order=4*
G04 Layer_Color=16711680*
%FSLAX25Y25*%
%MOIN*%
G70*
G01*
G75*
%ADD10C,0.01000*%
%ADD11C,0.00787*%
%ADD23R,0.05200X0.06000*%
%ADD24R,0.03600X0.02800*%
%ADD25R,0.02800X0.03600*%
%ADD36R,0.06000X0.05200*%
%ADD88C,0.05600*%
%ADD95C,0.02362*%
%ADD98P,0.05845X8X202.5*%
%ADD99O,0.06000X0.12000*%
%ADD100C,0.04800*%
%ADD101C,0.18740*%
%ADD102R,0.06653X0.06653*%
%ADD103C,0.06653*%
%ADD104C,0.07000*%
%ADD105C,0.02362*%
D10*
X145000Y17000D02*
X147000Y15000D01*
X220000Y209500D02*
Y210000D01*
Y209500D02*
X221000Y208500D01*
Y196500D02*
Y208500D01*
X212000Y187500D02*
X221000Y196500D01*
X212000Y156500D02*
Y187500D01*
X205500Y150000D02*
X212000Y156500D01*
X145000Y200500D02*
X203500D01*
X143000Y202500D02*
X145000Y200500D01*
X142500Y202000D02*
X143000Y202500D01*
X142000Y201500D02*
X142500Y202000D01*
X145000Y17000D02*
Y49500D01*
X225500Y214000D02*
X227000D01*
X179000D02*
X225500D01*
X188500Y231000D02*
X197500Y240000D01*
D11*
X362000Y193000D02*
X369000Y200000D01*
X362000Y186500D02*
Y193000D01*
X298500Y140000D02*
X299000Y140500D01*
X378500Y207000D02*
X380500Y209000D01*
X190000Y86500D02*
X251000D01*
X256500Y81000D01*
X311500Y113000D02*
Y127500D01*
X275362Y104138D02*
X321000D01*
X323500Y106638D01*
X313925Y202425D02*
X314500Y203000D01*
X313925Y146575D02*
Y202425D01*
Y146575D02*
X323500Y137000D01*
X315500Y195000D02*
X320000Y199500D01*
X315500Y150500D02*
Y195000D01*
X308500Y146500D02*
X318500Y136500D01*
X323500Y106638D02*
Y137000D01*
X318500Y112000D02*
X319000Y111500D01*
X275000Y104500D02*
X275362Y104138D01*
X288970Y89000D02*
X323000D01*
X297159Y98000D02*
X323000D01*
X295159Y96000D02*
X297159Y98000D01*
X339700Y108000D02*
X345000D01*
X323400Y139600D02*
X332441Y130559D01*
X323400Y139600D02*
Y148000D01*
X306500Y139500D02*
X307000D01*
X305874Y111626D02*
Y138374D01*
X299000Y113000D02*
Y140500D01*
X244000Y151500D02*
X247000D01*
X243000Y152500D02*
X244000Y151500D01*
X243000Y152500D02*
Y160000D01*
X245500Y162500D01*
X249200D01*
X265500Y62000D02*
X268000Y64500D01*
X265500Y48500D02*
Y62000D01*
X189000Y56500D02*
X190000Y55500D01*
X185306Y55421D02*
X186500Y54227D01*
X185306Y55421D02*
Y60694D01*
X186500Y47000D02*
Y54227D01*
X200500Y39000D02*
X202000D01*
X190000Y49500D02*
X200500Y39000D01*
X190000Y49500D02*
Y55500D01*
X186500Y47000D02*
X195000Y38500D01*
X191500Y154000D02*
Y159941D01*
X196600Y160000D02*
X198600Y158000D01*
X201500D01*
X190500Y169000D02*
X193500Y166000D01*
X190500Y169000D02*
Y171400D01*
Y176559D02*
X192559D01*
X195000Y179000D01*
X193500Y166000D02*
X195700Y168200D01*
X201500D01*
X201740Y175500D02*
X209000D01*
X227500Y172500D02*
X228500D01*
X227100Y172900D02*
X227500Y172500D01*
X222500Y172900D02*
X227100D01*
X217000Y178000D02*
X222441D01*
X245600Y170000D02*
X247500Y171900D01*
X241000Y170000D02*
X245600D01*
X256740Y161740D02*
Y162500D01*
X251000Y156000D02*
X256740Y161740D01*
X248400Y151000D02*
X251400Y148000D01*
X247500Y151000D02*
X248400D01*
X252900Y169900D02*
X254900Y171900D01*
X249500Y169900D02*
X252900D01*
X252500Y169500D02*
X252900Y169900D01*
X247500Y171900D02*
X249500Y169900D01*
X254900Y171900D02*
X258000D01*
X241441Y177059D02*
X247500D01*
X253000Y176500D02*
X257441D01*
X258000Y177059D01*
X257000Y148441D02*
Y153500D01*
X256000Y129500D02*
X257559Y127941D01*
Y124500D02*
Y127941D01*
X246500Y121000D02*
X250000Y124500D01*
X252400D01*
X246500Y121000D02*
X249000Y118500D01*
X252400D01*
X239500Y119000D02*
X242400Y116100D01*
Y113000D02*
Y116100D01*
X257559Y111941D02*
Y118500D01*
Y111941D02*
X259000Y110500D01*
X247559Y113000D02*
X250559Y110000D01*
X252500D01*
X226059Y113000D02*
X232000D01*
X221000Y116500D02*
X222600Y118100D01*
X226000D01*
X214500D02*
X219400D01*
X221000Y116500D01*
Y111500D02*
Y116500D01*
X209441Y112941D02*
X214500D01*
X208500Y112500D02*
X209000D01*
X207559Y113441D02*
X208500Y112500D01*
X204000Y113441D02*
X207559D01*
X192000Y113059D02*
Y118000D01*
X191941Y113000D02*
X192000Y113059D01*
X198500Y120000D02*
X199900Y118600D01*
X204000D01*
X198500Y118000D02*
Y120000D01*
X197100Y116600D02*
X198500Y118000D01*
X197100Y113000D02*
Y116600D01*
X198600Y141000D02*
Y146400D01*
X193000Y140559D02*
X193441Y141000D01*
X193000Y135500D02*
Y140559D01*
X282500Y82059D02*
Y83000D01*
Y80500D02*
Y82059D01*
X278500Y76500D02*
X282500Y80500D01*
X275559Y76500D02*
X278500D01*
X282500Y82059D02*
X284500Y80059D01*
X279500Y69000D02*
X280000Y69500D01*
X272500Y69000D02*
X279500D01*
X271500Y70000D02*
X272500Y69000D01*
X271500Y70000D02*
Y75400D01*
X270400Y76500D02*
X271500Y75400D01*
X280000Y69500D02*
X284500Y74000D01*
X316100Y76000D02*
X320000Y72100D01*
X314000Y76000D02*
X316100D01*
X325100Y72100D02*
X327000Y74000D01*
X326500D02*
X327000D01*
X320000Y72100D02*
X325100D01*
X325500Y65500D02*
X326500D01*
X324059Y66941D02*
X325500Y65500D01*
X320000Y66941D02*
X324059D01*
X333500Y114200D02*
X339700Y108000D01*
X345000D02*
X354000D01*
X359700Y113700D01*
X360000D01*
X379000Y32000D02*
Y32500D01*
X403500Y163000D02*
X404000D01*
X403000Y163500D02*
X403500Y163000D01*
X385000Y163500D02*
X403000D01*
X380500Y208500D02*
Y209000D01*
X373138Y213592D02*
X373273Y213727D01*
X375000Y211000D02*
X375500Y211500D01*
X378500Y186000D02*
Y207000D01*
X385000Y169000D02*
X386000Y170000D01*
X403500D01*
X367000Y143000D02*
X367500D01*
X365327D02*
X367000D01*
X360752Y147575D02*
X365327Y143000D01*
X355593Y150093D02*
X357000Y151500D01*
X355593Y147575D02*
Y150093D01*
X315500Y150500D02*
X317500Y148500D01*
X328559Y148000D02*
Y153941D01*
X362000Y123240D02*
Y129500D01*
X338000Y149000D02*
X339000Y148000D01*
Y128500D02*
Y148000D01*
X333500Y123000D02*
X339000Y128500D01*
X333500Y121740D02*
Y123000D01*
X383500Y18500D02*
X384000D01*
X334441Y182441D02*
X336000D01*
X331500Y179500D02*
X334441Y182441D01*
X333500Y192500D02*
X336000Y190000D01*
Y187600D02*
Y190000D01*
X125575Y171575D02*
Y172500D01*
X118000Y174500D02*
X158500D01*
X118500Y168500D02*
X158000D01*
X115500Y171500D02*
X118500Y168500D01*
X125575Y172500D02*
X126000Y172925D01*
X156734D01*
X157522Y172138D01*
X159478D01*
X160841Y173500D01*
X163000D01*
X115000Y177500D02*
X118000Y174500D01*
X114500Y177500D02*
X115000D01*
X128000Y29000D02*
X131500Y32500D01*
Y36500D01*
X212138Y208362D02*
X213500Y207000D01*
X201567Y208362D02*
X212138D01*
X121000Y203500D02*
X126000D01*
X127000Y202500D01*
X125000Y197000D02*
X125500Y196500D01*
X133659D01*
X137022Y199862D01*
X138978D01*
X140022Y198819D01*
X201840D01*
X204159Y196500D01*
X211500D01*
X127000Y202500D02*
X139659D01*
X135000Y209000D02*
X135862Y209862D01*
X144070Y204362D02*
X145519Y202913D01*
X141522Y204362D02*
X144070D01*
X135862Y209862D02*
X147478D01*
X207659Y202500D02*
X211500D01*
X205671Y204488D02*
X207659Y202500D01*
X146171Y204488D02*
X205671D01*
X144722Y205937D02*
X146171Y204488D01*
X142563Y205937D02*
X144722D01*
X141500Y207000D02*
X142563Y205937D01*
X139659Y202500D02*
X141522Y204362D01*
X204427Y202913D02*
X207841Y199500D01*
X215500D01*
X145519Y202913D02*
X204427D01*
X139500Y196000D02*
X200500D01*
X137500Y198000D02*
X139500Y196000D01*
X146500Y206500D02*
Y207500D01*
X147478Y209862D02*
X148862Y208478D01*
X207063Y206437D02*
X207500Y206000D01*
X148862Y208297D02*
X149522Y207638D01*
X148862Y208297D02*
Y208478D01*
X146500Y206500D02*
X146937Y206063D01*
X212841Y207000D02*
X213500D01*
X119500Y181500D02*
X120500Y180500D01*
X158000D01*
X140500Y24000D02*
Y37500D01*
X139500Y38500D02*
X140500Y37500D01*
X118000Y29000D02*
X128500Y39500D01*
Y49000D01*
X118000Y37500D02*
Y46000D01*
X137500Y198000D02*
X138000Y197500D01*
X201869Y206437D02*
X207063D01*
X201495Y206063D02*
X201869Y206437D01*
X146937Y206063D02*
X201495D01*
X200843Y207638D02*
X201567Y208362D01*
X149522Y207638D02*
X200843D01*
X128000Y19000D02*
X134500D01*
X135500Y20000D01*
Y48500D01*
X150500Y24500D02*
X151000Y24000D01*
X150500Y24500D02*
Y49000D01*
X139500Y38500D02*
Y49000D01*
X373138Y210522D02*
X373213Y210447D01*
Y190713D02*
Y210447D01*
X371500Y189000D02*
X373213Y190713D01*
X371500Y188000D02*
Y189000D01*
X368500Y184000D02*
X368713Y184213D01*
X371953D01*
X375000Y187260D01*
X373138Y210522D02*
Y213592D01*
X375000Y187260D02*
Y211000D01*
X116500Y47500D02*
X118000Y46000D01*
X116500Y47500D02*
X117000Y48000D01*
X232500Y89500D02*
X233500D01*
X238500Y94500D01*
X318500Y112000D02*
Y136500D01*
X247000Y81000D02*
X249000Y79000D01*
X233000Y81000D02*
X247000D01*
X231000Y83000D02*
X233000Y81000D01*
X274500Y96000D02*
X295159D01*
X238500Y94500D02*
X270659D01*
X273022Y92138D01*
X296524D01*
X298886Y94500D01*
X300000D01*
X288789Y88819D02*
X288970Y89000D01*
X284211Y88819D02*
X288789D01*
X282530Y90500D02*
X284211Y88819D01*
X269500Y90500D02*
X282530D01*
X305874Y138374D02*
X307000Y139500D01*
X301937Y144437D02*
X302500Y145000D01*
X301937Y106500D02*
Y144437D01*
X48000Y61500D02*
X49000Y62500D01*
X54500D01*
X95000Y67500D02*
X103500D01*
X186500Y231000D02*
X188500D01*
D23*
X256740Y162500D02*
D03*
X249200D02*
D03*
D24*
X336000Y187600D02*
D03*
Y182441D02*
D03*
X320000Y66941D02*
D03*
Y72100D02*
D03*
X284500Y80059D02*
D03*
Y74900D02*
D03*
X204000Y113441D02*
D03*
Y118600D02*
D03*
X214500Y112941D02*
D03*
Y118100D02*
D03*
X226000Y112941D02*
D03*
Y118100D02*
D03*
X222500Y178059D02*
D03*
Y172900D02*
D03*
X190500Y176559D02*
D03*
Y171400D02*
D03*
X247500Y177059D02*
D03*
Y171900D02*
D03*
X258000Y177059D02*
D03*
Y171900D02*
D03*
D25*
X355593Y147575D02*
D03*
X360752D02*
D03*
X328559Y148000D02*
D03*
X323400D02*
D03*
X275559Y76500D02*
D03*
X270400D02*
D03*
X193441Y141000D02*
D03*
X198600D02*
D03*
X191941Y113000D02*
D03*
X197100D02*
D03*
X191441Y160000D02*
D03*
X196600D02*
D03*
X247559Y113000D02*
D03*
X242400D02*
D03*
X257559Y124500D02*
D03*
X252400D02*
D03*
X257559Y118500D02*
D03*
X252400D02*
D03*
X256559Y148000D02*
D03*
X251400D02*
D03*
D36*
X360000Y121240D02*
D03*
Y113700D02*
D03*
X333500Y121740D02*
D03*
Y114200D02*
D03*
X201500Y175740D02*
D03*
Y168200D02*
D03*
D88*
X282500Y257500D02*
D03*
Y247500D02*
D03*
X272500Y257500D02*
D03*
Y247500D02*
D03*
X262500Y257500D02*
D03*
Y247500D02*
D03*
X252500Y257500D02*
D03*
Y247500D02*
D03*
X242500Y257500D02*
D03*
Y247500D02*
D03*
X232500Y257500D02*
D03*
Y247500D02*
D03*
X222500Y257500D02*
D03*
Y247500D02*
D03*
X212500Y257500D02*
D03*
Y247500D02*
D03*
X202500Y257500D02*
D03*
Y247500D02*
D03*
X192500Y257500D02*
D03*
Y247500D02*
D03*
D95*
X374000Y27500D02*
X379000Y32500D01*
X374000Y15000D02*
Y27500D01*
X409000Y206000D02*
Y232000D01*
X415000Y238000D01*
D98*
X128000Y29000D02*
D03*
Y19000D02*
D03*
X118000Y29000D02*
D03*
Y19000D02*
D03*
X108000Y29000D02*
D03*
Y19000D02*
D03*
D99*
X331900Y257800D02*
D03*
X314100D02*
D03*
X331900Y232200D02*
D03*
X314100D02*
D03*
D100*
X197000Y67000D02*
D03*
X207000D02*
D03*
D101*
X26507Y171693D02*
D03*
Y73307D02*
D03*
X439098Y32807D02*
D03*
Y131193D02*
D03*
D102*
X32097Y100689D02*
D03*
X433508Y103811D02*
D03*
D103*
X20916Y106142D02*
D03*
X32097Y111594D02*
D03*
X20916Y117047D02*
D03*
X32097Y122500D02*
D03*
X20916Y127953D02*
D03*
X32097Y133405D02*
D03*
X20916Y138858D02*
D03*
X32097Y144311D02*
D03*
X444689Y98358D02*
D03*
X433508Y92905D02*
D03*
X444689Y87453D02*
D03*
X433508Y82000D02*
D03*
X444689Y76547D02*
D03*
X433508Y71095D02*
D03*
X444689Y65642D02*
D03*
X433508Y60189D02*
D03*
D104*
X11000Y40500D02*
D03*
Y50500D02*
D03*
X445500Y163001D02*
D03*
Y153001D02*
D03*
D105*
X348000Y169500D02*
D03*
X341000D02*
D03*
X348000Y162500D02*
D03*
X341000D02*
D03*
X347500Y198000D02*
D03*
X369000Y200000D02*
D03*
X362000Y186500D02*
D03*
X298500Y140000D02*
D03*
X147000Y15000D02*
D03*
X190000Y86500D02*
D03*
X256500Y81000D02*
D03*
X314500Y203000D02*
D03*
X308500Y146500D02*
D03*
X319000Y111500D02*
D03*
X275000Y104500D02*
D03*
X323000Y89000D02*
D03*
Y98000D02*
D03*
X220000Y210000D02*
D03*
X205500Y150000D02*
D03*
X306500Y139500D02*
D03*
X312500Y112000D02*
D03*
X305874Y111626D02*
D03*
X299000Y113000D02*
D03*
X311500Y127500D02*
D03*
X277500Y120000D02*
D03*
X268000Y64500D02*
D03*
X265500Y48500D02*
D03*
X189000Y56500D02*
D03*
X185306Y60694D02*
D03*
X202000Y39000D02*
D03*
X191500Y154000D02*
D03*
X201500Y158000D02*
D03*
X195000Y179000D02*
D03*
X193500Y166000D02*
D03*
X209000Y175500D02*
D03*
X228500Y172500D02*
D03*
X217000Y178000D02*
D03*
X241000Y170000D02*
D03*
X251000Y156000D02*
D03*
X252500Y169500D02*
D03*
X241000Y177500D02*
D03*
X253000Y176500D02*
D03*
X247500Y151000D02*
D03*
X257000Y153500D02*
D03*
X256000Y129500D02*
D03*
X246500Y121000D02*
D03*
X239500Y119000D02*
D03*
X259000Y110500D02*
D03*
X267000Y99000D02*
D03*
X252500Y110000D02*
D03*
X232000Y113000D02*
D03*
X221000Y111500D02*
D03*
X209000Y112500D02*
D03*
X198500Y120000D02*
D03*
X192000Y118000D02*
D03*
X198500Y146500D02*
D03*
X193000Y135500D02*
D03*
X202500Y56000D02*
D03*
X226000Y49000D02*
D03*
X250500Y71000D02*
D03*
X284000Y43500D02*
D03*
X282500Y83000D02*
D03*
X280000Y69500D02*
D03*
X314000Y76000D02*
D03*
X314500Y67000D02*
D03*
X326500Y74000D02*
D03*
Y65500D02*
D03*
X345000Y108000D02*
D03*
X379000Y32000D02*
D03*
X374000Y15000D02*
D03*
X404000Y163000D02*
D03*
X385000Y163500D02*
D03*
X380500Y208500D02*
D03*
X373273Y213727D02*
D03*
X375500Y211500D02*
D03*
X378500Y186000D02*
D03*
X403500Y170000D02*
D03*
X385000Y169000D02*
D03*
X362500Y170000D02*
D03*
X361000Y160000D02*
D03*
X382500Y175500D02*
D03*
X382000Y154000D02*
D03*
X367000Y143000D02*
D03*
X357000Y151500D02*
D03*
X328500Y154000D02*
D03*
X362000Y129500D02*
D03*
X338000Y149000D02*
D03*
X332441Y130559D02*
D03*
X356500Y140500D02*
D03*
X393500Y45000D02*
D03*
X383500Y18500D02*
D03*
X421000Y10500D02*
D03*
X331500Y179500D02*
D03*
X333500Y192500D02*
D03*
X360500Y250500D02*
D03*
X391500Y244000D02*
D03*
X405000Y255000D02*
D03*
X371000Y222500D02*
D03*
X359000Y214500D02*
D03*
X285000Y231500D02*
D03*
X237500Y232000D02*
D03*
X224000D02*
D03*
X54000Y69000D02*
D03*
X93500Y53000D02*
D03*
X89000Y117500D02*
D03*
X85500Y184000D02*
D03*
X63000Y178500D02*
D03*
X45260Y179500D02*
D03*
X87000Y202500D02*
D03*
X83500Y222000D02*
D03*
X88000Y240000D02*
D03*
X87500Y251500D02*
D03*
X52000Y223000D02*
D03*
Y245500D02*
D03*
X11000Y233000D02*
D03*
X9523Y241976D02*
D03*
X170500Y116000D02*
D03*
X151500Y121000D02*
D03*
X125575Y171575D02*
D03*
X115500Y171500D02*
D03*
X163000Y173500D02*
D03*
X131500Y36500D02*
D03*
X195000Y38500D02*
D03*
X121000Y203500D02*
D03*
X125000Y197000D02*
D03*
X200500Y196000D02*
D03*
X203500Y200500D02*
D03*
X146500Y207500D02*
D03*
X207500Y206000D02*
D03*
X141500Y207000D02*
D03*
X142500Y202000D02*
D03*
X211500Y196500D02*
D03*
X213500Y207000D02*
D03*
X215500Y199500D02*
D03*
X158000Y168500D02*
D03*
X114500Y177500D02*
D03*
X158500Y174500D02*
D03*
X119500Y181500D02*
D03*
X158000Y180500D02*
D03*
X140500Y24000D02*
D03*
X128500Y49000D02*
D03*
X138000Y197500D02*
D03*
X211500Y202500D02*
D03*
X135500Y48500D02*
D03*
X135000Y209000D02*
D03*
X151000Y24000D02*
D03*
X150500Y49000D02*
D03*
X145000Y49500D02*
D03*
X139500Y49000D02*
D03*
X225500Y214000D02*
D03*
X179000D02*
D03*
X371500Y189000D02*
D03*
X368500Y184000D02*
D03*
X409000Y206000D02*
D03*
X351000Y209500D02*
D03*
X117000Y48000D02*
D03*
X118000Y37500D02*
D03*
X232500Y89500D02*
D03*
X249000Y79000D02*
D03*
X231000Y83000D02*
D03*
X274500Y96000D02*
D03*
X300000Y94500D02*
D03*
X269500Y90500D02*
D03*
X302500Y145000D02*
D03*
X301937Y106500D02*
D03*
X320000Y199500D02*
D03*
X317500Y148500D02*
D03*
X48000Y61500D02*
D03*
X54500Y62500D02*
D03*
X415000Y238000D02*
D03*
X95000Y67500D02*
D03*
X103500D02*
D03*
X186500Y231000D02*
D03*
X197500Y240000D02*
D03*
M02*
