G04*
G04 #@! TF.GenerationSoftware,Altium Limited,Altium Designer,18.0.7 (293)*
G04*
G04 Layer_Color=16711935*
%FSLAX25Y25*%
%MOIN*%
G70*
G01*
G75*
%ADD87C,0.00000*%
%ADD88C,0.00394*%
%ADD89C,0.00100*%
D87*
X176138Y138622D02*
G03*
X176138Y138622I-300J0D01*
G01*
D88*
X310232Y90894D02*
Y96405D01*
X301768Y90894D02*
Y96405D01*
Y90894D02*
X310232D01*
X301768Y96405D02*
X310232D01*
X332268Y100744D02*
Y106256D01*
X340732Y100744D02*
Y106256D01*
X332268D02*
X340732D01*
X332268Y100744D02*
X340732D01*
X320244Y87268D02*
X325756D01*
X320244Y95732D02*
X325756D01*
X320244Y87268D02*
Y95732D01*
X325756Y87268D02*
Y95732D01*
X84232Y105303D02*
Y110814D01*
X75768Y105303D02*
Y110814D01*
Y105303D02*
X84232D01*
X75768Y110814D02*
X84232D01*
X76221Y135689D02*
X78780D01*
X76221Y134311D02*
X78780D01*
X76221D02*
Y135689D01*
X78780Y134311D02*
Y135689D01*
X73721Y138811D02*
X76279D01*
X73721Y140189D02*
X76279D01*
Y138811D02*
Y140189D01*
X73721Y138811D02*
Y140189D01*
X62744Y132732D02*
X68256D01*
X62744Y124268D02*
X68256D01*
Y132732D01*
X62744Y124268D02*
Y132732D01*
X55232Y142244D02*
Y147756D01*
X46768Y142244D02*
Y147756D01*
Y142244D02*
X55232D01*
X46768Y147756D02*
X55232D01*
X62744Y138268D02*
Y146732D01*
X68256Y138268D02*
Y146732D01*
X62744Y138268D02*
X68256D01*
X62744Y146732D02*
X68256D01*
X315280Y107311D02*
Y108689D01*
X312720Y107311D02*
Y108689D01*
Y107311D02*
X315280D01*
X312720Y108689D02*
X315280D01*
X332268Y91244D02*
X340732D01*
X332268Y96756D02*
X340732D01*
Y91244D02*
Y96756D01*
X332268Y91244D02*
Y96756D01*
X46768Y129756D02*
X55232D01*
X46768Y124244D02*
X55232D01*
X46768D02*
Y129756D01*
X55232Y124244D02*
Y129756D01*
X40732Y43744D02*
Y49256D01*
X32268Y43744D02*
Y49256D01*
Y43744D02*
X40732D01*
X32268Y49256D02*
X40732D01*
X77768Y123953D02*
X86232D01*
X77768Y129465D02*
X86232D01*
Y123953D02*
Y129465D01*
X77768Y123953D02*
Y129465D01*
X272756Y109768D02*
Y118232D01*
X267244Y109768D02*
Y118232D01*
X272756D01*
X267244Y109768D02*
X272756D01*
X307720Y103311D02*
Y104689D01*
X310279Y103311D02*
Y104689D01*
X307720D02*
X310279D01*
X307720Y103311D02*
X310279D01*
X325756Y103268D02*
Y111732D01*
X320244Y103268D02*
Y111732D01*
X325756D01*
X320244Y103268D02*
X325756D01*
X31768Y74756D02*
X40232D01*
X31768Y69244D02*
X40232D01*
X31768D02*
Y74756D01*
X40232Y69244D02*
Y74756D01*
D89*
X173550Y137950D02*
X178550Y142950D01*
X173550Y87050D02*
X229450D01*
Y142950D01*
X173550D02*
X229450D01*
X173550Y87050D02*
Y142950D01*
M02*
