G04*
G04 #@! TF.GenerationSoftware,Altium Limited,Altium Designer,18.0.7 (293)*
G04*
G04 Layer_Color=32768*
%FSLAX25Y25*%
%MOIN*%
G70*
G01*
G75*
%ADD16C,0.00200*%
D16*
X379800Y171630D02*
Y179400D01*
X364232Y171630D02*
Y179400D01*
Y171630D02*
X379800D01*
X364232Y179400D02*
X379800D01*
X379768Y160600D02*
Y168370D01*
X364200D02*
X379768D01*
X364200Y160600D02*
Y168370D01*
Y160600D02*
X379768D01*
X67732Y192900D02*
X83300D01*
Y185130D02*
Y192900D01*
X67732Y185130D02*
X83300D01*
X67732D02*
Y192900D01*
Y211900D02*
X83300D01*
Y204130D02*
Y211900D01*
X67732Y204130D02*
X83300D01*
X67732D02*
Y211900D01*
X289700Y40600D02*
X305268D01*
X289700D02*
Y48370D01*
X305268D01*
Y40600D02*
Y48370D01*
X67232Y253900D02*
X82800D01*
Y246130D02*
Y253900D01*
X67232Y246130D02*
X82800D01*
X67232D02*
Y253900D01*
Y242900D02*
X82800D01*
Y235130D02*
Y242900D01*
X67232Y235130D02*
X82800D01*
X67232D02*
Y242900D01*
X66951Y232400D02*
X82519D01*
Y224630D02*
Y232400D01*
X66951Y224630D02*
X82519D01*
X66951D02*
Y232400D01*
X48232Y190400D02*
X63800D01*
X48232Y182630D02*
X63800D01*
X48232D02*
Y190400D01*
X63800Y182630D02*
Y190400D01*
X378768Y150100D02*
Y157870D01*
X363200D02*
X378768D01*
X363200Y150100D02*
Y157870D01*
Y150100D02*
X378768D01*
X352353Y145575D02*
Y149476D01*
X363952D01*
Y145575D02*
Y149476D01*
X352353Y145575D02*
X363952D01*
X356100Y109700D02*
X363870D01*
X356100Y125268D02*
X363870D01*
Y109700D02*
Y125268D01*
X356100Y109700D02*
Y125268D01*
X329600Y110200D02*
X337370D01*
X329600Y125768D02*
X337370D01*
Y110200D02*
Y125768D01*
X329600Y110200D02*
Y125768D01*
X331799Y146098D02*
Y150000D01*
X320200Y146098D02*
X331799D01*
X320200D02*
Y150000D01*
X331799D01*
X278799Y74598D02*
Y78500D01*
X267200Y74598D02*
X278799D01*
X267200D02*
Y78500D01*
X278799D01*
X318098Y63701D02*
X322000D01*
X318098D02*
Y75300D01*
X322000D01*
Y63701D02*
Y75300D01*
X282500Y83299D02*
X286402D01*
Y71700D02*
Y83299D01*
X282500Y71700D02*
X286402D01*
X282500D02*
Y83299D01*
X334098Y179201D02*
X338000D01*
X334098D02*
Y190800D01*
X338000D01*
Y179201D02*
Y190800D01*
X326000Y132201D02*
X329902D01*
Y143800D01*
X326000D02*
X329902D01*
X326000Y132201D02*
Y143800D01*
X340701Y120598D02*
Y124500D01*
Y120598D02*
X352300D01*
Y124500D01*
X340701D02*
X352300D01*
X190201Y139000D02*
Y142902D01*
X201800D01*
Y139000D02*
Y142902D01*
X190201Y139000D02*
X201800D01*
X188701Y111000D02*
Y114902D01*
X200300D01*
Y111000D02*
Y114902D01*
X188701Y111000D02*
X200300D01*
X188201Y158000D02*
Y161902D01*
X199800D01*
Y158000D02*
Y161902D01*
X188201Y158000D02*
X199800D01*
X202098Y110201D02*
X206000D01*
X202098D02*
Y121800D01*
X206000D01*
Y110201D02*
Y121800D01*
X212598Y109701D02*
X216500D01*
X212598D02*
Y121300D01*
X216500D01*
Y109701D02*
Y121300D01*
X224098Y109701D02*
X228000D01*
X224098D02*
Y121300D01*
X228000D01*
Y109701D02*
Y121300D01*
X250799Y111098D02*
Y115000D01*
X239200Y111098D02*
X250799D01*
X239200D02*
Y115000D01*
X250799D01*
X245200Y158630D02*
Y166400D01*
X260768Y158630D02*
Y166400D01*
X245200Y158630D02*
X260768D01*
X245200Y166400D02*
X260768D01*
X220500Y181299D02*
X224402D01*
Y169700D02*
Y181299D01*
X220500Y169700D02*
X224402D01*
X220500D02*
Y181299D01*
X197600Y164200D02*
X205370D01*
X197600Y179768D02*
X205370D01*
Y164200D02*
Y179768D01*
X197600Y164200D02*
Y179768D01*
X188500Y179799D02*
X192402D01*
Y168200D02*
Y179799D01*
X188500Y168200D02*
X192402D01*
X188500D02*
Y179799D01*
X149732Y132400D02*
X165300D01*
Y124630D02*
Y132400D01*
X149732Y124630D02*
X165300D01*
X149732D02*
Y132400D01*
X74200Y76658D02*
X89768D01*
X74200D02*
Y84429D01*
X89768D01*
Y76658D02*
Y84429D01*
X423200Y9100D02*
X438768D01*
X423200D02*
Y16870D01*
X438768D01*
Y9100D02*
Y16870D01*
X71400Y107200D02*
Y122768D01*
X63630Y107200D02*
X71400D01*
X63630D02*
Y122768D01*
X71400D01*
X76232Y103109D02*
X91800D01*
Y95339D02*
Y103109D01*
X76232Y95339D02*
X91800D01*
X76232D02*
Y103109D01*
X45200Y113600D02*
X60768D01*
X45200D02*
Y121370D01*
X60768D01*
Y113600D02*
Y121370D01*
X45200Y95600D02*
X60768D01*
X45200D02*
Y103370D01*
X60768D01*
Y95600D02*
Y103370D01*
X71400Y93200D02*
Y108768D01*
X63630Y93200D02*
X71400D01*
X63630D02*
Y108768D01*
X71400D01*
X407200Y63100D02*
X422768D01*
X407200D02*
Y70870D01*
X422768D01*
Y63100D02*
Y70870D01*
X416751Y42200D02*
Y57768D01*
X408981Y42200D02*
X416751D01*
X408981D02*
Y57768D01*
X416751D01*
X408600Y72732D02*
Y88300D01*
X416370D01*
Y72732D02*
Y88300D01*
X408600Y72732D02*
X416370D01*
X399100D02*
Y88300D01*
X406870D01*
Y72732D02*
Y88300D01*
X399100Y72732D02*
X406870D01*
X391200Y63100D02*
X406768D01*
X391200D02*
Y70870D01*
X406768D01*
Y63100D02*
Y70870D01*
X242937Y79000D02*
Y82902D01*
X235000D02*
X242937D01*
X235000Y79000D02*
Y82902D01*
Y79000D02*
X242937D01*
X286232Y220130D02*
Y227900D01*
Y220130D02*
X301800D01*
Y227900D01*
X286232D02*
X301800D01*
X282768Y220100D02*
Y227870D01*
X267200D02*
X282768D01*
X267200Y220100D02*
Y227870D01*
Y220100D02*
X282768D01*
X337268Y216600D02*
Y224370D01*
X321700D02*
X337268D01*
X321700Y216600D02*
Y224370D01*
Y216600D02*
X337268D01*
X264768Y220100D02*
Y227870D01*
X249200D02*
X264768D01*
X249200Y220100D02*
Y227870D01*
Y220100D02*
X264768D01*
X231732Y220130D02*
Y227900D01*
Y220130D02*
X247300D01*
Y227900D01*
X231732D02*
X247300D01*
X229268Y220100D02*
Y227870D01*
X213700D02*
X229268D01*
X213700Y220100D02*
Y227870D01*
Y220100D02*
X229268D01*
X210768Y219600D02*
Y227370D01*
X195200D02*
X210768D01*
X195200Y219600D02*
Y227370D01*
Y219600D02*
X210768D01*
X178232Y219630D02*
Y227400D01*
Y219630D02*
X193800D01*
Y227400D01*
X178232D02*
X193800D01*
X160232Y219630D02*
Y227400D01*
Y219630D02*
X175800D01*
Y227400D01*
X160232D02*
X175800D01*
X424600Y247232D02*
X432370D01*
Y262800D01*
X424600D02*
X432370D01*
X424600Y247232D02*
Y262800D01*
X430768Y223100D02*
Y230870D01*
X415200D02*
X430768D01*
X415200Y223100D02*
Y230870D01*
Y223100D02*
X430768D01*
Y213600D02*
Y221370D01*
X415200D02*
X430768D01*
X415200Y213600D02*
Y221370D01*
Y213600D02*
X430768D01*
X368630Y240299D02*
X376400D01*
X368630Y228700D02*
Y240299D01*
Y228700D02*
X376400D01*
Y240299D01*
X399201Y243630D02*
Y251400D01*
Y243630D02*
X410800D01*
Y251400D01*
X399201D02*
X410800D01*
X250500Y56201D02*
X254402D01*
Y67800D01*
X250500D02*
X254402D01*
X250500Y56201D02*
Y67800D01*
X221496Y68799D02*
X225397D01*
X221496Y57200D02*
Y68799D01*
Y57200D02*
X225397D01*
Y68799D01*
X320499Y217500D02*
Y221402D01*
X308900D02*
X320499D01*
X308900Y217500D02*
Y221402D01*
Y217500D02*
X320499D01*
X414630Y247200D02*
X422400D01*
X414630Y262768D02*
X422400D01*
X414630Y247200D02*
Y262768D01*
X422400Y247200D02*
Y262768D01*
X201799Y57000D02*
Y60902D01*
X190200D02*
X201799D01*
X190200Y57000D02*
Y60902D01*
Y57000D02*
X201799D01*
X203000Y57098D02*
Y61000D01*
Y57098D02*
X214599D01*
Y61000D01*
X203000D02*
X214599D01*
X260799Y116598D02*
Y120500D01*
X249200Y116598D02*
X260799D01*
X249200D02*
Y120500D01*
X260799D01*
X245500Y180299D02*
X249402D01*
Y168700D02*
Y180299D01*
X245500Y168700D02*
X249402D01*
X245500D02*
Y180299D01*
X256000D02*
X259902D01*
Y168700D02*
Y180299D01*
X256000Y168700D02*
X259902D01*
X256000D02*
Y180299D01*
X259799Y146098D02*
Y150000D01*
X248200Y146098D02*
X259799D01*
X248200D02*
Y150000D01*
X259799D01*
X260799Y122598D02*
Y126500D01*
X249200Y122598D02*
X260799D01*
X249200D02*
Y126500D01*
X260799D01*
M02*
