G04*
G04 #@! TF.GenerationSoftware,Altium Limited,Altium Designer,18.0.7 (293)*
G04*
G04 Layer_Physical_Order=2*
G04 Layer_Color=32768*
%FSLAX25Y25*%
%MOIN*%
G70*
G01*
G75*
%ADD106C,0.04000*%
G04:AMPARAMS|DCode=107|XSize=100mil|YSize=100mil|CornerRadius=0mil|HoleSize=0mil|Usage=FLASHONLY|Rotation=0.000|XOffset=0mil|YOffset=0mil|HoleType=Round|Shape=Relief|Width=10mil|Gap=10mil|Entries=4|*
%AMTHD107*
7,0,0,0.10000,0.08000,0.01000,45*
%
%ADD107THD107*%
%ADD108C,0.08000*%
%ADD109C,0.07600*%
G04:AMPARAMS|DCode=110|XSize=96mil|YSize=96mil|CornerRadius=0mil|HoleSize=0mil|Usage=FLASHONLY|Rotation=0.000|XOffset=0mil|YOffset=0mil|HoleType=Round|Shape=Relief|Width=10mil|Gap=10mil|Entries=4|*
%AMTHD110*
7,0,0,0.09600,0.07600,0.01000,45*
%
%ADD110THD110*%
%ADD111C,0.07200*%
%ADD112C,0.16835*%
%ADD113C,0.08291*%
G04:AMPARAMS|DCode=114|XSize=102.913mil|YSize=102.913mil|CornerRadius=0mil|HoleSize=0mil|Usage=FLASHONLY|Rotation=0.000|XOffset=0mil|YOffset=0mil|HoleType=Round|Shape=Relief|Width=10mil|Gap=10mil|Entries=4|*
%AMTHD114*
7,0,0,0.10291,0.08291,0.01000,45*
%
%ADD114THD114*%
%ADD115C,0.09000*%
G04:AMPARAMS|DCode=116|XSize=110mil|YSize=110mil|CornerRadius=0mil|HoleSize=0mil|Usage=FLASHONLY|Rotation=0.000|XOffset=0mil|YOffset=0mil|HoleType=Round|Shape=Relief|Width=10mil|Gap=10mil|Entries=4|*
%AMTHD116*
7,0,0,0.11000,0.09000,0.01000,45*
%
%ADD116THD116*%
G04:AMPARAMS|DCode=117|XSize=71.811mil|YSize=71.811mil|CornerRadius=0mil|HoleSize=0mil|Usage=FLASHONLY|Rotation=0.000|XOffset=0mil|YOffset=0mil|HoleType=Round|Shape=Relief|Width=10mil|Gap=10mil|Entries=4|*
%AMTHD117*
7,0,0,0.07181,0.05181,0.01000,45*
%
%ADD117THD117*%
%ADD118C,0.05181*%
D106*
X500Y500D02*
Y279500D01*
X465500D01*
Y500D02*
Y279500D01*
X500Y500D02*
X465500D01*
D107*
X282500Y257500D02*
D03*
X272500D02*
D03*
X262500D02*
D03*
X252500D02*
D03*
X242500D02*
D03*
X232500D02*
D03*
X222500D02*
D03*
X212500D02*
D03*
X202500D02*
D03*
X314100Y257800D02*
D03*
Y232200D02*
D03*
D108*
X282500Y247500D02*
D03*
X272500D02*
D03*
X262500D02*
D03*
X252500D02*
D03*
X242500D02*
D03*
X232500D02*
D03*
X222500D02*
D03*
X212500D02*
D03*
X202500D02*
D03*
X192500Y257500D02*
D03*
Y247500D02*
D03*
X331900Y257800D02*
D03*
Y232200D02*
D03*
D109*
X128000Y29000D02*
D03*
Y19000D02*
D03*
X118000Y29000D02*
D03*
Y19000D02*
D03*
D110*
X108000Y29000D02*
D03*
Y19000D02*
D03*
D111*
X197000Y67000D02*
D03*
X207000D02*
D03*
D112*
X26507Y171693D02*
D03*
Y73307D02*
D03*
X439098Y32807D02*
D03*
Y131193D02*
D03*
D113*
X32097Y100689D02*
D03*
X20916Y106142D02*
D03*
X32097Y111594D02*
D03*
X20916Y117047D02*
D03*
Y127953D02*
D03*
X32097Y133405D02*
D03*
X20916Y138858D02*
D03*
X32097Y144311D02*
D03*
X433508Y103811D02*
D03*
X444689Y98358D02*
D03*
X433508Y92905D02*
D03*
X444689Y87453D02*
D03*
Y76547D02*
D03*
X433508Y71095D02*
D03*
X444689Y65642D02*
D03*
X433508Y60189D02*
D03*
D114*
X32097Y122500D02*
D03*
X433508Y82000D02*
D03*
D115*
X11000Y40500D02*
D03*
X445500Y163001D02*
D03*
D116*
X11000Y50500D02*
D03*
X445500Y153001D02*
D03*
D117*
X348000Y169500D02*
D03*
X341000D02*
D03*
X348000Y162500D02*
D03*
X341000D02*
D03*
X347500Y198000D02*
D03*
X277500Y120000D02*
D03*
X201500Y158000D02*
D03*
X193500Y166000D02*
D03*
X228500Y172500D02*
D03*
X241000Y170000D02*
D03*
X252500Y169500D02*
D03*
X247500Y151000D02*
D03*
X246500Y121000D02*
D03*
X239500Y119000D02*
D03*
X267000Y99000D02*
D03*
X221000Y111500D02*
D03*
X198500Y120000D02*
D03*
Y146500D02*
D03*
X202500Y56000D02*
D03*
X226000Y49000D02*
D03*
X250500Y71000D02*
D03*
X282500Y83000D02*
D03*
X314500Y67000D02*
D03*
X326500Y65500D02*
D03*
X345000Y108000D02*
D03*
X361000Y160000D02*
D03*
X382500Y175500D02*
D03*
X382000Y154000D02*
D03*
X367000Y143000D02*
D03*
X332441Y130559D02*
D03*
X356500Y140500D02*
D03*
X393500Y45000D02*
D03*
X383500Y18500D02*
D03*
X333500Y192500D02*
D03*
X391500Y244000D02*
D03*
X405000Y255000D02*
D03*
X371000Y222500D02*
D03*
X359000Y214500D02*
D03*
X285000Y231500D02*
D03*
X237500Y232000D02*
D03*
X224000D02*
D03*
X54000Y69000D02*
D03*
X89000Y117500D02*
D03*
X63000Y178500D02*
D03*
X52000Y223000D02*
D03*
Y245500D02*
D03*
X9523Y241976D02*
D03*
X170500Y116000D02*
D03*
X151500Y121000D02*
D03*
D118*
X369000Y200000D02*
D03*
X362000Y186500D02*
D03*
X298500Y140000D02*
D03*
X147000Y15000D02*
D03*
X190000Y86500D02*
D03*
X256500Y81000D02*
D03*
X314500Y203000D02*
D03*
X308500Y146500D02*
D03*
X319000Y111500D02*
D03*
X275000Y104500D02*
D03*
X323000Y89000D02*
D03*
Y98000D02*
D03*
X220000Y210000D02*
D03*
X205500Y150000D02*
D03*
X306500Y139500D02*
D03*
X312500Y112000D02*
D03*
X305874Y111626D02*
D03*
X299000Y113000D02*
D03*
X311500Y127500D02*
D03*
X268000Y64500D02*
D03*
X265500Y48500D02*
D03*
X189000Y56500D02*
D03*
X185306Y60694D02*
D03*
X202000Y39000D02*
D03*
X191500Y154000D02*
D03*
X195000Y179000D02*
D03*
X209000Y175500D02*
D03*
X217000Y178000D02*
D03*
X251000Y156000D02*
D03*
X241000Y177500D02*
D03*
X253000Y176500D02*
D03*
X257000Y153500D02*
D03*
X256000Y129500D02*
D03*
X259000Y110500D02*
D03*
X252500Y110000D02*
D03*
X232000Y113000D02*
D03*
X209000Y112500D02*
D03*
X192000Y118000D02*
D03*
X193000Y135500D02*
D03*
X284000Y43500D02*
D03*
X280000Y69500D02*
D03*
X314000Y76000D02*
D03*
X326500Y74000D02*
D03*
X379000Y32000D02*
D03*
X374000Y15000D02*
D03*
X404000Y163000D02*
D03*
X385000Y163500D02*
D03*
X380500Y208500D02*
D03*
X373273Y213727D02*
D03*
X375500Y211500D02*
D03*
X378500Y186000D02*
D03*
X403500Y170000D02*
D03*
X385000Y169000D02*
D03*
X362500Y170000D02*
D03*
X357000Y151500D02*
D03*
X328500Y154000D02*
D03*
X362000Y129500D02*
D03*
X338000Y149000D02*
D03*
X421000Y10500D02*
D03*
X331500Y179500D02*
D03*
X360500Y250500D02*
D03*
X93500Y53000D02*
D03*
X85500Y184000D02*
D03*
X45260Y179500D02*
D03*
X87000Y202500D02*
D03*
X83500Y222000D02*
D03*
X88000Y240000D02*
D03*
X87500Y251500D02*
D03*
X11000Y233000D02*
D03*
X125575Y171575D02*
D03*
X115500Y171500D02*
D03*
X163000Y173500D02*
D03*
X131500Y36500D02*
D03*
X195000Y38500D02*
D03*
X121000Y203500D02*
D03*
X125000Y197000D02*
D03*
X200500Y196000D02*
D03*
X203500Y200500D02*
D03*
X146500Y207500D02*
D03*
X207500Y206000D02*
D03*
X141500Y207000D02*
D03*
X142500Y202000D02*
D03*
X211500Y196500D02*
D03*
X213500Y207000D02*
D03*
X215500Y199500D02*
D03*
X158000Y168500D02*
D03*
X114500Y177500D02*
D03*
X158500Y174500D02*
D03*
X119500Y181500D02*
D03*
X158000Y180500D02*
D03*
X140500Y24000D02*
D03*
X128500Y49000D02*
D03*
X138000Y197500D02*
D03*
X211500Y202500D02*
D03*
X135500Y48500D02*
D03*
X135000Y209000D02*
D03*
X151000Y24000D02*
D03*
X150500Y49000D02*
D03*
X145000Y49500D02*
D03*
X139500Y49000D02*
D03*
X225500Y214000D02*
D03*
X179000D02*
D03*
X371500Y189000D02*
D03*
X368500Y184000D02*
D03*
X409000Y206000D02*
D03*
X351000Y209500D02*
D03*
X117000Y48000D02*
D03*
X118000Y37500D02*
D03*
X232500Y89500D02*
D03*
X249000Y79000D02*
D03*
X231000Y83000D02*
D03*
X274500Y96000D02*
D03*
X300000Y94500D02*
D03*
X269500Y90500D02*
D03*
X302500Y145000D02*
D03*
X301937Y106500D02*
D03*
X320000Y199500D02*
D03*
X317500Y148500D02*
D03*
X48000Y61500D02*
D03*
X54500Y62500D02*
D03*
X415000Y238000D02*
D03*
X95000Y67500D02*
D03*
X103500D02*
D03*
X186500Y231000D02*
D03*
X197500Y240000D02*
D03*
M02*
